<?xml version="1.0" encoding="utf-8"?>
<!-- Generator: Adobe Illustrator 17.0.0, SVG Export Plug-In . SVG Version: 6.00 Build 0)  -->
<!DOCTYPE svg PUBLIC "-//W3C//DTD SVG 1.1//EN" "http://www.w3.org/Graphics/SVG/1.1/DTD/svg11.dtd" [
	<!ENTITY ns_flows "http://ns.adobe.com/Flows/1.0/">
	<!ENTITY ns_extend "http://ns.adobe.com/Extensibility/1.0/">
	<!ENTITY ns_ai "http://ns.adobe.com/AdobeIllustrator/10.0/">
	<!ENTITY ns_graphs "http://ns.adobe.com/Graphs/1.0/">
]>
<svg version="1.1" id="Layer_1" xmlns:x="&ns_extend;" xmlns:i="&ns_ai;" xmlns:graph="&ns_graphs;"
	 xmlns="http://www.w3.org/2000/svg" xmlns:xlink="http://www.w3.org/1999/xlink" xmlns:a="http://ns.adobe.com/AdobeSVGViewerExtensions/3.0/"
	 x="0px" y="0px" width="600px" height="600px" viewBox="0 0 600 600" style="enable-background:new 0 0 600 600;"
	 xml:space="preserve">
<style type="text/css">
	.st0{fill:#000100;}
	.st1{fill:#E80040;stroke:#000000;stroke-miterlimit:10;}
	.st2{fill:#FCE200;stroke:#000000;stroke-miterlimit:10;}
	.st3{fill:#FEA63F;stroke:#000000;stroke-miterlimit:10;}
	.st4{fill:#FFFFFF;stroke:#000000;stroke-miterlimit:10;}
	.st5{fill:#FFFFFF;}
	.st6{fill:#7C0014;}
	.st7{fill:#75C255;stroke:#000000;stroke-miterlimit:10;}
	.st8{fill:#52B329;}
	.st9{fill:#52BCE0;stroke:#000000;stroke-miterlimit:10;}
	.st10{fill:#48ACD0;}
	.st11{fill:#028CBE;}
	.st12{fill:#52BCE0;}
	.st13{fill:#EFF0F9;stroke:#4E3B64;stroke-miterlimit:10;}
	.st14{fill:#1D5662;stroke:#000000;stroke-miterlimit:10;}
	.st15{fill:#1D5662;}
	.st16{fill:#054049;}
	.st17{fill:#037FC7;}
	.st18{fill:#9158B6;stroke:#000000;stroke-miterlimit:10;}
	.st19{fill:#752EA5;}
	.st20{fill:#2678C7;}
	.st21{fill:#FABFB6;stroke:#000000;stroke-miterlimit:10;}
	.st22{fill:#FABFB6;}
	.st23{fill:#FC8038;stroke:#FABFB6;stroke-miterlimit:10;}
	.st24{fill:#00A39B;}
	.st25{fill:#E53A3E;stroke:#000000;stroke-miterlimit:10;}
	.st26{fill:#E53A3E;}
	.st27{fill:#242424;stroke:#5C377E;stroke-miterlimit:10;}
	.st28{fill:#525252;stroke:#000000;stroke-miterlimit:10;}
	.st29{fill:#4998BB;}
	.st30{fill:#1A7F9E;}
	.st31{fill:#E58000;stroke:#000000;stroke-miterlimit:10;}
	.st32{fill:#BA7500;stroke:#000000;stroke-miterlimit:10;}
	.st33{fill:#DF961C;stroke:#000000;stroke-miterlimit:10;}
	.st34{fill:#DF961C;}
	.st35{fill:#EDF3F8;stroke:#000000;stroke-miterlimit:10;}
	.st36{fill:#DA7600;}
	.st37{fill:#C2BEC8;}
	.st38{fill:#000100;stroke:#FFFFFF;stroke-miterlimit:10;}
	.st39{fill:#A8F001;stroke:#000000;stroke-miterlimit:10;}
	.st40{fill:#0578CD;}
	.st41{fill:#1A58A5;}
	.st42{stroke:#625616;stroke-miterlimit:10;}
	.st43{adobe-knockout:true;}
	.st44{fill:none;stroke:#FFFFFF;stroke-width:3;stroke-miterlimit:10;adobe-knockout:false;}
	.st45{fill:#D71F26;stroke:#000000;stroke-miterlimit:10;}
	.st46{fill:#008183;}
	.st47{fill:#6FC266;}
	.st48{fill:#C4373C;}
	.st49{fill:#00CAB0;}
	.st50{fill:#FAAE1E;}
	.st51{fill:#EC153B;}
	.st52{fill:#00B296;}
	.st53{fill:#F2C958;stroke:#00CAB0;stroke-miterlimit:10;}
	.st54{fill:#FF354F;stroke:#000000;stroke-miterlimit:10;}
	.st55{fill:#0D36A7;stroke:#000000;stroke-miterlimit:10;}
	.st56{fill:#D2D7E2;stroke:#000000;stroke-miterlimit:10;}
	.st57{fill:#CA2B9D;stroke:#000000;stroke-miterlimit:10;}
	.st58{fill:#58006C;stroke:#000000;stroke-miterlimit:10;}
	.st59{fill:#C60021;}
	.st60{fill:#A30F81;}
	.st61{fill:#0159C0;stroke:#A0A0A0;stroke-miterlimit:10;}
	.st62{fill:#013390;}
	.st63{fill:#F08900;}
	.st64{fill:#D20129;}
	.st65{fill:#AD0000;}
	.st66{fill:#131E25;}
	.st67{fill:#DAD2D8;stroke:#000000;stroke-miterlimit:10;}
	.st68{fill:#0066B3;}
	.st69{fill:#969796;}
	.st70{fill:#E86271;}
	.st71{fill:url(#SVGID_1_);stroke:#000000;stroke-miterlimit:10;}
	.st72{fill:#5AB4D2;stroke:#000000;stroke-miterlimit:10;}
	.st73{fill:#5AB4D2;}
	.st74{fill:#FFFFFF;stroke:#5AB4D2;stroke-miterlimit:10;}
	.st75{fill:#073F98;stroke:#0453BC;stroke-miterlimit:10;}
	.st76{fill:#2762C9;stroke:#000000;stroke-miterlimit:10;}
	.st77{fill:#C252FF;}
	.st78{fill:url(#SVGID_2_);}
	.st79{fill:url(#SVGID_3_);}
	.st80{fill:#DAD2D8;}
	.st81{stroke:#000000;stroke-miterlimit:10;}
	.st82{fill:#05297D;stroke:#000000;stroke-miterlimit:10;}
	.st83{fill:#05297D;stroke:#FFFFFF;stroke-miterlimit:10;}
	.st84{fill:#A8A8B4;}
	.st85{fill:url(#SVGID_4_);stroke:#000000;stroke-miterlimit:10;}
	.st86{fill:#53536A;}
	.st87{fill:#073F98;}
	.st88{fill:#098FBC;}
	.st89{fill:url(#SVGID_5_);}
	.st90{fill:#F7A161;}
	.st91{fill:#FF0000;stroke:#000000;stroke-miterlimit:10;}
	.st92{fill:#F54849;stroke:#000000;stroke-miterlimit:10;}
	.st93{fill:url(#SVGID_6_);}
	.st94{fill:url(#SVGID_7_);}
	.st95{fill:#3A72B7;stroke:#000000;stroke-miterlimit:10;}
	.st96{fill:#96C4F0;stroke:#000000;stroke-miterlimit:10;}
	.st97{fill:#C50040;}
	.st98{fill:#D11E24;}
	.st99{fill:#E3E3E7;}
	.st100{stroke:#FFCF2B;stroke-miterlimit:10;}
	.st101{fill:none;stroke:#F9E42A;stroke-miterlimit:10;}
	.st102{fill:#F08900;stroke:#000000;stroke-miterlimit:10;}
	.st103{fill:#F28330;}
	.st104{fill:#FC8038;}
	.st105{fill:#5AB633;}
	.st106{fill:#553658;stroke:#75C255;stroke-miterlimit:10;}
	.st107{fill:#1853A6;}
	.st108{fill:#CB0000;}
	.st109{fill:#0F0D0E;}
	.st110{fill:#636363;}
	.st111{fill:#FFFFFF;stroke:#00A39B;stroke-miterlimit:10;}
	.st112{fill:#D71F26;}
	.st113{fill:#020000;}
	.st114{fill:none;stroke:#000000;stroke-width:0.5;stroke-miterlimit:10;}
	.st115{clip-path:url(#SVGID_9_);}
	.st116{clip-path:url(#SVGID_11_);}
	.st117{clip-path:url(#SVGID_13_);}
	.st118{clip-path:url(#SVGID_15_);}
	.st119{fill:#7A4A00;}
	.st120{fill:none;stroke:#1A7F9E;stroke-width:7;stroke-miterlimit:10;}
	.st121{fill:#E20227;stroke:#4998BB;stroke-miterlimit:10;}
	.st122{fill:#1F2427;}
	.st123{fill:#BA7500;}
	.st124{fill:none;stroke:#BA7500;stroke-width:7;stroke-miterlimit:10;}
	.st125{fill:#843D00;stroke:#000000;stroke-width:0.25;stroke-miterlimit:10;}
	.st126{stroke:#000000;stroke-width:0.25;stroke-miterlimit:10;}
	.st127{fill:#ECEEF3;stroke:#1A58A5;stroke-miterlimit:10;}
	.st128{fill:#233194;}
	.st129{fill:#E0DFE3;}
	.st130{fill:#C2BEC8;stroke:#000000;stroke-miterlimit:10;}
	.st131{fill:#233194;stroke:#000000;stroke-miterlimit:10;}
	.st132{fill:#A40100;}
	.st133{adobe-knockout:false;}
	.st134{fill:#A0AAC1;}
	.st135{fill:#A40100;stroke:#000000;stroke-miterlimit:10;}
	.st136{fill:#92F0D6;}
	.st137{fill:#F2C958;}
	.st138{fill:#CA2B9D;stroke:#CA2B9D;stroke-miterlimit:10;}
	.st139{fill:#A30F81;stroke:#000000;stroke-miterlimit:10;}
	.st140{fill:#7E2B42;}
	.st141{fill:#0D36A7;}
	.st142{fill:#EE1C24;}
	.st143{fill:#0159C0;}
	.st144{stroke:#A0A0A0;stroke-miterlimit:10;}
	.st145{stroke:#4E3B64;stroke-miterlimit:10;}
	.st146{fill:#FDEA00;stroke:#000000;stroke-width:0.217;}
	.st147{fill:#FDEA00;stroke:#000000;stroke-width:0.2326;}
	.st148{fill:#1D1D1B;}
	.st149{fill:#FF0000;}
	.st150{fill:none;stroke:#0453BC;stroke-width:25.435;stroke-miterlimit:10;adobe-knockout:false;}
	.st151{fill:none;stroke:#0453BC;stroke-width:25.4353;stroke-linecap:round;stroke-miterlimit:10;adobe-knockout:false;}
	.st152{fill:#CAC5C0;}
	.st153{fill:#2762C9;}
	.st154{fill:#C252FF;stroke:#000000;stroke-miterlimit:10;}
	.st155{fill:#A54B2D;stroke:#000000;stroke-miterlimit:10;}
	.st156{fill:#A54B2D;}
	.st157{stroke:#A54B2D;stroke-miterlimit:10;}
	.st158{fill:#823311;}
	.st159{fill:none;}
	.st160{fill:#05297D;}
	.st161{fill:none;stroke:#FF7F35;stroke-width:6;stroke-miterlimit:10;}
	.st162{fill:#031DFF;stroke:#000000;stroke-miterlimit:10;}
	.st163{fill:#0370FF;stroke:#000000;stroke-miterlimit:10;}
	.st164{fill:#031DC4;}
	.st165{fill:none;stroke:#0080CA;stroke-width:6;stroke-miterlimit:10;}
	.st166{fill:#031DFF;stroke:#FFFFFF;stroke-miterlimit:10;}
	.st167{fill:#0263B0;}
	.st168{fill:none;stroke:#FFFFFF;stroke-width:2;stroke-miterlimit:10;}
	.st169{fill:url(#SVGID_16_);stroke:#FFFFFF;stroke-miterlimit:10;}
	.st170{fill:url(#SVGID_17_);}
	.st171{fill:url(#SVGID_18_);}
	.st172{fill:url(#SVGID_19_);}
	.st173{fill:#693B0F;stroke:#000000;stroke-miterlimit:10;}
	.st174{fill:#3E4E70;}
	.st175{fill:#F7CE02;}
	.st176{fill:#0551E1;stroke:#000000;stroke-miterlimit:10;}
	.st177{fill:#EC153B;stroke:#000000;stroke-miterlimit:10;}
	.st178{fill:#0831FD;}
	.st179{fill:#0870FD;}
	.st180{fill:none;stroke:#9F3D44;stroke-width:3;stroke-miterlimit:10;}
</style>
<path class="st21" d="M6.1,342.8C40.7,232.2,21.2,187.2,67.7,94.2c10.5-21,71.9-57.8,135.8-73.2c0,0,109.7-25.5,180.5-3.5
	s140.3,53.3,151.9,80c35.7,82.1,31.2,191.6,59.7,243.7c-12.5,1.2-81.3,14.4-109.3,19.7c-2.4-7.3-13.4-60-13.4-60s3.2,248,3.2,270
	c-0.2,19-92.8,24-180.8,24s-167.5-10-167.5-26.9c0-16.8,1.1-262.1,1.1-262.1s-3.3,23.3-8.3,56.1C91.3,361.9,16.4,344,6.1,342.8z"/>
<g>
	<g>
		<path class="st22" d="M234.5,28.7C247.3,46,269,62.5,305.1,62.5c36.2,0,56.3-16.8,67.4-34.5C342.2,31.1,266.9,30.8,234.5,28.7z"/>
		<path class="st23" d="M375.1,1c-17.6,5.3-142.2,2.9-148.6,0.6c-0.1,0.3-0.3,0.7-0.5,1.1c2.2,7.1,6.3,17.5,13.7,27.5
			c29.5,1.9,97.9,2.2,125.6-0.6c6.2-9.9,9.4-20.2,10.9-27.3C375.8,1.8,375.4,1.4,375.1,1z"/>
	</g>
	<path class="st23" d="M376.2,2.3c-4.1,18.7-19,58.7-72.2,58.7c-53.9,0-72.4-40.1-78-58.3c-2.9,5.3-15.1,16-15.1,16
		s15.6,61.7,91.1,61.7c76.5,0,86.6-58.7,87.7-63.1C387.6,16.4,380.4,6.9,376.2,2.3z"/>
</g>
<path class="st23" d="M73.8,85.9c0,0,77.1,9.2,55.7,220c-0.9,166-1.1,253.8-1.1,255.9c0,3.2-0.6,7.5,0.8,9.2
	c0.7,1.1,1.7,2.3,3.4,3.5c4.7,3.4,13.4,6.6,25.2,9.1c-14.2-11.6-10.9-42.8-9.8-72.1c1.1-29.4-24-95.4-3-199.4
	c6.8-33.6-5.5-74.9-6-84C135,160.4,122.6,94.6,73.8,85.9z"/>
<path class="st23" d="M530.2,89c0,0-79.2,0.7-57.7,211.5c2.1,168.9,3.2,265.3,3.2,264.5c0-2.3,0,2.4,0,6.2c0,1.3-0.7,2.6-0.9,2.9
	c-0.7,1.1-2,2.2-3.6,3.4c-4.7,3.4-13.3,5.9-25.1,8.2c14.2-11.6,11.1-41.8,10-71.2c-1.1-29.4,24-95.4,3-199.4
	c-6.8-33.6,1.5-83.4,2-92.4C465,155.1,483.7,92,530.2,89z"/>
<g>
	<path class="st104" d="M113,114c0,0,66-42,124-20s122,18,150,8s86-2,104,12c-40-13.5-60.5-11.5-95-4c-10.4,2.3-95.5,29.5-163-4
		c-49.7-24.7-96,6-114,20C114.4,121.5,113,114,113,114z"/>
	<path class="st104" d="M370,156c-28,10-92,14-150-8c-32.7-12.4-67.9-4.5-92.4,4.8c1,3.1,2,6.3,2.4,9.6c22.6-11,53.6-18.5,86-2.4
		c67.5,33.5,152.6,6.3,163,4c34.5-7.5,55-9.5,95,4C456,154,398,146,370,156z"/>
	<path class="st104" d="M387,123c-58,22-133,12-161,2s-86-2-104,12c40-13.5,60.5-11.5,95-4c10.4,2.3,106.5,35.5,174,2
		c48.3-23.9,66.9,0.5,84.4,14.8c1.6-4.3,3.5-8.5,5.5-12.6C472.4,129.8,437.2,104,387,123z"/>
	<path class="st104" d="M372,177c-58,22-133,12-161,2c-19.7-7-54.2-5.2-79.2,1.4c0.1,1.2,0.5,2.3,0.8,3.5
		c24.9-5.1,43.1-2.6,69.4,3.1c10.4,2.3,106.5,35.5,174,2c49.7-24.7,68,2,86,16c4.6-4.5,6-12,6-12S430,155,372,177z"/>
	<path class="st104" d="M387,214c-28,10-92,14-150-8c-37.2-14.1-77.6-1.9-101.9,8.7c0.2,3.9,0.4,7.9,0.7,11.8
		c22.9-13.7,59.1-27.4,97.2-8.5c67.5,33.5,152.6,6.3,163,4c25.8-5.6,43.8-8.1,67.9-3.4c0.4-1.1,0.8-2.3,1.1-3.5
		C440.1,208.8,406.4,207.1,387,214z"/>
	<path class="st104" d="M370,268c-28,10-92,14-150-8c-28.1-10.7-58.1-6.3-81.6,1.1c0.2,3.1,0.3,6.3,0.4,9.4
		c21.5-8.6,48.8-12.5,77.1,1.5c67.5,33.5,152.6,6.3,163,4c30.8-6.7,50.4-9,82.8,0.2c0.2-0.8,0.4-1.7,0.6-2.5
		C437.9,263.9,393.5,259.6,370,268z"/>
	<path class="st104" d="M465.1,238.6c-16.6-8.7-43.8-16.6-78.1-3.6c-58,22-133,12-161,2c-22.4-8-64.1-4.5-89.1,4.5
		c0.1,1,0.2,1.9,0.2,2.9c30.6-8.2,50-5.9,79.8,0.6c10.4,2.3,106.5,35.5,174,2c38.9-19.3,58.5-7.2,73.9,5.7
		C465.1,248,465.1,243.3,465.1,238.6z"/>
	<path class="st104" d="M372,289c-58,22-133,12-161,2c-18-6.4-48.3-5.4-72.5-0.2c-0.1,1.3-0.2,2.7-0.4,4c22.2-3.7,39.6-1.2,63.9,4.1
		c10.4,2.3,106.5,35.5,174,2c49.7-24.7,68,2,86,16c4.6-4.5,6-12,6-12S430,267,372,289z"/>
	<path class="st104" d="M387,326c-28,10-92,14-150-8c-35.9-13.6-75-2.7-99.4,7.6c-1,4.6-2.2,9.2-3.2,13.7
		c22.8-14,59.7-28.7,98.6-9.3c67.5,33.5,152.6,6.3,163,4c27.1-5.9,45.6-8.4,71.7-2.6c-0.1-1.2-0.2-2.4-0.3-3.6
		C442.2,320.9,407,318.9,387,326z"/>
	<path class="st104" d="M370,380c-28,10-92,14-150-8c-31.2-11.8-64.8-5.1-89.1,3.6c0.1,3.4,0.3,6.8,0.5,10.1
		c22.5-10.6,52.9-17.5,84.6-1.7c67.5,33.5,152.6,6.3,163,4c33.6-7.3,53.9-9.4,92,3c0-0.4,0-0.7,0-1.1
		C450.2,377.2,396.6,370.5,370,380z"/>
	<path class="st104" d="M387,347c-58,22-133,12-161,2c-24.2-8.6-70.7-3.9-94.5,6.6c-0.1,0.8-0.2,1.6-0.2,2.4
		c34.1-10.2,54-8,85.7-1.1c10.4,2.3,106.5,35.5,174,2c43.6-21.7,63.1-3.7,79.4,10.5c-0.2-5.5-0.6-11-0.9-16.4
		C453.5,343.6,424.4,332.8,387,347z"/>
	<path class="st104" d="M372,401c-58,22-133,12-161,2c-19.5-7-53.4-5.2-78.4,1.2c0.1,1.2,0.1,2.4,0.2,3.6
		c24.8-5.1,42.9-2.5,69.2,3.2c10.4,2.3,106.5,35.5,174,2c49.7-24.7,72.2,5.3,90.2,19.3c4.6-4.5,1.8-15.3,1.8-15.3S430,379,372,401z"
		/>
	<path class="st104" d="M387,438c-28,10-92,14-150-8c-38.2-14.5-79.8-1.2-103.8,9.5c0.2,4,0.5,8,0.9,12c22.8-14,59.8-28.9,98.9-9.5
		c67.5,33.5,152.6,6.3,163,4c28.7-6.2,47.8-8.7,76.4-1.5c0.1-1.1,0.1-2.1,0.1-3.2C447.3,433.2,408.4,430.4,387,438z"/>
	<path class="st104" d="M370,492c-28,10-92,14-150-8c-28.2-10.7-58.4-6.2-81.9,1.2c0.3,3.1,0.6,6.2,0.7,9.3
		c21.5-8.6,48.8-12.5,77.1,1.5c67.5,33.5,152.6,6.3,163,4c33-7.2,53.2-9.3,89.8,2.3c0-0.5,0-1.1,0-1.6
		C446.7,488.8,395.7,482.8,370,492z"/>
	<path class="st104" d="M387,459c-58,22-133,12-161,2c-22.8-8.1-65.4-4.4-90.2,4.9c0.1,0.9,0.2,1.8,0.4,2.8
		c31.2-8.6,50.7-6.2,80.8,0.4c10.4,2.3,106.5,35.5,174,2c42.1-20.9,61.7-5,77.6,8.9c0.8-4.7,1.5-9.4,2.1-14.1
		C455.1,456.2,425.4,444.4,387,459z"/>
	<path class="st104" d="M372,513c-58,22-133,12-161,2c-17.6-6.3-47-5.5-70.9-0.5c0.1,1.3,0.2,2.7,0.3,4c21.1-3.2,38.1-0.6,61.6,4.5
		c10.4,2.3,106.5,35.5,174,2c49.7-24.7,68,2,86,16c1.9-1.9,3.3-4.2,4.2-6.4c0.3-2.2,0.6-4.3,0.8-6.5C460.8,522.5,424.6,493,372,513z
		"/>
	<path class="st104" d="M387,550c-28,10-92,14-150-8c-34.3-13-71.3-3.7-95.9,6.2c-0.2,3.7-0.2,7.5,0.1,11.2
		c23-12.5,56.5-22.9,91.8-5.4c67.5,33.5,152.6,6.3,163,4c25.2-5.5,42.9-8,66.3-3.7c0.3-1.2,0.6-2.4,0.9-3.6
		C438.5,544.7,405.9,543.3,387,550z"/>
	<path class="st104" d="M387,571c-58,22-133,12-161,2c-20.3-7.2-56.2-5-81.3,2c0.4,1.1,0.9,2.1,1.5,3.2c25.7-5.5,44-3,70.9,2.8
		c4.8,1,28.2,9.2,58.1,13.9c29.3-0.6,55.9-0.4,87-1.2c9.9-2.3,19.8-6.1,28.9-10.6c29.4-14.6,47.8-11.2,61.7-3.1c1.5-3,2.9-6,4.1-9.1
		C440.1,564,416,560,387,571z"/>
</g>
<g>
	<g>
		<path class="st5" d="M377.3,218.5c-1.1-1.8-3.7-2.7-6.8-3.9c-4.7-1.8-10.5-3.9-15.3-9.8c-5.7-7-8.4-17.2-8.5-31.5
			c2.2-0.1,7.2-0.6,9.5-3.9c1.1-1.7,1.4-3.7,0.6-6.2c2.1,0.4,4.2,0.7,6.2,0.7l0,0c8.5,0,12.7-3.5,14.1-5c1.3,1.6,5.3,5.5,14.3,5.5
			l0,0c2.3,0,4.9-0.4,7.5-0.9c-0.8,2.6-0.6,4.7,0.6,6.4c1.8,2.7,5.6,3.7,8.8,3.9c-0.1,14-2.9,24.2-8.6,31c-4.9,5.8-10.8,8-15.5,9.8
			C381.2,215.7,378.5,216.7,377.3,218.5z"/>
		<path class="st107" d="M377.2,159.5c1.8,1.9,6,5.2,14.3,5.2c2.1,0,4.3-0.2,6.7-0.6c-0.5,2.3-0.2,4.4,1,6.1
			c1.8,2.7,5.5,3.9,8.7,4.1c-0.1,7.1-0.9,13.3-2.5,18.4c-1.4,4.6-3.4,8.5-6,11.7c-4.8,5.7-10.6,7.8-15.3,9.6c-2.8,1-5.3,2-6.7,3.5
			c-1.4-1.5-3.9-2.4-6.6-3.4c-4.6-1.7-10.3-3.9-15-9.7c-2.6-3.1-4.6-7.1-6-11.8c-1.5-5.2-2.3-11.5-2.4-18.7c2.5-0.2,7.2-0.9,9.4-4.2
			c1.1-1.6,1.4-3.6,1-5.8c1.9,0.3,3.7,0.4,5.4,0.4C370.9,164.3,375.3,161.3,377.2,159.5 M377.3,157.6c0,0-3.9,5.4-14.2,5.4
			c-2.1,0-4.5-0.2-7.2-0.8c3.2,8.2-4.6,10.4-9.8,10.4c0,48.2,31.2,38.6,31.2,48c0-9.4,31.8,0,31.8-47.5c-4.9,0-12.4-2.4-9.1-10.6
			c-3.2,0.7-6,1-8.5,1C380.6,163.5,377.3,157.6,377.3,157.6L377.3,157.6z"/>
	</g>
	<g>
		<g>
			<path class="st107" d="M406.6,175.5c-3.2-0.4-6.6-1.8-8.5-4.5c-0.8-1.2-1.5-3-1.4-5.3c-1.8,0.2-3.6,0.3-5.2,0.3l0,0
				c-6.2,0-10.3-1.8-12.6-3.3c-0.7-0.5-1.3-1-1.8-1.4c-2.4,1.9-6.9,4.2-14,4.2l0,0c-1.3,0-2.6,0-4-0.2c0.1,2.3-0.6,4-1.4,5.1
				c-2.2,3.2-6.3,4.3-9.2,4.6c0.1,5.3,0.6,9.7,1.5,13.7h55.1C406,184.9,406.5,180.5,406.6,175.5z"/>
		</g>
	</g>
	<g>
		<path class="st5" d="M355.2,177.7h-1.9v-1.8h5.8v1.8h-1.9v6.2h-2L355.2,177.7L355.2,177.7z"/>
		<path class="st5" d="M360,181.9c0.4,0.2,1.2,0.4,1.9,0.4c0.7,0,1.1-0.3,1.1-0.7c0-0.4-0.4-0.6-1.2-1c-1.3-0.6-2-1.4-2-2.4
			c0-1.4,1.1-2.5,3.1-2.5c0.8,0,1.5,0.2,1.9,0.4l-0.4,1.7c-0.3-0.1-0.8-0.4-1.5-0.4c-0.6,0-1,0.2-1,0.6c0,0.4,0.4,0.6,1.3,1
			c1.3,0.6,1.9,1.4,1.9,2.4c0,1.4-1.1,2.5-3.2,2.5c-0.9,0-1.8-0.2-2.1-0.4L360,181.9z"/>
		<path class="st5" d="M372.4,183.6c-0.5,0.2-1.6,0.4-2.5,0.4c-1.4,0-2.4-0.4-3.1-1c-0.8-0.7-1.1-1.8-1.1-3c0-2.8,2-4.1,4.4-4.1
			c1,0,1.7,0.2,2.1,0.3l-0.4,1.7c-0.4-0.2-0.9-0.3-1.6-0.3c-1.3,0-2.2,0.7-2.2,2.4c0,1.5,0.9,2.3,2,2.3c0.2,0,0.4,0,0.5-0.1v-1.4
			h-0.9v-1.6h2.9V183.6z"/>
		<path class="st5" d="M377.8,178.1L377.8,178.1l-1.5,0.7l-0.3-1.6l2.1-0.9h1.7v7.7h-2V178.1L377.8,178.1z"/>
		<path class="st5" d="M384.8,176.1c1.7,0,2.5,1,2.5,2c0,0.6-0.3,1.2-1,1.7v0c0.7,0.3,1.3,0.9,1.3,1.9c0,1.5-1.2,2.4-2.9,2.4
			c-1.9,0-2.8-1-2.8-2.1c0-0.9,0.5-1.6,1.2-1.9v0c-0.7-0.4-1-1-1-1.7C382.1,176.9,383.3,176.1,384.8,176.1L384.8,176.1z
			 M384.8,182.7c0.5,0,0.8-0.4,0.8-0.9c0-0.6-0.5-1-1-1.1c-0.4,0.1-0.7,0.5-0.7,1S384.2,182.7,384.8,182.7L384.8,182.7z
			 M384.7,177.5c-0.5,0-0.7,0.4-0.7,0.8c0,0.4,0.4,0.8,0.9,0.9c0.3-0.1,0.6-0.4,0.6-0.9C385.4,177.9,385.2,177.5,384.7,177.5
			L384.7,177.5z"/>
		<path class="st5" d="M388.9,182.4c0.3,0,0.4,0,0.8,0c0.5,0,0.9-0.1,1.3-0.4c0.5-0.3,0.8-0.7,0.9-1.2h0c-0.3,0.3-0.7,0.4-1.3,0.4
			c-1.2,0-2.3-0.9-2.3-2.4c0-1.5,1.1-2.8,2.9-2.8c2,0,2.8,1.5,2.8,3.3c0,1.6-0.5,2.8-1.4,3.6c-0.7,0.6-1.7,1-2.9,1
			c-0.2,0-0.5,0-0.8,0L388.9,182.4L388.9,182.4z M391,177.6c-0.4,0-0.8,0.5-0.8,1.1c0,0.6,0.2,1.1,0.8,1.1c0.4,0,0.6-0.2,0.7-0.3
			c0.1-0.1,0.1-0.3,0.1-0.6C391.8,178.2,391.6,177.6,391,177.6L391,177.6z"/>
		<path class="st5" d="M395.3,182.4c0.3,0,0.4,0,0.8,0c0.5,0,0.9-0.1,1.3-0.4c0.5-0.3,0.8-0.7,0.9-1.2h0c-0.3,0.3-0.7,0.4-1.3,0.4
			c-1.2,0-2.3-0.9-2.3-2.4c0-1.5,1.1-2.8,2.9-2.8c2,0,2.8,1.5,2.8,3.3c0,1.6-0.5,2.8-1.4,3.6c-0.7,0.6-1.7,1-2.9,1
			c-0.2,0-0.5,0-0.8,0L395.3,182.4L395.3,182.4z M397.4,177.6c-0.4,0-0.8,0.5-0.8,1.1c0,0.6,0.2,1.1,0.8,1.1c0.4,0,0.6-0.2,0.7-0.3
			c0.1-0.1,0.1-0.3,0.1-0.6C398.2,178.2,398,177.6,397.4,177.6L397.4,177.6z"/>
		<path class="st108" d="M355.2,191.2v2.4h1.8v-2.4h1.6v6.3H357V195h-1.8v2.5h-1.6v-6.3H355.2z"/>
		<path class="st108" d="M361.7,197.6c-1.3,0-2.3-0.9-2.3-2.4c0-1.5,0.9-2.4,2.4-2.4c1.4,0,2.2,1,2.2,2.4
			C364,196.9,362.8,197.6,361.7,197.6L361.7,197.6z M361.8,196.5c0.4,0,0.6-0.5,0.6-1.2c0-0.6-0.2-1.2-0.6-1.2
			c-0.5,0-0.6,0.6-0.6,1.2C361.1,195.9,361.3,196.5,361.8,196.5L361.8,196.5z"/>
		<path class="st108" d="M367.8,197.5v-3.4h-1.2v3.4H365v-3.4h-0.6v-1.2h0.6v0c0-0.5,0.1-1,0.5-1.4c0.3-0.3,0.8-0.5,1.5-0.5
			c0.2,0,0.5,0.1,0.6,0.1l-0.2,1.2c-0.1,0-0.2-0.1-0.3-0.1c-0.3,0-0.4,0.3-0.4,0.6v0.1h1.2v-0.2c0-0.5,0.2-1.1,0.6-1.5
			c0.4-0.3,0.8-0.5,1.3-0.5c0.3,0,0.6,0,0.8,0.1l-0.1,1.2c-0.1,0-0.2-0.1-0.4-0.1c-0.4,0-0.6,0.2-0.6,0.6v0.2h0.8v1.2h-0.8v3.4
			L367.8,197.5L367.8,197.5z"/>
		<path class="st108" d="M372.1,195.8c0.1,0.4,0.5,0.6,1.1,0.6c0.4,0,0.8-0.1,1.2-0.2l0.2,1.1c-0.5,0.2-1.1,0.2-1.6,0.2
			c-1.5,0-2.4-0.9-2.4-2.3c0-1.2,0.8-2.4,2.3-2.4c1.4,0,2,1,2,2.3c0,0.3,0,0.6,0,0.7H372.1L372.1,195.8z M373.3,194.7
			c0-0.3-0.1-0.8-0.6-0.8c-0.4,0-0.6,0.5-0.6,0.8H373.3z"/>
		<path class="st108" d="M375.5,194.5c0-0.6,0-1.1,0-1.5h1.4l0.1,0.6h0c0.2-0.3,0.6-0.7,1.3-0.7c1,0,1.5,0.8,1.5,1.9v2.8h-1.6v-2.6
			c0-0.5-0.1-0.8-0.5-0.8c-0.3,0-0.4,0.2-0.5,0.4c0,0.1,0,0.2,0,0.4v2.6h-1.6L375.5,194.5L375.5,194.5z"/>
		<path class="st108" d="M380.8,190.9h1.6v2.5h0c0.2-0.2,0.3-0.3,0.5-0.4c0.2-0.1,0.5-0.1,0.7-0.1c1,0,1.5,0.8,1.5,2v2.7h-1.6V195
			c0-0.5-0.2-0.8-0.5-0.8c-0.3,0-0.4,0.1-0.5,0.3c0,0.1,0,0.2,0,0.3v2.7h-1.6V190.9z"/>
		<path class="st108" d="M387.5,195.8c0,0.4,0.5,0.6,1.1,0.6c0.4,0,0.8-0.1,1.2-0.2l0.2,1.1c-0.5,0.2-1.1,0.2-1.6,0.2
			c-1.6,0-2.4-0.9-2.4-2.3c0-1.2,0.8-2.4,2.3-2.4c1.4,0,2,1,2,2.3c0,0.3,0,0.6-0.1,0.7H387.5L387.5,195.8z M388.7,194.7
			c0-0.3-0.1-0.8-0.6-0.8c-0.4,0-0.6,0.5-0.6,0.8H388.7z"/>
		<path class="st108" d="M391.7,192.4c-0.5,0-0.8-0.3-0.8-0.8c0-0.5,0.3-0.8,0.8-0.8c0.5,0,0.8,0.3,0.8,0.8
			C392.5,192.1,392.2,192.4,391.7,192.4L391.7,192.4z M390.9,197.5v-4.6h1.6v4.6H390.9z"/>
		<path class="st108" d="M393.5,194.5c0-0.6,0-1.1,0-1.5h1.4l0.1,0.6h0c0.2-0.2,0.6-0.7,1.3-0.7c0.6,0,1,0.3,1.2,0.7h0
			c0.2-0.2,0.4-0.4,0.6-0.5c0.2-0.1,0.5-0.2,0.8-0.2c1,0,1.5,0.7,1.5,2v2.8h-1.6V195c0-0.6-0.1-0.9-0.5-0.9c-0.2,0-0.4,0.1-0.5,0.4
			c0,0.1,0,0.2,0,0.3v2.7h-1.7V195c0-0.4-0.1-0.8-0.5-0.8c-0.2,0-0.4,0.2-0.5,0.4c0,0.1-0.1,0.2-0.1,0.3v2.7h-1.6L393.5,194.5
			L393.5,194.5z"/>
	</g>
</g>
</svg>
