<?xml version="1.0" encoding="utf-8"?>
<!-- Generator: Adobe Illustrator 17.0.0, SVG Export Plug-In . SVG Version: 6.00 Build 0)  -->
<!DOCTYPE svg PUBLIC "-//W3C//DTD SVG 1.1//EN" "http://www.w3.org/Graphics/SVG/1.1/DTD/svg11.dtd" [
	<!ENTITY ns_flows "http://ns.adobe.com/Flows/1.0/">
	<!ENTITY ns_extend "http://ns.adobe.com/Extensibility/1.0/">
	<!ENTITY ns_ai "http://ns.adobe.com/AdobeIllustrator/10.0/">
	<!ENTITY ns_graphs "http://ns.adobe.com/Graphs/1.0/">
]>
<svg version="1.1" id="Layer_1" xmlns:x="&ns_extend;" xmlns:i="&ns_ai;" xmlns:graph="&ns_graphs;"
	 xmlns="http://www.w3.org/2000/svg" xmlns:xlink="http://www.w3.org/1999/xlink" xmlns:a="http://ns.adobe.com/AdobeSVGViewerExtensions/3.0/"
	 x="0px" y="0px" width="600px" height="600px" viewBox="0 0 600 600" style="enable-background:new 0 0 600 600;"
	 xml:space="preserve">
<style type="text/css">
	.st0{fill:#000100;}
	.st1{fill:#E80040;stroke:#000000;stroke-miterlimit:10;}
	.st2{fill:#FCE200;stroke:#000000;stroke-miterlimit:10;}
	.st3{fill:#FEA63F;stroke:#000000;stroke-miterlimit:10;}
	.st4{fill:#FFFFFF;stroke:#000000;stroke-miterlimit:10;}
	.st5{fill:#FFFFFF;}
	.st6{fill:#7C0014;}
	.st7{fill:#75C255;stroke:#000000;stroke-miterlimit:10;}
	.st8{fill:#52B329;}
	.st9{fill:#52BCE0;stroke:#000000;stroke-miterlimit:10;}
	.st10{fill:#48ACD0;}
	.st11{fill:#028CBE;}
	.st12{fill:#52BCE0;}
	.st13{fill:#EFF0F9;stroke:#4E3B64;stroke-miterlimit:10;}
	.st14{fill:#1D5662;stroke:#000000;stroke-miterlimit:10;}
	.st15{fill:#1D5662;}
	.st16{fill:#054049;}
	.st17{fill:#037FC7;}
	.st18{fill:#9158B6;stroke:#000000;stroke-miterlimit:10;}
	.st19{fill:#752EA5;}
	.st20{fill:#2678C7;}
	.st21{fill:#FABFB6;stroke:#000000;stroke-miterlimit:10;}
	.st22{fill:#FABFB6;}
	.st23{fill:#FC8038;stroke:#FABFB6;stroke-miterlimit:10;}
	.st24{fill:#00A39B;}
	.st25{fill:#E53A3E;stroke:#000000;stroke-miterlimit:10;}
	.st26{fill:#E53A3E;}
	.st27{fill:#242424;stroke:#5C377E;stroke-miterlimit:10;}
	.st28{fill:#525252;stroke:#000000;stroke-miterlimit:10;}
	.st29{fill:#4998BB;}
	.st30{fill:#1A7F9E;}
	.st31{fill:#E58000;stroke:#000000;stroke-miterlimit:10;}
	.st32{fill:#BA7500;stroke:#000000;stroke-miterlimit:10;}
	.st33{fill:#DF961C;stroke:#000000;stroke-miterlimit:10;}
	.st34{fill:#DF961C;}
	.st35{fill:#EDF3F8;stroke:#000000;stroke-miterlimit:10;}
	.st36{fill:#DA7600;}
	.st37{fill:#C2BEC8;}
	.st38{fill:#000100;stroke:#FFFFFF;stroke-miterlimit:10;}
	.st39{fill:#A8F001;stroke:#000000;stroke-miterlimit:10;}
	.st40{fill:#0578CD;}
	.st41{fill:#1A58A5;}
	.st42{stroke:#625616;stroke-miterlimit:10;}
	.st43{adobe-knockout:true;}
	.st44{fill:none;stroke:#FFFFFF;stroke-width:3;stroke-miterlimit:10;adobe-knockout:false;}
	.st45{fill:#D71F26;stroke:#000000;stroke-miterlimit:10;}
	.st46{fill:#008183;}
	.st47{fill:#6FC266;}
	.st48{fill:#C4373C;}
	.st49{fill:#00CAB0;}
	.st50{fill:#FAAE1E;}
	.st51{fill:#EC153B;}
	.st52{fill:#00B296;}
	.st53{fill:#F2C958;stroke:#00CAB0;stroke-miterlimit:10;}
	.st54{fill:#FF354F;stroke:#000000;stroke-miterlimit:10;}
	.st55{fill:#0D36A7;stroke:#000000;stroke-miterlimit:10;}
	.st56{fill:#D2D7E2;stroke:#000000;stroke-miterlimit:10;}
	.st57{fill:#CA2B9D;stroke:#000000;stroke-miterlimit:10;}
	.st58{fill:#58006C;stroke:#000000;stroke-miterlimit:10;}
	.st59{fill:#C60021;}
	.st60{fill:#A30F81;}
	.st61{fill:#0159C0;stroke:#A0A0A0;stroke-miterlimit:10;}
	.st62{fill:#013390;}
	.st63{fill:#F08900;}
	.st64{fill:#D20129;}
	.st65{fill:#AD0000;}
	.st66{fill:#131E25;}
	.st67{fill:#DAD2D8;stroke:#000000;stroke-miterlimit:10;}
	.st68{fill:#0066B3;}
	.st69{fill:#969796;}
	.st70{fill:#E86271;}
	.st71{fill:url(#SVGID_1_);stroke:#000000;stroke-miterlimit:10;}
	.st72{fill:#5AB4D2;stroke:#000000;stroke-miterlimit:10;}
	.st73{fill:#5AB4D2;}
	.st74{fill:#FFFFFF;stroke:#5AB4D2;stroke-miterlimit:10;}
	.st75{fill:#073F98;stroke:#0453BC;stroke-miterlimit:10;}
	.st76{fill:#2762C9;stroke:#000000;stroke-miterlimit:10;}
	.st77{fill:#C252FF;}
	.st78{fill:url(#SVGID_2_);}
	.st79{fill:url(#SVGID_3_);}
	.st80{fill:#DAD2D8;}
	.st81{stroke:#000000;stroke-miterlimit:10;}
	.st82{fill:#05297D;stroke:#000000;stroke-miterlimit:10;}
	.st83{fill:#05297D;stroke:#FFFFFF;stroke-miterlimit:10;}
	.st84{fill:#A8A8B4;}
	.st85{fill:url(#SVGID_4_);stroke:#000000;stroke-miterlimit:10;}
	.st86{fill:#53536A;}
	.st87{fill:#073F98;}
	.st88{fill:#098FBC;}
	.st89{fill:url(#SVGID_5_);}
	.st90{fill:#F7A161;}
	.st91{fill:#FF0000;stroke:#000000;stroke-miterlimit:10;}
	.st92{fill:#F54849;stroke:#000000;stroke-miterlimit:10;}
	.st93{fill:url(#SVGID_6_);}
	.st94{fill:url(#SVGID_7_);}
	.st95{fill:#3A72B7;stroke:#000000;stroke-miterlimit:10;}
	.st96{fill:#96C4F0;stroke:#000000;stroke-miterlimit:10;}
	.st97{fill:#C50040;}
	.st98{fill:#D11E24;}
	.st99{fill:#E3E3E7;}
	.st100{stroke:#FFCF2B;stroke-miterlimit:10;}
	.st101{fill:none;stroke:#F9E42A;stroke-miterlimit:10;}
	.st102{fill:#F08900;stroke:#000000;stroke-miterlimit:10;}
	.st103{fill:#F28330;}
	.st104{fill:#FC8038;}
	.st105{fill:#5AB633;}
	.st106{fill:#553658;stroke:#75C255;stroke-miterlimit:10;}
	.st107{fill:#1853A6;}
	.st108{fill:#CB0000;}
	.st109{fill:#0F0D0E;}
	.st110{fill:#636363;}
	.st111{fill:#FFFFFF;stroke:#00A39B;stroke-miterlimit:10;}
	.st112{fill:#D71F26;}
	.st113{fill:#020000;}
	.st114{fill:none;stroke:#000000;stroke-width:0.5;stroke-miterlimit:10;}
	.st115{clip-path:url(#SVGID_9_);}
	.st116{clip-path:url(#SVGID_11_);}
	.st117{clip-path:url(#SVGID_13_);}
	.st118{clip-path:url(#SVGID_15_);}
	.st119{fill:#7A4A00;}
	.st120{fill:none;stroke:#1A7F9E;stroke-width:7;stroke-miterlimit:10;}
	.st121{fill:#E20227;stroke:#4998BB;stroke-miterlimit:10;}
	.st122{fill:#1F2427;}
	.st123{fill:#BA7500;}
	.st124{fill:none;stroke:#BA7500;stroke-width:7;stroke-miterlimit:10;}
	.st125{fill:#843D00;stroke:#000000;stroke-width:0.25;stroke-miterlimit:10;}
	.st126{stroke:#000000;stroke-width:0.25;stroke-miterlimit:10;}
	.st127{fill:#ECEEF3;stroke:#1A58A5;stroke-miterlimit:10;}
	.st128{fill:#233194;}
	.st129{fill:#E0DFE3;}
	.st130{fill:#C2BEC8;stroke:#000000;stroke-miterlimit:10;}
	.st131{fill:#233194;stroke:#000000;stroke-miterlimit:10;}
	.st132{fill:#A40100;}
	.st133{adobe-knockout:false;}
	.st134{fill:#A0AAC1;}
	.st135{fill:#A40100;stroke:#000000;stroke-miterlimit:10;}
	.st136{fill:#92F0D6;}
	.st137{fill:#F2C958;}
	.st138{fill:#CA2B9D;stroke:#CA2B9D;stroke-miterlimit:10;}
	.st139{fill:#A30F81;stroke:#000000;stroke-miterlimit:10;}
	.st140{fill:#7E2B42;}
	.st141{fill:#0D36A7;}
	.st142{fill:#EE1C24;}
	.st143{fill:#0159C0;}
	.st144{stroke:#A0A0A0;stroke-miterlimit:10;}
	.st145{stroke:#4E3B64;stroke-miterlimit:10;}
	.st146{fill:#FDEA00;stroke:#000000;stroke-width:0.217;}
	.st147{fill:#FDEA00;stroke:#000000;stroke-width:0.2326;}
	.st148{fill:#1D1D1B;}
	.st149{fill:#FF0000;}
	.st150{fill:none;stroke:#0453BC;stroke-width:25.435;stroke-miterlimit:10;adobe-knockout:false;}
	.st151{fill:none;stroke:#0453BC;stroke-width:25.4353;stroke-linecap:round;stroke-miterlimit:10;adobe-knockout:false;}
	.st152{fill:#CAC5C0;}
	.st153{fill:#2762C9;}
	.st154{fill:#C252FF;stroke:#000000;stroke-miterlimit:10;}
	.st155{fill:#A54B2D;stroke:#000000;stroke-miterlimit:10;}
	.st156{fill:#A54B2D;}
	.st157{stroke:#A54B2D;stroke-miterlimit:10;}
	.st158{fill:#823311;}
	.st159{fill:none;}
	.st160{fill:#05297D;}
	.st161{fill:none;stroke:#FF7F35;stroke-width:6;stroke-miterlimit:10;}
	.st162{fill:#031DFF;stroke:#000000;stroke-miterlimit:10;}
	.st163{fill:#0370FF;stroke:#000000;stroke-miterlimit:10;}
	.st164{fill:#031DC4;}
	.st165{fill:none;stroke:#0080CA;stroke-width:6;stroke-miterlimit:10;}
	.st166{fill:#031DFF;stroke:#FFFFFF;stroke-miterlimit:10;}
	.st167{fill:#0263B0;}
	.st168{fill:none;stroke:#FFFFFF;stroke-width:2;stroke-miterlimit:10;}
	.st169{fill:url(#SVGID_16_);stroke:#FFFFFF;stroke-miterlimit:10;}
	.st170{fill:url(#SVGID_17_);}
	.st171{fill:url(#SVGID_18_);}
	.st172{fill:url(#SVGID_19_);}
	.st173{fill:#693B0F;stroke:#000000;stroke-miterlimit:10;}
	.st174{fill:#3E4E70;}
	.st175{fill:#F7CE02;}
	.st176{fill:#0551E1;stroke:#000000;stroke-miterlimit:10;}
	.st177{fill:#EC153B;stroke:#000000;stroke-miterlimit:10;}
	.st178{fill:#0831FD;}
	.st179{fill:#0870FD;}
	.st180{fill:none;stroke:#9F3D44;stroke-width:3;stroke-miterlimit:10;}
</style>
<path class="st9" d="M594.5,576.2c0-93.6-20.8-396.5-56.5-478.7c-11.6-26.7-84.7-58.1-155.5-80.1c-24.8-7.7-54.1-9.9-81.7-9.4
	c-27.8-0.6-61.4,1.3-86.4,9.1C143.6,39.2,74.6,70.8,63,97.5C27.2,179.7,6.5,482.7,6.5,576.2c8.8,6.4,17.7,7.6,67.5,9.8
	c10-134,52-285,52-285s-4.1,248-4.1,270c0.2,18.6,87.7,23.8,173.7,24v0c1,0,2.5,0,3.5,0c1,0,2.5,0,3.5,0v0c86-0.2,175-5.4,175.2-24
	c0-22-2.9-270-2.9-270s42.1,151,52.1,285C576.6,583.8,585.7,582.7,594.5,576.2z"/>
<g>
	<g>
		<path class="st10" d="M127,56.1c0.5,5.3,2.4,11.6,4.6,16.5c3.1,6.5,7.8,8,14.5,9.3c5.3,1,11.6,1.8,12.4,8.2
			c0.9,7.1-5.3,14.5-8.4,20.3c-5.3,9.7-5.9,24.4,8.3,26.2c10.7,1.4,28.2-8.3,20.2-20.4c-2.9-4.4-7.9-7.9-8.5-13.5
			c-0.5-5.1,2.9-9.6,8.3-9.3c4.3,0.2,7.5,4.8,11.8,4.8c6-0.1,9-8.4,10.1-13.1c3.1-12.7-5.7-23.1-16-12.2
			c-9.8,10.3-17.8,5.9-19.2-7.6c-0.3-2.8,1.2-11.3,0.2-15.9c-0.8-3.7-8-10-13.2-9.9c-8.7,3.6-17,7.4-24.8,11.4
			C127.1,52.6,126.9,54.4,127,56.1z"/>
		<path class="st10" d="M210,51.9c10.1,3.8,6.1,16.6,6.6,24.3c1,13.9,18.1,8.1,22.6-0.7c2.9-5.8,2-9.4-1.3-14.5
			c-2.9-4.6-5.8-9.2-0.4-13.6c5.5-4.5,10.3,0.2,15.8-1.1c4.8-1.2,7-9,6.5-13.4c-0.9-6.8-6.2-5-11.4-3.7c-6.7,1.7-13.3,3.3-20.2,3.6
			c-7,0.3-12.3-0.7-17-6.2c-1.7-1.9-3-3.5-4.5-4.7c-2,0.4-3,0.7-3,0.7c-1.9,0.4-3.7,0.9-5.6,1.4c-5.6,6.9-11.8,15.4-12.5,23
			C184.6,58.1,203.7,49.5,210,51.9z"/>
		<path class="st10" d="M205.5,175.1c10.3-7.5,7.2-23.5,21.4-27.2c12.4-3.2,26.3,24.8,36.1,11.3c5.1-7,10.6-24.2,1.2-30.4
			c-7.5-4.8-20.4,6.1-27.5,6.4c-11.2,3-9.2-10.8-8.1-15.2c1.9-7.4-1.4-16.9-9.3-18.9S192.5,97,192.7,112
			c0.1,10.9,19.8,15.8,14.6,27.9c-2.6,5.9-11.1,7.4-15.3,11.9c-3.6,3.8-5.2,9.5-6.7,14.4C181,179.4,196.4,181.7,205.5,175.1z"/>
		<path class="st10" d="M258.7,109.7c4.6-0.9,8.9-3.5,13.7-2.5c4.7,0.9,9.4,4.7,12.9,7.9c3.5,3.3,4.9,6.2,4.6,11
			c-0.2,4.4-3.3,11.6-0.5,15.6c2.6,3.7,7.3,1.6,10.1-0.8c4.6-3.9,6.1-10,5.4-15.8c-1.1-8.8-9.7-16.9-2.6-25
			c3.3-3.7,7.8-5.7,12.7-6.4c4.4-0.6,9.2,0.3,12.4-3.6c8.5-10.3-3.8-17.9-12.6-19.2c-12-1.8-23.2-2-30.5,8.9
			c-5.6,8.3-11.5,15.4-18.1,3.4L265,82c-9.9-5.9-19,3.3-22,12.9C239.9,105.1,249.4,111.5,258.7,109.7z"/>
		<path class="st10" d="M287.3,54.1c10.3,0.3,10-11.4,15-17.1c6-6.8,18.6-2.4,23.8,3.3c4.8,5.2,4.2,15.9,12.2,17.6
			c9.7,2,17.1-8.7,17.3-17.2c0.3-12.7-10.6-19.4-20.7-24.1c-4.6-2.1-8.9-4.1-13.1-6.4c-12.5-0.3-25,0.1-36.9,0.9
			c-1.5,6.9-3.4,13.6-5.2,20.5C277.7,38.9,275.8,53.8,287.3,54.1z"/>
		<path class="st10" d="M149,166L149,166c0-0.5,0-1,0-1.4C149,165,149,165.5,149,166z"/>
		<path class="st10" d="M193.4,215.8c-8-13.3-20,0.9-29.5-7.4c-12.7-11.1,8.5-30.1,13-40c2.2-4.8,5-12.7-1.7-15.1
			c-6.7-2.4-16.6,3.8-22.3,6.7l-4,6c0,5,0.2,10,0,15c-0.2,5.5-3.7,9.2-4.2,14.6c-4.2,0.8-8.3,1.5-12.5,2c1,6.6,1.1,13.3,0.8,19.9
			c4-0.8,8.4-0.6,11.8,1.3c5.4,3.1,4.1,8.6,5.2,13.9c2.8,14.4,20.6,14.8,31.7,9.8C191.7,238.3,199.6,226.1,193.4,215.8z"/>
		<path class="st10" d="M261,221.7c7.9-1.2,20.2,7,26.3-0.4c4.6-5.5,3.8-20.3-2.9-24.1c-11.9-6.7-23.1,7-33.5,9.1
			c-9.2,1.9-12.1-15.6-14.4-22c-0.1-1.5-0.7-2.3-0.7-2.3c-8.6-8.4-20-4.2-25.2,6.1c-2.8,5.5-2.6,11.7,1.2,16.6
			c3,3.9,8.9,6,10.9,10.7c3.8,9.2-7.5,18.1-8.9,26.6c-1.3,8.1,5.1,19.8,14.4,18.1c12.3-2.2,12.9-15.9,15.7-25.2
			C246.1,228.2,254,222.8,261,221.7z"/>
		<path class="st10" d="M289.5,164.6c-4.2,6.6-12.8,18.6,0.4,19.4c9.5,0.6,22.1-1.2,26.4,10.2c3.5,9.3-2.3,19.7-1,29.5
			c5,7.3,16,3.9,20.4-1.5c2.9-3.6,1.8-9.1,2.2-13.3c0.4-3.6-5.6-10.9,0-20.7c3.1-5.5,8.5-4.7,11.2-6c7.5-3.5,17.1,1.5,18.1-9.1
			c0.9-9-0.2-17.4-8.4-22.3c-9.4-5.6-17.1-1.1-24.9,5.1c-4.7,3.7-11.5,18.4-18.4,14.5c-4.3-2.4,2.4-12.3-0.6-18.3s-9.7-6.1-14.1-4.6
			C292.5,150.2,292.5,160,289.5,164.6z"/>
		<path class="st10" d="M318.6,123.5c1,9.8,14.7,10.9,21.9,9.4c8.5-1.8,19.7-10.9,28.6-7.1c8.6,3.7,4.3,16.4,12.6,19.8
			c12.5,5.3,19-13.5,17.5-22.5c-2.1-11.9-11.1-18.8-17.3-28.4c-2.9-4.4-3.3-8.5-3-13.7c0.3-4.6,1.8-10-1.9-13.7
			c-6.5-6.4-18.7-4.1-23.3,2.8c-2.6,3.9-5.6,10.1-3.3,14.7c2.2,4.4,7.8,5.8,9.3,10.9C362.6,106.7,345,106,345,106
			C335.7,105.5,317.3,111.2,318.6,123.5z"/>
		<path class="st10" d="M391.2,37.7c-2.1,11,2.1,17.2,8.2,25.6c3.2,4.3,4.9,8.1,3.6,13.5c-1,4.7-4.6,8.8-4.2,13.8
			c0.7,8.3,10.8,11.3,17.8,9.5c24.7-6.3-7-43.7,20.4-42.3c4.1,0.2,7.8,0.3,11.9,0.2c3.9-0.1,9.2,1.2,12.7-0.9
			c2.2-1.3,3.8-4.2,4.7-7.3c-19.7-8.9-41.9-17.4-64.8-25C396.4,27.2,392.4,31.5,391.2,37.7z"/>
		<path class="st10" d="M270.3,340.4c10.2-1.5,14.1-10.6,15.3-19.7c0.9-7,4.4-25,16.1-17.7c4.7,2.9,10,17.4,27,9
			c10.2-5,14.4-25.5,6.8-34.1c-4.4-4.9-10.7-3.4-16.7-3.6c-4.1-0.1-13.9-0.3-16.6-3.8c-2-2.6-0.1-5.7-0.6-8.5
			c-0.3-1.7-1.4-2.9-1.5-4.6c-0.3-2.7-3-8.7-3-8.7c-2-4.1-8.1-6.6-12-7.3c-6.2-1.1-12.6,0.4-17.3,5.6c-8.3,9.1-2.3,16,3.6,23.6
			c7.7,9.9,2.3,17-5,25.2c-4.3,4.8-7.7,8.3-8.9,14.6c-1.4,7.1-4.4,16.9-0.7,23.7C259.3,338.9,264.9,341.1,270.3,340.4z"/>
		<path class="st10" d="M209.5,284.1c-8.4-4.3-8.9-13.9-14.7-20.4c-8-8.8-20.2-2.1-25.1,6.7c-6.3,11.3,0.3,18.3,8.2,25.7
			c7.7,7.2,8.5,15.9,1.2,23.9c-8.7,9.5-21.6,14.2-21,29.3c0.7,15.7,18,31,32.5,19.4c6.7-5.3,9.8-14.2,11.4-22.3
			c1.3-6.9,0.3-15,2.6-21.6c3.7-10.6,18.8-8.4,27.2-12.9c9.1-4.9,11.7-15.3,10.5-23.9c0,0-0.7-6.7-6-6.7
			C231,281.3,219.3,289.1,209.5,284.1z"/>
		<path class="st10" d="M272.2,408.2c5,1,10.2,4.7,15.3,4.5c6.5-0.2,9.4-6.8,10.7-12.4c3.3-14-3.4-20.6-16.9-18.4
			c-7.8,1.3-27.7,9.2-33.6,0.3c-3.7-5.5,1.1-13.3,1.7-19c0.9-8.7-3-14.3-3-14.3c-2.7-4.3-7.6-6.1-13.3-5.4
			c-5.6,0.6-9.3,5.9-10.5,10.9c-2.8,12.2,3.4,23.4,7.4,34.4c4.5,12.3-2.1,18.8-8.4,28.3c-6.7,9.9-0.3,29.1,13.8,25.7
			c11.3-2.7,11.5-18.2,16.8-26.4C257.1,409,263.4,406.4,272.2,408.2z"/>
		<path class="st10" d="M359.6,357.2c5.8-2.5,12.8,0.9,18.7-1.4c7.1-2.8,8.9-11.7,9.4-18.5c0.6-7.3,0-17.1-7.3-21
			c-7-3.7-16.8-0.5-23.3,2.8c-6.6,3.4-11.3,8.2-15.4,14.3c-2.9,4.3-5.6,9-11,10.4c-9.4,2.3-14.7-21.9-26.5-11.8
			c-4.4,3.2-8.4,7.3-8.2,13.1c0.2,6.5,5.3,11.1,11.1,13c6.3,2.1,13.1,1.5,18.6,5.7c6.7,5.1,8.7,13.9,9.8,21.8
			c0.6,4.5-0.3,12.5,5.1,14.4c4.6,1.6,12.2-3,14.8-6.5C362.7,383.7,347,362.4,359.6,357.2z"/>
		<path class="st10" d="M408.8,226.1c-4.8-0.8-10.5-0.7-15.3,0.4c-6.1,1.4-10.2,6.1-15.6,8.9c-9.2,4.8-12.9-6.3-21.2-6.3H355
			c0.6-1,1.1-0.5,1.7-0.5c0,0-13.1-0.5-20.4,6.1c-9.5,8.7-4.7,19.9,6.9,22.6c10.1,2.3,22.3-0.5,24.1,12.9c1.1,8.1-5.4,21.2,5.8,24.1
			c4.6,1.2,10.6,0.2,13.8-3.5c4-4.6,2.3-11.3,1.7-16.8c-1.2-11.1,4.5-16.3,15.2-18.2c6.5-1.2,19.7,4.9,23-2.7
			C431.6,242.3,418.7,227.7,408.8,226.1z"/>
		<path class="st10" d="M355,229h1.7C356.1,228,355.6,228,355,229z"/>
		<path class="st10" d="M413.1,191.8c-9.8,8.9-21.3-3-27.4-10.1c-3.1-3.7-7.3,4.7-10.6,10.1c-2.4,4.2-3.5,8.9-0.1,13.6
			c7.2,9.9,22,4.1,30.4-0.5c7-3.9,17.2-11.4,22.6-1.4c3.2,6.1,1.7,23.9,12,22.5c11.5-1.5,14.8-16.5,15.1-25.7
			c0.6-15.9-1.1-34.9-10.6-48.2c-5.2-7.2-16.3-18.8-26.2-16.6c-11.6,2.5-21.2,20.7-16.2,31.6C405.5,174.5,423.7,182.2,413.1,191.8z"
			/>
		<path class="st10" d="M162.5,468.3c3.4,11.1,11.6,23.5,24.5,16.2c7.4-4.2,14.2-14.1,12.1-22.9c-2.4-9.8-13.8-14.6-15.9-24.7
			c-2.5-12.2,11.3-17.9,17.6-25.9c4-5.1,8-22-3.5-20.6c-11,1.3-16.2,16.2-28.6,15.5c-9.8-0.6-16.5-10.2-27-8
			c-10.3,2.2-12.1,12.2-10.8,21.2h-1.4c5.3,8,11.1,15.2,20.3,20.2C160.8,445.2,159.2,457.4,162.5,468.3z"/>
		<path class="st10" d="M129,418h0.6c-0.2-0.4-0.5-0.8-0.7-1.2C128.9,417.2,129,417.6,129,418z"/>
		<path class="st10" d="M315.6,440.1c-7.1-0.5-13,0.5-19,4.4c-4.1,2.6-8.3,7.2-13.6,5c-7.7-3.3-8.2-11.9-13.5-15.8
			c-1.9-1.4-3-2.7-6.7-2.3c-0.1,0-2.5,1.3-2.5,1.3c-3.8,3.5-3.5,12.5-1.8,18.4c2.9,10.4,15.5,16.5,12.9,28.2
			c-2.2,10.3-11.3,19.1-8,30.4c2.8,9.5,17,12.1,24.9,7.4c10.5-6.4,4.5-22.3,8-32c2.8-7.9,10.9-11,18.6-11.3c4.2-0.2,8.4,0.4,12-2.2
			c4.7-3.3,6.7-10.2,7.7-15.4C337.4,442.4,327,440.9,315.6,440.1z"/>
		<path class="st10" d="M222.1,518c-1.7-6.7,2.7-13.1,5.4-18.9c2.6-5.6,3.7-10.8,3.2-17c-0.5-0.8-1.7-2.2-1.7-2.2
			c-4.1-3-9.6-7.1-15-5c-6.5,2.6-8.5,12.6-9.9,18.5c-3.2,13.4-4.7,25.8-21.5,22.8c-10.4-1.9-23.2-10-33.8-4.7
			c-13.7,7-7.2,23.5,2.9,30.3c5.3,3.5,11.8,5.6,18.1,4.1c5.8-1.4,10.2-5.6,15.6-7.8c12.6-5.2,21.3,3.2,26.5,13.8
			c5.6,11.2,15.3,18.4,28.5,17.5c12.7-0.8,15.9-14,11.3-24.3C246.1,532.2,225.5,531.9,222.1,518z"/>
		<path class="st10" d="M474.8,310.3c-1.9-16.7-14.4-19.9-28.3-13.6c-3.9,1.8-11,7.2-15.6,5.8c-4.3-1.3-4.6-7.5-5.1-11.2
			c-1-6.5-9.4-7.4-13.7-6.2c-6.4,1.8-11.7,5.5-14,13c-3.4,10.9,2.5,18.7,9.2,26.5c8.1,9.5,8.5,18.5,4.5,30.1
			c-2.8,8.1-11.1,22.6,0.6,27.5c11,4.6,21.3-4,22.2-14.8c0.8-9.2-5.1-23.4,3.9-29.9c7.9-5.8,18.2-1.8,26.9-4.3
			c2.1-0.6,3.8-1.7,5.1-3.2c1.4-1.7,2.5-3.8,3.5-6.6C475.2,319.2,475.2,314.3,474.8,310.3z"/>
		<path class="st10" d="M392.2,404.3c-0.8-4.7,0-9.8-2.3-14.3c-1.4-2.9-6.2-4.5-9.7-4.1c-1.8,0.1-3.5,0.5-5.1,1.1
			c-8.9,3.5-13,14.7-8.4,24.4c4.3,9,16.8,18.2,5.1,26.2c-9.5,6.4-13.9,9.7-12.7,22.3c0.5,5.8,1.6,12.3,7.4,15
			c5.7,2.6,16.4,2.4,22.2,0.1c10.4-4.1,7.1-20.3,8.2-29.2c1.6-13.3,16.7-11.9,27.4-12.5c4.8-0.3,10.9,2.6,15.4,1.3
			c6-1.8,7.6-10.6,6.5-15.9c-2.6-12.6-17-15.3-27.3-11c-5.4,2.2-9.8,6.5-15.6,7.8C394,417.6,393.4,411.5,392.2,404.3z"/>
		<path class="st10" d="M388.1,509.4c-11.6,0.1-23.9,7.4-35.5,4.2c-8.7-2.4-13.3-11.8-17-20.2c0,0-1.3-4-3.9-4.7
			c-7.6-1.1-15.6,0.1-19.8,7.6c-2.6,4.6-1.3,9,1.9,12.9c2.6,3.2,10.1,6.3,11.3,10.3c1.1,3.6-2.6,6.3-4.6,8.9
			c-3.6,4.6-6.3,9.6-7.5,15.3c-2.3,10.8,3.3,18.3,13.6,22.1c5.9,2.2,13,2.7,17.8-2c4.7-4.5,4.6-11.2,6.8-16.9
			c3.9-9.8,15.7-8.9,24.6-8.9c9.7,0,23.7,1.5,26.8-10.6C405.2,517.2,398.1,509.3,388.1,509.4z"/>
		<path class="st10" d="M455.2,458.3c-3.3,2.9-1.8,10.3-8.2,10.8s-8-11.1-8-11.1c-14.6-5.8-23.2,0.3-24.4,16.1
			c-0.4,5.3-0.8,11,4.2,14.1c4.1,2.6,9.6,1.1,13.8,3.3c4.8,2.6,7.2,9.8,8,14.8c1,6.2-2.7,11.4-2.2,17.2c0.9,9.5,17.9,16.1,21.8,5.4
			c2.5-7-0.3-14.9,1.4-22c1.3-5.6,4.9-10.7,9.4-14.2c1.5-1.1,3-2.1,4.5-3.1c-0.1-11.5-0.3-23.5-0.4-35.7
			C468.4,452.2,460.3,453.8,455.2,458.3z"/>
		<path class="st10" d="M292.4,553.5c-5.3-4.6-15.6,0.1-20.4,3.5c-6,4.3-5.9,7-1.6,12.1c4.7,5.5,8.3,12.3,6.8,19.8
			c-0.6,2.8-1.9,5.3-3.6,7.5c7.2,0.1,14.5,0.2,21.9,0.2c2.2,0,4.4,0,6.6,0c-1.2-3.2-3.2-6-4.3-9.4
			C294.6,577.3,301.5,561.4,292.4,553.5z"/>
		<path class="st10" d="M434.3,586.6c-3.1-2.1-5.5-2.3-6.7-6.3c-1.4-4.3-0.2-9.8-0.7-14.3c-0.9-8.5-1.9-10.4-10.2-9.8
			c-12.2,0.8-35.3,9.8-29,25.2c1.7,4.2,3.2,8.3,4.2,12.6c17-1.1,32.5-2.6,45.4-4.6C436.5,588.4,435.5,587.4,434.3,586.6z"/>
		<path class="st10" d="M464,252c1.4-5.7-2.3-12.5-0.8-18.4c-4.4-0.4-8.8,0.1-12.1,2.1c-5.7,3.5-10.3,9.9-10.1,16.4
			c0.3,13.8,7.5,20.2,21,20c0.3,0,0.6,0,1,0C461.8,265.3,462.1,258.5,464,252z"/>
		<path class="st10" d="M132.8,323.5c3.8,5.6,5.6,4.2,9.1-0.7c2-2.9,4.4-5.8,6.1-8.9c1.3-2.4,3.6-5.4,4.5-7.9
			c1.7-4.6-1.2-9-2.7-13.2c-2.3-6.8-13-14.2-16.6-12.6s-6.9,9.5-7.3,14.1c-0.3,3.5,0,20.8,6.2,29.2"/>
	</g>
	<path class="st10" d="M443,84.9c-10.4,11.4-11.6,22.6,4.3,22.6c15.9,0,21.4,11,14.7,18.9s-9.2,18.9,1.2,20.1
		c10.4,1.2,17.7-5.5,17.7-5.5s11.6-40.9,36.6-47c-0.6-3.7-6.1-4.9-12.8-12.2c-6.7-7.3-22.6,0.6-24.4,10.4
		C478.4,102,467.4,58.1,443,84.9z"/>
	<path class="st10" d="M104.3,109.3c0,0,7.3-12.7,2-20c-5.3-7.3,12-12,14,2s2.7,15.3,8,11.3c5.3-4,14,11.3,2.7,16.7
		c-11.3,5.3-3.3,16.7,0.7,24.7c4,8-4.7,14-8,13.3C117,144,111,118.7,104.3,109.3z"/>
</g>
<path class="st11" d="M70.4,88.6c0,0,77.1,9.2,55.7,220c-0.4,79.7-1.8,141.7-2.4,184.6c-0.7,46.5-0.8,70.5-0.8,71.6
	c0,3.2-0.6,7.5,0.8,9.2c0.7,1.1,1.7,2.3,3.4,3.5c4.7,3.4,15.3,6.5,27.3,8.8c-14.2-11.6-10.9-42.8-9.8-72.1c1.1-29.4-24-95.4-3-199.4
	c6.8-33.6-5.5-74.9-6-84C131.6,163.1,119.2,97.3,70.4,88.6z"/>
<path class="st11" d="M532.2,89c0,0-79.2,0.7-57.7,211.5c2.1,168.9,3.2,265.3,3.2,264.5c0-2.3,0,2.4,0,6.2c0,1.3-0.7,2.6-0.9,2.9
	c-0.7,1.1-2,2.2-3.6,3.4c-4.7,3.4-13.3,5.9-25.1,8.2c14.2-11.6,11.1-41.8,10-71.2c-1.1-29.4,24-95.4,3-199.4
	c-6.8-33.6,1.5-83.4,2-92.4C467,155.1,485.7,92,532.2,89z"/>
<g>
	<g>
		<path class="st12" d="M227.5,28.7C240.3,46,262,62.5,298.1,62.5c36.2,0,56.3-16.8,67.4-34.5C335.2,31.1,259.9,30.8,227.5,28.7z"/>
		<path class="st11" d="M368.1,1c-17.6,5.3-142.2,2.9-148.6,0.6c-0.1,0.3-0.3,0.7-0.5,1.1c2.2,7.1,6.3,17.5,13.7,27.5
			c29.5,1.9,97.9,2.2,125.6-0.6c6.2-9.9,9.4-20.2,10.9-27.3C368.8,1.8,368.4,1.4,368.1,1z"/>
	</g>
	<path class="st13" d="M369.2,2.3c-4.1,18.7-19,58.7-72.2,58.7c-53.9,0-72.4-40.1-78-58.3c-2.9,5.3-13.9,16.7-13.9,16.7
		s14.4,61,89.9,61c76.5,0,86.6-58.7,87.7-63.1C380.6,16.4,373.4,6.9,369.2,2.3z"/>
</g>
<g>
	<g>
		<path class="st5" d="M377.3,218.5c-1.1-1.8-3.7-2.7-6.8-3.9c-4.7-1.8-10.5-3.9-15.3-9.8c-5.7-7-8.4-17.2-8.5-31.5
			c2.2-0.1,7.2-0.6,9.5-3.9c1.1-1.7,1.4-3.7,0.6-6.2c2.1,0.4,4.2,0.7,6.2,0.7l0,0c8.5,0,12.7-3.5,14.1-5c1.3,1.6,5.3,5.5,14.3,5.5
			l0,0c2.3,0,4.9-0.4,7.5-0.9c-0.8,2.6-0.6,4.7,0.6,6.4c1.8,2.7,5.6,3.7,8.8,3.9c-0.1,14-2.9,24.2-8.6,31c-4.9,5.8-10.8,8-15.5,9.8
			C381.2,215.7,378.5,216.7,377.3,218.5z"/>
		<path class="st107" d="M377.2,159.5c1.8,1.9,6,5.2,14.3,5.2c2.1,0,4.3-0.2,6.7-0.6c-0.5,2.3-0.2,4.4,1,6.1
			c1.8,2.7,5.5,3.9,8.7,4.1c-0.1,7.1-0.9,13.3-2.5,18.4c-1.4,4.6-3.4,8.5-6,11.7c-4.8,5.7-10.6,7.8-15.3,9.6c-2.8,1-5.3,2-6.7,3.5
			c-1.4-1.5-3.9-2.4-6.6-3.4c-4.6-1.7-10.3-3.9-15-9.7c-2.6-3.1-4.6-7.1-6-11.8c-1.5-5.2-2.3-11.5-2.4-18.7c2.5-0.2,7.2-0.9,9.4-4.2
			c1.1-1.6,1.4-3.6,1-5.8c1.9,0.3,3.7,0.4,5.4,0.4C370.9,164.3,375.3,161.3,377.2,159.5 M377.3,157.6c0,0-3.9,5.4-14.2,5.4
			c-2.1,0-4.5-0.2-7.2-0.8c3.2,8.2-4.6,10.4-9.8,10.4c0,48.2,31.2,38.6,31.2,48c0-9.4,31.8,0,31.8-47.5c-4.9,0-12.4-2.4-9.1-10.6
			c-3.2,0.7-6,1-8.5,1C380.6,163.5,377.3,157.6,377.3,157.6L377.3,157.6z"/>
	</g>
	<g>
		<g>
			<path class="st107" d="M406.6,175.5c-3.2-0.4-6.6-1.8-8.5-4.5c-0.8-1.2-1.5-3-1.4-5.3c-1.8,0.2-3.6,0.3-5.2,0.3l0,0
				c-6.2,0-10.3-1.8-12.6-3.3c-0.7-0.5-1.3-1-1.8-1.4c-2.4,1.9-6.9,4.2-14,4.2l0,0c-1.3,0-2.6,0-4-0.2c0.1,2.3-0.6,4-1.4,5.1
				c-2.2,3.2-6.3,4.3-9.2,4.6c0.1,5.3,0.6,9.7,1.5,13.7h55.1C406,184.9,406.5,180.5,406.6,175.5z"/>
		</g>
	</g>
	<g>
		<path class="st5" d="M355.2,177.7h-1.9v-1.8h5.8v1.8h-1.9v6.2h-2L355.2,177.7L355.2,177.7z"/>
		<path class="st5" d="M360,181.9c0.4,0.2,1.2,0.4,1.9,0.4c0.7,0,1.1-0.3,1.1-0.7c0-0.4-0.4-0.6-1.2-1c-1.3-0.6-2-1.4-2-2.4
			c0-1.4,1.1-2.5,3.1-2.5c0.8,0,1.5,0.2,1.9,0.4l-0.4,1.7c-0.3-0.1-0.8-0.4-1.5-0.4c-0.6,0-1,0.2-1,0.6c0,0.4,0.4,0.6,1.3,1
			c1.3,0.6,1.9,1.4,1.9,2.4c0,1.4-1.1,2.5-3.2,2.5c-0.9,0-1.8-0.2-2.1-0.4L360,181.9z"/>
		<path class="st5" d="M372.4,183.6c-0.5,0.2-1.6,0.4-2.5,0.4c-1.4,0-2.4-0.4-3.1-1c-0.8-0.7-1.1-1.8-1.1-3c0-2.8,2-4.1,4.4-4.1
			c1,0,1.7,0.2,2.1,0.3l-0.4,1.7c-0.4-0.2-0.9-0.3-1.6-0.3c-1.3,0-2.2,0.7-2.2,2.4c0,1.5,0.9,2.3,2,2.3c0.2,0,0.4,0,0.5-0.1v-1.4
			h-0.9v-1.6h2.9V183.6z"/>
		<path class="st5" d="M377.8,178.1L377.8,178.1l-1.5,0.7l-0.3-1.6l2.1-0.9h1.7v7.7h-2V178.1L377.8,178.1z"/>
		<path class="st5" d="M384.8,176.1c1.7,0,2.5,1,2.5,2c0,0.6-0.3,1.2-1,1.7v0c0.7,0.3,1.3,0.9,1.3,1.9c0,1.5-1.2,2.4-2.9,2.4
			c-1.9,0-2.8-1-2.8-2.1c0-0.9,0.5-1.6,1.2-1.9v0c-0.7-0.4-1-1-1-1.7C382.1,176.9,383.3,176.1,384.8,176.1L384.8,176.1z
			 M384.8,182.7c0.5,0,0.8-0.4,0.8-0.9c0-0.6-0.5-1-1-1.1c-0.4,0.1-0.7,0.5-0.7,1S384.2,182.7,384.8,182.7L384.8,182.7z
			 M384.7,177.5c-0.5,0-0.7,0.4-0.7,0.8c0,0.4,0.4,0.8,0.9,0.9c0.3-0.1,0.6-0.4,0.6-0.9C385.4,177.9,385.2,177.5,384.7,177.5
			L384.7,177.5z"/>
		<path class="st5" d="M388.9,182.4c0.3,0,0.4,0,0.8,0c0.5,0,0.9-0.1,1.3-0.4c0.5-0.3,0.8-0.7,0.9-1.2h0c-0.3,0.3-0.7,0.4-1.3,0.4
			c-1.2,0-2.3-0.9-2.3-2.4c0-1.5,1.1-2.8,2.9-2.8c2,0,2.8,1.5,2.8,3.3c0,1.6-0.5,2.8-1.4,3.6c-0.7,0.6-1.7,1-2.9,1
			c-0.2,0-0.5,0-0.8,0L388.9,182.4L388.9,182.4z M391,177.6c-0.4,0-0.8,0.5-0.8,1.1c0,0.6,0.2,1.1,0.8,1.1c0.4,0,0.6-0.2,0.7-0.3
			c0.1-0.1,0.1-0.3,0.1-0.6C391.8,178.2,391.6,177.6,391,177.6L391,177.6z"/>
		<path class="st5" d="M395.3,182.4c0.3,0,0.4,0,0.8,0c0.5,0,0.9-0.1,1.3-0.4c0.5-0.3,0.8-0.7,0.9-1.2h0c-0.3,0.3-0.7,0.4-1.3,0.4
			c-1.2,0-2.3-0.9-2.3-2.4c0-1.5,1.1-2.8,2.9-2.8c2,0,2.8,1.5,2.8,3.3c0,1.6-0.5,2.8-1.4,3.6c-0.7,0.6-1.7,1-2.9,1
			c-0.2,0-0.5,0-0.8,0L395.3,182.4L395.3,182.4z M397.4,177.6c-0.4,0-0.8,0.5-0.8,1.1c0,0.6,0.2,1.1,0.8,1.1c0.4,0,0.6-0.2,0.7-0.3
			c0.1-0.1,0.1-0.3,0.1-0.6C398.2,178.2,398,177.6,397.4,177.6L397.4,177.6z"/>
		<path class="st108" d="M355.2,191.2v2.4h1.8v-2.4h1.6v6.3H357V195h-1.8v2.5h-1.6v-6.3H355.2z"/>
		<path class="st108" d="M361.7,197.6c-1.3,0-2.3-0.9-2.3-2.4c0-1.5,0.9-2.4,2.4-2.4c1.4,0,2.2,1,2.2,2.4
			C364,196.9,362.8,197.6,361.7,197.6L361.7,197.6z M361.8,196.5c0.4,0,0.6-0.5,0.6-1.2c0-0.6-0.2-1.2-0.6-1.2
			c-0.5,0-0.6,0.6-0.6,1.2C361.1,195.9,361.3,196.5,361.8,196.5L361.8,196.5z"/>
		<path class="st108" d="M367.8,197.5v-3.4h-1.2v3.4H365v-3.4h-0.6v-1.2h0.6v0c0-0.5,0.1-1,0.5-1.4c0.3-0.3,0.8-0.5,1.5-0.5
			c0.2,0,0.5,0.1,0.6,0.1l-0.2,1.2c-0.1,0-0.2-0.1-0.3-0.1c-0.3,0-0.4,0.3-0.4,0.6v0.1h1.2v-0.2c0-0.5,0.2-1.1,0.6-1.5
			c0.4-0.3,0.8-0.5,1.3-0.5c0.3,0,0.6,0,0.8,0.1l-0.1,1.2c-0.1,0-0.2-0.1-0.4-0.1c-0.4,0-0.6,0.2-0.6,0.6v0.2h0.8v1.2h-0.8v3.4
			L367.8,197.5L367.8,197.5z"/>
		<path class="st108" d="M372.1,195.8c0.1,0.4,0.5,0.6,1.1,0.6c0.4,0,0.8-0.1,1.2-0.2l0.2,1.1c-0.5,0.2-1.1,0.2-1.6,0.2
			c-1.5,0-2.4-0.9-2.4-2.3c0-1.2,0.8-2.4,2.3-2.4c1.4,0,2,1,2,2.3c0,0.3,0,0.6,0,0.7H372.1L372.1,195.8z M373.3,194.7
			c0-0.3-0.1-0.8-0.6-0.8c-0.4,0-0.6,0.5-0.6,0.8H373.3z"/>
		<path class="st108" d="M375.5,194.5c0-0.6,0-1.1,0-1.5h1.4l0.1,0.6h0c0.2-0.3,0.6-0.7,1.3-0.7c1,0,1.5,0.8,1.5,1.9v2.8h-1.6v-2.6
			c0-0.5-0.1-0.8-0.5-0.8c-0.3,0-0.4,0.2-0.5,0.4c0,0.1,0,0.2,0,0.4v2.6h-1.6L375.5,194.5L375.5,194.5z"/>
		<path class="st108" d="M380.8,190.9h1.6v2.5h0c0.2-0.2,0.3-0.3,0.5-0.4c0.2-0.1,0.5-0.1,0.7-0.1c1,0,1.5,0.8,1.5,2v2.7h-1.6V195
			c0-0.5-0.2-0.8-0.5-0.8c-0.3,0-0.4,0.1-0.5,0.3c0,0.1,0,0.2,0,0.3v2.7h-1.6V190.9z"/>
		<path class="st108" d="M387.5,195.8c0,0.4,0.5,0.6,1.1,0.6c0.4,0,0.8-0.1,1.2-0.2l0.2,1.1c-0.5,0.2-1.1,0.2-1.6,0.2
			c-1.6,0-2.4-0.9-2.4-2.3c0-1.2,0.8-2.4,2.3-2.4c1.4,0,2,1,2,2.3c0,0.3,0,0.6-0.1,0.7H387.5L387.5,195.8z M388.7,194.7
			c0-0.3-0.1-0.8-0.6-0.8c-0.4,0-0.6,0.5-0.6,0.8H388.7z"/>
		<path class="st108" d="M391.7,192.4c-0.5,0-0.8-0.3-0.8-0.8c0-0.5,0.3-0.8,0.8-0.8c0.5,0,0.8,0.3,0.8,0.8
			C392.5,192.1,392.2,192.4,391.7,192.4L391.7,192.4z M390.9,197.5v-4.6h1.6v4.6H390.9z"/>
		<path class="st108" d="M393.5,194.5c0-0.6,0-1.1,0-1.5h1.4l0.1,0.6h0c0.2-0.2,0.6-0.7,1.3-0.7c0.6,0,1,0.3,1.2,0.7h0
			c0.2-0.2,0.4-0.4,0.6-0.5c0.2-0.1,0.5-0.2,0.8-0.2c1,0,1.5,0.7,1.5,2v2.8h-1.6V195c0-0.6-0.1-0.9-0.5-0.9c-0.2,0-0.4,0.1-0.5,0.4
			c0,0.1,0,0.2,0,0.3v2.7h-1.7V195c0-0.4-0.1-0.8-0.5-0.8c-0.2,0-0.4,0.2-0.5,0.4c0,0.1-0.1,0.2-0.1,0.3v2.7h-1.6L393.5,194.5
			L393.5,194.5z"/>
	</g>
</g>
</svg>
