<?xml version="1.0" encoding="utf-8"?>
<!-- Generator: Adobe Illustrator 17.0.0, SVG Export Plug-In . SVG Version: 6.00 Build 0)  -->
<!DOCTYPE svg PUBLIC "-//W3C//DTD SVG 1.1//EN" "http://www.w3.org/Graphics/SVG/1.1/DTD/svg11.dtd">
<svg version="1.1" id="Layer_1" xmlns="http://www.w3.org/2000/svg" xmlns:xlink="http://www.w3.org/1999/xlink" x="0px" y="0px"
	 width="600px" height="600px" viewBox="0 0 600 600" enable-background="new 0 0 600 600" xml:space="preserve">
<path fill="#631197" stroke="#000000" stroke-miterlimit="10" d="M594.5,576.2c0-93.6-20.8-396.5-56.5-478.7
	c-11.6-26.7-84.7-58.1-155.5-80.1c-24.8-7.7-54.1-9.9-81.7-9.4c-27.8-0.6-61.4,1.3-86.4,9.1C143.6,39.2,74.6,70.8,63,97.5
	C27.2,179.7,6.5,482.7,6.5,576.2c8.8,6.4,17.7,7.6,67.5,9.8c10-134,52-285,52-285s-3.6,248-3.6,270c0.2,18.6,88.2,23.8,174.2,24l0,0
	c1,0,2.5,0,3.5,0s2.5,0,3.5,0l0,0c86-0.2,174.5-5.4,174.7-24c0-22-3.2-270-3.2-270s42,151,52,285
	C576.7,583.8,585.7,582.7,594.5,576.2z"/>
<path fill="#58006C" d="M70.4,88.6c0,0,77.1,9.2,55.7,220c-0.4,79.7-1.8,141.7-2.4,184.6c-0.7,46.5-0.8,70.5-0.8,71.6
	c0,3.2-0.6,7.5,0.8,9.2c0.7,1.1,1.7,2.3,3.4,3.5c4.7,3.4,15.3,6.5,27.3,8.8c-14.2-11.6-10.9-42.8-9.8-72.1c1.1-29.4-24-95.4-3-199.4
	c6.8-33.6-5.5-74.9-6-84C131.6,163.1,119.2,97.3,70.4,88.6z"/>
<path fill="#58006C" d="M532.2,89c0,0-79.2,0.7-57.7,211.5c2.1,168.9,3.2,265.3,3.2,264.5c0-2.3,0,2.4,0,6.2c0,1.3-0.7,2.6-0.9,2.9
	c-0.7,1.1-2,2.2-3.6,3.4c-4.7,3.4-13.3,5.9-25.1,8.2c14.2-11.6,11.1-41.8,10-71.2c-1.1-29.4,24-95.4,3-199.4
	c-6.8-33.6,1.5-83.4,2-92.4C467,155.1,485.7,92,532.2,89z"/>
<path fill="#FE5561" d="M209,21l15,27c0,0-105.6,35.5-113.6,73.5c-2-5-10.5-26.8-40.9-31.6c4-5.9,13.8-15.4,49-33.6
	C138.7,45.8,167.1,33.6,209,21z"/>
<path fill="#FE5561" d="M382.8,18.9l-14,27.5c0,0,108.5,38.3,117.9,76c1.8-5.1,20.3-30.5,44.6-33.5c-4.2-5.7-26.3-23.5-65.5-39.6
	C444.8,40.8,424.6,32.2,382.8,18.9z"/>
<g>
	<g>
		<path fill="#58006C" d="M227.5,28.7C240.3,46,262,62.5,298.1,62.5c36.2,0,56.3-16.8,67.4-34.5C335.2,31.1,259.9,30.8,227.5,28.7z"
			/>
		<path fill="#FE5561" d="M368.1,1c-17.6,5.3-142.2,2.9-148.6,0.6c-0.1,0.3-0.3,0.7-0.5,1.1c2.2,7.1,6.3,17.5,13.7,27.5
			c29.5,1.9,97.9,2.2,125.6-0.6c6.2-9.9,9.4-20.2,10.9-27.3C368.8,1.8,368.4,1.4,368.1,1z"/>
	</g>
	<path fill="#FE5561" d="M369.2,2.3C365.1,21,350.2,61,297,61c-53.9,0-72.4-40.1-78-58.3c-2.9,5.3-13.9,16.7-13.9,16.7
		s14.4,61,89.9,61c76.5,0,86.6-58.7,87.7-63.1C380.6,16.4,373.4,6.9,369.2,2.3z"/>
</g>
<g>
	<g>
		<g>
			<path fill="#FFFFFF" d="M391.451,263.082c-16.771,0-30.411-13.64-30.411-30.411s13.64-30.411,30.411-30.411
				c16.771,0,30.411,13.64,30.411,30.411S408.222,263.082,391.451,263.082z"/>
		</g>
	</g>
	<g>
		<g>
			<defs>
				<circle id="SVGID_1_" cx="391.451" cy="232.671" r="26.823"/>
			</defs>
			<clipPath id="SVGID_2_">
				<use xlink:href="#SVGID_1_"  overflow="visible"/>
			</clipPath>
			<g clip-path="url(#SVGID_2_)">
				<g>
					<polygon fill="#FFFFFF" points="399.34,202.31 395.396,194.905 399.366,187.474 403.31,194.879 					"/>
					<polygon fill="#0165B2" points="403.285,209.691 399.34,202.31 403.31,194.879 407.229,202.285 					"/>
					<polygon fill="#FFFFFF" points="407.229,217.096 403.285,209.691 407.229,202.285 411.174,209.665 					"/>
					<polygon fill="#0165B2" points="411.174,224.502 407.229,217.096 411.174,209.665 415.118,217.071 					"/>
					<polygon fill="#FFFFFF" points="415.118,231.882 411.174,224.502 415.118,217.071 419.063,224.476 					"/>
					<polygon fill="#0165B2" points="419.063,239.287 415.118,231.882 419.063,224.476 423.007,231.856 					"/>
					<polygon fill="#FFFFFF" points="391.451,202.336 387.507,194.93 391.451,187.499 395.396,194.905 					"/>
					<polygon fill="#0165B2" points="395.396,209.716 391.451,202.336 395.396,194.905 399.34,202.31 					"/>
					<polygon fill="#FFFFFF" points="399.34,217.122 395.396,209.716 399.34,202.31 403.285,209.691 					"/>
					<polygon fill="#0165B2" points="403.285,224.527 399.34,217.122 403.285,209.691 407.229,217.096 					"/>
					<polygon fill="#FFFFFF" points="407.204,231.907 403.285,224.527 407.229,217.096 411.174,224.502 					"/>
					<polygon fill="#0165B2" points="411.148,239.313 407.204,231.907 411.174,224.502 415.118,231.882 					"/>
					<polygon fill="#FFFFFF" points="383.562,202.361 379.618,194.956 383.562,187.525 387.507,194.93 					"/>
					<polygon fill="#0165B2" points="387.481,209.741 383.562,202.361 387.507,194.93 391.451,202.336 					"/>
					<polygon fill="#FFFFFF" points="391.426,217.147 387.481,209.741 391.451,202.336 395.396,209.716 					"/>
					<polygon fill="#0165B2" points="395.37,224.553 391.426,217.147 395.396,209.716 399.34,217.122 					"/>
					<polygon fill="#FFFFFF" points="399.315,231.933 395.37,224.553 399.34,217.122 403.285,224.527 					"/>
					<polygon fill="#0165B2" points="403.259,239.338 399.315,231.933 403.285,224.527 407.204,231.907 					"/>
					<polygon fill="#FFFFFF" points="407.204,246.744 403.259,239.338 407.204,231.907 411.148,239.313 					"/>
					<polygon fill="#0165B2" points="411.148,254.124 407.204,246.744 411.148,239.313 415.093,246.718 					"/>
					<polygon fill="#FFFFFF" points="415.093,246.718 411.148,239.313 415.118,231.882 419.063,239.287 					"/>
					<polygon fill="#0165B2" points="379.643,209.716 375.698,202.31 379.643,194.879 383.588,202.285 					"/>
					<polygon fill="#FFFFFF" points="383.562,217.096 379.643,209.716 383.588,202.285 387.532,209.691 					"/>
					<polygon fill="#0165B2" points="387.507,224.502 383.562,217.096 387.532,209.691 391.477,217.071 					"/>
					<polygon fill="#FFFFFF" points="391.451,231.907 387.507,224.502 391.477,217.071 395.421,224.476 					"/>
					<polygon fill="#0165B2" points="395.396,239.287 391.451,231.907 395.421,224.476 399.34,231.882 					"/>
					<polygon fill="#FFFFFF" points="399.34,246.693 395.396,239.287 399.34,231.882 403.285,239.287 					"/>
					<polygon fill="#0165B2" points="403.285,254.098 399.34,246.693 403.285,239.287 407.229,246.667 					"/>
					<polygon fill="#FFFFFF" points="407.229,261.504 403.285,254.098 407.229,246.667 411.174,254.073 					"/>
				</g>
				<g>
					<polygon fill="#FFFFFF" points="375.673,217.147 371.728,209.741 375.673,202.336 379.618,209.716 					"/>
					<polygon fill="#0165B2" points="379.618,224.553 375.673,217.147 379.618,209.716 383.562,217.122 					"/>
					<polygon fill="#FFFFFF" points="383.562,231.933 379.618,224.553 383.562,217.122 387.507,224.527 					"/>
					<polygon fill="#0165B2" points="387.481,239.338 383.562,231.933 387.507,224.527 391.451,231.907 					"/>
					<polygon fill="#FFFFFF" points="391.426,246.744 387.481,239.338 391.451,231.907 395.396,239.313 					"/>
					<polygon fill="#0165B2" points="395.37,254.124 391.426,246.744 395.396,239.313 399.34,246.718 					"/>
					<polygon fill="#FFFFFF" points="399.315,261.529 395.37,254.124 399.34,246.718 403.259,254.098 					"/>
					<polygon fill="#0165B2" points="403.259,268.935 399.315,261.529 403.259,254.098 407.204,261.504 					"/>
					<polygon fill="#0165B2" points="371.703,224.578 367.758,217.172 371.728,209.741 375.673,217.147 					"/>
					<polygon fill="#FFFFFF" points="375.648,231.958 371.703,224.578 375.673,217.147 379.618,224.553 					"/>
					<polygon fill="#0165B2" points="379.592,239.364 375.648,231.958 379.618,224.553 383.562,231.933 					"/>
					<polygon fill="#FFFFFF" points="383.537,246.769 379.592,239.364 383.562,231.933 387.481,239.338 					"/>
					<polygon fill="#0165B2" points="387.481,254.149 383.537,246.769 387.481,239.338 391.426,246.744 					"/>
					<polygon fill="#FFFFFF" points="391.426,261.555 387.481,254.149 391.426,246.744 395.37,254.124 					"/>
					<polygon fill="#0165B2" points="395.37,268.96 391.426,261.555 395.37,254.124 399.315,261.529 					"/>
					<polygon fill="#FFFFFF" points="367.758,231.984 363.814,224.603 367.758,217.172 371.703,224.578 					"/>
					<polygon fill="#0165B2" points="371.703,239.389 367.758,231.984 371.703,224.578 375.648,231.958 					"/>
					<polygon fill="#FFFFFF" points="375.648,246.795 371.703,239.389 375.648,231.958 379.592,239.364 					"/>
					<polygon fill="#0165B2" points="379.592,254.175 375.648,246.795 379.592,239.364 383.537,246.769 					"/>
					<polygon fill="#FFFFFF" points="383.511,261.58 379.592,254.175 383.537,246.769 387.481,254.149 					"/>
					<polygon fill="#0165B2" points="387.456,268.986 383.511,261.58 387.481,254.149 391.426,261.555 					"/>
					<polygon fill="#FFFFFF" points="391.4,276.366 387.456,268.986 391.426,261.555 395.37,268.96 					"/>
					<polygon fill="#FFFFFF" points="399.315,276.34 395.37,268.96 399.315,261.529 403.259,268.935 					"/>
					<polygon fill="#0165B2" points="363.839,239.364 359.895,231.958 363.839,224.527 367.784,231.933 					"/>
					<polygon fill="#FFFFFF" points="367.784,246.744 363.839,239.364 367.784,231.933 371.728,239.338 					"/>
					<polygon fill="#0165B2" points="371.728,254.149 367.784,246.744 371.728,239.338 375.673,246.718 					"/>
					<polygon fill="#FFFFFF" points="375.673,261.555 371.728,254.149 375.673,246.718 379.618,254.124 					"/>
					<polygon fill="#0165B2" points="379.592,268.935 375.673,261.555 379.618,254.124 383.562,261.529 					"/>
					<polygon fill="#FFFFFF" points="383.537,276.34 379.592,268.935 383.562,261.529 387.507,268.909 					"/>
				</g>
			</g>
		</g>
	</g>
	<rect x="361.422" y="222.746" fill="#DE1134" width="59.804" height="18.577"/>
	<path fill="#0165B2" d="M391.451,203.405c7.813,0,15.167,3.054,20.69,8.576c5.522,5.522,8.576,12.877,8.576,20.69
		c0,7.813-3.054,15.167-8.576,20.69c-5.522,5.522-12.877,8.576-20.69,8.576c-7.813,0-15.167-3.054-20.69-8.576
		c-5.522-5.522-8.576-12.877-8.576-20.69c0-7.813,3.054-15.167,8.576-20.69C376.284,206.459,383.638,203.405,391.451,203.405
		 M391.451,201.114c-17.432,0-31.556,14.124-31.556,31.556s14.124,31.556,31.556,31.556c17.432,0,31.556-14.124,31.556-31.556
		S408.883,201.114,391.451,201.114L391.451,201.114z"/>
	<g>
		<path fill="#FFFFFF" d="M365.341,225.061h4.555v1.272h-2.545v1.171h2.418v1.272h-2.418v2.316h-1.985v-6.031H365.341z"/>
		<path fill="#FFFFFF" d="M376.386,230.966c-0.254,0.102-0.916,0.204-1.705,0.204c-2.698,0-3.843-1.4-3.843-3.003
			c0-2.163,1.909-3.207,4.021-3.207c0.789,0,1.425,0.127,1.68,0.229l-0.356,1.247c-0.28-0.102-0.687-0.178-1.222-0.178
			c-1.094,0-2.036,0.56-2.036,1.832c0,1.145,0.789,1.807,2.061,1.807c0.407,0,0.891-0.051,1.171-0.153L376.386,230.966z"/>
		<path fill="#FFFFFF" d="M379.567,225.138c0.484-0.076,1.4-0.127,2.29-0.127c0.992,0,1.68,0.051,2.29,0.331
			c0.56,0.229,0.916,0.662,0.916,1.222c0,0.509-0.356,1.018-1.222,1.272v0.025c0.942,0.204,1.451,0.763,1.451,1.451
			c0,0.56-0.305,0.967-0.789,1.272c-0.56,0.356-1.476,0.585-3.079,0.585c-0.84,0-1.451-0.051-1.883-0.102v-5.93H379.567z
			 M381.526,227.428h0.382c0.763,0,1.145-0.28,1.145-0.662c0-0.356-0.305-0.611-0.942-0.611c-0.28,0-0.458,0-0.585,0.025V227.428z
			 M381.526,229.999c0.127,0.025,0.28,0.025,0.509,0.025c0.611,0,1.171-0.229,1.171-0.763c0-0.509-0.56-0.738-1.247-0.738h-0.433
			V229.999z"/>
		<path fill="#FFFFFF" d="M388.194,229.769l-0.382,1.349h-2.036l2.061-6.057h2.596l2.061,6.057h-2.087l-0.433-1.349
			C389.975,229.769,388.194,229.769,388.194,229.769z M389.746,228.624l-0.305-1.094c-0.102-0.331-0.229-0.891-0.331-1.247h-0.025
			c-0.127,0.356-0.229,0.916-0.331,1.247l-0.305,1.094H389.746z"/>
		<path fill="#FFFFFF" d="M394.047,231.118v-2.367l-2.214-3.69h2.239l0.611,1.374c0.204,0.407,0.331,0.763,0.484,1.171h0.025
			c0.127-0.382,0.254-0.738,0.433-1.171l0.56-1.374h2.189l-2.29,3.614v2.443C396.083,231.118,394.047,231.118,394.047,231.118z"/>
		<path fill="#FFFFFF" d="M403.31,228.624h-2.469v1.196h2.748v1.272h-4.733v-6.031h4.606v1.272h-2.596v1.018h2.469v1.272H403.31z"/>
		<path fill="#FFFFFF" d="M404.71,225.138c0.56-0.076,1.374-0.127,2.29-0.127c1.094,0,1.934,0.127,2.519,0.458
			c0.484,0.305,0.738,0.738,0.738,1.323c0,0.713-0.611,1.272-1.272,1.476v0.025c0.509,0.178,0.789,0.56,0.967,1.094
			c0.204,0.611,0.458,1.501,0.611,1.731h-2.061c-0.102-0.178-0.305-0.687-0.484-1.4c-0.178-0.738-0.458-0.891-1.018-0.891h-0.28
			v2.29h-1.96v-5.98H404.71z M406.695,227.683h0.458c0.738,0,1.12-0.331,1.12-0.789c0-0.458-0.331-0.738-0.993-0.738
			c-0.305,0-0.484,0-0.585,0.025V227.683z"/>
		<path fill="#FFFFFF" d="M411.403,231.118v-6.057h2.189l1.196,1.96c0.356,0.534,0.789,1.323,1.069,1.96h0.025
			c-0.102-0.713-0.153-1.654-0.153-2.621v-1.298h1.807v6.057H415.5l-1.222-2.01c-0.356-0.585-0.84-1.4-1.12-2.036h-0.025
			c0.051,0.738,0.076,1.68,0.076,2.723v1.349h-1.807V231.118z"/>
		<path fill="#FFFFFF" d="M372.466,237.328c-0.025-0.611-0.051-1.4-0.051-2.265h-0.025c-0.204,0.763-0.484,1.629-0.713,2.189
			l-0.713,2.036h-1.527l-0.611-2.036c-0.178-0.585-0.407-1.425-0.56-2.189h-0.025c-0.051,0.789-0.102,1.654-0.127,2.265
			l-0.127,2.087h-1.807l0.509-6.057h2.519l0.509,1.705c0.204,0.713,0.433,1.476,0.585,2.189h0.025
			c0.178-0.713,0.433-1.527,0.636-2.214l0.56-1.705h2.469l0.407,6.057h-1.883L372.466,237.328z"/>
		<path fill="#FFFFFF" d="M377.633,233.358v3.563c0,0.891,0.356,1.323,1.043,1.323c0.687,0,1.043-0.382,1.043-1.323v-3.563h2.01
			v3.41c0,1.781-1.043,2.723-3.079,2.723s-3.003-0.942-3.003-2.748v-3.385H377.633L377.633,233.358z M377.531,233.052
			c-0.484,0-0.84-0.305-0.84-0.662c0-0.382,0.382-0.662,0.865-0.662c0.458,0,0.814,0.28,0.814,0.662
			C378.371,232.747,377.989,233.052,377.531,233.052L377.531,233.052z M379.948,233.052c-0.484,0-0.84-0.305-0.84-0.662
			c0-0.382,0.382-0.662,0.84-0.662c0.458,0,0.84,0.28,0.84,0.662C380.788,232.747,380.432,233.052,379.948,233.052L379.948,233.052z
			"/>
		<path fill="#FFFFFF" d="M383.079,239.415v-6.057h2.189l1.196,1.96c0.356,0.534,0.789,1.323,1.069,1.96h0.025
			c-0.102-0.713-0.153-1.654-0.153-2.621v-1.298h1.807v6.057h-2.036l-1.222-2.01c-0.356-0.585-0.84-1.4-1.12-2.036h-0.025
			c0.051,0.738,0.076,1.68,0.076,2.723v1.349h-1.807V239.415z"/>
		<path fill="#FFFFFF" d="M395.854,239.287c-0.254,0.102-0.916,0.204-1.705,0.204c-2.698,0-3.843-1.4-3.843-3.003
			c0-2.163,1.909-3.207,4.021-3.207c0.789,0,1.425,0.127,1.68,0.229l-0.356,1.247c-0.28-0.102-0.687-0.178-1.222-0.178
			c-1.094,0-2.036,0.56-2.036,1.832c0,1.145,0.789,1.807,2.061,1.807c0.407,0,0.891-0.051,1.171-0.153L395.854,239.287z"/>
		<path fill="#FFFFFF" d="M398.882,233.358v2.29h2.163v-2.29h1.985v6.057h-1.985v-2.392h-2.163v2.392h-1.985v-6.057H398.882z"/>
		<path fill="#FFFFFF" d="M408.883,236.946h-2.469v1.196h2.748v1.272h-4.733v-6.057h4.606v1.272h-2.596v1.018h2.469v1.298H408.883z"
			/>
		<path fill="#FFFFFF" d="M410.309,239.415v-6.057h2.189l1.196,1.96c0.356,0.534,0.789,1.323,1.069,1.96h0.025
			c-0.102-0.713-0.153-1.654-0.153-2.621v-1.298h1.807v6.057h-2.036l-1.222-2.01c-0.356-0.585-0.84-1.4-1.12-2.036h-0.025
			c0.051,0.738,0.076,1.68,0.076,2.723v1.349h-1.807V239.415z"/>
	</g>
</g>
</svg>
