<?xml version="1.0" encoding="utf-8"?>
<!-- Generator: Adobe Illustrator 17.0.0, SVG Export Plug-In . SVG Version: 6.00 Build 0)  -->
<!DOCTYPE svg PUBLIC "-//W3C//DTD SVG 1.1//EN" "http://www.w3.org/Graphics/SVG/1.1/DTD/svg11.dtd">
<svg version="1.1" id="Layer_1" xmlns="http://www.w3.org/2000/svg" xmlns:xlink="http://www.w3.org/1999/xlink" x="0px" y="0px"
	 width="600px" height="600px" viewBox="0 0 600 600" enable-background="new 0 0 600 600" xml:space="preserve">
<path fill="#AA2EC8" stroke="#000000" stroke-miterlimit="10" d="M6.1,342.8C40.7,232.2,21.2,187.2,67.7,94.2
	c10.5-21,71.9-57.8,135.8-73.2c0,0,109.7-25.5,180.5-3.5s140.3,53.3,151.9,80c35.7,82.1,31.2,191.6,59.7,243.7
	c-12.5,1.2-81.3,14.4-109.3,19.7c-2.4-7.3-13.4-60-13.4-60s3.2,248,3.2,270c-0.2,19-92.8,24-180.8,24s-167.5-10-167.5-26.9
	c0-16.8,1.1-262.1,1.1-262.1s-3.3,23.3-8.3,56.1C91.3,361.9,16.4,344,6.1,342.8z"/>
<g>
	<g>
		<path fill="#9700BB" d="M234.5,28.7C247.3,46,269,62.5,305.1,62.5c36.2,0,56.3-16.8,67.4-34.5C342.2,31.1,266.9,30.8,234.5,28.7z"
			/>
		<path fill="#CBD0DE" stroke="#AA2EC8" stroke-miterlimit="10" d="M375.1,1c-17.6,5.3-142.2,2.9-148.6,0.6
			c-0.1,0.3-0.3,0.7-0.5,1.1c2.2,7.1,6.3,17.5,13.7,27.5c29.5,1.9,97.9,2.2,125.6-0.6c6.2-9.9,9.4-20.2,10.9-27.3
			C375.8,1.8,375.4,1.4,375.1,1z"/>
	</g>
	<path fill="#ECEEF3" stroke="#AA2EC8" stroke-miterlimit="10" d="M376.2,2.3C372.1,21,357.2,61,304,61c-53.9,0-72.4-40.1-78-58.3
		c-2.9,5.3-15.1,16-15.1,16s15.6,61.7,91.1,61.7c76.5,0,86.6-58.7,87.7-63.1C387.6,16.4,380.4,6.9,376.2,2.3z"/>
</g>
<path fill="#9700BB" d="M73.8,85.9c0,0,77.1,9.2,55.7,220c-0.9,166-1.1,253.8-1.1,255.9c0,3.2-0.6,7.5,0.8,9.2
	c0.7,1.1,1.7,2.3,3.4,3.5c4.7,3.4,13.4,6.6,25.2,9.1c-14.2-11.6-10.9-42.8-9.8-72.1c1.1-29.4-24-95.4-3-199.4
	c6.8-33.6-5.5-74.9-6-84C135,160.4,122.6,94.6,73.8,85.9z"/>
<path fill="#9700BB" d="M530.2,89c0,0-79.2,0.7-57.7,211.5c2.1,168.9,3.2,265.3,3.2,264.5c0-2.3,0,2.4,0,6.2c0,1.3-0.7,2.6-0.9,2.9
	c-0.7,1.1-2,2.2-3.6,3.4c-4.7,3.4-13.3,5.9-25.1,8.2c14.2-11.6,11.1-41.8,10-71.2c-1.1-29.4,24-95.4,3-199.4
	c-6.8-33.6,1.5-83.4,2-92.4C465,155.1,483.7,92,530.2,89z"/>
<path fill="#9700BB" d="M137.8,61.8c0,0,33.7-16.9,64-24.4c7.4,24.1,81.7,139.3,81.7,211.7s3.7,341.8,3.7,341.8l-79.9-5.6
	c0,0-1.9-289.7-3.7-323.2C201.8,228.7,154.5,82.2,137.8,61.8z"/>
<path fill="#9700BB" d="M463.2,61.8c0,0-33.7-16.9-64-24.4c-7.4,24.1-81.7,139.3-81.7,211.7s-3.7,341.8-3.7,341.8l79.9-5.6
	c0,0,1.9-289.7,3.7-323.2S446.5,82.2,463.2,61.8z"/>
<path fill="#C673DA" d="M300.9,236.2c0,0-15.1-95.2-54-150.8c23.8,27,80.2,24.6,107.1,0C316,140.2,299.3,224.3,300.9,236.2z"/>
<g>
	<g>
		<g>
			<path fill="#FFFFFF" d="M391.6,263c-16.8,0-30.4-13.6-30.4-30.3s13.6-30.4,30.4-30.4s30.4,13.6,30.4,30.4S408.3,263,391.6,263z"
				/>
			<path fill="#DC032B" d="M391.6,203.5c7.8,0,15.1,3.1,20.6,8.6s8.6,12.9,8.6,20.7s-3.1,15.1-8.6,20.6c-5.5,5.5-12.8,8.6-20.6,8.6
				c-7.8,0-15.1-3-20.6-8.6c-5.5-5.5-8.6-12.8-8.6-20.6s3.1-15.1,8.6-20.6S383.8,203.5,391.6,203.5 M391.6,201.2
				c-17.4,0-31.5,14.1-31.5,31.5s14.1,31.5,31.5,31.5s31.5-14.1,31.5-31.5S409,201.2,391.6,201.2L391.6,201.2z"/>
		</g>
		<g>
			<circle fill="#FFFFFF" cx="391.6" cy="232.7" r="26.8"/>
			<path fill="#0165B2" d="M391.6,260.1c-15.1,0-27.4-12.3-27.4-27.4s12.3-27.4,27.4-27.4s27.4,12.3,27.4,27.4
				S406.7,260.1,391.6,260.1z"/>
		</g>
	</g>
	<g>
		<path fill="#FFFFFF" d="M380.2,214h9.5v2.9h-6v3.5h5.6v2.9h-5.6v6.2h-3.5V214L380.2,214z"/>
		<path fill="#FFFFFF" d="M403.7,229.1c-0.6,0.3-2.1,0.7-4,0.7c-5.4,0-8.1-3.4-8.1-7.8c0-5.3,3.8-8.2,8.5-8.2c1.8,0,3.2,0.4,3.8,0.7
			l-0.8,2.8c-0.7-0.3-1.7-0.6-3-0.6c-2.8,0-4.9,1.7-4.9,5.2c0,3.1,1.8,5.1,4.9,5.1c1.1,0,2.2-0.2,3-0.5L403.7,229.1z"/>
		<path fill="#FFFFFF" d="M376.4,233.5c0.9-0.2,2.8-0.4,4.5-0.4c2.1,0,3.5,0.2,4.6,0.9c1.1,0.6,1.9,1.6,1.9,3.1
			c0,1.3-0.8,2.6-2.5,3.3v0.1c1.8,0.4,3.1,1.8,3.1,3.8c0,1.4-0.6,2.5-1.6,3.3c-1.1,0.9-3,1.4-6.1,1.4c-1.7,0-3-0.1-3.8-0.2
			L376.4,233.5L376.4,233.5z M379.8,239.4h1.2c1.9,0,2.8-0.8,2.8-1.9s-0.9-1.8-2.5-1.8c-0.8,0-1.2,0.1-1.5,0.1V239.4L379.8,239.4z
			 M379.8,246.3c0.4,0.1,0.8,0.1,1.4,0.1c1.6,0,3-0.6,3-2.2c0-1.6-1.4-2.2-3.1-2.2h-1.2v4.3H379.8z"/>
		<path fill="#FFFFFF" d="M403.4,242.8c-0.1-1.9-0.1-4.1-0.1-6.4l0,0c-0.5,2-1.2,4.2-1.8,6l-1.9,6.1h-2.8l-1.6-6
			c-0.5-1.8-1-4-1.4-6.1h-0.1c-0.1,2.1-0.1,4.5-0.2,6.4l-0.3,5.9H390l1-15.5h4.7l1.5,5.2c0.5,1.8,1,3.7,1.3,5.6h0.1
			c0.4-1.8,1-3.9,1.5-5.6l1.6-5.2h4.6l0.8,15.5h-3.4L403.4,242.8z"/>
	</g>
	<g>
		<g>
			<polygon fill="#FFFFFF" points="374.5,216.8 374.8,214.9 375.8,216.6 377.7,216.3 376.4,217.7 377.3,219.4 375.5,218.6 
				374.1,220 374.3,218.1 372.6,217.2 			"/>
		</g>
		<g>
			<polygon fill="#FFFFFF" points="370,222.5 369.8,220.6 371.2,222 372.9,221.2 372,222.9 373.3,224.4 371.4,224 370.5,225.7 
				370.2,223.8 368.3,223.4 			"/>
		</g>
		<g>
			<polygon fill="#FFFFFF" points="367.7,229.6 366.8,227.9 368.6,228.7 369.9,227.3 369.7,229.2 371.5,230.1 369.6,230.5 
				369.3,232.4 368.3,230.7 366.4,231.1 			"/>
		</g>
		<g>
			<polygon fill="#FFFFFF" points="368.5,237.1 367,235.8 369,235.9 369.7,234 370.2,235.9 372.2,236 370.6,237.1 371.1,239 
				369.5,237.8 367.9,238.9 			"/>
		</g>
		<g>
			<polygon fill="#FFFFFF" points="371.7,243.6 369.9,242.8 371.8,242.3 372,240.4 373.1,242.1 375,241.7 373.7,243.1 374.7,244.8 
				372.9,244.1 371.6,245.6 			"/>
		</g>
	</g>
</g>
</svg>
