<?xml version="1.0" encoding="utf-8"?>
<!-- Generator: Adobe Illustrator 17.0.0, SVG Export Plug-In . SVG Version: 6.00 Build 0)  -->
<!DOCTYPE svg PUBLIC "-//W3C//DTD SVG 1.1//EN" "http://www.w3.org/Graphics/SVG/1.1/DTD/svg11.dtd" [
	<!ENTITY ns_flows "http://ns.adobe.com/Flows/1.0/">
	<!ENTITY ns_extend "http://ns.adobe.com/Extensibility/1.0/">
	<!ENTITY ns_ai "http://ns.adobe.com/AdobeIllustrator/10.0/">
	<!ENTITY ns_graphs "http://ns.adobe.com/Graphs/1.0/">
]>
<svg version="1.1" id="Layer_1" xmlns:x="&ns_extend;" xmlns:i="&ns_ai;" xmlns:graph="&ns_graphs;"
	 xmlns="http://www.w3.org/2000/svg" xmlns:xlink="http://www.w3.org/1999/xlink" xmlns:a="http://ns.adobe.com/AdobeSVGViewerExtensions/3.0/"
	 x="0px" y="0px" width="600px" height="600px" viewBox="0 0 600 600" style="enable-background:new 0 0 600 600;"
	 xml:space="preserve">
<style type="text/css">
	.st0{fill:#05297D;stroke:#000000;stroke-miterlimit:10;}
	.st1{fill:#527DD3;}
	.st2{fill:#E3E3E7;}
	.st3{fill:#302E29;}
	.st4{fill:#FFFFFF;stroke:#000000;stroke-miterlimit:10;}
	.st5{fill:#FFFFFF;}
	.st6{fill:#7C0014;}
	.st7{fill:#B1C49B;stroke:#000000;stroke-miterlimit:10;}
	.st8{fill:#8AA668;}
	.st9{fill:#7C7D14;stroke:#B1C49B;stroke-miterlimit:10;}
	.st10{fill:#4E3B64;stroke:#000000;stroke-miterlimit:10;}
	.st11{fill:#382351;}
	.st12{fill:#4E3B64;}
	.st13{stroke:#4E3B64;stroke-miterlimit:10;}
	.st14{fill:#EB5D12;stroke:#000000;stroke-miterlimit:10;}
	.st15{fill:#B85D12;}
	.st16{fill:#7C0014;stroke:#EB5D12;stroke-miterlimit:10;}
	.st17{fill:#631197;stroke:#000000;stroke-miterlimit:10;}
	.st18{fill:#58006C;}
	.st19{fill:#FE5561;}
	.st20{fill:#C2BEC8;}
	.st21{fill:#FD9D00;stroke:#000000;stroke-miterlimit:10;}
	.st22{fill:#DC8700;}
	.st23{fill:#7C0014;stroke:#FD9D00;stroke-miterlimit:10;}
	.st24{fill:#A69EF8;stroke:#000000;stroke-miterlimit:10;}
	.st25{fill:#8176F5;}
	.st26{fill:#7C0014;stroke:#A69EF8;stroke-miterlimit:10;}
	.st27{fill:#5C377E;stroke:#000000;stroke-miterlimit:10;}
	.st28{fill:#5C377E;}
	.st29{fill:#242424;stroke:#5C377E;stroke-miterlimit:10;}
	.st30{fill:#CAC5C0;}
	.st31{fill:#5C377E;stroke:#FFFFFF;stroke-miterlimit:10;}
	.st32{fill:#A4FEB7;stroke:#000000;stroke-miterlimit:10;}
	.st33{fill:#75D792;}
	.st34{fill:#E20227;stroke:#A4FEB7;stroke-miterlimit:10;}
	.st35{fill:#272F74;stroke:#000000;stroke-miterlimit:10;}
	.st36{fill:#272F74;}
	.st37{fill:#E20227;stroke:#000000;stroke-miterlimit:10;}
	.st38{fill:#EDF3F8;stroke:#000000;stroke-miterlimit:10;}
	.st39{fill:#E20227;}
	.st40{fill:#01615B;}
	.st41{fill:#B6CEE3;stroke:#000000;stroke-miterlimit:10;}
	.st42{fill:#E20227;stroke:#EDF3F8;stroke-miterlimit:10;}
	.st43{fill:#C7CCC4;}
	.st44{fill:#EDF3F8;stroke:#E20227;stroke-miterlimit:10;}
	.st45{fill:#B64D00;}
	.st46{fill:#BBE79B;stroke:#000000;stroke-miterlimit:10;}
	.st47{fill:#AA2EC8;stroke:#000000;stroke-miterlimit:10;}
	.st48{fill:#9700BB;}
	.st49{fill:#CBD0DE;stroke:#AA2EC8;stroke-miterlimit:10;}
	.st50{fill:#ECEEF3;stroke:#AA2EC8;stroke-miterlimit:10;}
	.st51{fill:none;stroke:#7C0014;stroke-width:8;stroke-miterlimit:10;}
	.st52{fill:none;stroke:#000000;stroke-width:8;stroke-miterlimit:10;}
	.st53{fill:#FFEB00;}
	.st54{fill:#625616;stroke:#000000;stroke-miterlimit:10;}
	.st55{fill:#1853A6;stroke:#1853A6;stroke-width:0.25;stroke-miterlimit:10;}
	.st56{fill:none;}
	.st57{fill:none;stroke:#1853A6;stroke-width:0.225;stroke-miterlimit:10;}
	.st58{fill:#1853A6;stroke:#1853A6;stroke-width:0.225;stroke-miterlimit:10;}
	.st59{fill:#625616;}
	.st60{stroke:#625616;stroke-miterlimit:10;}
	.st61{adobe-knockout:true;}
	.st62{fill:none;stroke:#FFFFFF;stroke-miterlimit:10;adobe-knockout:false;}
	.st63{fill:none;stroke:#5C377E;stroke-miterlimit:10;}
	.st64{fill:#97C266;}
	.st65{fill:#523900;stroke:#000000;stroke-miterlimit:10;}
	.st66{fill:#FF4A49;}
	.st67{fill:#3C6643;}
	.st68{fill:none;stroke:#FF4A49;stroke-width:0.2334;stroke-miterlimit:10;}
	.st69{fill:none;stroke:#01615B;stroke-width:8;stroke-linecap:round;stroke-miterlimit:10;}
	.st70{fill:#F1CF4D;stroke:#000000;stroke-miterlimit:10;}
	.st71{fill:#F7A161;}
	.st72{fill:#1C232F;}
	.st73{fill:#EDAA14;}
	.st74{fill:#096CB6;stroke:#F1CF4D;stroke-miterlimit:10;}
	.st75{fill:#0060CE;stroke:#000000;stroke-miterlimit:10;}
	.st76{fill:#E20227;stroke:#0060CE;stroke-miterlimit:10;}
	.st77{fill:#345F69;stroke:#000000;stroke-miterlimit:10;}
	.st78{fill:#114450;}
	.st79{fill:#C6FDEC;stroke:#000000;stroke-miterlimit:10;}
	.st80{fill:none;stroke:#E20227;stroke-width:8;stroke-linecap:round;stroke-miterlimit:10;}
	.st81{fill:none;stroke:#FFFFFF;stroke-width:8;stroke-linecap:round;stroke-miterlimit:10;}
	.st82{fill:#C673DA;}
	.st83{fill:#DC032B;}
	.st84{fill:#0165B2;}
	.st85{fill:#BBE79B;}
	.st86{fill:none;stroke:#FE5561;stroke-width:3;stroke-miterlimit:10;}
	.st87{fill:none;stroke:#9D9497;stroke-width:3;stroke-miterlimit:10;}
	.st88{fill:none;stroke:#C9C4C6;stroke-width:3;stroke-miterlimit:10;}
	.st89{fill:none;stroke:#E3E3E3;stroke-width:3;stroke-miterlimit:10;}
	.st90{fill:#0049B0;}
	.st91{fill:#9EE2D1;}
	.st92{fill:#096CB6;}
	.st93{fill:none;stroke:#0060CE;stroke-width:3;stroke-linecap:round;stroke-miterlimit:10;}
	.st94{fill:none;stroke:#F1CF4D;stroke-width:3;stroke-linecap:round;stroke-linejoin:round;stroke-miterlimit:10;}
	.st95{fill:none;stroke:#AA2EC8;stroke-miterlimit:10;}
	.st96{fill:url(#SVGID_1_);stroke:#C6FDEC;stroke-miterlimit:10;}
	.st97{fill:#096CB6;stroke:#C6FDEC;stroke-miterlimit:10;}
	.st98{stroke:#A0A0A0;stroke-miterlimit:10;}
	.st99{fill:#4B5459;}
	.st100{fill:#4E2664;stroke:#000000;stroke-miterlimit:10;}
	.st101{fill:#FFCF2B;stroke:#000000;stroke-miterlimit:10;}
	.st102{fill:#1C5DA4;}
	.st103{fill:#156A50;stroke:#000000;stroke-miterlimit:10;}
	.st104{fill:none;stroke:#FF7F35;stroke-width:11;stroke-miterlimit:10;}
	.st105{fill:#0F5A4B;}
	.st106{fill:#DAD2D8;stroke:#000000;stroke-miterlimit:10;}
	.st107{fill:#FF7F35;}
	.st108{fill:#ED1B23;}
	.st109{fill:#268FE1;stroke:#000000;stroke-miterlimit:10;}
	.st110{fill:#747785;stroke:#000000;stroke-miterlimit:10;}
	.st111{fill:#747785;}
	.st112{fill:#505C66;stroke:#747785;stroke-miterlimit:10;}
	.st113{fill:#0453BC;stroke:#000000;stroke-miterlimit:10;}
	.st114{fill:#0453BC;}
	.st115{fill:#073F98;stroke:#0453BC;stroke-miterlimit:10;}
	.st116{fill:#007BD8;}
	.st117{fill:#F9E42A;stroke:#000000;stroke-miterlimit:10;}
	.st118{fill:#1F2427;}
	.st119{fill:#F8C600;}
	.st120{fill:none;stroke:#000000;stroke-miterlimit:10;}
	.st121{fill:#4EC23A;}
	.st122{fill:#4EFE3A;stroke:#000000;stroke-miterlimit:10;}
	.st123{fill:#4EFE3A;}
	.st124{fill:#A8A8B4;}
	.st125{fill:#4EBD3A;}
	.st126{fill:url(#SVGID_2_);stroke:#000000;stroke-miterlimit:10;}
	.st127{fill:#E87140;stroke:#000000;stroke-miterlimit:10;}
	.st128{fill:#A02B00;stroke:#E87140;stroke-miterlimit:10;}
	.st129{fill:#00ABE9;stroke:#000000;stroke-miterlimit:10;}
	.st130{fill:#2C6AAD;}
	.st131{fill:#007BE9;}
	.st132{fill:#2C6AAD;stroke:#D0CDC1;stroke-miterlimit:10;}
	.st133{fill:#024D9E;}
	.st134{fill:#6B97C6;}
	.st135{fill:#000078;}
	.st136{fill:#073F98;}
	.st137{fill:#505C66;}
	.st138{fill:#ED936E;}
	.st139{fill:#0097D3;}
	.st140{fill:#1C232F;stroke:#F7A161;stroke-miterlimit:10;}
	.st141{fill:url(#SVGID_3_);stroke:#000000;stroke-miterlimit:10;}
	.st142{fill:#93CC00;}
	.st143{fill:none;stroke:#6DB52D;stroke-width:2;stroke-miterlimit:10;adobe-knockout:false;}
	.st144{fill:#1C232F;stroke:#93CC00;stroke-miterlimit:10;}
	.st145{fill:#1C232F;stroke:#1C232F;stroke-miterlimit:10;}
	.st146{stroke:#000000;stroke-miterlimit:10;}
	.st147{fill:#FF0000;stroke:#000000;stroke-miterlimit:10;}
	.st148{fill:#0F4B39;}
	.st149{fill:url(#SVGID_4_);}
	.st150{fill:#E48D78;stroke:#000000;stroke-miterlimit:10;}
	.st151{fill:#FF7F35;stroke:#156A50;stroke-miterlimit:10;}
	.st152{fill:url(#SVGID_5_);}
	.st153{fill:url(#SVGID_6_);}
	.st154{fill:none;stroke:#000000;stroke-miterlimit:10;adobe-knockout:false;}
	.st155{fill:#0361A4;}
	.st156{fill:#1C5DA4;stroke:#FFCF2B;stroke-miterlimit:10;}
	.st157{fill:#593486;}
	.st158{fill:#FFC918;}
	.st159{fill:#ED1C24;}
	.st160{fill:#268FE1;}
	.st161{fill:#0361A4;stroke:#268FE1;stroke-miterlimit:10;}
	.st162{adobe-knockout:false;}
	.st163{fill:none;stroke:#0453BC;stroke-miterlimit:10;}
	.st164{fill:none;stroke:#0453BC;stroke-width:3;stroke-linecap:round;stroke-miterlimit:10;adobe-knockout:false;}
	.st165{fill:none;stroke:#F9E42A;stroke-miterlimit:10;}
	.st166{fill:#1F2427;stroke:#F9E42A;stroke-miterlimit:10;}
	.st167{fill:none;stroke:#4EFE3A;stroke-width:11;stroke-miterlimit:10;}
	.st168{fill:#00254E;}
	.st169{fill:#05297D;}
	.st170{fill:#7D1E05;stroke:#000000;stroke-miterlimit:10;}
	.st171{fill:#D36B52;}
	.st172{fill:none;stroke:#AE61FF;stroke-width:11;stroke-miterlimit:10;}
	.st173{fill:#561A00;}
	.st174{fill:#6A1E05;}
	.st175{fill:#AE61FF;stroke:#7D1E05;stroke-miterlimit:10;}
	.st176{fill:#FDEA00;}
	.st177{fill:none;stroke:#A02B00;stroke-width:3;stroke-miterlimit:10;}
	.st178{fill:none;stroke:#EAA595;stroke-width:3;stroke-miterlimit:10;}
	.st179{fill:none;stroke:#F1F1F1;stroke-width:3;stroke-miterlimit:10;}
	.st180{fill:none;stroke:#FF7F35;stroke-width:6;stroke-miterlimit:10;}
	.st181{fill:#FF7F35;stroke:#DAD2D8;stroke-miterlimit:10;}
	.st182{fill:none;stroke:#FF0000;stroke-width:2;stroke-miterlimit:10;adobe-knockout:false;}
	.st183{fill:#F1E3C9;}
	.st184{fill:#F28330;}
	.st185{fill:#ED1B28;}
	.st186{fill:none;stroke:#FFFFFF;stroke-width:2;stroke-miterlimit:10;adobe-knockout:false;}
</style>
<path class="st4" d="M6.1,342.8C40.7,232.2,21.2,187.2,67.7,94.2c10.5-21,71.9-57.8,135.8-73.2c0,0,109.7-25.5,180.5-3.5
	s140.3,53.3,151.9,80c35.7,82.1,31.2,191.6,59.7,243.7c-12.5,1.2-81.3,14.4-109.3,19.7c-2.4-7.3-13.4-60-13.4-60s3.2,248,3.2,270
	c-0.2,19-92.8,24-180.8,24s-167.5-10-167.5-26.9c0-16.8,1.1-262.1,1.1-262.1s-3.3,23.3-8.3,56.1C91.3,361.9,16.4,344,6.1,342.8z"/>
<g>
	<g>
		<path class="st5" d="M234.5,28.7C247.3,46,269,62.5,305.1,62.5c36.2,0,56.3-16.8,67.4-34.5C342.2,31.1,266.9,30.8,234.5,28.7z"/>
		<path class="st6" d="M375.1,1c-17.6,5.3-142.2,2.9-148.6,0.6c-0.1,0.3-0.3,0.7-0.5,1.1c2.2,7.1,6.3,17.5,13.7,27.5
			c29.5,1.9,97.9,2.2,125.6-0.6c6.2-9.9,9.4-20.2,10.9-27.3C375.8,1.8,375.4,1.4,375.1,1z"/>
	</g>
	<path class="st6" d="M376.2,2.3c-4.1,18.7-19,58.7-72.2,58.7c-53.9,0-72.4-40.1-78-58.3c-2.9,5.3-15.1,16-15.1,16
		s15.6,61.7,91.1,61.7c76.5,0,86.6-58.7,87.7-63.1C387.6,16.4,380.4,6.9,376.2,2.3z"/>
</g>
<path class="st4" d="M6.1,342.8C40.7,232.2,21.2,187.2,67.7,94.2c10.5-21,71.9-57.8,135.8-73.2c0,0,109.7-25.5,180.5-3.5
	s140.3,53.3,151.9,80c35.7,82.1,31.2,191.6,59.7,243.7c-12.5,1.2-81.3,14.4-109.3,19.7c-2.4-7.3-13.4-60-13.4-60s3.2,248,3.2,270
	c-0.2,19-92.8,24-180.8,24s-167.5-10-167.5-26.9c0-16.8,1.1-262.1,1.1-262.1s-3.3,23.3-8.3,56.1C91.3,361.9,16.4,344,6.1,342.8z"/>
<g>
	<g>
		<path class="st5" d="M234.5,28.7C247.3,46,269,62.5,305.1,62.5c36.2,0,56.3-16.8,67.4-34.5C342.2,31.1,266.9,30.8,234.5,28.7z"/>
		<path class="st6" d="M375.1,1c-17.6,5.3-142.2,2.9-148.6,0.6c-0.1,0.3-0.3,0.7-0.5,1.1c2.2,7.1,6.3,17.5,13.7,27.5
			c29.5,1.9,97.9,2.2,125.6-0.6c6.2-9.9,9.4-20.2,10.9-27.3C375.8,1.8,375.4,1.4,375.1,1z"/>
	</g>
	<path class="st6" d="M376.2,2.3c-4.1,18.7-19,58.7-72.2,58.7c-53.9,0-72.4-40.1-78-58.3c-2.9,5.3-15.1,16-15.1,16
		s15.6,61.7,91.1,61.7c76.5,0,86.6-58.7,87.7-63.1C387.6,16.4,380.4,6.9,376.2,2.3z"/>
</g>
<path class="st38" d="M6.1,342.8C40.7,232.2,21.2,187.2,67.7,94.2c10.5-21,71.9-57.8,135.8-73.2c0,0,109.7-25.5,180.5-3.5
	s140.3,53.3,151.9,80c35.7,82.1,31.2,191.6,59.7,243.7c-12.5,1.2-81.3,14.4-109.3,19.7c-2.4-7.3-13.4-60-13.4-60s3.2,248,3.2,270
	c-0.2,19-92.8,24-180.8,24s-167.5-10-167.5-26.9c0-16.8,1.1-262.1,1.1-262.1s-3.3,23.3-8.3,56.1C91.3,361.9,16.4,344,6.1,342.8z"/>
<path class="st39" d="M473.6,301.1c0,0,10.7,52,13.1,59.3c28-5.4,95.7-18.4,108.2-19.7c-28.5-52.1-24-161.6-59.7-243.7l-4.7-7.5
	c0,0-36.4,2.4-51.6,60.4c-3.1,12.4-5.8,24.3-7.3,36.9c-4.6,38-2.4,77.3,1,114.1C472.6,301.5,473.6,300.5,473.6,301.1z"/>
<path class="st40" d="M128.5,306c0,0-6.2,48.4-8.6,55.6C83.2,359.9,19,343.7,6.5,342.5C27,277,28.3,238.3,37.7,181.3
	c2.4-15,8.9-35.9,15.5-53.2c6.9-17.8,13.9-31.6,14.6-33.1c1.3-3,6.4-9.2,6.4-9.2s34.3,3.6,49.6,61.5c3.1,12.4,5.8,24.3,7.3,36.9
	c4.6,38,1.8,84.8-1.6,121.7C129,306.1,128.8,306,128.5,306z"/>
<g>
	<g>
		<path class="st41" d="M234.5,28.7C247.3,46,269,62.5,305.1,62.5c36.2,0,56.3-16.8,67.4-34.5C342.2,31.1,266.9,30.8,234.5,28.7z"/>
		<path class="st42" d="M375.1,1c-17.6,5.3-142.2,2.9-148.6,0.6c-0.1,0.3-0.3,0.7-0.5,1.1c2.2,7.1,6.3,17.5,13.7,27.5
			c29.5,1.9,97.9,2.2,125.6-0.6c6.2-9.9,9.4-20.2,10.9-27.3C375.8,1.8,375.4,1.4,375.1,1z"/>
	</g>
	<path class="st42" d="M376.2,2.3c-4.1,18.7-19,58.7-72.2,58.7c-53.9,0-72.4-40.1-78-58.3c-2.9,5.3-15.1,16-15.1,16
		s15.6,61.7,91.1,61.7c76.5,0,86.6-58.7,87.7-63.1C387.6,16.4,380.4,6.9,376.2,2.3z"/>
</g>
<path class="st43" d="M73.8,85.9c0,0,77.1,9.2,55.7,220c-0.9,166-1.1,253.8-1.1,255.9c0,3.2-0.6,7.5,0.8,9.2
	c0.7,1.1,1.7,2.3,3.4,3.5c4.7,3.4,13.4,6.6,25.2,9.1c-14.2-11.6-10.9-42.8-9.8-72.1c1.1-29.4-24-95.4-3-199.4
	c6.8-33.6-5.5-74.9-6-84C135,160.4,122.6,94.6,73.8,85.9z"/>
<path class="st43" d="M530.2,89c0,0-79.2,0.7-57.7,211.5c2.1,168.9,3.2,265.3,3.2,264.5c0-2.3,0,2.4,0,6.2c0,1.3-0.7,2.6-0.9,2.9
	c-0.7,1.1-2,2.2-3.6,3.4c-4.7,3.4-13.3,5.9-25.1,8.2c14.2-11.6,11.1-41.8,10-71.2c-1.1-29.4,24-95.4,3-199.4
	c-6.8-33.6,1.5-83.4,2-92.4C465,155.1,483.7,92,530.2,89z"/>
<g>
	<path class="st5" d="M380.2,195.8c-6.6,0-12.2-1.1-16.7-3.2c-3.5-1.7-6.4-4.1-8.5-7c-3.5-5.1-3.6-10.3-3.6-10.3v-37.3h57.9v37.3
		c0,0-0.1,5.2-3.6,10.3c-2.1,3-5,5.3-8.5,7C392.5,194.7,386.8,195.8,380.2,195.8z"/>
	<path class="st66" d="M350.4,136.9v38.2c0,0,0.1,21.5,29.8,21.5c30,0,30-21.5,30-21.5v-38.2H350.4z M380.2,194.8
		c-6.4,0-11.9-1.1-16.3-3.1c-1.9-0.9-3.6-2.1-5.1-3.4l21.8-21.7l-27.8-27.8h55.6v0.1l-27.8,27.7l21.5,21.5c-1.6,1.4-3.4,2.6-5.4,3.6
		C392.2,193.8,386.7,194.8,380.2,194.8z"/>
	<g>
		<path d="M366.8,143.4h6v1.2h-3.6v1h3.4v1.2h-3.4v2.1h-2.4V143.4z"/>
		<path d="M381.4,148.7c-0.4,0.1-1.3,0.3-2.5,0.3c-3.5,0-5-1.3-5-2.8c0-1.9,2.3-2.9,5.1-2.9c1.1,0,2,0.1,2.5,0.3l-0.5,1.2
			c-0.4-0.1-1.1-0.2-1.9-0.2c-1.4,0-2.7,0.5-2.7,1.6c0,0.9,1,1.6,2.8,1.6c0.7,0,1.4-0.1,1.8-0.2L381.4,148.7z"/>
		<path d="M370.4,186.5L370.4,186.5l-1.4,0.5l-0.3-1.2l2-0.7h1.5v5.7h-1.8C370.4,190.8,370.4,186.5,370.4,186.5z"/>
		<path d="M375,189.6c0.2,0,0.3,0,0.7,0c0.5,0,1.1-0.1,1.4-0.3c0.5-0.2,0.8-0.5,0.9-0.8l0,0c-0.3,0.2-0.7,0.3-1.3,0.3
			c-1.2,0-2.3-0.6-2.3-1.8c0-1.2,1.2-2.1,2.8-2.1c2.1,0,2.8,1.3,2.8,2.5c0,1.1-0.4,2-1.2,2.6c-0.8,0.6-1.8,0.9-3.2,0.9
			c-0.2,0-0.5,0-0.7,0C375,190.9,375,189.6,375,189.6z M377.1,186.2c-0.4,0-0.8,0.3-0.8,0.8c0,0.4,0.3,0.7,0.9,0.7
			c0.4,0,0.6-0.1,0.8-0.3c0-0.1,0.1-0.1,0.1-0.2C378,186.8,377.8,186.2,377.1,186.2L377.1,186.2z"/>
		<path d="M383.4,190.9c-2,0-2.8-1.4-2.8-3s0.8-3,2.8-3c2,0,2.8,1.4,2.8,3C386.2,189.5,385.5,190.9,383.4,190.9L383.4,190.9z
			 M383.5,189.7c0.5,0,0.9-0.6,0.9-1.8c0-1.2-0.4-1.8-0.9-1.8c-0.5,0-0.9,0.5-0.9,1.8C382.6,189.2,382.9,189.7,383.5,189.7
			L383.5,189.7z"/>
		<path d="M392.3,185.1v1l-2.8,4.7h-2.1l2.9-4.4l0,0h-3.2v-1.3H392.3z"/>
	</g>
	<g>
		<g>
			<g>
				<g>
					<path class="st5" d="M377.5,170.3L377.5,170.3c-1-0.1-1.8-0.9-1.8-1.9c0-0.5,0.2-1,0.5-1.4c0.4-0.4,0.8-0.6,1.4-0.6
						c1.1,0,1.9,0.8,1.9,1.8c0,0.5-0.2,1-0.5,1.4C378.6,170.1,378.1,170.3,377.5,170.3L377.5,170.3
						C377.6,170.3,377.6,170.3,377.5,170.3L377.5,170.3z"/>
				</g>
				<g>
					<path class="st5" d="M377.5,170.3l-0.7-0.8c0,0-0.1-0.1-0.1-0.1c-0.2-0.2-0.4-0.5-0.5-0.9c-0.1-0.5,0.2-0.9,0.4-1.1
						c0,0,0-0.1,0.1-0.1l0.3-0.4l1.3,0l0.3,0.4c0,0,0.1,0.1,0.1,0.1c0.2,0.2,0.5,0.6,0.4,1.1c-0.1,0.5-0.4,0.8-0.7,1
						c0,0-0.1,0.1-0.1,0.1L377.5,170.3z"/>
				</g>
			</g>
			<path class="st5" d="M392.8,170.8l-2.8-6.3l-0.6,0.5c-0.5-0.9-1-1.8-1.9-2.4c-0.6-0.4-1.2-0.8-1.8-1.1l0.2-0.4
				c-0.3-0.2-0.6-0.4-0.9-0.6c0.2-0.3,0.4-0.6,0.5-1l0.3-0.9l-1-0.3c-0.1,0-0.2,0-0.3-0.1c0.8-1.7,2-3,3.5-3.9l1.3-0.7l-1.2-0.9
				c-0.6-0.4-1.2-0.7-1.8-0.7l0-0.1l-1.2-0.3c-0.1,0-0.2,0-0.3,0c-0.1,0-0.3-0.1-0.4-0.1c-0.4-0.2-0.7-0.2-1-0.2c-0.1,0-0.2,0-0.3,0
				l0-0.1l-2.8-0.2l0-0.2l-1,0.1h0l-2.8,0.3v0c0,0-0.1,0-0.1,0c-0.3,0-0.7,0.1-1.1,0.2l-1.2,0.6c0,0,0,0,0,0c-0.2,0-0.4-0.1-0.6-0.1
				c-0.7,0-1.3,0.4-1.8,0.8l-1.1,0.9l1.3,0.7c1.5,0.8,2.7,2.1,3.5,3.9c-0.1,0-0.2,0-0.3,0.1l-1.1,0.3l0.6,1c0.1,0.2,0.2,0.4,0.4,0.6
				c-1.9,1.1-3.3,2.9-3.9,5.1l0.4,0.2c-0.9,1.8-1.1,3.7-0.5,5.4c0.2,0.7,0.4,1.2,0.6,1.6c0.3,0.7,0.5,1.4,0.8,2c0,0,0,0.1,0.1,0.2
				l-0.2,0.2c-0.2,0.1-0.4,0.2-0.6,0.4c-0.6,0.4-1.3,0.7-1.9,1.1c-0.3,0.2-0.5,0.5-0.6,0.7c0,0,0,0,0,0.1l-0.6,1l0.1,0l0,0l0.5,1.6
				h0.7c0.1,0,0.1,0,0.2,0c0.1,0,0.2,0,0.3,0c0.1,0,0.2,0,0.4,0c0.6,0,1.1-0.1,1.7-0.1c1.1-0.1,2.1-0.2,3.2-0.3
				c1.1-0.1,1.5-0.7,1.7-1.3v0c0.6-0.3,1.1-0.7,1.4-1.5c1.5,2.3,4.4,5.2,6.7,6.7c0.5,0.3,1,0.5,1.5,0.5c0.6,0,1.1-0.2,1.6-0.6
				c0.1,0,0.1,0,0.2,0.1c0.1,0,0.2,0.1,0.4,0.2l1.3,0.6l0.1-1.4c0-0.5,0-1,0.1-1.5c0,0,0-0.1,0-0.1l0-0.4c0-1,0.1-2,0.1-3
				c0-0.6,0.1-1.1,0.4-1.6c0.5-0.9,0.9-1.8,1.4-2.7c0.1-0.3,0.3-0.6,0.4-0.9c0.1-0.1,0.1-0.3,0.2-0.4c0,0,0-0.1,0-0.1l0.4-1
				L392.8,170.8z"/>
		</g>
		<g>
			<g>
				<g>
					<g>
						<path class="st67" d="M373.6,175.9c0.7,0,1.3,0,1.9,0c0.5,0,1,0.1,1.5,0.2c-0.4-0.2-0.8-0.4-1.2-0.5c-0.9-0.3-1.7-0.6-2.5,0.1
							C373.2,176,373.6,175.9,373.6,175.9z M372.8,175.7c0.3-0.2,0.5-0.4,0.8-0.6c-0.4-0.9-0.7-1.9-1.1-2.8
							c-0.2-0.5-0.4-1.1-0.5-1.6c-1.1-3.7,1.6-7.3,4.2-8.4c3.8-1.7,7.4-1.3,10.8,1.1c0.9,0.7,1.4,1.7,2,2.8c-0.8,0.5-1.6,1-2.4,1.5
							c-1.3,0.9-2.6,0.9-4,0.2c-1.4-0.6-2.8-1-4.2-1.5c-1-0.4-2.1,0.1-2.7,1.1c-0.5,1-0.2,2.1,0.7,2.8c0.5,0.3,1,0.6,1.4,0.9
							c0.5,0.3,1,0.6,1.5,1c-0.6,1.4-1.2,2.7-1.7,4.1c-0.3,0.9-0.8,1.2-1.7,1.3c-1.8,0.1-3.7,0.3-5.5,0.5c-0.2,0-0.4-0.1-0.6-0.2
							c0.1-0.2,0.2-0.4,0.3-0.5C371.1,176.7,371.9,176.2,372.8,175.7L372.8,175.7z M384.6,162.5c-3-1.6-9-0.6-10.1,1.6
							C377.5,162,380.9,161.5,384.6,162.5z"/>
					</g>
					<g>
						<path class="st67" d="M391.3,169.8c-1.9-0.2-3.7-0.4-5.6-0.5c0.1,0.6,0.1,1.1,0.2,1.6c0,0.1,0.3,0.3,0.5,0.3
							c1.8,0.2,3.5,0.3,5.3,0.5c0.1,0,0.1,0,0.3,0.1c-0.1,0.2-0.1,0.3-0.2,0.5c-0.6,1.2-1.2,2.4-1.8,3.6c-0.3,0.6-0.5,1.3-0.5,2
							c0,1.6-0.1,3.2-0.2,4.9c-0.4-0.2-0.7-0.3-1.1-0.5c-2.6-1.4-4.7-3.5-6.7-5.7c-0.5-0.6-1-1.2-1.6-1.8c-0.2-0.3-0.3-0.5-0.1-0.8
							c0.2-0.3,0.3-0.6,0.4-0.9c0.3-0.5,0.2-0.8-0.3-1.1c-1.1-0.7-2.1-1.3-3.1-2c-0.8-0.5-1.1-1.5-0.7-2.3c0.4-0.8,1.3-1.1,2.2-0.7
							c2,0.7,3.9,1.4,6,2.1c0.2,0.1,0.6,0,0.8,0c1.7-0.6,3.2-1.5,4.5-2.8C390.2,167.3,390.7,168.5,391.3,169.8z M377.6,169.4
							c0.5,0,1-0.5,1-1s-0.4-0.9-1-0.9c-0.5,0-1,0.4-1,1C376.7,168.9,377.1,169.4,377.6,169.4z M380.7,175.3c-1-0.8-0.3-1.5,0.1-2.3
							c0-0.1,0.1-0.2,0.1-0.3c0-0.3,0-0.7-0.2-0.9c-0.4-0.4-1-0.6-1.5-0.9c0.1,0.2,0.3,0.3,0.4,0.4c1.5,1,1.3,0.7,0.7,2.2
							C379.9,174.5,379.9,174.5,380.7,175.3z M385.1,173.1c-0.2,0.4-0.4,0.6-0.5,0.8c0,0.1,0.2,0.2,0.3,0.4c0.2-0.2,0.4-0.4,0.5-0.6
							C385.5,173.5,385.3,173.4,385.1,173.1z M386.9,174.1c-0.2-0.2-0.4-0.4-0.4-0.4c-0.2,0.2-0.4,0.4-0.5,0.6c0,0,0.2,0.2,0.3,0.4
							C386.4,174.5,386.6,174.3,386.9,174.1z M387.6,174c-0.2,0.4-0.4,0.6-0.4,0.9c0,0.1,0.2,0.2,0.3,0.4c0.2-0.2,0.4-0.4,0.5-0.7
							C388,174.4,387.8,174.3,387.6,174z M388.6,175.6c0.1,0,0.1,0,0.2,0c0.1-0.2,0.3-0.4,0.4-0.7c0-0.1-0.2-0.2-0.2-0.4
							c-0.2,0.2-0.4,0.3-0.5,0.5C388.4,175.3,388.6,175.5,388.6,175.6z M386.3,176.2c-0.2-0.2-0.4-0.4-0.5-0.5
							c-0.1,0.2-0.3,0.3-0.3,0.5c0,0.2,0.2,0.4,0.3,0.6C385.9,176.5,386.1,176.4,386.3,176.2z M388.8,177.1
							c-0.2-0.2-0.3-0.4-0.5-0.5c-0.1,0.2-0.3,0.4-0.3,0.5c0,0.2,0.2,0.4,0.3,0.5C388.4,177.4,388.6,177.3,388.8,177.1z
							 M387.5,176.6c-0.2-0.2-0.3-0.4-0.4-0.6c-0.1,0.2-0.4,0.3-0.4,0.5c0,0.2,0.2,0.4,0.4,0.6C387.2,177,387.3,176.9,387.5,176.6z
							 M387.9,172.4c-0.4-0.2-0.7,0-0.9,0.3c0,0.1,0,0.3,0.1,0.3C387.5,173.1,387.8,172.8,387.9,172.4z M389.1,172.8
							c-0.4-0.2-0.7-0.1-0.9,0.2c0,0.1,0,0.2,0,0.4c0.3-0.1,0.6-0.3,0.8-0.4C389.1,173,389.1,172.9,389.1,172.8z M388.3,178.5
							c-0.1,0-0.1,0-0.2,0.1c-0.2,0.5-0.1,0.8,0.7,1.1C388.6,179.2,388.5,178.8,388.3,178.5z M390.4,173.3c-0.4-0.1-0.7,0-0.9,0.3
							c0,0.1,0.1,0.2,0.1,0.3c0.3-0.2,0.5-0.3,0.8-0.5C390.4,173.4,390.4,173.4,390.4,173.3z M387.1,178c-0.4,0.5-0.3,0.9,0.5,1.1
							C387.4,178.7,387.2,178.4,387.1,178z"/>
					</g>
					<g>
						<path d="M379.3,176.1c0.2-0.2,0.4-0.4,0.7-0.6c2.3,2.7,4.8,5.2,7.9,7c-0.7,0.5-1.4,0.6-2.1,0.1
							C383.6,181.2,380.7,178.3,379.3,176.1z"/>
					</g>
					<g>
						<path class="st67" d="M385.4,161.8c-6.4-2-9.8-1-13.2,3.8C373.8,160.2,380.4,158.2,385.4,161.8z"/>
					</g>
					<g>
						<path d="M391.9,171.2c-1.8-0.1-3.5-0.3-5.2-0.4c-0.7-0.1-0.3-0.6-0.6-1c1.2,0.1,2.2,0.2,3.2,0.3c0.4,0,0.9,0.1,1.3,0.1
							C391.4,170.1,391.8,170.4,391.9,171.2z M386.5,170.1c0,0,0.1,0.1,0.1,0.1c1.1,0,2.1,0,3.2,0c-0.9-0.1-1.9-0.2-2.8-0.3
							C386.8,169.9,386.6,170.1,386.5,170.1z"/>
					</g>
					<g>
						<path d="M369.7,178.7c0.2-0.1,0.5-0.4,0.7-0.4c1.9-0.2,3.8-0.4,5.7-0.5c0,0,0.1,0,0.1,0c-0.1,0.4-0.4,0.6-0.9,0.7
							c-1.6,0.1-3.3,0.3-4.9,0.4c-0.3,0-0.5,0-0.8,0C369.7,178.9,369.7,178.8,369.7,178.7z"/>
					</g>
					<g>
						<path class="st5" d="M384.6,162.5c-3.6-1-7-0.5-10.1,1.6C375.6,161.9,381.6,160.9,384.6,162.5z"/>
					</g>
					<g>
						<path class="st5" d="M377.6,169.4c-0.5,0-1-0.4-1-0.9c0-0.6,0.4-1,1-1c0.5,0,1,0.4,1,0.9C378.6,168.9,378.1,169.4,377.6,169.4
							z M377.7,167.8c-0.1,0-0.2,0-0.3,0c-0.1,0.2-0.4,0.4-0.3,0.6c0,0.2,0.3,0.4,0.4,0.6c0.2-0.2,0.5-0.4,0.5-0.5
							C378.1,168.2,377.9,168,377.7,167.8z"/>
					</g>
					<g>
						<path d="M377.7,167.8c0.1,0.2,0.4,0.4,0.4,0.6c0,0.2-0.3,0.4-0.5,0.5c-0.2-0.2-0.4-0.4-0.4-0.6c0-0.2,0.2-0.4,0.3-0.6
							C377.6,167.8,377.7,167.8,377.7,167.8z"/>
					</g>
				</g>
				<g>
					<path class="st66" d="M377.1,155.9c-0.6-1.1-1.3-2.1-1.9-3.2c0,0.1,0,0,0,0c2-0.5,1.8-0.8,2.8,1.3c0.3,0.6,0.4,1.2,0.5,1.8
						c0.1,0,0.1,0,0.2,0c-0.2-1.2-0.5-2.3-0.7-3.6c0.5,0,1.1-0.1,1.8-0.2c0.1,1.4,0.2,2.7,0.3,4c0,0,0.1,0,0.1,0
						c0.1-1.3,0.2-2.5,0.3-3.9c0.6,0,1.2,0.1,1.8,0.1c-0.3,1.2-0.5,2.4-0.7,3.6c0.1,0,0.1,0,0.2,0c0.3-0.8,0.6-1.6,0.9-2.5
						c0.3-0.8,0.8-1.3,1.8-0.9c0.3,0.1,0.6,0.1,0.8,0.2c-0.7,1.1-1.3,2.2-2,3.3c0,0,0.1,0,0.1,0.1c0.7-0.8,1.3-1.6,2-2.3
						c0.7-0.8,1.5-0.9,2.5-0.1c-2,1.1-3.2,2.6-4.1,4.5c-2.4,0-4.6,0-7,0c-0.8-1.8-2.1-3.4-4-4.5c0.9-0.7,1.4-0.8,2.1-0.1
						c0.8,0.7,1.5,1.6,2.2,2.4C377,155.9,377.1,155.9,377.1,155.9z"/>
				</g>
			</g>
			<g>
				<path class="st67" d="M384.7,159.2c-0.3,1-0.8,1.1-1.7,0.8c-1.6-0.5-3.3-0.6-5.3-0.2c-1.2,0.1-1.3,0.6-1.9-0.6
					C378.7,158.4,381.6,158.4,384.7,159.2z"/>
			</g>
		</g>
	</g>
	<rect x="366.7" y="140.7" class="st66" width="6.8" height="1.4"/>
	<rect x="373.5" y="140.7" class="st67" width="6.5" height="1.4"/>
	<rect x="366.8" y="140.8" class="st68" width="19.6" height="1.4"/>
	<g>
		<path d="M385.6,146.5l-1.1,2.4h-2.4l4.2-8.2h2.9l4.3,8.2h-2.5l-1.2-2.4H385.6z M389.4,145.3l-1.1-2.1c-0.3-0.5-0.5-1-0.7-1.4h0
			c-0.2,0.4-0.4,0.9-0.6,1.4l-1.1,2.1H389.4z"/>
	</g>
</g>
</svg>
