<?xml version="1.0" encoding="utf-8"?>
<!-- Generator: Adobe Illustrator 17.0.0, SVG Export Plug-In . SVG Version: 6.00 Build 0)  -->
<!DOCTYPE svg PUBLIC "-//W3C//DTD SVG 1.1//EN" "http://www.w3.org/Graphics/SVG/1.1/DTD/svg11.dtd" [
	<!ENTITY ns_flows "http://ns.adobe.com/Flows/1.0/">
	<!ENTITY ns_extend "http://ns.adobe.com/Extensibility/1.0/">
	<!ENTITY ns_ai "http://ns.adobe.com/AdobeIllustrator/10.0/">
	<!ENTITY ns_graphs "http://ns.adobe.com/Graphs/1.0/">
]>
<svg version="1.1" id="Layer_1" xmlns:x="&ns_extend;" xmlns:i="&ns_ai;" xmlns:graph="&ns_graphs;"
	 xmlns="http://www.w3.org/2000/svg" xmlns:xlink="http://www.w3.org/1999/xlink" xmlns:a="http://ns.adobe.com/AdobeSVGViewerExtensions/3.0/"
	 x="0px" y="0px" width="600px" height="600px" viewBox="0 0 600 600" style="enable-background:new 0 0 600 600;"
	 xml:space="preserve">
<style type="text/css">
	.st0{fill:#05297D;stroke:#000000;stroke-miterlimit:10;}
	.st1{fill:#527DD3;}
	.st2{fill:#E3E3E7;}
	.st3{fill:#302E29;}
	.st4{fill:#FFFFFF;stroke:#000000;stroke-miterlimit:10;}
	.st5{fill:#FFFFFF;}
	.st6{fill:#7C0014;}
	.st7{fill:#B1C49B;stroke:#000000;stroke-miterlimit:10;}
	.st8{fill:#8AA668;}
	.st9{fill:#7C7D14;stroke:#B1C49B;stroke-miterlimit:10;}
	.st10{fill:#4E3B64;stroke:#000000;stroke-miterlimit:10;}
	.st11{fill:#382351;}
	.st12{fill:#4E3B64;}
	.st13{stroke:#4E3B64;stroke-miterlimit:10;}
	.st14{fill:#EB5D12;stroke:#000000;stroke-miterlimit:10;}
	.st15{fill:#B85D12;}
	.st16{fill:#7C0014;stroke:#EB5D12;stroke-miterlimit:10;}
	.st17{fill:#631197;stroke:#000000;stroke-miterlimit:10;}
	.st18{fill:#58006C;}
	.st19{fill:#FE5561;}
	.st20{fill:#C2BEC8;}
	.st21{fill:#FD9D00;stroke:#000000;stroke-miterlimit:10;}
	.st22{fill:#DC8700;}
	.st23{fill:#7C0014;stroke:#FD9D00;stroke-miterlimit:10;}
	.st24{fill:#A69EF8;stroke:#000000;stroke-miterlimit:10;}
	.st25{fill:#8176F5;}
	.st26{fill:#7C0014;stroke:#A69EF8;stroke-miterlimit:10;}
	.st27{fill:#5C377E;stroke:#000000;stroke-miterlimit:10;}
	.st28{fill:#5C377E;}
	.st29{fill:#242424;stroke:#5C377E;stroke-miterlimit:10;}
	.st30{fill:#CAC5C0;}
	.st31{fill:#5C377E;stroke:#FFFFFF;stroke-miterlimit:10;}
	.st32{fill:#A4FEB7;stroke:#000000;stroke-miterlimit:10;}
	.st33{fill:#75D792;}
	.st34{fill:#E20227;stroke:#A4FEB7;stroke-miterlimit:10;}
	.st35{fill:#272F74;stroke:#000000;stroke-miterlimit:10;}
	.st36{fill:#272F74;}
	.st37{fill:#E20227;stroke:#000000;stroke-miterlimit:10;}
	.st38{fill:#EDF3F8;stroke:#000000;stroke-miterlimit:10;}
	.st39{fill:#E20227;}
	.st40{fill:#01615B;}
	.st41{fill:#B6CEE3;stroke:#000000;stroke-miterlimit:10;}
	.st42{fill:#E20227;stroke:#EDF3F8;stroke-miterlimit:10;}
	.st43{fill:#C7CCC4;}
	.st44{fill:#EDF3F8;stroke:#E20227;stroke-miterlimit:10;}
	.st45{fill:#B64D00;}
	.st46{fill:#BBE79B;stroke:#000000;stroke-miterlimit:10;}
	.st47{fill:#AA2EC8;stroke:#000000;stroke-miterlimit:10;}
	.st48{fill:#9700BB;}
	.st49{fill:#CBD0DE;stroke:#AA2EC8;stroke-miterlimit:10;}
	.st50{fill:#ECEEF3;stroke:#AA2EC8;stroke-miterlimit:10;}
	.st51{fill:none;stroke:#7C0014;stroke-width:8;stroke-miterlimit:10;}
	.st52{fill:none;stroke:#000000;stroke-width:8;stroke-miterlimit:10;}
	.st53{fill:#FFEB00;}
	.st54{fill:#625616;stroke:#000000;stroke-miterlimit:10;}
	.st55{fill:#1853A6;stroke:#1853A6;stroke-width:0.25;stroke-miterlimit:10;}
	.st56{fill:none;}
	.st57{fill:none;stroke:#1853A6;stroke-width:0.225;stroke-miterlimit:10;}
	.st58{fill:#1853A6;stroke:#1853A6;stroke-width:0.225;stroke-miterlimit:10;}
	.st59{fill:#625616;}
	.st60{stroke:#625616;stroke-miterlimit:10;}
	.st61{adobe-knockout:true;}
	.st62{fill:none;stroke:#FFFFFF;stroke-miterlimit:10;adobe-knockout:false;}
	.st63{fill:none;stroke:#5C377E;stroke-miterlimit:10;}
	.st64{fill:#97C266;}
	.st65{fill:#523900;stroke:#000000;stroke-miterlimit:10;}
	.st66{fill:#FF4A49;}
	.st67{fill:#3C6643;}
	.st68{fill:none;stroke:#FF4A49;stroke-width:0.2334;stroke-miterlimit:10;}
	.st69{fill:none;stroke:#01615B;stroke-width:8;stroke-linecap:round;stroke-miterlimit:10;}
	.st70{fill:#F1CF4D;stroke:#000000;stroke-miterlimit:10;}
	.st71{fill:#F7A161;}
	.st72{fill:#1C232F;}
	.st73{fill:#EDAA14;}
	.st74{fill:#096CB6;stroke:#F1CF4D;stroke-miterlimit:10;}
	.st75{fill:#0060CE;stroke:#000000;stroke-miterlimit:10;}
	.st76{fill:#E20227;stroke:#0060CE;stroke-miterlimit:10;}
	.st77{fill:#345F69;stroke:#000000;stroke-miterlimit:10;}
	.st78{fill:#114450;}
	.st79{fill:#C6FDEC;stroke:#000000;stroke-miterlimit:10;}
	.st80{fill:none;stroke:#E20227;stroke-width:8;stroke-linecap:round;stroke-miterlimit:10;}
	.st81{fill:none;stroke:#FFFFFF;stroke-width:8;stroke-linecap:round;stroke-miterlimit:10;}
	.st82{font-family:'ArialMT';}
	.st83{font-size:11;}
	.st84{fill:#C673DA;}
	.st85{fill:#DC032B;}
	.st86{fill:#0165B2;}
	.st87{fill:#BBE79B;}
	.st88{fill:none;stroke:#FE5561;stroke-width:3;stroke-miterlimit:10;}
	.st89{fill:none;stroke:#9D9497;stroke-width:3;stroke-miterlimit:10;}
	.st90{fill:none;stroke:#C9C4C6;stroke-width:3;stroke-miterlimit:10;}
	.st91{fill:none;stroke:#E3E3E3;stroke-width:3;stroke-miterlimit:10;}
	.st92{fill:#0049B0;}
	.st93{fill:#9EE2D1;}
	.st94{fill:#096CB6;}
	.st95{fill:none;stroke:#0060CE;stroke-width:3;stroke-linecap:round;stroke-miterlimit:10;}
	.st96{fill:none;stroke:#F1CF4D;stroke-width:3;stroke-linecap:round;stroke-linejoin:round;stroke-miterlimit:10;}
	.st97{fill:none;stroke:#AA2EC8;stroke-miterlimit:10;}
	.st98{fill:url(#SVGID_1_);stroke:#C6FDEC;stroke-miterlimit:10;}
	.st99{fill:#096CB6;stroke:#C6FDEC;stroke-miterlimit:10;}
	.st100{stroke:#A0A0A0;stroke-miterlimit:10;}
	.st101{fill:#4B5459;}
	.st102{fill:#4E2664;stroke:#000000;stroke-miterlimit:10;}
	.st103{fill:#FFCF2B;stroke:#000000;stroke-miterlimit:10;}
	.st104{fill:#1C5DA4;}
	.st105{fill:#156A50;stroke:#000000;stroke-miterlimit:10;}
	.st106{fill:none;stroke:#FF7F35;stroke-width:11;stroke-miterlimit:10;}
	.st107{fill:#0F5A4B;}
	.st108{fill:#DAD2D8;stroke:#000000;stroke-miterlimit:10;}
	.st109{fill:#FF7F35;}
	.st110{fill:#ED1B23;}
	.st111{fill:#268FE1;stroke:#000000;stroke-miterlimit:10;}
	.st112{fill:#747785;stroke:#000000;stroke-miterlimit:10;}
	.st113{fill:#747785;}
	.st114{fill:#505C66;stroke:#747785;stroke-miterlimit:10;}
	.st115{fill:#0453BC;stroke:#000000;stroke-miterlimit:10;}
	.st116{fill:#0453BC;}
	.st117{fill:#073F98;stroke:#0453BC;stroke-miterlimit:10;}
	.st118{fill:#007BD8;}
	.st119{fill:#F9E42A;stroke:#000000;stroke-miterlimit:10;}
	.st120{fill:#1F2427;}
	.st121{fill:#F8C600;}
	.st122{fill:none;stroke:#000000;stroke-miterlimit:10;}
	.st123{fill:#4EC23A;}
	.st124{fill:#4EFE3A;stroke:#000000;stroke-miterlimit:10;}
	.st125{fill:#4EFE3A;}
	.st126{fill:#A8A8B4;}
	.st127{fill:#4EBD3A;}
	.st128{fill:url(#SVGID_2_);stroke:#000000;stroke-miterlimit:10;}
	.st129{fill:#E87140;stroke:#000000;stroke-miterlimit:10;}
	.st130{fill:#A02B00;stroke:#E87140;stroke-miterlimit:10;}
	.st131{fill:#00ABE9;stroke:#000000;stroke-miterlimit:10;}
	.st132{fill:#2C6AAD;}
	.st133{fill:#007BE9;}
	.st134{fill:#2C6AAD;stroke:#D0CDC1;stroke-miterlimit:10;}
	.st135{fill:#024D9E;}
	.st136{fill:#6B97C6;}
	.st137{fill:#000078;}
	.st138{fill:#073F98;}
	.st139{fill:#505C66;}
	.st140{fill:#ED936E;}
	.st141{fill:#0097D3;}
	.st142{fill:#1C232F;stroke:#F7A161;stroke-miterlimit:10;}
	.st143{fill:url(#SVGID_3_);stroke:#000000;stroke-miterlimit:10;}
	.st144{fill:#93CC00;}
	.st145{fill:none;stroke:#6DB52D;stroke-width:2;stroke-miterlimit:10;adobe-knockout:false;}
	.st146{fill:#1C232F;stroke:#93CC00;stroke-miterlimit:10;}
	.st147{fill:#1C232F;stroke:#1C232F;stroke-miterlimit:10;}
	.st148{stroke:#000000;stroke-miterlimit:10;}
	.st149{fill:#FF0000;stroke:#000000;stroke-miterlimit:10;}
	.st150{fill:#0F4B39;}
	.st151{fill:url(#SVGID_4_);}
	.st152{fill:#E48D78;stroke:#000000;stroke-miterlimit:10;}
	.st153{fill:#FF7F35;stroke:#156A50;stroke-miterlimit:10;}
	.st154{fill:url(#SVGID_5_);}
	.st155{fill:url(#SVGID_6_);}
	.st156{fill:none;stroke:#000000;stroke-miterlimit:10;adobe-knockout:false;}
	.st157{fill:#0361A4;}
	.st158{fill:#1C5DA4;stroke:#FFCF2B;stroke-miterlimit:10;}
	.st159{fill:#593486;}
	.st160{fill:#FFC918;}
	.st161{fill:#ED1C24;}
	.st162{fill:#268FE1;}
	.st163{fill:#0361A4;stroke:#268FE1;stroke-miterlimit:10;}
	.st164{adobe-knockout:false;}
	.st165{fill:none;stroke:#0453BC;stroke-miterlimit:10;}
	.st166{fill:none;stroke:#0453BC;stroke-width:3;stroke-linecap:round;stroke-miterlimit:10;adobe-knockout:false;}
	.st167{fill:none;stroke:#F9E42A;stroke-miterlimit:10;}
	.st168{fill:#1F2427;stroke:#F9E42A;stroke-miterlimit:10;}
	.st169{fill:none;stroke:#4EFE3A;stroke-width:11;stroke-miterlimit:10;}
	.st170{fill:#00254E;}
	.st171{fill:#05297D;}
	.st172{fill:#7D1E05;stroke:#000000;stroke-miterlimit:10;}
	.st173{fill:#D36B52;}
	.st174{fill:none;stroke:#AE61FF;stroke-width:11;stroke-miterlimit:10;}
	.st175{fill:#561A00;}
	.st176{fill:#6A1E05;}
	.st177{fill:#AE61FF;stroke:#7D1E05;stroke-miterlimit:10;}
	.st178{fill:#FDEA00;}
	.st179{fill:none;stroke:#A02B00;stroke-width:3;stroke-miterlimit:10;}
	.st180{fill:none;stroke:#EAA595;stroke-width:3;stroke-miterlimit:10;}
	.st181{fill:none;stroke:#F1F1F1;stroke-width:3;stroke-miterlimit:10;}
	.st182{fill:none;stroke:#FF7F35;stroke-width:6;stroke-miterlimit:10;}
	.st183{fill:#FF7F35;stroke:#DAD2D8;stroke-miterlimit:10;}
	.st184{fill:none;stroke:#FF0000;stroke-width:2;stroke-miterlimit:10;adobe-knockout:false;}
	.st185{fill:#F1E3C9;}
	.st186{fill:#F28330;}
	.st187{fill:#ED1B28;}
	.st188{fill:none;stroke:#FFFFFF;stroke-width:2;stroke-miterlimit:10;adobe-knockout:false;}
</style>
<path class="st35" d="M594.5,576.2c0-93.6-20.8-396.5-56.5-478.7c-11.6-26.7-84.7-58.1-155.5-80.1c-24.8-7.7-54.1-9.9-81.7-9.4
	c-27.8-0.6-61.4,1.3-86.4,9.1C143.6,39.2,74.6,70.8,63,97.5C27.2,179.7,6.5,482.7,6.5,576.2c8.8,6.4,17.7,7.6,67.5,9.8
	c10-134,52-285,52-285s-3.6,248-3.6,270c0.2,18.6,88.2,23.8,174.2,24v0c1,0,2.5,0,3.5,0c1,0,2.5,0,3.5,0v0
	c86-0.2,174.5-5.4,174.7-24c0-22-3.2-270-3.2-270s42,151,52,285C576.7,583.8,585.7,582.7,594.5,576.2z"/>
<g>
	<g>
		<path class="st36" d="M227.5,28.7C240.3,46,262,62.5,298.1,62.5c36.2,0,56.3-16.8,67.4-34.5C335.2,31.1,259.9,30.8,227.5,28.7z"/>
		<path class="st37" d="M368.1,1c-17.6,5.3-142.2,2.9-148.6,0.6c-0.1,0.3-0.3,0.7-0.5,1.1c2.2,7.1,6.3,17.5,13.7,27.5
			c29.5,1.9,97.9,2.2,125.6-0.6c6.2-9.9,9.4-20.2,10.9-27.3C368.8,1.8,368.4,1.4,368.1,1z"/>
	</g>
	<path class="st37" d="M369.2,2.3c-4.1,18.7-19,58.7-72.2,58.7c-53.9,0-72.4-40.1-78-58.3c-2.9,5.3-13.9,16.7-13.9,16.7
		s14.4,61,89.9,61c76.5,0,86.6-58.7,87.7-63.1C380.6,16.4,373.4,6.9,369.2,2.3z"/>
</g>
<g>
	<path class="st5" d="M359.9,191.9c-6.6,0-12.2-1.1-16.7-3.2c-3.5-1.7-6.4-4.1-8.5-7c-3.5-5.1-3.6-10.3-3.6-10.3V134H389v37.3
		c0,0-0.1,5.2-3.6,10.3c-2.1,3-5,5.3-8.5,7C372.3,190.8,366.6,191.9,359.9,191.9z"/>
	<path class="st66" d="M330.1,133.1v38.2c0,0,0.1,21.5,29.8,21.5c30,0,30-21.5,30-21.5v-38.2H330.1z M359.9,190.9
		c-6.4,0-11.9-1.1-16.3-3.1c-1.9-0.9-3.6-2.1-5.1-3.4l21.8-21.7l-27.8-27.8H388v0.1l-27.8,27.7l21.5,21.5c-1.6,1.4-3.4,2.6-5.4,3.6
		C371.9,189.9,366.4,190.9,359.9,190.9z"/>
	<g>
		<path d="M346.5,139.5h6v1.2h-3.6v1h3.4v1.2h-3.4v2.1h-2.4V139.5z"/>
		<path d="M361.2,144.8c-0.4,0.1-1.3,0.3-2.5,0.3c-3.5,0-5-1.3-5-2.8c0-1.9,2.3-2.9,5.1-2.9c1.1,0,2,0.1,2.5,0.3l-0.5,1.2
			c-0.4-0.1-1.1-0.2-1.9-0.2c-1.4,0-2.7,0.5-2.7,1.6c0,0.9,1,1.6,2.8,1.6c0.7,0,1.4-0.1,1.8-0.2L361.2,144.8z"/>
		<path d="M350.2,182.7L350.2,182.7l-1.4,0.5l-0.3-1.2l2-0.7h1.5v5.7h-1.8C350.2,186.9,350.2,182.7,350.2,182.7z"/>
		<path d="M354.8,185.8c0.2,0,0.3,0,0.7,0c0.5,0,1.1-0.1,1.4-0.3c0.5-0.2,0.8-0.5,0.9-0.8l0,0c-0.3,0.2-0.7,0.3-1.3,0.3
			c-1.2,0-2.3-0.6-2.3-1.8c0-1.2,1.2-2.1,2.8-2.1c2.1,0,2.8,1.3,2.8,2.5c0,1.1-0.4,2-1.2,2.6c-0.8,0.6-1.8,0.9-3.2,0.9
			c-0.2,0-0.5,0-0.7,0C354.8,187,354.8,185.8,354.8,185.8z M356.8,182.3c-0.4,0-0.8,0.3-0.8,0.8c0,0.4,0.3,0.7,0.9,0.7
			c0.4,0,0.6-0.1,0.8-0.3c0-0.1,0.1-0.1,0.1-0.2C357.7,182.9,357.6,182.3,356.8,182.3L356.8,182.3z"/>
		<path d="M363.2,187.1c-2,0-2.8-1.4-2.8-3s0.8-3,2.8-3s2.8,1.4,2.8,3C366,185.7,365.2,187.1,363.2,187.1L363.2,187.1z M363.2,185.9
			c0.5,0,0.9-0.6,0.9-1.8s-0.4-1.8-0.9-1.8c-0.5,0-0.9,0.5-0.9,1.8C362.3,185.3,362.7,185.9,363.2,185.9L363.2,185.9z"/>
		<path d="M372.1,181.2v1l-2.8,4.7h-2.1l2.9-4.4l0,0h-3.2v-1.3H372.1z"/>
	</g>
	<g>
		<g>
			<g>
				<g>
					<path class="st5" d="M357.3,166.4L357.3,166.4c-1-0.1-1.8-0.9-1.8-1.9c0-0.5,0.2-1,0.5-1.4c0.4-0.4,0.8-0.6,1.4-0.6
						c1.1,0,1.9,0.8,1.9,1.8c0,0.5-0.2,1-0.5,1.4C358.4,166.2,357.9,166.4,357.3,166.4L357.3,166.4
						C357.3,166.4,357.3,166.4,357.3,166.4L357.3,166.4z"/>
				</g>
				<g>
					<path class="st5" d="M357.3,166.4l-0.7-0.8c0,0-0.1-0.1-0.1-0.1c-0.2-0.2-0.4-0.5-0.5-0.9c-0.1-0.5,0.2-0.9,0.4-1.1
						c0,0,0-0.1,0.1-0.1l0.3-0.4l1.3,0l0.3,0.4c0,0,0.1,0.1,0.1,0.1c0.2,0.2,0.5,0.6,0.4,1.1c-0.1,0.5-0.4,0.8-0.7,1
						c0,0-0.1,0.1-0.1,0.1L357.3,166.4z"/>
				</g>
			</g>
			<path class="st5" d="M372.6,167l-2.8-6.3l-0.6,0.5c-0.5-0.9-1-1.8-1.9-2.4c-0.6-0.4-1.2-0.8-1.8-1.1l0.2-0.4
				c-0.3-0.2-0.6-0.4-0.9-0.6c0.2-0.3,0.4-0.6,0.5-1l0.3-0.9l-1-0.3c-0.1,0-0.2,0-0.3-0.1c0.8-1.7,2-3,3.5-3.9l1.3-0.7l-1.2-0.9
				c-0.6-0.4-1.2-0.7-1.8-0.7l0-0.1l-1.2-0.3c-0.1,0-0.2,0-0.3,0c-0.1,0-0.3-0.1-0.4-0.1c-0.4-0.2-0.7-0.2-1-0.2c-0.1,0-0.2,0-0.3,0
				l0-0.1l-2.8-0.2l0-0.2l-1,0.1h0l-2.8,0.3v0c0,0-0.1,0-0.1,0c-0.3,0-0.7,0.1-1.1,0.2l-1.2,0.6c0,0,0,0,0,0c-0.2,0-0.4-0.1-0.6-0.1
				c-0.7,0-1.3,0.4-1.8,0.8l-1.1,0.9l1.3,0.7c1.5,0.8,2.7,2.1,3.5,3.9c-0.1,0-0.2,0-0.3,0.1l-1.1,0.3l0.6,1c0.1,0.2,0.2,0.4,0.4,0.6
				c-1.9,1.1-3.3,2.9-3.9,5.1l0.4,0.2c-0.9,1.8-1.1,3.7-0.5,5.4c0.2,0.7,0.4,1.2,0.6,1.6c0.3,0.7,0.5,1.4,0.8,2c0,0,0,0.1,0.1,0.2
				l-0.2,0.2c-0.2,0.1-0.4,0.2-0.6,0.4c-0.6,0.4-1.3,0.7-1.9,1.1c-0.3,0.2-0.5,0.5-0.6,0.7c0,0,0,0,0,0.1l-0.6,1l0.1,0l0,0l0.5,1.6
				h0.7c0.1,0,0.1,0,0.2,0c0.1,0,0.2,0,0.3,0c0.1,0,0.2,0,0.4,0c0.6,0,1.1-0.1,1.7-0.1c1.1-0.1,2.1-0.2,3.2-0.3
				c1.1-0.1,1.5-0.7,1.7-1.3v0c0.6-0.3,1.1-0.7,1.4-1.5c1.5,2.3,4.4,5.2,6.7,6.7c0.5,0.3,1,0.5,1.5,0.5c0.6,0,1.1-0.2,1.6-0.6
				c0.1,0,0.1,0,0.2,0.1c0.1,0,0.2,0.1,0.4,0.2l1.3,0.6l0.1-1.4c0-0.5,0-1,0.1-1.5c0,0,0-0.1,0-0.1l0-0.4c0-1,0.1-2,0.1-3
				c0-0.6,0.1-1.1,0.4-1.6c0.5-0.9,0.9-1.8,1.4-2.7c0.1-0.3,0.3-0.6,0.4-0.9c0.1-0.1,0.1-0.3,0.2-0.4c0,0,0-0.1,0-0.1l0.4-1
				L372.6,167z"/>
		</g>
		<g>
			<g>
				<g>
					<g>
						<path class="st67" d="M353.4,172.1c0.7,0,1.3,0,1.9,0c0.5,0,1,0.1,1.5,0.2c-0.4-0.2-0.8-0.4-1.2-0.5c-0.9-0.3-1.7-0.6-2.5,0.1
							C353,172.1,353.4,172.1,353.4,172.1z M352.6,171.9c0.3-0.2,0.5-0.4,0.8-0.6c-0.4-0.9-0.7-1.9-1.1-2.8
							c-0.2-0.5-0.4-1.1-0.5-1.6c-1.1-3.7,1.6-7.3,4.2-8.4c3.8-1.7,7.4-1.3,10.8,1.1c0.9,0.7,1.4,1.7,2,2.8c-0.8,0.5-1.6,1-2.4,1.5
							c-1.3,0.9-2.6,0.9-4,0.2c-1.4-0.6-2.8-1-4.2-1.5c-1-0.4-2.1,0.1-2.7,1.1c-0.5,1-0.2,2.1,0.7,2.8c0.5,0.3,1,0.6,1.4,0.9
							c0.5,0.3,1,0.6,1.5,1c-0.6,1.4-1.2,2.7-1.7,4.1c-0.3,0.9-0.8,1.2-1.7,1.3c-1.8,0.1-3.7,0.3-5.5,0.5c-0.2,0-0.4-0.1-0.6-0.2
							c0.1-0.2,0.2-0.4,0.3-0.5C350.8,172.9,351.7,172.4,352.6,171.9L352.6,171.9z M364.3,158.6c-3-1.6-9-0.6-10.1,1.6
							C357.3,158.1,360.7,157.6,364.3,158.6z"/>
					</g>
					<g>
						<path class="st67" d="M371.1,165.9c-1.9-0.2-3.7-0.4-5.6-0.5c0.1,0.6,0.1,1.1,0.2,1.6c0,0.1,0.3,0.3,0.5,0.3
							c1.8,0.2,3.5,0.3,5.3,0.5c0.1,0,0.1,0,0.3,0.1c-0.1,0.2-0.1,0.3-0.2,0.5c-0.6,1.2-1.2,2.4-1.8,3.6c-0.3,0.6-0.5,1.3-0.5,2
							c0,1.6-0.1,3.2-0.2,4.9c-0.4-0.2-0.7-0.3-1.1-0.5c-2.6-1.4-4.7-3.5-6.7-5.7c-0.5-0.6-1-1.2-1.6-1.8c-0.2-0.3-0.3-0.5-0.1-0.8
							c0.2-0.3,0.3-0.6,0.4-0.9c0.3-0.5,0.2-0.8-0.3-1.1c-1.1-0.7-2.1-1.3-3.1-2c-0.8-0.5-1.1-1.5-0.7-2.3c0.4-0.8,1.3-1.1,2.2-0.7
							c2,0.7,3.9,1.4,6,2.1c0.2,0.1,0.6,0,0.8,0c1.7-0.6,3.2-1.5,4.5-2.8C370,163.4,370.5,164.6,371.1,165.9z M357.4,165.5
							c0.5,0,1-0.5,1-1c0-0.5-0.4-0.9-1-0.9c-0.5,0-1,0.4-1,1C356.4,165.1,356.9,165.5,357.4,165.5z M360.5,171.4
							c-1-0.8-0.3-1.5,0.1-2.3c0-0.1,0.1-0.2,0.1-0.3c0-0.3,0-0.7-0.2-0.9c-0.4-0.4-1-0.6-1.5-0.9c0.1,0.2,0.3,0.3,0.4,0.4
							c1.5,1,1.3,0.7,0.7,2.2C359.7,170.7,359.6,170.7,360.5,171.4z M364.9,169.2c-0.2,0.4-0.4,0.6-0.5,0.8c0,0.1,0.2,0.2,0.3,0.4
							c0.2-0.2,0.4-0.4,0.5-0.6C365.3,169.7,365.1,169.5,364.9,169.2z M366.6,170.2c-0.2-0.2-0.4-0.4-0.4-0.4
							c-0.2,0.2-0.4,0.4-0.5,0.6c0,0,0.2,0.2,0.3,0.4C366.2,170.6,366.4,170.5,366.6,170.2z M367.4,170.1c-0.2,0.4-0.4,0.6-0.4,0.9
							c0,0.1,0.2,0.2,0.3,0.4c0.2-0.2,0.4-0.4,0.5-0.7C367.8,170.5,367.6,170.4,367.4,170.1z M368.4,171.8c0.1,0,0.1,0,0.2,0
							c0.1-0.2,0.3-0.4,0.4-0.7c0-0.1-0.2-0.2-0.2-0.4c-0.2,0.2-0.4,0.3-0.5,0.5C368.2,171.4,368.3,171.6,368.4,171.8z M366,172.3
							c-0.2-0.2-0.4-0.4-0.5-0.5c-0.1,0.2-0.3,0.3-0.3,0.5c0,0.2,0.2,0.4,0.3,0.6C365.7,172.6,365.8,172.5,366,172.3z M368.5,173.2
							c-0.2-0.2-0.3-0.4-0.5-0.5c-0.1,0.2-0.3,0.4-0.3,0.5c0,0.2,0.2,0.4,0.3,0.5C368.2,173.6,368.3,173.4,368.5,173.2z
							 M367.2,172.8c-0.2-0.2-0.3-0.4-0.4-0.6c-0.1,0.2-0.4,0.3-0.4,0.5c0,0.2,0.2,0.4,0.4,0.6C367,173.1,367.1,173,367.2,172.8z
							 M367.7,168.5c-0.4-0.2-0.7,0-0.9,0.3c0,0.1,0,0.3,0.1,0.3C367.3,169.2,367.5,168.9,367.7,168.5z M368.9,169
							c-0.4-0.2-0.7-0.1-0.9,0.2c0,0.1,0,0.2,0,0.4c0.3-0.1,0.6-0.3,0.8-0.4C368.9,169.1,368.9,169.1,368.9,169z M368.1,174.6
							c-0.1,0-0.1,0-0.2,0.1c-0.2,0.5-0.1,0.8,0.7,1.1C368.4,175.3,368.3,175,368.1,174.6z M370.1,169.4c-0.4-0.1-0.7,0-0.9,0.3
							c0,0.1,0.1,0.2,0.1,0.3c0.3-0.2,0.5-0.3,0.8-0.5C370.2,169.5,370.2,169.5,370.1,169.4z M366.9,174.2c-0.4,0.5-0.3,0.9,0.5,1.1
							C367.2,174.8,367,174.5,366.9,174.2z"/>
					</g>
					<g>
						<path d="M359.1,172.2c0.2-0.2,0.4-0.4,0.7-0.6c2.3,2.7,4.8,5.2,7.9,7c-0.7,0.5-1.4,0.6-2.1,0.1
							C363.4,177.3,360.5,174.4,359.1,172.2z"/>
					</g>
					<g>
						<path class="st67" d="M365.2,158c-6.4-2-9.8-1-13.2,3.8C353.5,156.4,360.1,154.3,365.2,158z"/>
					</g>
					<g>
						<path d="M371.6,167.3c-1.8-0.1-3.5-0.3-5.2-0.4c-0.7-0.1-0.3-0.6-0.6-1c1.2,0.1,2.2,0.2,3.2,0.3c0.4,0,0.9,0.1,1.3,0.1
							C371.1,166.2,371.5,166.5,371.6,167.3z M366.2,166.3c0,0,0.1,0.1,0.1,0.1c1.1,0,2.1,0,3.2,0c-0.9-0.1-1.9-0.2-2.8-0.3
							C366.5,166.1,366.4,166.2,366.2,166.3z"/>
					</g>
					<g>
						<path d="M349.5,174.9c0.2-0.1,0.5-0.4,0.7-0.4c1.9-0.2,3.8-0.4,5.7-0.5c0,0,0.1,0,0.1,0c-0.1,0.4-0.4,0.6-0.9,0.7
							c-1.6,0.1-3.3,0.3-4.9,0.4c-0.3,0-0.5,0-0.8,0C349.5,175,349.5,174.9,349.5,174.9z"/>
					</g>
					<g>
						<path class="st5" d="M364.3,158.6c-3.6-1-7-0.5-10.1,1.6C355.3,158,361.4,157,364.3,158.6z"/>
					</g>
					<g>
						<path class="st5" d="M357.4,165.5c-0.5,0-1-0.4-1-0.9c0-0.6,0.4-1,1-1s1,0.4,1,0.9C358.4,165,357.9,165.5,357.4,165.5z
							 M357.5,163.9c-0.1,0-0.2,0-0.3,0c-0.1,0.2-0.4,0.4-0.3,0.6c0,0.2,0.3,0.4,0.4,0.6c0.2-0.2,0.5-0.4,0.5-0.5
							C357.9,164.3,357.6,164.1,357.5,163.9z"/>
					</g>
					<g>
						<path d="M357.5,163.9c0.1,0.2,0.4,0.4,0.4,0.6c0,0.2-0.3,0.4-0.5,0.5c-0.2-0.2-0.4-0.4-0.4-0.6c0-0.2,0.2-0.4,0.3-0.6
							C357.3,163.9,357.4,163.9,357.5,163.9z"/>
					</g>
				</g>
				<g>
					<path class="st66" d="M356.9,152c-0.6-1.1-1.3-2.1-1.9-3.2c0,0.1,0,0,0,0c2-0.5,1.8-0.8,2.8,1.3c0.3,0.6,0.4,1.2,0.5,1.8
						c0.1,0,0.1,0,0.2,0c-0.2-1.2-0.5-2.3-0.7-3.6c0.5,0,1.1-0.1,1.8-0.2c0.1,1.4,0.2,2.7,0.3,4c0,0,0.1,0,0.1,0
						c0.1-1.3,0.2-2.5,0.3-3.9c0.6,0,1.2,0.1,1.8,0.1c-0.3,1.2-0.5,2.4-0.7,3.6c0.1,0,0.1,0,0.2,0c0.3-0.8,0.6-1.6,0.9-2.5
						c0.3-0.8,0.8-1.3,1.8-0.9c0.3,0.1,0.6,0.1,0.8,0.2c-0.7,1.1-1.3,2.2-2,3.3c0,0,0.1,0,0.1,0.1c0.7-0.8,1.3-1.6,2-2.3
						c0.7-0.8,1.5-0.9,2.5-0.1c-2,1.1-3.2,2.6-4.1,4.5c-2.4,0-4.6,0-7,0c-0.8-1.8-2.1-3.4-4-4.5c0.9-0.7,1.4-0.8,2.1-0.1
						c0.8,0.7,1.5,1.6,2.2,2.4C356.8,152.1,356.9,152.1,356.9,152z"/>
				</g>
			</g>
			<g>
				<path class="st67" d="M364.4,155.4c-0.3,1-0.8,1.1-1.7,0.8c-1.6-0.5-3.3-0.6-5.3-0.2c-1.2,0.1-1.3,0.6-1.9-0.6
					C358.4,154.5,361.4,154.5,364.4,155.4z"/>
			</g>
		</g>
	</g>
	<rect x="346.5" y="136.8" class="st66" width="6.8" height="1.4"/>
	<rect x="353.2" y="136.8" class="st67" width="6.5" height="1.4"/>
	<rect x="346.6" y="136.9" class="st68" width="19.6" height="1.4"/>
	<g>
		<path d="M365.4,142.6l-1.1,2.4h-2.4l4.2-8.2h2.9l4.3,8.2h-2.5l-1.2-2.4H365.4z M369.2,141.5l-1.1-2.1c-0.3-0.5-0.5-1-0.7-1.4h0
			c-0.2,0.4-0.4,0.9-0.6,1.4l-1.1,2.1H369.2z"/>
	</g>
</g>
<path class="st81" d="M165.7,39.2c0,0,223.8,140.8,305.8,398.8"/>
<path class="st80" d="M82.8,80.2c0,0,236.7,149.8,318.7,407.8c0,0,8.1,60.3,70.2,81.1"/>
<path class="st81" d="M432.8,41.2C432.8,41.2,209,182,127,440"/>
<path class="st80" d="M515.7,82.2C515.7,82.2,279,232,197,490c0,0-8.1,60.3-70.2,81.1"/>
<text transform="matrix(1 0 0 1 62.9999 581.0644)" class="st82 st83"> </text>
</svg>
