<?xml version="1.0" encoding="utf-8"?>
<!-- Generator: Adobe Illustrator 17.0.0, SVG Export Plug-In . SVG Version: 6.00 Build 0)  -->
<!DOCTYPE svg PUBLIC "-//W3C//DTD SVG 1.1//EN" "http://www.w3.org/Graphics/SVG/1.1/DTD/svg11.dtd" [
	<!ENTITY ns_flows "http://ns.adobe.com/Flows/1.0/">
	<!ENTITY ns_extend "http://ns.adobe.com/Extensibility/1.0/">
	<!ENTITY ns_ai "http://ns.adobe.com/AdobeIllustrator/10.0/">
	<!ENTITY ns_graphs "http://ns.adobe.com/Graphs/1.0/">
]>
<svg version="1.1" id="Layer_1" xmlns:x="&ns_extend;" xmlns:i="&ns_ai;" xmlns:graph="&ns_graphs;"
	 xmlns="http://www.w3.org/2000/svg" xmlns:xlink="http://www.w3.org/1999/xlink" xmlns:a="http://ns.adobe.com/AdobeSVGViewerExtensions/3.0/"
	 x="0px" y="0px" width="600px" height="600px" viewBox="0 0 600 600" style="enable-background:new 0 0 600 600;"
	 xml:space="preserve">
<style type="text/css">
	.st0{fill:#05297D;stroke:#000000;stroke-miterlimit:10;}
	.st1{fill:#527DD3;}
	.st2{fill:#E3E3E7;}
	.st3{fill:#302E29;}
	.st4{fill:#FFFFFF;stroke:#000000;stroke-miterlimit:10;}
	.st5{fill:#FFFFFF;}
	.st6{fill:#7C0014;}
	.st7{fill:#B1C49B;stroke:#000000;stroke-miterlimit:10;}
	.st8{fill:#8AA668;}
	.st9{fill:#7C7D14;stroke:#B1C49B;stroke-miterlimit:10;}
	.st10{fill:#4E3B64;stroke:#000000;stroke-miterlimit:10;}
	.st11{fill:#382351;}
	.st12{fill:#4E3B64;}
	.st13{stroke:#4E3B64;stroke-miterlimit:10;}
	.st14{fill:#EB5D12;stroke:#000000;stroke-miterlimit:10;}
	.st15{fill:#B85D12;}
	.st16{fill:#7C0014;stroke:#EB5D12;stroke-miterlimit:10;}
	.st17{fill:#631197;stroke:#000000;stroke-miterlimit:10;}
	.st18{fill:#58006C;}
	.st19{fill:#FE5561;}
	.st20{fill:#C2BEC8;}
	.st21{fill:#FD9D00;stroke:#000000;stroke-miterlimit:10;}
	.st22{fill:#DC8700;}
	.st23{fill:#7C0014;stroke:#FD9D00;stroke-miterlimit:10;}
	.st24{fill:#A69EF8;stroke:#000000;stroke-miterlimit:10;}
	.st25{fill:#8176F5;}
	.st26{fill:#7C0014;stroke:#A69EF8;stroke-miterlimit:10;}
	.st27{fill:#5C377E;stroke:#000000;stroke-miterlimit:10;}
	.st28{fill:#5C377E;}
	.st29{fill:#242424;stroke:#5C377E;stroke-miterlimit:10;}
	.st30{fill:#CAC5C0;}
	.st31{fill:#5C377E;stroke:#FFFFFF;stroke-miterlimit:10;}
	.st32{fill:#A4FEB7;stroke:#000000;stroke-miterlimit:10;}
	.st33{fill:#75D792;}
	.st34{fill:#E20227;stroke:#A4FEB7;stroke-miterlimit:10;}
	.st35{fill:#272F74;stroke:#000000;stroke-miterlimit:10;}
	.st36{fill:#272F74;}
	.st37{fill:#E20227;stroke:#000000;stroke-miterlimit:10;}
	.st38{fill:#EDF3F8;stroke:#000000;stroke-miterlimit:10;}
	.st39{fill:#E20227;}
	.st40{fill:#01615B;}
	.st41{fill:#B6CEE3;stroke:#000000;stroke-miterlimit:10;}
	.st42{fill:#E20227;stroke:#EDF3F8;stroke-miterlimit:10;}
	.st43{fill:#C7CCC4;}
	.st44{fill:#EDF3F8;stroke:#E20227;stroke-miterlimit:10;}
	.st45{fill:#B64D00;}
	.st46{fill:#BBE79B;stroke:#000000;stroke-miterlimit:10;}
	.st47{fill:#AA2EC8;stroke:#000000;stroke-miterlimit:10;}
	.st48{fill:#9700BB;}
	.st49{fill:#CBD0DE;stroke:#AA2EC8;stroke-miterlimit:10;}
	.st50{fill:#ECEEF3;stroke:#AA2EC8;stroke-miterlimit:10;}
	.st51{fill:none;stroke:#7C0014;stroke-width:8;stroke-miterlimit:10;}
	.st52{fill:none;stroke:#000000;stroke-width:8;stroke-miterlimit:10;}
	.st53{fill:#FFEB00;}
	.st54{fill:#625616;stroke:#000000;stroke-miterlimit:10;}
	.st55{fill:#1853A6;stroke:#1853A6;stroke-width:0.25;stroke-miterlimit:10;}
	.st56{fill:none;}
	.st57{fill:none;stroke:#1853A6;stroke-width:0.225;stroke-miterlimit:10;}
	.st58{fill:#1853A6;stroke:#1853A6;stroke-width:0.225;stroke-miterlimit:10;}
	.st59{fill:#625616;}
	.st60{stroke:#625616;stroke-miterlimit:10;}
	.st61{adobe-knockout:true;}
	.st62{fill:none;stroke:#FFFFFF;stroke-miterlimit:10;adobe-knockout:false;}
	.st63{fill:none;stroke:#5C377E;stroke-miterlimit:10;}
	.st64{fill:#97C266;}
	.st65{fill:#523900;stroke:#000000;stroke-miterlimit:10;}
	.st66{fill:#FF4A49;}
	.st67{fill:#3C6643;}
	.st68{fill:none;stroke:#FF4A49;stroke-width:0.2334;stroke-miterlimit:10;}
	.st69{fill:none;stroke:#01615B;stroke-width:8;stroke-linecap:round;stroke-miterlimit:10;}
	.st70{fill:#F1CF4D;stroke:#000000;stroke-miterlimit:10;}
	.st71{fill:#F7A161;}
	.st72{fill:#1C232F;}
	.st73{fill:#EDAA14;}
	.st74{fill:#096CB6;stroke:#F1CF4D;stroke-miterlimit:10;}
	.st75{fill:#0060CE;stroke:#000000;stroke-miterlimit:10;}
	.st76{fill:#E20227;stroke:#0060CE;stroke-miterlimit:10;}
	.st77{fill:#345F69;stroke:#000000;stroke-miterlimit:10;}
	.st78{fill:#114450;}
	.st79{fill:#C6FDEC;stroke:#000000;stroke-miterlimit:10;}
	.st80{fill:none;stroke:#E20227;stroke-width:8;stroke-linecap:round;stroke-miterlimit:10;}
	.st81{fill:none;stroke:#FFFFFF;stroke-width:8;stroke-linecap:round;stroke-miterlimit:10;}
	.st82{fill:#C673DA;}
	.st83{fill:#DC032B;}
	.st84{fill:#0165B2;}
	.st85{fill:#BBE79B;}
	.st86{fill:none;stroke:#FE5561;stroke-width:3;stroke-miterlimit:10;}
	.st87{fill:none;stroke:#9D9497;stroke-width:3;stroke-miterlimit:10;}
	.st88{fill:none;stroke:#C9C4C6;stroke-width:3;stroke-miterlimit:10;}
	.st89{fill:none;stroke:#E3E3E3;stroke-width:3;stroke-miterlimit:10;}
	.st90{fill:#0049B0;}
	.st91{fill:#9EE2D1;}
	.st92{fill:#096CB6;}
	.st93{fill:none;stroke:#0060CE;stroke-width:3;stroke-linecap:round;stroke-miterlimit:10;}
	.st94{fill:none;stroke:#F1CF4D;stroke-width:3;stroke-linecap:round;stroke-linejoin:round;stroke-miterlimit:10;}
	.st95{fill:none;stroke:#AA2EC8;stroke-miterlimit:10;}
	.st96{fill:url(#SVGID_1_);stroke:#C6FDEC;stroke-miterlimit:10;}
	.st97{fill:#096CB6;stroke:#C6FDEC;stroke-miterlimit:10;}
	.st98{stroke:#A0A0A0;stroke-miterlimit:10;}
	.st99{fill:#4B5459;}
	.st100{fill:#4E2664;stroke:#000000;stroke-miterlimit:10;}
	.st101{fill:#FFCF2B;stroke:#000000;stroke-miterlimit:10;}
	.st102{fill:#1C5DA4;}
	.st103{fill:#156A50;stroke:#000000;stroke-miterlimit:10;}
	.st104{fill:none;stroke:#FF7F35;stroke-width:11;stroke-miterlimit:10;}
	.st105{fill:#0F5A4B;}
	.st106{fill:#DAD2D8;stroke:#000000;stroke-miterlimit:10;}
	.st107{fill:#FF7F35;}
	.st108{fill:#ED1B23;}
	.st109{fill:#268FE1;stroke:#000000;stroke-miterlimit:10;}
	.st110{fill:#747785;stroke:#000000;stroke-miterlimit:10;}
	.st111{fill:#747785;}
	.st112{fill:#505C66;stroke:#747785;stroke-miterlimit:10;}
	.st113{fill:#0453BC;stroke:#000000;stroke-miterlimit:10;}
	.st114{fill:#0453BC;}
	.st115{fill:#073F98;stroke:#0453BC;stroke-miterlimit:10;}
	.st116{fill:#007BD8;}
	.st117{fill:#F9E42A;stroke:#000000;stroke-miterlimit:10;}
	.st118{fill:#1F2427;}
	.st119{fill:#F8C600;}
	.st120{fill:none;stroke:#000000;stroke-miterlimit:10;}
	.st121{fill:#4EC23A;}
	.st122{fill:#4EFE3A;stroke:#000000;stroke-miterlimit:10;}
	.st123{fill:#4EFE3A;}
	.st124{fill:#A8A8B4;}
	.st125{fill:#4EBD3A;}
	.st126{fill:url(#SVGID_2_);stroke:#000000;stroke-miterlimit:10;}
	.st127{fill:#E87140;stroke:#000000;stroke-miterlimit:10;}
	.st128{fill:#A02B00;stroke:#E87140;stroke-miterlimit:10;}
	.st129{fill:#00ABE9;stroke:#000000;stroke-miterlimit:10;}
	.st130{fill:#2C6AAD;}
	.st131{fill:#007BE9;}
	.st132{fill:#2C6AAD;stroke:#D0CDC1;stroke-miterlimit:10;}
	.st133{fill:#024D9E;}
	.st134{fill:#6B97C6;}
	.st135{fill:#000078;}
	.st136{fill:#073F98;}
	.st137{fill:#505C66;}
	.st138{fill:#ED936E;}
	.st139{fill:#0097D3;}
	.st140{fill:#1C232F;stroke:#F7A161;stroke-miterlimit:10;}
	.st141{fill:url(#SVGID_3_);stroke:#000000;stroke-miterlimit:10;}
	.st142{fill:#93CC00;}
	.st143{fill:none;stroke:#6DB52D;stroke-width:2;stroke-miterlimit:10;adobe-knockout:false;}
	.st144{fill:#1C232F;stroke:#93CC00;stroke-miterlimit:10;}
	.st145{fill:#1C232F;stroke:#1C232F;stroke-miterlimit:10;}
	.st146{stroke:#000000;stroke-miterlimit:10;}
	.st147{fill:#FF0000;stroke:#000000;stroke-miterlimit:10;}
	.st148{fill:#0F4B39;}
	.st149{fill:url(#SVGID_4_);}
	.st150{fill:#E48D78;stroke:#000000;stroke-miterlimit:10;}
	.st151{fill:#FF7F35;stroke:#156A50;stroke-miterlimit:10;}
	.st152{fill:url(#SVGID_5_);}
	.st153{fill:url(#SVGID_6_);}
	.st154{fill:none;stroke:#000000;stroke-miterlimit:10;adobe-knockout:false;}
	.st155{fill:#0361A4;}
	.st156{fill:#1C5DA4;stroke:#FFCF2B;stroke-miterlimit:10;}
	.st157{fill:#593486;}
	.st158{fill:#FFC918;}
	.st159{fill:#ED1C24;}
	.st160{fill:#268FE1;}
	.st161{fill:#0361A4;stroke:#268FE1;stroke-miterlimit:10;}
	.st162{adobe-knockout:false;}
	.st163{fill:none;stroke:#0453BC;stroke-miterlimit:10;}
	.st164{fill:none;stroke:#0453BC;stroke-width:3;stroke-linecap:round;stroke-miterlimit:10;adobe-knockout:false;}
	.st165{fill:none;stroke:#F9E42A;stroke-miterlimit:10;}
	.st166{fill:#1F2427;stroke:#F9E42A;stroke-miterlimit:10;}
	.st167{fill:none;stroke:#4EFE3A;stroke-width:11;stroke-miterlimit:10;}
	.st168{fill:#00254E;}
	.st169{fill:#05297D;}
	.st170{fill:#7D1E05;stroke:#000000;stroke-miterlimit:10;}
	.st171{fill:#D36B52;}
	.st172{fill:none;stroke:#AE61FF;stroke-width:11;stroke-miterlimit:10;}
	.st173{fill:#561A00;}
	.st174{fill:#6A1E05;}
	.st175{fill:#AE61FF;stroke:#7D1E05;stroke-miterlimit:10;}
	.st176{fill:#FDEA00;}
	.st177{fill:none;stroke:#A02B00;stroke-width:3;stroke-miterlimit:10;}
	.st178{fill:none;stroke:#EAA595;stroke-width:3;stroke-miterlimit:10;}
	.st179{fill:none;stroke:#F1F1F1;stroke-width:3;stroke-miterlimit:10;}
	.st180{fill:none;stroke:#FF7F35;stroke-width:6;stroke-miterlimit:10;}
	.st181{fill:#FF7F35;stroke:#DAD2D8;stroke-miterlimit:10;}
	.st182{fill:none;stroke:#FF0000;stroke-width:2;stroke-miterlimit:10;adobe-knockout:false;}
	.st183{fill:#F1E3C9;}
	.st184{fill:#F28330;}
	.st185{fill:#ED1B28;}
	.st186{fill:none;stroke:#FFFFFF;stroke-width:2;stroke-miterlimit:10;adobe-knockout:false;}
</style>
<path class="st32" d="M594.5,576.2c0-93.6-20.8-396.5-56.5-478.7c-11.6-26.7-84.7-58.1-155.5-80.1c-24.8-7.7-54.1-9.9-81.7-9.4
	c-27.8-0.6-61.4,1.3-86.4,9.1C143.6,39.2,74.6,70.8,63,97.5C27.2,179.7,6.5,482.7,6.5,576.2c8.8,6.4,17.7,7.6,67.5,9.8
	c10-134,52-285,52-285s-3.6,248-3.6,270c0.2,18.6,88.2,23.8,174.2,24v0c1,0,2.5,0,3.5,0c1,0,2.5,0,3.5,0v0
	c86-0.2,174.5-5.4,174.7-24c0-22-3.2-270-3.2-270s42,151,52,285C576.7,583.8,585.7,582.7,594.5,576.2z"/>
<path class="st33" d="M70.4,88.6c0,0,77.1,9.2,55.7,220c-0.4,79.7-1.8,141.7-2.4,184.6c-0.7,46.5-0.8,70.5-0.8,71.6
	c0,3.2-0.6,7.5,0.8,9.2c0.7,1.1,1.7,2.3,3.4,3.5c4.7,3.4,15.3,6.5,27.3,8.8c-14.2-11.6-10.9-42.8-9.8-72.1c1.1-29.4-24-95.4-3-199.4
	c6.8-33.6-5.5-74.9-6-84C131.6,163.1,119.2,97.3,70.4,88.6z"/>
<path class="st33" d="M532.2,89c0,0-79.2,0.7-57.7,211.5c2.1,168.9,3.2,265.3,3.2,264.5c0-2.3,0,2.4,0,6.2c0,1.3-0.7,2.6-0.9,2.9
	c-0.7,1.1-2,2.2-3.6,3.4c-4.7,3.4-13.3,5.9-25.1,8.2c14.2-11.6,11.1-41.8,10-71.2c-1.1-29.4,24-95.4,3-199.4
	c-6.8-33.6,1.5-83.4,2-92.4C467,155.1,485.7,92,532.2,89z"/>
<g>
	<g>
		<path class="st33" d="M227.5,28.7C240.3,46,262,62.5,298.1,62.5c36.2,0,56.3-16.8,67.4-34.5C335.2,31.1,259.9,30.8,227.5,28.7z"/>
		<path class="st34" d="M368.1,1c-17.6,5.3-142.2,2.9-148.6,0.6c-0.1,0.3-0.3,0.7-0.5,1.1c2.2,7.1,6.3,17.5,13.7,27.5
			c29.5,1.9,97.9,2.2,125.6-0.6c6.2-9.9,9.4-20.2,10.9-27.3C368.8,1.8,368.4,1.4,368.1,1z"/>
	</g>
	<path class="st34" d="M369.2,2.3c-4.1,18.7-19,58.7-72.2,58.7c-53.9,0-72.4-40.1-78-58.3c-2.9,5.3-13.9,16.7-13.9,16.7
		s14.4,61,89.9,61c76.5,0,86.6-58.7,87.7-63.1C380.6,16.4,373.4,6.9,369.2,2.3z"/>
</g>
<g>
	<path class="st5" d="M359,191.2c-6.6,0-12.2-1.1-16.7-3.2c-3.5-1.7-6.4-4.1-8.5-7c-3.5-5.1-3.6-10.3-3.6-10.3v-37.3H388v37.3
		c0,0-0.1,5.2-3.6,10.3c-2.1,3-5,5.3-8.5,7C371.3,190.1,365.6,191.2,359,191.2z"/>
	<path class="st66" d="M329.2,132.4v38.2c0,0,0.1,21.5,29.8,21.5c30,0,30-21.5,30-21.5v-38.2H329.2z M359,190.3
		c-6.4,0-11.9-1.1-16.3-3.1c-1.9-0.9-3.6-2.1-5.1-3.4l21.8-21.7l-27.8-27.8h55.6v0.1l-27.8,27.7l21.5,21.5c-1.6,1.4-3.4,2.6-5.4,3.6
		C371,189.2,365.5,190.3,359,190.3z"/>
	<g>
		<path d="M345.6,138.9h6v1.2H348v1h3.4v1.2H348v2.1h-2.4V138.9z"/>
		<path d="M360.2,144.2c-0.4,0.1-1.3,0.3-2.5,0.3c-3.5,0-5-1.3-5-2.8c0-1.9,2.3-2.9,5.1-2.9c1.1,0,2,0.1,2.5,0.3l-0.5,1.2
			c-0.4-0.1-1.1-0.2-1.9-0.2c-1.4,0-2.7,0.5-2.7,1.6c0,0.9,1,1.6,2.8,1.6c0.7,0,1.4-0.1,1.8-0.2L360.2,144.2z"/>
		<path d="M349.2,182L349.2,182l-1.4,0.5l-0.3-1.2l2-0.7h1.5v5.7h-1.8C349.2,186.3,349.2,182,349.2,182z"/>
		<path d="M353.8,185.1c0.2,0,0.3,0,0.7,0c0.5,0,1.1-0.1,1.4-0.3c0.5-0.2,0.8-0.5,0.9-0.8l0,0c-0.3,0.2-0.7,0.3-1.3,0.3
			c-1.2,0-2.3-0.6-2.3-1.8c0-1.2,1.2-2.1,2.8-2.1c2.1,0,2.8,1.3,2.8,2.5c0,1.1-0.4,2-1.2,2.6c-0.8,0.6-1.8,0.9-3.2,0.9
			c-0.2,0-0.5,0-0.7,0C353.8,186.3,353.8,185.1,353.8,185.1z M355.9,181.7c-0.4,0-0.8,0.3-0.8,0.8c0,0.4,0.3,0.7,0.9,0.7
			c0.4,0,0.6-0.1,0.8-0.3c0-0.1,0.1-0.1,0.1-0.2C356.8,182.2,356.6,181.7,355.9,181.7L355.9,181.7z"/>
		<path d="M362.3,186.4c-2,0-2.8-1.4-2.8-3s0.8-3,2.8-3c2,0,2.8,1.4,2.8,3C365.1,185,364.3,186.4,362.3,186.4L362.3,186.4z
			 M362.3,185.2c0.5,0,0.9-0.6,0.9-1.8c0-1.2-0.4-1.8-0.9-1.8c-0.5,0-0.9,0.5-0.9,1.8C361.4,184.6,361.7,185.2,362.3,185.2
			L362.3,185.2z"/>
		<path d="M371.1,180.6v1l-2.8,4.7h-2.1l2.9-4.4l0,0h-3.2v-1.3H371.1z"/>
	</g>
	<g>
		<g>
			<g>
				<g>
					<path class="st5" d="M356.3,165.8L356.3,165.8c-1-0.1-1.8-0.9-1.8-1.9c0-0.5,0.2-1,0.5-1.4c0.4-0.4,0.8-0.6,1.4-0.6
						c1.1,0,1.9,0.8,1.9,1.8c0,0.5-0.2,1-0.5,1.4C357.4,165.5,356.9,165.8,356.3,165.8L356.3,165.8
						C356.4,165.8,356.4,165.8,356.3,165.8L356.3,165.8z"/>
				</g>
				<g>
					<path class="st5" d="M356.3,165.8l-0.7-0.8c0,0-0.1-0.1-0.1-0.1c-0.2-0.2-0.4-0.5-0.5-0.9c-0.1-0.5,0.2-0.9,0.4-1.1
						c0,0,0-0.1,0.1-0.1l0.3-0.4l1.3,0l0.3,0.4c0,0,0.1,0.1,0.1,0.1c0.2,0.2,0.5,0.6,0.4,1.1c-0.1,0.5-0.4,0.8-0.7,1
						c0,0-0.1,0.1-0.1,0.1L356.3,165.8z"/>
				</g>
			</g>
			<path class="st5" d="M371.6,166.3l-2.8-6.3l-0.6,0.5c-0.5-0.9-1-1.8-1.9-2.4c-0.6-0.4-1.2-0.8-1.8-1.1l0.2-0.4
				c-0.3-0.2-0.6-0.4-0.9-0.6c0.2-0.3,0.4-0.6,0.5-1l0.3-0.9l-1-0.3c-0.1,0-0.2,0-0.3-0.1c0.8-1.7,2-3,3.5-3.9l1.3-0.7l-1.2-0.9
				c-0.6-0.4-1.2-0.7-1.8-0.7l0-0.1l-1.2-0.3c-0.1,0-0.2,0-0.3,0c-0.1,0-0.3-0.1-0.4-0.1c-0.4-0.2-0.7-0.2-1-0.2c-0.1,0-0.2,0-0.3,0
				l0-0.1l-2.8-0.2l0-0.2l-1,0.1h0l-2.8,0.3v0c0,0-0.1,0-0.1,0c-0.3,0-0.7,0.1-1.1,0.2l-1.2,0.6c0,0,0,0,0,0c-0.2,0-0.4-0.1-0.6-0.1
				c-0.7,0-1.3,0.4-1.8,0.8l-1.1,0.9l1.3,0.7c1.5,0.8,2.7,2.1,3.5,3.9c-0.1,0-0.2,0-0.3,0.1l-1.1,0.3l0.6,1c0.1,0.2,0.2,0.4,0.4,0.6
				c-1.9,1.1-3.3,2.9-3.9,5.1l0.4,0.2c-0.9,1.8-1.1,3.7-0.5,5.4c0.2,0.7,0.4,1.2,0.6,1.6c0.3,0.7,0.5,1.4,0.8,2c0,0,0,0.1,0.1,0.2
				l-0.2,0.2c-0.2,0.1-0.4,0.2-0.6,0.4c-0.6,0.4-1.3,0.7-1.9,1.1c-0.3,0.2-0.5,0.5-0.6,0.7c0,0,0,0,0,0.1l-0.6,1l0.1,0l0,0l0.5,1.6
				h0.7c0.1,0,0.1,0,0.2,0c0.1,0,0.2,0,0.3,0c0.1,0,0.2,0,0.4,0c0.6,0,1.1-0.1,1.7-0.1c1.1-0.1,2.1-0.2,3.2-0.3
				c1.1-0.1,1.5-0.7,1.7-1.3v0c0.6-0.3,1.1-0.7,1.4-1.5c1.5,2.3,4.4,5.2,6.7,6.7c0.5,0.3,1,0.5,1.5,0.5c0.6,0,1.1-0.2,1.6-0.6
				c0.1,0,0.1,0,0.2,0.1c0.1,0,0.2,0.1,0.4,0.2l1.3,0.6l0.1-1.4c0-0.5,0-1,0.1-1.5c0,0,0-0.1,0-0.1l0-0.4c0-1,0.1-2,0.1-3
				c0-0.6,0.1-1.1,0.4-1.6c0.5-0.9,0.9-1.8,1.4-2.7c0.1-0.3,0.3-0.6,0.4-0.9c0.1-0.1,0.1-0.3,0.2-0.4c0,0,0-0.1,0-0.1l0.4-1
				L371.6,166.3z"/>
		</g>
		<g>
			<g>
				<g>
					<g>
						<path class="st67" d="M352.4,171.4c0.7,0,1.3,0,1.9,0c0.5,0,1,0.1,1.5,0.2c-0.4-0.2-0.8-0.4-1.2-0.5c-0.9-0.3-1.7-0.6-2.5,0.1
							C352,171.4,352.4,171.4,352.4,171.4z M351.6,171.2c0.3-0.2,0.5-0.4,0.8-0.6c-0.4-0.9-0.7-1.9-1.1-2.8
							c-0.2-0.5-0.4-1.1-0.5-1.6c-1.1-3.7,1.6-7.3,4.2-8.4c3.8-1.7,7.4-1.3,10.8,1.1c0.9,0.7,1.4,1.7,2,2.8c-0.8,0.5-1.6,1-2.4,1.5
							c-1.3,0.9-2.6,0.9-4,0.2c-1.4-0.6-2.8-1-4.2-1.5c-1-0.4-2.1,0.1-2.7,1.1c-0.5,1-0.2,2.1,0.7,2.8c0.5,0.3,1,0.6,1.4,0.9
							c0.5,0.3,1,0.6,1.5,1c-0.6,1.4-1.2,2.7-1.7,4.1c-0.3,0.9-0.8,1.2-1.7,1.3c-1.8,0.1-3.7,0.3-5.5,0.5c-0.2,0-0.4-0.1-0.6-0.2
							c0.1-0.2,0.2-0.4,0.3-0.5C349.9,172.2,350.7,171.7,351.6,171.2L351.6,171.2z M363.4,158c-3-1.6-9-0.6-10.1,1.6
							C356.3,157.5,359.7,156.9,363.4,158z"/>
					</g>
					<g>
						<path class="st67" d="M370.1,165.2c-1.9-0.2-3.7-0.4-5.6-0.5c0.1,0.6,0.1,1.1,0.2,1.6c0,0.1,0.3,0.3,0.5,0.3
							c1.8,0.2,3.5,0.3,5.3,0.5c0.1,0,0.1,0,0.3,0.1c-0.1,0.2-0.1,0.3-0.2,0.5c-0.6,1.2-1.2,2.4-1.8,3.6c-0.3,0.6-0.5,1.3-0.5,2
							c0,1.6-0.1,3.2-0.2,4.9c-0.4-0.2-0.7-0.3-1.1-0.5c-2.6-1.4-4.7-3.5-6.7-5.7c-0.5-0.6-1-1.2-1.6-1.8c-0.2-0.3-0.3-0.5-0.1-0.8
							c0.2-0.3,0.3-0.6,0.4-0.9c0.3-0.5,0.2-0.8-0.3-1.1c-1.1-0.7-2.1-1.3-3.1-2c-0.8-0.5-1.1-1.5-0.7-2.3c0.4-0.8,1.3-1.1,2.2-0.7
							c2,0.7,3.9,1.4,6,2.1c0.2,0.1,0.6,0,0.8,0c1.7-0.6,3.2-1.5,4.5-2.8C369,162.8,369.6,163.9,370.1,165.2z M356.4,164.8
							c0.5,0,1-0.5,1-1s-0.4-0.9-1-0.9c-0.5,0-1,0.4-1,1C355.5,164.4,355.9,164.8,356.4,164.8z M359.5,170.7c-1-0.8-0.3-1.5,0.1-2.3
							c0-0.1,0.1-0.2,0.1-0.3c0-0.3,0-0.7-0.2-0.9c-0.4-0.4-1-0.6-1.5-0.9c0.1,0.2,0.3,0.3,0.4,0.4c1.5,1,1.3,0.7,0.7,2.2
							C358.7,170,358.7,170,359.5,170.7z M364,168.5c-0.2,0.4-0.4,0.6-0.5,0.8c0,0.1,0.2,0.2,0.3,0.4c0.2-0.2,0.4-0.4,0.5-0.6
							C364.3,169,364.1,168.8,364,168.5z M365.7,169.5c-0.2-0.2-0.4-0.4-0.4-0.4c-0.2,0.2-0.4,0.4-0.5,0.6c0,0,0.2,0.2,0.3,0.4
							C365.2,170,365.4,169.8,365.7,169.5z M366.5,169.4c-0.2,0.4-0.4,0.6-0.4,0.9c0,0.1,0.2,0.2,0.3,0.4c0.2-0.2,0.4-0.4,0.5-0.7
							C366.8,169.9,366.6,169.7,366.5,169.4z M367.4,171.1c0.1,0,0.1,0,0.2,0c0.1-0.2,0.3-0.4,0.4-0.7c0-0.1-0.2-0.2-0.2-0.4
							c-0.2,0.2-0.4,0.3-0.5,0.5C367.2,170.8,367.4,170.9,367.4,171.1z M365.1,171.6c-0.2-0.2-0.4-0.4-0.5-0.5
							c-0.1,0.2-0.3,0.3-0.3,0.5c0,0.2,0.2,0.4,0.3,0.6C364.7,172,364.9,171.8,365.1,171.6z M367.6,172.5c-0.2-0.2-0.3-0.4-0.5-0.5
							c-0.1,0.2-0.3,0.4-0.3,0.5c0,0.2,0.2,0.4,0.3,0.5C367.2,172.9,367.4,172.8,367.6,172.5z M366.3,172.1
							c-0.2-0.2-0.3-0.4-0.4-0.6c-0.1,0.2-0.4,0.3-0.4,0.5c0,0.2,0.2,0.4,0.4,0.6C366,172.5,366.1,172.3,366.3,172.1z M366.7,167.8
							c-0.4-0.2-0.7,0-0.9,0.3c0,0.1,0,0.3,0.1,0.3C366.3,168.5,366.6,168.3,366.7,167.8z M368,168.3c-0.4-0.2-0.7-0.1-0.9,0.2
							c0,0.1,0,0.2,0,0.4c0.3-0.1,0.6-0.3,0.8-0.4C368,168.5,368,168.4,368,168.3z M367.2,173.9c-0.1,0-0.1,0-0.2,0.1
							c-0.2,0.5-0.1,0.8,0.7,1.1C367.5,174.6,367.3,174.3,367.2,173.9z M369.2,168.7c-0.4-0.1-0.7,0-0.9,0.3c0,0.1,0.1,0.2,0.1,0.3
							c0.3-0.2,0.5-0.3,0.8-0.5C369.2,168.8,369.2,168.8,369.2,168.7z M365.9,173.5c-0.4,0.5-0.3,0.9,0.5,1.1
							C366.2,174.2,366.1,173.8,365.9,173.5z"/>
					</g>
					<g>
						<path d="M358.1,171.6c0.2-0.2,0.4-0.4,0.7-0.6c2.3,2.7,4.8,5.2,7.9,7c-0.7,0.5-1.4,0.6-2.1,0.1
							C362.4,176.7,359.5,173.8,358.1,171.6z"/>
					</g>
					<g>
						<path class="st67" d="M364.2,157.3c-6.4-2-9.8-1-13.2,3.8C352.6,155.7,359.2,153.7,364.2,157.3z"/>
					</g>
					<g>
						<path d="M370.7,166.6c-1.8-0.1-3.5-0.3-5.2-0.4c-0.7-0.1-0.3-0.6-0.6-1c1.2,0.1,2.2,0.2,3.2,0.3c0.4,0,0.9,0.1,1.3,0.1
							C370.2,165.5,370.6,165.9,370.7,166.6z M365.3,165.6c0,0,0.1,0.1,0.1,0.1c1.1,0,2.1,0,3.2,0c-0.9-0.1-1.9-0.2-2.8-0.3
							C365.6,165.4,365.4,165.5,365.3,165.6z"/>
					</g>
					<g>
						<path d="M348.5,174.2c0.2-0.1,0.5-0.4,0.7-0.4c1.9-0.2,3.8-0.4,5.7-0.5c0,0,0.1,0,0.1,0c-0.1,0.4-0.4,0.6-0.9,0.7
							c-1.6,0.1-3.3,0.3-4.9,0.4c-0.3,0-0.5,0-0.8,0C348.6,174.3,348.5,174.3,348.5,174.2z"/>
					</g>
					<g>
						<path class="st5" d="M363.4,158c-3.6-1-7-0.5-10.1,1.6C354.4,157.4,360.4,156.3,363.4,158z"/>
					</g>
					<g>
						<path class="st5" d="M356.4,164.8c-0.5,0-1-0.4-1-0.9c0-0.6,0.4-1,1-1c0.5,0,1,0.4,1,0.9C357.4,164.4,357,164.8,356.4,164.8z
							 M356.5,163.2c-0.1,0-0.2,0-0.3,0c-0.1,0.2-0.4,0.4-0.3,0.6c0,0.2,0.3,0.4,0.4,0.6c0.2-0.2,0.5-0.4,0.5-0.5
							C357,163.7,356.7,163.4,356.5,163.2z"/>
					</g>
					<g>
						<path d="M356.5,163.2c0.1,0.2,0.4,0.4,0.4,0.6c0,0.2-0.3,0.4-0.5,0.5c-0.2-0.2-0.4-0.4-0.4-0.6c0-0.2,0.2-0.4,0.3-0.6
							C356.4,163.2,356.5,163.2,356.5,163.2z"/>
					</g>
				</g>
				<g>
					<path class="st66" d="M356,151.4c-0.6-1.1-1.3-2.1-1.9-3.2c0,0.1,0,0,0,0c2-0.5,1.8-0.8,2.8,1.3c0.3,0.6,0.4,1.2,0.5,1.8
						c0.1,0,0.1,0,0.2,0c-0.2-1.2-0.5-2.3-0.7-3.6c0.5,0,1.1-0.1,1.8-0.2c0.1,1.4,0.2,2.7,0.3,4c0,0,0.1,0,0.1,0
						c0.1-1.3,0.2-2.5,0.3-3.9c0.6,0,1.2,0.1,1.8,0.1c-0.3,1.2-0.5,2.4-0.7,3.6c0.1,0,0.1,0,0.2,0c0.3-0.8,0.6-1.6,0.9-2.5
						c0.3-0.8,0.8-1.3,1.8-0.9c0.3,0.1,0.6,0.1,0.8,0.2c-0.7,1.1-1.3,2.2-2,3.3c0,0,0.1,0,0.1,0.1c0.7-0.8,1.3-1.6,2-2.3
						c0.7-0.8,1.5-0.9,2.5-0.1c-2,1.1-3.2,2.6-4.1,4.5c-2.4,0-4.6,0-7,0c-0.8-1.8-2.1-3.4-4-4.5c0.9-0.7,1.4-0.8,2.1-0.1
						c0.8,0.7,1.5,1.6,2.2,2.4C355.9,151.4,355.9,151.4,356,151.4z"/>
				</g>
			</g>
			<g>
				<path class="st67" d="M363.5,154.7c-0.3,1-0.8,1.1-1.7,0.8c-1.6-0.5-3.3-0.6-5.3-0.2c-1.2,0.1-1.3,0.6-1.9-0.6
					C357.5,153.8,360.4,153.9,363.5,154.7z"/>
			</g>
		</g>
	</g>
	<rect x="345.5" y="136.1" class="st66" width="6.8" height="1.4"/>
	<rect x="352.3" y="136.1" class="st67" width="6.5" height="1.4"/>
	<rect x="345.6" y="136.3" class="st68" width="19.6" height="1.4"/>
	<g>
		<path d="M364.4,142l-1.1,2.4h-2.4l4.2-8.2h2.9l4.3,8.2h-2.5l-1.2-2.4H364.4z M368.2,140.8l-1.1-2.1c-0.3-0.5-0.5-1-0.7-1.4h0
			c-0.2,0.4-0.4,0.9-0.6,1.4l-1.1,2.1H368.2z"/>
	</g>
</g>
<path class="st69" d="M432.8,41.2C432.8,41.2,209,182,127,440"/>
<path class="st80" d="M515.7,82.2C515.7,82.2,279,232,197,490c0,0-8.1,60.3-70.2,81.1"/>
<path class="st69" d="M165.7,39.2c0,0,223.8,140.8,305.8,398.8"/>
<path class="st80" d="M82.8,80.2c0,0,236.7,149.8,318.7,407.8c0,0,8.1,60.3,70.2,81.1"/>
</svg>
