<?xml version="1.0" encoding="utf-8"?>
<!-- Generator: Adobe Illustrator 17.0.0, SVG Export Plug-In . SVG Version: 6.00 Build 0)  -->
<!DOCTYPE svg PUBLIC "-//W3C//DTD SVG 1.1//EN" "http://www.w3.org/Graphics/SVG/1.1/DTD/svg11.dtd" [
	<!ENTITY ns_flows "http://ns.adobe.com/Flows/1.0/">
	<!ENTITY ns_extend "http://ns.adobe.com/Extensibility/1.0/">
	<!ENTITY ns_ai "http://ns.adobe.com/AdobeIllustrator/10.0/">
	<!ENTITY ns_graphs "http://ns.adobe.com/Graphs/1.0/">
]>
<svg version="1.1" id="Layer_1" xmlns:x="&ns_extend;" xmlns:i="&ns_ai;" xmlns:graph="&ns_graphs;"
	 xmlns="http://www.w3.org/2000/svg" xmlns:xlink="http://www.w3.org/1999/xlink" xmlns:a="http://ns.adobe.com/AdobeSVGViewerExtensions/3.0/"
	 x="0px" y="0px" width="600px" height="600px" viewBox="0 0 600 600" style="enable-background:new 0 0 600 600;"
	 xml:space="preserve">
<style type="text/css">
	.st0{fill:#000100;}
	.st1{fill:#E80040;stroke:#000000;stroke-miterlimit:10;}
	.st2{fill:#FCE200;stroke:#000000;stroke-miterlimit:10;}
	.st3{fill:#FEA63F;stroke:#000000;stroke-miterlimit:10;}
	.st4{fill:#FFFFFF;stroke:#000000;stroke-miterlimit:10;}
	.st5{fill:#FFFFFF;}
	.st6{fill:#7C0014;}
	.st7{fill:#75C255;stroke:#000000;stroke-miterlimit:10;}
	.st8{fill:#52B329;}
	.st9{fill:#52BCE0;stroke:#000000;stroke-miterlimit:10;}
	.st10{fill:#48ACD0;}
	.st11{fill:#028CBE;}
	.st12{fill:#52BCE0;}
	.st13{fill:#EFF0F9;stroke:#4E3B64;stroke-miterlimit:10;}
	.st14{fill:#1D5662;stroke:#000000;stroke-miterlimit:10;}
	.st15{fill:#1D5662;}
	.st16{fill:#054049;}
	.st17{fill:#037FC7;}
	.st18{fill:#9158B6;stroke:#000000;stroke-miterlimit:10;}
	.st19{fill:#752EA5;}
	.st20{fill:#2678C7;}
	.st21{fill:#FABFB6;stroke:#000000;stroke-miterlimit:10;}
	.st22{fill:#FABFB6;}
	.st23{fill:#FC8038;stroke:#FABFB6;stroke-miterlimit:10;}
	.st24{fill:#00A39B;}
	.st25{fill:#E53A3E;stroke:#000000;stroke-miterlimit:10;}
	.st26{fill:#E53A3E;}
	.st27{fill:#242424;stroke:#5C377E;stroke-miterlimit:10;}
	.st28{fill:#525252;stroke:#000000;stroke-miterlimit:10;}
	.st29{fill:#4998BB;}
	.st30{fill:#1A7F9E;}
	.st31{fill:#E58000;stroke:#000000;stroke-miterlimit:10;}
	.st32{fill:#BA7500;stroke:#000000;stroke-miterlimit:10;}
	.st33{fill:#DF961C;stroke:#000000;stroke-miterlimit:10;}
	.st34{fill:#DF961C;}
	.st35{fill:#EDF3F8;stroke:#000000;stroke-miterlimit:10;}
	.st36{fill:#DA7600;}
	.st37{fill:#C2BEC8;}
	.st38{fill:#000100;stroke:#FFFFFF;stroke-miterlimit:10;}
	.st39{fill:#A8F001;stroke:#000000;stroke-miterlimit:10;}
	.st40{fill:#0578CD;}
	.st41{fill:#1A58A5;}
	.st42{stroke:#625616;stroke-miterlimit:10;}
	.st43{adobe-knockout:true;}
	.st44{fill:none;stroke:#FFFFFF;stroke-width:3;stroke-miterlimit:10;adobe-knockout:false;}
	.st45{fill:#D71F26;stroke:#000000;stroke-miterlimit:10;}
	.st46{fill:#008183;}
	.st47{fill:#6FC266;}
	.st48{fill:#C4373C;}
	.st49{fill:#00CAB0;}
	.st50{fill:#FAAE1E;}
	.st51{fill:#EC153B;}
	.st52{fill:#00B296;}
	.st53{fill:#F2C958;stroke:#00CAB0;stroke-miterlimit:10;}
	.st54{fill:#FF354F;stroke:#000000;stroke-miterlimit:10;}
	.st55{fill:#0D36A7;stroke:#000000;stroke-miterlimit:10;}
	.st56{fill:#D2D7E2;stroke:#000000;stroke-miterlimit:10;}
	.st57{fill:#CA2B9D;stroke:#000000;stroke-miterlimit:10;}
	.st58{fill:#58006C;stroke:#000000;stroke-miterlimit:10;}
	.st59{fill:#C60021;}
	.st60{fill:#A30F81;}
	.st61{fill:#0159C0;stroke:#A0A0A0;stroke-miterlimit:10;}
	.st62{fill:#013390;}
	.st63{fill:#F08900;}
	.st64{fill:#D20129;}
	.st65{fill:#AD0000;}
	.st66{fill:#131E25;}
	.st67{fill:#DAD2D8;stroke:#000000;stroke-miterlimit:10;}
	.st68{fill:#0066B3;}
	.st69{fill:#969796;}
	.st70{fill:#E86271;}
	.st71{fill:url(#SVGID_1_);stroke:#000000;stroke-miterlimit:10;}
	.st72{fill:#5AB4D2;stroke:#000000;stroke-miterlimit:10;}
	.st73{fill:#5AB4D2;}
	.st74{fill:#FFFFFF;stroke:#5AB4D2;stroke-miterlimit:10;}
	.st75{fill:#073F98;stroke:#0453BC;stroke-miterlimit:10;}
	.st76{fill:#2762C9;stroke:#000000;stroke-miterlimit:10;}
	.st77{fill:#C252FF;}
	.st78{fill:url(#SVGID_2_);}
	.st79{fill:url(#SVGID_3_);}
	.st80{fill:#DAD2D8;}
	.st81{stroke:#000000;stroke-miterlimit:10;}
	.st82{fill:#05297D;stroke:#000000;stroke-miterlimit:10;}
	.st83{fill:#05297D;stroke:#FFFFFF;stroke-miterlimit:10;}
	.st84{fill:#A8A8B4;}
	.st85{fill:url(#SVGID_4_);stroke:#000000;stroke-miterlimit:10;}
	.st86{fill:#53536A;}
	.st87{fill:#073F98;}
	.st88{fill:#098FBC;}
	.st89{fill:url(#SVGID_5_);}
	.st90{fill:#F7A161;}
	.st91{fill:#FF0000;stroke:#000000;stroke-miterlimit:10;}
	.st92{fill:#F54849;stroke:#000000;stroke-miterlimit:10;}
	.st93{fill:url(#SVGID_6_);}
	.st94{fill:url(#SVGID_7_);}
	.st95{fill:#3A72B7;stroke:#000000;stroke-miterlimit:10;}
	.st96{fill:#96C4F0;stroke:#000000;stroke-miterlimit:10;}
	.st97{fill:#C50040;}
	.st98{fill:#D11E24;}
	.st99{fill:#E3E3E7;}
	.st100{stroke:#FFCF2B;stroke-miterlimit:10;}
	.st101{fill:none;stroke:#F9E42A;stroke-miterlimit:10;}
	.st102{fill:#F08900;stroke:#000000;stroke-miterlimit:10;}
	.st103{fill:#F28330;}
	.st104{fill:#FC8038;}
	.st105{fill:#5AB633;}
	.st106{fill:#553658;stroke:#75C255;stroke-miterlimit:10;}
	.st107{fill:#1853A6;}
	.st108{fill:#CB0000;}
	.st109{fill:#0F0D0E;}
	.st110{fill:#636363;}
	.st111{fill:#FFFFFF;stroke:#00A39B;stroke-miterlimit:10;}
	.st112{fill:#D71F26;}
	.st113{fill:#020000;}
	.st114{fill:none;stroke:#000000;stroke-width:0.5;stroke-miterlimit:10;}
	.st115{clip-path:url(#SVGID_9_);}
	.st116{clip-path:url(#SVGID_11_);}
	.st117{clip-path:url(#SVGID_13_);}
	.st118{clip-path:url(#SVGID_15_);}
	.st119{fill:#7A4A00;}
	.st120{fill:none;stroke:#1A7F9E;stroke-width:7;stroke-miterlimit:10;}
	.st121{fill:#E20227;stroke:#4998BB;stroke-miterlimit:10;}
	.st122{fill:#1F2427;}
	.st123{fill:#BA7500;}
	.st124{fill:none;stroke:#BA7500;stroke-width:7;stroke-miterlimit:10;}
	.st125{fill:#843D00;stroke:#000000;stroke-width:0.25;stroke-miterlimit:10;}
	.st126{stroke:#000000;stroke-width:0.25;stroke-miterlimit:10;}
	.st127{fill:#ECEEF3;stroke:#1A58A5;stroke-miterlimit:10;}
	.st128{fill:#233194;}
	.st129{fill:#E0DFE3;}
	.st130{fill:#C2BEC8;stroke:#000000;stroke-miterlimit:10;}
	.st131{fill:#233194;stroke:#000000;stroke-miterlimit:10;}
	.st132{fill:#A40100;}
	.st133{adobe-knockout:false;}
	.st134{fill:#A0AAC1;}
	.st135{fill:#A40100;stroke:#000000;stroke-miterlimit:10;}
	.st136{fill:#92F0D6;}
	.st137{fill:#F2C958;}
	.st138{fill:#CA2B9D;stroke:#CA2B9D;stroke-miterlimit:10;}
	.st139{fill:#A30F81;stroke:#000000;stroke-miterlimit:10;}
	.st140{fill:#7E2B42;}
	.st141{fill:#0D36A7;}
	.st142{fill:#EE1C24;}
	.st143{fill:#0159C0;}
	.st144{stroke:#A0A0A0;stroke-miterlimit:10;}
	.st145{stroke:#4E3B64;stroke-miterlimit:10;}
	.st146{fill:#FDEA00;stroke:#000000;stroke-width:0.217;}
	.st147{fill:#FDEA00;stroke:#000000;stroke-width:0.2326;}
	.st148{fill:#1D1D1B;}
	.st149{fill:#FF0000;}
	.st150{fill:none;stroke:#0453BC;stroke-width:25.435;stroke-miterlimit:10;adobe-knockout:false;}
	.st151{fill:none;stroke:#0453BC;stroke-width:25.4353;stroke-linecap:round;stroke-miterlimit:10;adobe-knockout:false;}
	.st152{fill:#CAC5C0;}
	.st153{fill:#2762C9;}
	.st154{fill:#C252FF;stroke:#000000;stroke-miterlimit:10;}
	.st155{fill:#A54B2D;stroke:#000000;stroke-miterlimit:10;}
	.st156{fill:#A54B2D;}
	.st157{stroke:#A54B2D;stroke-miterlimit:10;}
	.st158{fill:#823311;}
	.st159{fill:none;}
	.st160{fill:#05297D;}
	.st161{fill:none;stroke:#FF7F35;stroke-width:6;stroke-miterlimit:10;}
	.st162{fill:#031DFF;stroke:#000000;stroke-miterlimit:10;}
	.st163{fill:#0370FF;stroke:#000000;stroke-miterlimit:10;}
	.st164{fill:#031DC4;}
	.st165{fill:none;stroke:#0080CA;stroke-width:6;stroke-miterlimit:10;}
	.st166{fill:#031DFF;stroke:#FFFFFF;stroke-miterlimit:10;}
	.st167{fill:#0263B0;}
	.st168{fill:none;stroke:#FFFFFF;stroke-width:2;stroke-miterlimit:10;}
	.st169{fill:url(#SVGID_16_);stroke:#FFFFFF;stroke-miterlimit:10;}
	.st170{fill:url(#SVGID_17_);}
	.st171{fill:url(#SVGID_18_);}
	.st172{fill:url(#SVGID_19_);}
	.st173{fill:#693B0F;stroke:#000000;stroke-miterlimit:10;}
	.st174{fill:#3E4E70;}
	.st175{fill:#F7CE02;}
	.st176{fill:#0551E1;stroke:#000000;stroke-miterlimit:10;}
	.st177{fill:#EC153B;stroke:#000000;stroke-miterlimit:10;}
	.st178{fill:#0831FD;}
	.st179{fill:#0870FD;}
	.st180{fill:none;stroke:#9F3D44;stroke-width:3;stroke-miterlimit:10;}
</style>
<path class="st28" d="M6.1,342.8C40.7,232.2,21.2,187.2,67.7,94.2c10.5-21,71.9-57.8,135.8-73.2c0,0,109.7-25.5,180.5-3.5
	s140.3,53.3,151.9,80c35.7,82.1,31.2,191.6,59.7,243.7c-12.5,1.2-81.3,14.4-109.3,19.7c-2.4-7.3-13.4-60-13.4-60s3.2,248,3.2,270
	c-0.2,19-92.8,24-180.8,24s-167.5-10-167.5-26.9c0-16.8,1.1-262.1,1.1-262.1s-3.3,23.3-8.3,56.1C91.3,361.9,16.4,344,6.1,342.8z"/>
<path class="st45" d="M123.5,345.1l-2.8,17c0,0-18.3-0.2-54.3-7.2c-18-3.5-53.4-11.4-60.3-12.1c3.2-10.1,5.8-20.6,5.8-20.6
	c13.4,2.5,37.1,9.2,60.5,14.2C97.6,341.9,123.5,345.1,123.5,345.1z"/>
<path class="st45" d="M482.2,342.3l4.1,18.6c0,0,8.8-1.5,44.8-8.5c18-3.5,57.7-10,64.7-10.7c-4.7-9.1-8.7-20.9-8.7-20.9
	c-14,2.7-40.1,7.3-63,12.2C498.7,338.3,482.2,342.3,482.2,342.3z"/>
<g>
	<path class="st110" d="M421.8,588.9l-8-300.2l0.1-1.2c0.6-6,16.5-147.4,66.8-231.9c0,0,10.8,5.3,16.1,8.5c3.5,2.1,6.7,3.9,14.7,9.4
		c-18.9,31.8-35.6,79.4-48.3,137.5c-8.7,40.1-12.7,72.7-13.5,79.1l7.8,292.6c0,0-10.8,2.8-20.8,4.3
		C426.8,588.6,421.8,588.9,421.8,588.9z"/>
</g>
<g>
	<g>
		<path class="st110" d="M144.5,580l7.7-289.6c-2-14.5-19.9-143.4-63.8-217.2c0,0,15.1-10,19.9-12.8c4.8-2.8,10.5-5.7,10.5-5.7
			c50.2,84.3,68.5,226.4,69.3,232.5l0.2,1.4l-8,298.9c0,0-8-1-18.8-3.2C150.7,582,144.5,580,144.5,580z"/>
	</g>
	<g>
		<path class="st110" d="M248.1,593.1l-36-2.1l4-293c-4.5-57.1-25.8-215.4-62.7-259.6c0,0,20.4-9,34.7-12.4
			c19.9,28.8,36.5,81.5,49.5,156.9c10.2,59.5,14.3,111,14.5,113.1l0.1,0.8l0,0.8L248.1,593.1z"/>
	</g>
	<g>
		<path class="st110" d="M350,593.6l-4-296.8l0.1-0.8c0.2-2.2,4.5-54.1,14.9-114.1c12.8-73.8,29-125.9,48.1-155.3
			c18.6,5.9,35.3,13,35.3,13c-36.9,44.2-57.5,200.9-62.3,258.6l4,293.8L350,593.6z"/>
	</g>
	<g>
		<polygon class="st110" points="316.2,594 280,593.8 280,77.5 316,77.2 		"/>
	</g>
</g>
<path d="M73.8,85.9c0,0,77.1,9.2,55.7,220c-0.9,166-1.1,253.8-1.1,255.9c0,3.2-0.6,7.5,0.8,9.2c0.7,1.1,1.7,2.3,3.4,3.5
	c4.7,3.4,13.4,6.6,25.2,9.1c-14.2-11.6-10.9-42.8-9.8-72.1c1.1-29.4-24-95.4-3-199.4c6.8-33.6-5.5-74.9-6-84
	C135,160.4,122.6,94.6,73.8,85.9z"/>
<path d="M530.2,89c0,0-79.2,0.7-57.7,211.5c2.1,168.9,3.2,265.3,3.2,264.5c0-2.3,0,2.4,0,6.2c0,1.3-0.7,2.6-0.9,2.9
	c-0.7,1.1-2,2.2-3.6,3.4c-4.7,3.4-13.3,5.9-25.1,8.2c14.2-11.6,11.1-41.8,10-71.2c-1.1-29.4,24-95.4,3-199.4
	c-6.8-33.6,1.5-83.4,2-92.4C465,155.1,483.7,92,530.2,89z"/>
<g>
	<g>
		<path class="st28" d="M234.5,28.7C247.3,46,269,62.5,305.1,62.5c36.2,0,56.3-16.8,67.4-34.5C342.2,31.1,266.9,30.8,234.5,28.7z"/>
		<path class="st45" d="M375.1,1c-17.6,5.3-142.2,2.9-148.6,0.6c-0.1,0.3-0.3,0.7-0.5,1.1c2.2,7.1,6.3,17.5,13.7,27.5
			c29.5,1.9,97.9,2.2,125.6-0.6c6.2-9.9,9.4-20.2,10.9-27.3C375.8,1.8,375.4,1.4,375.1,1z"/>
	</g>
	<path class="st45" d="M376.2,2.3c-4.1,18.7-19,58.7-72.2,58.7c-53.9,0-72.4-40.1-78-58.3c-2.9,5.3-15.1,16-15.1,16
		s15.6,61.7,91.1,61.7c76.5,0,86.6-58.7,87.7-63.1C387.6,16.4,380.4,6.9,376.2,2.3z"/>
</g>
<g>
	<g>
		<path class="st5" d="M370.3,219.8c-17.1,0-31-13.9-31-31s13.9-31,31-31c17.1,0,31,13.9,31,31S387.4,219.8,370.3,219.8z"/>
		<path d="M370.3,158.3c8.2,0,15.8,3.2,21.6,8.9c5.8,5.8,8.9,13.4,8.9,21.6c0,8.2-3.2,15.8-8.9,21.6c-5.8,5.8-13.4,8.9-21.6,8.9
			c-8.1,0-15.8-3.2-21.6-8.9c-5.8-5.8-8.9-13.4-8.9-21.6c0-8.1,3.2-15.8,8.9-21.6C354.5,161.4,362.1,158.3,370.3,158.3 M370.3,157.3
			c-17.4,0-31.5,14.1-31.5,31.5s14.1,31.5,31.5,31.5c17.4,0,31.5-14.1,31.5-31.5S387.7,157.3,370.3,157.3L370.3,157.3z"/>
	</g>
	<g>
		<path class="st112" d="M398.2,188.5c-0.1-15.2-12.4-27.7-27.7-27.9v27.9H398.2z"/>
		<path class="st5" d="M370.5,160.6c0,0-0.2,0.1-0.3,0.1c-15.4,0-27.8,12.3-27.9,27.8h28.1V160.6z"/>
		<path class="st113" d="M370.5,188.5v27.9c15.2-0.2,27.6-12.6,27.6-27.8c0-0.1,0.1-0.1,0.1-0.1L370.5,188.5L370.5,188.5z"/>
		<path class="st112" d="M342.4,188.5C342.4,188.5,342.4,188.5,342.4,188.5c0,15.4,12.5,27.9,27.8,27.9c0.1,0,0.3,0,0.3,0v-27.9
			H342.4z"/>
	</g>
	<path class="st114" d="M370.3,216.7c-15.4,0-27.9-12.5-27.9-27.9s12.5-27.9,27.9-27.9s27.9,12.5,27.9,27.9S385.7,216.7,370.3,216.7
		z"/>
	<g>
		<path class="st5" d="M358,197.6c0.6,1.1,0.7,2.4,0.5,3.5c-0.2,1.3-0.6,2.3-1.4,2.8c-0.6,0.4-1.4,0.3-2.1-0.5
			c-0.7-0.9-0.9-2.3-0.9-3.4c0-1.1,0.3-2.3,1.1-3.1c0.3-0.2,0.5-0.4,0.8-0.5C356.6,196.2,357.4,196.5,358,197.6z M355.7,202
			c0.3,0.4,0.6,0.5,0.9,0.4c0.4-0.2,0.6-0.7,0.7-1.4c0.1-0.7,0-1.8-0.3-2.5c-0.3-0.5-0.6-0.5-0.9-0.4c-0.4,0.2-0.6,0.8-0.8,1.5
			C355.3,200.3,355.4,201.4,355.7,202z"/>
		<path class="st5" d="M363,196.5v0.1c-0.1,0-0.2,0.1-0.2,0.3v0.4v4h0.4c0,0,0.2,0,0.2,0c0.1-0.1,0.1-0.2,0.1-0.3l0.1,0v2.1h-0.1
			l-0.1-0.3h-0.6v0.6c0,0.1,0,0.3,0,0.3c0,0.1,0.1,0.1,0.2,0.2v0.2h-1.4v-0.2c0.1-0.1,0.1,0,0.1-0.2c0-0.1,0-0.3,0-0.3l0-0.6h-2.4
			l-0.1,0.4c-0.1-0.1,0-0.2,0-0.3v-1.6l1.9-4.2c0-0.1,0.1-0.1,0.1-0.2s0-0.1,0-0.2h-0.1v-0.2L363,196.5L363,196.5z M361.8,201.3V198
			l-1.5,3.3H361.8z"/>
	</g>
	<path class="st5" d="M371.4,199.3c0.1,0.3,0.5,0.2,0.6,0.5c-0.2,0.3-0.8,0.5-0.7,1c0.5,0.2,0.6-0.5,1.1-0.3
		c-0.1,0.4-0.7,0.8-0.2,1.2c0.3,0,0.3-0.3,0.4-0.5c0.3-0.5,0.6-0.6,0.9,0c0.1,0.1,0.2,0.2,0.2,0.2c0.1,0.2,0.3,0.3,0.5,0.1
		c0.2-0.1,0-0.3-0.1-0.4c-0.3-0.5-0.1-0.8,0.3-0.8c1.4,0,2.7-0.1,4-1c0,0.6-0.8,0.5-0.5,1c0.1,0.3,0.6,0.5,0.8,0.9
		c-0.5-0.1-0.9-0.3-1.3,0.1c-0.3,0.3-0.4,0.8-0.4,1.2c-0.1,0.8,0.2,1.5,0.5,2.2c0.5,1.1-0.4,2.4-1.5,2.2c-1.1-0.1-0.7,0.9-1.2,1.4
		c0.6-0.2,0.9-0.1,0.8,0.4c0,0.1,0.1,0.2,0.1,0.2c0.1,0.1,0.2-0.1,0.2-0.1c0.1-0.1,0.1-0.2,0.2-0.3c0.2-0.3,0.5-0.5,0.8-0.4
		c0.4,0.2,0,0.5,0.2,0.8c0.4-0.2,0.6-0.6,0.7-1c0.1-0.7,0.1-1.3,0.9-1.5c0.2-0.1,0.4-0.6,0.9-0.6c-0.8-1.4-0.8-1.8,0.8-3.6
		c-0.7,2.1,0.6,3,2,3.8c0.6,0.4,1,1.4,0.8,2.1c-0.2,0.4-0.5,0.2-0.8,0.2c-1.2-0.2-1.1-0.3-1.4,0.9c0,0.2-0.1,0.3,0.1,0.3
		c0.5-0.1,0.5,0.1,0.4,0.4c0,0.1,0,0.3,0.2,0.3c0.1,0,0.2-0.1,0.2-0.1c0.1-0.1,0.1-0.1,0.2-0.2c0.2-0.3,0.5-0.5,0.8-0.4
		c0.4,0.1,0,0.5,0.3,0.9c0.9-1.6,1-3.2,1.5-4.8c-0.4-0.1-0.8-0.1-1.1-0.3c-0.8-0.5-0.8-1.5-0.1-2.1c0.4-0.3,0.6,0.1,0.8,0.3
		c0.4,0.7,0.9,1.4,1.2,2.2c0.4,0.9,1,0.9,1.6,1c1,0.1,1.8-0.4,2.7-0.8c0.5-0.2,0.7-2.1,0.4-2.7c-0.2-0.5-0.5-0.9-0.9-1.3
		c-0.2-0.2-0.6-0.4-0.2-0.8c0.2-0.1-0.1-0.3-0.2-0.3c-0.4-0.2-0.6-0.6-1-0.5c-0.2,0.1-0.1,0.4-0.1,0.6c0.1,0.4,0.1,0.9,0.4,1.3
		c0.5-0.6,0.5-0.6,0.9,0c0.2,0.3,0.5,0.6,0.5,1.1c-0.1,0.9,0.1,1.8-1,2.2c-0.7,0.2-1.2,0.1-1.6-0.5c-0.3-0.5-0.8-1.1-0.8-1.5
		c0.2-1-0.6-1.2-0.9-1.7c-0.4-0.6-1-1.2-1.6-1.7c-0.2-0.1-0.3-0.2-0.4-0.5c0.8-0.1,1.4,0.5,2.2,0.9c-0.3-0.5-0.5-0.8-0.7-1.2
		c0.1,0,0.2-0.1,0.2-0.1c0.5,0.6,0.9,0.6,1.4-0.1c0.4-0.5,1.1-0.4,1.9-0.6c-0.6-0.8-1.5-1-2-1.8c0.5,0.2,1.1,0.5,1.7,0.8
		c0-1,0.4-1.8,1.3-2.3c0.4-0.2,0-0.4-0.2-0.5c-0.7-0.3-1.4-0.5-2-0.9c0.6-0.1,1.1,0.1,1.7,0.2c0.2,0.1,0.5,0.1,0.4-0.2
		c-0.4-1.4,0.3-2.4,1.4-3.4c-2.5-0.3-4.4,0.6-6.2,1.9c0.8-1.4,2.6-1.4,3.5-2.8c-1.9-0.1-4.7,2-5.1,3.7c-0.1,0.4,0,0.7,0.1,1.1
		c0.4,1.3-0.2,1.9-1.5,1.5c0.8-1,1.3-2.1,0.9-3.5c-0.1-0.4,0.2-0.4,0.4-0.4c0.5-0.1,0.7-0.4,0.8-0.9c0.1-0.6,0.9-1,0.9-1.8
		c-0.7,0.2-1.3,0.6-2,0.8c-0.6,0.2-1.2,0.1-1.8,0c-0.6-0.1-1.4,0-1.9,0.4c-0.6,0.6-1.4,0.6-2.2,0.4c-0.5-0.1-0.8-0.4-0.8,0.4
		c-0.1,0.6,0.1,1,0.7,1c0.4,0.1,0.9,0,1.3-0.1c0.3,0,0.6,0,0.9,0.5c-0.8,0-1.5,0.1-2.2,0c-0.6-0.1-0.7,0.1-0.8,0.5
		c-0.1,0.3-0.2,0.5,0.3,0.5c0.8,0,1.5,0.1,2.3-0.2c0.3-0.2,0.8-0.2,1.1,0.1c0.2,0.4,0,0.8-0.3,1.1c-0.4,0.4-0.7,0.8-1,1.3
		c-0.4,0.7-0.7,0.3-0.9-0.1c-0.1-0.4-0.2-0.5-0.5-0.2c0,0.1-0.2,0-0.2,0c-0.1-0.8-0.9-0.5-1.3-0.9c-0.2-0.2-0.3-0.4-0.4-0.7
		c-0.1-0.5-0.3-1-0.9-1.2c-0.3,0.2,0.1,0.5,0,0.7c-0.4,0-0.9-0.3-1.2,0.1c0.1,0.4,0.7,0.2,0.9,0.5c0,0.2-0.2,0.1-0.3,0.2
		c-0.3,0.1-0.8,0.1-0.7,0.4c0,0.4,0.4,0.1,0.7,0.1c0.5,0,0.6,0.2,0.5,0.7c-0.1,0.3-0.2,0.7,0.1,0.9c0.8-1.1,0.8-1.1,1.7,0.1
		c0.3,0.4,0.6,0.8,1.1,1.1c0.1,0.1,0.3,0.2,0.2,0.4c-0.1,0.2-0.3,0.3-0.5,0.2c-0.4-0.3-0.5-0.2-0.5,0.2c0,0.1-0.1,0.1-0.1,0.1
		c-0.5-0.4-0.7,0.2-1.1,0.3c-0.6,0.1-1.1,0.1-1.6-0.2C372.1,199,371.8,198.9,371.4,199.3z"/>
	<g>
		<path d="M353.4,178.6l-0.5,1.9l-0.1,0c0-0.3,0-0.3-0.2-0.5c0,0-0.1-0.1-0.3-0.2c-0.2-0.1-0.4-0.2-0.6-0.2
			c-0.3-0.1-1.2-0.2-1.5,0.4c-0.1,0.1-0.1,0.3-0.1,0.4c0.1,0.3,0.7,0.4,0.8,0.5l0.9,0.2c0.5,0.1,1.4,0.2,1.6,1.5
			c0.1,0.6,0.1,1.6-0.3,2.3c-0.9,1.7-2.9,1-3.9,0.5l-0.2-0.1l-0.1,0.2l-0.1-0.1l0.6-2.6l0.1,0.1c0,0.3,0,0.4,0.1,0.6
			c0.5,0.6,1.6,0.8,2.3,0.5c0.2-0.1,0.4-0.2,0.5-0.5c0-0.2,0-0.3,0-0.4c-0.1-0.3-0.8-0.4-0.8-0.4l-0.8-0.1c-0.3-0.1-1.4-0.2-1.7-1.4
			c-0.1-0.6-0.1-1.4,0.2-2c0.8-1.6,2.5-1,3.3-0.7l0.4,0.2c0,0,0.1,0,0.2,0h0.1l0,0C353.3,178.6,353.3,178.6,353.4,178.6L353.4,178.6
			z"/>
		<path d="M359,178.7L359,178.7l-0.6,2.3l-0.1-0.1v-0.2c-0.5-0.7-1.5-0.8-2.1-0.5c-0.4,0.3-0.6,0.6-0.8,1.4c-0.1,0.4,0,1.1,0.2,1.6
			c0.4,0.8,1.2,0.9,1.7,0.8c0.1,0,0.3-0.1,0.5-0.2c0.1-0.1,0.2-0.1,0.3-0.2c0.1-0.1,0.2-0.1,0.2-0.4l0-0.1l0.1-0.1l0.8,2.2l-0.1,0.1
			c-0.1-0.2-0.1-0.1-0.3,0l-0.1,0.1c-1,0.6-2.6,0.9-3.6-0.2c-0.7-0.8-0.9-1.8-0.9-2.9c0-0.9,0.1-2.1,0.8-3c1-1.4,2.4-1.1,3.5-0.5
			l0.4,0.2L359,178.7z"/>
		<path d="M361.5,178.2v0.2c0,0-0.1,0-0.2,0.2c0,0,0,0.4,0,0.4v0.8v1.1h2.1v-2.4l-0.2-0.2v-0.2h1.7v0.1l-0.2,0.1c0,0.1,0,0.2,0,0.4
			v6.1c0,0.1,0,0.3,0,0.3c0.1,0.2,0.1,0.1,0.2,0.2v0.2h-1.6v-0.2c0.1,0,0.1,0,0.2-0.2c0-0.1,0-0.3,0-0.4v-0.2c0-0.2,0-0.3,0-0.5
			v-1.6h-2.1v1.6c0,0.1,0,0.2,0,0.4v0.4c0,0.1,0,0.3,0,0.4c0.1,0.2,0.1,0.1,0.2,0.1v0.2h-1.7l0-0.2c0.1,0,0.2,0,0.2-0.2V185v-0.2
			c0-0.1,0-0.2,0-0.2v-6l-0.2-0.2l0-0.2H361.5z"/>
		<path d="M369.2,178.3v0.2l-0.1,0.1c0,0.1,0,0.3,0,0.4l1.4,6.3l0.1,0.3c0,0.2,0.1,0.2,0.1,0.2v0.1h-1.4l-0.1,0c0,0-0.1,0-0.1-0.1
			l0.2-0.2v-0.1v0v-0.1l0-0.1l-0.2-1.1h-1.9l-0.1,0.3c0,0.1-0.1,0.2-0.1,0.3l-0.1,0.3c0,0.1-0.1,0.2-0.1,0.3c0,0.1-0.1,0.2,0,0.3
			l0.1,0.1l0,0.1h-1.4v-0.2c0.1,0,0.1,0,0.2-0.2l0-0.1l0-0.1c0,0,0-0.1,0-0.2l1.4-6.3c0-0.1,0-0.1,0-0.2l0-0.1v0v-0.1h-0.1v-0.3
			H369.2z M368.8,183l-0.8-3.3l-0.7,3.3H368.8z"/>
		<path d="M373.3,178.3v0.2l-0.2,0.1v0.1l2,3.8v-3.9l-0.2-0.2l0-0.1h1.4l0,0.2c0,0-0.1,0.1-0.1,0.2v0.3v6.1c0,0,0,0.3,0,0.3
			c0,0.2,0.1,0.1,0.2,0.2v0.2h-1.5v-0.2l0.2-0.1v-0.1l-2.3-4.5v4.6l0.2,0.1v0.2h-1.4v-0.2c0.1,0,0.1-0.1,0.1-0.2c0-0.1,0-0.3,0-0.4
			v-6c0-0.1,0-0.2,0-0.3c0-0.2,0-0.2-0.2-0.2v-0.2H373.3z"/>
		<path d="M377.2,177.9c0,0.1,0,0.2,0.1,0.4c0,0,0.2,0,0.2,0h3.8v0.2l-2.3,5.6h1.9c0,0,0.2,0,0.2,0c0.1,0,0.1-0.2,0.1-0.3l0.1,0v2.4
			h-0.1c0-0.1,0-0.2-0.1-0.3c0,0-0.2,0-0.2,0h-4v-0.2l2.3-5.6h-1.7c0,0-0.2,0-0.2,0c-0.1,0.1-0.1,0.1-0.1,0.3l-0.1,0L377.2,177.9
			L377.2,177.9L377.2,177.9z"/>
		<path d="M386.3,177.8v2.5h-0.1c0-0.1,0-0.3-0.1-0.3c-0.1-0.1-0.2,0-0.2,0h-2.4v1.2h1c0.1,0,0.1,0,0.2,0h0.1c0,0,0.2,0,0.2,0
			c0.1,0,0.1-0.1,0.1-0.3h0.1v2.2h-0.1c0-0.1,0-0.2-0.1-0.3c0,0-0.2,0-0.2,0c0,0-0.1,0-0.2,0h-0.2h-1v1.4h2.4c0.3,0,0.2,0.1,0.4-0.4
			l0.1,0v2.5l-0.1-0.1c0-0.1,0-0.3-0.1-0.3c0,0-0.1,0-0.2,0h-3.8v-0.2c0.1,0,0.1,0,0.2-0.2c0,0,0-0.3,0-0.4v-6.6l-0.2-0.1v-0.2h3.8
			c0,0,0.2,0,0.2,0c0.1-0.1,0.1-0.2,0.1-0.4H386.3z"/>
		<path d="M389.9,178.2c0.3,0,1.2-0.1,1.6,1c0.2,0.7,0.3,1.7,0.1,2.4c-0.2,0.8-0.6,1.1-1,1.4l0.9,2.2c0,0,0.1,0.3,0.1,0.3
			c0.1,0.2,0.1,0.1,0.2,0.2l0,0.2H390v-0.2l0.2-0.2c0-0.1,0-0.2-0.1-0.4l-0.9-2.1h-0.8v2.2c0,0.1,0,0.4,0.1,0.5h0.1v0.2H387v-0.2
			c0,0,0.1-0.1,0.2-0.2c0,0,0-0.3,0-0.3v-6.6l-0.2-0.1v-0.2H389.9z M389.3,181.4c0.1,0,0.9,0.1,1.1-0.4c0.1-0.2,0.1-0.6,0-0.7
			c-0.2-0.6-1-0.4-1-0.4h-0.9v1.6L389.3,181.4L389.3,181.4z"/>
	</g>
	<g>
		<path d="M352.1,170.5v1.6h0c0-0.2,0-0.2-0.1-0.2c0,0-0.1,0-0.1,0h-1.6v0.9h0.8c0,0,0.1,0,0.1,0h0.1h0.1c0.1,0,0.1-0.1,0.1-0.2h0.1
			v1.6h-0.1c0-0.1,0-0.2-0.1-0.2c0,0-0.1,0-0.1,0H351h-0.8v0.9v0.6c0,0.4,0,0.3,0.2,0.4v0.1h-1.2v-0.1c0,0,0.1,0,0.2-0.1
			c0-0.1,0-0.2,0-0.3v-4c0-0.3,0-0.3-0.2-0.4v-0.1h2.6c0,0,0.1,0,0.2,0c0.1-0.1,0-0.1,0.1-0.2H352.1z"/>
		<path d="M355.7,171.1L355.7,171.1l-0.4,1.5l-0.1,0v-0.2c-0.4-0.5-1-0.6-1.4-0.3c-0.3,0.2-0.4,0.4-0.5,0.9c0,0.3,0,0.7,0.2,1.1
			c0.3,0.5,0.8,0.6,1.1,0.5c0.1,0,0.2-0.1,0.3-0.2c0,0,0.1-0.1,0.2-0.1c0.1-0.1,0.1-0.1,0.1-0.3l0-0.1l0-0.1l0.6,1.5l-0.1,0.1
			c-0.1-0.2-0.1-0.1-0.2,0l-0.1,0.1c-0.7,0.4-1.7,0.6-2.3-0.2c-0.5-0.5-0.6-1.2-0.6-1.9c0-0.6,0.1-1.4,0.5-2
			c0.7-0.9,1.6-0.7,2.3-0.4L355.7,171.1L355.7,171.1z"/>
		<path d="M358.8,170.8v0.1c0,0-0.1,0-0.1,0.2c0,0.1,0,0.3,0,0.3v3.9c0,0,0,0.2,0,0.2c0.1,0.1,0.1,0.1,0.2,0.1v0.1h-1.1v-0.1
			c0,0,0.1,0,0.1-0.2c0,0,0-0.2,0-0.3v-4c0-0.3,0-0.3-0.2-0.4v-0.1L358.8,170.8L358.8,170.8z"/>
		<path d="M360.5,170.8v0.1l-0.1,0.1v0.1l1.3,2.5V171l-0.1-0.1v-0.1h1l0,0.1c0,0-0.1,0-0.1,0.2v0.2v4.1c0,0.1,0,0.2,0,0.2
			c0,0.1,0,0.1,0.1,0.1v0.1h-1v-0.1l0.1-0.1v-0.1l-1.5-3v3.1l0.1,0.1v0.1h-0.9v-0.1c0,0,0.1,0,0.1-0.2c0,0,0-0.2,0-0.2v-4
			c0-0.1,0-0.1,0-0.2c0-0.1,0-0.1-0.1-0.2v-0.1H360.5z"/>
		<path d="M366,171.1L366,171.1l-0.3,1.3l-0.1-0.1v-0.1c-0.4-0.4-1.2-0.5-1.5-0.2c-0.3,0.2-0.4,0.6-0.4,1.1c0,0.4,0,1,0.3,1.3
			c0.4,0.5,1,0.4,1.5,0.2c0-0.1,0-0.3,0-0.3c0-0.1,0-0.2,0-0.3h-0.8l0,0.2h-0.1v-1.3l0.1,0l0,0.2h1.6v0.1h0l0,0.1v1
			c0,0.1,0,0.2,0,0.3v0.2c0,0.3,0,0.2,0.1,0.4c-0.8,0.7-2.1,1-2.8,0.3c-0.5-0.6-0.7-1.2-0.7-2c0-0.7,0.2-1.6,0.7-2.2
			c0.7-0.8,1.7-0.5,2.4,0L366,171.1z"/>
		<path d="M369.9,171.7c0.3,0.6,0.4,1.7,0.3,2.3c-0.1,0.8-0.5,1.4-1,1.7c-0.5,0.2-1.3,0.2-1.8-0.5c-0.5-0.6-0.5-1.4-0.5-2.1
			c0-0.8,0.2-1.5,0.8-1.9c0.2-0.2,0.4-0.3,0.6-0.3C368.6,170.7,369.4,170.8,369.9,171.7z M368,174.4c0.3,0.3,0.7,0.3,1,0.1
			c0.3-0.2,0.4-0.6,0.4-1.1c0-0.4,0-0.9-0.3-1.2c-0.3-0.4-0.7-0.4-1-0.2c-0.4,0.2-0.5,0.7-0.5,1.3
			C367.7,173.7,367.8,174.1,368,174.4z"/>
		<path d="M371.8,170.8v0.1c-0.2,0.1-0.2,0.1-0.2,0.4v0.1c0,0.1,0,0.1,0,0.2v3h1.7c0,0,0.1,0,0.1,0c0.1,0,0.1-0.1,0.1-0.2h0.1v1.5
			c0,0,0,0.1,0,0.1c0,0.1,0,0.1,0,0.1c-0.1-0.3-0.1-0.2-0.2-0.2h-2.7v-0.1c0.2-0.1,0.2,0,0.2-0.4v-4c0-0.4,0-0.3-0.2-0.4v-0.1
			L371.8,170.8L371.8,170.8z"/>
		<path d="M377.1,171l-0.4,1.3l0-0.1c0-0.2,0-0.2-0.1-0.3c0,0-0.1-0.1-0.2-0.1c-0.1-0.1-0.3-0.1-0.4-0.2c-0.2-0.1-0.8-0.1-1,0.2
			c0,0.1,0,0.2,0,0.3c0.1,0.2,0.5,0.3,0.5,0.3l0.6,0.1c0.4,0.1,0.9,0.1,1.1,1c0.1,0.4,0,1.1-0.2,1.5c-0.6,1.1-2,0.7-2.6,0.3
			l-0.1-0.1l-0.1,0.2l-0.1,0l0.4-1.7l0.1,0.1c0,0.2,0,0.2,0.1,0.4c0.3,0.4,1.1,0.6,1.5,0.4c0.1-0.1,0.2-0.2,0.3-0.4
			c0-0.1,0-0.2,0-0.3c-0.1-0.2-0.5-0.2-0.5-0.2l-0.5-0.1c-0.2,0-1-0.1-1.1-1c-0.1-0.4-0.1-0.9,0.1-1.3c0.5-1.1,1.6-0.7,2.2-0.5
			l0.2,0.1c0,0,0.1,0.1,0.1,0.1h0L377.1,171C377.1,171,377.1,171,377.1,171L377.1,171z"/>
		<path d="M377.7,170.6c0,0,0,0.2,0,0.2c0.1,0.1,0.1,0,0.1,0h2.4l0.2,0c0.1-0.1,0-0.1,0.1-0.2h0v1.7h0l-0.1-0.2h-0.9v3.6l0.1,0.1
			v0.1h-1.1v-0.1c0,0,0.1,0,0.1-0.2c0,0,0-0.2,0-0.3v-3c0-0.1,0-0.2,0-0.2h-1l-0.1,0.2h-0.1L377.7,170.6L377.7,170.6z"/>
		<path d="M383.5,170.8v0.1l-0.1,0.1c0,0.1,0,0.2,0,0.2l0.9,4.2l0.1,0.2c0,0.1,0,0.1,0.1,0.1v0.1h-0.9h-0.1c0,0,0,0,0-0.1l0.1-0.1v0
			v0v0l0-0.1l-0.1-0.7h-1.3l0,0.2c0,0,0,0.1-0.1,0.2l0,0.2c0,0.1,0,0.1,0,0.2c0,0.1-0.1,0.1,0,0.2l0.1,0v0.1h-0.9v-0.1
			c0,0,0.1,0,0.1-0.1v0v-0.1c0,0,0-0.1,0-0.1l0.9-4.1c0-0.1,0-0.1,0-0.1v-0.1v0v0h-0.1v-0.1L383.5,170.8L383.5,170.8z M383.2,173.9
			l-0.5-2.2l-0.5,2.2H383.2z"/>
		<path d="M386.5,170.8c0.5,0,1.1,0,1.5,1.1c0.2,0.7,0.2,2,0,2.7c-0.4,1.1-0.9,1.2-1.5,1.2H385v-0.1h0c0.1-0.1,0.1-0.2,0.1-0.3v-4.2
			c0,0,0-0.1,0-0.2l-0.1-0.1v-0.1H386.5z M387.3,174c0.2-0.4,0.1-1.1,0-1.5c-0.2-0.6-0.7-0.6-1-0.6h-0.4v2.7h0.4
			C386.6,174.6,387,174.8,387.3,174z"/>
		<path d="M388.7,170.6c0,0,0,0.2,0,0.2c0,0.1,0.1,0,0.1,0h2.4l0.2,0c0.1-0.1,0-0.1,0.1-0.2h0v1.7h0l-0.1-0.2h-1v3.6l0.1,0.1v0.1
			h-1.1v-0.1c0,0,0.1,0,0.1-0.2c0,0,0-0.2,0-0.3v-3c0-0.1,0-0.2,0-0.2h-1l-0.1,0.2h0L388.7,170.6L388.7,170.6z"/>
	</g>
	<g>
		<g>
			<defs>
				<path id="SVGID_12_" d="M370.5,168h-18.2c0,0,7.1-6.9,18.2-6.8c0,4.4,0,7.2,0,7.2"/>
			</defs>
			<clipPath id="SVGID_1_">
				<use xlink:href="#SVGID_12_"  style="overflow:visible;"/>
			</clipPath>
			<g style="clip-path:url(#SVGID_1_);">
				<rect x="352" y="160.3" class="st5" width="2.5" height="2.5"/>
				<rect x="354.5" y="160.3" width="2.5" height="2.5"/>
				<rect x="357" y="160.3" class="st5" width="2.5" height="2.5"/>
				<rect x="359.5" y="160.3" width="2.5" height="2.5"/>
				<rect x="362" y="160.3" class="st5" width="2.5" height="2.5"/>
				<rect x="364.5" y="160.3" width="2.5" height="2.5"/>
				<rect x="367" y="160.3" class="st5" width="2.5" height="2.5"/>
				<rect x="369.5" y="160.3" width="2.5" height="2.5"/>
				<rect x="352" y="162.8" width="2.5" height="2.5"/>
				<rect x="354.5" y="162.8" class="st5" width="2.5" height="2.5"/>
				<rect x="357" y="162.8" width="2.5" height="2.5"/>
				<rect x="359.5" y="162.8" class="st5" width="2.5" height="2.5"/>
				<rect x="362" y="162.8" width="2.5" height="2.5"/>
				<rect x="364.5" y="162.8" class="st5" width="2.5" height="2.5"/>
				<rect x="367" y="162.8" width="2.5" height="2.5"/>
				<rect x="352" y="165.3" class="st5" width="2.5" height="2.5"/>
				<rect x="354.5" y="165.3" width="2.5" height="2.5"/>
				<rect x="357" y="165.3" class="st5" width="2.5" height="2.5"/>
				<rect x="359.5" y="165.3" width="2.5" height="2.5"/>
				<rect x="362" y="165.3" class="st5" width="2.5" height="2.5"/>
				<rect x="364.5" y="165.3" width="2.5" height="2.5"/>
				<rect x="367" y="165.3" class="st5" width="2.5" height="2.5"/>
				<rect x="369.5" y="165.3" width="2.5" height="2.5"/>
				<rect x="369.5" y="162.8" class="st5" width="2.5" height="2.5"/>
				<rect x="352" y="167.5" width="2.5" height="2.5"/>
				<rect x="354.5" y="167.5" class="st5" width="2.5" height="2.5"/>
				<rect x="357" y="167.5" width="2.5" height="2.5"/>
				<rect x="359.5" y="167.5" class="st5" width="2.5" height="2.5"/>
				<rect x="362" y="167.5" width="2.5" height="2.5"/>
				<rect x="364.5" y="167.5" class="st5" width="2.5" height="2.5"/>
				<rect x="367" y="167.5" width="2.5" height="2.5"/>
				<rect x="369.5" y="167.5" class="st5" width="2.5" height="2.5"/>
			</g>
		</g>
	</g>
</g>
</svg>
