<?xml version="1.0" encoding="utf-8"?>
<!-- Generator: Adobe Illustrator 17.0.0, SVG Export Plug-In . SVG Version: 6.00 Build 0)  -->
<!DOCTYPE svg PUBLIC "-//W3C//DTD SVG 1.1//EN" "http://www.w3.org/Graphics/SVG/1.1/DTD/svg11.dtd" [
	<!ENTITY ns_flows "http://ns.adobe.com/Flows/1.0/">
	<!ENTITY ns_extend "http://ns.adobe.com/Extensibility/1.0/">
	<!ENTITY ns_ai "http://ns.adobe.com/AdobeIllustrator/10.0/">
	<!ENTITY ns_graphs "http://ns.adobe.com/Graphs/1.0/">
]>
<svg version="1.1" id="Layer_1" xmlns:x="&ns_extend;" xmlns:i="&ns_ai;" xmlns:graph="&ns_graphs;"
	 xmlns="http://www.w3.org/2000/svg" xmlns:xlink="http://www.w3.org/1999/xlink" xmlns:a="http://ns.adobe.com/AdobeSVGViewerExtensions/3.0/"
	 x="0px" y="0px" width="600px" height="600px" viewBox="0 0 600 600" style="enable-background:new 0 0 600 600;"
	 xml:space="preserve">
<style type="text/css">
	.st0{fill:#0068B4;}
	.st1{fill:#9400A6;}
	.st2{fill:#FFFFFF;}
	.st3{fill:#D2D705;}
	.st4{fill:#7A9E04;}
	.st5{fill:#C272D7;stroke:#000000;stroke-miterlimit:10;}
	.st6{fill:#FFFFFF;stroke:#000000;stroke-miterlimit:10;}
	.st7{fill:#7C0014;}
	.st8{fill:#E0DE71;stroke:#000000;stroke-miterlimit:10;}
	.st9{fill:#CC5C9B;}
	.st10{fill:#B91F75;}
	.st11{fill:#C8218D;stroke:#000000;stroke-miterlimit:10;}
	.st12{fill:#EBA79C;stroke:#000000;stroke-miterlimit:10;}
	.st13{fill:#FF7D6F;}
	.st14{fill:#FE5561;}
	.st15{stroke:#000000;stroke-miterlimit:10;}
	.st16{fill:#10792E;}
	.st17{fill:#5F546E;}
	.st18{fill:#10792E;stroke:#000000;stroke-miterlimit:10;}
	.st19{fill:#C8218D;}
	.st20{fill:#C7CCC4;}
	.st21{fill:#A7DCF3;stroke:#000000;stroke-miterlimit:10;}
	.st22{fill:#49B7E7;}
	.st23{fill:#CB5E22;stroke:#000000;stroke-miterlimit:10;}
	.st24{fill:url(#SVGID_1_);}
	.st25{fill:url(#SVGID_2_);}
	.st26{fill:url(#SVGID_3_);}
	.st27{fill:url(#SVGID_4_);}
	.st28{fill:url(#SVGID_5_);}
	.st29{fill:#242424;stroke:#CB5E22;stroke-miterlimit:10;}
	.st30{fill:#2A2A2A;stroke:#000000;stroke-miterlimit:10;}
	.st31{fill:#5F5F5F;}
	.st32{fill:#2A2A2A;stroke:#FFFFFF;stroke-miterlimit:10;}
	.st33{fill:#C82321;}
	.st34{fill:#FF8075;stroke:#000000;stroke-miterlimit:10;}
	.st35{fill:#FF5A4A;}
	.st36{fill:#FF056D;stroke:#FF8075;stroke-miterlimit:10;}
	.st37{fill:#0075FA;stroke:#000000;stroke-miterlimit:10;}
	.st38{fill:#FF056D;}
	.st39{fill:#0066AE;}
	.st40{fill:#FF056D;stroke:#0075FA;stroke-miterlimit:10;}
	.st41{fill:#EDF3F8;stroke:#000000;stroke-miterlimit:10;}
	.st42{fill:#1D1D1B;stroke:#EDF3F8;stroke-miterlimit:10;}
	.st43{fill:#CFB114;}
	.st44{fill:#22A2A9;}
	.st45{fill:#C2BEC8;}
	.st46{fill:#10792E;stroke:#FFFFFF;stroke-miterlimit:10;}
	.st47{fill:#F6FF14;stroke:#000000;stroke-miterlimit:10;}
	.st48{fill:none;stroke:#87C000;stroke-width:8;stroke-linecap:round;stroke-miterlimit:10;}
	.st49{fill:#DEE200;}
	.st50{fill:#008290;}
	.st51{fill:#FFB7B1;}
	.st52{fill:#9400A6;stroke:#000000;stroke-miterlimit:10;}
	.st53{fill:#DF6B54;stroke:#000000;stroke-miterlimit:10;}
	.st54{fill:#C13323;}
	.st55{fill:#5E0089;}
	.st56{fill:#FDB05F;stroke:#000000;stroke-miterlimit:10;}
	.st57{fill:none;stroke:#000000;stroke-miterlimit:10;}
	.st58{fill:#435338;}
	.st59{fill:#580088;}
	.st60{fill:#EBA79C;}
	.st61{fill:#FE5561;stroke:#EBA79C;stroke-miterlimit:10;}
	.st62{fill:#F78100;}
	.st63{fill:#FDB05F;}
	.st64{fill:#8E48D8;stroke:#000000;stroke-miterlimit:10;}
	.st65{fill:#5D22A5;}
	.st66{fill:#87D971;stroke:#000000;stroke-miterlimit:10;}
	.st67{fill:#B8EDA4;}
	.st68{fill:#4EC23A;}
	.st69{fill:#2F2428;}
	.st70{fill:#CD0A36;}
	.st71{fill:#4C4C4C;}
	.st72{fill:#146EE4;stroke:#000000;stroke-miterlimit:10;}
	.st73{fill:#79B2FF;}
	.st74{fill:none;stroke:#79B2FF;stroke-width:11;stroke-miterlimit:10;}
	.st75{fill:#0055B8;}
	.st76{fill:#307DDB;}
	.st77{fill:#4F435F;}
	.st78{fill:#212025;}
	.st79{fill:none;stroke:#67D700;stroke-width:8;stroke-miterlimit:10;}
	.st80{fill:#B1BBBE;stroke:#000000;stroke-miterlimit:10;}
	.st81{fill:#8A8B97;}
	.st82{fill:#505C66;stroke:#747785;stroke-miterlimit:10;}
	.st83{fill:#06D0CC;stroke:#000000;stroke-miterlimit:10;}
	.st84{fill:#0299AF;stroke:#000000;stroke-miterlimit:10;}
	.st85{fill:#019DBA;}
	.st86{fill:#CAC5C0;}
	.st87{fill:#0453BC;}
	.st88{fill:#535353;}
	.st89{fill:#EA772F;stroke:#000000;stroke-miterlimit:10;}
	.st90{fill:#1F2427;}
	.st91{fill:#E05900;}
	.st92{fill:#A8A8B4;}
	.st93{fill:#005898;}
	.st94{fill:#79B2FF;stroke:#000000;stroke-miterlimit:10;}
	.st95{fill:#1D3F89;}
	.st96{fill:#E87140;stroke:#000000;stroke-miterlimit:10;}
	.st97{fill:#002F55;}
	.st98{fill:#59504E;stroke:#000000;stroke-miterlimit:10;}
	.st99{fill:#505C66;}
	.st100{fill:#4D99E4;}
	.st101{fill:#F7A161;}
	.st102{fill:#C13323;stroke:#F7A161;stroke-miterlimit:10;}
	.st103{fill:#D24D91;stroke:#000000;stroke-miterlimit:10;}
	.st104{fill:#923EB9;}
	.st105{fill:#D24D91;}
	.st106{fill:#1C232F;stroke:#D24D91;stroke-miterlimit:10;}
	.st107{fill:#0E7B95;stroke:#000000;stroke-miterlimit:10;}
	.st108{fill:#005E8F;}
	.st109{fill:#E2187D;stroke:#000000;stroke-miterlimit:10;}
	.st110{fill:#00A0EB;stroke:#000000;stroke-miterlimit:10;}
	.st111{fill:#C51971;}
	.st112{fill:#E2187D;}
	.st113{fill:#67D700;stroke:#000000;stroke-miterlimit:10;}
	.st114{fill:#48A333;}
	.st115{fill:#67D700;}
	.st116{fill:#8E48D8;}
	.st117{stroke:#A0A0A0;stroke-miterlimit:10;}
	.st118{fill:#87D971;}
	.st119{fill:#4EC23A;stroke:#000000;stroke-miterlimit:10;}
	.st120{fill:#C72365;}
	.st121{fill:none;stroke:#0453BC;stroke-miterlimit:10;}
	.st122{fill:#9712C5;}
	.st123{fill:#307DDB;stroke:#000000;stroke-miterlimit:10;}
	.st124{fill:#D53D1F;}
	.st125{fill:#A9007C;}
	.st126{fill:#CDCB20;}
	.st127{fill:#48A333;stroke:#B1C49B;stroke-miterlimit:10;}
	.st128{fill:none;stroke:#48A333;stroke-width:4;stroke-miterlimit:10;}
	.st129{fill:#5A1F8E;}
	.st130{fill:none;stroke:#5A1F8E;stroke-width:3;stroke-miterlimit:10;}
	.st131{fill:#5A1F8E;stroke:#CC5C9B;stroke-miterlimit:10;}
	.st132{fill:#E81C2F;}
	.st133{fill:#FFEE34;}
	.st134{fill:none;stroke:#024598;stroke-width:8;stroke-linecap:round;stroke-miterlimit:10;}
	.st135{fill:none;stroke:#1D1D1B;stroke-width:4;stroke-miterlimit:10;}
	.st136{fill:none;stroke:#FF056D;stroke-width:6;stroke-linecap:round;stroke-miterlimit:10;}
	.st137{fill:#7A8504;}
	.st138{fill:#121617;stroke:#7A8504;stroke-miterlimit:10;}
	.st139{fill:none;stroke:#00268A;stroke-width:6;stroke-linecap:round;stroke-miterlimit:10;}
	.st140{fill:#145863;}
	.st141{fill:#145863;stroke:#22A2A9;stroke-miterlimit:10;}
	.st142{fill:#54B948;}
	.st143{fill:#6F00A6;stroke:#000000;stroke-miterlimit:10;}
	.st144{fill:none;stroke:#FFFFFF;stroke-width:6;stroke-miterlimit:10;}
	.st145{fill:#14DEAC;}
	.st146{fill:#1466AC;}
	.st147{fill:#757575;}
	.st148{fill:none;stroke:#CD0A36;stroke-width:8;stroke-miterlimit:10;}
	.st149{fill:none;stroke:#67D700;stroke-width:40;stroke-miterlimit:10;}
	.st150{fill:#CD0A36;stroke:#000000;stroke-miterlimit:10;}
	.st151{fill:#ED1C24;}
	.st152{fill:none;stroke:#505C66;stroke-width:3;stroke-miterlimit:10;}
	.st153{fill:none;stroke:#06D0CC;stroke-width:3;stroke-miterlimit:10;}
	.st154{fill:#007AC2;}
	.st155{fill:#EF3D1F;}
	.st156{stroke:#EA772F;stroke-miterlimit:10;}
	.st157{fill:#0068B4;stroke:#000000;stroke-miterlimit:10;}
	.st158{fill:#9712C5;stroke:#000000;stroke-miterlimit:10;}
	.st159{fill:#3D8D28;stroke:#000000;stroke-miterlimit:10;}
	.st160{fill:#68ED3A;}
	.st161{fill:#3D8D28;stroke:#FFFFFF;stroke-miterlimit:10;}
	.st162{fill:#68ED3A;stroke:#000000;stroke-miterlimit:10;}
	.st163{fill:#68ED3A;stroke:#FFFFFF;stroke-miterlimit:10;}
	.st164{fill:#00317D;}
	.st165{fill:#00737D;}
	.st166{fill:#146EE4;}
	.st167{fill:#4D99E4;stroke:#000000;stroke-miterlimit:10;}
	.st168{fill:none;stroke:#FFFFFF;stroke-width:11;stroke-miterlimit:10;}
	.st169{fill:#224754;}
	.st170{fill:#0E7B95;}
	.st171{fill:#FF8400;stroke:#000000;stroke-miterlimit:10;}
	.st172{fill:#00A0EB;}
	.st173{fill:#B9187D;}
	.st174{fill:#015297;}
	.st175{fill:#B0B0B0;}
	.st176{fill:#E1062F;}
	.st177{fill:#005BAB;}
</style>
<path class="st6" d="M6.1,342.8C40.7,232.2,21.2,187.2,67.7,94.2c10.5-21,71.9-57.8,135.8-73.2c0,0,109.7-25.5,180.5-3.5
	s140.3,53.3,151.9,80c35.7,82.1,31.2,191.6,59.7,243.7c-12.5,1.2-81.3,14.4-109.3,19.7c-2.4-7.3-13.4-60-13.4-60s3.2,248,3.2,270
	c-0.2,19-92.8,24-180.8,24s-167.5-10-167.5-26.9c0-16.8,1.1-262.1,1.1-262.1s-3.3,23.3-8.3,56.1C91.3,361.9,16.4,344,6.1,342.8z"/>
<g>
	<g>
		<path class="st2" d="M234.5,28.7C247.3,46,269,62.5,305.1,62.5c36.2,0,56.3-16.8,67.4-34.5C342.2,31.1,266.9,30.8,234.5,28.7z"/>
		<path class="st7" d="M375.1,1c-17.6,5.3-142.2,2.9-148.6,0.6c-0.1,0.3-0.3,0.7-0.5,1.1c2.2,7.1,6.3,17.5,13.7,27.5
			c29.5,1.9,97.9,2.2,125.6-0.6c6.2-9.9,9.4-20.2,10.9-27.3C375.8,1.8,375.4,1.4,375.1,1z"/>
	</g>
	<path class="st7" d="M376.2,2.3c-4.1,18.7-19,58.7-72.2,58.7c-53.9,0-72.4-40.1-78-58.3c-2.9,5.3-15.1,16-15.1,16
		s15.6,61.7,91.1,61.7c76.5,0,86.6-58.7,87.7-63.1C387.6,16.4,380.4,6.9,376.2,2.3z"/>
</g>
<path class="st6" d="M6.1,342.8C40.7,232.2,21.2,187.2,67.7,94.2c10.5-21,71.9-57.8,135.8-73.2c0,0,109.7-25.5,180.5-3.5
	s140.3,53.3,151.9,80c35.7,82.1,31.2,191.6,59.7,243.7c-12.5,1.2-81.3,14.4-109.3,19.7c-2.4-7.3-13.4-60-13.4-60s3.2,248,3.2,270
	c-0.2,19-92.8,24-180.8,24s-167.5-10-167.5-26.9c0-16.8,1.1-262.1,1.1-262.1s-3.3,23.3-8.3,56.1C91.3,361.9,16.4,344,6.1,342.8z"/>
<g>
	<g>
		<path class="st2" d="M234.5,28.7C247.3,46,269,62.5,305.1,62.5c36.2,0,56.3-16.8,67.4-34.5C342.2,31.1,266.9,30.8,234.5,28.7z"/>
		<path class="st7" d="M375.1,1c-17.6,5.3-142.2,2.9-148.6,0.6c-0.1,0.3-0.3,0.7-0.5,1.1c2.2,7.1,6.3,17.5,13.7,27.5
			c29.5,1.9,97.9,2.2,125.6-0.6c6.2-9.9,9.4-20.2,10.9-27.3C375.8,1.8,375.4,1.4,375.1,1z"/>
	</g>
	<path class="st7" d="M376.2,2.3c-4.1,18.7-19,58.7-72.2,58.7c-53.9,0-72.4-40.1-78-58.3c-2.9,5.3-15.1,16-15.1,16
		s15.6,61.7,91.1,61.7c76.5,0,86.6-58.7,87.7-63.1C387.6,16.4,380.4,6.9,376.2,2.3z"/>
</g>
<path class="st89" d="M6.1,342.8C40.7,232.2,21.2,187.2,67.7,94.2c10.5-21,71.9-57.8,135.8-73.2c0,0,109.7-25.5,180.5-3.5
	s140.3,53.3,151.9,80c35.7,82.1,31.2,191.6,59.7,243.7c-12.5,1.2-81.3,14.4-109.3,19.7c-2.4-7.3-13.4-60-13.4-60s3.2,248,3.2,270
	c-0.2,19-92.8,24-180.8,24s-167.5-10-167.5-26.9c0-16.8,1.1-262.1,1.1-262.1s-3.3,23.3-8.3,56.1C91.3,361.9,16.4,344,6.1,342.8z"/>
<path class="st90" d="M473.6,301.1c0,0,10.7,52,13.1,59.3c28-5.4,95.7-18.4,108.2-19.7c-28.5-52.1-24-161.6-59.7-243.7l-4.7-7.5
	c0,0-36.4,2.4-51.6,60.4c-3.1,12.4-5.8,24.3-7.3,36.9c-4.6,38-2.4,77.3,1,114.1C472.6,301.5,473.6,300.5,473.6,301.1z"/>
<path class="st90" d="M128.5,306c0,0-6.2,48.4-8.6,55.6C83.2,359.9,19,343.7,6.5,342.5C27,277,28.3,238.3,37.7,181.3
	c2.4-15,8.9-35.9,15.5-53.2c6.9-17.8,13.9-31.6,14.6-33.1c1.3-3,6.4-9.2,6.4-9.2s34.3,3.6,49.6,61.5c3.1,12.4,5.8,24.3,7.3,36.9
	c4.6,38,1.8,84.8-1.6,121.7C129,306.1,128.8,306,128.5,306z"/>
<path class="st91" d="M73.8,85.9c0,0,77.1,9.2,55.7,220c-0.9,166-1.1,253.8-1.1,255.9c0,3.2-0.6,7.5,0.8,9.2
	c0.7,1.1,1.7,2.3,3.4,3.5c4.7,3.4,13.4,6.6,25.2,9.1c-14.2-11.6-10.9-42.8-9.8-72.1c1.1-29.4-24-95.4-3-199.4
	c6.8-33.6-5.5-74.9-6-84C135,160.4,122.6,94.6,73.8,85.9z"/>
<path class="st91" d="M530.2,89c0,0-79.2,0.7-57.7,211.5c2.1,168.9,3.2,265.3,3.2,264.5c0-2.3,0,2.4,0,6.2c0,1.3-0.7,2.6-0.9,2.9
	c-0.7,1.1-2,2.2-3.6,3.4c-4.7,3.4-13.3,5.9-25.1,8.2c14.2-11.6,11.1-41.8,10-71.2c-1.1-29.4,24-95.4,3-199.4
	c-6.8-33.6,1.5-83.4,2-92.4C465,155.1,483.7,92,530.2,89z"/>
<g>
	<rect x="241" y="52" width="8" height="542"/>
</g>
<g>
	<rect x="269" y="75" width="8" height="520"/>
</g>
<g>
	<rect x="297" y="75" width="8" height="520"/>
</g>
<g>
	<rect x="325" y="75" width="8" height="520"/>
</g>
<g>
	<rect x="353" y="58" width="8" height="536"/>
</g>
<g>
	<rect x="379" y="24" width="8" height="569"/>
</g>
<g>
	<polygon points="415,590.5 407,591.7 407,25.4 415,27.8 	"/>
</g>
<g>
	<polygon points="443,587 435,588.1 435,35.2 443,38.4 	"/>
</g>
<g>
	<polygon points="471,578.3 463,581.9 463,46.6 471,50.2 	"/>
</g>
<g>
	<polygon points="497,128 489,128 489,59 497,63.3 	"/>
</g>
<g>
	<polygon points="137,577.5 129,571.8 129,48.3 137,44.5 	"/>
</g>
<g>
	<polygon points="109,118 101,118 101,64.2 109,59.3 	"/>
</g>
<g>
	<polygon points="165,585.7 157,584 157,35.7 165,32.7 	"/>
</g>
<g>
	<polygon points="193,589.9 185,589 185,26 193,23.7 	"/>
</g>
<g>
	<rect x="213" y="25" width="8" height="567"/>
</g>
<g>
	<g>
		<path class="st89" d="M234.5,28.7C247.3,46,269,62.5,305.1,62.5c36.2,0,56.3-16.8,67.4-34.5C342.2,31.1,266.9,30.8,234.5,28.7z"/>
		<path class="st156" d="M375.1,1c-17.6,5.3-142.2,2.9-148.6,0.6c-0.1,0.3-0.3,0.7-0.5,1.1c2.2,7.1,6.3,17.5,13.7,27.5
			c29.5,1.9,97.9,2.2,125.6-0.6c6.2-9.9,9.4-20.2,10.9-27.3C375.8,1.8,375.4,1.4,375.1,1z"/>
	</g>
	<path class="st156" d="M376.2,2.3c-4.1,18.7-19,58.7-72.2,58.7c-53.9,0-72.4-40.1-78-58.3c-2.9,5.3-15.1,16-15.1,16
		s15.6,61.7,91.1,61.7c76.5,0,86.6-58.7,87.7-63.1C387.6,16.4,380.4,6.9,376.2,2.3z"/>
</g>
<g>
	<g>
		<path class="st164" d="M333.8,136.4H271c0,0-0.1,7.2-0.1,15.2h62.9C333.8,143.7,333.8,136.4,333.8,136.4z"/>
		<path class="st165" d="M270.9,151.7c-0.1,6-0.1,12.4-0.1,16.2c0,17.5,14.1,31.6,31.5,31.6s31.5-14.2,31.5-31.6c0-3.4,0-9.9,0-16.1
			L270.9,151.7L270.9,151.7z"/>
	</g>
	<g>
		<path class="st2" d="M276.9,140L276.9,140l-0.9,0.4l-0.2-0.9l1.2-0.6h1v4.6h-1.2V140z"/>
		<path class="st2" d="M280.2,143.6c-0.4,0-0.7-0.3-0.7-0.7c0-0.4,0.3-0.8,0.7-0.8s0.7,0.3,0.7,0.8
			C280.9,143.3,280.6,143.6,280.2,143.6L280.2,143.6z"/>
		<path class="st2" d="M282.8,138.7h2.8v1h-1.6v0.9h1.5v1h-1.5v1.9h-1.2C282.8,143.5,282.8,138.7,282.8,138.7z"/>
		<path class="st2" d="M287.7,138.7v2.8c0,0.7,0.2,1.1,0.6,1.1c0.4,0,0.6-0.3,0.6-1.1v-2.8h1.2v2.7c0,1.4-0.6,2.2-1.9,2.2
			s-1.9-0.8-1.9-2.2v-2.7H287.7z"/>
		<path class="st2" d="M291.1,142.3c0.3,0.1,0.7,0.3,1.1,0.3c0.4,0,0.6-0.2,0.6-0.4c0-0.2-0.2-0.4-0.7-0.6c-0.8-0.4-1.2-0.8-1.2-1.4
			c0-0.8,0.6-1.5,1.9-1.5c0.5,0,0.9,0.1,1.1,0.2l-0.2,1c-0.2-0.1-0.5-0.2-0.9-0.2c-0.4,0-0.6,0.2-0.6,0.4c0,0.2,0.2,0.4,0.8,0.6
			c0.8,0.3,1.2,0.8,1.2,1.4c0,0.8-0.7,1.5-2,1.5c-0.5,0-1-0.1-1.3-0.2L291.1,142.3z"/>
		<path class="st2" d="M294.7,142.3c0.3,0.1,0.7,0.3,1.1,0.3c0.4,0,0.6-0.2,0.6-0.4c0-0.2-0.2-0.4-0.7-0.6c-0.8-0.4-1.2-0.8-1.2-1.4
			c0-0.8,0.7-1.5,1.9-1.5c0.5,0,0.9,0.1,1.1,0.2l-0.2,1c-0.2-0.1-0.5-0.2-0.9-0.2c-0.4,0-0.6,0.2-0.6,0.4c0,0.2,0.2,0.4,0.8,0.6
			c0.8,0.3,1.1,0.8,1.1,1.4c0,0.8-0.6,1.5-2,1.5c-0.5,0-1-0.1-1.3-0.2L294.7,142.3z"/>
		<path class="st2" d="M298.4,138.8c0.3-0.1,0.9-0.1,1.4-0.1c0.6,0,1,0.1,1.4,0.3c0.4,0.2,0.6,0.5,0.6,0.9c0,0.4-0.2,0.8-0.8,1v0
			c0.6,0.1,0.9,0.6,0.9,1.1c0,0.4-0.2,0.8-0.5,1c-0.4,0.3-0.9,0.4-1.9,0.4c-0.5,0-0.9,0-1.1-0.1V138.8z M299.6,140.6h0.2
			c0.5,0,0.7-0.2,0.7-0.5s-0.2-0.5-0.6-0.5c-0.2,0-0.3,0-0.4,0V140.6z M299.6,142.7c0.1,0,0.2,0,0.3,0c0.4,0,0.7-0.2,0.7-0.6
			c0-0.4-0.4-0.6-0.8-0.6h-0.3C299.6,141.5,299.6,142.7,299.6,142.7z"/>
		<path class="st2" d="M303.7,142.5l-0.2,1h-1.2l1.3-4.8h1.6l1.3,4.8h-1.3l-0.3-1C304.8,142.5,303.7,142.5,303.7,142.5z
			 M304.7,141.6l-0.2-0.9c-0.1-0.3-0.1-0.7-0.2-1h0c-0.1,0.3-0.2,0.7-0.2,1l-0.2,0.9H304.7z"/>
		<path class="st2" d="M307,138.7h1.2v3.8h1.6v1H307V138.7z"/>
		<path class="st2" d="M310.4,138.7h1.2v3.8h1.6v1h-2.9V138.7z"/>
		<path class="st2" d="M316.9,143.4c-0.2,0.1-0.6,0.2-1,0.2c-1.7,0-2.4-1.1-2.4-2.4c0-1.7,1.2-2.6,2.5-2.6c0.5,0,0.9,0.1,1.1,0.2
			l-0.2,1c-0.2-0.1-0.4-0.1-0.8-0.1c-0.7,0-1.2,0.4-1.2,1.4c0,0.9,0.5,1.4,1.3,1.4c0.2,0,0.6-0.1,0.7-0.1L316.9,143.4z"/>
		<path class="st2" d="M317.6,138.7h1.2v3.8h1.6v1h-2.9V138.7z"/>
		<path class="st2" d="M322.1,138.7v2.8c0,0.7,0.2,1.1,0.7,1.1c0.4,0,0.6-0.3,0.6-1.1v-2.8h1.2v2.7c0,1.4-0.7,2.2-1.9,2.2
			s-1.8-0.8-1.8-2.2v-2.7H322.1z"/>
		<path class="st2" d="M325.4,138.8c0.3-0.1,0.9-0.1,1.4-0.1c0.6,0,1,0.1,1.4,0.3c0.4,0.2,0.6,0.5,0.6,0.9c0,0.4-0.2,0.8-0.8,1v0
			c0.6,0.1,0.9,0.6,0.9,1.1c0,0.4-0.2,0.8-0.5,1c-0.4,0.3-0.9,0.4-1.9,0.4c-0.5,0-0.9,0-1.2-0.1V138.8L325.4,138.8z M326.7,140.6
			h0.2c0.5,0,0.7-0.2,0.7-0.5s-0.2-0.5-0.6-0.5c-0.2,0-0.3,0-0.4,0V140.6L326.7,140.6z M326.7,142.7c0.1,0,0.2,0,0.3,0
			c0.4,0,0.7-0.2,0.7-0.6c0-0.4-0.3-0.6-0.8-0.6h-0.3V142.7L326.7,142.7z"/>
		<path class="st2" d="M275.9,145v1.8h1.4V145h1.2v4.8h-1.2v-1.9H276v1.9h-1.2V145H275.9z"/>
		<path class="st2" d="M282.1,147.9h-1.5v0.9h1.7v1h-2.9V145h2.9v1h-1.6v0.8h1.5L282.1,147.9L282.1,147.9z"/>
		<path class="st2" d="M284.3,145v4.8H283V145H284.3z"/>
		<path class="st2" d="M285.1,145.1c0.3-0.1,0.8-0.1,1.4-0.1c0.9,0,1.4,0.1,1.8,0.5c0.5,0.4,0.8,1,0.8,1.9c0,1-0.3,1.6-0.8,2
			c-0.5,0.4-1.2,0.5-2,0.5c-0.5,0-0.9,0-1.1-0.1C285.1,149.8,285.1,145.1,285.1,145.1z M286.3,148.9c0.1,0,0.2,0,0.2,0
			c0.7,0,1.2-0.4,1.2-1.6c0-0.9-0.5-1.4-1.1-1.4c-0.1,0-0.2,0-0.3,0L286.3,148.9L286.3,148.9z"/>
		<path class="st2" d="M292.5,147.9H291v0.9h1.7v1h-2.9V145h2.9v1H291v0.8h1.5L292.5,147.9L292.5,147.9z"/>
		<path class="st2" d="M293.4,149.8V145h1.4l0.8,1.6c0.2,0.4,0.5,1.1,0.7,1.6h0c0-0.6-0.1-1.3-0.1-2.1v-1h1.1v4.8h-1.2l-0.8-1.6
			c-0.2-0.5-0.5-1.1-0.7-1.6h0c0,0.6,0.1,1.3,0.1,2.2v1.1L293.4,149.8L293.4,149.8z"/>
		<path class="st2" d="M299.3,145v1.8h1.3V145h1.2v4.8h-1.2v-1.9h-1.3v1.9h-1.2V145H299.3z"/>
		<path class="st2" d="M305.5,147.9H304v0.9h1.7v1h-3V145h2.9v1H304v0.8h1.5V147.9z"/>
		<path class="st2" d="M307.6,145v4.8h-1.2V145H307.6z"/>
		<path class="st2" d="M312.2,148.2c0-0.5,0-1.1,0-1.8h0c-0.1,0.6-0.3,1.3-0.4,1.8l-0.4,1.6h-1l-0.4-1.6c-0.1-0.4-0.2-1.1-0.3-1.8h0
			c0,0.6,0,1.3-0.1,1.8l-0.1,1.7h-1.1l0.3-4.8h1.5l0.3,1.3c0.1,0.6,0.3,1.2,0.4,1.8h0c0.1-0.6,0.3-1.2,0.4-1.8l0.4-1.3h1.5l0.2,4.8
			h-1.2L312.2,148.2z"/>
		<path class="st2" d="M316.6,146.3L316.6,146.3l-0.9,0.4l-0.2-0.9l1.2-0.6h1v4.6h-1.2L316.6,146.3L316.6,146.3z"/>
		<path class="st2" d="M320.8,145.1c1,0,1.5,0.6,1.5,1.2c0,0.4-0.2,0.8-0.6,1v0c0.4,0.2,0.8,0.5,0.8,1.1c0,0.9-0.7,1.4-1.8,1.4
			c-1.1,0-1.7-0.6-1.7-1.3c0-0.6,0.3-0.9,0.8-1.1v0c-0.4-0.2-0.6-0.6-0.6-1C319.2,145.6,319.9,145.1,320.8,145.1L320.8,145.1z
			 M320.8,149.1c0.3,0,0.5-0.2,0.5-0.5c0-0.4-0.3-0.6-0.6-0.7c-0.2,0.1-0.4,0.3-0.4,0.6S320.5,149.1,320.8,149.1L320.8,149.1z
			 M320.8,145.9c-0.3,0-0.4,0.2-0.4,0.5s0.2,0.4,0.5,0.6c0.2-0.1,0.3-0.3,0.3-0.5C321.2,146.2,321.1,145.9,320.8,145.9L320.8,145.9z
			"/>
		<path class="st2" d="M324.7,149.8v-1.1h-1.9V148l1.6-2.8h1.4v2.7h0.5v0.9h-0.5v1.1H324.7z M324.7,147.9v-0.8c0-0.3,0-0.6,0.1-0.8
			h0c-0.1,0.3-0.2,0.5-0.4,0.8l-0.4,0.8v0C323.9,147.9,324.7,147.9,324.7,147.9z"/>
		<path class="st2" d="M329.7,146.1c-0.1,0-0.2,0-0.4,0c-0.8,0.1-1.2,0.4-1.3,0.9h0c0.2-0.2,0.5-0.3,0.9-0.3c0.7,0,1.3,0.6,1.3,1.5
			c0,0.9-0.6,1.7-1.6,1.7c-1.2,0-1.8-0.9-1.8-2c0-0.9,0.3-1.6,0.8-2.1c0.4-0.4,1-0.6,1.7-0.6c0.2,0,0.4,0,0.5,0V146.1z M328.5,149
			c0.3,0,0.5-0.3,0.5-0.8c0-0.3-0.1-0.7-0.5-0.7c-0.2,0-0.4,0.1-0.5,0.3c0,0.1,0,0.2,0,0.3C327.9,148.6,328.1,149,328.5,149
			L328.5,149z"/>
	</g>
	<path class="st2" d="M289.1,156.9c-9.2,7.5-9.6,22.7,0.5,29.9c3,1.7,5.5,3,8.9,3c2-0.2,3.8-0.4,5.5-1.3
		c-9.3,1.3-18.2-5.5-19.1-14.8c0-1.7-0.2-3.2,0-4.9c0.5-2.6,1.4-4.6,3-7c1.7-2.1,3.6-3.5,6.2-5.2c1.3-0.9,2.8-1.2,4.5-1.6
		c3-0.8,6-0.8,8.9,0c2.6,0.4,5.3,1.9,7.6,3.8c1.4,1.1,2.7,2.3,3.8,3.8c1.5,2,2.5,4.2,3.2,6.2c0.6,1.4,1,3.3,0.9,4
		c0,1-0.1,1.3-0.1,1.3s0.1-0.5-0.4-2.1c-2.4-12-16.8-21.3-28.2-14.1c13.4-5.2,30,6.6,25.7,22.3c-1.3,3.4-2.4,5.6-5.4,8.6
		c-2.3,2.4-4.1,3.5-7.2,4.2c-4.9,1.3-8.9,1.3-13.5,0.2c-3-1-3.4-1.1-3.4-1.1s0.3,0.1,2.8,0.8c14,3.7,26.4-5.4,25.6-18.2
		c-0.1-1.5-0.4-2.8-0.9-4.2c1,11.6-8.5,22.4-21.2,20.8c-2.5-0.4-5.6-1.4-7.7-3.1c-3-2.5-5-5.4-6.3-8.8c-0.4-1.7-1.3-3.2-1.3-5.5
		c0-4.3,0.5-6.9,1.7-10.2c1.3-2.6,1.9-3.1,2.8-4.3C288.2,157.4,289.1,156.9,289.1,156.9z"/>
	<g>
		<circle class="st151" cx="301.5" cy="172.4" r="11.5"/>
		<g>
			<path class="st2" d="M297.6,172.5c0,0.1-0.1,0.2-0.2,0.2h-4c-0.1,0-0.2,0.1-0.2,0.2v2.7c0,0.2-0.1,0.2-0.2,0.2h-1
				c-0.1,0-0.2-0.1-0.2-0.3v-7.2c0-0.1,0.1-0.2,0.2-0.2h5.4c0.1,0,0.2,0.1,0.2,0.2v0.9c0,0.2-0.1,0.2-0.2,0.2h-4
				c-0.1,0-0.2,0.1-0.2,0.2v1.3c0,0.2,0.1,0.2,0.2,0.2h4c0.1,0,0.2,0.1,0.2,0.2V172.5z"/>
			<path class="st2" d="M304.4,174.3c0,0.5-0.1,0.9-0.5,1.2c-0.3,0.3-0.7,0.5-1.2,0.5h-2.6c-0.4,0-0.9-0.2-1.2-0.5
				c-0.3-0.3-0.5-0.7-0.5-1.2v-4.5c0-0.4,0.1-0.9,0.5-1.2c0.3-0.3,0.7-0.5,1.2-0.5h2.6c0.5,0,0.9,0.1,1.2,0.5
				c0.3,0.3,0.5,0.7,0.5,1.2v0.9c0,0.1-0.1,0.2-0.2,0.2h-0.9c-0.2,0-0.2-0.1-0.2-0.2v-0.9c0-0.2-0.1-0.2-0.2-0.2h-2.6
				c-0.1,0-0.2,0.1-0.2,0.2v4.5c0,0.2,0.1,0.2,0.2,0.2h2.6c0.1,0,0.2-0.1,0.2-0.2v-1.1c0-0.2,0.1-0.2,0.2-0.2h0.9
				c0.2,0,0.2,0.1,0.2,0.2V174.3z"/>
			<path class="st2" d="M311.2,175.7c0,0.1-0.1,0.2-0.2,0.2h-1c-0.1,0-0.2-0.1-0.2-0.2v-3.2c0-0.1-0.1-0.2-0.2-0.2H307
				c-0.1,0-0.2,0.1-0.2,0.2v3.2c0,0.1-0.1,0.2-0.2,0.2h-1c-0.1,0-0.2-0.1-0.2-0.2v-7.3c0-0.1,0.1-0.2,0.2-0.2h1
				c0.1,0,0.2,0.1,0.2,0.2v2.3c0,0.1,0.1,0.2,0.2,0.2h2.6c0.1,0,0.2-0.1,0.2-0.2v-2.3c0-0.1,0.1-0.2,0.2-0.2h1
				c0.1,0,0.2,0.1,0.2,0.2V175.7z"/>
		</g>
	</g>
</g>
</svg>
