<?xml version="1.0" encoding="utf-8"?>
<!-- Generator: Adobe Illustrator 17.0.0, SVG Export Plug-In . SVG Version: 6.00 Build 0)  -->
<!DOCTYPE svg PUBLIC "-//W3C//DTD SVG 1.1//EN" "http://www.w3.org/Graphics/SVG/1.1/DTD/svg11.dtd" [
	<!ENTITY ns_flows "http://ns.adobe.com/Flows/1.0/">
	<!ENTITY ns_extend "http://ns.adobe.com/Extensibility/1.0/">
	<!ENTITY ns_ai "http://ns.adobe.com/AdobeIllustrator/10.0/">
	<!ENTITY ns_graphs "http://ns.adobe.com/Graphs/1.0/">
]>
<svg version="1.1" id="Layer_1" xmlns:x="&ns_extend;" xmlns:i="&ns_ai;" xmlns:graph="&ns_graphs;"
	 xmlns="http://www.w3.org/2000/svg" xmlns:xlink="http://www.w3.org/1999/xlink" xmlns:a="http://ns.adobe.com/AdobeSVGViewerExtensions/3.0/"
	 x="0px" y="0px" width="600px" height="600px" viewBox="0 0 600 600" style="enable-background:new 0 0 600 600;"
	 xml:space="preserve">
<style type="text/css">
	.st0{fill:#0068B4;}
	.st1{fill:#9400A6;}
	.st2{fill:#FFFFFF;}
	.st3{fill:#D2D705;}
	.st4{fill:#7A9E04;}
	.st5{fill:#C272D7;stroke:#000000;stroke-miterlimit:10;}
	.st6{fill:#FFFFFF;stroke:#000000;stroke-miterlimit:10;}
	.st7{fill:#7C0014;}
	.st8{fill:#E0DE71;stroke:#000000;stroke-miterlimit:10;}
	.st9{fill:#CC5C9B;}
	.st10{fill:#B91F75;}
	.st11{fill:#C8218D;stroke:#000000;stroke-miterlimit:10;}
	.st12{fill:#EBA79C;stroke:#000000;stroke-miterlimit:10;}
	.st13{fill:#FF7D6F;}
	.st14{fill:#FE5561;}
	.st15{stroke:#000000;stroke-miterlimit:10;}
	.st16{fill:#10792E;}
	.st17{fill:#5F546E;}
	.st18{fill:#10792E;stroke:#000000;stroke-miterlimit:10;}
	.st19{fill:#C8218D;}
	.st20{fill:#C7CCC4;}
	.st21{fill:#A7DCF3;stroke:#000000;stroke-miterlimit:10;}
	.st22{fill:#49B7E7;}
	.st23{fill:#CB5E22;stroke:#000000;stroke-miterlimit:10;}
	.st24{fill:url(#SVGID_1_);}
	.st25{fill:url(#SVGID_2_);}
	.st26{fill:url(#SVGID_3_);}
	.st27{fill:url(#SVGID_4_);}
	.st28{fill:url(#SVGID_5_);}
	.st29{fill:#242424;stroke:#CB5E22;stroke-miterlimit:10;}
	.st30{fill:#2A2A2A;stroke:#000000;stroke-miterlimit:10;}
	.st31{fill:#5F5F5F;}
	.st32{fill:#2A2A2A;stroke:#FFFFFF;stroke-miterlimit:10;}
	.st33{fill:#C82321;}
	.st34{fill:#FF8075;stroke:#000000;stroke-miterlimit:10;}
	.st35{fill:#FF5A4A;}
	.st36{fill:#FF056D;stroke:#FF8075;stroke-miterlimit:10;}
	.st37{fill:#0075FA;stroke:#000000;stroke-miterlimit:10;}
	.st38{fill:#FF056D;}
	.st39{fill:#0066AE;}
	.st40{fill:#FF056D;stroke:#0075FA;stroke-miterlimit:10;}
	.st41{fill:#EDF3F8;stroke:#000000;stroke-miterlimit:10;}
	.st42{fill:#1D1D1B;stroke:#EDF3F8;stroke-miterlimit:10;}
	.st43{fill:#CFB114;}
	.st44{fill:#22A2A9;}
	.st45{fill:#C2BEC8;}
	.st46{fill:#10792E;stroke:#FFFFFF;stroke-miterlimit:10;}
	.st47{fill:#F6FF14;stroke:#000000;stroke-miterlimit:10;}
	.st48{fill:none;stroke:#87C000;stroke-width:8;stroke-linecap:round;stroke-miterlimit:10;}
	.st49{fill:#DEE200;}
	.st50{fill:#008290;}
	.st51{fill:#FFB7B1;}
	.st52{fill:#9400A6;stroke:#000000;stroke-miterlimit:10;}
	.st53{fill:#DF6B54;stroke:#000000;stroke-miterlimit:10;}
	.st54{fill:#C13323;}
	.st55{fill:#5E0089;}
	.st56{fill:#FDB05F;stroke:#000000;stroke-miterlimit:10;}
	.st57{fill:none;stroke:#000000;stroke-miterlimit:10;}
	.st58{fill:#435338;}
	.st59{fill:#580088;}
	.st60{fill:#EBA79C;}
	.st61{fill:#FE5561;stroke:#EBA79C;stroke-miterlimit:10;}
	.st62{fill:#F78100;}
	.st63{fill:#FDB05F;}
	.st64{fill:#8E48D8;stroke:#000000;stroke-miterlimit:10;}
	.st65{fill:#5D22A5;}
	.st66{fill:#87D971;stroke:#000000;stroke-miterlimit:10;}
	.st67{fill:#B8EDA4;}
	.st68{fill:#4EC23A;}
	.st69{fill:#2F2428;}
	.st70{fill:#CD0A36;}
	.st71{fill:#4C4C4C;}
	.st72{fill:#146EE4;stroke:#000000;stroke-miterlimit:10;}
	.st73{fill:#79B2FF;}
	.st74{fill:none;stroke:#79B2FF;stroke-width:11;stroke-miterlimit:10;}
	.st75{fill:#0055B8;}
	.st76{fill:#307DDB;}
	.st77{fill:#4F435F;}
	.st78{fill:#212025;}
	.st79{fill:none;stroke:#67D700;stroke-width:8;stroke-miterlimit:10;}
	.st80{fill:#B1BBBE;stroke:#000000;stroke-miterlimit:10;}
	.st81{fill:#8A8B97;}
	.st82{fill:#505C66;stroke:#747785;stroke-miterlimit:10;}
	.st83{fill:#06D0CC;stroke:#000000;stroke-miterlimit:10;}
	.st84{fill:#0299AF;stroke:#000000;stroke-miterlimit:10;}
	.st85{fill:#019DBA;}
	.st86{fill:#CAC5C0;}
	.st87{fill:#0453BC;}
	.st88{fill:#535353;}
	.st89{fill:#EA772F;stroke:#000000;stroke-miterlimit:10;}
	.st90{fill:#1F2427;}
	.st91{fill:#E05900;}
	.st92{fill:#A8A8B4;}
	.st93{fill:#005898;}
	.st94{fill:#79B2FF;stroke:#000000;stroke-miterlimit:10;}
	.st95{fill:#1D3F89;}
	.st96{fill:#E87140;stroke:#000000;stroke-miterlimit:10;}
	.st97{fill:#002F55;}
	.st98{fill:#59504E;stroke:#000000;stroke-miterlimit:10;}
	.st99{fill:#505C66;}
	.st100{fill:#4D99E4;}
	.st101{fill:#F7A161;}
	.st102{fill:#C13323;stroke:#F7A161;stroke-miterlimit:10;}
	.st103{fill:#D24D91;stroke:#000000;stroke-miterlimit:10;}
	.st104{fill:#923EB9;}
	.st105{fill:#D24D91;}
	.st106{fill:#1C232F;stroke:#D24D91;stroke-miterlimit:10;}
	.st107{fill:#0E7B95;stroke:#000000;stroke-miterlimit:10;}
	.st108{fill:#005E8F;}
	.st109{fill:#E2187D;stroke:#000000;stroke-miterlimit:10;}
	.st110{fill:#00A0EB;stroke:#000000;stroke-miterlimit:10;}
	.st111{fill:#C51971;}
	.st112{fill:#E2187D;}
	.st113{fill:#67D700;stroke:#000000;stroke-miterlimit:10;}
	.st114{fill:#48A333;}
	.st115{fill:#67D700;}
	.st116{fill:#8E48D8;}
	.st117{stroke:#A0A0A0;stroke-miterlimit:10;}
	.st118{fill:#87D971;}
	.st119{fill:#4EC23A;stroke:#000000;stroke-miterlimit:10;}
	.st120{fill:#C72365;}
	.st121{fill:none;stroke:#0453BC;stroke-miterlimit:10;}
	.st122{fill:#9712C5;}
	.st123{fill:#307DDB;stroke:#000000;stroke-miterlimit:10;}
	.st124{fill:#D53D1F;}
	.st125{fill:#A9007C;}
	.st126{fill:#CDCB20;}
	.st127{fill:#48A333;stroke:#B1C49B;stroke-miterlimit:10;}
	.st128{fill:none;stroke:#48A333;stroke-width:4;stroke-miterlimit:10;}
	.st129{fill:#5A1F8E;}
	.st130{fill:none;stroke:#5A1F8E;stroke-width:3;stroke-miterlimit:10;}
	.st131{fill:#5A1F8E;stroke:#CC5C9B;stroke-miterlimit:10;}
	.st132{fill:#E81C2F;}
	.st133{fill:#FFEE34;}
	.st134{fill:none;stroke:#024598;stroke-width:8;stroke-linecap:round;stroke-miterlimit:10;}
	.st135{fill:none;stroke:#1D1D1B;stroke-width:4;stroke-miterlimit:10;}
	.st136{fill:none;stroke:#FF056D;stroke-width:6;stroke-linecap:round;stroke-miterlimit:10;}
	.st137{fill:#7A8504;}
	.st138{fill:#121617;stroke:#7A8504;stroke-miterlimit:10;}
	.st139{fill:none;stroke:#00268A;stroke-width:6;stroke-linecap:round;stroke-miterlimit:10;}
	.st140{fill:#145863;}
	.st141{fill:#145863;stroke:#22A2A9;stroke-miterlimit:10;}
	.st142{fill:#54B948;}
	.st143{fill:#6F00A6;stroke:#000000;stroke-miterlimit:10;}
	.st144{fill:none;stroke:#FFFFFF;stroke-width:6;stroke-miterlimit:10;}
	.st145{fill:#14DEAC;}
	.st146{fill:#1466AC;}
	.st147{fill:#757575;}
	.st148{fill:none;stroke:#CD0A36;stroke-width:8;stroke-miterlimit:10;}
	.st149{fill:none;stroke:#67D700;stroke-width:40;stroke-miterlimit:10;}
	.st150{fill:#CD0A36;stroke:#000000;stroke-miterlimit:10;}
	.st151{fill:#ED1C24;}
	.st152{fill:none;stroke:#505C66;stroke-width:3;stroke-miterlimit:10;}
	.st153{fill:none;stroke:#06D0CC;stroke-width:3;stroke-miterlimit:10;}
	.st154{fill:#007AC2;}
	.st155{fill:#EF3D1F;}
	.st156{stroke:#EA772F;stroke-miterlimit:10;}
	.st157{fill:#0068B4;stroke:#000000;stroke-miterlimit:10;}
	.st158{fill:#9712C5;stroke:#000000;stroke-miterlimit:10;}
	.st159{fill:#3D8D28;stroke:#000000;stroke-miterlimit:10;}
	.st160{fill:#68ED3A;}
	.st161{fill:#3D8D28;stroke:#FFFFFF;stroke-miterlimit:10;}
	.st162{fill:#68ED3A;stroke:#000000;stroke-miterlimit:10;}
	.st163{fill:#68ED3A;stroke:#FFFFFF;stroke-miterlimit:10;}
	.st164{fill:#00317D;}
	.st165{fill:#00737D;}
	.st166{fill:#146EE4;}
	.st167{fill:#4D99E4;stroke:#000000;stroke-miterlimit:10;}
	.st168{fill:none;stroke:#FFFFFF;stroke-width:11;stroke-miterlimit:10;}
	.st169{fill:#224754;}
	.st170{fill:#0E7B95;}
	.st171{fill:#FF8400;stroke:#000000;stroke-miterlimit:10;}
	.st172{fill:#00A0EB;}
	.st173{fill:#B9187D;}
	.st174{fill:#015297;}
	.st175{fill:#B0B0B0;}
	.st176{fill:#E1062F;}
	.st177{fill:#005BAB;}
</style>
<path class="st94" d="M594.5,576.2c0-93.6-20.8-396.5-56.5-478.7c-11.6-26.7-84.7-58.1-155.5-80.1c-24.8-7.7-54.1-9.9-81.7-9.4
	c-27.8-0.6-61.4,1.3-86.4,9.1C143.6,39.2,74.6,70.8,63,97.5C27.2,179.7,6.5,482.7,6.5,576.2c8.8,6.4,17.7,7.6,67.5,9.8
	c10-134,52-285,52-285s-4.1,248-4.1,270c0.2,18.6,87.7,23.8,173.7,24v0c1,0,2.5,0,3.5,0c1,0,2.5,0,3.5,0v0c86-0.2,175-5.4,175.2-24
	c0-22-2.9-270-2.9-270s42.1,151,52.1,285C576.6,583.8,585.7,582.7,594.5,576.2z"/>
<path class="st100" d="M532.2,89c0,0-79.3-1.7-57.9,209c2.1,168.9,3.3,267.8,3.3,267c0-2.3,0,2.4,0,6.2c0,1.3-0.7,2.6-0.9,2.9
	c-0.7,1.1-2,2.2-3.6,3.4c-4.7,3.4-13.3,5.9-25.1,8.2c14.2-11.6,11.1-41.8,10-71.2c-1.1-29.4,24-95.4,3-199.4
	c-6.8-33.6,1.5-83.4,2-92.4C467,155.1,485.7,92,532.2,89z"/>
<path class="st100" d="M70.3,88.7c0,0,77.4-1.2,56,209.6c-0.1,19.5-0.4,38.7-0.7,57c-0.3,17.3-0.4,33.7-0.7,49.4
	c-0.6,35.5-0.9,66.1-1.3,88.6c-0.7,46.5-0.8,70.5-0.8,71.6c0,3.2-0.6,7.5,0.8,9.2c0.7,1.1,1.7,2.3,3.4,3.5
	c4.7,3.4,15.3,6.5,27.3,8.8c-14.2-11.6-10.9-42.8-9.8-72.1c1.1-29.4-24-95.4-3-199.4c6.8-33.6-5.5-74.9-6-84
	C131.6,163.3,119.2,97.4,70.3,88.7z"/>
<path class="st166" d="M416,590c-68-92-8-276,18-386S376,46,376,46H224c0,0-84,48-58,158s86.4,293.8,18.4,385.8c0,0,26.1,2.1,58,3.4
	c19.8,0.8,42,1.1,61.1,1.1C353.7,594.3,416,590,416,590z"/>
<g>
	<g>
		<path class="st94" d="M227.5,28.7C240.3,46,262,62.5,298.1,62.5c36.2,0,56.3-16.8,67.4-34.5C335.2,31.1,259.9,30.8,227.5,28.7z"/>
		<path class="st167" d="M368.1,1c-17.6,5.3-142.2,2.9-148.6,0.6c-0.1,0.3-0.3,0.7-0.5,1.1c2.2,7.1,6.3,17.5,13.7,27.5
			c29.5,1.9,97.9,2.2,125.6-0.6c6.2-9.9,9.4-20.2,10.9-27.3C368.8,1.8,368.4,1.4,368.1,1z"/>
	</g>
	<path class="st167" d="M369.2,2.3c-4.1,18.7-19,58.7-72.2,58.7c-53.9,0-72.4-40.1-78-58.3c-2.9,5.3-13.9,16.7-13.9,16.7
		s14.4,61,89.9,61c76.5,0,86.6-58.7,87.7-63.1C380.6,16.4,373.4,6.9,369.2,2.3z"/>
</g>
<path class="st168" d="M581,580c-1-30-3.6-140.2-19-258c-27-206-46.4-229.9-46.4-229.9s-49.9-39.3-142.4-60.6"/>
<path class="st168" d="M19,580c1-30,3.6-140.2,19-258C65,116,84.4,92.1,84.4,92.1s49.9-39.3,142.4-60.6"/>
<path class="st166" d="M209,21l15,27c0,0-105.6,35.5-113.6,73.5c-2-5-10.5-26.8-40.9-31.6c4-5.9,13.8-15.4,49-33.6
	C138.7,45.8,167.1,33.6,209,21z"/>
<path class="st166" d="M382.8,18.9l-14,27.5c0,0,108.5,38.3,117.9,76c1.8-5.1,20.3-30.5,44.6-33.5c-4.2-5.7-26.3-23.5-65.5-39.6
	C444.8,40.8,424.6,32.2,382.8,18.9z"/>
<g>
	<g>
		<g>
			<path d="M327.4,205.7c-15.5,17.2-36.8-10.5-52.3,6.7c-1.9-14.7-3.8-29.4-5.6-44c15.5-17.2,36.8,10.5,52.3-6.7
				C323.6,176.4,325.5,191.1,327.4,205.7z M276.6,208.6c14.7-12.8,34,9.7,48.7-3.1c-1.7-13.4-3.4-26.7-5.1-40.1
				c-14.7,12.8-34-9.7-48.7,3.1C273.2,181.9,274.9,195.3,276.6,208.6z"/>
		</g>
		<g>
			<path class="st2" d="M273.3,189.6c0.9,7,1.8,13.7,2.7,20.7c15.1-14.8,35.4,10.3,50.5-4.8c-0.9-7-1.8-13.7-2.7-20.7
				C308.7,199.9,288.4,174.8,273.3,189.6z"/>
			<path class="st177" d="M321.1,163.6c-15.1,15.1-35.4-9.9-50.5,4.8c0.9,7.1,1.8,14.1,2.7,21.1c15.2-14.8,35.4,10.3,50.5-4.8
				C322.9,177.7,322,170.7,321.1,163.6z"/>
		</g>
		<g>
			<path class="st177" d="M278.7,191c0.2,1.3,0.3,2.7,0.5,4c0.6-0.3,1.1-0.5,1.7-0.7c-0.2-1.3-0.3-2.7-0.5-4
				c0.5-0.2,1.1-0.3,1.6-0.4c0.5,3.6,0.9,7.1,1.4,10.6c-0.5,0.1-1.1,0.2-1.6,0.4c-0.2-1.4-0.4-2.8-0.5-4.2c-0.6,0.2-1.1,0.4-1.7,0.7
				c0.2,1.4,0.4,2.8,0.5,4.2c-0.5,0.2-1,0.5-1.6,0.8c-0.5-3.6-0.9-7.1-1.4-10.6C277.6,191.5,278.2,191.2,278.7,191z"/>
			<path class="st177" d="M285.4,197.3c0.1,0.7,0.6,1,1.3,1c0.4,0,0.8-0.1,1.2-0.3c0.1,0.6,0.3,1.2,0.5,1.9
				c-0.5,0.3-1.1,0.4-1.6,0.4c-1.6,0.1-2.6-1.2-3-3.7c-0.2-2.1,0.2-4.3,1.8-4.3c1.4,0,2.3,1.7,2.6,3.9c0.1,0.5,0.1,0.9,0.1,1.1
				C287.3,197.2,286.3,197.2,285.4,197.3z M286.5,195.4c-0.1-0.5-0.3-1.3-0.8-1.3c-0.5,0-0.6,0.8-0.5,1.4
				C285.6,195.4,286,195.4,286.5,195.4z"/>
			<path class="st177" d="M288.7,195c-0.1-1.1-0.2-1.9-0.4-2.6c0.5,0.1,1,0.1,1.4,0.2c0.1,0.4,0.2,0.9,0.2,1.3c0,0,0,0,0.1,0
				c0.1-1,0.6-1.3,1-1.3c0.1,0,0.2,0,0.3,0.1c0.1,0.9,0.2,1.7,0.3,2.6c-0.1,0-0.2-0.1-0.4-0.1c-0.4-0.1-0.8,0.1-0.8,0.8
				c0,0.1,0,0.3,0,0.6c0.1,1.3,0.3,2.6,0.5,3.8c-0.6-0.1-1.1-0.2-1.7-0.2C289.1,198.5,288.9,196.8,288.7,195z"/>
			<path class="st177" d="M293.9,191.3c0.1,0.7,0.2,1.4,0.3,2.2c0.3,0.1,0.7,0.2,1,0.2c0.1,0.6,0.2,1.3,0.2,2
				c-0.4-0.1-0.7-0.2-1-0.2c0.1,0.8,0.2,1.7,0.3,2.5c0.1,0.9,0.3,1.3,0.7,1.4c0.2,0,0.2,0.1,0.4,0c0.1,0.7,0.2,1.4,0.3,2.1
				c-0.2,0-0.5,0-1-0.1c-0.5-0.1-0.9-0.5-1.2-0.9c-0.3-0.5-0.6-1.3-0.8-2.5c-0.1-1-0.2-1.9-0.4-2.9c-0.2-0.1-0.4-0.1-0.6-0.1
				c-0.1-0.7-0.2-1.3-0.2-2c0.2,0.1,0.4,0.1,0.6,0.1c0-0.5-0.1-0.9-0.2-1.4C292.9,191.5,293.4,191.4,293.9,191.3z"/>
			<path class="st177" d="M295.6,190.6c0.6,0.2,1.1,0.3,1.8,0.5c0.2,1.4,0.3,2.8,0.5,4.1h0c0.1-0.2,0.3-0.4,0.5-0.5
				c0.2-0.1,0.4-0.1,0.7-0.1c1.1,0.3,1.8,1.8,2.1,3.9c0.2,1.5,0.4,3,0.6,4.5c-0.6-0.2-1.1-0.3-1.8-0.5c-0.2-1.4-0.4-2.9-0.5-4.3
				c-0.1-0.8-0.3-1.4-0.8-1.6c-0.3-0.1-0.4,0.1-0.5,0.4c0,0.1,0,0.3,0,0.5c0.2,1.5,0.4,3.1,0.6,4.6c-0.6-0.2-1.1-0.3-1.8-0.5
				C296.5,198,296,194.3,295.6,190.6z"/>
			<path class="st177" d="M306.6,202.5c0.1,0.8,0.2,1.4,0.3,1.9c-0.5-0.1-1-0.2-1.5-0.4c0-0.2-0.1-0.5-0.2-0.7h0
				c-0.2,0.6-0.7,0.7-1.2,0.5c-0.9-0.2-1.7-1.5-1.9-2.9c-0.3-2.1,0.8-2.6,2.3-2.2c0,0,0-0.1,0-0.1c-0.1-0.4-0.3-0.7-0.9-0.9
				c-0.5-0.1-1,0-1.2,0.2c-0.2-0.6-0.4-1.2-0.5-1.8c0.3-0.2,0.9-0.4,1.9-0.1c1.7,0.4,2.4,2.1,2.6,3.9
				C306.3,200.7,306.4,201.6,306.6,202.5z M304.7,200.4c-0.6-0.2-1,0-0.9,0.8c0.1,0.5,0.3,0.9,0.6,0.9c0.2,0.1,0.4-0.1,0.5-0.5
				c0-0.1,0-0.2,0-0.4C304.7,200.9,304.7,200.7,304.7,200.4z"/>
			<path class="st177" d="M306.6,194.1c0.4-0.1,1.2,0,1.9,0.1c0.9,0.1,1.5,0.3,2,0.8c0.5,0.4,0.9,1.2,1.1,2.2
				c0.1,0.9-0.1,1.8-0.8,2.2c0,0,0,0,0,0.1c0.9,0.4,1.4,1.4,1.6,2.6c0.1,0.9,0,1.7-0.4,2.2c-0.4,0.6-1.1,0.9-2.5,0.7
				c-0.7-0.1-1.3-0.3-1.6-0.4C307.5,201.1,307,197.6,306.6,194.1z M308.8,198.4c0.1,0,0.2,0,0.3,0.1c0.6,0.1,0.9-0.4,0.8-1.1
				c-0.1-0.7-0.4-1.1-1-1.2c-0.2,0-0.4-0.1-0.5,0C308.6,197,308.7,197.7,308.8,198.4z M309.4,202.9c0.1,0.1,0.2,0.1,0.5,0.1
				c0.5,0.1,0.9-0.3,0.8-1.2c-0.1-0.9-0.6-1.3-1.2-1.4c-0.1,0-0.2,0-0.4,0C309.1,201.2,309.3,202.1,309.4,202.9z"/>
			<path class="st177" d="M313.5,202.5c0.4,0.3,1,0.6,1.6,0.5c0.6-0.1,0.8-0.4,0.8-1c-0.1-0.6-0.4-0.8-1.1-1.2
				c-1.2-0.7-1.9-1.7-2.1-3.1c-0.2-1.9,0.5-3.3,2.1-3.5c0.7-0.1,1.2,0,1.6,0.2c0,0.8,0,1.5,0,2.3c-0.3-0.1-0.7-0.3-1.3-0.2
				c-0.5,0.1-0.8,0.4-0.7,0.9c0.1,0.5,0.4,0.8,1.2,1.2c1.2,0.6,1.8,1.5,1.9,2.9c0.2,1.8-0.4,3.6-2.2,3.8c-0.7,0.1-1.4-0.2-1.8-0.5
				C313.5,204,313.5,203.3,313.5,202.5z"/>
			<path class="st177" d="M322.8,202.3c-0.2,0.3-0.6,0.9-1.3,1.2c-2.1,1.1-3.4-1.3-3.8-4.1c-0.5-3.8,0.8-6,2.5-6.9
				c0.6-0.3,1.1-0.5,1.4-0.4c0,0.8,0,1.6,0,2.3c-0.2,0-0.6,0-1,0.2c-0.9,0.5-1.5,1.8-1.2,4c0.2,2,1,2.9,2,2.4
				c0.3-0.2,0.7-0.5,0.9-0.8C322.5,201,322.6,201.6,322.8,202.3z"/>
		</g>
	</g>
	<path d="M277.2,219.9l-7.1-54.6c0.8-0.5,1.3-1.3,1.3-2.2c0-1.4-1.2-2.6-2.6-2.6s-2.6,1.2-2.6,2.6c0,1.2,0.9,2.3,2.1,2.5l7.1,54.6
		c0,0,0.2,0.9,0.9,0.8C277.3,220.8,277.2,219.9,277.2,219.9z"/>
</g>
</svg>
