<?xml version="1.0" encoding="utf-8"?>
<!-- Generator: Adobe Illustrator 17.0.0, SVG Export Plug-In . SVG Version: 6.00 Build 0)  -->
<!DOCTYPE svg PUBLIC "-//W3C//DTD SVG 1.1//EN" "http://www.w3.org/Graphics/SVG/1.1/DTD/svg11.dtd" [
	<!ENTITY ns_flows "http://ns.adobe.com/Flows/1.0/">
	<!ENTITY ns_extend "http://ns.adobe.com/Extensibility/1.0/">
	<!ENTITY ns_ai "http://ns.adobe.com/AdobeIllustrator/10.0/">
	<!ENTITY ns_graphs "http://ns.adobe.com/Graphs/1.0/">
]>
<svg version="1.1" id="Layer_1" xmlns:x="&ns_extend;" xmlns:i="&ns_ai;" xmlns:graph="&ns_graphs;"
	 xmlns="http://www.w3.org/2000/svg" xmlns:xlink="http://www.w3.org/1999/xlink" xmlns:a="http://ns.adobe.com/AdobeSVGViewerExtensions/3.0/"
	 x="0px" y="0px" width="600px" height="600px" viewBox="0 0 600 600" style="enable-background:new 0 0 600 600;"
	 xml:space="preserve">
<style type="text/css">
	.st0{fill:#0068B4;}
	.st1{fill:#9400A6;}
	.st2{fill:#FFFFFF;}
	.st3{fill:#D2D705;}
	.st4{fill:#7A9E04;}
	.st5{fill:#C272D7;stroke:#000000;stroke-miterlimit:10;}
	.st6{fill:#FFFFFF;stroke:#000000;stroke-miterlimit:10;}
	.st7{fill:#7C0014;}
	.st8{fill:#E0DE71;stroke:#000000;stroke-miterlimit:10;}
	.st9{fill:#CC5C9B;}
	.st10{fill:#B91F75;}
	.st11{fill:#C8218D;stroke:#000000;stroke-miterlimit:10;}
	.st12{fill:#EBA79C;stroke:#000000;stroke-miterlimit:10;}
	.st13{fill:#FF7D6F;}
	.st14{fill:#FE5561;}
	.st15{stroke:#000000;stroke-miterlimit:10;}
	.st16{fill:#10792E;}
	.st17{fill:#5F546E;}
	.st18{fill:#10792E;stroke:#000000;stroke-miterlimit:10;}
	.st19{fill:#C8218D;}
	.st20{fill:#C7CCC4;}
	.st21{fill:#A7DCF3;stroke:#000000;stroke-miterlimit:10;}
	.st22{fill:#49B7E7;}
	.st23{fill:#CB5E22;stroke:#000000;stroke-miterlimit:10;}
	.st24{fill:url(#SVGID_1_);}
	.st25{fill:url(#SVGID_2_);}
	.st26{fill:url(#SVGID_3_);}
	.st27{fill:url(#SVGID_4_);}
	.st28{fill:url(#SVGID_5_);}
	.st29{fill:#242424;stroke:#CB5E22;stroke-miterlimit:10;}
	.st30{fill:#2A2A2A;stroke:#000000;stroke-miterlimit:10;}
	.st31{fill:#5F5F5F;}
	.st32{fill:#2A2A2A;stroke:#FFFFFF;stroke-miterlimit:10;}
	.st33{fill:#C82321;}
	.st34{fill:#FF8075;stroke:#000000;stroke-miterlimit:10;}
	.st35{fill:#FF5A4A;}
	.st36{fill:#FF056D;stroke:#FF8075;stroke-miterlimit:10;}
	.st37{fill:#0075FA;stroke:#000000;stroke-miterlimit:10;}
	.st38{fill:#FF056D;}
	.st39{fill:#0066AE;}
	.st40{fill:#FF056D;stroke:#0075FA;stroke-miterlimit:10;}
	.st41{fill:#EDF3F8;stroke:#000000;stroke-miterlimit:10;}
	.st42{fill:#1D1D1B;stroke:#EDF3F8;stroke-miterlimit:10;}
	.st43{fill:#CFB114;}
	.st44{fill:#22A2A9;}
	.st45{fill:#C2BEC8;}
	.st46{fill:#10792E;stroke:#FFFFFF;stroke-miterlimit:10;}
	.st47{fill:#F6FF14;stroke:#000000;stroke-miterlimit:10;}
	.st48{fill:none;stroke:#87C000;stroke-width:8;stroke-linecap:round;stroke-miterlimit:10;}
	.st49{fill:#DEE200;}
	.st50{fill:#008290;}
	.st51{fill:#FFB7B1;}
	.st52{fill:#9400A6;stroke:#000000;stroke-miterlimit:10;}
	.st53{fill:#DF6B54;stroke:#000000;stroke-miterlimit:10;}
	.st54{fill:#C13323;}
	.st55{fill:#5E0089;}
	.st56{fill:#FDB05F;stroke:#000000;stroke-miterlimit:10;}
	.st57{fill:none;stroke:#000000;stroke-miterlimit:10;}
	.st58{fill:#435338;}
	.st59{fill:#580088;}
	.st60{fill:#EBA79C;}
	.st61{fill:#FE5561;stroke:#EBA79C;stroke-miterlimit:10;}
	.st62{fill:#F78100;}
	.st63{fill:#FDB05F;}
	.st64{fill:#8E48D8;stroke:#000000;stroke-miterlimit:10;}
	.st65{fill:#5D22A5;}
	.st66{fill:#87D971;stroke:#000000;stroke-miterlimit:10;}
	.st67{fill:#B8EDA4;}
	.st68{fill:#4EC23A;}
	.st69{fill:#2F2428;}
	.st70{fill:#CD0A36;}
	.st71{fill:#4C4C4C;}
	.st72{fill:#146EE4;stroke:#000000;stroke-miterlimit:10;}
	.st73{fill:#79B2FF;}
	.st74{fill:none;stroke:#79B2FF;stroke-width:11;stroke-miterlimit:10;}
	.st75{fill:#0055B8;}
	.st76{fill:#1853A6;}
	.st77{fill:#CB0000;}
	.st78{fill:#307DDB;}
	.st79{fill:#4F435F;}
	.st80{fill:#212025;}
	.st81{fill:none;stroke:#67D700;stroke-width:8;stroke-miterlimit:10;}
	.st82{fill:#B1BBBE;stroke:#000000;stroke-miterlimit:10;}
	.st83{fill:#8A8B97;}
	.st84{fill:#505C66;stroke:#747785;stroke-miterlimit:10;}
	.st85{fill:#06D0CC;stroke:#000000;stroke-miterlimit:10;}
	.st86{fill:#0299AF;stroke:#000000;stroke-miterlimit:10;}
	.st87{fill:#019DBA;}
	.st88{fill:#CAC5C0;}
	.st89{fill:#0453BC;}
	.st90{fill:#535353;}
	.st91{fill:#EA772F;stroke:#000000;stroke-miterlimit:10;}
	.st92{fill:#1F2427;}
	.st93{fill:#E05900;}
	.st94{fill:#A8A8B4;}
	.st95{fill:#005898;}
	.st96{fill:#79B2FF;stroke:#000000;stroke-miterlimit:10;}
	.st97{fill:#1D3F89;}
	.st98{fill:#E87140;stroke:#000000;stroke-miterlimit:10;}
	.st99{fill:#002F55;}
	.st100{fill:#59504E;stroke:#000000;stroke-miterlimit:10;}
	.st101{fill:#505C66;}
	.st102{fill:#4D99E4;}
	.st103{fill:#F7A161;}
	.st104{fill:#C13323;stroke:#F7A161;stroke-miterlimit:10;}
	.st105{fill:#D24D91;stroke:#000000;stroke-miterlimit:10;}
	.st106{fill:#923EB9;}
	.st107{fill:#D24D91;}
	.st108{fill:#1C232F;stroke:#D24D91;stroke-miterlimit:10;}
	.st109{fill:#0E7B95;stroke:#000000;stroke-miterlimit:10;}
	.st110{fill:#005E8F;}
	.st111{fill:#E2187D;stroke:#000000;stroke-miterlimit:10;}
	.st112{fill:#00A0EB;stroke:#000000;stroke-miterlimit:10;}
	.st113{fill:#C51971;}
	.st114{fill:#E2187D;}
	.st115{fill:#67D700;stroke:#000000;stroke-miterlimit:10;}
	.st116{fill:#48A333;}
	.st117{fill:#67D700;}
	.st118{fill:#8E48D8;}
	.st119{stroke:#A0A0A0;stroke-miterlimit:10;}
	.st120{fill:#87D971;}
	.st121{fill:#4EC23A;stroke:#000000;stroke-miterlimit:10;}
	.st122{fill:#C72365;}
	.st123{fill:none;stroke:#0453BC;stroke-miterlimit:10;}
	.st124{fill:#9712C5;}
	.st125{fill:#307DDB;stroke:#000000;stroke-miterlimit:10;}
	.st126{fill:#D53D1F;}
	.st127{fill:#A9007C;}
	.st128{fill:#CDCB20;}
	.st129{fill:#48A333;stroke:#B1C49B;stroke-miterlimit:10;}
	.st130{fill:none;stroke:#48A333;stroke-width:4;stroke-miterlimit:10;}
	.st131{fill:#5A1F8E;}
	.st132{fill:none;stroke:#5A1F8E;stroke-width:3;stroke-miterlimit:10;}
	.st133{fill:#5A1F8E;stroke:#CC5C9B;stroke-miterlimit:10;}
	.st134{fill:#E81C2F;}
	.st135{fill:#FFEE34;}
	.st136{fill:none;stroke:#024598;stroke-width:8;stroke-linecap:round;stroke-miterlimit:10;}
	.st137{fill:none;stroke:#1D1D1B;stroke-width:4;stroke-miterlimit:10;}
	.st138{fill:none;stroke:#FF056D;stroke-width:6;stroke-linecap:round;stroke-miterlimit:10;}
	.st139{fill:#7A8504;}
	.st140{fill:#121617;stroke:#7A8504;stroke-miterlimit:10;}
	.st141{fill:none;stroke:#00268A;stroke-width:6;stroke-linecap:round;stroke-miterlimit:10;}
	.st142{fill:#145863;}
	.st143{fill:#145863;stroke:#22A2A9;stroke-miterlimit:10;}
	.st144{fill:#54B948;}
	.st145{fill:#6F00A6;stroke:#000000;stroke-miterlimit:10;}
	.st146{fill:none;stroke:#FFFFFF;stroke-width:6;stroke-miterlimit:10;}
	.st147{fill:#14DEAC;}
	.st148{fill:#1466AC;}
	.st149{fill:#757575;}
	.st150{fill:none;stroke:#CD0A36;stroke-width:8;stroke-miterlimit:10;}
	.st151{fill:none;stroke:#67D700;stroke-width:40;stroke-miterlimit:10;}
	.st152{fill:#CD0A36;stroke:#000000;stroke-miterlimit:10;}
	.st153{fill:#ED1C24;}
	.st154{fill:none;stroke:#505C66;stroke-width:3;stroke-miterlimit:10;}
	.st155{fill:none;stroke:#06D0CC;stroke-width:3;stroke-miterlimit:10;}
	.st156{fill:#007AC2;}
	.st157{fill:#EF3D1F;}
	.st158{stroke:#EA772F;stroke-miterlimit:10;}
	.st159{fill:#0068B4;stroke:#000000;stroke-miterlimit:10;}
	.st160{fill:#9712C5;stroke:#000000;stroke-miterlimit:10;}
	.st161{fill:#3D8D28;stroke:#000000;stroke-miterlimit:10;}
	.st162{fill:#68ED3A;}
	.st163{fill:#3D8D28;stroke:#FFFFFF;stroke-miterlimit:10;}
	.st164{fill:#68ED3A;stroke:#000000;stroke-miterlimit:10;}
	.st165{fill:#68ED3A;stroke:#FFFFFF;stroke-miterlimit:10;}
	.st166{fill:#00317D;}
	.st167{fill:#00737D;}
	.st168{fill:#146EE4;}
	.st169{fill:#4D99E4;stroke:#000000;stroke-miterlimit:10;}
	.st170{fill:none;stroke:#FFFFFF;stroke-width:11;stroke-miterlimit:10;}
	.st171{fill:#224754;}
	.st172{fill:#0E7B95;}
	.st173{fill:#FF8400;stroke:#000000;stroke-miterlimit:10;}
	.st174{fill:#00A0EB;}
	.st175{fill:#B9187D;}
	.st176{fill:#015297;}
	.st177{fill:#B0B0B0;}
	.st178{fill:#E1062F;}
</style>
<path class="st53" d="M594.5,576.2c0-93.6-20.8-396.5-56.5-478.7c-11.6-26.7-84.7-58.1-155.5-80.1c-24.8-7.7-54.1-9.9-81.7-9.4
	c-27.8-0.6-61.4,1.3-86.4,9.1C143.6,39.2,74.6,70.8,63,97.5C27.2,179.7,6.5,482.7,6.5,576.2c8.8,6.4,17.7,7.6,67.5,9.8
	c10-134,52-285,52-285s-4.1,248-4.1,270c0.2,18.6,87.7,23.8,173.7,24v0c1,0,2.5,0,3.5,0c1,0,2.5,0,3.5,0v0c86-0.2,175-5.4,175.2-24
	c0-22-2.9-270-2.9-270s42.1,151,52.1,285C576.6,583.8,585.7,582.7,594.5,576.2z"/>
<path class="st54" d="M527.5,585.4l-1.9-17.5c14.2-0.6,24.2-0.7,37.4-2.2c15.7-1.8,18.3-2.2,31.7-7.4L595,576c0,0-3.5,2.6-9.5,4.5
	c-5.2,1.6-22.7,3.4-32.3,3.8C536.9,584.9,536.9,584.8,527.5,585.4z"/>
<path class="st54" d="M73.9,585.4l1.3-17.8c-14.2-0.6-31.4-1-43.5-2.6c-14.4-2-25.2-7-25.2-7l0.1,18.3c0,0,3.4,2.4,9.4,4.3
	c5.2,1.6,21.8,3.4,31.4,3.7C64.8,584.9,73.9,585.4,73.9,585.4z"/>
<g>
	<g>
		<path class="st103" d="M227.5,28.7C240.3,46,262,62.5,298.1,62.5c36.2,0,56.3-16.8,67.4-34.5C335.2,31.1,259.9,30.8,227.5,28.7z"
			/>
		<path class="st104" d="M368.1,1c-17.6,5.3-142.2,2.9-148.6,0.6c-0.1,0.3-0.3,0.7-0.5,1.1c2.2,7.1,6.3,17.5,13.7,27.5
			c29.5,1.9,97.9,2.2,125.6-0.6c6.2-9.9,9.4-20.2,10.9-27.3C368.8,1.8,368.4,1.4,368.1,1z"/>
	</g>
	<path class="st104" d="M369.2,2.3c-4.1,18.7-19,58.7-72.2,58.7c-53.9,0-72.4-40.1-78-58.3c-2.9,5.3-13.9,16.7-13.9,16.7
		s14.4,61,89.9,61c76.5,0,86.6-58.7,87.7-63.1C380.6,16.4,373.4,6.9,369.2,2.3z"/>
</g>
<path class="st126" d="M70.4,88.6c0,0,77.1,9.2,55.7,220c-0.4,79.7-1.8,141.7-2.4,184.6c-0.7,46.5-0.8,70.5-0.8,71.6
	c0,3.2-0.6,7.5,0.8,9.2c0.7,1.1,1.7,2.3,3.4,3.5c4.7,3.4,15.3,6.5,27.3,8.8c-14.2-11.6-10.9-42.8-9.8-72.1c1.1-29.4-24-95.4-3-199.4
	c6.8-33.6-5.5-74.9-6-84C131.6,163.1,119.2,97.3,70.4,88.6z"/>
<path class="st126" d="M532.2,89c0,0-79.2,0.7-57.7,211.5c2.1,168.9,3.2,265.3,3.2,264.5c0-2.3,0,2.4,0,6.2c0,1.3-0.7,2.6-0.9,2.9
	c-0.7,1.1-2,2.2-3.6,3.4c-4.7,3.4-13.3,5.9-25.1,8.2c14.2-11.6,11.1-41.8,10-71.2c-1.1-29.4,24-95.4,3-199.4
	c-6.8-33.6,1.5-83.4,2-92.4C467,155.1,485.7,92,532.2,89z"/>
<g>
	<path class="st54" d="M297.2,89.4L131,206.7c0.7,27.3-0.7,65.6-0.7,66.7l166.4-118.7L470.5,280c-3-20.5-2.5-44.9-1.5-65.5
		L297.2,89.4z"/>
</g>
<g>
	<path class="st54" d="M459.6,333.5L297.2,215.4L125.7,336.7c-0.3,21.6,0.3,43.7,0.7,65.3l170.4-121.4l175.6,127.7
		c-0.8-22-0.7-43.3-0.3-66.3C472,341,461.2,334.7,459.6,333.5z"/>
</g>
<g>
	<path class="st54" d="M297.2,341.4L125,464c0.8,15.8-1.6,61.1-1.3,66l173.1-123.4l179.9,131.3c0.2-20.8-0.8-46.1-0.2-66.9
		L297.2,341.4z"/>
</g>
<g>
	<path class="st54" d="M456,584L297.2,467.4L135.7,581.1c0.6,0.8,4.4,1.4,5.3,2.1c3.4,1.1,6.6,1.6,8.2,2.1
		c20.4,4.9,62.4,7.1,62.4,7.1l85.1-59.9l82,59.6c14.9,0.7,29.5-1,49-3.2C436.8,587.5,448.5,585.2,456,584z"/>
</g>
<g>
	<circle class="st176" cx="393.9" cy="171.4" r="31.2"/>
	<g>
		<path class="st2" d="M374.8,194.7l2.4-6.2l1.4,1.1l-1.1,2.4c-0.3,0.6-0.6,1.3-1,2h0c0.6-0.5,1.1-1,1.7-1.4l2-1.7l1.4,1.1l-5.4,3.9
			L374.8,194.7z"/>
		<path class="st2" d="M381.4,198.9c-1.7-0.8-1.9-2.6-1.2-4.2c0.8-1.6,2.4-2.6,4-1.8c1.8,0.8,1.9,2.7,1.2,4.1
			C384.5,199,383,199.6,381.4,198.9L381.4,198.9z M382,197.7c0.6,0.3,1.3-0.2,1.8-1.4c0.4-1,0.4-1.9-0.2-2.2s-1.4,0.3-1.8,1.3
			C381.3,196.5,381.4,197.4,382,197.7L382,197.7z"/>
		<path class="st2" d="M385.9,200.5l1.2-6.3l1.8,0.3l0.6,2.2c0.2,0.6,0.4,1.5,0.5,2.2h0c0.1-0.8,0.2-1.8,0.4-2.8l0.2-1.3l1.4,0.3
			l-1.2,6.3l-1.7-0.3l-0.6-2.3c-0.2-0.7-0.4-1.6-0.5-2.3h0c-0.1,0.8-0.2,1.8-0.5,2.8l-0.3,1.4L385.9,200.5z"/>
		<path class="st2" d="M396,196.8L396,196.8l-1.1,0.6l-0.4-1.2l1.6-0.9l1.3-0.1l0.6,6.2l-1.6,0.1L396,196.8z"/>
		<path class="st2" d="M400.7,199.6c0.2,0,0.4-0.1,0.6-0.2c0.3-0.1,0.7-0.3,0.9-0.6c0.3-0.3,0.4-0.7,0.4-1.1h0
			c-0.1,0.3-0.4,0.5-0.9,0.6c-0.9,0.3-2-0.1-2.3-1.3c-0.3-1.1,0.2-2.4,1.5-2.8c1.5-0.4,2.5,0.5,3,1.9c0.4,1.3,0.2,2.3-0.2,3.1
			c-0.4,0.7-1.1,1.2-2,1.5c-0.2,0.1-0.4,0.1-0.6,0.2L400.7,199.6z M401.1,195.4c-0.3,0.1-0.5,0.5-0.3,1.1c0.1,0.4,0.4,0.8,0.9,0.7
			c0.3-0.1,0.4-0.3,0.4-0.4c0-0.1,0-0.2-0.1-0.5C401.9,195.7,401.6,195.3,401.1,195.4L401.1,195.4z"/>
		<path class="st2" d="M408.1,198.1c-1.5,0.8-2.8-0.3-3.5-1.7c-0.8-1.5-0.9-3.1,0.5-3.9c1.6-0.8,2.8,0.4,3.5,1.7
			C409.5,195.9,409.4,197.4,408.1,198.1L408.1,198.1z M407.6,197c0.3-0.2,0.3-0.8-0.4-2c-0.6-1.2-1.1-1.6-1.4-1.4
			c-0.3,0.2-0.3,0.8,0.3,2C406.7,196.8,407.2,197.2,407.6,197L407.6,197z"/>
		<path class="st2" d="M413,194.9c-1.3,1.1-2.8,0.2-3.8-1c-1-1.3-1.5-2.9-0.2-3.9c1.4-1.1,2.8-0.1,3.8,1
			C414,192.5,414.2,193.9,413,194.9L413,194.9z M412.2,193.9c0.3-0.2,0.1-0.8-0.7-1.9c-0.8-1-1.4-1.3-1.7-1.1
			c-0.3,0.2-0.2,0.8,0.7,1.9C411.4,193.9,411.9,194.1,412.2,193.9L412.2,193.9z"/>
	</g>
	<g>
		<path class="st2" d="M375.1,161.4l2.1,1.2l0.9-1.5l-2.1-1.2l0.8-1.4l5.5,3.2l-0.8,1.4l-2.2-1.3l-0.9,1.5l2.2,1.3l-0.8,1.4
			l-5.5-3.2L375.1,161.4z"/>
		<path class="st2" d="M384.8,159.8c-1.5,1.2-3.1,0.5-4.2-0.8c-1.1-1.4-1.2-3.2,0.2-4.4c1.6-1.2,3.2-0.4,4.2,0.8
			C386.4,157,386.2,158.7,384.8,159.8L384.8,159.8z M384.1,158.7c0.6-0.4,0.4-1.3-0.3-2.2c-0.7-0.9-1.5-1.3-2.1-0.9
			c-0.5,0.4-0.4,1.4,0.3,2.2C382.7,158.8,383.5,159.1,384.1,158.7L384.1,158.7z"/>
		<path class="st2" d="M385.4,151.9l1.5-0.5l1.7,4.8l2.1-0.7l0.5,1.3l-3.6,1.2L385.4,151.9z"/>
		<path class="st2" d="M391.4,155c0.4,0.2,1,0.3,1.5,0.3c0.6,0,0.9-0.2,0.8-0.6c0-0.3-0.3-0.5-1-0.8c-1.1-0.4-1.6-1-1.7-1.8
			c0-1.1,0.8-2,2.4-2.1c0.7,0,1.2,0.1,1.6,0.2l-0.2,1.4c-0.2-0.1-0.7-0.2-1.2-0.2c-0.5,0-0.8,0.2-0.8,0.5c0,0.3,0.3,0.4,1.1,0.8
			c1.1,0.4,1.6,1,1.6,1.8c0.1,1.1-0.8,2.1-2.5,2.1c-0.7,0-1.4-0.1-1.7-0.3L391.4,155z"/>
		<path class="st2" d="M398.2,152l-1.4-0.4l0.4-1.4l4.5,1.1l-0.3,1.4l-1.5-0.4l-1.2,4.8l-1.6-0.4L398.2,152z"/>
		<path class="st2" d="M404.7,157.4l-1.7-1.1l-0.6,1.1l1.9,1.2l-0.7,1.1l-3.4-2l3.3-5.4l3.2,2l-0.7,1.2l-1.8-1.1l-0.6,0.9l1.7,1.1
			L404.7,157.4z"/>
		<path class="st2" d="M409.6,156.9l-4.5,4.6l-1.2-1.1l4.5-4.6L409.6,156.9z"/>
		<path class="st2" d="M405.7,161.9l5.5-3.2l0.9,1.6l-1.3,1.9c-0.4,0.5-0.9,1.2-1.4,1.8l0,0c0.6-0.4,1.5-1,2.4-1.5l1.2-0.7l0.7,1.3
			l-5.5,3.2l-0.8-1.4l1.4-2c0.4-0.6,1-1.3,1.4-1.9l0,0c-0.6,0.4-1.5,0.9-2.4,1.5l-1.2,0.7L405.7,161.9z"/>
	</g>
	<circle class="st2" cx="393.9" cy="171.5" r="11.9"/>
	<g>
		<path class="st177" d="M382.5,172.2c0-0.4,0-0.8,0-1.1c0.1-0.2,0-0.4,0-0.6c0.1-1.2,0.4-2.3,0.9-3.4c0.7-1.7,1.7-3.1,3.1-4.4
			c1.6-1.4,3.5-2.3,5.7-2.6c0.3-0.1,0.6-0.1,1-0.1c0.4,0,0.9,0,1.3,0c0.3,0,0.7,0.1,1,0.1c1.2,0.1,2.3,0.4,3.4,1
			c1.6,0.8,3,2,4.1,3.5c1.8,2.5,2.6,5.3,2.3,8.3c-0.2,2.1-1,4-2.4,5.7c-1.2,1.4-2.6,2.5-4.2,3.3c-2,0.9-4.1,1.1-6.2,0.8
			c-1.9-0.2-3.6-1-5.2-2.2c-1.4-1.1-2.5-2.4-3.4-3.9c-0.5-1-0.9-2-1.1-3.1C382.6,173.2,382.6,172.7,382.5,172.2z M388,174.8
			c0,0.8,0.2,1.4,0.7,1.8c0.6,0.6,1.3,1.1,2.1,1.5c0.4,0.2,0.9,0.4,1.4,0.3c0.7-0.2,1.4-0.4,2.1-0.8c0.4-0.2,0.7-0.6,0.8-1
			c0.2-1.1,0.4-2.3,0.6-3.4c0-0.3,0-0.6-0.3-0.8c-0.1-0.1-0.2-0.2-0.3-0.3c-0.6-0.5-1.2-1-1.9-1.4c-0.4-0.2-0.7-0.2-1.1-0.2
			c-0.3,0.1-0.6,0.2-0.9,0.4c-0.5,0.3-1,0.6-1.6,0.8c-0.5,0.2-0.8,0.5-1,0.9C388.1,173.3,388.1,174.1,388,174.8z M402.9,172.6
			c0-0.1,0-0.2-0.1-0.2c-1-0.8-2.1-1.4-3.2-1.9c0,0-0.1,0-0.2,0c-0.5,0.1-0.9,0.2-1.2,0.5c-0.6,0.4-1.2,0.9-1.8,1.4
			c-0.2,0.1-0.3,0.3-0.3,0.5c0,0.1,0,0.2,0,0.4c-0.2,1.1-0.4,2.3-0.6,3.4c0,0.3,0,0.5,0.3,0.6c0.7,0.5,1.5,0.9,2.3,1.2
			c0.4,0.1,0.8,0.1,1.2-0.1c0.7-0.5,1.5-1,2.2-1.5c0.2-0.2,0.4-0.3,0.6-0.5c0.3-0.3,0.5-0.7,0.6-1.1
			C402.8,174.4,402.8,173.5,402.9,172.6z M390.7,163.1c-0.3,0-0.6,0.2-1,0.3c-1.4,0.6-2.3,1.6-2.9,3c-0.2,0.7-0.5,1.4-0.7,2.1
			c-0.1,0.3-0.1,0.6,0.1,0.9c0.3,0.5,0.6,0.9,1,1.2c0.3,0.3,0.6,0.6,0.9,0.8c0.4,0.2,0.8,0.2,1.1,0c0.2-0.1,0.3-0.2,0.5-0.3
			c0.8-0.4,1.6-0.9,2.4-1.3c0.1-0.1,0.1-0.1,0.2-0.2c0.3-1,0.7-2,1-3c0.1-0.1,0.1-0.2,0.1-0.4c-0.1-0.5-0.3-1-0.6-1.4
			c-0.4-0.5-0.8-1-1.2-1.4C391.3,163.2,391.1,163.1,390.7,163.1z M404.5,169.3c0-0.1,0-0.1,0-0.1c0-0.1,0-0.1,0-0.1
			c-0.3-1.6-0.9-3.1-2-4.4c-0.5-0.6-1.1-1.2-2-1.6c-0.1-0.1-0.2-0.1-0.4-0.1c-0.2,0-0.3,0-0.4,0.2c-0.3,0.5-0.7,1-1.1,1.5
			c-0.3,0.4-0.5,0.8-0.4,1.4c0,0.2,0.1,0.4,0.2,0.7c0.3,1,0.6,2,1,3c0,0.1,0.1,0.2,0.2,0.2c1,0.8,2.1,1.3,3.2,1.8
			c0.2,0.1,0.2,0,0.4-0.1c0.2-0.3,0.5-0.6,0.6-0.9C404.2,170.3,404.5,169.8,404.5,169.3z M394.2,160.4c-0.2,0-0.3,0-0.5,0
			c-0.2,0-0.3,0-0.5,0.1c-0.5,0.3-1,0.7-1.4,1.1c-0.5,0.6-0.5,1.2,0,1.8c0.6,0.7,1.2,1.3,1.8,1.9c0.1,0.1,0.2,0.1,0.3,0.1
			c1.1,0,2.2-0.1,3.4-0.2c0.1,0,0.4,0,0.5-0.1c0.6-0.7,1.2-1.5,1.5-2.4c0-0.1,0-0.2,0-0.2c-0.2-0.5-0.6-0.8-1-1
			C397,160.7,395.7,160.4,394.2,160.4z M385.4,177.4c0,0.2,0,0.4,0,0.6c0.1,0.3,0.2,0.7,0.4,0.9c0.9,0.9,1.9,1.7,3,2.3
			c0.7,0.3,1.5,0.6,2.3,0.4c0.5-0.1,0.7-0.2,0.7-0.7c0-0.1,0-0.2,0-0.4c-0.1-0.4-0.2-0.8-0.4-1.2c-0.2-0.3-0.4-0.6-0.8-0.8
			c-0.2-0.1-0.4-0.2-0.6-0.4c-0.7-0.5-1.4-1.2-2.1-1.7c-0.1-0.1-0.2-0.1-0.2-0.1c-0.3-0.1-0.6-0.1-0.9,0c-0.3,0.1-0.7,0.2-1,0.4
			C385.4,176.9,385.4,176.9,385.4,177.4z M383,171.1c0,0.1,0,0.2,0.1,0.4c0.1,0.2,0.1,0.3,0.4,0.3c0.2,0,0.3-0.1,0.4-0.2
			c0.1-0.1,0.1-0.2,0.2-0.3c0.4-0.4,0.7-0.8,1-1.2c0.2-0.3,0.5-0.6,0.6-1c0.3-1.4,0.8-2.8,1.5-4c0.2-0.4,0.1-0.6-0.1-0.9
			c-0.4-0.5-0.9-0.5-1.2,0c-0.1,0.1-0.1,0.2-0.2,0.4c-0.6,0.9-1.2,1.8-1.6,2.8C383.3,168.4,383,169.7,383,171.1z M397.6,181.7
			c0.2,0,0.3,0,0.4-0.1c0.5-0.1,1-0.4,1.5-0.7c1.6-0.9,2.9-2.1,3.8-3.7c0.1-0.2,0.2-0.4,0.2-0.7c0-0.2-0.1-0.3-0.3-0.4
			c-0.2,0-0.4,0-0.6,0.2c-1.1,0.7-2.1,1.5-3.2,2.2c-0.2,0.2-0.5,0.3-0.7,0.5c-0.8,0.6-1.3,1.4-1.8,2.2c-0.1,0.1,0,0.2,0,0.2
			C397.2,181.7,397.4,181.7,397.6,181.7z M391.6,182.1c0.4,0.2,0.9,0.3,1.4,0.4c0.9,0.1,1.8,0,2.7-0.1c0.2,0,0.5,0,0.7-0.1
			c0,0,0.1,0,0.1-0.1c0-0.1,0-0.1-0.1-0.1c-0.2-0.1-0.3-0.1-0.5-0.1c-1-0.2-2-0.3-3-0.1C392.5,181.8,392,181.9,391.6,182.1z
			 M384.9,177.7c0.1-0.3,0.1-0.6,0-0.9c-0.8-1.4-1.2-2.8-1.5-4.3c0,0,0-0.1,0-0.1c-0.1,0-0.1,0-0.1,0.1c-0.1,0.1-0.1,0.1-0.1,0.2
			c-0.1,0.2-0.1,0.4,0,0.6C383.3,174.8,384,176.3,384.9,177.7z"/>
	</g>
	<g>
		<g>
			<path class="st178" d="M378,171.6c0.8,0.8,1.5,1.6,2.2,2.4c1.5,1.7,2.9,3.3,4.4,5c1,1.1,1.1,2,0.3,3.3c-0.1,0.3-0.6,0.5-0.2,0.8
				c0.4,0.3,0.7-0.2,0.9-0.4c0.4-0.5,0.3-1.1,0.3-1.7c0-2.8-0.1-5.6-0.1-8.5c0-0.5-0.1-1,0.2-1.7c0.4,0.8,0.8,1.4,1,2.1
				c0.9,2.3,1.8,4.6,2.7,6.9c0.3,0.7,0.6,1.4,1.4,1.6c0.3,0.1,0.6,0,0.8-0.3c0.1-0.3-0.1-0.5-0.4-0.6c-0.6-0.3-1-0.9-1.3-1.5
				c-0.4-0.8-0.4-1.4,0.1-2.2c1.7-2.6,2.7-5.5,3.4-8.5c0.1-0.5,0.2-0.9,0.4-1.4c0.6,0.1,0.5,0.6,0.6,0.9c0.8,3.3,1.9,6.4,3.7,9.4
				c0.5,0.9,0,2.2-1,3.1c-0.2,0.2-1,0.3-0.6,0.9c0.4,0.4,1,0.2,1.4-0.2c0.4-0.4,0.6-0.9,0.9-1.5c0.8-2.2,1.7-4.4,2.5-6.5
				c0.3-0.7,0.5-1.4,1-1.9c0.4,0.2,0.3,0.6,0.3,0.9c0.1,3,0,5.9-0.1,8.9c0,0.8-0.1,1.5,0.5,2.1c0.2,0.2,0.4,0.5,0.8,0.2
				c0.2-0.2,0-0.4-0.1-0.7c-1-1.8-0.9-2.2,0.4-3.8c1.8-2,3.6-4.1,5.4-6.1c0.3-0.3,0.6-0.8,1.1-0.9c0.2,0.1,0.1,0.3,0,0.4
				c-2,3.7-3.4,7.7-4.4,11.8c-0.2,0.9-0.6,1.2-1.5,1.2c-7.1,0-14.1,0-21.2,0c-0.6,0-1.2,0.1-1.4-0.7c-1-4.4-2.5-8.6-4.6-12.6
				C377.8,171.7,377.9,171.7,378,171.6z"/>
			<path class="st2" d="M394.4,187.8c-3.6,0-7.3,0-11,0c-0.8,0-1.7,0-1.7-1.1c0-1.1,0.9-1.1,1.7-1.1c7.3,0,14.6,0,22,0
				c0.1,0,0.2,0,0.4,0c0.8,0,1.3,0.3,1.3,1.1c0,0.8-0.6,1.1-1.3,1.1c-2.9,0-5.8,0-8.6,0C396.2,187.8,395.3,187.8,394.4,187.8z"/>
			<path class="st2" d="M382.5,188.4c7.9,0,15.9,0,23.8,0c0,0.1,0,0.2,0,0.2c-7.9,0-15.9,0-23.8,0
				C382.5,188.6,382.5,188.5,382.5,188.4z"/>
		</g>
	</g>
</g>
<g>
	<path class="st2" d="M370.5,153.8l1.1-1.2l2,1.8l0,0c-0.1-0.2-0.2-0.5-0.2-0.8l-0.6-2.3l1.4-1.6l0.6,3.4l4.1,0.9l-1.3,1.5l-2.8-0.8
		l0.1,0.8l1.4,1.3l-1.1,1.2L370.5,153.8z"/>
	<path class="st2" d="M376.8,147.8l3.9,5.1l-1.4,1.1l-3.9-5.1L376.8,147.8z"/>
	<path class="st2" d="M383.7,148.1l-2,1.1l0.6,1l2.3-1.2l0.6,1.2l-3.8,2l-3-5.7l3.7-1.9l0.6,1.2l-2.1,1.1l0.5,0.9l2-1.1L383.7,148.1
		z"/>
	<path class="st2" d="M384,143.9l1.6-0.5l1.4,4.8l2.4-0.7l0.4,1.4l-4,1.2L384,143.9z"/>
	<path class="st2" d="M394.1,145.9l-2.3,0.2l0.1,1.2l2.6-0.2l0.1,1.4l-4.3,0.3l-0.5-6.4l4.2-0.3l0.1,1.4l-2.4,0.2l0.1,1l2.3-0.2
		L394.1,145.9z"/>
	<path class="st2" d="M396.1,142.2c0.5,0,1.2,0,2.1,0.2c1,0.1,1.7,0.4,2.1,0.8c0.4,0.4,0.5,0.8,0.4,1.4c-0.1,0.8-0.8,1.2-1.3,1.4v0
		c0.4,0.2,0.6,0.7,0.6,1.2c0.1,0.7,0.2,1.6,0.2,1.9l-1.7-0.2c-0.1-0.2-0.2-0.7-0.2-1.5c-0.1-0.8-0.3-1-0.8-1.1l-0.3,0l-0.4,2.4
		l-1.7-0.2L396.1,142.2z M397.4,145.1l0.5,0.1c0.6,0.1,1-0.2,1.1-0.6c0.1-0.5-0.2-0.8-0.8-0.9c-0.3-0.1-0.5-0.1-0.6-0.1L397.4,145.1
		z"/>
	<path class="st2" d="M403.2,148.4c0.3,0.3,0.8,0.8,1.3,1.1c0.5,0.2,0.9,0.2,1-0.1c0.1-0.3,0-0.6-0.6-1.1c-0.8-0.8-1.2-1.7-0.8-2.5
		c0.5-1,1.7-1.4,3.2-0.7c0.7,0.3,1.1,0.7,1.4,1l-0.9,1.1c-0.2-0.2-0.5-0.6-1.1-0.9c-0.5-0.2-0.8-0.2-0.9,0.1
		c-0.1,0.3,0.1,0.6,0.7,1.2c0.9,0.9,1,1.6,0.7,2.4c-0.5,1-1.6,1.5-3.3,0.7c-0.7-0.3-1.3-0.8-1.5-1.2L403.2,148.4z"/>
	<path class="st2" d="M407.5,152.8c-0.5-0.3-0.6-0.9-0.2-1.4s0.9-0.6,1.4-0.3c0.5,0.3,0.6,0.9,0.2,1.4
		C408.5,153.1,408,153.2,407.5,152.8L407.5,152.8z"/>
	<path class="st2" d="M410,154.7l3.1-6l1.3,1.3l-1.3,2.3c-0.4,0.7-0.8,1.3-1.2,2h0c0.7-0.4,1.3-0.9,1.9-1.2l2.3-1.3l1.3,1.3l-6,3.1
		L410,154.7z"/>
	<path class="st2" d="M413,158.2c-0.4-0.4-0.2-1,0.2-1.4c0.5-0.3,1-0.3,1.4,0.2c0.4,0.5,0.2,1-0.2,1.4
		C413.9,158.8,413.4,158.7,413,158.2L413,158.2z"/>
</g>
</svg>
