<?xml version="1.0" encoding="utf-8"?>
<!-- Generator: Adobe Illustrator 17.0.0, SVG Export Plug-In . SVG Version: 6.00 Build 0)  -->
<!DOCTYPE svg PUBLIC "-//W3C//DTD SVG 1.1//EN" "http://www.w3.org/Graphics/SVG/1.1/DTD/svg11.dtd" [
	<!ENTITY ns_flows "http://ns.adobe.com/Flows/1.0/">
	<!ENTITY ns_extend "http://ns.adobe.com/Extensibility/1.0/">
	<!ENTITY ns_ai "http://ns.adobe.com/AdobeIllustrator/10.0/">
	<!ENTITY ns_graphs "http://ns.adobe.com/Graphs/1.0/">
]>
<svg version="1.1" id="Layer_1" xmlns:x="&ns_extend;" xmlns:i="&ns_ai;" xmlns:graph="&ns_graphs;"
	 xmlns="http://www.w3.org/2000/svg" xmlns:xlink="http://www.w3.org/1999/xlink" xmlns:a="http://ns.adobe.com/AdobeSVGViewerExtensions/3.0/"
	 x="0px" y="0px" width="600px" height="600px" viewBox="0 0 600 600" style="enable-background:new 0 0 600 600;"
	 xml:space="preserve">
<style type="text/css">
	.st0{fill:#0068B4;}
	.st1{fill:#9400A6;}
	.st2{fill:#FFFFFF;}
	.st3{fill:#D2D705;}
	.st4{fill:#7A9E04;}
	.st5{fill:#C272D7;stroke:#000000;stroke-miterlimit:10;}
	.st6{fill:#FFFFFF;stroke:#000000;stroke-miterlimit:10;}
	.st7{fill:#7C0014;}
	.st8{fill:#E0DE71;stroke:#000000;stroke-miterlimit:10;}
	.st9{fill:#CC5C9B;}
	.st10{fill:#B91F75;}
	.st11{fill:#C8218D;stroke:#000000;stroke-miterlimit:10;}
	.st12{fill:#EBA79C;stroke:#000000;stroke-miterlimit:10;}
	.st13{fill:#FF7D6F;}
	.st14{fill:#FE5561;}
	.st15{stroke:#000000;stroke-miterlimit:10;}
	.st16{fill:#10792E;}
	.st17{fill:#5F546E;}
	.st18{fill:#10792E;stroke:#000000;stroke-miterlimit:10;}
	.st19{fill:#C8218D;}
	.st20{fill:#C7CCC4;}
	.st21{fill:#A7DCF3;stroke:#000000;stroke-miterlimit:10;}
	.st22{fill:#49B7E7;}
	.st23{fill:#CB5E22;stroke:#000000;stroke-miterlimit:10;}
	.st24{fill:url(#SVGID_1_);}
	.st25{fill:url(#SVGID_2_);}
	.st26{fill:url(#SVGID_3_);}
	.st27{fill:url(#SVGID_4_);}
	.st28{fill:url(#SVGID_5_);}
	.st29{fill:#242424;stroke:#CB5E22;stroke-miterlimit:10;}
	.st30{fill:#2A2A2A;stroke:#000000;stroke-miterlimit:10;}
	.st31{fill:#5F5F5F;}
	.st32{fill:#2A2A2A;stroke:#FFFFFF;stroke-miterlimit:10;}
	.st33{fill:#C82321;}
	.st34{fill:#FF8075;stroke:#000000;stroke-miterlimit:10;}
	.st35{fill:#FF5A4A;}
	.st36{fill:#FF056D;stroke:#FF8075;stroke-miterlimit:10;}
	.st37{fill:#0075FA;stroke:#000000;stroke-miterlimit:10;}
	.st38{fill:#FF056D;}
	.st39{fill:#0066AE;}
	.st40{fill:#FF056D;stroke:#0075FA;stroke-miterlimit:10;}
	.st41{fill:#EDF3F8;stroke:#000000;stroke-miterlimit:10;}
	.st42{fill:#1D1D1B;stroke:#EDF3F8;stroke-miterlimit:10;}
	.st43{fill:#CFB114;}
	.st44{fill:#22A2A9;}
	.st45{fill:#C2BEC8;}
	.st46{fill:#10792E;stroke:#FFFFFF;stroke-miterlimit:10;}
	.st47{fill:#F6FF14;stroke:#000000;stroke-miterlimit:10;}
	.st48{fill:none;stroke:#87C000;stroke-width:8;stroke-linecap:round;stroke-miterlimit:10;}
	.st49{fill:#DEE200;}
	.st50{fill:#008290;}
	.st51{fill:#FFB7B1;}
	.st52{fill:#9400A6;stroke:#000000;stroke-miterlimit:10;}
	.st53{fill:#DF6B54;stroke:#000000;stroke-miterlimit:10;}
	.st54{fill:#C13323;}
	.st55{fill:#5E0089;}
	.st56{fill:#FDB05F;stroke:#000000;stroke-miterlimit:10;}
	.st57{fill:none;stroke:#000000;stroke-miterlimit:10;}
	.st58{fill:#435338;}
	.st59{fill:#580088;}
	.st60{fill:#EBA79C;}
	.st61{fill:#FE5561;stroke:#EBA79C;stroke-miterlimit:10;}
	.st62{fill:#F78100;}
	.st63{fill:#FDB05F;}
	.st64{fill:#8E48D8;stroke:#000000;stroke-miterlimit:10;}
	.st65{fill:#5D22A5;}
	.st66{fill:#87D971;stroke:#000000;stroke-miterlimit:10;}
	.st67{fill:#B8EDA4;}
	.st68{fill:#4EC23A;}
	.st69{fill:#2F2428;}
	.st70{fill:#CD0A36;}
	.st71{fill:#4C4C4C;}
	.st72{fill:#146EE4;stroke:#000000;stroke-miterlimit:10;}
	.st73{fill:#79B2FF;}
	.st74{fill:none;stroke:#79B2FF;stroke-width:11;stroke-miterlimit:10;}
	.st75{fill:#0055B8;}
	.st76{fill:#1853A6;}
	.st77{fill:#CB0000;}
	.st78{fill:#307DDB;}
	.st79{fill:#4F435F;}
	.st80{fill:#212025;}
	.st81{fill:none;stroke:#67D700;stroke-width:8;stroke-miterlimit:10;}
	.st82{fill:#B1BBBE;stroke:#000000;stroke-miterlimit:10;}
	.st83{fill:#8A8B97;}
	.st84{fill:#505C66;stroke:#747785;stroke-miterlimit:10;}
	.st85{fill:#06D0CC;stroke:#000000;stroke-miterlimit:10;}
	.st86{fill:#0299AF;stroke:#000000;stroke-miterlimit:10;}
	.st87{fill:#019DBA;}
	.st88{fill:#CAC5C0;}
	.st89{fill:#0453BC;}
	.st90{fill:#535353;}
	.st91{fill:#EA772F;stroke:#000000;stroke-miterlimit:10;}
	.st92{fill:#1F2427;}
	.st93{fill:#E05900;}
	.st94{fill:#A8A8B4;}
	.st95{fill:#005898;}
	.st96{fill:#79B2FF;stroke:#000000;stroke-miterlimit:10;}
	.st97{fill:#1D3F89;}
	.st98{fill:#E87140;stroke:#000000;stroke-miterlimit:10;}
	.st99{fill:#002F55;}
	.st100{fill:#59504E;stroke:#000000;stroke-miterlimit:10;}
	.st101{fill:#505C66;}
	.st102{fill:#4D99E4;}
	.st103{fill:#F7A161;}
	.st104{fill:#C13323;stroke:#F7A161;stroke-miterlimit:10;}
	.st105{fill:#D24D91;stroke:#000000;stroke-miterlimit:10;}
	.st106{fill:#923EB9;}
	.st107{fill:#D24D91;}
	.st108{fill:#1C232F;stroke:#D24D91;stroke-miterlimit:10;}
	.st109{fill:#0E7B95;stroke:#000000;stroke-miterlimit:10;}
	.st110{fill:#005E8F;}
	.st111{fill:#E2187D;stroke:#000000;stroke-miterlimit:10;}
	.st112{fill:#00A0EB;stroke:#000000;stroke-miterlimit:10;}
	.st113{fill:#C51971;}
	.st114{fill:#E2187D;}
	.st115{fill:#67D700;stroke:#000000;stroke-miterlimit:10;}
	.st116{fill:#48A333;}
	.st117{fill:#67D700;}
	.st118{fill:#8E48D8;}
	.st119{stroke:#A0A0A0;stroke-miterlimit:10;}
	.st120{fill:#87D971;}
	.st121{fill:#4EC23A;stroke:#000000;stroke-miterlimit:10;}
	.st122{fill:#C72365;}
	.st123{fill:none;stroke:#0453BC;stroke-miterlimit:10;}
	.st124{fill:#9712C5;}
	.st125{fill:#307DDB;stroke:#000000;stroke-miterlimit:10;}
	.st126{fill:#D53D1F;}
	.st127{fill:#A9007C;}
	.st128{fill:#CDCB20;}
	.st129{fill:#48A333;stroke:#B1C49B;stroke-miterlimit:10;}
	.st130{fill:none;stroke:#48A333;stroke-width:4;stroke-miterlimit:10;}
	.st131{fill:#5A1F8E;}
	.st132{fill:none;stroke:#5A1F8E;stroke-width:3;stroke-miterlimit:10;}
	.st133{fill:#5A1F8E;stroke:#CC5C9B;stroke-miterlimit:10;}
	.st134{fill:#E81C2F;}
	.st135{fill:#FFEE34;}
	.st136{fill:none;stroke:#024598;stroke-width:8;stroke-linecap:round;stroke-miterlimit:10;}
	.st137{fill:none;stroke:#1D1D1B;stroke-width:4;stroke-miterlimit:10;}
	.st138{fill:none;stroke:#FF056D;stroke-width:6;stroke-linecap:round;stroke-miterlimit:10;}
	.st139{fill:#7A8504;}
	.st140{fill:#121617;stroke:#7A8504;stroke-miterlimit:10;}
	.st141{fill:none;stroke:#00268A;stroke-width:6;stroke-linecap:round;stroke-miterlimit:10;}
	.st142{fill:#145863;}
	.st143{fill:#145863;stroke:#22A2A9;stroke-miterlimit:10;}
	.st144{fill:#54B948;}
	.st145{fill:#6F00A6;stroke:#000000;stroke-miterlimit:10;}
	.st146{fill:none;stroke:#FFFFFF;stroke-width:6;stroke-miterlimit:10;}
	.st147{fill:#14DEAC;}
	.st148{fill:#1466AC;}
	.st149{fill:#757575;}
	.st150{fill:none;stroke:#CD0A36;stroke-width:8;stroke-miterlimit:10;}
	.st151{fill:none;stroke:#67D700;stroke-width:40;stroke-miterlimit:10;}
	.st152{fill:#CD0A36;stroke:#000000;stroke-miterlimit:10;}
	.st153{fill:#ED1C24;}
	.st154{fill:none;stroke:#505C66;stroke-width:3;stroke-miterlimit:10;}
	.st155{fill:none;stroke:#06D0CC;stroke-width:3;stroke-miterlimit:10;}
	.st156{fill:#007AC2;}
	.st157{fill:#EF3D1F;}
	.st158{stroke:#EA772F;stroke-miterlimit:10;}
	.st159{fill:#0068B4;stroke:#000000;stroke-miterlimit:10;}
	.st160{fill:#9712C5;stroke:#000000;stroke-miterlimit:10;}
	.st161{fill:#3D8D28;stroke:#000000;stroke-miterlimit:10;}
	.st162{fill:#68ED3A;}
	.st163{fill:#3D8D28;stroke:#FFFFFF;stroke-miterlimit:10;}
	.st164{fill:#68ED3A;stroke:#000000;stroke-miterlimit:10;}
	.st165{fill:#68ED3A;stroke:#FFFFFF;stroke-miterlimit:10;}
	.st166{fill:#00317D;}
	.st167{fill:#00737D;}
	.st168{fill:#146EE4;}
	.st169{fill:#4D99E4;stroke:#000000;stroke-miterlimit:10;}
	.st170{fill:none;stroke:#FFFFFF;stroke-width:11;stroke-miterlimit:10;}
	.st171{fill:#224754;}
	.st172{fill:#0E7B95;}
	.st173{fill:#FF8400;stroke:#000000;stroke-miterlimit:10;}
	.st174{fill:#00A0EB;}
	.st175{fill:#B9187D;}
	.st176{fill:#015297;}
	.st177{fill:#B0B0B0;}
	.st178{fill:#E1062F;}
</style>
<path class="st111" d="M6.1,342.8C40.7,232.2,21.2,187.2,67.7,94.2c10.5-21,71.9-57.8,135.8-73.2c0,0,109.7-25.5,180.5-3.5
	s140.3,53.3,151.9,80c35.7,82.1,31.2,191.6,59.7,243.7c-12.5,1.2-81.3,14.4-109.3,19.7c-2.4-7.3-13.4-60-13.4-60s3.2,248,3.2,270
	c-0.2,19-92.8,24-180.8,24s-167.5-10-167.5-26.9c0-16.8,1.1-262.1,1.1-262.1s-3.3,23.3-8.3,56.1C91.3,361.9,16.4,344,6.1,342.8z"/>
<path class="st112" d="M123.5,345.1l-2.8,17c0,0-18.3-0.2-54.3-7.2c-18-3.5-53.4-11.4-60.3-12.1c3.2-10.1,5.8-20.6,5.8-20.6
	c13.4,2.5,37.1,9.2,60.5,14.2C97.6,341.9,123.5,345.1,123.5,345.1z"/>
<path class="st112" d="M482.2,342.3l4.1,18.6c0,0,8.8-1.5,44.8-8.5c18-3.5,57.7-10,64.7-10.7c-4.7-9.1-8.7-20.9-8.7-20.9
	c-14,2.7-40.1,7.3-63,12.2C498.7,338.3,482.2,342.3,482.2,342.3z"/>
<g>
	<g>
		<path class="st114" d="M234.5,28.7C247.3,46,269,62.5,305.1,62.5c36.2,0,56.3-16.8,67.4-34.5C342.2,31.1,266.9,30.8,234.5,28.7z"
			/>
		<path class="st112" d="M375.1,1c-17.6,5.3-142.2,2.9-148.6,0.6c-0.1,0.3-0.3,0.7-0.5,1.1c2.2,7.1,6.3,17.5,13.7,27.5
			c29.5,1.9,97.9,2.2,125.6-0.6c6.2-9.9,9.4-20.2,10.9-27.3C375.8,1.8,375.4,1.4,375.1,1z"/>
	</g>
	<path class="st112" d="M376.2,2.3c-4.1,18.7-19,58.7-72.2,58.7c-53.9,0-72.4-40.1-78-58.3c-2.9,5.3-15.1,16-15.1,16
		s15.6,61.7,91.1,61.7c76.5,0,86.6-58.7,87.7-63.1C387.6,16.4,380.4,6.9,376.2,2.3z"/>
</g>
<polygon class="st174" points="463,260 137.5,260 131.5,176 469.6,176 "/>
<path class="st175" d="M73.8,85.9c0,0,77.1,9.2,55.7,220c-0.9,166-1.1,253.8-1.1,255.9c0,3.2-0.6,7.5,0.8,9.2
	c0.7,1.1,1.7,2.3,3.4,3.5c4.7,3.4,13.4,6.6,25.2,9.1c-14.2-11.6-10.9-42.8-9.8-72.1c1.1-29.4-24-95.4-3-199.4
	c6.8-33.6-5.5-74.9-6-84C135,160.4,122.6,94.6,73.8,85.9z"/>
<path class="st175" d="M530.2,89c0,0-79.2,0.7-57.7,211.5c2.1,168.9,3.2,265.3,3.2,264.5c0-2.3,0,2.4,0,6.2c0,1.3-0.7,2.6-0.9,2.9
	c-0.7,1.1-2,2.2-3.6,3.4c-4.7,3.4-13.3,5.9-25.1,8.2c14.2-11.6,11.1-41.8,10-71.2c-1.1-29.4,24-95.4,3-199.4
	c-6.8-33.6,1.5-83.4,2-92.4C465,155.1,483.7,92,530.2,89z"/>
<g>
	<circle class="st176" cx="393.9" cy="220.8" r="31.2"/>
	<g>
		<path class="st2" d="M374.8,244l2.4-6.2l1.4,1.1l-1.1,2.4c-0.3,0.6-0.6,1.3-1,2h0c0.6-0.5,1.1-1,1.7-1.4l2-1.7l1.4,1.1l-5.4,3.9
			L374.8,244z"/>
		<path class="st2" d="M381.4,248.2c-1.7-0.8-1.9-2.6-1.2-4.1c0.8-1.6,2.4-2.6,4-1.8c1.8,0.8,1.9,2.6,1.2,4.1
			C384.5,248.3,383,248.9,381.4,248.2L381.4,248.2z M382,247c0.6,0.3,1.3-0.2,1.8-1.3c0.4-1,0.4-1.9-0.2-2.2
			c-0.6-0.3-1.4,0.3-1.8,1.3C381.3,245.8,381.4,246.7,382,247L382,247z"/>
		<path class="st2" d="M385.9,249.9l1.2-6.3l1.8,0.3l0.6,2.2c0.2,0.6,0.4,1.5,0.5,2.2h0c0.1-0.8,0.2-1.8,0.4-2.8l0.2-1.3l1.4,0.3
			l-1.2,6.3l-1.7-0.3l-0.6-2.3c-0.2-0.7-0.4-1.6-0.5-2.3h0c-0.1,0.8-0.2,1.8-0.5,2.8l-0.3,1.4L385.9,249.9z"/>
		<path class="st2" d="M396,246.1L396,246.1l-1.1,0.7l-0.4-1.2l1.6-0.9l1.3-0.1l0.6,6.1l-1.6,0.1L396,246.1z"/>
		<path class="st2" d="M400.7,248.9c0.2-0.1,0.4-0.1,0.6-0.2c0.3-0.1,0.7-0.3,0.9-0.6c0.3-0.3,0.4-0.7,0.4-1.1h0
			c-0.1,0.3-0.4,0.5-0.9,0.6c-0.9,0.3-2-0.1-2.3-1.3c-0.3-1.1,0.2-2.4,1.5-2.8c1.5-0.5,2.5,0.5,3,1.9c0.4,1.3,0.2,2.3-0.2,3.1
			c-0.4,0.6-1.1,1.1-2,1.4c-0.2,0.1-0.4,0.1-0.6,0.2L400.7,248.9z M401.1,244.7c-0.3,0.1-0.5,0.5-0.3,1.1c0.1,0.4,0.4,0.8,0.9,0.7
			c0.3-0.1,0.4-0.3,0.4-0.4c0-0.1,0-0.2-0.1-0.5C401.9,245.1,401.6,244.6,401.1,244.7L401.1,244.7z"/>
		<path class="st2" d="M408.1,247.4c-1.5,0.8-2.8-0.4-3.5-1.7c-0.8-1.5-0.9-3.1,0.5-3.9c1.6-0.8,2.8,0.4,3.5,1.7
			C409.5,245.2,409.4,246.7,408.1,247.4L408.1,247.4z M407.6,246.3c0.3-0.2,0.3-0.8-0.4-2c-0.6-1.1-1.1-1.6-1.4-1.4
			c-0.3,0.2-0.3,0.8,0.3,2C406.7,246.1,407.2,246.5,407.6,246.3L407.6,246.3z"/>
		<path class="st2" d="M413,244.2c-1.3,1.1-2.8,0.2-3.8-1c-1-1.3-1.5-2.9-0.2-3.9c1.4-1.1,2.8-0.1,3.8,1
			C414,241.8,414.2,243.2,413,244.2L413,244.2z M412.2,243.2c0.3-0.2,0.1-0.8-0.7-1.9c-0.8-1-1.4-1.4-1.7-1.1
			c-0.3,0.2-0.2,0.8,0.7,1.9C411.4,243.2,411.9,243.4,412.2,243.2L412.2,243.2z"/>
	</g>
	<g>
		<path class="st2" d="M375.1,210.8l2.1,1.2l0.9-1.5l-2.1-1.2l0.8-1.4l5.5,3.2l-0.8,1.4l-2.2-1.3l-0.9,1.5l2.2,1.3l-0.8,1.4
			l-5.5-3.2L375.1,210.8z"/>
		<path class="st2" d="M384.8,209.1c-1.5,1.1-3.1,0.5-4.2-0.9c-1.1-1.4-1.2-3.2,0.2-4.4c1.6-1.2,3.2-0.4,4.2,0.8
			C386.4,206.4,386.2,208,384.8,209.1L384.8,209.1z M384.1,208c0.6-0.4,0.4-1.3-0.3-2.2c-0.7-0.9-1.5-1.3-2.1-0.8
			c-0.5,0.4-0.4,1.3,0.3,2.2C382.7,208.1,383.5,208.4,384.1,208L384.1,208z"/>
		<path class="st2" d="M385.4,201.2l1.5-0.5l1.7,4.8l2.1-0.7l0.5,1.3l-3.6,1.2L385.4,201.2z"/>
		<path class="st2" d="M391.4,204.3c0.4,0.2,1,0.3,1.5,0.3c0.6,0,0.9-0.2,0.8-0.6s-0.3-0.5-1-0.8c-1.1-0.4-1.6-1-1.7-1.8
			c0-1.1,0.8-2,2.4-2.1c0.7,0,1.2,0.1,1.6,0.2l-0.2,1.3c-0.2-0.1-0.7-0.2-1.2-0.2c-0.5,0-0.8,0.2-0.8,0.5c0,0.3,0.3,0.4,1.1,0.8
			c1.1,0.4,1.6,1,1.6,1.8c0.1,1.1-0.8,2.1-2.5,2.1c-0.7,0-1.4-0.1-1.7-0.3L391.4,204.3z"/>
		<path class="st2" d="M398.2,201.3l-1.4-0.4l0.4-1.4l4.5,1.2l-0.3,1.4l-1.5-0.4l-1.2,4.8l-1.6-0.4L398.2,201.3z"/>
		<path class="st2" d="M404.7,206.8l-1.7-1.1l-0.6,1.1l1.9,1.2l-0.7,1.2l-3.4-2l3.3-5.4l3.2,2l-0.7,1.1l-1.8-1.1l-0.6,0.9l1.7,1.1
			L404.7,206.8z"/>
		<path class="st2" d="M409.6,206.2l-4.5,4.6l-1.2-1.2l4.5-4.6L409.6,206.2z"/>
		<path class="st2" d="M405.7,211.2l5.5-3.2l0.9,1.6l-1.3,1.9c-0.4,0.5-0.9,1.2-1.4,1.8l0,0c0.6-0.4,1.5-1,2.4-1.5l1.2-0.7l0.7,1.3
			l-5.5,3.2l-0.8-1.4l1.4-1.9c0.4-0.6,1-1.3,1.4-1.9l0,0c-0.6,0.4-1.5,0.9-2.4,1.5l-1.2,0.7L405.7,211.2z"/>
	</g>
	<circle class="st2" cx="393.9" cy="220.8" r="11.9"/>
	<g>
		<path class="st177" d="M382.5,221.5c0-0.4,0-0.8,0-1.1c0.1-0.2,0-0.4,0-0.6c0.1-1.2,0.4-2.4,0.9-3.4c0.7-1.7,1.7-3.2,3.1-4.4
			c1.6-1.5,3.5-2.3,5.7-2.6c0.3,0,0.6-0.1,1-0.1c0.4,0,0.9,0,1.3,0c0.3,0.1,0.7,0.1,1,0.1c1.2,0.2,2.3,0.5,3.4,1
			c1.6,0.8,3,2,4.1,3.5c1.8,2.5,2.6,5.3,2.3,8.4c-0.2,2.1-1,4-2.4,5.7c-1.2,1.4-2.6,2.5-4.2,3.3c-2,0.9-4.1,1.1-6.2,0.8
			c-1.9-0.2-3.6-1-5.2-2.2c-1.4-1-2.5-2.4-3.4-3.9c-0.5-1-0.9-2-1.1-3.1C382.6,222.5,382.6,222,382.5,221.5z M388,224.1
			c0,0.8,0.2,1.3,0.7,1.8c0.6,0.6,1.3,1.1,2.1,1.5c0.4,0.2,0.9,0.4,1.4,0.3c0.7-0.2,1.4-0.4,2.1-0.8c0.4-0.2,0.7-0.6,0.8-1
			c0.2-1.2,0.4-2.3,0.6-3.4c0-0.3,0-0.6-0.3-0.8c-0.1-0.1-0.2-0.2-0.3-0.3c-0.6-0.6-1.2-1-1.9-1.4c-0.4-0.2-0.7-0.2-1.1-0.1
			c-0.3,0.1-0.6,0.2-0.9,0.4c-0.5,0.3-1,0.6-1.6,0.8c-0.5,0.2-0.8,0.5-1,0.9C388.1,222.6,388.1,223.4,388,224.1z M402.9,221.9
			c0-0.1,0-0.2-0.1-0.2c-1-0.8-2.1-1.4-3.2-1.9c0,0-0.1,0-0.2,0c-0.5,0-0.9,0.2-1.2,0.5c-0.6,0.4-1.2,0.9-1.8,1.4
			c-0.2,0.1-0.3,0.3-0.3,0.5c0,0.1,0,0.2,0,0.4c-0.2,1.1-0.4,2.3-0.6,3.4c0,0.3,0,0.5,0.3,0.7c0.7,0.5,1.5,0.9,2.3,1.2
			c0.4,0.2,0.8,0.1,1.2-0.1c0.7-0.5,1.5-1,2.2-1.5c0.2-0.1,0.4-0.3,0.6-0.5c0.3-0.3,0.5-0.7,0.6-1.1
			C402.8,223.7,402.8,222.8,402.9,221.9z M390.7,212.4c-0.3,0-0.6,0.2-1,0.3c-1.4,0.6-2.3,1.6-2.9,2.9c-0.2,0.7-0.5,1.4-0.7,2.1
			c-0.1,0.4-0.1,0.7,0.1,0.9c0.3,0.5,0.6,0.9,1,1.2c0.3,0.3,0.6,0.6,0.9,0.8c0.4,0.2,0.8,0.2,1.1,0c0.2-0.1,0.3-0.2,0.5-0.3
			c0.8-0.4,1.6-0.9,2.4-1.3c0.1,0,0.1-0.1,0.2-0.2c0.3-1,0.7-2,1-3c0.1-0.1,0.1-0.2,0.1-0.4c-0.1-0.5-0.3-1-0.6-1.4
			c-0.4-0.5-0.8-1-1.2-1.4C391.3,212.5,391.1,212.4,390.7,212.4z M404.5,218.6c0-0.1,0-0.1,0-0.1c0-0.1,0-0.1,0-0.1
			c-0.3-1.6-0.9-3.1-2-4.4c-0.5-0.7-1.1-1.2-2-1.6c-0.1-0.1-0.2-0.1-0.4-0.1c-0.2,0-0.3,0-0.4,0.2c-0.3,0.5-0.7,1-1.1,1.5
			c-0.3,0.4-0.5,0.9-0.4,1.4c0,0.2,0.1,0.4,0.2,0.7c0.3,1,0.6,2.1,1,3c0,0.1,0.1,0.2,0.2,0.2c1,0.8,2.1,1.3,3.2,1.8
			c0.2,0.1,0.2,0,0.4-0.1c0.2-0.3,0.5-0.6,0.6-0.9C404.2,219.6,404.5,219.1,404.5,218.6z M394.2,209.7c-0.2,0-0.3,0-0.5,0
			c-0.2,0-0.3,0-0.5,0.1c-0.5,0.3-1,0.6-1.4,1.1c-0.5,0.6-0.5,1.1,0,1.8c0.6,0.6,1.2,1.3,1.8,1.9c0.1,0.1,0.2,0.1,0.3,0.1
			c1.1,0,2.2-0.1,3.4-0.2c0.1,0,0.4,0,0.5-0.1c0.6-0.7,1.2-1.5,1.5-2.4c0-0.1,0-0.2,0-0.2c-0.2-0.5-0.6-0.8-1-1
			C397,210,395.7,209.8,394.2,209.7z M385.4,226.7c0,0.2,0,0.4,0,0.6c0.1,0.4,0.2,0.7,0.4,0.9c0.9,0.9,1.9,1.7,3,2.3
			c0.7,0.4,1.5,0.6,2.3,0.4c0.5-0.1,0.7-0.2,0.7-0.7c0-0.1,0-0.2,0-0.4c-0.1-0.4-0.2-0.8-0.4-1.2c-0.2-0.4-0.4-0.7-0.8-0.8
			c-0.2-0.1-0.4-0.2-0.6-0.4c-0.7-0.5-1.4-1.1-2.1-1.7c-0.1-0.1-0.2-0.1-0.2-0.1c-0.3-0.1-0.6-0.1-0.9,0c-0.3,0.1-0.7,0.2-1,0.3
			C385.4,226.2,385.4,226.2,385.4,226.7z M383,220.4c0,0.1,0,0.2,0.1,0.4c0.1,0.2,0.1,0.3,0.4,0.4c0.2,0,0.3-0.1,0.4-0.2
			c0.1-0.1,0.1-0.2,0.2-0.3c0.4-0.4,0.7-0.8,1-1.2c0.2-0.3,0.5-0.6,0.6-1c0.3-1.4,0.8-2.8,1.5-4c0.2-0.3,0.1-0.6-0.1-0.9
			c-0.4-0.5-0.9-0.5-1.2,0c-0.1,0.1-0.1,0.2-0.2,0.4c-0.6,0.9-1.2,1.8-1.6,2.8C383.3,217.8,383,219.1,383,220.4z M397.6,231
			c0.2,0,0.3,0,0.4,0c0.5-0.2,1-0.5,1.5-0.7c1.6-0.9,2.9-2.1,3.8-3.7c0.1-0.2,0.2-0.4,0.2-0.7c0-0.2-0.1-0.3-0.3-0.4
			c-0.2,0-0.4,0-0.6,0.2c-1.1,0.7-2.1,1.5-3.2,2.2c-0.2,0.2-0.5,0.3-0.7,0.4c-0.8,0.6-1.3,1.5-1.8,2.2c-0.1,0.1,0,0.1,0,0.2
			C397.2,231,397.4,231,397.6,231z M391.6,231.4c0.4,0.2,0.9,0.3,1.4,0.4c0.9,0.1,1.8,0,2.7-0.1c0.2,0,0.5-0.1,0.7-0.1
			c0,0,0.1,0,0.1-0.1c0-0.1,0-0.1-0.1-0.1c-0.2-0.1-0.3-0.1-0.5-0.1c-1-0.2-2-0.3-3-0.1C392.5,231.1,392,231.2,391.6,231.4z
			 M384.9,227.1c0.1-0.3,0.1-0.6,0-0.9c-0.8-1.4-1.2-2.8-1.5-4.3c0-0.1,0-0.1,0-0.2c-0.1,0-0.1,0-0.1,0.1c-0.1,0-0.1,0.1-0.1,0.2
			c-0.1,0.2-0.1,0.4,0,0.6C383.3,224.1,384,225.6,384.9,227.1z"/>
	</g>
	<g>
		<g>
			<path class="st178" d="M378,220.9c0.8,0.8,1.5,1.6,2.2,2.4c1.5,1.6,2.9,3.3,4.4,5c1,1.1,1.1,2,0.3,3.3c-0.1,0.3-0.6,0.6-0.2,0.8
				c0.4,0.3,0.7-0.1,0.9-0.4c0.4-0.5,0.3-1.1,0.3-1.7c0-2.8-0.1-5.7-0.1-8.5c0-0.5-0.1-1,0.2-1.7c0.4,0.8,0.8,1.4,1,2.1
				c0.9,2.3,1.8,4.6,2.7,6.8c0.3,0.7,0.6,1.4,1.4,1.6c0.3,0.1,0.6,0,0.8-0.3c0.1-0.3-0.1-0.4-0.4-0.6c-0.6-0.3-1-0.9-1.3-1.5
				c-0.4-0.8-0.4-1.4,0.1-2.2c1.7-2.6,2.7-5.5,3.4-8.5c0.1-0.5,0.2-0.9,0.4-1.4c0.6,0.2,0.5,0.6,0.6,0.9c0.8,3.3,1.9,6.5,3.7,9.4
				c0.5,0.9,0,2.2-1,3.1c-0.2,0.2-1,0.3-0.6,0.9c0.4,0.4,1,0.2,1.4-0.2c0.4-0.4,0.6-0.9,0.9-1.5c0.8-2.2,1.7-4.3,2.5-6.5
				c0.3-0.7,0.5-1.4,1-1.9c0.4,0.2,0.3,0.6,0.3,0.9c0.1,2.9,0,5.9-0.1,8.9c0,0.8-0.1,1.5,0.5,2.1c0.2,0.2,0.4,0.5,0.8,0.2
				c0.2-0.2,0-0.5-0.1-0.7c-1-1.8-0.9-2.2,0.4-3.8c1.8-2,3.6-4.1,5.4-6.1c0.3-0.4,0.6-0.8,1.1-1c0.2,0.2,0.1,0.3,0,0.5
				c-2,3.7-3.4,7.7-4.4,11.8c-0.2,0.9-0.6,1.2-1.5,1.2c-7.1,0-14.1,0-21.2,0c-0.6,0-1.2,0.1-1.4-0.7c-1-4.4-2.5-8.6-4.6-12.6
				C377.8,221.1,377.9,221,378,220.9z"/>
			<path class="st2" d="M394.4,237.1c-3.6,0-7.3,0-11,0c-0.8,0-1.7,0-1.7-1.1c0-1,0.9-1.1,1.7-1.1c7.3,0,14.6,0,22,0
				c0.1,0,0.2,0,0.4,0c0.8,0,1.3,0.3,1.3,1.1c0,0.8-0.6,1.1-1.3,1.1c-2.9,0-5.8,0-8.6,0C396.2,237.1,395.3,237.1,394.4,237.1z"/>
			<path class="st2" d="M382.5,237.7c7.9,0,15.9,0,23.8,0c0,0.1,0,0.1,0,0.2c-7.9,0-15.9,0-23.8,0
				C382.5,237.9,382.5,237.8,382.5,237.7z"/>
		</g>
	</g>
</g>
<g>
	<path class="st2" d="M370.5,203.1l1.1-1.2l2,1.8l0,0c-0.1-0.2-0.2-0.5-0.2-0.8l-0.6-2.3l1.4-1.6l0.6,3.4l4.1,0.9l-1.3,1.5l-2.8-0.8
		l0.1,0.8l1.4,1.3l-1.1,1.2L370.5,203.1z"/>
	<path class="st2" d="M376.8,197.1l3.9,5.1l-1.4,1.1l-3.9-5.1L376.8,197.1z"/>
	<path class="st2" d="M383.7,197.4l-2,1.1l0.6,1.1l2.3-1.2l0.6,1.2l-3.8,2l-3-5.6l3.7-2l0.6,1.2l-2.1,1.2l0.5,0.9l2-1.1L383.7,197.4
		z"/>
	<path class="st2" d="M384,193.2l1.6-0.5l1.4,4.8l2.4-0.7l0.4,1.4l-4,1.2L384,193.2z"/>
	<path class="st2" d="M394.1,195.2l-2.3,0.2l0.1,1.2l2.6-0.2l0.1,1.4l-4.3,0.3l-0.5-6.4l4.2-0.3l0.1,1.4l-2.4,0.2l0.1,1l2.3-0.2
		L394.1,195.2z"/>
	<path class="st2" d="M396.1,191.6c0.5,0,1.2,0,2.1,0.1c1,0.2,1.7,0.4,2.1,0.8c0.4,0.4,0.5,0.9,0.4,1.4c-0.1,0.8-0.8,1.2-1.3,1.4v0
		c0.4,0.2,0.6,0.7,0.6,1.2c0.1,0.7,0.2,1.6,0.2,1.9l-1.7-0.2c-0.1-0.2-0.2-0.7-0.2-1.5c-0.1-0.8-0.3-1-0.8-1.1l-0.3-0.1l-0.4,2.4
		l-1.7-0.2L396.1,191.6z M397.4,194.4l0.5,0.1c0.6,0.1,1-0.2,1.1-0.6c0.1-0.5-0.2-0.8-0.8-0.9c-0.3-0.1-0.5-0.1-0.6-0.1L397.4,194.4
		z"/>
	<path class="st2" d="M403.2,197.8c0.3,0.4,0.8,0.8,1.3,1.1c0.5,0.2,0.9,0.2,1-0.1c0.1-0.3,0-0.6-0.6-1.1c-0.8-0.8-1.2-1.6-0.8-2.5
		c0.5-1,1.7-1.4,3.2-0.7c0.7,0.3,1.1,0.7,1.4,1l-0.9,1.1c-0.2-0.2-0.5-0.6-1.1-0.9c-0.5-0.2-0.8-0.2-0.9,0.1
		c-0.1,0.3,0.1,0.6,0.7,1.2c0.9,0.9,1,1.6,0.7,2.4c-0.5,1-1.6,1.5-3.3,0.7c-0.7-0.3-1.3-0.8-1.5-1.1L403.2,197.8z"/>
	<path class="st2" d="M407.5,202.1c-0.5-0.3-0.6-0.9-0.2-1.4s0.9-0.6,1.4-0.3s0.6,0.9,0.2,1.4C408.5,202.4,408,202.5,407.5,202.1
		L407.5,202.1z"/>
	<path class="st2" d="M410,204l3.1-6l1.3,1.3l-1.3,2.3c-0.4,0.6-0.8,1.3-1.2,2h0c0.7-0.4,1.3-0.8,1.9-1.2l2.3-1.3l1.3,1.3l-6,3.1
		L410,204z"/>
	<path class="st2" d="M413,207.6c-0.4-0.4-0.2-1,0.2-1.4c0.5-0.4,1-0.3,1.4,0.2c0.4,0.5,0.2,1-0.2,1.4
		C413.9,208.1,413.4,208,413,207.6L413,207.6z"/>
</g>
</svg>
