<?xml version="1.0" encoding="utf-8"?>
<!-- Generator: Adobe Illustrator 17.0.0, SVG Export Plug-In . SVG Version: 6.00 Build 0)  -->
<!DOCTYPE svg PUBLIC "-//W3C//DTD SVG 1.1//EN" "http://www.w3.org/Graphics/SVG/1.1/DTD/svg11.dtd">
<svg version="1.1" id="Layer_1" xmlns="http://www.w3.org/2000/svg" xmlns:xlink="http://www.w3.org/1999/xlink" x="0px" y="0px"
	 width="600px" height="600px" viewBox="0 0 600 600" enable-background="new 0 0 600 600" xml:space="preserve">
<path fill="#FF8075" stroke="#000000" stroke-miterlimit="10" d="M594.5,576.2c0-93.6-20.8-396.5-56.5-478.7
	c-11.6-26.7-84.7-58.1-155.5-80.1c-24.8-7.7-54.1-9.9-81.7-9.4c-27.8-0.6-61.4,1.3-86.4,9.1C143.6,39.2,74.6,70.8,63,97.5
	C27.2,179.7,6.5,482.7,6.5,576.2c8.8,6.4,17.7,7.6,67.5,9.8c10-134,52-285,52-285s-4.1,248-4.1,270c0.2,18.6,87.7,23.8,173.7,24l0,0
	c1,0,2.5,0,3.5,0s2.5,0,3.5,0l0,0c86-0.2,175-5.4,175.2-24c0-22-2.9-270-2.9-270S517,452,527,586
	C576.6,583.8,585.7,582.7,594.5,576.2z"/>
<g>
	<g>
		<path fill="#FF5A4A" d="M227.5,28.7C240.3,46,262,62.5,298.1,62.5c36.2,0,56.3-16.8,67.4-34.5C335.2,31.1,259.9,30.8,227.5,28.7z"
			/>
		<path fill="#FF056D" stroke="#000000" stroke-miterlimit="10" d="M368.1,1c-17.6,5.3-142.2,2.9-148.6,0.6
			c-0.1,0.3-0.3,0.7-0.5,1.1c2.2,7.1,6.3,17.5,13.7,27.5c29.5,1.9,97.9,2.2,125.6-0.6c6.2-9.9,9.4-20.2,10.9-27.3
			C368.8,1.8,368.4,1.4,368.1,1z"/>
	</g>
	<path fill="#FF056D" stroke="#000000" stroke-miterlimit="10" d="M369.2,2.3C365.1,21,350.2,61,297,61c-53.9,0-72.4-40.1-78-58.3
		c-2.9,5.3-13.9,16.7-13.9,16.7s14.4,61,89.9,61c76.5,0,86.6-58.7,87.7-63.1C380.6,16.4,373.4,6.9,369.2,2.3z"/>
</g>
<path fill="#FFB7B1" d="M95,432c-2.7,14.2-8,45.1-12,73.3c-5.3,38-9.4,73.8-9.6,79.9c-25.1-0.3-44.7-1.9-55.6-4.5
	c-6.3-1.5-9.5-3.2-10.8-4.8c0.4-37.3,3-129.7,12.7-219.3c3.5-32.9,6.5-66.4,9.8-93.7c3.9-31.8,8.2-55.9,10.5-69.7
	c2.4-15,7-40.3,11.7-59.7c4.5-18.5,11.6-36.4,13.2-38.7c1.8-2.7,6.5-4.6,6.5-4.6s30.7-0.8,45.9,57.1c3.1,12.4,5.8,24.3,7.3,36.9
	c4.6,38,5.2,76.8,1.8,113.6C125.9,298,101.3,398.7,95,432z"/>
<path fill="#FFB7B1" d="M505.4,431.3c2.7,14.2,8.7,44.6,12.7,72.8c5.3,38,8.9,75.3,9.1,81.4c25.1-0.3,44.3-2.2,55.2-4.8
	c6.3-1.5,10.2-3.3,11.5-4.9c-0.4-37.3-3.9-132-12.9-221.3c-3.3-32.9-6.7-64.6-10-91.9c-3.9-31.8-7.9-56-10.2-69.8
	c-2.8-16.9-7.8-42.1-12-59.7c-4.5-18.5-11.6-36.4-13.2-38.7c-1.8-2.7-6.5-4.6-6.5-4.6s-30.7-0.8-45.9,57.1
	c-3.1,12.4-5.8,24.3-7.3,36.9c-4.6,38-4.7,77-1.3,113.9c0.2,0,6.3,23.5,12.9,51.4C494.5,379.1,502.1,414,505.4,431.3z"/>
<g>
	<path fill="#FF5A4A" d="M70.4,88.6c0,0,77.1,9.2,55.7,220c-0.4,79.7-1.8,141.7-2.4,184.6c-0.7,46.5-0.8,70.5-0.8,71.6
		c0,3.2-0.6,7.5,0.8,9.2c0.7,1.1,1.7,2.3,3.4,3.5c4.7,3.4,15.3,6.5,27.3,8.8c-14.2-11.6-10.9-42.8-9.8-72.1
		c1.1-29.4-24-95.4-3-199.4c6.8-33.6-5.5-74.9-6-84C131.6,163.1,119.2,97.3,70.4,88.6z"/>
	<path fill="#FF5A4A" d="M532.2,89c0,0-79.2,0.7-57.7,211.5c2.1,168.9,3.2,265.3,3.2,264.5c0-2.3,0,2.4,0,6.2c0,1.3-0.7,2.6-0.9,2.9
		c-0.7,1.1-2,2.2-3.6,3.4c-4.7,3.4-13.3,5.9-25.1,8.2c14.2-11.6,11.1-41.8,10-71.2c-1.1-29.4,24-95.4,3-199.4
		c-6.8-33.6,1.5-83.4,2-92.4C467,155.1,485.7,92,532.2,89z"/>
	<path fill="none" stroke="#FF056D" stroke-width="6" stroke-linecap="round" stroke-miterlimit="10" d="M107.2,112
		c13.3,6.1,32.2,20.7,40.8,15c6.4-4.3-3.3-53.5,6.5-55.1c7.7-1.2,13,47.4,22.8,49.6c13.9,4.3,26.2-43.5,42.2-38.5
		c8.4,2.6,4.8,53.6,14.7,56c9.6,2.3,28.5-44.8,37.5-43.6c12.2,1.5,30.4,47.2,45.3,42.9c13.3-3.9,13.9-57,27.1-60.3
		c15.3-3.9,27.3,42,39,46.3c10,3.6,37.7-38.8,46.9-34.9c10.1,4.2,4.2,55.4,13.6,57.7c10.5,2.6,20-45.1,29.9-47.8
		c2.9-0.8,9,10.5,14.9,21.8"/>
	<path fill="none" stroke="#FF056D" stroke-width="6" stroke-linecap="round" stroke-miterlimit="10" d="M128,171
		c6.4-4.3-3.3-53.5,6.5-55.1c7.7-1.2,13,47.4,22.8,49.6c13.9,4.3,26.2-43.5,42.2-38.5c8.4,2.6,4.8,53.6,14.7,56
		c9.6,2.3,28.5-44.8,37.5-43.6c12.2,1.5,30.4,47.2,45.3,42.9c13.3-3.9,13.9-57,27.1-60.3c15.3-3.9,27.3,42,39,46.3
		c10,3.6,37.7-38.8,46.9-34.9c10.1,4.2,4.2,55.4,13.6,57.7c10.5,2.6,20-45.1,29.9-47.8c3.4-0.9,10.9,14.2,17.6,26.9"/>
	<path fill="none" stroke="#FF056D" stroke-width="6" stroke-linecap="round" stroke-miterlimit="10" d="M135.3,209.5
		c13.9,4.3,26.2-43.5,42.2-38.5c8.4,2.6,4.8,53.6,14.7,56c9.6,2.3,28.5-44.8,37.5-43.6c12.2,1.5,30.4,47.2,45.3,42.9
		c13.3-3.9,13.9-57,27.1-60.3c15.3-3.9,27.3,42,39,46.3c10,3.6,37.7-38.8,46.9-34.9c10.1,4.2,4.2,55.4,13.6,57.7
		c10.5,2.6,20-45.1,29.9-47.8c5.9-1.6,24.3,45.1,28.9,43.8c0.4-0.1,0.8-0.5,1.1-1"/>
	<path fill="none" stroke="#FF056D" stroke-width="6" stroke-linecap="round" stroke-miterlimit="10" d="M134.5,203.9
		c7.7-1.2,13,47.4,22.8,49.6c13.9,4.3,26.2-43.5,42.2-38.5c8.4,2.6,4.8,53.6,14.7,56c9.6,2.3,28.5-44.8,37.5-43.6
		c12.2,1.5,30.4,47.2,45.3,42.9c13.3-3.9,13.9-57,27.1-60.3c15.3-3.9,27.3,42,39,46.3c10,3.6,37.7-38.8,46.9-34.9
		c10.1,4.2,4.2,55.4,13.6,57.7c10.5,2.6,20-45.1,29.9-47.8c1.7-0.5,4.3,2.9,7.4,8"/>
	<path fill="none" stroke="#FF056D" stroke-width="6" stroke-linecap="round" stroke-miterlimit="10" d="M139,252.7
		c5.5,12.2,10.5,43.1,18.3,44.8c13.9,4.3,26.2-43.5,42.2-38.5c8.4,2.6,4.8,53.6,14.7,56c9.6,2.3,28.5-44.8,37.5-43.6
		c12.2,1.5,30.4,47.2,45.3,42.9c13.3-3.9,13.9-57,27.1-60.3c15.3-3.9,27.3,42,39,46.3c10,3.6,37.7-38.8,46.9-34.9
		c10.1,4.2,4.2,55.4,13.6,57.7c10.5,2.6,20-45.1,29.9-47.8c1.1-0.3,2.8,1.2,4.7,3.8"/>
	<path fill="none" stroke="#FF056D" stroke-width="6" stroke-linecap="round" stroke-miterlimit="10" d="M135.3,341.5
		c13.9,4.3,26.2-43.5,42.2-38.5c8.4,2.6,4.8,53.6,14.7,56c9.6,2.3,28.5-44.8,37.5-43.6c12.2,1.5,30.4,47.2,45.3,42.9
		c13.3-3.9,13.9-57,27.1-60.3c15.3-3.9,27.3,42,39,46.3c10,3.6,37.7-38.8,46.9-34.9c10.1,4.2,4.2,55.4,13.6,57.7
		c10.5,2.6,20-45.1,29.9-47.8c5.9-1.6,24.3,45.1,28.9,43.8c2.4-0.7,3.2-8.1,3.4-17.2"/>
	<path fill="none" stroke="#FF056D" stroke-width="6" stroke-linecap="round" stroke-miterlimit="10" d="M136.5,336.7
		c6.6,6.4,11.9,46.8,20.8,48.8c13.9,4.3,26.2-43.5,42.2-38.5c8.4,2.6,4.8,53.6,14.7,56c9.6,2.3,28.5-44.8,37.5-43.6
		c12.2,1.5,30.4,47.2,45.3,42.9c13.3-3.9,13.9-57,27.1-60.3c15.3-3.9,27.3,42,39,46.3c10,3.6,37.7-38.8,46.9-34.9
		c10.1,4.2,4.2,55.4,13.6,57.7c10.5,2.6,20-45.1,29.9-47.8c3.1-0.9,9.9,12.2,16.2,24.2"/>
	<path fill="none" stroke="#FF056D" stroke-width="6" stroke-linecap="round" stroke-miterlimit="10" d="M134.5,379.9
		c7.7-1.2,13,47.4,22.8,49.6c13.9,4.3,26.2-43.5,42.2-38.5c8.4,2.6,4.8,53.6,14.7,56c9.6,2.3,28.5-44.8,37.5-43.6
		c12.2,1.5,30.4,47.2,45.3,42.9c13.3-3.9,13.9-57,27.1-60.3c15.3-3.9,27.3,42,39,46.3c10,3.6,37.7-38.8,46.9-34.9
		c10.1,4.2,4.2,55.4,13.6,57.7c10.5,2.6,20-45.1,29.9-47.8c3-0.8,9.5,11.3,15.6,23"/>
	<path fill="none" stroke="#FF056D" stroke-width="6" stroke-linecap="round" stroke-miterlimit="10" d="M139.8,473.2
		c12.1-5.3,23.5-42.6,37.7-38.2c8.4,2.6,4.8,53.6,14.7,56c9.6,2.3,28.5-44.8,37.5-43.6c12.2,1.5,30.4,47.2,45.3,42.9
		c13.3-3.9,13.9-57,27.1-60.3c15.3-3.9,27.3,42,39,46.3c10,3.6,37.7-38.8,46.9-34.9c10.1,4.2,4.2,55.4,13.6,57.7
		c10.5,2.6,20-45.1,29.9-47.8c5.5-1.5,22.1,39.4,27.9,43.5"/>
	<path fill="none" stroke="#FF056D" stroke-width="6" stroke-linecap="round" stroke-miterlimit="10" d="M142.5,482.5
		c4.3,14.1,8.7,33.7,14.8,35.1c13.9,4.3,26.2-43.5,42.2-38.5c8.4,2.6,4.8,53.6,14.7,56c9.6,2.3,28.5-44.8,37.5-43.6
		c12.2,1.5,30.4,47.2,45.3,42.9c13.3-3.9,13.9-57,27.1-60.3c15.3-3.9,27.3,42,39,46.3c10,3.6,37.7-38.8,46.9-34.9
		c10.1,4.2,4.2,55.4,13.6,57.7c10.5,2.6,20-45.1,29.9-47.8c1.4-0.4,3.5,2,6,5.8"/>
	<path fill="none" stroke="#FF056D" stroke-width="6" stroke-linecap="round" stroke-miterlimit="10" d="M144,530.5
		c3.9,13.4,7.9,28.8,13.3,30c13.9,4.3,26.2-43.5,42.2-38.5c8.4,2.6,4.8,53.6,14.7,56c9.6,2.3,28.5-44.8,37.5-43.6
		c12.2,1.5,30.4,47.2,45.3,42.9c13.3-3.9,13.9-57,27.1-60.3c15.3-3.9,27.3,42,39,46.3c10,3.6,37.7-38.8,46.9-34.9
		c10.1,4.2,4.2,55.4,13.6,57.7c10.5,2.6,20-45.1,29.9-47.8c1.4-0.4,3.5,1.9,5.9,5.7"/>
</g>
<g>
	<g>
		
			<rect x="362.886" y="173.193" transform="matrix(0.7071 0.7071 -0.7071 0.7071 254.9529 -216.7244)" width="52.399" height="52.4"/>
		
			<rect x="365.536" y="175.914" transform="matrix(0.7071 0.7071 -0.7071 0.7071 255.0028 -216.7037)" fill="#FFFFFF" width="47.1" height="47.1"/>
		<rect x="369.036" y="179.273" transform="matrix(0.7071 0.7071 -0.7071 0.7071 254.9028 -216.7451)" width="40.1" height="40.1"/>
	</g>
	<g>
		<g>
			<path fill="#FFFFFF" d="M398.8,197c3.5,2.1,4.7,4.4,4.1,7.3c-0.7,3.4-3.2,5.8-6.8,6.3c-4.1,0.5-8.3,0.1-12.4,0.2
				c-1.5,0-2.9-0.1-4.4,0c-1,0.1-1.3-0.2-1.3-1.3c0.1-2.5-0.1-5,0.1-7.4c0.1-1.3-0.4-2.2-1.3-3c-1.1-1-2.2-2.1-3.4-3.3
				c0.7-0.4,1.2-0.2,1.7-0.2c5.3,0,10.7,0,16,0c0.5,0,1.1,0,1.6-0.1c1.3-0.2,2.2-1.1,2.1-2.2c-0.1-1.2-0.8-2-2-2.1
				c-0.6-0.1-1.3-0.1-1.9-0.1c-6.9,0-15.7,0-22.6,0c-1,0,1.5-5.2,4.1-5.2c6.7,0,13.8-0.1,20.5-0.1c2,0,3.9,0.3,5.6,1.3
				c3.9,2.2,4.3,6.4,0.9,9.3C399.2,196.7,399,196.9,398.8,197z M389.5,205.7L389.5,205.7c1.2,0,2.4,0,3.6,0c1.9-0.1,2.9-1,2.9-2.5
				c0-1.6-1.1-2.7-3-2.7c-1.5,0-2.9-0.1-4.4,0c-1.3,0.1-3-0.6-3.8,0.3c-0.8,0.8-0.1,2.5-0.2,3.8c-0.1,0.9,0.2,1.2,1.1,1.2
				C387.1,205.6,388.3,205.7,389.5,205.7z"/>
		</g>
	</g>
	<polygon fill="#FFFFFF" points="402.2,217.5 376,217.5 373,214.3 405.5,214.3 	"/>
	<polygon fill="#FFFFFF" points="395.3,223.9 382.2,223.9 379.5,220.7 398.7,220.7 	"/>
	<polygon fill="#FFFFFF" points="403,182.8 374.8,182.8 377.9,179.6 400.1,179.6 	"/>
	<polygon fill="#FFFFFF" points="397.1,176.4 381.4,176.4 384.6,173.1 393.9,173.1 	"/>
</g>
</svg>
