<?xml version="1.0" encoding="utf-8"?>
<!-- Generator: Adobe Illustrator 17.0.0, SVG Export Plug-In . SVG Version: 6.00 Build 0)  -->
<!DOCTYPE svg PUBLIC "-//W3C//DTD SVG 1.1//EN" "http://www.w3.org/Graphics/SVG/1.1/DTD/svg11.dtd" [
	<!ENTITY ns_flows "http://ns.adobe.com/Flows/1.0/">
	<!ENTITY ns_extend "http://ns.adobe.com/Extensibility/1.0/">
	<!ENTITY ns_ai "http://ns.adobe.com/AdobeIllustrator/10.0/">
	<!ENTITY ns_graphs "http://ns.adobe.com/Graphs/1.0/">
]>
<svg version="1.1" id="Layer_1" xmlns:x="&ns_extend;" xmlns:i="&ns_ai;" xmlns:graph="&ns_graphs;"
	 xmlns="http://www.w3.org/2000/svg" xmlns:xlink="http://www.w3.org/1999/xlink" xmlns:a="http://ns.adobe.com/AdobeSVGViewerExtensions/3.0/"
	 x="0px" y="0px" width="600px" height="600px" viewBox="0 0 600 600" style="enable-background:new 0 0 600 600;"
	 xml:space="preserve">
<style type="text/css">
	.st0{fill:#0068B4;}
	.st1{fill:#9400A6;}
	.st2{fill:#FFFFFF;}
	.st3{fill:#D2D705;}
	.st4{fill:#7A9E04;}
	.st5{fill:#C272D7;stroke:#000000;stroke-miterlimit:10;}
	.st6{fill:#FFFFFF;stroke:#000000;stroke-miterlimit:10;}
	.st7{fill:#7C0014;}
	.st8{fill:#E0DE71;stroke:#000000;stroke-miterlimit:10;}
	.st9{fill:#CC5C9B;}
	.st10{fill:#B91F75;}
	.st11{fill:#C8218D;stroke:#000000;stroke-miterlimit:10;}
	.st12{fill:#EBA79C;stroke:#000000;stroke-miterlimit:10;}
	.st13{fill:#FF7D6F;}
	.st14{fill:#FE5561;}
	.st15{stroke:#000000;stroke-miterlimit:10;}
	.st16{fill:#10792E;}
	.st17{fill:#5F546E;}
	.st18{fill:#10792E;stroke:#000000;stroke-miterlimit:10;}
	.st19{fill:#C8218D;}
	.st20{fill:#C7CCC4;}
	.st21{fill:#A7DCF3;stroke:#000000;stroke-miterlimit:10;}
	.st22{fill:#49B7E7;}
	.st23{fill:#CB5E22;stroke:#000000;stroke-miterlimit:10;}
	.st24{fill:url(#SVGID_1_);}
	.st25{fill:url(#SVGID_2_);}
	.st26{fill:url(#SVGID_3_);}
	.st27{fill:url(#SVGID_4_);}
	.st28{fill:url(#SVGID_5_);}
	.st29{fill:#242424;stroke:#CB5E22;stroke-miterlimit:10;}
	.st30{fill:#2A2A2A;stroke:#000000;stroke-miterlimit:10;}
	.st31{fill:#5F5F5F;}
	.st32{fill:#2A2A2A;stroke:#FFFFFF;stroke-miterlimit:10;}
	.st33{fill:#C82321;}
	.st34{fill:#FF8075;stroke:#000000;stroke-miterlimit:10;}
	.st35{fill:#FF5A4A;}
	.st36{fill:#FF056D;stroke:#FF8075;stroke-miterlimit:10;}
	.st37{fill:#0075FA;stroke:#000000;stroke-miterlimit:10;}
	.st38{fill:#FF056D;}
	.st39{fill:#0066AE;}
	.st40{fill:#FF056D;stroke:#0075FA;stroke-miterlimit:10;}
	.st41{fill:#EDF3F8;stroke:#000000;stroke-miterlimit:10;}
	.st42{fill:#1D1D1B;stroke:#EDF3F8;stroke-miterlimit:10;}
	.st43{fill:#CFB114;}
	.st44{fill:#22A2A9;}
	.st45{fill:#C2BEC8;}
	.st46{fill:#10792E;stroke:#FFFFFF;stroke-miterlimit:10;}
	.st47{fill:#F6FF14;stroke:#000000;stroke-miterlimit:10;}
	.st48{fill:none;stroke:#87C000;stroke-width:8;stroke-linecap:round;stroke-miterlimit:10;}
	.st49{fill:#DEE200;}
	.st50{fill:#008290;}
	.st51{fill:#FFB7B1;}
	.st52{fill:#9400A6;stroke:#000000;stroke-miterlimit:10;}
	.st53{fill:#DF6B54;stroke:#000000;stroke-miterlimit:10;}
	.st54{fill:#C13323;}
	.st55{fill:#5E0089;}
	.st56{fill:#FDB05F;stroke:#000000;stroke-miterlimit:10;}
	.st57{fill:none;stroke:#000000;stroke-miterlimit:10;}
	.st58{fill:#435338;}
	.st59{fill:#580088;}
	.st60{font-family:'ArialMT';}
	.st61{font-size:11;}
	.st62{fill:#EBA79C;}
	.st63{fill:#FE5561;stroke:#EBA79C;stroke-miterlimit:10;}
	.st64{fill:#F78100;}
	.st65{fill:#FDB05F;}
	.st66{fill:#8E48D8;stroke:#000000;stroke-miterlimit:10;}
	.st67{fill:#5D22A5;}
	.st68{fill:#87D971;stroke:#000000;stroke-miterlimit:10;}
	.st69{fill:#B8EDA4;}
	.st70{fill:#4EC23A;}
	.st71{fill:#2F2428;}
	.st72{fill:#CD0A36;}
	.st73{fill:#4C4C4C;}
	.st74{fill:#146EE4;stroke:#000000;stroke-miterlimit:10;}
	.st75{fill:#79B2FF;}
	.st76{fill:none;stroke:#79B2FF;stroke-width:11;stroke-miterlimit:10;}
	.st77{fill:#0055B8;}
	.st78{fill:#307DDB;}
	.st79{fill:#4F435F;}
	.st80{fill:#212025;}
	.st81{fill:none;stroke:#67D700;stroke-width:8;stroke-miterlimit:10;}
	.st82{fill:#B1BBBE;stroke:#000000;stroke-miterlimit:10;}
	.st83{fill:#8A8B97;}
	.st84{fill:#505C66;stroke:#747785;stroke-miterlimit:10;}
	.st85{fill:#06D0CC;stroke:#000000;stroke-miterlimit:10;}
	.st86{fill:#0299AF;stroke:#000000;stroke-miterlimit:10;}
	.st87{fill:#019DBA;}
	.st88{fill:#CAC5C0;}
	.st89{fill:#0453BC;}
	.st90{fill:#535353;}
	.st91{fill:#EA772F;stroke:#000000;stroke-miterlimit:10;}
	.st92{fill:#1F2427;}
	.st93{fill:#E05900;}
	.st94{fill:#A8A8B4;}
	.st95{fill:#005898;}
	.st96{fill:#79B2FF;stroke:#000000;stroke-miterlimit:10;}
	.st97{fill:#1D3F89;}
	.st98{fill:#E87140;stroke:#000000;stroke-miterlimit:10;}
	.st99{fill:#002F55;}
	.st100{fill:#59504E;stroke:#000000;stroke-miterlimit:10;}
	.st101{fill:#505C66;}
	.st102{fill:#4D99E4;}
	.st103{fill:#F7A161;}
	.st104{fill:#C13323;stroke:#F7A161;stroke-miterlimit:10;}
	.st105{fill:#D24D91;stroke:#000000;stroke-miterlimit:10;}
	.st106{fill:#923EB9;}
	.st107{fill:#D24D91;}
	.st108{fill:#1C232F;stroke:#D24D91;stroke-miterlimit:10;}
	.st109{fill:#0E7B95;stroke:#000000;stroke-miterlimit:10;}
	.st110{fill:#005E8F;}
	.st111{fill:#E2187D;stroke:#000000;stroke-miterlimit:10;}
	.st112{fill:#00A0EB;stroke:#000000;stroke-miterlimit:10;}
	.st113{fill:#C51971;}
	.st114{fill:#E2187D;}
	.st115{fill:#67D700;stroke:#000000;stroke-miterlimit:10;}
	.st116{fill:#48A333;}
	.st117{fill:#67D700;}
	.st118{fill:#8E48D8;}
	.st119{stroke:#A0A0A0;stroke-miterlimit:10;}
	.st120{fill:#87D971;}
	.st121{fill:#4EC23A;stroke:#000000;stroke-miterlimit:10;}
	.st122{fill:#C72365;}
	.st123{fill:#9712C5;}
	.st124{fill:#307DDB;stroke:#000000;stroke-miterlimit:10;}
	.st125{fill:#D53D1F;}
	.st126{fill:#A9007C;}
	.st127{fill:#CDCB20;}
	.st128{fill:#48A333;stroke:#B1C49B;stroke-miterlimit:10;}
	.st129{fill:none;stroke:#48A333;stroke-width:4;stroke-miterlimit:10;}
	.st130{fill:#5A1F8E;}
	.st131{fill:none;stroke:#5A1F8E;stroke-width:3;stroke-miterlimit:10;}
	.st132{fill:#5A1F8E;stroke:#CC5C9B;stroke-miterlimit:10;}
	.st133{fill:#E81C2F;}
	.st134{fill:#FFEE34;}
	.st135{fill:none;stroke:#024598;stroke-width:8;stroke-linecap:round;stroke-miterlimit:10;}
	.st136{fill:none;stroke:#1D1D1B;stroke-width:4;stroke-miterlimit:10;}
	.st137{fill:none;stroke:#FF056D;stroke-width:6;stroke-linecap:round;stroke-miterlimit:10;}
	.st138{fill:#7A8504;}
	.st139{fill:#121617;stroke:#7A8504;stroke-miterlimit:10;}
	.st140{fill:none;stroke:#00268A;stroke-width:6;stroke-linecap:round;stroke-miterlimit:10;}
	.st141{fill:#145863;}
	.st142{fill:#145863;stroke:#22A2A9;stroke-miterlimit:10;}
	.st143{fill:#54B948;}
	.st144{fill:#6F00A6;stroke:#000000;stroke-miterlimit:10;}
	.st145{fill:none;stroke:#FFFFFF;stroke-width:6;stroke-miterlimit:10;}
	.st146{fill:#14DEAC;}
	.st147{fill:#1466AC;}
	.st148{fill:#757575;}
	.st149{fill:none;stroke:#CD0A36;stroke-width:8;stroke-miterlimit:10;}
	.st150{fill:none;stroke:#67D700;stroke-width:40;stroke-miterlimit:10;}
	.st151{fill:#CD0A36;stroke:#000000;stroke-miterlimit:10;}
	.st152{fill:#ED1C24;}
	.st153{fill:none;stroke:#505C66;stroke-width:3;stroke-miterlimit:10;}
	.st154{fill:none;stroke:#06D0CC;stroke-width:3;stroke-miterlimit:10;}
	.st155{fill:#007AC2;}
	.st156{fill:#EF3D1F;}
	.st157{stroke:#EA772F;stroke-miterlimit:10;}
	.st158{fill:#0068B4;stroke:#000000;stroke-miterlimit:10;}
	.st159{fill:#9712C5;stroke:#000000;stroke-miterlimit:10;}
	.st160{fill:#3D8D28;stroke:#000000;stroke-miterlimit:10;}
	.st161{fill:#68ED3A;}
	.st162{fill:#3D8D28;stroke:#FFFFFF;stroke-miterlimit:10;}
	.st163{fill:#68ED3A;stroke:#000000;stroke-miterlimit:10;}
	.st164{fill:#68ED3A;stroke:#FFFFFF;stroke-miterlimit:10;}
	.st165{fill:#00317D;}
	.st166{fill:#00737D;}
	.st167{fill:#146EE4;}
	.st168{fill:#4D99E4;stroke:#000000;stroke-miterlimit:10;}
	.st169{fill:none;stroke:#FFFFFF;stroke-width:11;stroke-miterlimit:10;}
	.st170{fill:#224754;}
	.st171{fill:#0E7B95;}
	.st172{fill:#FF8400;stroke:#000000;stroke-miterlimit:10;}
	.st173{fill:#00A0EB;}
	.st174{fill:#B9187D;}
	.st175{fill:#015297;}
	.st176{fill:#B0B0B0;}
	.st177{fill:#E1062F;}
	.st178{fill:#005BAB;}
</style>
<path class="st37" d="M594.5,576.2c0-93.6-20.8-396.5-56.5-478.7c-11.6-26.7-84.7-58.1-155.5-80.1c-24.8-7.7-54.1-9.9-81.7-9.4
	c-27.8-0.6-61.4,1.3-86.4,9.1C143.6,39.2,74.6,70.8,63,97.5C27.2,179.7,6.5,482.7,6.5,576.2c8.8,6.4,17.7,7.6,67.5,9.8
	c10-134,52-285,52-285s-4.1,248-4.1,270c0.2,18.6,87.7,23.8,173.7,24v0c1,0,2.5,0,3.5,0c1,0,2.5,0,3.5,0v0c86-0.2,175-5.4,175.2-24
	c0-22-2.9-270-2.9-270s42.1,151,52.1,285C576.6,583.8,585.7,582.7,594.5,576.2z"/>
<path class="st38" d="M95,432c-2.7,14.2-8,45.1-12,73.3c-5.3,38-9.4,73.8-9.6,79.9c-25.1-0.3-44.7-1.9-55.6-4.5
	c-6.3-1.5-9.5-3.2-10.8-4.8c0.4-37.3,3-129.7,12.7-219.3c3.5-32.9,6.5-66.4,9.8-93.7c3.9-31.8,8.2-55.9,10.5-69.7
	c2.4-15,7-40.3,11.7-59.7c4.5-18.5,11.6-36.4,13.2-38.7c1.8-2.7,6.5-4.6,6.5-4.6s30.7-0.8,45.9,57.1c3.1,12.4,5.8,24.3,7.3,36.9
	c4.6,38,5.2,76.8,1.8,113.6C125.9,298,101.3,398.7,95,432z"/>
<path class="st38" d="M505.4,431.3c2.7,14.2,8.7,44.6,12.7,72.8c5.3,38,8.9,75.3,9.1,81.4c25.1-0.3,44.3-2.2,55.2-4.8
	c6.3-1.5,10.2-3.3,11.5-4.9c-0.4-37.3-3.9-132-12.9-221.3c-3.3-32.9-6.7-64.6-10-91.9c-3.9-31.8-7.9-56-10.2-69.8
	c-2.8-16.9-7.8-42.1-12-59.7c-4.5-18.5-11.6-36.4-13.2-38.7c-1.8-2.7-6.5-4.6-6.5-4.6s-30.7-0.8-45.9,57.1
	c-3.1,12.4-5.8,24.3-7.3,36.9c-4.6,38-4.7,77-1.3,113.9c0.2,0,6.3,23.5,12.9,51.4C494.5,379.1,502.1,414,505.4,431.3z"/>
<g>
	<g>
		<path class="st39" d="M227.5,28.7C240.3,46,262,62.5,298.1,62.5c36.2,0,56.3-16.8,67.4-34.5C335.2,31.1,259.9,30.8,227.5,28.7z"/>
		<path class="st40" d="M368.1,1c-17.6,5.3-142.2,2.9-148.6,0.6c-0.1,0.3-0.3,0.7-0.5,1.1c2.2,7.1,6.3,17.5,13.7,27.5
			c29.5,1.9,97.9,2.2,125.6-0.6c6.2-9.9,9.4-20.2,10.9-27.3C368.8,1.8,368.4,1.4,368.1,1z"/>
	</g>
	<path class="st40" d="M369.2,2.3c-4.1,18.7-19,58.7-72.2,58.7c-53.9,0-72.4-40.1-78-58.3c-2.9,5.3-13.9,16.7-13.9,16.7
		s14.4,61,89.9,61c76.5,0,86.6-58.7,87.7-63.1C380.6,16.4,373.4,6.9,369.2,2.3z"/>
</g>
<text transform="matrix(1 0 0 1 62.9999 581.0644)" class="st60 st61"> </text>
<path class="st39" d="M532.2,89c0,0-79.3-1.7-57.9,209c2.1,168.9,3.3,267.8,3.3,267c0-2.3,0,2.4,0,6.2c0,1.3-0.7,2.6-0.9,2.9
	c-0.7,1.1-2,2.2-3.6,3.4c-4.7,3.4-13.3,5.9-25.1,8.2c14.2-11.6,11.1-41.8,10-71.2c-1.1-29.4,24-95.4,3-199.4
	c-6.8-33.6,1.5-83.4,2-92.4C467,155.1,485.7,92,532.2,89z"/>
<path class="st39" d="M70.3,88.7c0,0,77.4-1.2,56,209.6c-0.1,19.5-0.4,38.7-0.7,57c-0.3,17.3-0.4,33.7-0.7,49.4
	c-0.6,35.5-0.9,66.1-1.3,88.6c-0.7,46.5-0.8,70.5-0.8,71.6c0,3.2-0.6,7.5,0.8,9.2c0.7,1.1,1.7,2.3,3.4,3.5
	c4.7,3.4,15.3,6.5,27.3,8.8c-14.2-11.6-10.9-42.8-9.8-72.1c1.1-29.4-24-95.4-3-199.4c6.8-33.6-5.5-74.9-6-84
	C131.6,163.3,119.2,97.4,70.3,88.7z"/>
<g>
	<path class="st140" d="M107.2,112c13.3,6.1,32.2,20.7,40.8,15c6.4-4.3-3.3-53.5,6.5-55.1c7.7-1.2,13,47.4,22.8,49.6
		c13.9,4.3,26.2-43.5,42.2-38.5c8.4,2.6,4.8,53.6,14.7,56c9.6,2.3,28.5-44.8,37.5-43.6c12.2,1.5,30.4,47.2,45.3,42.9
		c13.3-3.9,13.9-57,27.1-60.3c15.3-3.9,27.3,42,39,46.3c10,3.6,37.7-38.8,46.9-34.9c10.1,4.2,4.2,55.4,13.6,57.7
		c10.5,2.6,20-45.1,29.9-47.8c2.9-0.8,9,10.5,14.9,21.8"/>
	<path class="st140" d="M128,171c6.4-4.3-3.3-53.5,6.5-55.1c7.7-1.2,13,47.4,22.8,49.6c13.9,4.3,26.2-43.5,42.2-38.5
		c8.4,2.6,4.8,53.6,14.7,56c9.6,2.3,28.5-44.8,37.5-43.6c12.2,1.5,30.4,47.2,45.3,42.9c13.3-3.9,13.9-57,27.1-60.3
		c15.3-3.9,27.3,42,39,46.3c10,3.6,37.7-38.8,46.9-34.9c10.1,4.2,4.2,55.4,13.6,57.7c10.5,2.6,20-45.1,29.9-47.8
		c3.4-0.9,10.9,14.2,17.6,26.9"/>
	<path class="st140" d="M135.3,209.5c13.9,4.3,26.2-43.5,42.2-38.5c8.4,2.6,4.8,53.6,14.7,56c9.6,2.3,28.5-44.8,37.5-43.6
		c12.2,1.5,30.4,47.2,45.3,42.9c13.3-3.9,13.9-57,27.1-60.3c15.3-3.9,27.3,42,39,46.3c10,3.6,37.7-38.8,46.9-34.9
		c10.1,4.2,4.2,55.4,13.6,57.7c10.5,2.6,20-45.1,29.9-47.8c5.9-1.6,24.3,45.1,28.9,43.8c0.4-0.1,0.8-0.5,1.1-1"/>
	<path class="st140" d="M134.5,203.9c7.7-1.2,13,47.4,22.8,49.6c13.9,4.3,26.2-43.5,42.2-38.5c8.4,2.6,4.8,53.6,14.7,56
		c9.6,2.3,28.5-44.8,37.5-43.6c12.2,1.5,30.4,47.2,45.3,42.9c13.3-3.9,13.9-57,27.1-60.3c15.3-3.9,27.3,42,39,46.3
		c10,3.6,37.7-38.8,46.9-34.9c10.1,4.2,4.2,55.4,13.6,57.7c10.5,2.6,20-45.1,29.9-47.8c1.7-0.5,4.3,2.9,7.4,8"/>
	<path class="st140" d="M139,252.7c5.5,12.2,10.5,43.1,18.3,44.8c13.9,4.3,26.2-43.5,42.2-38.5c8.4,2.6,4.8,53.6,14.7,56
		c9.6,2.3,28.5-44.8,37.5-43.6c12.2,1.5,30.4,47.2,45.3,42.9c13.3-3.9,13.9-57,27.1-60.3c15.3-3.9,27.3,42,39,46.3
		c10,3.6,37.7-38.8,46.9-34.9c10.1,4.2,4.2,55.4,13.6,57.7c10.5,2.6,20-45.1,29.9-47.8c1.1-0.3,2.8,1.2,4.7,3.8"/>
	<path class="st140" d="M135.3,341.5c13.9,4.3,26.2-43.5,42.2-38.5c8.4,2.6,4.8,53.6,14.7,56c9.6,2.3,28.5-44.8,37.5-43.6
		c12.2,1.5,30.4,47.2,45.3,42.9c13.3-3.9,13.9-57,27.1-60.3c15.3-3.9,27.3,42,39,46.3c10,3.6,37.7-38.8,46.9-34.9
		c10.1,4.2,4.2,55.4,13.6,57.7c10.5,2.6,20-45.1,29.9-47.8c5.9-1.6,24.3,45.1,28.9,43.8c2.4-0.7,3.2-8.1,3.4-17.2"/>
	<path class="st140" d="M136.5,336.7c6.6,6.4,11.9,46.8,20.8,48.8c13.9,4.3,26.2-43.5,42.2-38.5c8.4,2.6,4.8,53.6,14.7,56
		c9.6,2.3,28.5-44.8,37.5-43.6c12.2,1.5,30.4,47.2,45.3,42.9c13.3-3.9,13.9-57,27.1-60.3c15.3-3.9,27.3,42,39,46.3
		c10,3.6,37.7-38.8,46.9-34.9c10.1,4.2,4.2,55.4,13.6,57.7c10.5,2.6,20-45.1,29.9-47.8c3.1-0.9,9.9,12.2,16.2,24.2"/>
	<path class="st140" d="M134.5,379.9c7.7-1.2,13,47.4,22.8,49.6c13.9,4.3,26.2-43.5,42.2-38.5c8.4,2.6,4.8,53.6,14.7,56
		c9.6,2.3,28.5-44.8,37.5-43.6c12.2,1.5,30.4,47.2,45.3,42.9c13.3-3.9,13.9-57,27.1-60.3c15.3-3.9,27.3,42,39,46.3
		c10,3.6,37.7-38.8,46.9-34.9c10.1,4.2,4.2,55.4,13.6,57.7c10.5,2.6,20-45.1,29.9-47.8c3-0.8,9.5,11.3,15.6,23"/>
	<path class="st140" d="M139.8,473.2c12.1-5.3,23.5-42.6,37.7-38.2c8.4,2.6,4.8,53.6,14.7,56c9.6,2.3,28.5-44.8,37.5-43.6
		c12.2,1.5,30.4,47.2,45.3,42.9c13.3-3.9,13.9-57,27.1-60.3c15.3-3.9,27.3,42,39,46.3c10,3.6,37.7-38.8,46.9-34.9
		c10.1,4.2,4.2,55.4,13.6,57.7c10.5,2.6,20-45.1,29.9-47.8c5.5-1.5,22.1,39.4,27.9,43.5"/>
	<path class="st140" d="M142.5,482.5c4.3,14.1,8.7,33.7,14.8,35.1c13.9,4.3,26.2-43.5,42.2-38.5c8.4,2.6,4.8,53.6,14.7,56
		c9.6,2.3,28.5-44.8,37.5-43.6c12.2,1.5,30.4,47.2,45.3,42.9c13.3-3.9,13.9-57,27.1-60.3c15.3-3.9,27.3,42,39,46.3
		c10,3.6,37.7-38.8,46.9-34.9c10.1,4.2,4.2,55.4,13.6,57.7c10.5,2.6,20-45.1,29.9-47.8c1.4-0.4,3.5,2,6,5.8"/>
	<path class="st140" d="M144,530.5c3.9,13.4,7.9,28.8,13.3,30c13.9,4.3,26.2-43.5,42.2-38.5c8.4,2.6,4.8,53.6,14.7,56
		c9.6,2.3,28.5-44.8,37.5-43.6c12.2,1.5,30.4,47.2,45.3,42.9c13.3-3.9,13.9-57,27.1-60.3c15.3-3.9,27.3,42,39,46.3
		c10,3.6,37.7-38.8,46.9-34.9c10.1,4.2,4.2,55.4,13.6,57.7c10.5,2.6,20-45.1,29.9-47.8c1.4-0.4,3.5,1.9,5.9,5.7"/>
</g>
<g>
	<g>
		<rect x="362.9" y="173.2" transform="matrix(-0.7071 -0.7071 0.7071 -0.7071 523.2228 615.5214)" width="52.4" height="52.4"/>
		
			<rect x="365.5" y="175.8" transform="matrix(-0.7071 -0.7071 0.7071 -0.7071 523.2228 615.5214)" class="st2" width="47.1" height="47.1"/>
		<rect x="369.1" y="179.4" transform="matrix(-0.7071 -0.7071 0.7071 -0.7071 523.2228 615.5214)" width="40.1" height="40.1"/>
	</g>
	<g>
		<g>
			<path class="st2" d="M398.8,197c3.5,2.1,4.7,4.4,4.1,7.3c-0.7,3.4-3.2,5.8-6.8,6.3c-4.1,0.5-8.3,0.1-12.4,0.2
				c-1.5,0-2.9-0.1-4.4,0c-1,0.1-1.3-0.2-1.3-1.3c0.1-2.5-0.1-5,0.1-7.4c0.1-1.3-0.4-2.2-1.3-3c-1.1-1-2.2-2.1-3.4-3.3
				c0.7-0.4,1.2-0.2,1.7-0.2c5.3,0,10.7,0,16,0c0.5,0,1.1,0,1.6-0.1c1.3-0.2,2.2-1.1,2.1-2.2c-0.1-1.2-0.8-2-2-2.1
				c-0.6-0.1-1.3-0.1-1.9-0.1c-6.9,0-15.7,0-22.6,0c-1,0,1.5-5.2,4.1-5.2c6.7,0,13.8-0.1,20.5-0.1c2,0,3.9,0.3,5.6,1.3
				c3.9,2.2,4.3,6.4,0.9,9.3C399.2,196.7,399,196.9,398.8,197z M389.5,205.7L389.5,205.7c1.2,0,2.4,0,3.6,0c1.9-0.1,2.9-1,2.9-2.5
				c0-1.6-1.1-2.7-3-2.7c-1.5,0-2.9-0.1-4.4,0c-1.3,0.1-3-0.6-3.8,0.3c-0.8,0.8-0.1,2.5-0.2,3.8c-0.1,0.9,0.2,1.2,1.1,1.2
				C387.1,205.6,388.3,205.7,389.5,205.7z"/>
		</g>
	</g>
	<polygon class="st2" points="402.2,217.5 376,217.5 373,214.3 405.5,214.3 	"/>
	<polygon class="st2" points="395.3,223.9 382.2,223.9 379.5,220.7 398.7,220.7 	"/>
	<polygon class="st2" points="403,182.8 374.8,182.8 377.9,179.6 400.1,179.6 	"/>
	<polygon class="st2" points="397.1,176.4 381.4,176.4 384.6,173.1 393.9,173.1 	"/>
</g>
</svg>
