<?xml version="1.0" encoding="utf-8"?>
<!-- Generator: Adobe Illustrator 17.0.0, SVG Export Plug-In . SVG Version: 6.00 Build 0)  -->
<!DOCTYPE svg PUBLIC "-//W3C//DTD SVG 1.1//EN" "http://www.w3.org/Graphics/SVG/1.1/DTD/svg11.dtd" [
	<!ENTITY ns_flows "http://ns.adobe.com/Flows/1.0/">
	<!ENTITY ns_extend "http://ns.adobe.com/Extensibility/1.0/">
	<!ENTITY ns_ai "http://ns.adobe.com/AdobeIllustrator/10.0/">
	<!ENTITY ns_graphs "http://ns.adobe.com/Graphs/1.0/">
]>
<svg version="1.1" id="Layer_1" xmlns:x="&ns_extend;" xmlns:i="&ns_ai;" xmlns:graph="&ns_graphs;"
	 xmlns="http://www.w3.org/2000/svg" xmlns:xlink="http://www.w3.org/1999/xlink" xmlns:a="http://ns.adobe.com/AdobeSVGViewerExtensions/3.0/"
	 x="0px" y="0px" width="600px" height="600px" viewBox="0 0 600 600" style="enable-background:new 0 0 600 600;"
	 xml:space="preserve">
<style type="text/css">
	.st0{fill:#0068B4;}
	.st1{fill:#9400A6;}
	.st2{fill:#FFFFFF;}
	.st3{fill:#D2D705;}
	.st4{fill:#7A9E04;}
	.st5{fill:#C272D7;stroke:#000000;stroke-miterlimit:10;}
	.st6{fill:#FFFFFF;stroke:#000000;stroke-miterlimit:10;}
	.st7{fill:#7C0014;}
	.st8{fill:#E0DE71;stroke:#000000;stroke-miterlimit:10;}
	.st9{fill:#CC5C9B;}
	.st10{fill:#B91F75;}
	.st11{fill:#C8218D;stroke:#000000;stroke-miterlimit:10;}
	.st12{fill:#EBA79C;stroke:#000000;stroke-miterlimit:10;}
	.st13{fill:#FF7D6F;}
	.st14{fill:#FE5561;}
	.st15{stroke:#000000;stroke-miterlimit:10;}
	.st16{fill:#10792E;}
	.st17{fill:#5F546E;}
	.st18{fill:#10792E;stroke:#000000;stroke-miterlimit:10;}
	.st19{fill:#C8218D;}
	.st20{fill:#C7CCC4;}
	.st21{fill:#A7DCF3;stroke:#000000;stroke-miterlimit:10;}
	.st22{fill:#49B7E7;}
	.st23{fill:#CB5E22;stroke:#000000;stroke-miterlimit:10;}
	.st24{fill:url(#SVGID_1_);}
	.st25{fill:url(#SVGID_2_);}
	.st26{fill:url(#SVGID_3_);}
	.st27{fill:url(#SVGID_4_);}
	.st28{fill:url(#SVGID_5_);}
	.st29{fill:#242424;stroke:#CB5E22;stroke-miterlimit:10;}
	.st30{fill:#2A2A2A;stroke:#000000;stroke-miterlimit:10;}
	.st31{fill:#5F5F5F;}
	.st32{fill:#2A2A2A;stroke:#FFFFFF;stroke-miterlimit:10;}
	.st33{fill:#C82321;}
	.st34{fill:#FF8075;stroke:#000000;stroke-miterlimit:10;}
	.st35{fill:#FF5A4A;}
	.st36{fill:#FF056D;stroke:#FF8075;stroke-miterlimit:10;}
	.st37{fill:#0075FA;stroke:#000000;stroke-miterlimit:10;}
	.st38{fill:#FF056D;}
	.st39{fill:#0066AE;}
	.st40{fill:#FF056D;stroke:#0075FA;stroke-miterlimit:10;}
	.st41{fill:#EDF3F8;stroke:#000000;stroke-miterlimit:10;}
	.st42{fill:#1D1D1B;stroke:#EDF3F8;stroke-miterlimit:10;}
	.st43{fill:#CFB114;}
	.st44{fill:#22A2A9;}
	.st45{fill:#C2BEC8;}
	.st46{fill:#10792E;stroke:#FFFFFF;stroke-miterlimit:10;}
	.st47{fill:#F6FF14;stroke:#000000;stroke-miterlimit:10;}
	.st48{fill:none;stroke:#87C000;stroke-width:8;stroke-linecap:round;stroke-miterlimit:10;}
	.st49{fill:#DEE200;}
	.st50{fill:#008290;}
	.st51{fill:#FFB7B1;}
	.st52{fill:#9400A6;stroke:#000000;stroke-miterlimit:10;}
	.st53{fill:#DF6B54;stroke:#000000;stroke-miterlimit:10;}
	.st54{fill:#C13323;}
	.st55{fill:#5E0089;}
	.st56{fill:#FDB05F;stroke:#000000;stroke-miterlimit:10;}
	.st57{fill:none;stroke:#000000;stroke-miterlimit:10;}
	.st58{fill:#435338;}
	.st59{fill:#580088;}
	.st60{fill:#EBA79C;}
	.st61{fill:#FE5561;stroke:#EBA79C;stroke-miterlimit:10;}
	.st62{fill:#F78100;}
	.st63{fill:#FDB05F;}
	.st64{fill:#8E48D8;stroke:#000000;stroke-miterlimit:10;}
	.st65{fill:#5D22A5;}
	.st66{fill:#87D971;stroke:#000000;stroke-miterlimit:10;}
	.st67{fill:#B8EDA4;}
	.st68{fill:#4EC23A;}
	.st69{fill:#2F2428;}
	.st70{fill:#CD0A36;}
	.st71{fill:#4C4C4C;}
	.st72{fill:#146EE4;stroke:#000000;stroke-miterlimit:10;}
	.st73{fill:#79B2FF;}
	.st74{fill:none;stroke:#79B2FF;stroke-width:11;stroke-miterlimit:10;}
	.st75{fill:#0055B8;}
	.st76{fill:#307DDB;}
	.st77{fill:#4F435F;}
	.st78{fill:#212025;}
	.st79{fill:none;stroke:#67D700;stroke-width:8;stroke-miterlimit:10;}
	.st80{fill:#B1BBBE;stroke:#000000;stroke-miterlimit:10;}
	.st81{fill:#8A8B97;}
	.st82{fill:#505C66;stroke:#747785;stroke-miterlimit:10;}
	.st83{fill:#06D0CC;stroke:#000000;stroke-miterlimit:10;}
	.st84{fill:#0299AF;stroke:#000000;stroke-miterlimit:10;}
	.st85{fill:#019DBA;}
	.st86{fill:#CAC5C0;}
	.st87{fill:#0453BC;}
	.st88{fill:#535353;}
	.st89{fill:#EA772F;stroke:#000000;stroke-miterlimit:10;}
	.st90{fill:#1F2427;}
	.st91{fill:#E05900;}
	.st92{fill:#A8A8B4;}
	.st93{fill:#005898;}
	.st94{fill:#79B2FF;stroke:#000000;stroke-miterlimit:10;}
	.st95{fill:#1D3F89;}
	.st96{fill:#E87140;stroke:#000000;stroke-miterlimit:10;}
	.st97{fill:#002F55;}
	.st98{fill:#59504E;stroke:#000000;stroke-miterlimit:10;}
	.st99{fill:#505C66;}
	.st100{fill:#4D99E4;}
	.st101{fill:#F7A161;}
	.st102{fill:#C13323;stroke:#F7A161;stroke-miterlimit:10;}
	.st103{fill:#D24D91;stroke:#000000;stroke-miterlimit:10;}
	.st104{fill:#923EB9;}
	.st105{fill:#D24D91;}
	.st106{fill:#1C232F;stroke:#D24D91;stroke-miterlimit:10;}
	.st107{fill:#0E7B95;stroke:#000000;stroke-miterlimit:10;}
	.st108{fill:#005E8F;}
	.st109{fill:#E2187D;stroke:#000000;stroke-miterlimit:10;}
	.st110{fill:#00A0EB;stroke:#000000;stroke-miterlimit:10;}
	.st111{fill:#C51971;}
	.st112{fill:#E2187D;}
	.st113{fill:#67D700;stroke:#000000;stroke-miterlimit:10;}
	.st114{fill:#48A333;}
	.st115{fill:#67D700;}
	.st116{fill:#8E48D8;}
	.st117{stroke:#A0A0A0;stroke-miterlimit:10;}
	.st118{fill:#87D971;}
	.st119{fill:#4EC23A;stroke:#000000;stroke-miterlimit:10;}
	.st120{fill:#C72365;}
	.st121{fill:#9712C5;}
	.st122{fill:#307DDB;stroke:#000000;stroke-miterlimit:10;}
	.st123{fill:#D53D1F;}
	.st124{fill:#A9007C;}
	.st125{fill:#CDCB20;}
	.st126{fill:#48A333;stroke:#B1C49B;stroke-miterlimit:10;}
	.st127{fill:none;stroke:#48A333;stroke-width:4;stroke-miterlimit:10;}
	.st128{fill:#5A1F8E;}
	.st129{fill:none;stroke:#5A1F8E;stroke-width:3;stroke-miterlimit:10;}
	.st130{fill:#5A1F8E;stroke:#CC5C9B;stroke-miterlimit:10;}
	.st131{fill:#E81C2F;}
	.st132{fill:#FFEE34;}
	.st133{fill:none;stroke:#024598;stroke-width:8;stroke-linecap:round;stroke-miterlimit:10;}
	.st134{fill:none;stroke:#1D1D1B;stroke-width:4;stroke-miterlimit:10;}
	.st135{fill:none;stroke:#FF056D;stroke-width:6;stroke-linecap:round;stroke-miterlimit:10;}
	.st136{fill:#7A8504;}
	.st137{fill:#121617;stroke:#7A8504;stroke-miterlimit:10;}
	.st138{fill:none;stroke:#00268A;stroke-width:6;stroke-linecap:round;stroke-miterlimit:10;}
	.st139{fill:#145863;}
	.st140{fill:#145863;stroke:#22A2A9;stroke-miterlimit:10;}
	.st141{fill:#54B948;}
	.st142{fill:#6F00A6;stroke:#000000;stroke-miterlimit:10;}
	.st143{fill:none;stroke:#FFFFFF;stroke-width:6;stroke-miterlimit:10;}
	.st144{fill:#14DEAC;}
	.st145{fill:#1466AC;}
	.st146{fill:#757575;}
	.st147{fill:none;stroke:#CD0A36;stroke-width:8;stroke-miterlimit:10;}
	.st148{fill:none;stroke:#67D700;stroke-width:40;stroke-miterlimit:10;}
	.st149{fill:#CD0A36;stroke:#000000;stroke-miterlimit:10;}
	.st150{fill:#ED1C24;}
	.st151{fill:none;stroke:#505C66;stroke-width:3;stroke-miterlimit:10;}
	.st152{fill:none;stroke:#06D0CC;stroke-width:3;stroke-miterlimit:10;}
	.st153{fill:#007AC2;}
	.st154{fill:#EF3D1F;}
	.st155{stroke:#EA772F;stroke-miterlimit:10;}
	.st156{fill:#0068B4;stroke:#000000;stroke-miterlimit:10;}
	.st157{fill:#9712C5;stroke:#000000;stroke-miterlimit:10;}
	.st158{fill:#3D8D28;stroke:#000000;stroke-miterlimit:10;}
	.st159{fill:#68ED3A;}
	.st160{fill:#3D8D28;stroke:#FFFFFF;stroke-miterlimit:10;}
	.st161{fill:#68ED3A;stroke:#000000;stroke-miterlimit:10;}
	.st162{fill:#68ED3A;stroke:#FFFFFF;stroke-miterlimit:10;}
	.st163{fill:#00317D;}
	.st164{fill:#00737D;}
	.st165{fill:#146EE4;}
	.st166{fill:#4D99E4;stroke:#000000;stroke-miterlimit:10;}
	.st167{fill:none;stroke:#FFFFFF;stroke-width:11;stroke-miterlimit:10;}
	.st168{fill:#224754;}
	.st169{fill:#0E7B95;}
	.st170{fill:#FF8400;stroke:#000000;stroke-miterlimit:10;}
	.st171{fill:#00A0EB;}
	.st172{fill:#B9187D;}
	.st173{fill:#015297;}
	.st174{fill:#B0B0B0;}
	.st175{fill:#E1062F;}
	.st176{fill:#005BAB;}
</style>
<path class="st6" d="M6.1,342.8C40.7,232.2,21.2,187.2,67.7,94.2c10.5-21,71.9-57.8,135.8-73.2c0,0,109.7-25.5,180.5-3.5
	s140.3,53.3,151.9,80c35.7,82.1,31.2,191.6,59.7,243.7c-12.5,1.2-81.3,14.4-109.3,19.7c-2.4-7.3-13.4-60-13.4-60s3.2,248,3.2,270
	c-0.2,19-92.8,24-180.8,24s-167.5-10-167.5-26.9c0-16.8,1.1-262.1,1.1-262.1s-3.3,23.3-8.3,56.1C91.3,361.9,16.4,344,6.1,342.8z"/>
<g>
	<g>
		<path class="st2" d="M234.5,28.7C247.3,46,269,62.5,305.1,62.5c36.2,0,56.3-16.8,67.4-34.5C342.2,31.1,266.9,30.8,234.5,28.7z"/>
		<path class="st7" d="M375.1,1c-17.6,5.3-142.2,2.9-148.6,0.6c-0.1,0.3-0.3,0.7-0.5,1.1c2.2,7.1,6.3,17.5,13.7,27.5
			c29.5,1.9,97.9,2.2,125.6-0.6c6.2-9.9,9.4-20.2,10.9-27.3C375.8,1.8,375.4,1.4,375.1,1z"/>
	</g>
	<path class="st7" d="M376.2,2.3c-4.1,18.7-19,58.7-72.2,58.7c-53.9,0-72.4-40.1-78-58.3c-2.9,5.3-15.1,16-15.1,16
		s15.6,61.7,91.1,61.7c76.5,0,86.6-58.7,87.7-63.1C387.6,16.4,380.4,6.9,376.2,2.3z"/>
</g>
<path class="st6" d="M6.1,342.8C40.7,232.2,21.2,187.2,67.7,94.2c10.5-21,71.9-57.8,135.8-73.2c0,0,109.7-25.5,180.5-3.5
	s140.3,53.3,151.9,80c35.7,82.1,31.2,191.6,59.7,243.7c-12.5,1.2-81.3,14.4-109.3,19.7c-2.4-7.3-13.4-60-13.4-60s3.2,248,3.2,270
	c-0.2,19-92.8,24-180.8,24s-167.5-10-167.5-26.9c0-16.8,1.1-262.1,1.1-262.1s-3.3,23.3-8.3,56.1C91.3,361.9,16.4,344,6.1,342.8z"/>
<g>
	<g>
		<path class="st2" d="M234.5,28.7C247.3,46,269,62.5,305.1,62.5c36.2,0,56.3-16.8,67.4-34.5C342.2,31.1,266.9,30.8,234.5,28.7z"/>
		<path class="st7" d="M375.1,1c-17.6,5.3-142.2,2.9-148.6,0.6c-0.1,0.3-0.3,0.7-0.5,1.1c2.2,7.1,6.3,17.5,13.7,27.5
			c29.5,1.9,97.9,2.2,125.6-0.6c6.2-9.9,9.4-20.2,10.9-27.3C375.8,1.8,375.4,1.4,375.1,1z"/>
	</g>
	<path class="st7" d="M376.2,2.3c-4.1,18.7-19,58.7-72.2,58.7c-53.9,0-72.4-40.1-78-58.3c-2.9,5.3-15.1,16-15.1,16
		s15.6,61.7,91.1,61.7c76.5,0,86.6-58.7,87.7-63.1C387.6,16.4,380.4,6.9,376.2,2.3z"/>
</g>
<path class="st41" d="M6.1,342.8C40.7,232.2,21.2,187.2,67.7,94.2c10.5-21,71.9-57.8,135.8-73.2c0,0,109.7-25.5,180.5-3.5
	s140.3,53.3,151.9,80c35.7,82.1,31.2,191.6,59.7,243.7c-12.5,1.2-81.3,14.4-109.3,19.7c-2.4-7.3-13.4-60-13.4-60s3.2,248,3.2,270
	c-0.2,19-92.8,24-180.8,24s-167.5-10-167.5-26.9c0-16.8,1.1-262.1,1.1-262.1s-3.3,23.3-8.3,56.1C91.3,361.9,16.4,344,6.1,342.8z"/>
<g>
	<g>
		<path class="st20" d="M234.5,28.7C247.3,46,269,62.5,305.1,62.5c36.2,0,56.3-16.8,67.4-34.5C342.2,31.1,266.9,30.8,234.5,28.7z"/>
		<path class="st42" d="M375.1,1c-17.6,5.3-142.2,2.9-148.6,0.6c-0.1,0.3-0.3,0.7-0.5,1.1c2.2,7.1,6.3,17.5,13.7,27.5
			c29.5,1.9,97.9,2.2,125.6-0.6c6.2-9.9,9.4-20.2,10.9-27.3C375.8,1.8,375.4,1.4,375.1,1z"/>
	</g>
	<path class="st42" d="M376.2,2.3c-4.1,18.7-19,58.7-72.2,58.7c-53.9,0-72.4-40.1-78-58.3c-2.9,5.3-15.1,16-15.1,16
		s15.6,61.7,91.1,61.7c76.5,0,86.6-58.7,87.7-63.1C387.6,16.4,380.4,6.9,376.2,2.3z"/>
</g>
<path class="st20" d="M73.8,85.9c0,0,77.1,9.2,55.7,220c-0.9,166-1.1,253.8-1.1,255.9c0,3.2-0.6,7.5,0.8,9.2
	c0.7,1.1,1.7,2.3,3.4,3.5c4.7,3.4,13.4,6.6,25.2,9.1c-14.2-11.6-10.9-42.8-9.8-72.1c1.1-29.4-24-95.4-3-199.4
	c6.8-33.6-5.5-74.9-6-84C135,160.4,122.6,94.6,73.8,85.9z"/>
<path class="st20" d="M530.2,89c0,0-79.2,0.7-57.7,211.5c2.1,168.9,3.2,265.3,3.2,264.5c0-2.3,0,2.4,0,6.2c0,1.3-0.7,2.6-0.9,2.9
	c-0.7,1.1-2,2.2-3.6,3.4c-4.7,3.4-13.3,5.9-25.1,8.2c14.2-11.6,11.1-41.8,10-71.2c-1.1-29.4,24-95.4,3-199.4
	c-6.8-33.6,1.5-83.4,2-92.4C465,155.1,483.7,92,530.2,89z"/>
<g>
	<line class="st134" x1="132" y1="575" x2="132" y2="50"/>
	<line class="st134" x1="158" y1="583" x2="158" y2="39"/>
	<line class="st134" x1="183" y1="588" x2="183" y2="30"/>
	<line class="st134" x1="209" y1="590" x2="209" y2="23"/>
	<line class="st134" x1="234" y1="592" x2="234" y2="61"/>
	<line class="st134" x1="260" y1="593" x2="260" y2="77"/>
	<line class="st134" x1="285" y1="593" x2="285" y2="82"/>
	<line class="st134" x1="311" y1="593" x2="311" y2="83"/>
	<line class="st134" x1="336" y1="593" x2="336" y2="78"/>
	<line class="st134" x1="362" y1="592" x2="362" y2="63"/>
	<line class="st134" x1="387" y1="591" x2="387" y2="25"/>
	<line class="st134" x1="413" y1="589" x2="413" y2="30"/>
	<line class="st134" x1="438" y1="585" x2="438" y2="41"/>
	<line class="st134" x1="464" y1="579" x2="464" y2="51"/>
</g>
<g>
	<g>
		<rect x="362.9" y="173.2" transform="matrix(-0.7071 -0.7071 0.7071 -0.7071 523.2228 615.5214)" width="52.4" height="52.4"/>
		
			<rect x="365.5" y="175.8" transform="matrix(-0.7071 -0.7071 0.7071 -0.7071 523.2228 615.5214)" class="st2" width="47.1" height="47.1"/>
		<rect x="369.1" y="179.4" transform="matrix(-0.7071 -0.7071 0.7071 -0.7071 523.2228 615.5214)" width="40.1" height="40.1"/>
	</g>
	<g>
		<g>
			<path class="st2" d="M398.8,197c3.5,2.1,4.7,4.4,4.1,7.3c-0.7,3.4-3.2,5.8-6.8,6.3c-4.1,0.5-8.3,0.1-12.4,0.2
				c-1.5,0-2.9-0.1-4.4,0c-1,0.1-1.3-0.2-1.3-1.3c0.1-2.5-0.1-5,0.1-7.4c0.1-1.3-0.4-2.2-1.3-3c-1.1-1-2.2-2.1-3.4-3.3
				c0.7-0.4,1.2-0.2,1.7-0.2c5.3,0,10.7,0,16,0c0.5,0,1.1,0,1.6-0.1c1.3-0.2,2.2-1.1,2.1-2.2c-0.1-1.2-0.8-2-2-2.1
				c-0.6-0.1-1.3-0.1-1.9-0.1c-6.9,0-15.7,0-22.6,0c-1,0,1.5-5.2,4.1-5.2c6.7,0,13.8-0.1,20.5-0.1c2,0,3.9,0.3,5.6,1.3
				c3.9,2.2,4.3,6.4,0.9,9.3C399.2,196.7,399,196.9,398.8,197z M389.5,205.7L389.5,205.7c1.2,0,2.4,0,3.6,0c1.9-0.1,2.9-1,2.9-2.5
				c0-1.6-1.1-2.7-3-2.7c-1.5,0-2.9-0.1-4.4,0c-1.3,0.1-3-0.6-3.8,0.3c-0.8,0.8-0.1,2.5-0.2,3.8c-0.1,0.9,0.2,1.2,1.1,1.2
				C387.1,205.6,388.3,205.7,389.5,205.7z"/>
		</g>
	</g>
	<polygon class="st2" points="402.2,217.5 376,217.5 373,214.3 405.5,214.3 	"/>
	<polygon class="st2" points="395.3,223.9 382.2,223.9 379.5,220.7 398.7,220.7 	"/>
	<polygon class="st2" points="403,182.8 374.8,182.8 377.9,179.6 400.1,179.6 	"/>
	<polygon class="st2" points="397.1,176.4 381.4,176.4 384.6,173.1 393.9,173.1 	"/>
</g>
</svg>
