<?xml version="1.0" encoding="utf-8"?>
<!-- Generator: Adobe Illustrator 17.0.0, SVG Export Plug-In . SVG Version: 6.00 Build 0)  -->
<!DOCTYPE svg PUBLIC "-//W3C//DTD SVG 1.1//EN" "http://www.w3.org/Graphics/SVG/1.1/DTD/svg11.dtd" [
	<!ENTITY ns_flows "http://ns.adobe.com/Flows/1.0/">
	<!ENTITY ns_extend "http://ns.adobe.com/Extensibility/1.0/">
	<!ENTITY ns_ai "http://ns.adobe.com/AdobeIllustrator/10.0/">
	<!ENTITY ns_graphs "http://ns.adobe.com/Graphs/1.0/">
]>
<svg version="1.1" id="Layer_1" xmlns:x="&ns_extend;" xmlns:i="&ns_ai;" xmlns:graph="&ns_graphs;"
	 xmlns="http://www.w3.org/2000/svg" xmlns:xlink="http://www.w3.org/1999/xlink" xmlns:a="http://ns.adobe.com/AdobeSVGViewerExtensions/3.0/"
	 x="0px" y="0px" width="600px" height="600px" viewBox="0 0 600 600" style="enable-background:new 0 0 600 600;"
	 xml:space="preserve">
<style type="text/css">
	.st0{fill:#000100;}
	.st1{fill:#E80040;stroke:#000000;stroke-miterlimit:10;}
	.st2{fill:#FCE200;stroke:#000000;stroke-miterlimit:10;}
	.st3{fill:#FEA63F;stroke:#000000;stroke-miterlimit:10;}
	.st4{fill:#FFFFFF;stroke:#000000;stroke-miterlimit:10;}
	.st5{fill:#FFFFFF;}
	.st6{fill:#7C0014;}
	.st7{fill:#75C255;stroke:#000000;stroke-miterlimit:10;}
	.st8{fill:#52B329;}
	.st9{fill:#52BCE0;stroke:#000000;stroke-miterlimit:10;}
	.st10{fill:#48ACD0;}
	.st11{fill:#028CBE;}
	.st12{fill:#52BCE0;}
	.st13{fill:#EFF0F9;stroke:#4E3B64;stroke-miterlimit:10;}
	.st14{fill:#1D5662;stroke:#000000;stroke-miterlimit:10;}
	.st15{fill:#1D5662;}
	.st16{fill:#054049;}
	.st17{fill:#037FC7;}
	.st18{fill:#9158B6;stroke:#000000;stroke-miterlimit:10;}
	.st19{fill:#752EA5;}
	.st20{fill:#2678C7;}
	.st21{fill:#FABFB6;stroke:#000000;stroke-miterlimit:10;}
	.st22{fill:#FABFB6;}
	.st23{fill:#FC8038;stroke:#FABFB6;stroke-miterlimit:10;}
	.st24{fill:#00A39B;}
	.st25{fill:#E53A3E;stroke:#000000;stroke-miterlimit:10;}
	.st26{fill:#E53A3E;}
	.st27{fill:#242424;stroke:#5C377E;stroke-miterlimit:10;}
	.st28{fill:#525252;stroke:#000000;stroke-miterlimit:10;}
	.st29{fill:#4998BB;}
	.st30{fill:#1A7F9E;}
	.st31{fill:#E58000;stroke:#000000;stroke-miterlimit:10;}
	.st32{fill:#BA7500;stroke:#000000;stroke-miterlimit:10;}
	.st33{fill:#DF961C;stroke:#000000;stroke-miterlimit:10;}
	.st34{fill:#DF961C;}
	.st35{fill:#EDF3F8;stroke:#000000;stroke-miterlimit:10;}
	.st36{fill:#DA7600;}
	.st37{fill:#C2BEC8;}
	.st38{fill:#000100;stroke:#FFFFFF;stroke-miterlimit:10;}
	.st39{fill:#A8F001;stroke:#000000;stroke-miterlimit:10;}
	.st40{fill:#0578CD;}
	.st41{fill:#1A58A5;}
	.st42{stroke:#625616;stroke-miterlimit:10;}
	.st43{adobe-knockout:true;}
	.st44{fill:none;stroke:#FFFFFF;stroke-width:3;stroke-miterlimit:10;adobe-knockout:false;}
	.st45{fill:#D71F26;stroke:#000000;stroke-miterlimit:10;}
	.st46{fill:#008183;}
	.st47{fill:#6FC266;}
	.st48{fill:#C4373C;}
	.st49{fill:#00CAB0;}
	.st50{fill:#FAAE1E;}
	.st51{fill:#EC153B;}
	.st52{fill:#00B296;}
	.st53{fill:#F2C958;stroke:#00CAB0;stroke-miterlimit:10;}
	.st54{fill:#FF354F;stroke:#000000;stroke-miterlimit:10;}
	.st55{fill:#0D36A7;stroke:#000000;stroke-miterlimit:10;}
	.st56{fill:#D2D7E2;stroke:#000000;stroke-miterlimit:10;}
	.st57{fill:#CA2B9D;stroke:#000000;stroke-miterlimit:10;}
	.st58{fill:#58006C;stroke:#000000;stroke-miterlimit:10;}
	.st59{fill:#C60021;}
	.st60{fill:#A30F81;}
	.st61{fill:#0159C0;stroke:#A0A0A0;stroke-miterlimit:10;}
	.st62{fill:#013390;}
	.st63{fill:#F08900;}
	.st64{fill:#D20129;}
	.st65{fill:#AD0000;}
	.st66{fill:#131E25;}
	.st67{fill:#DAD2D8;stroke:#000000;stroke-miterlimit:10;}
	.st68{fill:#0066B3;}
	.st69{fill:#969796;}
	.st70{fill:#E86271;}
	.st71{fill:url(#SVGID_1_);stroke:#000000;stroke-miterlimit:10;}
	.st72{fill:#5AB4D2;stroke:#000000;stroke-miterlimit:10;}
	.st73{fill:#5AB4D2;}
	.st74{fill:#FFFFFF;stroke:#5AB4D2;stroke-miterlimit:10;}
	.st75{fill:#073F98;stroke:#0453BC;stroke-miterlimit:10;}
	.st76{fill:#2762C9;stroke:#000000;stroke-miterlimit:10;}
	.st77{fill:#C252FF;}
	.st78{fill:url(#SVGID_2_);}
	.st79{fill:url(#SVGID_3_);}
	.st80{fill:#DAD2D8;}
	.st81{stroke:#000000;stroke-miterlimit:10;}
	.st82{fill:#05297D;stroke:#000000;stroke-miterlimit:10;}
	.st83{fill:#05297D;stroke:#FFFFFF;stroke-miterlimit:10;}
	.st84{fill:#A8A8B4;}
	.st85{fill:url(#SVGID_4_);stroke:#000000;stroke-miterlimit:10;}
	.st86{fill:#53536A;}
	.st87{fill:#073F98;}
	.st88{fill:#098FBC;}
	.st89{fill:url(#SVGID_5_);}
	.st90{fill:#F7A161;}
	.st91{fill:#FF0000;stroke:#000000;stroke-miterlimit:10;}
	.st92{fill:#F54849;stroke:#000000;stroke-miterlimit:10;}
	.st93{fill:url(#SVGID_6_);}
	.st94{fill:url(#SVGID_7_);}
	.st95{fill:#3A72B7;stroke:#000000;stroke-miterlimit:10;}
	.st96{fill:#96C4F0;stroke:#000000;stroke-miterlimit:10;}
	.st97{fill:#C50040;}
	.st98{fill:#D11E24;}
	.st99{fill:#E3E3E7;}
	.st100{stroke:#FFCF2B;stroke-miterlimit:10;}
	.st101{fill:none;stroke:#F9E42A;stroke-miterlimit:10;}
	.st102{fill:#F08900;stroke:#000000;stroke-miterlimit:10;}
	.st103{fill:#F28330;}
	.st104{fill:#FC8038;}
	.st105{fill:#5AB633;}
	.st106{fill:#553658;stroke:#75C255;stroke-miterlimit:10;}
	.st107{fill:#1853A6;}
	.st108{fill:#CB0000;}
	.st109{fill:#0F0D0E;}
	.st110{fill:#636363;}
	.st111{fill:#FFFFFF;stroke:#00A39B;stroke-miterlimit:10;}
	.st112{fill:#D71F26;}
	.st113{fill:#020000;}
	.st114{fill:none;stroke:#000000;stroke-width:0.5;stroke-miterlimit:10;}
	.st115{clip-path:url(#SVGID_9_);}
	.st116{clip-path:url(#SVGID_11_);}
	.st117{clip-path:url(#SVGID_13_);}
	.st118{clip-path:url(#SVGID_15_);}
	.st119{fill:#7A4A00;}
	.st120{fill:none;stroke:#1A7F9E;stroke-width:7;stroke-miterlimit:10;}
	.st121{fill:#E20227;stroke:#4998BB;stroke-miterlimit:10;}
	.st122{fill:#1F2427;}
	.st123{fill:#BA7500;}
	.st124{fill:none;stroke:#BA7500;stroke-width:7;stroke-miterlimit:10;}
	.st125{fill:#843D00;stroke:#000000;stroke-width:0.25;stroke-miterlimit:10;}
	.st126{stroke:#000000;stroke-width:0.25;stroke-miterlimit:10;}
	.st127{fill:#ECEEF3;stroke:#1A58A5;stroke-miterlimit:10;}
	.st128{fill:#233194;}
	.st129{fill:#E0DFE3;}
	.st130{fill:#C2BEC8;stroke:#000000;stroke-miterlimit:10;}
	.st131{fill:#233194;stroke:#000000;stroke-miterlimit:10;}
	.st132{fill:#A40100;}
	.st133{adobe-knockout:false;}
	.st134{fill:#A0AAC1;}
	.st135{fill:#A40100;stroke:#000000;stroke-miterlimit:10;}
	.st136{fill:#92F0D6;}
	.st137{fill:#F2C958;}
	.st138{fill:#CA2B9D;stroke:#CA2B9D;stroke-miterlimit:10;}
	.st139{fill:#A30F81;stroke:#000000;stroke-miterlimit:10;}
	.st140{fill:#7E2B42;}
	.st141{fill:#0D36A7;}
	.st142{fill:#EE1C24;}
	.st143{fill:#0159C0;}
	.st144{stroke:#A0A0A0;stroke-miterlimit:10;}
	.st145{stroke:#4E3B64;stroke-miterlimit:10;}
	.st146{fill:#FDEA00;stroke:#000000;stroke-width:0.217;}
	.st147{fill:#FDEA00;stroke:#000000;stroke-width:0.2326;}
	.st148{fill:#1D1D1B;}
	.st149{fill:#FF0000;}
	.st150{fill:none;stroke:#0453BC;stroke-width:25.435;stroke-miterlimit:10;adobe-knockout:false;}
	.st151{fill:none;stroke:#0453BC;stroke-width:25.4353;stroke-linecap:round;stroke-miterlimit:10;adobe-knockout:false;}
	.st152{fill:#CAC5C0;}
	.st153{fill:#2762C9;}
	.st154{fill:#C252FF;stroke:#000000;stroke-miterlimit:10;}
	.st155{fill:#A54B2D;stroke:#000000;stroke-miterlimit:10;}
	.st156{fill:#A54B2D;}
	.st157{stroke:#A54B2D;stroke-miterlimit:10;}
	.st158{fill:#823311;}
	.st159{fill:none;}
	.st160{fill:#05297D;}
	.st161{fill:none;stroke:#FF7F35;stroke-width:6;stroke-miterlimit:10;}
	.st162{fill:#031DFF;stroke:#000000;stroke-miterlimit:10;}
	.st163{fill:#0370FF;stroke:#000000;stroke-miterlimit:10;}
	.st164{fill:#031DC4;}
	.st165{fill:none;stroke:#0080CA;stroke-width:6;stroke-miterlimit:10;}
	.st166{fill:#031DFF;stroke:#FFFFFF;stroke-miterlimit:10;}
	.st167{fill:#0263B0;}
	.st168{fill:none;stroke:#FFFFFF;stroke-width:2;stroke-miterlimit:10;}
	.st169{fill:url(#SVGID_16_);stroke:#FFFFFF;stroke-miterlimit:10;}
	.st170{fill:url(#SVGID_17_);}
	.st171{fill:url(#SVGID_18_);}
	.st172{fill:url(#SVGID_19_);}
	.st173{fill:#693B0F;stroke:#000000;stroke-miterlimit:10;}
	.st174{fill:#3E4E70;}
	.st175{fill:#F7CE02;}
	.st176{fill:#0551E1;stroke:#000000;stroke-miterlimit:10;}
	.st177{fill:#EC153B;stroke:#000000;stroke-miterlimit:10;}
	.st178{fill:#0831FD;}
	.st179{fill:#0870FD;}
	.st180{fill:none;stroke:#9F3D44;stroke-width:3;stroke-miterlimit:10;}
</style>
<path class="st40" d="M6.1,342.8C40.7,232.2,21.2,187.2,67.7,94.2c10.5-21,71.9-57.8,135.8-73.2c0,0,109.7-25.5,180.5-3.5
	s140.3,53.3,151.9,80c35.7,82.1,31.2,191.6,59.7,243.7c-12.5,1.2-81.3,14.4-109.3,19.7c-2.4-7.3-13.4-60-13.4-60s3.2,248,3.2,270
	c-0.2,19-92.8,24-180.8,24s-167.5-10-167.5-26.9c0-16.8,1.1-262.1,1.1-262.1s-3.3,23.3-8.3,56.1C91.3,361.9,16.4,344,6.1,342.8z"/>
<path class="st41" d="M73.8,85.9c0,0,77.1,9.2,55.7,220c-0.9,166-1.1,253.8-1.1,255.9c0,3.2-0.6,7.5,0.8,9.2
	c0.7,1.1,1.7,2.3,3.4,3.5c4.7,3.4,13.4,6.6,25.2,9.1c-14.2-11.6-10.9-42.8-9.8-72.1c1.1-29.4-24-95.4-3-199.4
	c6.8-33.6-5.5-74.9-6-84C135,160.4,122.6,94.6,73.8,85.9z"/>
<path class="st41" d="M530.2,89c0,0-79.2,0.7-57.7,211.5c2.1,168.9,3.2,265.3,3.2,264.5c0-2.3,0,2.4,0,6.2c0,1.3-0.7,2.6-0.9,2.9
	c-0.7,1.1-2,2.2-3.6,3.4c-4.7,3.4-13.3,5.9-25.1,8.2c14.2-11.6,11.1-41.8,10-71.2c-1.1-29.4,24-95.4,3-199.4
	c-6.8-33.6,1.5-83.4,2-92.4C465,155.1,483.7,92,530.2,89z"/>
<g>
	<path class="st41" d="M474.4,52.4c-13.2-6.2-21.2-9-21.2-9L299.4,302.3L142.2,44.2c0,0-10,4.3-20.9,9.7s-19.5,10.3-19.5,10.3
		l198.1,325.4L494.3,62.5C494.3,62.5,487.6,58.7,474.4,52.4z"/>
</g>
<g>
	<path class="st41" d="M312.6,44.2l-13.2,22.2l-15.8-26c-18.3-1.8-36.5-2.6-54.7-3.3l71,116.6L359.1,54c-7.7-1.5-15.3-3.1-23.1-5
		C328.1,47.1,320.3,45.5,312.6,44.2z"/>
</g>
<g>
	<path class="st41" d="M462,333c0.9-21.3,1.8-43.5,2.7-65c-7.3-3.1-11.4-4.6-11.4-4.6L299.4,522.3L142.2,264.2c0,0-0.8,0.3-2.2,0.9
		c-2.9,22.7-6.3,45.4-8.4,68.1l157.8,259.2c7.1-0.9,14.2-1.3,21.2-1l153.5-258.4C463.5,333.1,462.7,333,462,333z"/>
</g>
<g>
	<g>
		<path class="st40" d="M234.5,28.7C247.3,46,269,62.5,305.1,62.5c36.2,0,56.3-16.8,67.4-34.5C342.2,31.1,266.9,30.8,234.5,28.7z"/>
		<path class="st127" d="M375.1,1c-17.6,5.3-142.2,2.9-148.6,0.6c-0.1,0.3-0.3,0.7-0.5,1.1c2.2,7.1,6.3,17.5,13.7,27.5
			c29.5,1.9,97.9,2.2,125.6-0.6c6.2-9.9,9.4-20.2,10.9-27.3C375.8,1.8,375.4,1.4,375.1,1z"/>
	</g>
	<path class="st127" d="M376.2,2.3c-4.1,18.7-19,58.7-72.2,58.7c-53.9,0-72.4-40.1-78-58.3c-2.9,5.3-15.1,16-15.1,16
		s15.6,61.7,91.1,61.7c76.5,0,86.6-58.7,87.7-63.1C387.6,16.4,380.4,6.9,376.2,2.3z"/>
</g>
<g>
	<g>
		<path class="st5" d="M388.2,226.9c-16.8,0-30.4-13.6-30.4-30.4s13.6-30.4,30.4-30.4s30.4,13.6,30.4,30.4S405,226.9,388.2,226.9z"
			/>
		<path class="st20" d="M388.2,221.5c-13.8,0-25-11.2-25-25s11.2-25,25-25s25,11.2,25,25S402,221.5,388.2,221.5z"/>
		<path class="st20" d="M388.2,167.2c7.8,0,15.1,3.1,20.7,8.6c5.5,5.5,8.6,12.9,8.6,20.7s-3,15.1-8.6,20.7
			c-5.5,5.5-12.8,8.6-20.7,8.6s-15.1-3.1-20.7-8.6c-5.5-5.5-8.6-12.9-8.6-20.7s3-15.1,8.6-20.7C373.1,170.3,380.4,167.2,388.2,167.2
			 M388.2,165c-17.4,0-31.5,14.1-31.5,31.5s14.1,31.5,31.5,31.5s31.5-14.1,31.5-31.5S405.6,165,388.2,165L388.2,165z"/>
	</g>
	<g>
		<path class="st5" d="M391.9,193.6c0.1-0.3,0.2-0.5,0.2-0.7c0.5-3.4-0.9-6.9,0.8-10.1c0.1-0.1,0-0.3-0.1-0.4
			c-0.7-1.4-4.9-2.6-6.2-1.8c-1.5,0.9-4,1.3-2.4,4.1c0.2,0.4,0,0.9,0,1.4c0,2.7,0,5.3,0,8c0,0.9,0.1,1.8,1.1,2.1
			c4.2,1.2,4.7,4.4,4.2,8.1c-0.1,1.1,0,2.2,0,3.3c0,1.1,0,2.3-1.3,2.4c-1.5,0.1-1.5-1.2-1.5-2.4c0-2.1-0.1-4.1,0-6.1
			c0-1.4-0.9-2.1-2-2.1c-1.1,0-0.5,1.2-0.6,1.9c-0.1,2.2,0.5,4.6-0.1,6.5c-1.2,3.3,1.2,3.7,3,4.8c0.1,0.1,0.1,0.1,0.2,0.1
			c0.8,0.3,5.3-1.6,5.6-2.4c0-0.1,0-0.3-0.1-0.4c-1.5-2.8-0.7-5.8-0.6-8.7c0.1-3-0.6-4.9-3.5-6c-1-0.4-2-0.8-1.9-2.3
			c0.1-2.8,0-5.5,0-8.2c0-1,0.4-1.8,1.4-1.8c1,0,1.4,0.8,1.4,1.8c0,2,0.1,4.1,0,6.1C389.5,192.5,390.2,193.3,391.9,193.6z"/>
		<path class="st5" d="M376.3,195.3c0-2.2,0-4.2,0-6.3c0-0.9-0.4-1.6-1.4-1.5c-0.9,0.1-2.2,0.7-2,1.3c1.5,3.8,0.3,7.7,0.7,11.6
			c0.1,0.9,0,1.9-0.1,2.8c-0.1,0.5-1.2,0.8-0.2,1.4c0.6,0.4,1.2,1,2.1,0.6c0.7-0.3,0.8-0.8,0.8-1.5c0-2,0-4.1,0-6.2
			c1.2,0.3,2.4,0.6,2.5,1.7c0.2,2.3,0,4.7,0,7c0,0.5-1.2,0.9-0.1,1.4c0.6,0.3,1.1,1.1,2.1,0.7c0.8-0.4,0.8-1.1,0.8-1.8
			c0-2.7-0.1-5.3,0.1-8c0.1-1-1.1-1.5-0.7-2.5c1.3-3.4,0.4-7,0.5-10.6c0.1-0.8-0.8-1.3-1.5-1c-0.6,0.3-2.1,0.6-1.6,1.5
			c1.1,2.1,0.3,4.1,0.6,6.2C379.2,193.9,378.4,194.9,376.3,195.3z"/>
		<path class="st5" d="M402.7,194.6c0.2-2.2,0.9-4.8,0.3-6.2c-0.8-1.7-3.7-2.4-5.6-3.6c-0.1,0-0.1-0.1-0.2-0.1
			c-1.5-0.8-2.2-0.3-2.2,1.3c0,6.9,0,13.8,0,20.7c0,1.5,0.7,2.1,2.1,1.3c1.9-1.1,3.8-2.2,5.7-3.3c0.4-0.2,1.3-0.4,0.6-1.1
			c-1-1.1-0.5-2.4-0.5-3.6c0.1-1.9-0.8-2.7-2.7-3c0,1.9,0,3.6,0,5.4c0,1.2-1,1.5-1.8,1.9c-0.7,0.3-0.8-0.3-0.8-0.8c0-5,0-10,0-15.1
			c2.1,0.2,2.9,1.2,2.6,3C399.9,193.2,400.6,194.2,402.7,194.6z"/>
	</g>
</g>
</svg>
