<?xml version="1.0" encoding="utf-8"?>
<!-- Generator: Adobe Illustrator 17.0.0, SVG Export Plug-In . SVG Version: 6.00 Build 0)  -->
<!DOCTYPE svg PUBLIC "-//W3C//DTD SVG 1.1//EN" "http://www.w3.org/Graphics/SVG/1.1/DTD/svg11.dtd" [
	<!ENTITY ns_flows "http://ns.adobe.com/Flows/1.0/">
	<!ENTITY ns_extend "http://ns.adobe.com/Extensibility/1.0/">
	<!ENTITY ns_ai "http://ns.adobe.com/AdobeIllustrator/10.0/">
	<!ENTITY ns_graphs "http://ns.adobe.com/Graphs/1.0/">
]>
<svg version="1.1" id="Layer_1" xmlns:x="&ns_extend;" xmlns:i="&ns_ai;" xmlns:graph="&ns_graphs;"
	 xmlns="http://www.w3.org/2000/svg" xmlns:xlink="http://www.w3.org/1999/xlink" xmlns:a="http://ns.adobe.com/AdobeSVGViewerExtensions/3.0/"
	 x="0px" y="0px" width="600px" height="600px" viewBox="0 0 600 600" style="enable-background:new 0 0 600 600;"
	 xml:space="preserve">
<style type="text/css">
	.st0{fill:#FE0000;stroke:#000000;stroke-miterlimit:10;}
	.st1{fill:#FFFFFF;stroke:#000000;stroke-miterlimit:10;}
	.st2{fill:#FFFFFF;}
	.st3{fill:#7C0014;}
	.st4{fill:#F959FF;stroke:#000000;stroke-miterlimit:10;}
	.st5{fill:#EA24AE;}
	.st6{fill:#0563E1;}
	.st7{fill:#0B0A11;}
	.st8{fill:#004D9B;}
	.st9{fill:#C20000;}
	.st10{fill:#0563E1;stroke:#000000;stroke-miterlimit:10;}
	.st11{fill:url(#SVGID_1_);stroke:#000000;stroke-miterlimit:10;}
	.st12{fill:url(#SVGID_2_);}
	.st13{fill:#8ADAC9;stroke:#000000;stroke-miterlimit:10;}
	.st14{fill:#23495B;stroke:#000000;stroke-miterlimit:10;}
	.st15{fill:#CAC5C0;}
	.st16{fill:#23495B;}
	.st17{fill:#1976C9;stroke:#000000;stroke-miterlimit:10;}
	.st18{fill:#02619F;}
	.st19{fill:#1976C9;}
	.st20{fill:#02619F;stroke:#1976C9;stroke-miterlimit:10;}
	.st21{fill:#77A4CB;stroke:#000000;stroke-miterlimit:10;}
	.st22{stroke:#EDF3F8;stroke-miterlimit:10;}
	.st23{fill:#77A4CB;}
	.st24{fill:#C7CCC4;}
	.st25{fill:#FFFA5B;stroke:#000000;stroke-miterlimit:10;}
	.st26{fill:#1E2A24;}
	.st27{fill:#EBF0F5;stroke:#000000;stroke-miterlimit:10;}
	.st28{fill:url(#SVGID_3_);}
	.st29{fill:url(#SVGID_4_);}
	.st30{fill:#FFB05B;}
	.st31{fill:#4FAFBF;stroke:#000000;stroke-miterlimit:10;}
	.st32{fill:#43DA98;stroke:#000000;stroke-miterlimit:10;}
	.st33{fill:#00B273;}
	.st34{fill:#43DA98;}
	.st35{fill:#00B273;stroke:#000000;stroke-miterlimit:10;}
	.st36{fill:#BC2567;stroke:#FFFFFF;stroke-miterlimit:10;}
	.st37{fill:#8B004D;stroke:#000000;stroke-miterlimit:10;}
	.st38{fill:#5B5B4F;stroke:#000000;stroke-miterlimit:10;}
	.st39{fill:#3A3F40;}
	.st40{fill:#E7C993;}
	.st41{fill:#8B004D;}
	.st42{fill:#5B5B4F;}
	.st43{fill:#F02233;stroke:#000000;stroke-miterlimit:10;}
	.st44{fill:#4E2664;stroke:#000000;stroke-miterlimit:10;}
	.st45{fill:#04829F;}
	.st46{adobe-knockout:true;}
	.st47{fill:none;stroke:#FFFFFF;stroke-width:3;stroke-miterlimit:10;adobe-knockout:false;}
	.st48{fill:#006F8C;}
	.st49{fill:#F32CBB;stroke:#000000;stroke-miterlimit:10;}
	.st50{fill:#C000AD;stroke:#000000;stroke-miterlimit:10;}
	.st51{fill:#6BBA4F;}
	.st52{fill:#03850D;}
	.st53{fill:#97C0DA;stroke:#000000;stroke-miterlimit:10;}
	.st54{fill:#83A5CB;}
	.st55{fill:#0453BC;}
	.st56{fill:#A79F96;}
	.st57{fill:#0CD3CA;stroke:#000000;stroke-miterlimit:10;}
	.st58{fill:#299AB8;}
	.st59{fill:#299AB8;stroke:#000000;stroke-miterlimit:10;}
	.st60{fill:#C000AD;}
	.st61{fill:#0099C7;}
	.st62{fill:#6E4D7F;stroke:#000000;stroke-miterlimit:10;}
	.st63{fill:#04829F;stroke:#000000;stroke-miterlimit:10;}
	.st64{fill:none;stroke:#EA24AE;stroke-width:8;stroke-miterlimit:10;}
	.st65{fill:#F959FF;}
	.st66{fill:#06A600;stroke:#000000;stroke-miterlimit:10;}
	.st67{fill:none;stroke:#15DB51;stroke-width:8;stroke-miterlimit:10;}
	.st68{fill:#06A600;}
	.st69{fill:#15DB51;stroke:#000000;stroke-miterlimit:10;}
	.st70{fill:#069400;}
	.st71{fill:#0066B3;}
	.st72{fill:#003644;}
	.st73{fill:#567481;}
	.st74{fill:none;stroke:#FFFFFF;stroke-width:3;stroke-miterlimit:10;}
	.st75{fill:url(#SVGID_5_);stroke:#FFFFFF;stroke-miterlimit:10;}
	.st76{fill:#B05040;}
	.st77{fill:#5C2633;}
	.st78{fill:none;stroke:#A7747F;stroke-width:3;stroke-miterlimit:10;}
	.st79{fill:#46A0BE;}
	.st80{fill:#005FA5;}
	.st81{fill:#FE9C14;}
	.st82{fill:#FED539;}
	.st83{fill:#3AC919;stroke:#000000;stroke-miterlimit:10;}
	.st84{fill:#2A9F02;}
	.st85{fill:#3AC919;}
	.st86{fill:#2A9F02;stroke:#000000;stroke-miterlimit:10;}
	.st87{fill:#FE144C;}
	.st88{fill:#FE5F39;}
	.st89{fill:#E91B00;}
	.st90{fill:#FE0000;}
	.st91{fill:#0005A4;stroke:#000000;stroke-miterlimit:10;}
	.st92{fill:#000578;}
	.st93{fill:#004FA4;}
	.st94{fill:#0005A4;stroke:#FFFFFF;stroke-miterlimit:10;}
	.st95{fill:#FFE60B;stroke:#000000;stroke-width:1.5;stroke-miterlimit:10;}
	.st96{fill:#ED1C24;}
	.st97{fill:#FFEE34;}
	.st98{fill:#FF4A49;}
	.st99{fill:none;stroke:#000000;stroke-miterlimit:10;}
	.st100{fill:#F97F7A;}
	.st101{fill:#6E4D7F;}
	.st102{fill:#CA0014;}
	.st103{fill:#382351;}
	.st104{fill:#01A663;}
	.st105{fill:#8ABE23;}
	.st106{fill:#1D1D1B;}
	.st107{fill:#FEFEFE;}
</style>
<path class="st57" d="M595.5,576.2c0-93.6-20.8-396.5-56.5-478.7c-11.6-26.7-84.7-58.1-155.5-80.1c-24.8-7.7-54.1-9.9-81.7-9.4
	c-27.8-0.6-61.4,1.3-86.4,9.1C144.6,39.2,75.6,70.8,64,97.5C28.2,179.7,7.5,482.7,7.5,576.2c8.8,6.4,17.7,7.6,67.5,9.8
	c10-134,52-285,52-285s-5.1,248-5.1,270c0.2,18.6,86.7,23.8,172.7,24v0c1,0,2.5,0,3.5,0c1,0,2.5,0,3.5,0v0c86-0.2,176-5.4,176.2-24
	c0-22-2.4-270-2.4-270s42.4,151,52.4,285C577.3,583.8,586.7,582.7,595.5,576.2z"/>
<path class="st58" d="M528.2,585.5l-1.4-17.6c14.2-0.6,23-0.7,36.2-2.2c15.7-1.8,18.3-2.2,31.7-7.4L595,576c0,0-3.5,2.6-9.5,4.5
	c-5.2,1.6-22.7,3.4-32.3,3.8C536.9,584.9,537.7,584.9,528.2,585.5z"/>
<path class="st58" d="M73.9,585.4l1.3-17.8c-14.2-0.6-31.4-1-43.5-2.6c-14.4-2-25.2-7-25.2-7l0.1,18.3c0,0,3.4,2.4,9.4,4.3
	c5.2,1.6,21.8,3.4,31.4,3.7C64.8,584.9,73.9,585.4,73.9,585.4z"/>
<g>
	<g>
		<path class="st58" d="M313,597h-40V80c0,0,6.3,1.3,21,1.3c13.4,0,13-1.3,19-1.3V597z"/>
	</g>
	<g>
		<path class="st58" d="M263.6,593.8l-29.3-1.3c0-3.4,2.1-341.9,2.1-369.5c0-42.4-6.1-101.9-34.9-144.7
			c-16.9-25-38.2-40.2-38.4-40.3c0,0,16.3-8.3,30.4-10.7c25,18.4,72.2,69.9,72.2,195.7C265.7,250.7,263.6,590.4,263.6,593.8z"/>
	</g>
	<g>
		<path class="st58" d="M213.2,592.2l-18.7-1.5c0-3.7,4.1-319.4,4.1-374.7c0-111.4-71.3-163.7-70.9-161.9c0,0,10.3-6.5,18.6-9.2
			c7.4,6.5,20.7,19.6,32.8,37.8c17.4,26,38.1,70.2,38.1,133.3C217.3,271.4,213.2,588.5,213.2,592.2z"/>
	</g>
	<g>
		<path class="st58" d="M162.4,587.6l-7.6-1.4c0.1-2.8,6.2-279.2,6.2-362.2c0-109.6-65.1-153.4-65.8-153.8l6.6-3.5
			c0.7,0.5,16.7,9.4,33.5,34.7C150.7,124.6,169,164.6,169,224C169,307.1,162.5,584.8,162.4,587.6z"/>
	</g>
	<g>
		<path class="st58" d="M327.5,594.2l29.3-0.8c0-3.4-2.1-342.7-2.1-370.3c0-42.4,6.1-101.9,34.9-144.7c16.9-25,38.2-40.2,38.4-40.3
			c0,0,4.4-2,2.7-2.8c-8.2-3.8-21.7-8.2-28.7-10.3c-0.9-0.3-2.9,1.5-4.5,2.4c-25,18.4-72.2,69.9-72.2,195.7
			C325.4,250.7,327.4,590.7,327.5,594.2z"/>
	</g>
	<g>
		<path class="st58" d="M377.9,592.3l18.7-1c0-3.2-4.1-320-4.1-375.3c0-111.4,71.3-163.7,70.9-161.9c0,0,5.7-3.3,4.7-3.9
			c-2.8-1.7-13.9-6-19.4-8.2c-1-0.4-3,3.3-3.9,3c-7.4,6.5-20.7,19.6-32.8,37.8c-17.4,26-38.1,70.2-38.1,133.3
			C373.7,271.4,377.8,589.1,377.9,592.3z"/>
	</g>
	<g>
		<path class="st58" d="M428.3,588l8-1c-0.1-2.8-6.2-280-6.2-363c0-109.6,70.9-156.6,71.5-157.1l-7.9-4.4
			c-0.7,0.5-21.2,13.6-37.9,38.9c-15.4,23.2-33.7,63.2-33.7,122.6C422.1,307.1,428.2,585.2,428.3,588z"/>
	</g>
</g>
<g>
	<g>
		<path class="st57" d="M228.5,28.7C241.3,46,263,62.5,299.1,62.5c36.2,0,56.3-16.8,67.4-34.5C336.2,31.1,260.9,30.8,228.5,28.7z"/>
		<path class="st59" d="M369.1,1c-17.6,5.3-142.2,2.9-148.6,0.6c-0.1,0.3-0.3,0.7-0.5,1.1c2.2,7.1,6.3,17.5,13.7,27.5
			c29.5,1.9,97.9,2.2,125.6-0.6c6.2-9.9,9.4-20.2,10.9-27.3C369.8,1.8,369.4,1.4,369.1,1z"/>
	</g>
	<path class="st59" d="M370.2,2.3c-4.1,18.7-19,58.7-72.2,58.7c-53.9,0-72.4-40.1-78-58.3c-2.9,5.3-13.9,16.7-13.9,16.7
		s14.4,61,89.9,61c76.5,0,86.6-58.7,87.7-63.1C381.6,16.4,374.4,6.9,370.2,2.3z"/>
</g>
<path class="st61" d="M70.5,88.6c0,0,77.1,9.2,55.7,220c-0.4,79.7-1.8,141.7-2.4,184.6c-0.7,46.5-0.8,70.5-0.8,71.6
	c0,3.2-0.6,7.5,0.8,9.2c0.7,1.1,1.7,2.3,3.4,3.5c4.7,3.4,15.3,6.5,27.3,8.8c-14.2-11.6-10.9-42.8-9.8-72.1c1.1-29.4-24-95.4-3-199.4
	c6.8-33.6-5.5-74.9-6-84C131.7,163.1,119.3,97.3,70.5,88.6z"/>
<path class="st61" d="M532.4,89.1c0,0-79.2,0.7-57.7,211.5c2.1,168.9,3.2,265.3,3.2,264.5c0-2.3,0,2.4,0,6.2c0,1.3-0.7,2.6-0.9,2.9
	c-0.7,1.1-2,2.2-3.6,3.4c-4.7,3.4-13.3,5.9-25.1,8.2c14.2-11.6,11.1-41.8,10-71.2c-1.1-29.4,24-95.4,3-199.4
	c-6.8-33.6,1.5-83.4,2-92.4C467.1,155.1,485.8,92,532.4,89.1z"/>
<g>
	<path class="st105" d="M401,186.1c0-0.1-0.1-0.2-0.1-0.3c-5.2-13.4-19.8-21.7-34.1-19.3c-15.4,2.5-26.5,15.4-26.6,31
		c-0.1,4.2,0.8,8.2,2.3,12.1c8.7,20.8,35.4,26.1,51.3,10.2c6.5-6.5,9.4-14.2,9.2-22.9C403.4,192.9,402,188.6,401,186.1z"/>
	<path d="M401.8,188c0,0.4-0.2,0.6-0.6,0.6c-0.3,0-0.5-0.2-0.5-0.6c0-0.3,0.2-0.6,0.6-0.6C401.6,187.4,401.7,187.7,401.8,188z"/>
	<path d="M401.1,186.1c0-0.1-0.1-0.2-0.1-0.3c-5.1-13.4-19.7-21.7-34-19.3c-15.4,2.5-26.5,15.4-26.6,31c-0.1,4.2,0.8,8.2,2.3,12.1
		c8.7,20.8,35.4,26.1,51.3,10.2c6.5-6.5,9.4-14.2,9.2-22.9C403.5,192.9,402.1,188.6,401.1,186.1z M395.9,215.1
		c-0.1-0.9-0.1-1.6-0.2-2.2c-0.1-0.6-0.2-0.9-0.9-0.4c-2.6,2.1-5.6,2.9-8.8,3.1c-0.6,0-1,0.1-1.2,0.8c-1.2,3.1-2.9,5.9-5.8,7.7
		c-0.6,0.4-0.3,0.6,0.1,0.8c0.6,0.3,1.2,0.6,1.9,0.9c-4.1,2-13.5,2-18.2,0c0.7-0.3,1.3-0.6,1.9-0.9c0.5-0.2,0.6-0.5,0-0.9
		c-2.9-1.8-4.5-4.5-5.7-7.5c-0.2-0.7-0.5-0.9-1.2-0.9c-3.2-0.1-6.2-0.9-8.8-3c-0.6-0.5-0.8-0.3-0.9,0.3c-0.1,0.6-0.2,1.2-0.3,2.1
		c-3.8-5.3-5.5-10.9-5.7-17.4c0.6,0.6,1.1,1.1,1.6,1.5c0.3,0.3,0.5,0.3,0.7-0.2c0.9-3.4,3-5.9,5.6-8c0.4-0.3,0.5-0.6,0.3-1.1
		c-0.9-3.2-1.1-6.4,0.1-9.6c0.2-0.6-0.1-0.7-0.5-0.6c-0.6,0-1.2,0.2-1.8,0.4c1-3.3,10.3-10.1,14.4-10.6c-0.3,0.8-1.3,1.5-0.9,2.1
		s1.5,0.1,2.3,0.2c2.6,0.4,5.1,1.3,7.3,2.8c0.5,0.4,0.9,0.4,1.4,0c2.8-1.8,5.8-3,9.1-2.8c0.6,0,0.7-0.2,0.4-0.7
		c-0.2-0.5-0.6-1.1-1-1.9c6.1,2.1,10.9,5.6,14.8,10.7c-0.9-0.1-1.5-0.3-2.1-0.4c-0.5-0.1-0.7,0.1-0.5,0.7c1.2,3.2,1.1,6.4,0.1,9.6
		c-0.1,0.4-0.2,0.7,0.2,0.9c0.1,0,0.2,0.1,0.3,0.2l0,0c0,0,0.1,0.1,0.1,0.1c0.1,0.1,0.1,0.1,0.2,0.2c2.4,1.9,4.2,5,4.4,5.4
		c0.3,0.6,0.5,1.2,0.7,1.9c0.2,0.8,0.5,0.9,1,0.3c0.4-0.4,0.8-0.8,1.4-1.4C401.5,204.1,399.6,209.8,395.9,215.1z"/>
	<path d="M390.5,190.4c-4.9-5.3-10.6-9.5-17.2-12.5c-1.1-0.5-1.9-0.4-2.9,0c-6.5,2.9-12.2,7.1-17.1,12.3c-0.9,1-1.1,1.9-1,3.2
		c0.8,7.1,3,13.7,6.4,19.9c0.6,1.1,1.5,1.7,2.7,1.9c3.3,0.6,6.6,1,10,1c0.5,0,0.9-0.1,1.4-0.1c3.1,0,7.2-0.2,10-1.1
		c0.2,0,0.3-0.1,0.5-0.2c2.7-1.2,4.8-7.3,6.2-12.5c1-3.1,1.6-6.2,1.9-9.5C391.5,191.9,391.2,191.1,390.5,190.4z"/>
	<g>
		<g>
			<g>
				<path class="st106" d="M362.4,211.8c-1.9,0-3.7-0.9-4.8-2.4c-1.4-2.1-1.2-4.4-1-5.7c0.1-1.3,0.6-2.4,1.1-3.4l0.2-0.4
					c0.9-2.2,2.1-4.2,3.3-6.2c0.4-0.6,0.7-1.2,1-1.8c0.1-0.2,0.3-0.5,0.4-0.7c0.9-1.5,1.7-2.9,2.1-4.4c0.2-0.5,0.3-1.2-0.1-1.8
					s-1.1-0.8-1.6-0.9c-1.2-0.2-2.4,0.1-4,1c-2.9,1.6-4.7,4.2-5.6,7.9c-0.7,2.8-2.1,4.3-3.9,4.3c-0.5,0-1-0.1-1.5-0.3
					c-0.9-0.3-1.5-1.1-1.8-2.1c-0.4-1.4-0.6-4.4,2.6-9.4c3.2-4.8,7.2-6,9.3-6.7c0.8-0.2,1.9-0.3,2.6-0.3c0.3,0,0.6,0,0.8,0
					c2.1,0.1,4,0.8,5.6,2c3.2,2.4,4.4,5.8,3.3,9.3c-0.7,2.2-1.5,4.3-2.5,6.4c-1,2.2-2.1,4.4-2.8,6.6c-0.1,0.2-0.2,0.4-0.2,0.7
					c1.2-1.6,2.2-3.3,3.1-4.9c0.7-1.3,1.4-2.6,2.1-3.9c0.2-0.5,0.5-0.9,0.8-1.4c0.7-1.3,1.9-1.9,3.4-1.8c0.4,0.1,0.8,0.1,1.2,0.2
					c-0.4-0.6-0.8-1.3-1.1-2.1c-0.7-1.9-0.5-3.7,0.4-5.1c0.9-1.4,2.5-2.1,4.4-2.1c0.1,0,0.3,0,0.4,0c3.4,0.2,6.2,1.8,8.2,4.6
					c0.9,1.2,1.3,2.5,1.2,3.9c0,1.3-0.5,2.4-1.3,3c1,0,1.9-0.3,2.8-1l0.1-0.1l0.1-0.1c0.6-0.3,1.3-0.6,2.1-0.6c0.7,0,2,0.3,2.5,2.2
					c0.6,2-0.7,3.9-3.2,4.8l-0.2,0.1h-0.1c0,0-0.1,0-0.1,0l-0.2,0c-0.4,0.1-0.9,0.2-1.4,0.2c-0.2,0-0.4,0-0.6-0.1
					c-0.2,0-0.5-0.1-0.8-0.1c-0.4-0.1-0.8-0.1-1.1-0.2c-0.8,1.7-1.6,3.4-2.7,5c-1.5,2.2-3.4,4.6-6,6.4c-1.3,0.8-2.5,1.2-3.7,1.2
					c-1.9,0-4.5-1.7-5.4-5.3c0-0.1-0.1-0.2-0.1-0.3c-0.1,0.1-0.2,0.3-0.2,0.4c-1.1,1.6-2.2,3.2-3.9,4.4
					C364.8,211.4,363.6,211.8,362.4,211.8z M378.4,194.6c0,0.3,0,0.7-0.1,1c-0.5,1.4-0.8,2.8-1,4.1c-0.3,1.6-0.5,3.1-0.4,4.6
					c0.3-0.3,0.6-0.7,0.9-1c1.4-2,2.4-4.2,3.5-6.6c-0.8-0.4-1.5-0.9-2.2-1.5C378.8,194.9,378.6,194.8,378.4,194.6z"/>
			</g>
		</g>
		<g>
			<g>
				<path class="st107" d="M392,197.6c-0.1,0-0.2,0-0.3,0c-0.5,0.1-1.1,0.2-1.6,0.2c-0.8-0.1-1.5-0.1-2.3-0.3
					c-0.4-0.1-0.8-0.2-1,0.4c-0.8,1.8-1.7,3.6-2.8,5.3c-1.5,2.3-3.2,4.5-5.6,6c-0.9,0.6-1.9,1-2.9,1c-1.1,0-3.1-1.1-4-4.2
					c-0.3-1-0.1-2-0.1-3.1c0.1-1.1,0.2-2.3,0.4-3.5c-1,2.1-2,4.2-3.4,6.2c-1,1.5-2,2.9-3.5,3.9c-2,1.3-4.8,0.9-6.1-1
					c-1-1.5-0.9-3.1-0.8-4.7c0.1-1.2,0.7-2.3,1.1-3.4c1.2-2.8,2.8-5.2,4.2-7.8c1-1.7,2.1-3.4,2.7-5.3c0.8-2.4-0.4-4.2-2.8-4.7
					c-1.8-0.3-3.5,0.3-5,1.2c-3.4,2-5.4,5.1-6.3,8.8c-0.9,3.2-2.2,3.4-3.4,2.9c-1.2-0.5-2.2-3.6,1.6-9.3c2.8-4.2,6.1-5.3,8.5-6.1
					c0.8-0.2,2-0.3,2.9-0.2c1.8,0.1,3.4,0.6,4.8,1.7c2,1.5,3.9,4.1,2.8,7.7c-0.6,2.1-1.4,4.1-2.4,6.1c-1.1,2.2-2.1,4.4-2.9,6.8
					c-0.3,1-0.7,2-0.6,3.1c0,0.9,0.6,1.2,1.4,0.7c0.6-0.4,1-0.9,1.4-1.4c1.3-1.7,2.4-3.5,3.5-5.4c1-1.8,1.9-3.6,2.9-5.3
					c0.4-0.8,1.1-1,2-1c0.8,0.1,1.5,0.4,2.1,0.9c0.4,0.3,0.5,0.7,0.3,1.2c-0.5,1.4-0.8,2.8-1.1,4.3c-0.3,1.8-0.6,3.5-0.4,5.3
					c0.1,1.3,0.9,1.7,2,0.9c0.6-0.4,1.1-1,1.5-1.6c1.7-2.4,2.9-5.1,4-7.8c0.1-0.3,0.1-0.5-0.2-0.6c-1-0.5-1.9-1.1-2.8-1.8
					c-1.7-1.3-3.1-2.8-3.9-4.8c-1.1-2.9,0.6-5.4,3.7-5.2c2.9,0.2,5.4,1.5,7.1,3.9c0.6,0.9,1,1.8,1,2.9c-0.1,1.9-1.2,2.7-2.9,2.1
					c-0.4-0.1-0.5-0.3-0.5-0.7c0.1-0.9,0.1-1.8-0.2-2.6c-0.5-1.4-1.3-2.4-2.7-3c-1.5-0.6-2.6,0.3-2.5,1.9c0.1,0.8,0.4,1.5,0.9,2.2
					c1.7,2.5,4,4,6.9,4.6c1.8,0.4,3.5,0,5-1.1c1.1-0.6,2-0.9,2.5,0.6C394.7,196.2,393.2,197.2,392,197.6z"/>
			</g>
		</g>
	</g>
</g>
</svg>
