<?xml version="1.0" encoding="utf-8"?>
<!-- Generator: Adobe Illustrator 17.0.0, SVG Export Plug-In . SVG Version: 6.00 Build 0)  -->
<!DOCTYPE svg PUBLIC "-//W3C//DTD SVG 1.1//EN" "http://www.w3.org/Graphics/SVG/1.1/DTD/svg11.dtd" [
	<!ENTITY ns_flows "http://ns.adobe.com/Flows/1.0/">
	<!ENTITY ns_extend "http://ns.adobe.com/Extensibility/1.0/">
	<!ENTITY ns_ai "http://ns.adobe.com/AdobeIllustrator/10.0/">
	<!ENTITY ns_graphs "http://ns.adobe.com/Graphs/1.0/">
]>
<svg version="1.1" id="Layer_1" xmlns:x="&ns_extend;" xmlns:i="&ns_ai;" xmlns:graph="&ns_graphs;"
	 xmlns="http://www.w3.org/2000/svg" xmlns:xlink="http://www.w3.org/1999/xlink" xmlns:a="http://ns.adobe.com/AdobeSVGViewerExtensions/3.0/"
	 x="0px" y="0px" width="600px" height="600px" viewBox="0 0 600 600" style="enable-background:new 0 0 600 600;"
	 xml:space="preserve">
<style type="text/css">
	.st0{fill:#FE0000;stroke:#000000;stroke-miterlimit:10;}
	.st1{fill:#FFFFFF;stroke:#000000;stroke-miterlimit:10;}
	.st2{fill:#FFFFFF;}
	.st3{fill:#7C0014;}
	.st4{fill:#F959FF;stroke:#000000;stroke-miterlimit:10;}
	.st5{fill:#EA24AE;}
	.st6{fill:#0563E1;}
	.st7{fill:#0B0A11;}
	.st8{fill:#004D9B;}
	.st9{fill:#C20000;}
	.st10{fill:#0563E1;stroke:#000000;stroke-miterlimit:10;}
	.st11{fill:url(#SVGID_1_);stroke:#000000;stroke-miterlimit:10;}
	.st12{fill:url(#SVGID_2_);}
	.st13{fill:#8ADAC9;stroke:#000000;stroke-miterlimit:10;}
	.st14{fill:#23495B;stroke:#000000;stroke-miterlimit:10;}
	.st15{fill:#CAC5C0;}
	.st16{fill:#23495B;}
	.st17{fill:#1976C9;stroke:#000000;stroke-miterlimit:10;}
	.st18{fill:#02619F;}
	.st19{fill:#1976C9;}
	.st20{fill:#02619F;stroke:#1976C9;stroke-miterlimit:10;}
	.st21{fill:#77A4CB;stroke:#000000;stroke-miterlimit:10;}
	.st22{stroke:#EDF3F8;stroke-miterlimit:10;}
	.st23{fill:#77A4CB;}
	.st24{fill:#C7CCC4;}
	.st25{fill:#FFFA5B;stroke:#000000;stroke-miterlimit:10;}
	.st26{fill:#1E2A24;}
	.st27{fill:#EBF0F5;stroke:#000000;stroke-miterlimit:10;}
	.st28{fill:url(#SVGID_3_);}
	.st29{fill:url(#SVGID_4_);}
	.st30{fill:#FFB05B;}
	.st31{fill:#4FAFBF;stroke:#000000;stroke-miterlimit:10;}
	.st32{fill:#43DA98;stroke:#000000;stroke-miterlimit:10;}
	.st33{fill:#00B273;}
	.st34{fill:#43DA98;}
	.st35{fill:#00B273;stroke:#000000;stroke-miterlimit:10;}
	.st36{fill:#BC2567;stroke:#FFFFFF;stroke-miterlimit:10;}
	.st37{fill:#8B004D;stroke:#000000;stroke-miterlimit:10;}
	.st38{fill:#5B5B4F;stroke:#000000;stroke-miterlimit:10;}
	.st39{fill:#3A3F40;}
	.st40{fill:#E7C993;}
	.st41{fill:#8B004D;}
	.st42{fill:#5B5B4F;}
	.st43{fill:#F02233;stroke:#000000;stroke-miterlimit:10;}
	.st44{fill:#4E2664;stroke:#000000;stroke-miterlimit:10;}
	.st45{fill:#04829F;}
	.st46{adobe-knockout:true;}
	.st47{fill:none;stroke:#FFFFFF;stroke-width:3;stroke-miterlimit:10;adobe-knockout:false;}
	.st48{fill:#006F8C;}
	.st49{fill:#F32CBB;stroke:#000000;stroke-miterlimit:10;}
	.st50{fill:#C000AD;stroke:#000000;stroke-miterlimit:10;}
	.st51{fill:#6BBA4F;}
	.st52{fill:#03850D;}
	.st53{fill:#97C0DA;stroke:#000000;stroke-miterlimit:10;}
	.st54{fill:#83A5CB;}
	.st55{fill:#0453BC;}
	.st56{fill:#A79F96;}
	.st57{fill:#0CD3CA;stroke:#000000;stroke-miterlimit:10;}
	.st58{fill:#299AB8;}
	.st59{fill:#299AB8;stroke:#000000;stroke-miterlimit:10;}
	.st60{fill:#C000AD;}
	.st61{fill:#0099C7;}
	.st62{fill:#6E4D7F;stroke:#000000;stroke-miterlimit:10;}
	.st63{fill:#04829F;stroke:#000000;stroke-miterlimit:10;}
	.st64{fill:none;stroke:#EA24AE;stroke-width:8;stroke-miterlimit:10;}
	.st65{fill:#F959FF;}
	.st66{fill:#06A600;stroke:#000000;stroke-miterlimit:10;}
	.st67{fill:none;stroke:#15DB51;stroke-width:8;stroke-miterlimit:10;}
	.st68{fill:#06A600;}
	.st69{fill:#15DB51;stroke:#000000;stroke-miterlimit:10;}
	.st70{fill:#069400;}
	.st71{fill:#0066B3;}
	.st72{fill:#003644;}
	.st73{fill:#567481;}
	.st74{fill:none;stroke:#FFFFFF;stroke-width:3;stroke-miterlimit:10;}
	.st75{fill:url(#SVGID_5_);stroke:#FFFFFF;stroke-miterlimit:10;}
	.st76{fill:#B05040;}
	.st77{fill:#5C2633;}
	.st78{fill:none;stroke:#A7747F;stroke-width:3;stroke-miterlimit:10;}
	.st79{fill:#46A0BE;}
	.st80{fill:#005FA5;}
	.st81{fill:#FE9C14;}
	.st82{fill:#FED539;}
	.st83{fill:#3AC919;stroke:#000000;stroke-miterlimit:10;}
	.st84{fill:#2A9F02;}
	.st85{fill:#3AC919;}
	.st86{fill:#2A9F02;stroke:#000000;stroke-miterlimit:10;}
	.st87{fill:#FE144C;}
	.st88{fill:#FE5F39;}
	.st89{fill:#E91B00;}
	.st90{fill:#FE0000;}
	.st91{fill:#0005A4;stroke:#000000;stroke-miterlimit:10;}
	.st92{fill:#000578;}
	.st93{fill:#004FA4;}
	.st94{fill:#0005A4;stroke:#FFFFFF;stroke-miterlimit:10;}
	.st95{fill:#FFE60B;stroke:#000000;stroke-width:1.5;stroke-miterlimit:10;}
	.st96{fill:#ED1C24;}
	.st97{fill:#FFEE34;}
	.st98{fill:#FF4A49;}
	.st99{fill:none;stroke:#000000;stroke-miterlimit:10;}
	.st100{fill:#F97F7A;}
	.st101{fill:#6E4D7F;}
	.st102{fill:#CA0014;}
	.st103{fill:#382351;}
	.st104{fill:#01A663;}
	.st105{fill:#8ABE23;}
	.st106{fill:#1D1D1B;}
	.st107{fill:#FEFEFE;}
</style>
<path class="st1" d="M6.1,342.8C40.7,232.2,21.2,187.2,67.7,94.2c10.5-21,71.9-57.8,135.8-73.2c0,0,109.7-25.5,180.5-3.5
	s140.3,53.3,151.9,80c35.7,82.1,31.2,191.6,59.7,243.7c-12.5,1.2-81.3,14.4-109.3,19.7c-2.4-7.3-13.4-60-13.4-60s3.2,248,3.2,270
	c-0.2,19-92.8,24-180.8,24s-167.5-10-167.5-26.9c0-16.8,1.1-262.1,1.1-262.1s-3.3,23.3-8.3,56.1C91.3,361.9,16.4,344,6.1,342.8z"/>
<g>
	<g>
		<path class="st2" d="M234.5,28.7C247.3,46,269,62.5,305.1,62.5c36.2,0,56.3-16.8,67.4-34.5C342.2,31.1,266.9,30.8,234.5,28.7z"/>
	</g>
</g>
<path class="st1" d="M6.1,342.8C40.7,232.2,21.2,187.2,67.7,94.2c10.5-21,71.9-57.8,135.8-73.2c0,0,109.7-25.5,180.5-3.5
	s140.3,53.3,151.9,80c35.7,82.1,31.2,191.6,59.7,243.7c-12.5,1.2-81.3,14.4-109.3,19.7c-2.4-7.3-13.4-60-13.4-60s3.2,248,3.2,270
	c-0.2,19-92.8,24-180.8,24s-167.5-10-167.5-26.9c0-16.8,1.1-262.1,1.1-262.1s-3.3,23.3-8.3,56.1C91.3,361.9,16.4,344,6.1,342.8z"/>
<g>
	<g>
		<path class="st2" d="M234.5,28.7C247.3,46,269,62.5,305.1,62.5c36.2,0,56.3-16.8,67.4-34.5C342.2,31.1,266.9,30.8,234.5,28.7z"/>
	</g>
</g>
<path class="st51" d="M6.1,342.8C40.7,232.2,21.2,187.2,67.7,94.2c10.5-21,71.9-57.8,135.8-73.2c0,0,109.7-25.5,180.5-3.5
	s140.3,53.3,151.9,80c35.7,82.1,31.2,191.6,59.7,243.7c-12.5,1.2-81.3,14.4-109.3,19.7c-2.4-7.3-13.4-60-13.4-60s3.2,248,3.2,270
	c-0.2,19-92.8,24-180.8,24s-167.5-10-167.5-26.9c0-16.8,1.1-262.1,1.1-262.1s-3.3,23.3-8.3,56.1C91.3,361.9,16.4,344,6.1,342.8z"/>
<g>
	<g>
		<path class="st51" d="M231.5,28.7C244.3,46,266,62.5,302.1,62.5c36.2,0,56.3-16.8,67.4-34.5C339.2,31.1,263.9,30.8,231.5,28.7z"/>
		<path class="st52" d="M372.1,1c-17.6,5.3-142.2,2.9-148.6,0.6c-0.1,0.3-0.3,0.7-0.5,1.1c2.2,7.1,6.3,17.5,13.7,27.5
			c29.5,1.9,97.9,2.2,125.6-0.6c6.2-9.9,9.4-20.2,10.9-27.3C372.8,1.8,372.4,1.4,372.1,1z"/>
	</g>
	<path class="st52" d="M373.2,2.3c-4.1,18.7-19,58.7-72.2,58.7c-53.9,0-72.4-40.1-78-58.3c-2.9,5.3-15.1,16-15.1,16
		s15.6,61.7,91.1,61.7c76.5,0,86.6-58.7,87.7-63.1C384.6,16.4,377.4,6.9,373.2,2.3z"/>
</g>
<path class="st52" d="M123.5,345.1l-2.8,17c0,0-18.3-0.2-54.3-7.2c-18-3.5-53.4-11.4-60.3-12.1c3.2-10.1,5.8-20.6,5.8-20.6
	c13.4,2.5,37.1,9.2,60.5,14.2C97.6,341.9,123.5,345.1,123.5,345.1z"/>
<path class="st52" d="M482.2,342.3l4.1,18.6c0,0,8.8-1.5,44.8-8.5c18-3.5,57.7-10,64.7-10.7c-4.7-9.1-8.7-20.9-8.7-20.9
	c-14,2.7-40.1,7.3-63,12.2C498.7,338.3,482.2,342.3,482.2,342.3z"/>
<g>
	<polygon class="st52" points="371.1,199.5 291,595 306.8,595 	"/>
	<polygon class="st52" points="370.8,199.6 240.2,593.2 256.3,593.7 	"/>
	<polygon class="st52" points="370.5,199.7 188.6,590.3 205.2,591.6 	"/>
	<polygon class="st52" points="370.2,199.8 140,574.5 154,585.5 	"/>
	<path class="st52" d="M137.3,470.1c0.7,7.4,2.4,14.6,3.5,21.9l229-292.3L137.3,470.1z"/>
	<path class="st52" d="M131.9,406.8c-0.2,6.9-0.8,13.8-0.4,20.8l238.1-227.9L131.9,406.8z"/>
	<path class="st52" d="M131,355.8c-0.4,5.1-0.4,10.3-0.5,15.4l238.7-171.5L131,355.8z"/>
	<path class="st52" d="M140.4,307.4c-0.5,4.3-1.3,8.6-2.2,13l230.7-120.8L140.4,307.4z"/>
	<path class="st52" d="M139.7,277.5c0,2.8,0.3,5.6,0.6,8.5l228.3-86.5L139.7,277.5z"/>
	<path class="st52" d="M137.3,253c0.3,2.4,0.6,4.9,0.8,7.3l230.2-61L137.3,253z"/>
	<path class="st52" d="M133,231.8c0,2.3,0.1,4.6,0.3,6.9L368.1,199L133,231.8z"/>
	<path class="st52" d="M134,210.8c0.1,2.2,0.2,4.3,0.6,6.4l233.3-18.5L134,210.8z"/>
	<path class="st52" d="M132.1,190.6c0.1,2.1,0.3,4.1,0.5,6.2l235,1.7L132.1,190.6z"/>
	<path class="st52" d="M130.3,171.1c0.3,2.1,0.7,4.1,1,6.2l236.2,21L130.3,171.1z"/>
	<path class="st52" d="M124.4,150.8c0.4,2.2,1.1,4.3,1.8,6.5L367.4,198L124.4,150.8z"/>
	<path class="st52" d="M115.7,129.4c1.3,2.5,2.5,5,3.6,7.6l248,60.7L115.7,129.4z"/>
	<path class="st52" d="M100,101.2c2.9,3.4,5.7,6.9,8.2,10.5l259,85.6L100,101.2z"/>
	<path class="st52" d="M90.9,70c-2.7,1.6-5.3,3.6-7.6,5.8l284,121.2L90.9,70z"/>
	<path class="st52" d="M118.1,55.7c-2.5,1.6-5,3.3-7.7,4.4l256.9,136.6L118.1,55.7z"/>
	<path class="st52" d="M142.5,43.9c-1.5,1.8-3.5,3.3-5.9,4.5l230.7,147.9L142.5,43.9z"/>
	<path class="st52" d="M166.6,35.7c-2.9,0.4-5.7,0.5-8.4,1.3l209.2,159L166.6,35.7z"/>
	<path class="st52" d="M187.4,27.6c-2.3,0.6-4.5,1.1-6.8,1.9l186.9,166.3L187.4,27.6z"/>
	<path class="st52" d="M206.9,20.3c-1.9,0.9-3.9,1.7-5.7,2.6l166.6,172.6L206.9,20.3z"/>
	<path class="st52" d="M248.5,62.9c-2.3-1.2-4.5-2.6-6.6-3.9l125.9,136.3L248.5,62.9z"/>
	<path class="st52" d="M264.6,69.9c-1.5-0.5-3-1-4.4-1.6L368.1,195L264.6,69.9z"/>
	<path class="st52" d="M277.1,73c-1.2-0.2-2.4-0.4-3.6-0.7l94.9,122.5L277.1,73z"/>
	<path class="st52" d="M288.1,73.7c-1.1,0-2.2,0-3.3,0l83.9,120.9L288.1,73.7z"/>
	<polygon class="st52" points="375.4,199.6 360.1,593.2 343.9,593.7 	"/>
	<polygon class="st52" points="375.7,199.7 411.7,590.3 395,591.6 	"/>
	<polygon class="st52" points="376.1,199.8 460.2,574.5 446.2,585.5 	"/>
	<path class="st52" d="M462.9,470.1c-0.7,7.4-2.4,14.6-3.5,21.9l-83-292.3L462.9,470.1z"/>
	<path class="st52" d="M468.3,406.8c0.2,6.9,0.8,13.8,0.4,20.8l-92.1-227.9L468.3,406.8z"/>
	<path class="st52" d="M469.2,355.8c0.4,5.1,0.4,10.3,0.5,15.4L377,199.7L469.2,355.8z"/>
	<path class="st52" d="M459.8,307.4c0.5,4.3,1.3,8.6,2.2,13l-84.7-120.8L459.8,307.4z"/>
	<path class="st52" d="M460.5,277.5c0,2.8-0.3,5.6-0.6,8.5l-82.3-86.5L460.5,277.5z"/>
	<path class="st52" d="M462.9,253c-0.3,2.4-0.6,4.9-0.8,7.3l-84.2-61L462.9,253z"/>
	<path class="st52" d="M467.2,231.8c0,2.3-0.1,4.6-0.3,6.9L378.1,199L467.2,231.8z"/>
	<path class="st52" d="M469.2,210.8c-0.1,2.2-0.2,4.3-0.6,6.4l-90.3-18.5L469.2,210.8z"/>
	<path class="st52" d="M470.1,190.6c-0.1,2.1-0.3,4.1-0.5,6.2l-91,1.7L470.1,190.6z"/>
	<path class="st52" d="M474,171.1c-0.3,2.1-0.7,4.1-1,6.2l-94.2,21L474,171.1z"/>
	<path class="st52" d="M477.9,150.8c-0.4,2.2-1.1,4.3-1.8,6.5L378.8,198L477.9,150.8z"/>
	<path class="st52" d="M488.5,127.8c-1.3,2.5-2.5,5-3.6,7.6l-106,62.3L488.5,127.8z"/>
	<path class="st52" d="M508.2,98.2c-2.9,3.4-5.7,6.9-8.2,10.5l-121,88.6L508.2,98.2z"/>
	<path class="st52" d="M509.4,70c2.7,1.6,5.3,3.6,7.6,5.8L379,197L509.4,70z"/>
	<path class="st52" d="M482.1,55.7c2.5,1.6,5,3.3,7.7,4.4L379,196.7L482.1,55.7z"/>
	<path class="st52" d="M457.7,43.9c1.5,1.8,3.5,3.3,5.9,4.5l-84.7,147.9L457.7,43.9z"/>
	<path class="st52" d="M433.7,35.7c2.9,0.4,5.7,0.5,8.4,1.3l-63.2,159L433.7,35.7z"/>
	<path class="st52" d="M412.8,27.6c2.3,0.6,4.5,1.1,6.8,1.9l-40.9,166.3L412.8,27.6z"/>
	<path class="st52" d="M393.4,20.3c1.9,0.9,3.9,1.7,5.7,2.6l-20.6,172.6L393.4,20.3z"/>
	<path class="st52" d="M351.7,62.9c2.3-1.2,4.5-2.6,6.6-3.9l19.4,134.8L351.7,62.9z"/>
	<path class="st52" d="M371.4,39.4c2.4-0.9,4.8-1.9,7.1-2.9l-0.7,157.2L371.4,39.4z"/>
	<path class="st52" d="M335.6,69.9c1.5-0.5,3-1,4.4-1.6l36.4,124.8L335.6,69.9z"/>
	<path class="st52" d="M323.1,73c1.2-0.2,2.4-0.4,3.6-0.7l48.2,120.8L323.1,73z"/>
	<path class="st52" d="M312.2,73.7c1.1,0,2.2,0,3.3,0l57.7,119.6L312.2,73.7z"/>
	<path class="st52" d="M368.9,194.5L298.7,72.2c-1.1,0.3-2.2,0.5-3.3,0.7L368.9,194.5z"/>
	<path class="st52" d="M371.5,194.5L306.6,72.3c-1.1,0.2-2.2,0.4-3.3,0.6L371.5,194.5z"/>
</g>
<path class="st52" d="M73.8,85.9c0,0,77.1,9.2,55.7,220c-0.9,166-1.1,253.8-1.1,255.9c0,3.2-0.6,7.5,0.8,9.2
	c0.7,1.1,1.7,2.3,3.4,3.5c4.7,3.4,13.4,6.6,25.2,9.1c-14.2-11.6-10.9-42.8-9.8-72.1c1.1-29.4-24-95.4-3-199.4
	c6.8-33.6-5.5-74.9-6-84C135,160.4,122.6,94.6,73.8,85.9z"/>
<path class="st52" d="M530.7,89c0,0-79.2,0.7-57.7,211.5c2.1,168.9,3.2,265.3,3.2,264.5c0-2.3,0,2.4,0,6.2c0,1.3-0.7,2.6-0.9,2.9
	c-0.7,1.1-2,2.2-3.6,3.4c-4.7,3.4-13.3,5.9-25.1,8.2c14.2-11.6,11.1-41.8,10-71.2c-1.1-29.4,24-95.4,3-199.4
	c-6.8-33.6,1.5-83.4,2-92.4C465.4,155.1,484.1,92,530.7,89z"/>
<g>
	<path class="st105" d="M401,186.1c0-0.1-0.1-0.2-0.1-0.3c-5.2-13.4-19.8-21.7-34.1-19.3c-15.4,2.5-26.5,15.4-26.6,31
		c-0.1,4.2,0.8,8.2,2.3,12.1c8.7,20.8,35.4,26.1,51.3,10.2c6.5-6.5,9.4-14.2,9.2-22.9C403.4,192.9,402,188.6,401,186.1z"/>
	<path d="M401.8,188c0,0.4-0.2,0.6-0.6,0.6c-0.3,0-0.5-0.2-0.5-0.6c0-0.3,0.2-0.6,0.6-0.6C401.6,187.4,401.7,187.7,401.8,188z"/>
	<path d="M401.1,186.1c0-0.1-0.1-0.2-0.1-0.3c-5.1-13.4-19.7-21.7-34-19.3c-15.4,2.5-26.5,15.4-26.6,31c-0.1,4.2,0.8,8.2,2.3,12.1
		c8.7,20.8,35.4,26.1,51.3,10.2c6.5-6.5,9.4-14.2,9.2-22.9C403.5,192.9,402.1,188.6,401.1,186.1z M395.9,215.1
		c-0.1-0.9-0.1-1.6-0.2-2.2c-0.1-0.6-0.2-0.9-0.9-0.4c-2.6,2.1-5.6,2.9-8.8,3.1c-0.6,0-1,0.1-1.2,0.8c-1.2,3.1-2.9,5.9-5.8,7.7
		c-0.6,0.4-0.3,0.6,0.1,0.8c0.6,0.3,1.2,0.6,1.9,0.9c-4.1,2-13.5,2-18.2,0c0.7-0.3,1.3-0.6,1.9-0.9c0.5-0.2,0.6-0.5,0-0.9
		c-2.9-1.8-4.5-4.5-5.7-7.5c-0.2-0.7-0.5-0.9-1.2-0.9c-3.2-0.1-6.2-0.9-8.8-3c-0.6-0.5-0.8-0.3-0.9,0.3c-0.1,0.6-0.2,1.2-0.3,2.1
		c-3.8-5.3-5.5-10.9-5.7-17.4c0.6,0.6,1.1,1.1,1.6,1.5c0.3,0.3,0.5,0.3,0.7-0.2c0.9-3.4,3-5.9,5.6-8c0.4-0.3,0.5-0.6,0.3-1.1
		c-0.9-3.2-1.1-6.4,0.1-9.6c0.2-0.6-0.1-0.7-0.5-0.6c-0.6,0-1.2,0.2-1.8,0.4c1-3.3,10.3-10.1,14.4-10.6c-0.3,0.8-1.3,1.5-0.9,2.1
		s1.5,0.1,2.3,0.2c2.6,0.4,5.1,1.3,7.3,2.8c0.5,0.4,0.9,0.4,1.4,0c2.8-1.8,5.8-3,9.1-2.8c0.6,0,0.7-0.2,0.4-0.7
		c-0.2-0.5-0.6-1.1-1-1.9c6.1,2.1,10.9,5.6,14.8,10.7c-0.9-0.1-1.5-0.3-2.1-0.4c-0.5-0.1-0.7,0.1-0.5,0.7c1.2,3.2,1.1,6.4,0.1,9.6
		c-0.1,0.4-0.2,0.7,0.2,0.9c0.1,0,0.2,0.1,0.3,0.2l0,0c0,0,0.1,0.1,0.1,0.1c0.1,0.1,0.1,0.1,0.2,0.2c2.4,1.9,4.2,5,4.4,5.4
		c0.3,0.6,0.5,1.2,0.7,1.9c0.2,0.8,0.5,0.9,1,0.3c0.4-0.4,0.8-0.8,1.4-1.4C401.5,204.1,399.6,209.8,395.9,215.1z"/>
	<path d="M390.5,190.4c-4.9-5.3-10.6-9.5-17.2-12.5c-1.1-0.5-1.9-0.4-2.9,0c-6.5,2.9-12.2,7.1-17.1,12.3c-0.9,1-1.1,1.9-1,3.2
		c0.8,7.1,3,13.7,6.4,19.9c0.6,1.1,1.5,1.7,2.7,1.9c3.3,0.6,6.6,1,10,1c0.5,0,0.9-0.1,1.4-0.1c3.1,0,7.2-0.2,10-1.1
		c0.2,0,0.3-0.1,0.5-0.2c2.7-1.2,4.8-7.3,6.2-12.5c1-3.1,1.6-6.2,1.9-9.5C391.5,191.9,391.2,191.1,390.5,190.4z"/>
	<g>
		<g>
			<g>
				<path class="st106" d="M362.4,211.8c-1.9,0-3.7-0.9-4.8-2.4c-1.4-2.1-1.2-4.4-1-5.7c0.1-1.3,0.6-2.4,1.1-3.4l0.2-0.4
					c0.9-2.2,2.1-4.2,3.3-6.2c0.4-0.6,0.7-1.2,1-1.8c0.1-0.2,0.3-0.5,0.4-0.7c0.9-1.5,1.7-2.9,2.1-4.4c0.2-0.5,0.3-1.2-0.1-1.8
					s-1.1-0.8-1.6-0.9c-1.2-0.2-2.4,0.1-4,1c-2.9,1.6-4.7,4.2-5.6,7.9c-0.7,2.8-2.1,4.3-3.9,4.3c-0.5,0-1-0.1-1.5-0.3
					c-0.9-0.3-1.5-1.1-1.8-2.1c-0.4-1.4-0.6-4.4,2.6-9.4c3.2-4.8,7.2-6,9.3-6.7c0.8-0.2,1.9-0.3,2.6-0.3c0.3,0,0.6,0,0.8,0
					c2.1,0.1,4,0.8,5.6,2c3.2,2.4,4.4,5.8,3.3,9.3c-0.7,2.2-1.5,4.3-2.5,6.4c-1,2.2-2.1,4.4-2.8,6.6c-0.1,0.2-0.2,0.4-0.2,0.7
					c1.2-1.6,2.2-3.3,3.1-4.9c0.7-1.3,1.4-2.6,2.1-3.9c0.2-0.5,0.5-0.9,0.8-1.4c0.7-1.3,1.9-1.9,3.4-1.8c0.4,0.1,0.8,0.1,1.2,0.2
					c-0.4-0.6-0.8-1.3-1.1-2.1c-0.7-1.9-0.5-3.7,0.4-5.1c0.9-1.4,2.5-2.1,4.4-2.1c0.1,0,0.3,0,0.4,0c3.4,0.2,6.2,1.8,8.2,4.6
					c0.9,1.2,1.3,2.5,1.2,3.9c0,1.3-0.5,2.4-1.3,3c1,0,1.9-0.3,2.8-1l0.1-0.1l0.1-0.1c0.6-0.3,1.3-0.6,2.1-0.6c0.7,0,2,0.3,2.5,2.2
					c0.6,2-0.7,3.9-3.2,4.8l-0.2,0.1h-0.1c0,0-0.1,0-0.1,0l-0.2,0c-0.4,0.1-0.9,0.2-1.4,0.2c-0.2,0-0.4,0-0.6-0.1
					c-0.2,0-0.5-0.1-0.8-0.1c-0.4-0.1-0.8-0.1-1.1-0.2c-0.8,1.7-1.6,3.4-2.7,5c-1.5,2.2-3.4,4.6-6,6.4c-1.3,0.8-2.5,1.2-3.7,1.2
					c-1.9,0-4.5-1.7-5.4-5.3c0-0.1-0.1-0.2-0.1-0.3c-0.1,0.1-0.2,0.3-0.2,0.4c-1.1,1.6-2.2,3.2-3.9,4.4
					C364.8,211.4,363.6,211.8,362.4,211.8z M378.4,194.6c0,0.3,0,0.7-0.1,1c-0.5,1.4-0.8,2.8-1,4.1c-0.3,1.6-0.5,3.1-0.4,4.6
					c0.3-0.3,0.6-0.7,0.9-1c1.4-2,2.4-4.2,3.5-6.6c-0.8-0.4-1.5-0.9-2.2-1.5C378.8,194.9,378.6,194.8,378.4,194.6z"/>
			</g>
		</g>
		<g>
			<g>
				<path class="st107" d="M392,197.6c-0.1,0-0.2,0-0.3,0c-0.5,0.1-1.1,0.2-1.6,0.2c-0.8-0.1-1.5-0.1-2.3-0.3
					c-0.4-0.1-0.8-0.2-1,0.4c-0.8,1.8-1.7,3.6-2.8,5.3c-1.5,2.3-3.2,4.5-5.6,6c-0.9,0.6-1.9,1-2.9,1c-1.1,0-3.1-1.1-4-4.2
					c-0.3-1-0.1-2-0.1-3.1c0.1-1.1,0.2-2.3,0.4-3.5c-1,2.1-2,4.2-3.4,6.2c-1,1.5-2,2.9-3.5,3.9c-2,1.3-4.8,0.9-6.1-1
					c-1-1.5-0.9-3.1-0.8-4.7c0.1-1.2,0.7-2.3,1.1-3.4c1.2-2.8,2.8-5.2,4.2-7.8c1-1.7,2.1-3.4,2.7-5.3c0.8-2.4-0.4-4.2-2.8-4.7
					c-1.8-0.3-3.5,0.3-5,1.2c-3.4,2-5.4,5.1-6.3,8.8c-0.9,3.2-2.2,3.4-3.4,2.9c-1.2-0.5-2.2-3.6,1.6-9.3c2.8-4.2,6.1-5.3,8.5-6.1
					c0.8-0.2,2-0.3,2.9-0.2c1.8,0.1,3.4,0.6,4.8,1.7c2,1.5,3.9,4.1,2.8,7.7c-0.6,2.1-1.4,4.1-2.4,6.1c-1.1,2.2-2.1,4.4-2.9,6.8
					c-0.3,1-0.7,2-0.6,3.1c0,0.9,0.6,1.2,1.4,0.7c0.6-0.4,1-0.9,1.4-1.4c1.3-1.7,2.4-3.5,3.5-5.4c1-1.8,1.9-3.6,2.9-5.3
					c0.4-0.8,1.1-1,2-1c0.8,0.1,1.5,0.4,2.1,0.9c0.4,0.3,0.5,0.7,0.3,1.2c-0.5,1.4-0.8,2.8-1.1,4.3c-0.3,1.8-0.6,3.5-0.4,5.3
					c0.1,1.3,0.9,1.7,2,0.9c0.6-0.4,1.1-1,1.5-1.6c1.7-2.4,2.9-5.1,4-7.8c0.1-0.3,0.1-0.5-0.2-0.6c-1-0.5-1.9-1.1-2.8-1.8
					c-1.7-1.3-3.1-2.8-3.9-4.8c-1.1-2.9,0.6-5.4,3.7-5.2c2.9,0.2,5.4,1.5,7.1,3.9c0.6,0.9,1,1.8,1,2.9c-0.1,1.9-1.2,2.7-2.9,2.1
					c-0.4-0.1-0.5-0.3-0.5-0.7c0.1-0.9,0.1-1.8-0.2-2.6c-0.5-1.4-1.3-2.4-2.7-3c-1.5-0.6-2.6,0.3-2.5,1.9c0.1,0.8,0.4,1.5,0.9,2.2
					c1.7,2.5,4,4,6.9,4.6c1.8,0.4,3.5,0,5-1.1c1.1-0.6,2-0.9,2.5,0.6C394.7,196.2,393.2,197.2,392,197.6z"/>
			</g>
		</g>
	</g>
</g>
</svg>
