<?xml version="1.0" encoding="utf-8"?>
<!-- Generator: Adobe Illustrator 17.0.0, SVG Export Plug-In . SVG Version: 6.00 Build 0)  -->
<!DOCTYPE svg PUBLIC "-//W3C//DTD SVG 1.1//EN" "http://www.w3.org/Graphics/SVG/1.1/DTD/svg11.dtd" [
	<!ENTITY ns_flows "http://ns.adobe.com/Flows/1.0/">
	<!ENTITY ns_extend "http://ns.adobe.com/Extensibility/1.0/">
	<!ENTITY ns_ai "http://ns.adobe.com/AdobeIllustrator/10.0/">
	<!ENTITY ns_graphs "http://ns.adobe.com/Graphs/1.0/">
]>
<svg version="1.1" id="Layer_1" xmlns:x="&ns_extend;" xmlns:i="&ns_ai;" xmlns:graph="&ns_graphs;"
	 xmlns="http://www.w3.org/2000/svg" xmlns:xlink="http://www.w3.org/1999/xlink" xmlns:a="http://ns.adobe.com/AdobeSVGViewerExtensions/3.0/"
	 x="0px" y="0px" width="600px" height="600px" viewBox="0 0 600 600" style="enable-background:new 0 0 600 600;"
	 xml:space="preserve">
<style type="text/css">
	.st0{fill:#FE0000;stroke:#000000;stroke-miterlimit:10;}
	.st1{fill:#FFFFFF;stroke:#000000;stroke-miterlimit:10;}
	.st2{fill:#FFFFFF;}
	.st3{fill:#7C0014;}
	.st4{fill:#F959FF;stroke:#000000;stroke-miterlimit:10;}
	.st5{fill:#EA24AE;}
	.st6{fill:#0563E1;}
	.st7{fill:#0B0A11;}
	.st8{fill:#004D9B;}
	.st9{fill:#C20000;}
	.st10{fill:#0563E1;stroke:#000000;stroke-miterlimit:10;}
	.st11{fill:url(#SVGID_1_);stroke:#000000;stroke-miterlimit:10;}
	.st12{fill:url(#SVGID_2_);}
	.st13{fill:#8ADAC9;stroke:#000000;stroke-miterlimit:10;}
	.st14{fill:#23495B;stroke:#000000;stroke-miterlimit:10;}
	.st15{fill:#CAC5C0;}
	.st16{fill:#23495B;}
	.st17{fill:#1976C9;stroke:#000000;stroke-miterlimit:10;}
	.st18{fill:#02619F;}
	.st19{fill:#1976C9;}
	.st20{fill:#02619F;stroke:#1976C9;stroke-miterlimit:10;}
	.st21{fill:#77A4CB;stroke:#000000;stroke-miterlimit:10;}
	.st22{stroke:#EDF3F8;stroke-miterlimit:10;}
	.st23{fill:#77A4CB;}
	.st24{fill:#C7CCC4;}
	.st25{fill:#FFFA5B;stroke:#000000;stroke-miterlimit:10;}
	.st26{fill:#1E2A24;}
	.st27{fill:#EBF0F5;stroke:#000000;stroke-miterlimit:10;}
	.st28{fill:url(#SVGID_3_);}
	.st29{fill:url(#SVGID_4_);}
	.st30{fill:#FFB05B;}
	.st31{fill:#4FAFBF;stroke:#000000;stroke-miterlimit:10;}
	.st32{fill:#43DA98;stroke:#000000;stroke-miterlimit:10;}
	.st33{fill:#00B273;}
	.st34{fill:#43DA98;}
	.st35{fill:#00B273;stroke:#000000;stroke-miterlimit:10;}
	.st36{fill:#BC2567;stroke:#FFFFFF;stroke-miterlimit:10;}
	.st37{fill:#8B004D;stroke:#000000;stroke-miterlimit:10;}
	.st38{fill:#5B5B4F;stroke:#000000;stroke-miterlimit:10;}
	.st39{fill:#3A3F40;}
	.st40{fill:#E7C993;}
	.st41{fill:#8B004D;}
	.st42{fill:#5B5B4F;}
	.st43{fill:#F02233;stroke:#000000;stroke-miterlimit:10;}
	.st44{fill:#4E2664;stroke:#000000;stroke-miterlimit:10;}
	.st45{fill:#04829F;}
	.st46{adobe-knockout:true;}
	.st47{fill:none;stroke:#FFFFFF;stroke-width:3;stroke-miterlimit:10;adobe-knockout:false;}
	.st48{fill:#006F8C;}
	.st49{fill:#F32CBB;stroke:#000000;stroke-miterlimit:10;}
	.st50{fill:#C000AD;stroke:#000000;stroke-miterlimit:10;}
	.st51{fill:#6BBA4F;}
	.st52{fill:#03850D;}
	.st53{fill:#97C0DA;stroke:#000000;stroke-miterlimit:10;}
	.st54{fill:#83A5CB;}
	.st55{fill:#0453BC;}
	.st56{fill:#A79F96;}
	.st57{fill:#0CD3CA;stroke:#000000;stroke-miterlimit:10;}
	.st58{fill:#299AB8;}
	.st59{fill:#299AB8;stroke:#000000;stroke-miterlimit:10;}
	.st60{fill:#C000AD;}
	.st61{fill:#0099C7;}
	.st62{fill:#6E4D7F;stroke:#000000;stroke-miterlimit:10;}
	.st63{fill:#04829F;stroke:#000000;stroke-miterlimit:10;}
	.st64{fill:none;stroke:#EA24AE;stroke-width:8;stroke-miterlimit:10;}
	.st65{fill:#F959FF;}
	.st66{fill:#06A600;stroke:#000000;stroke-miterlimit:10;}
	.st67{fill:none;stroke:#15DB51;stroke-width:8;stroke-miterlimit:10;}
	.st68{fill:#06A600;}
	.st69{fill:#15DB51;stroke:#000000;stroke-miterlimit:10;}
	.st70{fill:#069400;}
	.st71{fill:#0066B3;}
	.st72{fill:#003644;}
	.st73{fill:#567481;}
	.st74{fill:none;stroke:#FFFFFF;stroke-width:3;stroke-miterlimit:10;}
	.st75{fill:url(#SVGID_5_);stroke:#FFFFFF;stroke-miterlimit:10;}
	.st76{fill:#B05040;}
	.st77{fill:#5C2633;}
	.st78{fill:none;stroke:#A7747F;stroke-width:3;stroke-miterlimit:10;}
	.st79{fill:#46A0BE;}
	.st80{fill:#005FA5;}
	.st81{fill:#FE9C14;}
	.st82{fill:#FED539;}
	.st83{fill:#3AC919;stroke:#000000;stroke-miterlimit:10;}
	.st84{fill:#2A9F02;}
	.st85{fill:#3AC919;}
	.st86{fill:#2A9F02;stroke:#000000;stroke-miterlimit:10;}
	.st87{fill:#FE144C;}
	.st88{fill:#FE5F39;}
	.st89{fill:#E91B00;}
	.st90{fill:#FE0000;}
	.st91{fill:#0005A4;stroke:#000000;stroke-miterlimit:10;}
	.st92{fill:#000578;}
	.st93{fill:#004FA4;}
	.st94{fill:#0005A4;stroke:#FFFFFF;stroke-miterlimit:10;}
	.st95{fill:#FFE60B;stroke:#000000;stroke-width:1.5;stroke-miterlimit:10;}
	.st96{fill:#ED1C24;}
	.st97{fill:#FFEE34;}
	.st98{fill:#FF4A49;}
	.st99{fill:none;stroke:#000000;stroke-miterlimit:10;}
	.st100{fill:#F97F7A;}
	.st101{fill:#6E4D7F;}
	.st102{fill:#CA0014;}
	.st103{fill:#382351;}
	.st104{fill:#01A663;}
	.st105{fill:#8ABE23;}
	.st106{fill:#1D1D1B;}
	.st107{fill:#FEFEFE;}
</style>
<path class="st1" d="M595.7,341.2c-28.5-52.1-24-161.6-59.7-243.7c-11.6-26.7-81.2-58-151.9-80C313.2-4.5,203.5,21,203.5,21
	C139.6,36.4,78.2,73.2,67.7,94.2c-46.5,93-27,138-61.6,248.6c10.4,1.1,85.3,19.1,114.6,19.3c5-32.8,8.3-56.1,8.3-56.1
	s-1.1,245.3-1.1,262.1S207.3,595,295.4,595s180.6-5,180.8-24c0-22-3.2-270-3.2-270s11.1,52.7,13.4,60
	C514.4,355.6,583.2,342.5,595.7,341.2z"/>
<g>
	<g>
		<path class="st2" d="M234.5,28.7C247.3,46,269,62.5,305.1,62.5c36.2,0,56.3-16.8,67.4-34.5C342.2,31.1,266.9,30.8,234.5,28.7z"/>
		<path class="st3" d="M375.1,1c-17.6,5.3-142.2,2.9-148.6,0.6c-0.1,0.3-0.3,0.7-0.5,1.1c2.2,7.1,6.3,17.5,13.7,27.5
			c29.5,1.9,97.9,2.2,125.6-0.6c6.2-9.9,9.4-20.2,10.9-27.3C375.8,1.8,375.4,1.4,375.1,1z"/>
	</g>
	<path class="st3" d="M376.2,2.3c-4.1,18.7-19,58.7-72.2,58.7c-53.9,0-72.4-40.1-78-58.3c-2.9,5.3-15.1,16-15.1,16
		s15.6,61.7,91.1,61.7c76.5,0,86.6-58.7,87.7-63.1C387.6,16.4,380.4,6.9,376.2,2.3z"/>
</g>
<path class="st1" d="M595.7,341.2c-28.5-52.1-24-161.6-59.7-243.7c-11.6-26.7-81.2-58-151.9-80C313.2-4.5,203.5,21,203.5,21
	C139.6,36.4,78.2,73.2,67.7,94.2c-46.5,93-27,138-61.6,248.6c10.4,1.1,85.3,19.1,114.6,19.3c5-32.8,8.3-56.1,8.3-56.1
	s-1.1,245.3-1.1,262.1S207.3,595,295.4,595s180.6-5,180.8-24c0-22-3.2-270-3.2-270s11.1,52.7,13.4,60
	C514.4,355.6,583.2,342.5,595.7,341.2z"/>
<g>
	<g>
		<path class="st2" d="M234.5,28.7C247.3,46,269,62.5,305.1,62.5c36.2,0,56.3-16.8,67.4-34.5C342.2,31.1,266.9,30.8,234.5,28.7z"/>
		<path class="st3" d="M375.1,1c-17.6,5.3-142.2,2.9-148.6,0.6c-0.1,0.3-0.3,0.7-0.5,1.1c2.2,7.1,6.3,17.5,13.7,27.5
			c29.5,1.9,97.9,2.2,125.6-0.6c6.2-9.9,9.4-20.2,10.9-27.3C375.8,1.8,375.4,1.4,375.1,1z"/>
	</g>
	<path class="st3" d="M376.2,2.3c-4.1,18.7-19,58.7-72.2,58.7c-53.9,0-72.4-40.1-78-58.3c-2.9,5.3-15.1,16-15.1,16
		s15.6,61.7,91.1,61.7c76.5,0,86.6-58.7,87.7-63.1C387.6,16.4,380.4,6.9,376.2,2.3z"/>
</g>
<path class="st1" d="M595.7,341.2c-28.5-52.1-24-161.6-59.7-243.7c-11.6-26.7-81.2-58-151.9-80C313.2-4.5,203.5,21,203.5,21
	C139.6,36.4,78.2,73.2,67.7,94.2c-46.5,93-27,138-61.6,248.6c10.4,1.1,85.3,19.1,114.6,19.3c5-32.8,8.3-56.1,8.3-56.1
	s-1.1,245.3-1.1,262.1S207.3,595,295.4,595s180.6-5,180.8-24c0-22-3.2-270-3.2-270s11.1,52.7,13.4,60
	C514.4,355.6,583.2,342.5,595.7,341.2z"/>
<path class="st7" d="M500,273c-3-25-5-48-10-73c-2.9-15.6-7.4-30.2-12.5-44.7c-2.5,10.5-4.7,20.7-6,31.4c-4.6,38-2.4,77.3,1,114.1
	c0.1,0.6,1.1-0.4,1.1,0.2c0,0,10.7,52,13.1,59.3c7.7-1.5,18.5-3.6,30.3-5.8C511.1,327.7,503.4,301,500,273z"/>
<path class="st7" d="M535.2,97l-4.7-7.5c0,0-14.2,1-28.6,15.8C521,151.5,521.6,204.9,533,256c7.4,31.4,12,62,16.4,92.5
	c20.9-3.9,39.5-7.2,45.5-7.8C566.4,288.7,570.9,179.2,535.2,97z"/>
<path class="st7" d="M88,101c1.2-2.3,2.4-4.7,3.7-7.2c-9.8-7.1-17.5-7.9-17.5-7.9s-5.1,6.2-6.4,9.2c-0.7,1.5-7.7,15.3-14.6,33.1
	c-6.7,17.2-13.1,38.2-15.5,53.2C28.3,238.3,27,277,6.5,342.5c4.9,0.5,17.6,3.3,33.6,6.6c10-73,19.8-144.7,36.9-220
	C79,119,83,110,88,101z"/>
<path class="st7" d="M131.1,184.4c-1.5-12.6-4.2-24.5-7.3-36.9c-2.9-10.9-6.4-19.8-10.3-27.2c-9.8,59-15.1,119-33.5,176.7
	c-5.9,18.8-8.7,38.3-10.5,57.8c17.9,3.3,36.2,6.1,50.4,6.8c2.4-7.3,8.6-55.6,8.6-55.6c0.3,0,0.5,0.1,1,0.1
	C132.9,269.2,135.7,222.4,131.1,184.4z"/>
<g>
	<path class="st7" d="M511.6,73.6c-8-5.5-11.3-7.4-14.7-9.4c-5.4-3.2-16.1-8.5-16.1-8.5c-50.3,84.5-66.1,225.9-66.8,231.9l-0.1,1.2
		l8,300.2c0,0,5-0.4,15-1.8s20.8-4.3,20.8-4.3l-7.8-292.6c0.8-6.4,4.8-39,13.5-79.1C475.9,152.9,492.6,105.4,511.6,73.6z"/>
</g>
<g>
	<g>
		<path class="st7" d="M144.5,580l7.7-289.6c-2-14.5-19.9-143.4-63.8-217.2c0,0,15.1-10,19.9-12.8c4.8-2.8,10.5-5.7,10.5-5.7
			c50.2,84.3,68.5,226.4,69.3,232.5l0.2,1.4l-8,298.9c0,0-8-1-18.8-3.2C150.7,582,144.5,580,144.5,580z"/>
	</g>
	<g>
		<path class="st7" d="M248.1,593.1l-36-2.1l4-293c-4.5-57.1-25.8-215.4-62.7-259.6c0,0,20.4-9,34.7-12.4
			c19.9,28.8,36.5,81.5,49.5,156.9c10.2,59.5,14.3,111,14.5,113.1l0.1,0.8l0,0.8L248.1,593.1z"/>
	</g>
	<g>
		<path class="st7" d="M350,593.6l-4-296.8l0.1-0.8c0.2-2.2,4.5-54.1,14.9-114.1c12.8-73.8,29-125.9,48.1-155.3
			c18.6,5.9,35.3,13,35.3,13c-36.9,44.2-57.5,200.9-62.3,258.6l4,293.8L350,593.6z"/>
	</g>
	<g>
		<polygon class="st7" points="316.2,594 280,593.8 280,77.5 316,77.2 		"/>
	</g>
</g>
<g>
	<g>
		<path class="st21" d="M234.5,28.7C247.3,46,269,62.5,305.1,62.5c36.2,0,56.3-16.8,67.4-34.5C342.2,31.1,266.9,30.8,234.5,28.7z"/>
		<path class="st22" d="M375.1,1c-17.6,5.3-142.2,2.9-148.6,0.6c-0.1,0.3-0.3,0.7-0.5,1.1c2.2,7.1,6.3,17.5,13.7,27.5
			c29.5,1.9,97.9,2.2,125.6-0.6c6.2-9.9,9.4-20.2,10.9-27.3C375.8,1.8,375.4,1.4,375.1,1z"/>
	</g>
	<path class="st22" d="M376.2,2.3c-4.1,18.7-19,58.7-72.2,58.7c-53.9,0-72.4-40.1-78-58.3c-2.9,5.3-15.1,16-15.1,16
		s15.6,61.7,91.1,61.7c76.5,0,86.6-58.7,87.7-63.1C387.6,16.4,380.4,6.9,376.2,2.3z"/>
</g>
<path class="st23" d="M73.8,85.9c0,0,77.1,9.2,55.7,220c-0.9,166-1.1,253.8-1.1,255.9c0,3.2-0.6,7.5,0.8,9.2
	c0.7,1.1,1.7,2.3,3.4,3.5c4.7,3.4,13.4,6.6,25.2,9.1c-14.2-11.6-10.9-42.8-9.8-72.1c1.1-29.4-24-95.4-3-199.4
	c6.8-33.6-5.5-74.9-6-84C135,160.4,122.6,94.6,73.8,85.9z"/>
<path class="st24" d="M475.7,564.5c0,0.4,0,0.5,0,0.5C475.7,564.4,475.7,564.3,475.7,564.5z"/>
<path class="st23" d="M528.8,89.1c-45.5,4.2-63.8,66.7-67.8,133.5c-0.5,9.1-8.8,58.8-2,92.4c21,104-4.1,170.1-3,199.4
	s4.2,59.5-10,71.2c11.8-2.4,20.4-4.9,25.1-8.2c1.7-1.2,2.9-2.3,3.6-3.4c0.3-0.3,0.9-1.6,0.9-2.9c0-2.8,0-6.1,0-6.7
	c-0.1-7.7-1.2-102.9-3.2-264C452.8,106.6,518.2,90.5,528.8,89.1z"/>
<path class="st24" d="M528.8,89.1c0.5,0,0.9-0.1,1.4-0.1C530.2,89,529.7,89,528.8,89.1z"/>
<g>
	<g>
		<g>
			<path class="st89" d="M374.1,166.6c-17.4,0-31.5,14.1-31.5,31.5s14.1,31.5,31.5,31.5s31.5-14.1,31.5-31.5
				S391.5,166.6,374.1,166.6L374.1,166.6z"/>
		</g>
	</g>
	<g>
		<path class="st2" d="M347.4,184.6h4.2v1.5h-2.4v1.4h2.2v1.5h-2.2v2.7h-1.8C347.4,191.7,347.4,184.6,347.4,184.6z"/>
		<path class="st2" d="M357.6,191.6c-0.2,0.1-0.8,0.2-1.6,0.2c-2.5,0-3.5-1.6-3.5-3.5c0-2.6,1.8-3.8,3.7-3.8c0.7,0,1.3,0.1,1.6,0.3
			l-0.4,1.4c-0.3-0.1-0.6-0.2-1.1-0.2c-1,0-1.9,0.6-1.9,2.1c0,1.4,0.7,2.1,1.9,2.1c0.4,0,0.8-0.1,1.1-0.2L357.6,191.6z"/>
		<path class="st2" d="M360.5,189.9c0.4,0.2,1,0.4,1.7,0.4c0.6,0,0.9-0.2,0.9-0.6c0-0.4-0.3-0.6-1.1-0.9c-1.2-0.5-1.8-1.2-1.8-2.1
			c0-1.2,1-2.2,2.7-2.2c0.8,0,1.3,0.1,1.7,0.3l-0.4,1.5c-0.3-0.1-0.8-0.3-1.4-0.3c-0.6,0-0.9,0.2-0.9,0.6c0,0.4,0.3,0.5,1.2,0.9
			c1.2,0.5,1.7,1.2,1.7,2.1c0,1.2-1,2.2-2.9,2.2c-0.8,0-1.5-0.2-1.9-0.4L360.5,189.9z"/>
		<path class="st2" d="M367.1,186.2h-1.6v-1.6h5.1v1.6h-1.7v5.6h-1.8V186.2z"/>
		<path class="st2" d="M371.4,191.8c-0.6,0-1-0.4-1-1.1c0-0.7,0.5-1.1,1.1-1.1c0.6,0,1,0.4,1,1.1C372.5,191.4,372,191.8,371.4,191.8
			L371.4,191.8z"/>
		<path class="st2" d="M375.4,184.7c0.5-0.1,1.2-0.1,2.1-0.1c1,0,1.7,0.1,2.2,0.6c0.5,0.4,0.8,1,0.8,1.7c0,0.8-0.2,1.4-0.7,1.8
			c-0.5,0.5-1.3,0.7-2.2,0.7c-0.1,0-0.3,0-0.4,0v2.4h-1.8V184.7z M377.2,187.8c0.1,0,0.2,0,0.3,0c0.7,0,1.1-0.4,1.1-1
			c0-0.6-0.3-0.9-1-0.9c-0.2,0-0.4,0-0.5,0.1V187.8z"/>
		<path class="st2" d="M382.5,190.1l-0.3,1.6h-1.9l1.9-7.1h2.4l1.9,7.1h-1.9l-0.4-1.6H382.5z M383.9,188.8l-0.3-1.3
			c-0.1-0.4-0.2-1.1-0.3-1.5h0c-0.1,0.4-0.2,1.1-0.3,1.5l-0.3,1.3H383.9z"/>
		<path class="st2" d="M388.8,184.6v4.2c0,1,0.3,1.6,0.9,1.6s1-0.5,1-1.6v-4.2h1.8v4c0,2.1-1,3.2-2.8,3.2s-2.8-1.1-2.8-3.2v-4H388.8
			z"/>
		<path class="st2" d="M393.8,184.6h1.8v5.6h2.4v1.5h-4.2V184.6z"/>
		<path class="st2" d="M400.7,184.6v7.1h-1.8v-7.1H400.7z"/>
	</g>
	<g>
		<path class="st2" d="M367.6,181.6v-6.6c-0.1,0.1-0.2,0.2-0.4,0.3c-0.2,0.1-0.4,0.1-0.6,0.1v-0.9c0.3,0,0.5-0.1,0.8-0.3
			s0.4-0.4,0.5-0.7h1v8.2H367.6z"/>
		<path class="st2" d="M372.9,181.1c-0.3,0.4-0.7,0.6-1.3,0.6c-0.6,0-1-0.1-1.3-0.5c-0.3-0.3-0.4-0.9-0.4-1.6v-0.4h1.2v0.2
			c0,0.5,0,0.9,0.1,1c0.1,0.2,0.2,0.2,0.4,0.2c0.2,0,0.3-0.1,0.4-0.1c0.1-0.1,0.1-0.1,0.1-0.2c0-0.1,0-0.3,0-0.7v-1.2
			c-0.2,0.1-0.4,0.2-0.8,0.2c-0.5,0-0.9-0.2-1.2-0.6c-0.2-0.4-0.4-1-0.4-1.8v-0.3c0-1,0.2-1.7,0.5-2.1c0.3-0.3,0.7-0.4,1.2-0.4
			s0.9,0.1,1.2,0.3c0.2,0.2,0.4,0.5,0.5,0.9c0.1,0.4,0.1,0.8,0.1,1.4v3.2C373.4,180,373.2,180.7,372.9,181.1z M371.6,177.4
			c0.3,0,0.5-0.1,0.5-0.4v-1.6c0-0.4,0-0.7-0.1-0.9c-0.1-0.2-0.2-0.3-0.4-0.3c-0.2,0-0.4,0.1-0.4,0.3c-0.1,0.2-0.1,0.5-0.1,0.9v0.7
			c0,0.5,0,0.8,0.1,1C371.2,177.3,371.4,177.4,371.6,177.4z"/>
		<path class="st2" d="M375.1,181.6v-6.6c-0.1,0.1-0.2,0.2-0.4,0.3c-0.2,0.1-0.4,0.1-0.6,0.1v-0.9c0.3,0,0.5-0.1,0.8-0.3
			s0.4-0.4,0.6-0.7h1v8.2C376.4,181.6,375.1,181.6,375.1,181.6z"/>
		<path class="st2" d="M380.8,181.1c-0.3,0.4-0.8,0.6-1.4,0.6c-0.7,0-1.1-0.2-1.4-0.6c-0.3-0.4-0.4-0.9-0.4-1.7v-3.9
			c0-0.7,0.1-1.2,0.4-1.6c0.3-0.4,0.8-0.6,1.4-0.6s1.1,0.2,1.4,0.6c0.3,0.4,0.4,0.9,0.4,1.6v3.9
			C381.3,180.1,381.1,180.7,380.8,181.1z M379.4,180.6c0.2,0,0.4-0.1,0.5-0.2c0.1-0.1,0.1-0.5,0.1-1v-4c0-0.6-0.1-0.9-0.4-1
			c0,0-0.1,0-0.3,0s-0.2,0.1-0.4,0.2c-0.1,0.1-0.2,0.4-0.2,0.9v4c0,0.5,0,0.8,0.1,1C379.1,180.5,379.2,180.6,379.4,180.6z"/>
	</g>
	<g>
		<rect x="362.6" y="202.1" class="st2" width="7" height="1.5"/>
		<rect x="362.6" y="216.6" class="st2" width="6.2" height="1.5"/>
		<rect x="379.3" y="216.6" class="st2" width="6" height="1.5"/>
		<rect x="362.6" y="209.8" class="st2" width="23" height="1.2"/>
		<rect x="370.6" y="202.1" class="st2" width="7" height="1.5"/>
		<rect x="378.6" y="202.1" class="st2" width="7" height="1.5"/>
		<path class="st2" d="M363.3,223.6v-4.8h5v6.7c0,0-3.8-0.6-5-1.8"/>
		<path class="st2" d="M363.3,215.8v-4.2h8.3c0,0-3,1.4-3,4.2H363.3z"/>
		<path class="st2" d="M384.8,223.6v-4.8h-5.2v6.7c0,0,3.9-0.6,5.1-1.8"/>
		<path class="st2" d="M384.8,215.9v-4.3h-8.5c0,0,3.1,0.8,3.1,4.2L384.8,215.9z"/>
		<rect x="363.3" y="204.1" class="st2" width="5.5" height="5"/>
		<rect x="371.1" y="204.1" class="st2" width="5.2" height="5"/>
		<rect x="379.3" y="204.1" class="st2" width="5.5" height="5"/>
		<path class="st2" d="M369.7,225.9c0,0,0-6.5,0-9.8c0-3.3,3.7-3.8,4.4-3.8s4.2,0.8,4.2,3.8c0,3.1,0,9.8,0,9.8s-2.1,0.7-4.3,0.7
			C372.1,226.5,369.7,225.9,369.7,225.9z"/>
		<path class="st2" d="M371.4,201.3c0,0,0.8-2.2,2.6-2.2c1.8,0,2.5,2.2,2.5,2.2H371.4z"/>
		<rect x="373.1" y="194.6" class="st2" width="1.8" height="6.8"/>
		<rect x="371.8" y="195.8" class="st2" width="4.2" height="1.8"/>
		<polygon class="st2" points="383.1,196.3 385.2,196.4 384.2,198.2 385.2,200 383.1,200.1 382.1,201.8 381,200.1 379,200 
			379.9,198.2 379,196.4 381,196.3 382.1,194.6 		"/>
		<polygon class="st2" points="367,196.3 369,196.4 368,198.2 369,200 367,200.1 365.9,201.8 364.8,200.1 362.8,200 363.8,198.2 
			362.8,196.4 364.8,196.3 365.9,194.6 		"/>
	</g>
</g>
</svg>
