<?xml version="1.0" encoding="utf-8"?>
<!-- Generator: Adobe Illustrator 17.0.0, SVG Export Plug-In . SVG Version: 6.00 Build 0)  -->
<!DOCTYPE svg PUBLIC "-//W3C//DTD SVG 1.1//EN" "http://www.w3.org/Graphics/SVG/1.1/DTD/svg11.dtd" [
	<!ENTITY ns_flows "http://ns.adobe.com/Flows/1.0/">
	<!ENTITY ns_extend "http://ns.adobe.com/Extensibility/1.0/">
	<!ENTITY ns_ai "http://ns.adobe.com/AdobeIllustrator/10.0/">
	<!ENTITY ns_graphs "http://ns.adobe.com/Graphs/1.0/">
]>
<svg version="1.1" id="Layer_1" xmlns:x="&ns_extend;" xmlns:i="&ns_ai;" xmlns:graph="&ns_graphs;"
	 xmlns="http://www.w3.org/2000/svg" xmlns:xlink="http://www.w3.org/1999/xlink" xmlns:a="http://ns.adobe.com/AdobeSVGViewerExtensions/3.0/"
	 x="0px" y="0px" width="600px" height="600px" viewBox="0 0 600 600" style="enable-background:new 0 0 600 600;"
	 xml:space="preserve">
<style type="text/css">
	.st0{fill:#FE0000;stroke:#000000;stroke-miterlimit:10;}
	.st1{fill:#FFFFFF;stroke:#000000;stroke-miterlimit:10;}
	.st2{fill:#FFFFFF;}
	.st3{fill:#7C0014;}
	.st4{fill:#F959FF;stroke:#000000;stroke-miterlimit:10;}
	.st5{fill:#EA24AE;}
	.st6{fill:#0563E1;}
	.st7{fill:#0B0A11;}
	.st8{fill:#004D9B;}
	.st9{fill:#C20000;}
	.st10{fill:#0563E1;stroke:#000000;stroke-miterlimit:10;}
	.st11{fill:url(#SVGID_1_);stroke:#000000;stroke-miterlimit:10;}
	.st12{fill:url(#SVGID_2_);}
	.st13{fill:#8ADAC9;stroke:#000000;stroke-miterlimit:10;}
	.st14{fill:#23495B;stroke:#000000;stroke-miterlimit:10;}
	.st15{fill:#CAC5C0;}
	.st16{fill:#23495B;}
	.st17{fill:#1976C9;stroke:#000000;stroke-miterlimit:10;}
	.st18{fill:#02619F;}
	.st19{fill:#1976C9;}
	.st20{fill:#02619F;stroke:#1976C9;stroke-miterlimit:10;}
	.st21{fill:#77A4CB;stroke:#000000;stroke-miterlimit:10;}
	.st22{stroke:#EDF3F8;stroke-miterlimit:10;}
	.st23{fill:#77A4CB;}
	.st24{fill:#C7CCC4;}
	.st25{fill:#FFFA5B;stroke:#000000;stroke-miterlimit:10;}
	.st26{fill:#1E2A24;}
	.st27{fill:#EBF0F5;stroke:#000000;stroke-miterlimit:10;}
	.st28{fill:url(#SVGID_3_);}
	.st29{fill:url(#SVGID_4_);}
	.st30{fill:#FFB05B;}
	.st31{fill:#4FAFBF;stroke:#000000;stroke-miterlimit:10;}
	.st32{fill:#43DA98;stroke:#000000;stroke-miterlimit:10;}
	.st33{fill:#00B273;}
	.st34{fill:#43DA98;}
	.st35{fill:#00B273;stroke:#000000;stroke-miterlimit:10;}
	.st36{fill:#BC2567;stroke:#FFFFFF;stroke-miterlimit:10;}
	.st37{fill:#8B004D;stroke:#000000;stroke-miterlimit:10;}
	.st38{fill:#5B5B4F;stroke:#000000;stroke-miterlimit:10;}
	.st39{fill:#3A3F40;}
	.st40{fill:#E7C993;}
	.st41{font-family:'ArialMT';}
	.st42{font-size:11;}
	.st43{fill:#8B004D;}
	.st44{fill:#5B5B4F;}
	.st45{fill:#F02233;stroke:#000000;stroke-miterlimit:10;}
	.st46{fill:#4E2664;stroke:#000000;stroke-miterlimit:10;}
	.st47{fill:#04829F;}
	.st48{adobe-knockout:true;}
	.st49{fill:none;stroke:#FFFFFF;stroke-width:3;stroke-miterlimit:10;adobe-knockout:false;}
	.st50{fill:#006F8C;}
	.st51{fill:#F32CBB;stroke:#000000;stroke-miterlimit:10;}
	.st52{fill:#C000AD;stroke:#000000;stroke-miterlimit:10;}
	.st53{fill:#6BBA4F;}
	.st54{fill:#03850D;}
	.st55{fill:#97C0DA;stroke:#000000;stroke-miterlimit:10;}
	.st56{fill:#83A5CB;}
	.st57{fill:#0453BC;}
	.st58{fill:#A79F96;}
	.st59{fill:#0CD3CA;stroke:#000000;stroke-miterlimit:10;}
	.st60{fill:#299AB8;}
	.st61{fill:#299AB8;stroke:#000000;stroke-miterlimit:10;}
	.st62{fill:#C000AD;}
	.st63{fill:#0099C7;}
	.st64{fill:#6E4D7F;stroke:#000000;stroke-miterlimit:10;}
	.st65{fill:#04829F;stroke:#000000;stroke-miterlimit:10;}
	.st66{fill:none;stroke:#EA24AE;stroke-width:8;stroke-miterlimit:10;}
	.st67{fill:#F959FF;}
	.st68{fill:#06A600;stroke:#000000;stroke-miterlimit:10;}
	.st69{fill:none;stroke:#15DB51;stroke-width:8;stroke-miterlimit:10;}
	.st70{fill:#06A600;}
	.st71{fill:#15DB51;stroke:#000000;stroke-miterlimit:10;}
	.st72{fill:#069400;}
	.st73{fill:#0066B3;}
	.st74{fill:#003644;}
	.st75{fill:#567481;}
	.st76{fill:none;stroke:#FFFFFF;stroke-width:3;stroke-miterlimit:10;}
	.st77{fill:url(#SVGID_5_);stroke:#FFFFFF;stroke-miterlimit:10;}
	.st78{fill:#B05040;}
	.st79{fill:#5C2633;}
	.st80{fill:none;stroke:#A7747F;stroke-width:3;stroke-miterlimit:10;}
	.st81{fill:#46A0BE;}
	.st82{fill:#005FA5;}
	.st83{fill:#FE9C14;}
	.st84{fill:#FED539;}
	.st85{fill:#3AC919;stroke:#000000;stroke-miterlimit:10;}
	.st86{fill:#2A9F02;}
	.st87{fill:#3AC919;}
	.st88{fill:#2A9F02;stroke:#000000;stroke-miterlimit:10;}
	.st89{fill:#FE144C;}
	.st90{fill:#FE5F39;}
	.st91{fill:#E91B00;}
	.st92{fill:#FE0000;}
	.st93{fill:#0005A4;stroke:#000000;stroke-miterlimit:10;}
	.st94{fill:#000578;}
	.st95{fill:#004FA4;}
	.st96{fill:#0005A4;stroke:#FFFFFF;stroke-miterlimit:10;}
	.st97{fill:#FFE60B;stroke:#000000;stroke-width:1.5;stroke-miterlimit:10;}
	.st98{fill:#ED1C24;}
	.st99{fill:#FFEE34;}
	.st100{fill:#FF4A49;}
	.st101{fill:none;stroke:#000000;stroke-miterlimit:10;}
	.st102{fill:#F97F7A;}
	.st103{fill:#6E4D7F;}
	.st104{fill:#CA0014;}
	.st105{fill:#382351;}
	.st106{fill:#01A663;}
	.st107{fill:#8ABE23;}
	.st108{fill:#1D1D1B;}
	.st109{fill:#FEFEFE;}
</style>
<text transform="matrix(1 0 0 1 62.9999 581.0644)" class="st41 st42"> </text>
<path class="st85" d="M594.5,576.2c0-93.6-20.8-396.5-56.5-478.7c-11.6-26.7-84.7-58.1-155.5-80.1c-24.8-7.7-54.1-9.9-81.7-9.4
	c-27.8-0.6-61.4,1.3-86.4,9.1C143.6,39.2,74.6,70.8,63,97.5C27.2,179.7,6.5,482.7,6.5,576.2c8.8,6.4,17.7,7.6,67.5,9.8
	c10-134,52-285,52-285s-4.1,248-4.1,270c0.2,18.6,87.7,23.8,173.7,24v0c1,0,2.5,0,3.5,0c1,0,2.5,0,3.5,0v0c86-0.2,175-5.4,175.2-24
	c0-22-2.9-270-2.9-270s42.1,151,52.1,285C576.6,583.8,585.7,582.7,594.5,576.2z"/>
<g>
	<g>
		<g>
			<path class="st86" d="M167.8,71.1c-2.1,1.5-4.2,3.1-6.1,4.9c-1.9,1.8-3.8,3.7-5.5,5.7c-7,8-12.6,16.8-17.5,25.8
				c-1.5,2.6-3,5.4-4.4,8.1s-2.7,5.6-3.8,8.4c-2.4,6-4.3,12.1-5.4,18.1c0.6,4.7,1.2,9.4,1.8,14.1c7.5-5.2,13.7-11.1,19-17.3
				c2.6-3.1,5-6.3,6.9-9.9c2-5.6,4.2-11,6.4-16.5c1.1-2.7,2.2-5.4,3.3-8.2C167,91,175,79,177.2,65.3
				C177.2,65.3,173.5,67.2,167.8,71.1z"/>
		</g>
		<g>
			<path class="st86" d="M204,59.2c1,18.8,10,54.8-17,58.8c-7,1-15,0-21-4c-1,0-1-4,0-6c11-15,24-26,31.9-41.6
				C201.4,61.8,204,59.2,204,59.2z"/>
		</g>
		<g>
			<path class="st86" d="M173.2,136c-4.2,6-9.2,11-14.5,16.9c-0.7,0.7-1.5,1.5-2.2,2.3c-0.8,0.8-1.6,1.6-2.4,2.4
				c-1.6,1.6-3.2,3.3-4.8,5.1s-3.2,3.6-4.8,5.5c-1.6,1.9-3.1,3.9-4.7,5.9c-3.1,4-6.1,8.2-8.6,12.6c-0.1,0.2-0.3,0.5-0.4,0.7
				c0.9,7.6,1.7,15.2,2.4,22.8c1.9-1,3.8-2,5.6-3.1c2.6-1.6,5-3.2,7.2-5.1c2.2-1.8,4.2-3.8,6.1-5.8c1.9-2,3.7-4.1,5.3-6.2
				c1.6-2.1,3.2-4.2,4.4-6.5c2.6-4.4,4.7-8.9,6.4-13.2c0.9-2.1,1.6-4.2,2.3-6.3c0.6-2.1,1.1-4.1,1.5-6c0.8-3.9,1.3-7.6,1.4-11
				C173.7,140.4,173.2,136,173.2,136z"/>
		</g>
		<g>
			<path class="st86" d="M249.1,70.9c-0.1,3.5-0.5,7-1,10.4c-0.5,3.4-1.3,6.8-2.2,10.1C239,110,229,130,215.5,145.3
				c-1.8,2.4-3.7,4.9-5.5,7.3c-2.6,3-5.4,6-8.3,8.9c-2.9,2.9-5.9,5.7-9.1,8.5c-6.3,5.6-13.1,10.9-20.7,16.1c0.7-6.9,2.7-13.9,5.4-21
				c0.9-2.3,2-4.7,3.1-7c1.2-2.9,2.4-5.8,3.7-8.6s2.6-5.6,4-8.3c1-5.3,5-8.3,8-10.3c6.8-7.1,14.1-13.4,21.1-19.8
				c2.4-2.1,4.7-4.2,7-6.4c3.9-4.8,8.9-8.8,12.7-13.8c1.9-2.5,3.7-5,5.4-7.8c1.7-2.7,3.2-5.6,4.5-8.6
				C248.2,72.2,249.1,70.9,249.1,70.9z"/>
		</g>
		<g>
			<path class="st86" d="M206.3,227.4c-0.3,2.6-0.9,5.2-1.6,7.7c-0.7,2.5-1.5,4.9-2.3,7.4C194,274,194,316,153.6,323.9
				c-2.1,1.4-4.3,2.8-6.6,4.2c0.1-3,0.4-5.9,0.8-8.9C154,293,167,269,184,248.7c2.7-3.2,5.4-6,7.9-8.5c1.7-1.7,3.2-3.2,4.7-4.5
				c3-2.7,5.4-4.7,7.1-6.2S206.3,227.4,206.3,227.4z"/>
		</g>
		<g>
			<path class="st86" d="M264.9,112.2C251,134,252,161,240,184.2c-2,2.6-4.1,5.2-6.2,7.7c-10.8,12.6-23.6,23.7-37.7,32.1
				c2-6,2-13,5.6-19.4c1.3-3.2,2.8-6.4,4.4-9.6c1.6-3.2,3.3-6.3,5.1-9.4c3.6-6.2,7.6-12.3,11.8-18.1c2.1-2.9,4.1-5.8,6.2-8.6
				c11-13.8,17-32.8,32.9-44.3C263.8,113,264.9,112.2,264.9,112.2z"/>
		</g>
		<g>
			<path class="st86" d="M360.3,76.1C357,88,351,98,346.7,108.6c-1.5,3.1-3.2,6.3-5,9.6c-1.7,3.4-3.6,6.9-5.7,10.5
				c-2,2.5-4,5-6.4,7.2C295,143,277,165,275,201c0,2-3,4-5.1,5.7c-2.3,1.4-4.8,2.6-7.3,3.8c-2.5,1.1-5.1,2.3-7.6,3.5
				c1.5-1.5,2.8-3.1,4-4.8c1.2-1.7,2.3-3.5,3.4-5.3C266,199,267,193,268,187c1-17-1-36,14-48c12-9,29-10,38-21.5
				c1.4-1.6,2.9-3.2,4.2-4.8c1.4-1.5,2.8-3.1,4.1-4.5c1.4-1.5,2.7-2.9,4.1-4.2c2.7-2.7,5.2-5.3,7.6-7.7C346,91,351,85,356.6,79.7
				C359,77.3,360.3,76.1,360.3,76.1z"/>
		</g>
		<g>
			<path class="st86" d="M407.3,42.4C398,68,381,89,373,117c-2,7-6,13-10.4,20.5c-2,2.9-4,5.7-6,8.5c-2,2.8-4.1,5.6-6.2,8.4
				c-2.2,1.9-4.5,3.5-7.1,4.7c-4.3,0.9-8.3,2.9-12,3.7c-2.1,0.3-4.2,0.5-6.4,0.7C318.5,164,312,164,306,165c4-15,25-14,31.8-28.3
				c1.7-2.5,3.3-5,4.7-7.8C359,98,372,64,403.8,45.5C406,43.5,407.3,42.4,407.3,42.4z"/>
		</g>
		<g>
			<path class="st86" d="M399.1,115.4c-7.1,9.6-13.1,20.6-16.6,33c-0.8,2.8-1.6,5.6-2.3,8.4c-0.7,2.8-1.3,5.7-2,8.5
				c-0.8,3.4-1.6,6.9-2.4,10.3C375,213,359,248,318.5,255.5c-2.2,1.5-4.3,3-6.4,4.5c0.4-3,1.4-6,2.6-8.7C320,239,331,231,335,220
				c9-21,15-41,28.2-59.6c1.5-2.6,2.9-5.2,4.3-7.8c1.2-2.2,2.4-4.3,3.6-6.4C378,136,384,125,395.3,117.7
				C397.7,116.2,399.1,115.4,399.1,115.4z"/>
		</g>
		<g>
			<path class="st86" d="M470,96.5c0,0-1.1,5.6-3.9,14.7c-2.3,7.6-5.6,17.6-10.4,28.9c-1,2.3-2,4.6-3.1,6.9
				c-12.8,21-26.6,41.2-41.3,60.9c-2.1,2.8-4.2,5.6-6.4,8.4C400,223,396,231,389,236c-1-13,2-25,3.6-37.9c0.7-3.4,1.4-6.6,2.3-9.8
				c7.1-25.7,20.6-47.2,46.8-58.9c1.6-2,3.1-3.9,4.6-5.7c4.5-5.5,8.6-10.4,12.1-14.4C465.4,101.2,470,96.5,470,96.5z"/>
		</g>
		<g>
			<path class="st86" d="M444,189.5c0,0-0.5,1.8-1.5,5.2c-0.5,1.7-1.2,3.8-2,6.2c-0.8,2.4-1.7,5.2-2.8,8.3c-0.5,1.5-1.1,3.2-1.7,4.9
				c-0.3,0.8-0.6,1.7-0.9,2.6c-0.3,0.9-0.7,1.8-1.1,2.7c-0.7,1.8-1.5,3.7-2.3,5.6c-2.8,36-22.8,63-48.8,85.8c-1,1.3-2,2.5-2.9,3.8
				c-1,1.3-2,2.5-3.1,3.8c-5.2,4.4-10.6,8.5-16,12.6c-2.7,2-5.4,4-8.5,5.6C337,344,315,343,305,361c1-4,3-8,5-11
				c11-12,27-16,36.3-28.5c2-2.6,4-5.3,6-7.9c2-2.7,3.9-5.3,5.8-8c1.7-2.5,3.5-5.1,5.2-7.6C371,286,385,283,397,275
				c20-13,15-39,25.4-57.1c1.3-1.8,2.5-3.4,3.8-5c1.2-1.6,2.3-3.1,3.4-4.6c3.4-5.3,7.4-9.3,10.5-13.8
				C442.6,191.3,444,189.5,444,189.5z"/>
		</g>
		<g>
			<path class="st86" d="M439.7,271.2C430,289,417,305,404.1,321.4c-1.9,2.9-3.7,6-5.5,9c-1.2,2-2.3,4.1-3.5,6.1
				c-2.1,4.5-4.6,8.1-7.6,11.3c-1.5,1.6-3,3.1-4.7,4.5C375,358,366,364,359,371c16-3,35-2,46.8-13.6c2.3-2.5,4.5-5,6.6-7.6
				c2.1-2.6,4.1-5.2,6-7.8c5.8-7.9,11-16,15.6-23.9c1.5-2.7,3-5.3,4.4-7.9c3.7-9.1,8.7-17.1,12-26.5c0.6-1.5,1.1-3,1.6-4.5
				c-0.2-4-0.4-8-0.6-12c-0.2-4-0.3-8-0.4-12.1c-1.6,2.2-3.4,4.6-5.4,7.2C443.7,265,441.7,268,439.7,271.2z"/>
		</g>
		<g>
			<path class="st86" d="M287.6,197c0.4,7,0.4,15-5.5,20.4c-1.4,1.7-2.9,3.4-4.4,5c-4.5,4.9-9.2,9.6-12.8,15.6
				c-7.5,15-4.6,32.8-11.2,47.5c-1.3,2.9-3,5.8-5.2,8.5C241,306,234,319,225,330c2-26,11-51,11.6-77c0.3-2.8,0.6-5.6,1.2-8.3
				c1.6-8.1,4.7-15.7,12.2-21.7c6-5,13-7.2,19.6-9.7c2.2-0.8,4.4-1.7,6.4-2.7c4-1.6,8-5.6,9.8-9.3C287,198.6,287.6,197,287.6,197z"
				/>
		</g>
		<g>
			<path class="st86" d="M203.1,304.7C211,334,184,351,164.3,365.1c-2.5,1.8-5.2,3.5-8,5c-1.9,1.3-3.8,2.5-5.8,3.6
				c-2,1.1-4.1,2.2-6.3,3.2c0.2-8.1,2.3-16.1,5.5-24c1.1-2.6,2.3-5.2,3.5-7.7C160,331,175,329,188,324c6-3,10-10,13.4-15.8
				C202.5,306,203.1,304.7,203.1,304.7z"/>
		</g>
		<g>
			<path class="st86" d="M213.7,370.9c-2.4,1.5-4.9,2.9-7.4,4.3c-7.4,4.2-14.4,8.4-17.9,16.3c-0.6,1-1.3,2.1-2,3.1
				c-0.7,1-1.3,2.1-2.1,3.2c-1.5,2.1-2.9,4.3-4.5,6.4C173,413,166,423,157,430c-2.3,2.2-4.7,4.4-7.2,6.7c-2.5,2.3-5.2,4.6-8,7.1
				c-0.5-2.7-0.9-5.6-0.9-8.4c0.1-2.9,0.2-5.9,0.8-8.8c0.3-1.5,0.6-3,1-4.5c0.4-1.5,0.9-2.9,1.4-4.4l0.8-2.2
				c0.3-0.7,0.6-1.4,0.9-2.1c0.6-1.4,1.3-2.8,2-4.2c5.8-11.1,14.3-20.7,22.8-28c2.1-1.8,4.3-3.5,6.4-5.1c2.3-1.8,4.7-3.1,7.3-4.1
				s5.3-1.6,8-2c5.7,0,10.7,0,17,0.2C212.1,370.6,213.7,370.9,213.7,370.9z"/>
		</g>
		<g>
			<path class="st86" d="M296.2,250.5c-1.2,9.5-3.2,17.5-6.4,25.9c-1.1,3-2.4,6.2-3.9,9.6c-1.5,3.3-3.1,6.9-5,10.5
				c-0.9,1.8-1.9,3.7-2.9,5.5c-1,1.9-2,3.8-3.1,5.7c-1.1,1.9-2.2,3.9-3.3,5.9C264,334,265,359,244,371c-6,3-12.2,5.5-18.1,8.5
				c-2,1-3.9,2.1-5.7,3.2C211,387,205,396,197,402c0-7,4-12,5.5-18.9c0.6-2.7,1.6-4.9,2.8-6.9c6.2-9.7,19.7-11.4,29.7-17.2
				c6-3.7,9.4-8.6,11.5-14.1c1-2.8,1.7-5.7,2.2-8.7c1.3-16.2,1.3-33.2,14.4-44.6c1.4-1.6,2.8-3.2,4.2-4.7c1.3-1.6,2.7-3.1,3.9-4.6
				C280,274,285,264,293,254.6C295,252,296.2,250.5,296.2,250.5z"/>
		</g>
		<g>
			<path class="st86" d="M340,288.7c0,0-0.5,3.5-1.9,9.3c-0.6,3-1.6,6.4-2.9,10.2c-0.7,1.9-1.4,3.9-2.3,6c-0.9,2-1.9,4.1-3,6.2
				c-1.1,2.1-2.3,4.3-3.7,6.4C314,344,295,352,277,361c3-15,12-29,23.9-39.4c1.8-1.9,3.6-3.7,5.4-5.5c1.8-1.8,3.7-3.5,5.5-5.1
				c3.6-3.3,7.2-6.3,10.4-9c3.3-2.7,6.3-5.1,8.9-7.1C336.4,290.9,340,288.7,340,288.7z"/>
		</g>
		<g>
			<path class="st86" d="M178,445.6c-3,11.4-2,25.4-12.5,33.2c-2.2,1.7-4.9,3.2-8.3,4.8s-7.4,3.2-12.4,5c-3.4-6.5-2.7-14,0.4-20.3
				c1.6-3.2,3.7-6,6.1-8.4c2.4-2.4,5.1-4.4,7.8-6c2.9-1.5,5.9-3,8.8-4.3s5.8-2.6,8.6-3.6C177.5,445.7,178,445.6,178,445.6z"/>
		</g>
		<g>
			<path class="st86" d="M280.3,366.3c-1.1,2.5-2.4,4.8-3.6,7.1c-1.3,2.3-2.6,4.6-3.9,6.8c-5.2,9.1-10.5,18-16,26.8
				c-1.4,2.2-2.8,4.3-4.3,6.5c-3.5,4.5-7.7,7.7-12.2,10.4c-2.3,1.3-4.6,2.6-7,3.7C203,434,194,463,184,488c-2,5-6,8-10,12
				c4-30,10-63,34.6-83.1c2.6-2.3,5.4-4.4,8.4-6.3c6-3.9,12.8-7,20.5-9.4c2.1-1.8,4.2-3.7,6.3-5.5c8.8-7.6,18-14.9,27.2-21.9
				c1.8-1.4,3.7-2.8,5.5-4.2C279,367.5,280.3,366.3,280.3,366.3z"/>
		</g>
		<g>
			<path class="st86" d="M295.9,421.4c0,0-0.6,3.1-2.1,7.5c-2.9,16.6-10.9,32-25.3,39.5c-2.4,1.3-5,2.3-7.7,3.1
				c-5.8,0.6-17.8,3.6-17.4-5.8c0.7-2.9,2.8-6.2,4-8.8c1.3-2,2.7-3.9,4.3-5.8c6.1-7.4,13.9-13.6,21.2-18.8c2.3-1.7,4.4-3.2,6.8-4.3
				c1.5-0.8,3-1.5,4.4-2.2c1.4-0.6,2.6-1.2,3.9-1.7C292.9,422.2,295.9,421.4,295.9,421.4z"/>
		</g>
		<g>
			<path class="st86" d="M189.6,534.4c0,0-0.4,2.5-1.3,5.8c-0.2,0.8-0.5,1.7-0.7,2.6c-0.2,1-0.5,1.9-0.8,2.9c-0.3,1-0.6,2-1,2.9
				c-0.4,1-0.7,2-1.1,3c-0.4,1-0.9,1.9-1.4,2.8c-0.5,0.9-1,1.8-1.7,2.7c-0.7,0.8-1.3,1.7-2.1,2.5c-0.4,0.4-0.8,0.8-1.3,1.1
				c-0.5,0.4-1,0.7-1.4,1.1c-1,0.7-2.1,1.4-3.5,2.1c-0.7,0.3-1.3,0.6-2.1,1c-0.7,0.3-1.5,0.7-2.3,1c-0.8,0.3-1.7,0.6-2.6,0.9
				c-0.9,0.3-1.8,0.6-2.8,0.9c-2,0.6-4.2,1.2-6.7,1.7c-0.8-1.5-1.3-3.1-1.7-4.6c-0.4-1.5-0.7-3.1-0.6-4.6c0-1.5,0.2-3.1,0.5-4.6
				c0.1-0.4,0.2-0.7,0.3-1.1c0.1-0.4,0.2-0.7,0.4-1.1c0.3-0.7,0.6-1.4,0.9-2.1c0.3-0.7,0.7-1.4,1.1-2.1c0.4-0.7,0.8-1.3,1.3-1.9
				c0.9-1.2,2-2.4,3-3.5c0.5-0.6,1.1-1.1,1.7-1.6c0.6-0.5,1.2-1,1.8-1.4c1.2-0.9,2.4-1.8,3.8-2.4c2.6-1.3,5.1-2.4,7.6-3
				c1.2-0.3,2.4-0.6,3.5-0.8c0.5-0.1,1.1-0.2,1.6-0.3c0.5,0,1-0.1,1.5-0.1C187.3,534.1,189.6,534.4,189.6,534.4z"/>
		</g>
		<g>
			<path class="st86" d="M287,476.1c-1,2.9-2,6.9-4,6.9c-29,11-50,30-59,60c-1,1-4,2-5.1,3.9c-2.6,1.4-5.4,2.6-7.9,4.1
				c0.8-2.6,1.2-5.3,1.5-8.1C200,496,241,472,283.3,476.9C285.7,476.4,287,476.1,287,476.1z"/>
		</g>
		<g>
			<path class="st86" d="M340.7,359c5.3,19,13.3,40,4,58.7c-1.6,2.5-3.7,4.9-6.2,7.1c-1.8,2.1-3.8,4.3-5.9,6.4
				C322,440,319,458,304,459c-5,1-7-7-6.2-12c0.2-2.3,0.7-4.9,1.5-7.4c1.2-3.8,2.9-7.8,5.1-11.5c2.2-3.7,4.7-7,7.4-9.7
				c4.7-4.5,9.1-9.2,12.8-14.3c1.8-2.5,3.5-5.2,5-7.9c4.3-8.2,7.3-17.2,6.7-26.7C338.3,362.3,340.7,359,340.7,359z"/>
		</g>
		<g>
			<path class="st86" d="M443.1,354.5c0,0-1.2,5.1-4.2,13.6c-0.4,1.1-0.8,2.2-1.2,3.3c-0.2,0.6-0.4,1.2-0.7,1.8
				c-1.3,3.1-2.6,6.1-4.2,9C432,384,431,386,429,387c-32,6-50,24-51,56c0,4-4,8-7.8,10.5c-2.3,1.2-4.6,2.2-7,3.2
				c-7.1,2.9-14.2,5.6-20.2,9.3c3-8,9-13,12.9-19.7c2.2-3.3,4.5-6.7,6.5-10.6C365,399,390,376,424.8,369.3c2.3-1.2,4.5-2.5,6.7-3.8
				c3.5-3.4,6.4-6.2,8.4-8.1C442,355.5,443.1,354.5,443.1,354.5z"/>
		</g>
		<g>
			<path class="st86" d="M314.4,503.6c-1.7,2.2-3.6,4-5.5,5.7C296,517,278,517,268,531c-10,16-12,36-29.5,46.9
				c-3.1,2.1-6.4,4.2-9.9,6.2c0.1-3,0.6-6.1,1.3-9.1c0.7-3.1,1.7-6.1,2.8-9.3C232,518,265,493,311.4,505
				C313.4,504.1,314.4,503.6,314.4,503.6z"/>
		</g>
		<g>
			<path class="st86" d="M382.7,467.8c-3.5,1.4-6.8,2.9-9.9,4.6C360,480,348,489,339.5,501.9c-1.7,2.5-3.3,5.2-4.8,7.9
				c-3,5.5-5.5,11.6-7.7,18.1c-0.5,2-2,3.5-4,4.7c-6,2.3-12,4.3-18,4.3c7-7,9-16,13.3-24.9c1.5-3.1,3-6.1,4.7-9
				c10.2-17.8,24.5-31.8,46.3-34.4c3.1-0.4,6.4-0.5,9.8-0.4C381.5,468,382.7,467.8,382.7,467.8z"/>
		</g>
		<g>
			<path class="st86" d="M451.8,415.4C449,439,430,461,406,466c-1-15-11-33,1-45c9-10,23-2,35.2-4.5
				C448.2,416,451.8,415.4,451.8,415.4z"/>
		</g>
		<g>
			<path class="st86" d="M428.1,480.4c-0.1,3.6-2.1,6.6-2.7,10.5C424,496,420,499,418,500c-25,14-43,32-57.1,54.8
				c-2.2,1.8-4.5,3.5-6.9,5.2c0.8-3.2,1.2-6.6,1.2-10.1C355,535,350,516,364,506c20-14,45-7,61.5-23.7
				C427.2,481.1,428.1,480.4,428.1,480.4z"/>
		</g>
		<g>
			<path class="st86" d="M453.1,540.7C452,565,423,590,408,577c-19-17,14-38,36.7-35.1C449.7,541.2,453.1,540.7,453.1,540.7z"/>
		</g>
		<g>
			<path class="st86" d="M300.5,538.9C300,555,288,566,275,561c-9-2-8-16-4-25c6-11,20-4,28.1,1.8
				C300,538.5,300.5,538.9,300.5,538.9z"/>
		</g>
		<g>
			<path class="st86" d="M443.2,51.4c0,0-0.1,0.7-0.2,2c-0.2,1.3-0.4,3-0.7,5.2c-0.7,4.3-1.5,9.8-3.2,15.7c-0.9,2.9-1.9,5.9-3.4,8.9
				C430,94,415,107,408,101c-12-13,5-33,20.5-42.2c2.6-1.9,5.2-3.4,7.3-4.5c1.1-0.5,2.1-1,3-1.4c0.9-0.4,1.7-0.7,2.3-0.9
				C442.5,51.6,443.2,51.4,443.2,51.4z"/>
		</g>
		<g>
			<path class="st86" d="M497.5,105.4c-5,2.2-11.8,6.1-18.2,11.5c-6.4,5.4-12.6,12.1-16.9,19.6c-1.1,1.9-2.1,3.8-2.9,5.7
				c-0.9,2-1.6,3.9-2.2,6c-2.3,3.9-1.3,8.9-1.7,12.6c3.3-0.7,6.4-1.6,9.3-2.7c2.9-1.1,5.5-2.4,8-3.8c1.5-4.2,3.2-8.3,5.1-12.4
				c4.2-13.3,11.9-25.6,20.8-36.9C498.3,105,497.9,105.2,497.5,105.4z"/>
		</g>
	</g>
	<g>
		<g>
			<path class="st86" d="M206.5,169.5c0,0-1.1,3.6-3.4,9.3c-1.2,2.8-2.7,6.2-4.5,10c-1.8,3.7-3.9,7.9-6.4,12.3
				c-2.4,4.4-5.2,9-8.3,13.7c-3.1,4.7-6.6,9.5-10.4,14.2c-7.6,9.4-16.6,18.5-26.8,26.1c3.2-9.3,8.6-19.2,14.9-28.8
				c3.1-4.8,6.5-9.6,9.9-14.2c3.4-4.6,6.8-9.1,10.1-13.3c2.2-2.8,4.4-5.5,6.5-8c2.1-2.5,4.1-4.8,5.9-7c2-1.4,3.2-3.3,4.5-5.3
				c1.3-1.9,2.5-3.8,4.5-5.1C205.2,170.9,206.5,169.5,206.5,169.5z"/>
		</g>
		<g>
			<path class="st86" d="M308.7,97.8C288,117,268,137,263,166c-4-30,16-57,43.5-67C307.9,98.2,308.7,97.8,308.7,97.8z"/>
		</g>
		<g>
			<path class="st86" d="M240,208.7c-2,2.6-3.6,5.3-5,8.1s-2.5,5.7-3.6,8.7C220,251,228,290,201,306c11-26,7-57,24.6-80
				c1.2-1.8,2.4-3.6,3.6-5.4c1.2-1.8,2.5-3.6,3.9-5.4C237.2,210.9,240,208.7,240,208.7z"/>
		</g>
		<g>
			<path class="st86" d="M327.3,169.2C320,191,325,224,297.5,232.4c-2.1,1.2-4.2,2.3-6.4,3.2c-6.6,2.9-13.6,4.9-20.1,7.4
				c2-7.5,7.8-12,13.8-16.3c2-1.4,4.1-2.8,6.1-4.3c2.1-1.4,4.1-2.4,6.1-4.4c12-16,10-38,28-47.6
				C326.5,169.6,327.3,169.2,327.3,169.2z"/>
		</g>
		<g>
			<path class="st86" d="M422.7,121.4c-2.7,11.6-15.7,16.6-20,28.2c-1.2,2.3-2.3,4.6-3.3,7c-2,4.8-3.5,9.7-5,14.5
				c-1,3.2-2.1,6.4-3.3,9.5C386,194,380,206,373,218c2-13,3-27,7.7-38.7c1.1-2.8,2.2-5.6,3.3-8.4c1.3-3.2,2.6-6.4,4-9.6
				c1.4-3.2,2.8-6.3,4.4-9.3c7.6-11,14.6-25,28.6-29C422.1,122,422.7,121.4,422.7,121.4z"/>
		</g>
		<g>
			<path class="st86" d="M408.8,230.6C406,259,381,270,359,281c-3,2-4,4-5.4,6.6c-2,2.1-4.1,4.2-6.3,6.3c-2.2,2-4.5,4-6.9,5.9
				c0.6-2.2,1.3-4.5,2.2-6.8c0.8-2.3,1.8-4.7,2.9-7c1.5-6,5.5-12,10.5-15c17-14,37-22,50.9-38.7
				C408.2,231.2,408.8,230.6,408.8,230.6z"/>
		</g>
		<g>
			<path class="st86" d="M319.7,273.6c0,0-0.6,0.8-1.6,2.2c-0.5,0.7-1.2,1.5-2,2.5c-0.8,1-1.6,2.2-2.6,3.4
				C301,297,290,314,283.9,333.4c-1,2.8-2,5.6-3.1,8.3c-4.3,10.9-9.8,20.9-20.8,27.4c18-17,13-42,22.7-62.6c1.7-2.5,3.7-4.7,5.6-6.9
				c7.7-8.6,15.6-15.3,21.5-19.6c1.5-1,2.9-2,4.1-2.8c1.2-0.8,2.3-1.4,3.2-1.9C318.7,274.2,319.7,273.6,319.7,273.6z"/>
		</g>
		<g>
			<path class="st86" d="M236.3,326.6C237,344,223,353,207.7,355.3c-2.2,0.6-4.3,1.2-6.5,2c-4.2,1.5-8.2,3.6-11.7,7
				c-1.8,1.4-3.6,2.9-5.5,4.4c-1.9,1.4-3.8,2.8-5.9,4.1c0.7-3.6,1.9-7.3,3.5-11c1-3.6,2.6-6.7,4.6-9.2c2-2.6,4.4-4.7,7.1-6.4
				c11.5-7.1,25.5-7.1,36.8-14.3C234.2,328.7,236.3,326.6,236.3,326.6z"/>
		</g>
		<g>
			<path class="st86" d="M345.3,544.6C346,562,332,571,316.7,573.3c-2.2,0.6-4.3,1.2-6.5,2c-4.2,1.5-8.2,3.6-11.7,7
				c-1.8,1.4-3.6,2.9-5.5,4.4c-1.9,1.4-3.8,2.8-5.9,4.1c0.7-3.6,1.9-7.3,3.5-11c1-3.6,2.6-6.7,4.6-9.2s4.4-4.7,7.1-6.4
				c11.5-7.1,25.5-7.1,36.8-14.3C343.2,546.7,345.3,544.6,345.3,544.6z"/>
		</g>
		<g>
			<path class="st86" d="M335,59.2c-1.2,2.8-2.1,5.7-3,8.7c-6,18.2-7,41.2-25,51.2c4-20,13-38,23.4-54.5
				C333.1,61.1,335,59.2,335,59.2z"/>
		</g>
		<g>
			<path class="st86" d="M306.6,374.7c-2.6,5.3-2.6,12.3-7.3,16.2c-1.7,2.3-3.3,4.6-5.1,6.9c-5.2,6.8-10.8,13.4-16.6,19.7
				c-1.9,2.1-3.9,4.2-5.9,6.2c-3.3,3.1-6.9,5.4-10.7,7.2c-1.9,0.9-3.9,1.7-5.9,2.4C249,435,243,437,237,439c2-4,6-6,9.3-9
				c1.7-1.4,3.5-2.7,5.2-4.1c5.3-4.1,10.6-8.3,14.7-13.7c1.9-2.2,4-4.3,6.1-6.4c5.2-5.1,10.9-9.9,16.7-14.5c1.9-1.5,3.9-3,5.8-4.5
				c4.2-2.9,7.2-5.9,10.3-10C306.1,375.5,306.6,374.7,306.6,374.7z"/>
		</g>
		<g>
			<path class="st86" d="M382.7,327.1c-4.3,4.4-8.7,8.6-13.1,12.8c-2.2,2.1-4.4,4.2-6.6,6.2C347,359,313,357,314,385
				c-8-26,23-35,41.5-42.2c3.2-1.7,6.2-3.6,9.3-5.4c3.1-1.8,6.3-3.4,9.6-4.8C379.6,329.2,382.7,327.1,382.7,327.1z"/>
		</g>
		<g>
			<path class="st86" d="M462.1,212.2c0,0-0.2,0.5-0.6,1.5c-0.4,1-1.1,2.4-1.9,4.1c-0.8,1.7-1.9,3.7-3.1,6s-2.6,4.7-4.1,7.3
				C446,244,440,258,429,268c4-17,7-36,20.9-47.6c2.3-1.8,4.4-3.3,6.2-4.5c1.8-1.2,3.3-2.1,4.3-2.7
				C461.5,212.5,462.1,212.2,462.1,212.2z"/>
		</g>
		<g>
			<path class="st86" d="M467.3,317.1c0,0-1.1,2.5-3.4,6.6c-1.1,2-2.6,4.5-4.3,7.2c-0.9,1.3-1.8,2.8-2.8,4.2c-1,1.4-2.1,2.9-3.3,4.4
				c-2.4,3-5,6.1-8,9.2c-1.5,1.5-3,3.1-4.6,4.6c-2,2-4.4,3.7-7,5.1C424,365,411,363,399,362c8-5,18-5,25.5-11
				c1.8-1.1,3.6-2.3,5.2-3.7c1.7-1.4,3.3-2.9,4.9-4.4c3.2-3,6.4-5.7,9.6-8.3c1.6-1.3,3.1-2.5,4.6-3.7c1.5-1.2,3-2.3,4.3-3.4
				c2.7-2.1,5.2-4,7.3-5.6C464.6,318.9,467.3,317.1,467.3,317.1z"/>
		</g>
		<g>
			<path class="st86" d="M365,393.8c-1,14.2-1,28.2-8.2,40c-1.3,1.8-2.8,3.6-4.3,5.3C341,450,334,464,327,478c1-15,3-32,13.9-43.8
				c1.7-1.8,3.4-3.5,5.1-5.1c8.9-6.1,12.9-16.1,15.9-25.6C363.8,397.5,365,393.8,365,393.8z"/>
		</g>
		<g>
			<path class="st86" d="M222.1,456.5C212,469,211,487,207,503c-1,4-3,7-6.4,10.4c-1.5,1.5-3,3.1-4.7,4.6s-3.3,3-5.1,4.5
				c0.1-3.5,0.8-7.1,2-10.8s2.7-7.4,4.5-11.2c1.9-5.1,3.2-10.9,4.7-16.6c0.7-2.8,1.5-5.6,2.5-8.3c3.6-6.5,7.6-15.5,15.7-18.6
				C221.4,456.6,222.1,456.5,222.1,456.5z"/>
		</g>
		<g>
			<path class="st86" d="M466.2,381.5c0,0-1,2-3,5.1c-1,1.5-2.1,3.4-3.5,5.4C447,409,424,402,406,407c1-4,3-8,7-10
				c14-6,31-2,44.1-11.1c1.1-0.6,2-1.2,3-1.6C463.8,382.4,466.2,381.5,466.2,381.5z"/>
		</g>
		<g>
			<path class="st86" d="M469.2,493.5c0,0-1,2-3,5.1c-1,1.5-2.1,3.4-3.5,5.4C450,521,427,514,409,519c1-4,3-8,7-10
				c14-6,31-2,44.1-11.1c1.1-0.6,2-1.2,3-1.6C466.8,494.4,469.2,493.5,469.2,493.5z"/>
		</g>
		<g>
			<path class="st86" d="M402.1,480.3C401,482,400,484,399,485c-23,11-57,19-58,49c0,3-2,7-5,9c-1.1-8.1-0.6-15.6,1.2-22.3
				c0.9-3.4,2.2-6.5,3.7-9.5C351,492,373,484,392.7,484.8C398.9,482.3,402.1,480.3,402.1,480.3z"/>
		</g>
		<g>
			<path class="st86" d="M462.1,458.9C454,467,447,476,439.3,483.5c-1.7,1.8-3.4,3.6-5.2,5.5c-1.8,1.9-3.7,3.8-5.9,5.5
				C412,507,390,509,371,517c2-4,5-6,8-9c14-11,33-11,44.4-24.7c2.2-2,4.4-3.9,6.7-5.7c9-7.4,18.4-13.6,29.3-17.5
				C461.1,459.3,462.1,458.9,462.1,458.9z"/>
		</g>
		<g>
			<path class="st86" d="M421,526.8C407,542,392,559,373,568c2-25,23-39,45.7-40.7C420.2,527,421,526.8,421,526.8z"/>
		</g>
		<g>
			<path class="st86" d="M166.4,44.6C163,56,155,64,148.5,72.7c-1.8,2.2-3.7,4.3-5.7,6.4c-5.9,6.3-12.1,12.1-18.3,17.7
				c-1,0.8-1.9,1.5-2.9,2.3c-0.9,0.8-1.9,1.6-2.9,2.4c-2,1.6-4.1,3.1-6.3,4.5c0.5-1.9,1.1-3.9,1.8-5.8c0.4-1,0.8-2,1.2-3
				c0.4-1,0.8-2,1.4-3c1-1.9,2.2-3.9,3.4-5.8c0.6-1,1.2-2,1.9-2.9c0.7-0.9,1.4-1.9,2.1-2.8c1.4-1.8,2.9-3.7,4.4-5.4
				c6.9-6.8,13.3-13.5,20.1-19.4c1.7-1.5,3.5-2.9,5.3-4.2c1.8-1.3,3.6-2.6,5.6-3.8C163.7,46.5,166.4,44.6,166.4,44.6z"/>
		</g>
		<g>
			<path class="st86" d="M475.8,61.9c0,0-1.1,2.5-3.2,6.5c-1.1,1.9-2.3,4.4-3.8,7c-0.8,1.3-1.5,2.7-2.4,4.2c-0.8,1.5-1.7,3-2.6,4.6
				c-3.8,6.2-8.3,13.2-14.3,19.9c-1.5,1.7-3,3.3-4.7,4.9c-1.6,1.6-3.4,3.2-5.2,4.7c-1.8,1.7-4,3-6.2,4.1C431,118,429,120,427,121
				c3-7,7-14,11.3-20.8c1.2-1.8,2.4-3.5,3.6-5.3c1.3-1.7,2.5-3.4,3.9-5.1c2.6-3.3,5.4-6.5,8.1-9.5c1.4-1.5,2.8-2.8,4.1-4.2
				c1.3-1.3,2.6-2.6,3.9-3.7c1.3-1.1,2.5-2.2,3.7-3.2c1.2-1,2.2-1.9,3.3-2.6C473.1,63.6,475.8,61.9,475.8,61.9z"/>
		</g>
	</g>
</g>
<g>
	<g>
		<path class="st87" d="M227.5,28.7C240.3,46,262,62.5,298.1,62.5c36.2,0,56.3-16.8,67.4-34.5C335.2,31.1,259.9,30.8,227.5,28.7z"/>
		<path class="st88" d="M368.1,1c-17.6,5.3-142.2,2.9-148.6,0.6c-0.1,0.3-0.3,0.7-0.5,1.1c2.2,7.1,6.3,17.5,13.7,27.5
			c29.5,1.9,97.9,2.2,125.6-0.6c6.2-9.9,9.4-20.2,10.9-27.3C368.8,1.8,368.4,1.4,368.1,1z"/>
	</g>
	<path class="st88" d="M369.2,2.3c-4.1,18.7-19,58.7-72.2,58.7c-53.9,0-72.4-40.1-78-58.3c-2.9,5.3-13.9,16.7-13.9,16.7
		s14.4,61,89.9,61c76.5,0,86.6-58.7,87.7-63.1C380.6,16.4,373.4,6.9,369.2,2.3z"/>
</g>
<path class="st89" d="M89.8,96.8c-10.1-6.7-16.9-8.2-21.4-7.7c-2.4,2.9-4.2,5.7-5.5,8.5C27.2,179.7,6.5,482.7,6.5,576.2
	c8.8,6.4,17.7,7.6,67.5,9.8c10-134,52-285,52-285s0,1.4-0.1,3.9c2.6-12.1,6.5-5.7,6.9-57.9C133.8,171.6,112.4,112.2,89.8,96.8z"/>
<path class="st90" d="M527,586c49.7-2.2,58.7-3.3,67.5-9.8c0-93.6-20.8-396.5-56.5-478.7c-1.1-2.5-2.7-5.1-4.8-7.6
	c-5.1-0.8-12.8,0.4-23.6,7.6c-22.6,15.4-43,60.5-43.2,148.8c0.4,53.2,5.6,43,8.7,55c0-0.2,0-0.3,0-0.3S517,452,527,586z"/>
<path class="st86" d="M70.4,88.6c0,0,77.1,9.2,55.7,220c-0.4,79.7-1.8,141.7-2.4,184.6c-0.7,46.5-0.8,70.5-0.8,71.6
	c0,3.2-0.6,7.5,0.8,9.2c0.7,1.1,1.7,2.3,3.4,3.5c4.7,3.4,15.3,6.5,27.3,8.8c-14.2-11.6-10.9-42.8-9.8-72.1c1.1-29.4-24-95.4-3-199.4
	c6.8-33.6-5.5-74.9-6-84C131.6,163.1,119.2,97.3,70.4,88.6z"/>
<path class="st86" d="M532.2,89c0,0-79.2,0.7-57.7,211.5c2.1,168.9,3.2,265.3,3.2,264.5c0-2.3,0,2.4,0,6.2c0,1.3-0.7,2.6-0.9,2.9
	c-0.7,1.1-2,2.2-3.6,3.4c-4.7,3.4-13.3,5.9-25.1,8.2c14.2-11.6,11.1-41.8,10-71.2c-1.1-29.4,24-95.4,3-199.4
	c-6.8-33.6,1.5-83.4,2-92.4C467,155.1,485.7,92,532.2,89z"/>
<g>
	<g>
		<g>
			<path class="st91" d="M374.1,166.6c-17.4,0-31.5,14.1-31.5,31.5s14.1,31.5,31.5,31.5s31.5-14.1,31.5-31.5
				S391.5,166.6,374.1,166.6L374.1,166.6z"/>
		</g>
	</g>
	<g>
		<path class="st2" d="M347.4,184.6h4.2v1.5h-2.4v1.4h2.2v1.5h-2.2v2.7h-1.8C347.4,191.7,347.4,184.6,347.4,184.6z"/>
		<path class="st2" d="M357.6,191.6c-0.2,0.1-0.8,0.2-1.6,0.2c-2.5,0-3.5-1.6-3.5-3.5c0-2.6,1.8-3.8,3.7-3.8c0.7,0,1.3,0.1,1.6,0.3
			l-0.4,1.4c-0.3-0.1-0.6-0.2-1.1-0.2c-1,0-1.9,0.6-1.9,2.1c0,1.4,0.7,2.1,1.9,2.1c0.4,0,0.8-0.1,1.1-0.2L357.6,191.6z"/>
		<path class="st2" d="M360.5,189.9c0.4,0.2,1,0.4,1.7,0.4c0.6,0,0.9-0.2,0.9-0.6c0-0.4-0.3-0.6-1.1-0.9c-1.2-0.5-1.8-1.2-1.8-2.1
			c0-1.2,1-2.2,2.7-2.2c0.8,0,1.3,0.1,1.7,0.3l-0.4,1.5c-0.3-0.1-0.8-0.3-1.4-0.3c-0.6,0-0.9,0.2-0.9,0.6c0,0.4,0.3,0.5,1.2,0.9
			c1.2,0.5,1.7,1.2,1.7,2.1c0,1.2-1,2.2-2.9,2.2c-0.8,0-1.5-0.2-1.9-0.4L360.5,189.9z"/>
		<path class="st2" d="M367.1,186.2h-1.6v-1.6h5.1v1.6h-1.7v5.6h-1.8V186.2z"/>
		<path class="st2" d="M371.4,191.8c-0.6,0-1-0.4-1-1.1c0-0.7,0.5-1.1,1.1-1.1c0.6,0,1,0.4,1,1.1C372.5,191.4,372,191.8,371.4,191.8
			L371.4,191.8z"/>
		<path class="st2" d="M375.4,184.7c0.5-0.1,1.2-0.1,2.1-0.1c1,0,1.7,0.1,2.2,0.6c0.5,0.4,0.8,1,0.8,1.7c0,0.8-0.2,1.4-0.7,1.8
			c-0.5,0.5-1.3,0.7-2.2,0.7c-0.1,0-0.3,0-0.4,0v2.4h-1.8V184.7z M377.2,187.8c0.1,0,0.2,0,0.3,0c0.7,0,1.1-0.4,1.1-1
			c0-0.6-0.3-0.9-1-0.9c-0.2,0-0.4,0-0.5,0.1V187.8z"/>
		<path class="st2" d="M382.5,190.1l-0.3,1.6h-1.9l1.9-7.1h2.4l1.9,7.1h-1.9l-0.4-1.6H382.5z M383.9,188.8l-0.3-1.3
			c-0.1-0.4-0.2-1.1-0.3-1.5h0c-0.1,0.4-0.2,1.1-0.3,1.5l-0.3,1.3H383.9z"/>
		<path class="st2" d="M388.8,184.6v4.2c0,1,0.3,1.6,0.9,1.6s1-0.5,1-1.6v-4.2h1.8v4c0,2.1-1,3.2-2.8,3.2s-2.8-1.1-2.8-3.2v-4H388.8
			z"/>
		<path class="st2" d="M393.8,184.6h1.8v5.6h2.4v1.5h-4.2V184.6z"/>
		<path class="st2" d="M400.7,184.6v7.1h-1.8v-7.1H400.7z"/>
	</g>
	<g>
		<path class="st2" d="M367.6,181.6v-6.6c-0.1,0.1-0.2,0.2-0.4,0.3c-0.2,0.1-0.4,0.1-0.6,0.1v-0.9c0.3,0,0.5-0.1,0.8-0.3
			s0.4-0.4,0.5-0.7h1v8.2H367.6z"/>
		<path class="st2" d="M372.9,181.1c-0.3,0.4-0.7,0.6-1.3,0.6c-0.6,0-1-0.1-1.3-0.5c-0.3-0.3-0.4-0.9-0.4-1.6v-0.4h1.2v0.2
			c0,0.5,0,0.9,0.1,1c0.1,0.2,0.2,0.2,0.4,0.2c0.2,0,0.3-0.1,0.4-0.1c0.1-0.1,0.1-0.1,0.1-0.2c0-0.1,0-0.3,0-0.7v-1.2
			c-0.2,0.1-0.4,0.2-0.8,0.2c-0.5,0-0.9-0.2-1.2-0.6c-0.2-0.4-0.4-1-0.4-1.8v-0.3c0-1,0.2-1.7,0.5-2.1c0.3-0.3,0.7-0.4,1.2-0.4
			s0.9,0.1,1.2,0.3c0.2,0.2,0.4,0.5,0.5,0.9c0.1,0.4,0.1,0.8,0.1,1.4v3.2C373.4,180,373.2,180.7,372.9,181.1z M371.6,177.4
			c0.3,0,0.5-0.1,0.5-0.4v-1.6c0-0.4,0-0.7-0.1-0.9c-0.1-0.2-0.2-0.3-0.4-0.3c-0.2,0-0.4,0.1-0.4,0.3c-0.1,0.2-0.1,0.5-0.1,0.9v0.7
			c0,0.5,0,0.8,0.1,1C371.2,177.3,371.4,177.4,371.6,177.4z"/>
		<path class="st2" d="M375.1,181.6v-6.6c-0.1,0.1-0.2,0.2-0.4,0.3c-0.2,0.1-0.4,0.1-0.6,0.1v-0.9c0.3,0,0.5-0.1,0.8-0.3
			s0.4-0.4,0.6-0.7h1v8.2C376.4,181.6,375.1,181.6,375.1,181.6z"/>
		<path class="st2" d="M380.8,181.1c-0.3,0.4-0.8,0.6-1.4,0.6c-0.7,0-1.1-0.2-1.4-0.6c-0.3-0.4-0.4-0.9-0.4-1.7v-3.9
			c0-0.7,0.1-1.2,0.4-1.6c0.3-0.4,0.8-0.6,1.4-0.6s1.1,0.2,1.4,0.6c0.3,0.4,0.4,0.9,0.4,1.6v3.9
			C381.3,180.1,381.1,180.7,380.8,181.1z M379.4,180.6c0.2,0,0.4-0.1,0.5-0.2c0.1-0.1,0.1-0.5,0.1-1v-4c0-0.6-0.1-0.9-0.4-1
			c0,0-0.1,0-0.3,0s-0.2,0.1-0.4,0.2c-0.1,0.1-0.2,0.4-0.2,0.9v4c0,0.5,0,0.8,0.1,1C379.1,180.5,379.2,180.6,379.4,180.6z"/>
	</g>
	<g>
		<rect x="362.6" y="202.1" class="st2" width="7" height="1.5"/>
		<rect x="362.6" y="216.6" class="st2" width="6.2" height="1.5"/>
		<rect x="379.4" y="216.6" class="st2" width="6" height="1.5"/>
		<rect x="362.6" y="209.8" class="st2" width="23" height="1.2"/>
		<rect x="370.6" y="202.1" class="st2" width="7" height="1.5"/>
		<rect x="378.6" y="202.1" class="st2" width="7" height="1.5"/>
		<path class="st2" d="M363.3,223.6v-4.8h5v6.7c0,0-3.8-0.6-5-1.8"/>
		<path class="st2" d="M363.3,215.8v-4.2h8.3c0,0-3,1.4-3,4.2H363.3z"/>
		<path class="st2" d="M384.8,223.6v-4.8h-5.2v6.7c0,0,3.9-0.6,5.1-1.8"/>
		<path class="st2" d="M384.8,215.9v-4.3h-8.5c0,0,3.1,0.8,3.1,4.2L384.8,215.9z"/>
		<rect x="363.4" y="204.1" class="st2" width="5.5" height="5"/>
		<rect x="371.1" y="204.1" class="st2" width="5.2" height="5"/>
		<rect x="379.4" y="204.1" class="st2" width="5.5" height="5"/>
		<path class="st2" d="M369.7,225.9c0,0,0-6.5,0-9.8c0-3.3,3.7-3.8,4.4-3.8s4.2,0.8,4.2,3.8c0,3.1,0,9.8,0,9.8s-2.1,0.7-4.3,0.7
			C372.1,226.5,369.7,225.9,369.7,225.9z"/>
		<path class="st2" d="M371.4,201.3c0,0,0.8-2.2,2.6-2.2c1.8,0,2.5,2.2,2.5,2.2H371.4z"/>
		<rect x="373.1" y="194.6" class="st2" width="1.8" height="6.8"/>
		<rect x="371.9" y="195.8" class="st2" width="4.2" height="1.8"/>
		<polygon class="st2" points="383.1,196.3 385.2,196.4 384.2,198.2 385.2,200 383.1,200.1 382.1,201.8 381,200.1 379,200 
			379.9,198.2 379,196.4 381,196.3 382.1,194.6 		"/>
		<polygon class="st2" points="367,196.3 369,196.4 368,198.2 369,200 367,200.1 365.9,201.8 364.8,200.1 362.8,200 363.8,198.2 
			362.8,196.4 364.8,196.3 365.9,194.6 		"/>
	</g>
</g>
</svg>
