<?xml version="1.0" encoding="utf-8"?>
<!-- Generator: Adobe Illustrator 17.0.0, SVG Export Plug-In . SVG Version: 6.00 Build 0)  -->
<!DOCTYPE svg PUBLIC "-//W3C//DTD SVG 1.1//EN" "http://www.w3.org/Graphics/SVG/1.1/DTD/svg11.dtd" [
	<!ENTITY ns_flows "http://ns.adobe.com/Flows/1.0/">
	<!ENTITY ns_extend "http://ns.adobe.com/Extensibility/1.0/">
	<!ENTITY ns_ai "http://ns.adobe.com/AdobeIllustrator/10.0/">
	<!ENTITY ns_graphs "http://ns.adobe.com/Graphs/1.0/">
]>
<svg version="1.1" id="Layer_1" xmlns:x="&ns_extend;" xmlns:i="&ns_ai;" xmlns:graph="&ns_graphs;"
	 xmlns="http://www.w3.org/2000/svg" xmlns:xlink="http://www.w3.org/1999/xlink" xmlns:a="http://ns.adobe.com/AdobeSVGViewerExtensions/3.0/"
	 x="0px" y="0px" width="600px" height="600px" viewBox="0 0 600 600" style="enable-background:new 0 0 600 600;"
	 xml:space="preserve">
<style type="text/css">
	.st0{fill:#FE0000;stroke:#000000;stroke-miterlimit:10;}
	.st1{fill:#FFFFFF;stroke:#000000;stroke-miterlimit:10;}
	.st2{fill:#FFFFFF;}
	.st3{fill:#7C0014;}
	.st4{fill:#F959FF;stroke:#000000;stroke-miterlimit:10;}
	.st5{fill:#EA24AE;}
	.st6{fill:#0563E1;}
	.st7{fill:#0B0A11;}
	.st8{fill:#004D9B;}
	.st9{fill:#C20000;}
	.st10{fill:#0563E1;stroke:#000000;stroke-miterlimit:10;}
	.st11{fill:url(#SVGID_1_);stroke:#000000;stroke-miterlimit:10;}
	.st12{fill:url(#SVGID_2_);}
	.st13{fill:#8ADAC9;stroke:#000000;stroke-miterlimit:10;}
	.st14{fill:#23495B;stroke:#000000;stroke-miterlimit:10;}
	.st15{fill:#CAC5C0;}
	.st16{fill:#23495B;}
	.st17{fill:#1976C9;stroke:#000000;stroke-miterlimit:10;}
	.st18{fill:#02619F;}
	.st19{fill:#1976C9;}
	.st20{fill:#02619F;stroke:#1976C9;stroke-miterlimit:10;}
	.st21{fill:#77A4CB;stroke:#000000;stroke-miterlimit:10;}
	.st22{stroke:#EDF3F8;stroke-miterlimit:10;}
	.st23{fill:#77A4CB;}
	.st24{fill:#C7CCC4;}
	.st25{fill:#FFFA5B;stroke:#000000;stroke-miterlimit:10;}
	.st26{fill:#1E2A24;}
	.st27{fill:#EBF0F5;stroke:#000000;stroke-miterlimit:10;}
	.st28{fill:url(#SVGID_3_);}
	.st29{fill:url(#SVGID_4_);}
	.st30{fill:#FFB05B;}
	.st31{fill:#4FAFBF;stroke:#000000;stroke-miterlimit:10;}
	.st32{fill:#43DA98;stroke:#000000;stroke-miterlimit:10;}
	.st33{fill:#00B273;}
	.st34{fill:#43DA98;}
	.st35{fill:#00B273;stroke:#000000;stroke-miterlimit:10;}
	.st36{fill:#BC2567;stroke:#FFFFFF;stroke-miterlimit:10;}
	.st37{fill:#8B004D;stroke:#000000;stroke-miterlimit:10;}
	.st38{fill:#5B5B4F;stroke:#000000;stroke-miterlimit:10;}
	.st39{fill:#3A3F40;}
	.st40{fill:#E7C993;}
	.st41{fill:#8B004D;}
	.st42{fill:#5B5B4F;}
	.st43{fill:#F02233;stroke:#000000;stroke-miterlimit:10;}
	.st44{fill:#4E2664;stroke:#000000;stroke-miterlimit:10;}
	.st45{fill:#04829F;}
	.st46{adobe-knockout:true;}
	.st47{fill:none;stroke:#FFFFFF;stroke-width:3;stroke-miterlimit:10;adobe-knockout:false;}
	.st48{fill:#006F8C;}
	.st49{fill:#F32CBB;stroke:#000000;stroke-miterlimit:10;}
	.st50{fill:#C000AD;stroke:#000000;stroke-miterlimit:10;}
	.st51{fill:#6BBA4F;}
	.st52{fill:#03850D;}
	.st53{fill:#97C0DA;stroke:#000000;stroke-miterlimit:10;}
	.st54{fill:#83A5CB;}
	.st55{fill:#0453BC;}
	.st56{fill:#A79F96;}
	.st57{fill:#0CD3CA;stroke:#000000;stroke-miterlimit:10;}
	.st58{fill:#299AB8;}
	.st59{fill:#299AB8;stroke:#000000;stroke-miterlimit:10;}
	.st60{fill:#C000AD;}
	.st61{fill:#0099C7;}
	.st62{fill:#6E4D7F;stroke:#000000;stroke-miterlimit:10;}
	.st63{fill:#04829F;stroke:#000000;stroke-miterlimit:10;}
	.st64{fill:none;stroke:#EA24AE;stroke-width:8;stroke-miterlimit:10;}
	.st65{fill:#F959FF;}
	.st66{fill:#06A600;stroke:#000000;stroke-miterlimit:10;}
	.st67{fill:none;stroke:#15DB51;stroke-width:8;stroke-miterlimit:10;}
	.st68{fill:#06A600;}
	.st69{fill:#15DB51;stroke:#000000;stroke-miterlimit:10;}
	.st70{fill:#069400;}
	.st71{fill:#0066B3;}
	.st72{fill:#003644;}
	.st73{fill:#567481;}
	.st74{fill:none;stroke:#FFFFFF;stroke-width:3;stroke-miterlimit:10;}
	.st75{fill:url(#SVGID_5_);stroke:#FFFFFF;stroke-miterlimit:10;}
	.st76{fill:#B05040;}
	.st77{fill:#5C2633;}
	.st78{fill:none;stroke:#A7747F;stroke-width:3;stroke-miterlimit:10;}
	.st79{fill:#46A0BE;}
	.st80{fill:#005FA5;}
	.st81{fill:#FE9C14;}
	.st82{fill:#FED539;}
	.st83{fill:#3AC919;stroke:#000000;stroke-miterlimit:10;}
	.st84{fill:#2A9F02;}
	.st85{fill:#3AC919;}
	.st86{fill:#2A9F02;stroke:#000000;stroke-miterlimit:10;}
	.st87{fill:#FE144C;}
	.st88{fill:#FE5F39;}
	.st89{fill:#E91B00;}
	.st90{fill:#FE0000;}
	.st91{fill:#0005A4;stroke:#000000;stroke-miterlimit:10;}
	.st92{fill:#000578;}
	.st93{fill:#004FA4;}
	.st94{fill:#0005A4;stroke:#FFFFFF;stroke-miterlimit:10;}
	.st95{fill:#FFE60B;stroke:#000000;stroke-width:1.5;stroke-miterlimit:10;}
	.st96{fill:#ED1C24;}
	.st97{fill:#FFEE34;}
	.st98{fill:#FF4A49;}
	.st99{fill:none;stroke:#000000;stroke-miterlimit:10;}
	.st100{fill:#F97F7A;}
	.st101{fill:#6E4D7F;}
	.st102{fill:#CA0014;}
	.st103{fill:#382351;}
	.st104{fill:#01A663;}
	.st105{fill:#8ABE23;}
	.st106{fill:#1D1D1B;}
	.st107{fill:#FEFEFE;}
</style>
<path class="st1" d="M6.1,342.8C40.7,232.2,21.2,187.2,67.7,94.2c10.5-21,71.9-57.8,135.8-73.2c0,0,109.7-25.5,180.5-3.5
	s140.3,53.3,151.9,80c35.7,82.1,31.2,191.6,59.7,243.7c-12.5,1.2-81.3,14.4-109.3,19.7c-2.4-7.3-13.4-60-13.4-60s3.2,248,3.2,270
	c-0.2,19-92.8,24-180.8,24s-167.5-10-167.5-26.9c0-16.8,1.1-262.1,1.1-262.1s-3.3,23.3-8.3,56.1C91.3,361.9,16.4,344,6.1,342.8z"/>
<g>
	<g>
		<path class="st15" d="M231.5,28.7C244.3,46,266,62.5,302.1,62.5c36.2,0,56.3-16.8,67.4-34.5C339.2,31.1,263.9,30.8,231.5,28.7z"/>
		<path class="st10" d="M372.1,1c-17.6,5.3-142.2,2.9-148.6,0.6c-0.1,0.3-0.3,0.7-0.5,1.1c2.2,7.1,6.3,17.5,13.7,27.5
			c29.5,1.9,97.9,2.2,125.6-0.6c6.2-9.9,9.4-20.2,10.9-27.3C372.8,1.8,372.4,1.4,372.1,1z"/>
	</g>
	<path class="st10" d="M373.2,2.3c-4.1,18.7-19,58.7-72.2,58.7c-53.9,0-72.4-40.1-78-58.3c-2.9,5.3-15.1,16-15.1,16
		s15.6,61.7,91.1,61.7c76.5,0,86.6-58.7,87.7-63.1C384.6,16.4,377.4,6.9,373.2,2.3z"/>
</g>
<g>
	<polygon class="st7" points="132.3,220.2 132.4,184 466.8,184 467,220 	"/>
</g>
<g>
	<polygon class="st6" points="136,255.2 132.4,219 466.8,219 467,255 	"/>
</g>
<path class="st15" d="M73.8,85.9c0,0,77.1,9.2,55.7,220c-0.9,166-1.1,253.8-1.1,255.9c0,3.2-0.6,7.5,0.8,9.2
	c0.7,1.1,1.7,2.3,3.4,3.5c4.7,3.4,13.4,6.6,25.2,9.1c-14.2-11.6-10.9-42.8-9.8-72.1c1.1-29.4-24-95.4-3-199.4
	c6.8-33.6-5.5-74.9-6-84C135,160.4,122.6,94.6,73.8,85.9z"/>
<path class="st15" d="M530.2,89c0,0-79.2,0.7-57.7,211.5c2.1,168.9,3.2,265.3,3.2,264.5c0-2.3,0,2.4,0,6.2c0,1.3-0.7,2.6-0.9,2.9
	c-0.7,1.1-2,2.2-3.6,3.4c-4.7,3.4-13.3,5.9-25.1,8.2c14.2-11.6,11.1-41.8,10-71.2c-1.1-29.4,24-95.4,3-199.4
	c-6.8-33.6,1.5-83.4,2-92.4C465,155.1,483.7,92,530.2,89z"/>
<g>
	<g>
		<g>
			<path class="st89" d="M374.1,189c-17.4,0-31.5,14.1-31.5,31.5s14.1,31.5,31.5,31.5s31.5-14.1,31.5-31.5S391.5,189,374.1,189
				L374.1,189z"/>
		</g>
	</g>
	<g>
		<path class="st2" d="M347.4,207h4.2v1.5h-2.4v1.4h2.2v1.5h-2.2v2.7h-1.8C347.4,214.1,347.4,207,347.4,207z"/>
		<path class="st2" d="M357.6,214c-0.2,0.1-0.8,0.2-1.6,0.2c-2.5,0-3.5-1.6-3.5-3.5c0-2.6,1.8-3.8,3.7-3.8c0.7,0,1.3,0.1,1.6,0.3
			l-0.4,1.4c-0.3-0.1-0.6-0.2-1.1-0.2c-1,0-1.9,0.6-1.9,2.1c0,1.4,0.7,2.1,1.9,2.1c0.4,0,0.8-0.1,1.1-0.2L357.6,214z"/>
		<path class="st2" d="M360.5,212.3c0.4,0.2,1,0.4,1.7,0.4c0.6,0,0.9-0.2,0.9-0.6c0-0.4-0.3-0.6-1.1-0.9c-1.2-0.5-1.8-1.2-1.8-2.1
			c0-1.2,1-2.2,2.7-2.2c0.8,0,1.3,0.1,1.7,0.3l-0.4,1.5c-0.3-0.1-0.8-0.3-1.4-0.3c-0.6,0-0.9,0.2-0.9,0.6c0,0.4,0.3,0.5,1.2,0.9
			c1.2,0.5,1.7,1.2,1.7,2.1c0,1.2-1,2.2-2.9,2.2c-0.8,0-1.5-0.2-1.9-0.4L360.5,212.3z"/>
		<path class="st2" d="M367.1,208.6h-1.6V207h5.1v1.6h-1.7v5.6h-1.8V208.6z"/>
		<path class="st2" d="M371.4,214.2c-0.6,0-1-0.4-1-1.1c0-0.7,0.5-1.1,1.1-1.1c0.6,0,1,0.4,1,1.1C372.5,213.8,372,214.2,371.4,214.2
			L371.4,214.2z"/>
		<path class="st2" d="M375.4,207.1c0.5-0.1,1.2-0.1,2.1-0.1c1,0,1.7,0.1,2.2,0.6c0.5,0.4,0.8,1,0.8,1.7c0,0.8-0.2,1.4-0.7,1.8
			c-0.5,0.5-1.3,0.7-2.2,0.7c-0.1,0-0.3,0-0.4,0v2.4h-1.8V207.1z M377.2,210.2c0.1,0,0.2,0,0.3,0c0.7,0,1.1-0.4,1.1-1
			c0-0.6-0.3-0.9-1-0.9c-0.2,0-0.4,0-0.5,0.1V210.2z"/>
		<path class="st2" d="M382.5,212.5l-0.3,1.6h-1.9l1.9-7.1h2.4l1.9,7.1h-1.9l-0.4-1.6H382.5z M383.9,211.2l-0.3-1.3
			c-0.1-0.4-0.2-1.1-0.3-1.5h0c-0.1,0.4-0.2,1.1-0.3,1.5l-0.3,1.3H383.9z"/>
		<path class="st2" d="M388.8,207v4.2c0,1,0.3,1.6,0.9,1.6s1-0.5,1-1.6V207h1.8v4c0,2.1-1,3.2-2.8,3.2s-2.8-1.1-2.8-3.2v-4H388.8z"
			/>
		<path class="st2" d="M393.8,207h1.8v5.6h2.4v1.5h-4.2V207z"/>
		<path class="st2" d="M400.7,207v7.1h-1.8V207H400.7z"/>
	</g>
	<g>
		<path class="st2" d="M367.6,203.9v-6.6c-0.1,0.1-0.2,0.2-0.4,0.3c-0.2,0.1-0.4,0.1-0.6,0.1v-0.9c0.3,0,0.5-0.1,0.8-0.3
			s0.4-0.4,0.5-0.7h1v8.2H367.6z"/>
		<path class="st2" d="M372.9,203.5c-0.3,0.4-0.7,0.6-1.3,0.6c-0.6,0-1-0.1-1.3-0.5c-0.3-0.3-0.4-0.8-0.4-1.6v-0.4h1.2v0.2
			c0,0.5,0,0.9,0.1,1c0.1,0.2,0.2,0.2,0.4,0.2c0.2,0,0.3-0.1,0.4-0.1c0.1-0.1,0.1-0.1,0.1-0.2c0-0.1,0-0.3,0-0.7v-1.2
			c-0.2,0.1-0.4,0.2-0.8,0.2c-0.5,0-0.9-0.2-1.2-0.6c-0.2-0.4-0.4-1-0.4-1.8v-0.3c0-1,0.2-1.7,0.5-2.1c0.3-0.3,0.7-0.4,1.2-0.4
			s0.9,0.1,1.2,0.3c0.2,0.2,0.4,0.5,0.5,0.9c0.1,0.4,0.1,0.8,0.1,1.4v3.2C373.4,202.4,373.2,203.1,372.9,203.5z M371.6,199.8
			c0.3,0,0.5-0.1,0.5-0.4v-1.6c0-0.4,0-0.7-0.1-0.9c-0.1-0.2-0.2-0.3-0.4-0.3c-0.2,0-0.4,0.1-0.4,0.3c-0.1,0.2-0.1,0.5-0.1,0.9v0.7
			c0,0.5,0,0.8,0.1,1C371.2,199.7,371.4,199.8,371.6,199.8z"/>
		<path class="st2" d="M375.1,203.9v-6.6c-0.1,0.1-0.2,0.2-0.4,0.3c-0.2,0.1-0.4,0.1-0.6,0.1v-0.9c0.3,0,0.5-0.1,0.8-0.3
			s0.4-0.4,0.6-0.7h1v8.2C376.4,203.9,375.1,203.9,375.1,203.9z"/>
		<path class="st2" d="M380.8,203.5c-0.3,0.4-0.8,0.6-1.4,0.6c-0.7,0-1.1-0.2-1.4-0.6c-0.3-0.4-0.4-0.9-0.4-1.7v-3.9
			c0-0.7,0.1-1.2,0.4-1.6c0.3-0.4,0.8-0.6,1.4-0.6s1.1,0.2,1.4,0.6c0.3,0.4,0.4,0.9,0.4,1.6v3.9
			C381.3,202.5,381.1,203.1,380.8,203.5z M379.4,203c0.2,0,0.4-0.1,0.5-0.2c0.1-0.1,0.1-0.5,0.1-1v-4c0-0.6-0.1-0.9-0.4-1
			c0,0-0.1,0-0.3,0s-0.2,0.1-0.4,0.2c-0.1,0.1-0.2,0.4-0.2,0.9v4c0,0.5,0,0.8,0.1,1C379.1,202.9,379.2,203,379.4,203z"/>
	</g>
	<g>
		<rect x="362.6" y="224.5" class="st2" width="7" height="1.5"/>
		<rect x="362.6" y="239" class="st2" width="6.2" height="1.5"/>
		<rect x="379.4" y="239" class="st2" width="6" height="1.5"/>
		<rect x="362.6" y="232.2" class="st2" width="23" height="1.2"/>
		<rect x="370.6" y="224.5" class="st2" width="7" height="1.5"/>
		<rect x="378.6" y="224.5" class="st2" width="7" height="1.5"/>
		<path class="st2" d="M363.3,246v-4.8h5v6.7c0,0-3.8-0.6-5-1.8"/>
		<path class="st2" d="M363.3,238.2V234h8.3c0,0-3,1.4-3,4.2H363.3z"/>
		<path class="st2" d="M384.8,246v-4.8h-5.2v6.7c0,0,3.9-0.6,5.1-1.8"/>
		<path class="st2" d="M384.8,238.3V234h-8.5c0,0,3.1,0.8,3.1,4.2L384.8,238.3z"/>
		<rect x="363.4" y="226.5" class="st2" width="5.5" height="5"/>
		<rect x="371.1" y="226.5" class="st2" width="5.2" height="5"/>
		<rect x="379.4" y="226.5" class="st2" width="5.5" height="5"/>
		<path class="st2" d="M369.7,248.3c0,0,0-6.5,0-9.8c0-3.3,3.7-3.8,4.4-3.8s4.2,0.8,4.2,3.8s0,9.8,0,9.8s-2.1,0.7-4.3,0.7
			C372.1,248.9,369.7,248.3,369.7,248.3z"/>
		<path class="st2" d="M371.4,223.7c0,0,0.8-2.2,2.6-2.2c1.8,0,2.5,2.2,2.5,2.2H371.4z"/>
		<rect x="373.1" y="217" class="st2" width="1.8" height="6.8"/>
		<rect x="371.9" y="218.2" class="st2" width="4.2" height="1.8"/>
		<polygon class="st2" points="383.1,218.7 385.2,218.8 384.2,220.6 385.2,222.4 383.1,222.5 382.1,224.2 381,222.5 379,222.4 
			379.9,220.6 379,218.8 381,218.7 382.1,217 		"/>
		<polygon class="st2" points="367,218.7 369,218.8 368,220.6 369,222.4 367,222.5 365.9,224.2 364.8,222.5 362.8,222.4 
			363.8,220.6 362.8,218.8 364.8,218.7 365.9,217 		"/>
	</g>
</g>
</svg>
