<?xml version="1.0" encoding="utf-8"?>
<!-- Generator: Adobe Illustrator 17.0.0, SVG Export Plug-In . SVG Version: 6.00 Build 0)  -->
<!DOCTYPE svg PUBLIC "-//W3C//DTD SVG 1.1//EN" "http://www.w3.org/Graphics/SVG/1.1/DTD/svg11.dtd" [
	<!ENTITY ns_flows "http://ns.adobe.com/Flows/1.0/">
	<!ENTITY ns_extend "http://ns.adobe.com/Extensibility/1.0/">
	<!ENTITY ns_ai "http://ns.adobe.com/AdobeIllustrator/10.0/">
	<!ENTITY ns_graphs "http://ns.adobe.com/Graphs/1.0/">
]>
<svg version="1.1" id="Layer_1" xmlns:x="&ns_extend;" xmlns:i="&ns_ai;" xmlns:graph="&ns_graphs;"
	 xmlns="http://www.w3.org/2000/svg" xmlns:xlink="http://www.w3.org/1999/xlink" xmlns:a="http://ns.adobe.com/AdobeSVGViewerExtensions/3.0/"
	 x="0px" y="0px" width="600px" height="600px" viewBox="0 0 600 600" style="enable-background:new 0 0 600 600;"
	 xml:space="preserve">
<style type="text/css">
	.st0{fill:#FE0000;stroke:#000000;stroke-miterlimit:10;}
	.st1{fill:#FFFFFF;stroke:#000000;stroke-miterlimit:10;}
	.st2{fill:#FFFFFF;}
	.st3{fill:#7C0014;}
	.st4{fill:#F959FF;stroke:#000000;stroke-miterlimit:10;}
	.st5{fill:#EA24AE;}
	.st6{fill:#0563E1;}
	.st7{fill:#0B0A11;}
	.st8{fill:#004D9B;}
	.st9{fill:#C20000;}
	.st10{fill:#0563E1;stroke:#000000;stroke-miterlimit:10;}
	.st11{fill:url(#SVGID_1_);stroke:#000000;stroke-miterlimit:10;}
	.st12{fill:url(#SVGID_2_);}
	.st13{fill:#8ADAC9;stroke:#000000;stroke-miterlimit:10;}
	.st14{fill:#23495B;stroke:#000000;stroke-miterlimit:10;}
	.st15{fill:#CAC5C0;}
	.st16{fill:#23495B;}
	.st17{fill:#1976C9;stroke:#000000;stroke-miterlimit:10;}
	.st18{fill:#02619F;}
	.st19{fill:#1976C9;}
	.st20{fill:#02619F;stroke:#1976C9;stroke-miterlimit:10;}
	.st21{fill:#77A4CB;stroke:#000000;stroke-miterlimit:10;}
	.st22{stroke:#EDF3F8;stroke-miterlimit:10;}
	.st23{fill:#77A4CB;}
	.st24{fill:#C7CCC4;}
	.st25{fill:#FFFA5B;stroke:#000000;stroke-miterlimit:10;}
	.st26{fill:#1E2A24;}
	.st27{fill:#EBF0F5;stroke:#000000;stroke-miterlimit:10;}
	.st28{fill:url(#SVGID_3_);}
	.st29{fill:url(#SVGID_4_);}
	.st30{fill:#FFB05B;}
	.st31{fill:#4FAFBF;stroke:#000000;stroke-miterlimit:10;}
	.st32{fill:#43DA98;stroke:#000000;stroke-miterlimit:10;}
	.st33{fill:#00B273;}
	.st34{fill:#43DA98;}
	.st35{fill:#00B273;stroke:#000000;stroke-miterlimit:10;}
	.st36{fill:#BC2567;stroke:#FFFFFF;stroke-miterlimit:10;}
	.st37{fill:#8B004D;stroke:#000000;stroke-miterlimit:10;}
	.st38{fill:#5B5B4F;stroke:#000000;stroke-miterlimit:10;}
	.st39{fill:#3A3F40;}
	.st40{fill:#E7C993;}
	.st41{fill:#8B004D;}
	.st42{fill:#5B5B4F;}
	.st43{fill:#F02233;stroke:#000000;stroke-miterlimit:10;}
	.st44{fill:#4E2664;stroke:#000000;stroke-miterlimit:10;}
	.st45{fill:#04829F;}
	.st46{adobe-knockout:true;}
	.st47{fill:none;stroke:#FFFFFF;stroke-width:3;stroke-miterlimit:10;adobe-knockout:false;}
	.st48{fill:#006F8C;}
	.st49{fill:#F32CBB;stroke:#000000;stroke-miterlimit:10;}
	.st50{fill:#C000AD;stroke:#000000;stroke-miterlimit:10;}
	.st51{fill:#6BBA4F;}
	.st52{fill:#03850D;}
	.st53{fill:#97C0DA;stroke:#000000;stroke-miterlimit:10;}
	.st54{fill:#83A5CB;}
	.st55{fill:#0453BC;}
	.st56{fill:#A79F96;}
	.st57{fill:#0CD3CA;stroke:#000000;stroke-miterlimit:10;}
	.st58{fill:#299AB8;}
	.st59{fill:#299AB8;stroke:#000000;stroke-miterlimit:10;}
	.st60{fill:#C000AD;}
	.st61{fill:#0099C7;}
	.st62{fill:#6E4D7F;stroke:#000000;stroke-miterlimit:10;}
	.st63{fill:#04829F;stroke:#000000;stroke-miterlimit:10;}
	.st64{fill:none;stroke:#EA24AE;stroke-width:8;stroke-miterlimit:10;}
	.st65{fill:#F959FF;}
	.st66{fill:#06A600;stroke:#000000;stroke-miterlimit:10;}
	.st67{fill:none;stroke:#15DB51;stroke-width:8;stroke-miterlimit:10;}
	.st68{fill:#06A600;}
	.st69{fill:#15DB51;stroke:#000000;stroke-miterlimit:10;}
	.st70{fill:#069400;}
	.st71{fill:#0066B3;}
	.st72{fill:#003644;}
	.st73{fill:#567481;}
	.st74{fill:none;stroke:#FFFFFF;stroke-width:3;stroke-miterlimit:10;}
	.st75{fill:url(#SVGID_5_);stroke:#FFFFFF;stroke-miterlimit:10;}
	.st76{fill:#B05040;}
	.st77{fill:#5C2633;}
	.st78{fill:none;stroke:#A7747F;stroke-width:3;stroke-miterlimit:10;}
	.st79{fill:#46A0BE;}
	.st80{fill:#005FA5;}
	.st81{fill:#FE9C14;}
	.st82{fill:#FED539;}
	.st83{fill:#3AC919;stroke:#000000;stroke-miterlimit:10;}
	.st84{fill:#2A9F02;}
	.st85{fill:#3AC919;}
	.st86{fill:#2A9F02;stroke:#000000;stroke-miterlimit:10;}
	.st87{fill:#FE144C;}
	.st88{fill:#FE5F39;}
	.st89{fill:#E91B00;}
	.st90{fill:#FE0000;}
	.st91{fill:#0005A4;stroke:#000000;stroke-miterlimit:10;}
	.st92{fill:#000578;}
	.st93{fill:#004FA4;}
	.st94{fill:#0005A4;stroke:#FFFFFF;stroke-miterlimit:10;}
	.st95{fill:#FFE60B;stroke:#000000;stroke-width:1.5;stroke-miterlimit:10;}
	.st96{fill:#ED1C24;}
	.st97{fill:#FFEE34;}
	.st98{fill:#FF4A49;}
	.st99{fill:none;stroke:#000000;stroke-miterlimit:10;}
	.st100{fill:#F97F7A;}
	.st101{fill:#6E4D7F;}
	.st102{fill:#CA0014;}
	.st103{fill:#382351;}
	.st104{fill:#01A663;}
	.st105{fill:#8ABE23;}
	.st106{fill:#1D1D1B;}
	.st107{fill:#FEFEFE;}
</style>
<path class="st0" d="M6.1,342.8C40.7,232.2,21.2,187.2,67.7,94.2c10.5-21,71.9-57.8,135.8-73.2c0,0,109.7-25.5,180.5-3.5
	s140.3,53.3,151.9,80c35.7,82.1,31.2,191.6,59.7,243.7c-12.5,1.2-81.3,14.4-109.3,19.7c-2.4-7.3-13.4-60-13.4-60s3.2,248,3.2,270
	c-0.2,19-92.8,24-180.8,24s-167.5-10-167.5-26.9c0-16.8,1.1-262.1,1.1-262.1s-3.3,23.3-8.3,56.1C91.3,361.9,16.4,344,6.1,342.8z"/>
<g>
	<g>
		<path class="st2" d="M234.5,28.7C247.3,46,269,62.5,305.1,62.5c36.2,0,56.3-16.8,67.4-34.5C342.2,31.1,266.9,30.8,234.5,28.7z"/>
		<path class="st3" d="M375.1,1c-17.6,5.3-142.2,2.9-148.6,0.6c-0.1,0.3-0.3,0.7-0.5,1.1c2.2,7.1,6.3,17.5,13.7,27.5
			c29.5,1.9,97.9,2.2,125.6-0.6c6.2-9.9,9.4-20.2,10.9-27.3C375.8,1.8,375.4,1.4,375.1,1z"/>
	</g>
	<path class="st3" d="M376.2,2.3c-4.1,18.7-19,58.7-72.2,58.7c-53.9,0-72.4-40.1-78-58.3c-2.9,5.3-15.1,16-15.1,16
		s15.6,61.7,91.1,61.7c76.5,0,86.6-58.7,87.7-63.1C387.6,16.4,380.4,6.9,376.2,2.3z"/>
</g>
<g>
	<g>
		<path class="st2" d="M234.5,28.7C247.3,46,269,62.5,305.1,62.5c36.2,0,56.3-16.8,67.4-34.5C342.2,31.1,266.9,30.8,234.5,28.7z"/>
		<path class="st3" d="M375.1,1c-17.6,5.3-142.2,2.9-148.6,0.6c-0.1,0.3-0.3,0.7-0.5,1.1c2.2,7.1,6.3,17.5,13.7,27.5
			c29.5,1.9,97.9,2.2,125.6-0.6c6.2-9.9,9.4-20.2,10.9-27.3C375.8,1.8,375.4,1.4,375.1,1z"/>
	</g>
	<path class="st3" d="M376.2,2.3c-4.1,18.7-19,58.7-72.2,58.7c-53.9,0-72.4-40.1-78-58.3c-2.9,5.3-15.1,16-15.1,16
		s15.6,61.7,91.1,61.7c76.5,0,86.6-58.7,87.7-63.1C387.6,16.4,380.4,6.9,376.2,2.3z"/>
</g>
<polygon class="st2" points="467,220 466.8,184 132.4,184 132.3,220 132.5,220 136,255.1 467,255 466.8,220 "/>
<g>
	<g>
		<path class="st9" d="M234.5,28.7C247.3,46,269,62.5,305.1,62.5c36.2,0,56.3-16.8,67.4-34.5C342.2,31.1,266.9,30.8,234.5,28.7z"/>
		<path class="st0" d="M375.1,1c-17.6,5.3-142.2,2.9-148.6,0.6c-0.1,0.3-0.3,0.7-0.5,1.1c2.2,7.1,6.3,17.5,13.7,27.5
			c29.5,1.9,97.9,2.2,125.6-0.6c6.2-9.9,9.4-20.2,10.9-27.3C375.8,1.8,375.4,1.4,375.1,1z"/>
	</g>
	<path class="st0" d="M376.2,2.3c-4.1,18.7-19,58.7-72.2,58.7c-53.9,0-72.4-40.1-78-58.3c-2.9,5.3-15.1,16-15.1,16
		s15.6,61.7,91.1,61.7c76.5,0,86.6-58.7,87.7-63.1C387.6,16.4,380.4,6.9,376.2,2.3z"/>
</g>
<path class="st9" d="M73.8,85.9c0,0,77.1,9.2,55.7,220c-0.9,166-1.1,253.8-1.1,255.9c0,3.2-0.6,7.5,0.8,9.2c0.7,1.1,1.7,2.3,3.4,3.5
	c4.7,3.4,13.4,6.6,25.2,9.1c-14.2-11.6-10.9-42.8-9.8-72.1c1.1-29.4-24-95.4-3-199.4c6.8-33.6-5.5-74.9-6-84
	C135,160.4,122.6,94.6,73.8,85.9z"/>
<path class="st9" d="M530.2,89c0,0-79.2,0.7-57.7,211.5c2.1,168.9,3.2,265.3,3.2,264.5c0-2.3,0,2.4,0,6.2c0,1.3-0.7,2.6-0.9,2.9
	c-0.7,1.1-2,2.2-3.6,3.4c-4.7,3.4-13.3,5.9-25.1,8.2c14.2-11.6,11.1-41.8,10-71.2c-1.1-29.4,24-95.4,3-199.4
	c-6.8-33.6,1.5-83.4,2-92.4C465,155.1,483.7,92,530.2,89z"/>
<g>
	<g>
		<g>
			<path class="st2" d="M301.6,251.1c-12.5,0-21.4-3.6-26.4-10.6c-3.7-5.2-3.8-10.6-3.8-10.7v-37.4h60.5v37.4
				c0,0.1-0.1,5.4-3.8,10.7C323.1,247.5,314.2,251.1,301.6,251.1z"/>
		</g>
	</g>
	<g>
		<path class="st95" d="M274,238.5c0.4,0.6,0.8,1.3,1.2,1.9c5,7.1,13.9,10.6,26.4,10.6c12.6,0,21.5-3.6,26.5-10.6
			c0.5-0.7,0.9-1.4,1.3-2.1l-27.6-27.6L274,238.5z"/>
	</g>
	<path d="M330.2,194.1v35.6c0,0.2-0.1,5.1-3.6,9.8c-2,2.8-4.8,5-8.2,6.6c-4.5,2.1-10.1,3.2-16.8,3.2c-6.6,0-12.2-1.1-16.7-3.2
		c-3.4-1.6-6.1-3.8-8.1-6.6c-3.4-4.7-3.6-9.6-3.6-9.9v-35.6H330.2 M333.7,190.6h-64v39.2c0,0,0.1,23.1,31.9,23.1
		c32.1,0,32.1-23.1,32.1-23.1V190.6L333.7,190.6z"/>
	<path class="st96" d="M289.1,219.4c1.2-3.9,2.4-7.6,3.6-11.2c1.1-3.4,2.2-6.9,3.3-10.4c0.2-0.6,0.5-0.8,1.1-0.6
		c1,0.3,1.9,0.6,2.9,0.9c0.5,0.1,0.7,0.4,0.5,0.9c-0.3,0.8-0.6,1.6-0.9,2.5c-0.1,0.5-0.4,0.6-0.9,0.4c-2-0.8-2-0.8-2.6,1.2
		c-2.4,7.2-4.7,14.5-7.1,21.8c-0.2,0.6-0.5,0.9-1.2,0.9c-2.9-0.1-2.1,0.6-3.2-2.3c-0.9-2.5-1.8-5-2.7-7.5c-0.1-0.5-0.4-0.7-0.8-0.9
		c-0.7-0.2-1.4-0.5-2.1-0.7c-0.6-0.2-0.7-0.5-0.4-1c0.1-0.1,0.1-0.1,0.1-0.2c1.4-1.4,1.2-3,0.5-4.7c-1-2.3-1.8-4.6-2.6-7
		c-0.2-0.6-0.5-0.9-1.1-0.4c-0.6,0.4-0.8-0.1-1-0.5c-0.3-0.5,0-0.7,0.4-0.9c1.6-0.9,3.2-1.7,4.8-2.6c0.7-0.4,1-0.3,1.3,0.5
		c2.6,6.9,5.2,13.9,7.8,20.8C288.8,218.7,288.9,218.9,289.1,219.4z"/>
	<path class="st96" d="M313.9,210.4c0,3.8,0,7.5,0,11.3c0,1.2-0.2,1.4-1.4,1.1c-1.3-0.4-2.6-0.6-3.9-0.1c-1.2,0.4-2,1.1-2.1,2.4
		c-0.1,1.3,0.4,2.3,1.5,2.9c1.9,1.1,3.8,0.9,5.6-0.1c0.8-0.4,1-0.2,1.4,0.4c0.4,0.7-0.1,0.9-0.5,1.1c-2.4,1.2-4.8,1.2-7.2,0.1
		c-1.7-0.8-2.8-2.1-2.9-4.1c-0.1-2.2,0.5-4.3,2.6-5.4c1.4-0.7,1.7-1.6,1.7-3.1c0-1.2,0-2.2,0-3.4c0-0.8-0.1-1.3-0.8-1.7
		c-0.5-0.3-0.9-0.8-1.4-1.1c-1.1-0.9-1.2-1.1-0.1-1.9c2-1.4,2.6-3.2,2.3-5.5c-0.1-0.7-0.1-1.4,0-2.2c0-0.6-0.2-0.9-0.7-1.3
		c-1-0.8-1.6-0.2-2.4,0.3c-0.4,0.3-0.7,0.7-1.2,0.1c-0.5-0.6-0.6-0.9,0.1-1.3c1.5-1,2.9-2.1,4.4-3.2c0.3-0.3,0.6-0.3,1-0.1
		c1,0.6,2.1,1.1,3.1,1.6c0.8,0.4,1.1,0.9,1.1,1.8C313.9,202.9,314,206.6,313.9,210.4L313.9,210.4z"/>
	<path class="st96" d="M320.5,205.6c1.7,0.8,3.2,1.5,4.5,2.7c1.5,1.4,2.4,3.2,2.4,5.3c0.1,1.9,0,3.7,0.1,5.6c0,0.6-0.3,0.8-0.8,0.9
		c-3.3,1.1-6.5,2.4-9,4.9c-0.3,0.3-0.6,0.4-0.9,0c0,0-0.1-0.1-0.1-0.1c-1.2-1.2-1.5-1.9-1.5-3.4c0-0.4,0-0.8,0-1.2
		c0-1.8,0.1-2.1,1.5-1.1c0.4,0.3,0.5,0.4,0.9,0.7c1.5,1.3,3.2,0.5,4.6-0.4c0.2-0.2,0.5-0.3,0.5-0.6c0-1.7,0.1-3.4-0.2-5
		c-0.4-1.6-1.4-2.7-2.8-3.5c-1.1-0.7-2.4-1.3-3.6-1.8c-1.2-0.4-1.2-0.7-0.2-1.5c1.7-1.4,3.4-2.7,5.3-3.9c0.6-0.4,0.6-0.6,0.1-1.1
		c-1.2-1-2.4-2-3.5-3c-0.4-0.4-0.7-0.4-1.1-0.1c-0.5,0.3-1,0.2-1.4-0.3c-0.3-0.5-0.1-0.9,0.4-1.2c1.3-0.9,2.6-1.7,3.9-2.6
		c0.4-0.2,0.6-0.1,0.9,0.1c2.1,1.9,4.2,3.8,6.4,5.7c0.5,0.4,0.4,0.7-0.1,1C324.6,202.9,322.6,204.2,320.5,205.6z"/>
	<path class="st96" d="M304.3,209.2c-0.2,0.3-2.3,0.5-2.5,0.3c-0.1-0.2-0.2-3.4,0-3.6c0.8-0.7,3.4,0.4,4-0.1c0.2-0.2-1.5-2.7-2-2.7
		c-0.5,0-1.9,1.5-2.1,1.5s-0.2-0.7-0.7-1.2c-0.5-0.5-1-0.8-1.3-0.8c-0.3,0-2.9,1.9-2.9,2.1c0,0.2,0.3,0.2,0.3,0.2
		c1.2,0.6,1.8,1.2,1.8,2.4c0,0.7,0.2,2,0,2.1s-1.1-0.1-1.1-0.1s0.5,1,0.6,1.2c0.1,0.1,0.4-0.2,0.5,0c0.1,0.1,0,4.7,0,7
		c0,0.2,0,0.3,0,0.7v0.3c0,1.1,0.3,2.1-0.1,2.7c-0.6,1.1-2.5,2.4-2.4,2.8c0.1,0.5,2.1,1.9,2.5,1.9c0.4,0,0.8-0.6,1.1-0.9
		c1.5-0.9,1.9-2.1,1.8-3.9c-0.1-3.6-0.4-10.5-0.1-10.7c0.2-0.2,1.4,0.2,1.8,0C304,210.2,304.9,209.1,304.3,209.2z"/>
	<g>
		<path d="M285.7,244.7v-10.4c-0.2,0.2-0.4,0.4-0.7,0.5c-0.3,0.1-0.6,0.2-0.9,0.2v-1.5c0.4-0.1,0.8-0.2,1.2-0.5s0.6-0.6,0.8-1.1h1.5
			v12.9L285.7,244.7L285.7,244.7z"/>
		<path d="M297.4,244.1c-0.4,0.6-1.1,0.8-2.1,0.8c-1,0-1.7-0.3-2.1-0.8c-0.5-0.6-0.7-1.4-0.7-2.5c0,0,0-0.4,0-1
			c0-0.6,0.1-1.2,0.3-1.8c0.2-0.5,0.5-0.9,0.8-1.1c-0.7-0.5-1-1.4-1-2.8c0-1.1,0.2-2,0.7-2.5c0.4-0.5,1.1-0.8,2.1-0.8
			c1,0,1.7,0.2,2.1,0.8c0.4,0.5,0.6,1.3,0.6,2.5c0,1.4-0.4,2.3-1,2.8c0.3,0.2,0.6,0.6,0.8,1.2c0.2,0.6,0.3,1.2,0.3,1.8v0.9
			C298.1,242.7,297.8,243.5,297.4,244.1z M294.6,242.8c0.1,0.2,0.4,0.4,0.7,0.4c0.3,0,0.6-0.1,0.7-0.4s0.1-0.7,0.1-1.4v-1
			c0-1.3-0.3-2-0.8-2c-0.3,0-0.5,0.2-0.6,0.5c-0.2,0.3-0.2,0.8-0.2,1.5v1.1C294.4,242.1,294.5,242.6,294.6,242.8z M294.9,237
			c0.1,0.1,0.2,0.1,0.5,0.1l0,0c0.2,0,0.3-0.1,0.4-0.2c0.1-0.1,0.2-0.3,0.3-0.6c0.1-0.3,0.1-0.7,0.1-1.3s0-0.9-0.1-1.2
			c0-0.3-0.1-0.4-0.2-0.5c-0.1-0.1-0.3-0.1-0.5-0.1c-0.2,0-0.4,0.1-0.5,0.1c-0.2,0.2-0.3,0.8-0.3,1.8
			C294.5,236.1,294.6,236.7,294.9,237z"/>
		<path d="M307.1,243.9c-0.4,0.6-1.1,0.9-2,0.9c-0.9,0-1.6-0.2-2-0.8c-0.4-0.5-0.7-1.3-0.7-2.5v-0.7h1.9v0.3c0,0.8,0.1,1.3,0.2,1.6
			c0.1,0.3,0.3,0.4,0.6,0.4c0.3,0,0.5-0.1,0.6-0.2c0.1-0.1,0.1-0.2,0.2-0.3s0.1-0.5,0.1-1.2v-1.9c-0.3,0.2-0.7,0.3-1.2,0.3
			c-0.9,0-1.5-0.3-1.9-0.9s-0.5-1.6-0.5-2.9v-0.5c0-1.6,0.3-2.7,0.8-3.2c0.4-0.4,1.1-0.7,1.9-0.7s1.5,0.1,1.9,0.5
			c0.4,0.3,0.6,0.8,0.8,1.3c0.1,0.6,0.2,1.3,0.2,2.2v5.1C307.8,242.3,307.6,243.3,307.1,243.9z M305,238.2c0.5,0,0.8-0.2,0.8-0.6
			v-2.4c0-0.6-0.1-1.1-0.2-1.4c-0.1-0.3-0.3-0.4-0.6-0.4s-0.5,0.1-0.7,0.4c-0.1,0.3-0.2,0.8-0.2,1.4v1.1c0,0.7,0.1,1.2,0.2,1.5
			C304.5,238.1,304.7,238.2,305,238.2z"/>
		<path d="M317.4,243.9c-0.4,0.6-1.2,0.9-2.2,0.9s-1.7-0.3-2.1-0.9s-0.6-1.5-0.6-2.8v-0.9h1.9v0.9c0,0.7,0.1,1.2,0.2,1.5
			c0.1,0.3,0.3,0.4,0.7,0.4s0.6-0.2,0.8-0.5c0.1-0.3,0.2-0.9,0.2-1.7s-0.1-1.4-0.2-1.8c-0.2-0.4-0.5-0.5-1-0.5h-0.5v-1.5h0.5
			c0.5,0,0.8-0.1,1-0.5c0.2-0.3,0.2-0.8,0.2-1.5s-0.1-1.2-0.2-1.4s-0.4-0.4-0.7-0.4c-0.3,0-0.5,0.1-0.7,0.4s-0.2,0.7-0.2,1.3v0.4
			h-1.9V235c0-1.2,0.2-2.1,0.6-2.6c0.4-0.5,1.1-0.8,2.1-0.8s1.7,0.3,2.2,0.9c0.4,0.6,0.7,1.4,0.7,2.6c0,0.7-0.1,1.3-0.3,1.8
			c-0.2,0.5-0.6,0.8-1,1c0.5,0.2,0.8,0.6,1,1.1c0.2,0.5,0.3,1.2,0.3,2.1C318.1,242.3,317.9,243.3,317.4,243.9z"/>
	</g>
</g>
</svg>
