<?xml version="1.0" encoding="utf-8"?>
<!-- Generator: Adobe Illustrator 17.0.0, SVG Export Plug-In . SVG Version: 6.00 Build 0)  -->
<!DOCTYPE svg PUBLIC "-//W3C//DTD SVG 1.1//EN" "http://www.w3.org/Graphics/SVG/1.1/DTD/svg11.dtd" [
	<!ENTITY ns_flows "http://ns.adobe.com/Flows/1.0/">
	<!ENTITY ns_extend "http://ns.adobe.com/Extensibility/1.0/">
	<!ENTITY ns_ai "http://ns.adobe.com/AdobeIllustrator/10.0/">
	<!ENTITY ns_graphs "http://ns.adobe.com/Graphs/1.0/">
]>
<svg version="1.1" id="Layer_1" xmlns:x="&ns_extend;" xmlns:i="&ns_ai;" xmlns:graph="&ns_graphs;"
	 xmlns="http://www.w3.org/2000/svg" xmlns:xlink="http://www.w3.org/1999/xlink" xmlns:a="http://ns.adobe.com/AdobeSVGViewerExtensions/3.0/"
	 x="0px" y="0px" width="600px" height="600px" viewBox="0 0 600 600" style="enable-background:new 0 0 600 600;"
	 xml:space="preserve">
<style type="text/css">
	.st0{fill:#0068B4;}
	.st1{fill:#9400A6;}
	.st2{fill:#FFFFFF;}
	.st3{fill:#D2D705;}
	.st4{fill:#7A9E04;}
	.st5{fill:#C272D7;stroke:#000000;stroke-miterlimit:10;}
	.st6{fill:#FFFFFF;stroke:#000000;stroke-miterlimit:10;}
	.st7{fill:#7C0014;}
	.st8{fill:#E0DE71;stroke:#000000;stroke-miterlimit:10;}
	.st9{fill:#CC5C9B;}
	.st10{fill:#B91F75;}
	.st11{fill:#C8218D;stroke:#000000;stroke-miterlimit:10;}
	.st12{fill:#EBA79C;stroke:#000000;stroke-miterlimit:10;}
	.st13{fill:#FF7D6F;}
	.st14{fill:#FE5561;}
	.st15{stroke:#000000;stroke-miterlimit:10;}
	.st16{fill:#10792E;}
	.st17{fill:#5F546E;}
	.st18{fill:#10792E;stroke:#000000;stroke-miterlimit:10;}
	.st19{fill:#C8218D;}
	.st20{fill:#C7CCC4;}
	.st21{fill:#A7DCF3;stroke:#000000;stroke-miterlimit:10;}
	.st22{fill:#49B7E7;}
	.st23{fill:#CB5E22;stroke:#000000;stroke-miterlimit:10;}
	.st24{fill:url(#SVGID_1_);}
	.st25{fill:url(#SVGID_2_);}
	.st26{fill:url(#SVGID_3_);}
	.st27{fill:url(#SVGID_4_);}
	.st28{fill:url(#SVGID_5_);}
	.st29{fill:#242424;stroke:#CB5E22;stroke-miterlimit:10;}
	.st30{fill:#2A2A2A;stroke:#000000;stroke-miterlimit:10;}
	.st31{fill:#5F5F5F;}
	.st32{fill:#2A2A2A;stroke:#FFFFFF;stroke-miterlimit:10;}
	.st33{fill:#C82321;}
	.st34{fill:#FF8075;stroke:#000000;stroke-miterlimit:10;}
	.st35{fill:#FF5A4A;}
	.st36{fill:#FF056D;stroke:#FF8075;stroke-miterlimit:10;}
	.st37{fill:#0075FA;stroke:#000000;stroke-miterlimit:10;}
	.st38{fill:#FF056D;}
	.st39{fill:#0066AE;}
	.st40{fill:#FF056D;stroke:#0075FA;stroke-miterlimit:10;}
	.st41{fill:#EDF3F8;stroke:#000000;stroke-miterlimit:10;}
	.st42{fill:#1D1D1B;stroke:#EDF3F8;stroke-miterlimit:10;}
	.st43{fill:#CFB114;}
	.st44{fill:#22A2A9;}
	.st45{fill:#C2BEC8;}
	.st46{fill:#10792E;stroke:#FFFFFF;stroke-miterlimit:10;}
	.st47{fill:#F6FF14;stroke:#000000;stroke-miterlimit:10;}
	.st48{fill:none;stroke:#87C000;stroke-width:8;stroke-linecap:round;stroke-miterlimit:10;}
	.st49{fill:#DEE200;}
	.st50{fill:#008290;}
	.st51{fill:#FFB7B1;}
	.st52{fill:#9400A6;stroke:#000000;stroke-miterlimit:10;}
	.st53{fill:#DF6B54;stroke:#000000;stroke-miterlimit:10;}
	.st54{fill:#C13323;}
	.st55{fill:#5E0089;}
	.st56{fill:#FDB05F;stroke:#000000;stroke-miterlimit:10;}
	.st57{fill:none;stroke:#000000;stroke-miterlimit:10;}
	.st58{fill:#435338;}
	.st59{fill:#580088;}
	.st60{fill:#EBA79C;}
	.st61{fill:#FE5561;stroke:#EBA79C;stroke-miterlimit:10;}
	.st62{fill:#F78100;}
	.st63{fill:#FDB05F;}
	.st64{fill:#8E48D8;stroke:#000000;stroke-miterlimit:10;}
	.st65{fill:#5D22A5;}
	.st66{fill:#87D971;stroke:#000000;stroke-miterlimit:10;}
	.st67{fill:#B8EDA4;}
	.st68{fill:#4EC23A;}
	.st69{fill:#2F2428;}
	.st70{fill:#CD0A36;}
	.st71{fill:#4C4C4C;}
	.st72{fill:#146EE4;stroke:#000000;stroke-miterlimit:10;}
	.st73{fill:#79B2FF;}
	.st74{fill:none;stroke:#79B2FF;stroke-width:11;stroke-miterlimit:10;}
	.st75{fill:#0055B8;}
	.st76{fill:#307DDB;}
	.st77{fill:#4F435F;}
	.st78{fill:#212025;}
	.st79{fill:none;stroke:#67D700;stroke-width:8;stroke-miterlimit:10;}
	.st80{fill:#B1BBBE;stroke:#000000;stroke-miterlimit:10;}
	.st81{fill:#8A8B97;}
	.st82{fill:#505C66;stroke:#747785;stroke-miterlimit:10;}
	.st83{fill:#06D0CC;stroke:#000000;stroke-miterlimit:10;}
	.st84{fill:#0299AF;stroke:#000000;stroke-miterlimit:10;}
	.st85{fill:#019DBA;}
	.st86{fill:#CAC5C0;}
	.st87{fill:#0453BC;}
	.st88{fill:#535353;}
	.st89{fill:#EA772F;stroke:#000000;stroke-miterlimit:10;}
	.st90{fill:#1F2427;}
	.st91{fill:#E05900;}
	.st92{fill:#A8A8B4;}
	.st93{fill:#005898;}
	.st94{fill:#79B2FF;stroke:#000000;stroke-miterlimit:10;}
	.st95{fill:#1D3F89;}
	.st96{fill:#E87140;stroke:#000000;stroke-miterlimit:10;}
	.st97{fill:#002F55;}
	.st98{fill:#59504E;stroke:#000000;stroke-miterlimit:10;}
	.st99{fill:#505C66;}
	.st100{fill:#4D99E4;}
	.st101{fill:#F7A161;}
	.st102{fill:#C13323;stroke:#F7A161;stroke-miterlimit:10;}
	.st103{fill:#D24D91;stroke:#000000;stroke-miterlimit:10;}
	.st104{fill:#923EB9;}
	.st105{fill:#D24D91;}
	.st106{fill:#1C232F;stroke:#D24D91;stroke-miterlimit:10;}
	.st107{fill:#0E7B95;stroke:#000000;stroke-miterlimit:10;}
	.st108{fill:#005E8F;}
	.st109{fill:#E2187D;stroke:#000000;stroke-miterlimit:10;}
	.st110{fill:#00A0EB;stroke:#000000;stroke-miterlimit:10;}
	.st111{fill:#C51971;}
	.st112{fill:#E2187D;}
	.st113{fill:#67D700;stroke:#000000;stroke-miterlimit:10;}
	.st114{fill:#48A333;}
	.st115{fill:#67D700;}
	.st116{fill:#8E48D8;}
	.st117{stroke:#A0A0A0;stroke-miterlimit:10;}
	.st118{fill:#87D971;}
	.st119{fill:#4EC23A;stroke:#000000;stroke-miterlimit:10;}
	.st120{fill:#C72365;}
	.st121{fill:#9712C5;}
	.st122{fill:#307DDB;stroke:#000000;stroke-miterlimit:10;}
	.st123{fill:#D53D1F;}
	.st124{fill:#A9007C;}
	.st125{fill:#CDCB20;}
	.st126{fill:#48A333;stroke:#B1C49B;stroke-miterlimit:10;}
	.st127{fill:none;stroke:#48A333;stroke-width:4;stroke-miterlimit:10;}
	.st128{fill:#5A1F8E;}
	.st129{fill:none;stroke:#5A1F8E;stroke-width:3;stroke-miterlimit:10;}
	.st130{fill:#5A1F8E;stroke:#CC5C9B;stroke-miterlimit:10;}
	.st131{fill:#E81C2F;}
	.st132{fill:#FFEE34;}
	.st133{fill:none;stroke:#024598;stroke-width:8;stroke-linecap:round;stroke-miterlimit:10;}
	.st134{fill:none;stroke:#1D1D1B;stroke-width:4;stroke-miterlimit:10;}
	.st135{fill:none;stroke:#FF056D;stroke-width:6;stroke-linecap:round;stroke-miterlimit:10;}
	.st136{fill:#7A8504;}
	.st137{fill:#121617;stroke:#7A8504;stroke-miterlimit:10;}
	.st138{fill:none;stroke:#00268A;stroke-width:6;stroke-linecap:round;stroke-miterlimit:10;}
	.st139{fill:#145863;}
	.st140{fill:#145863;stroke:#22A2A9;stroke-miterlimit:10;}
	.st141{fill:#54B948;}
	.st142{fill:#6F00A6;stroke:#000000;stroke-miterlimit:10;}
	.st143{fill:none;stroke:#FFFFFF;stroke-width:6;stroke-miterlimit:10;}
	.st144{fill:#14DEAC;}
	.st145{fill:#1466AC;}
	.st146{fill:#757575;}
	.st147{fill:none;stroke:#CD0A36;stroke-width:8;stroke-miterlimit:10;}
	.st148{fill:none;stroke:#67D700;stroke-width:40;stroke-miterlimit:10;}
	.st149{fill:#CD0A36;stroke:#000000;stroke-miterlimit:10;}
	.st150{fill:#ED1C24;}
	.st151{fill:none;stroke:#505C66;stroke-width:3;stroke-miterlimit:10;}
	.st152{fill:none;stroke:#06D0CC;stroke-width:3;stroke-miterlimit:10;}
	.st153{fill:#007AC2;}
	.st154{fill:#EF3D1F;}
	.st155{stroke:#EA772F;stroke-miterlimit:10;}
	.st156{fill:#0068B4;stroke:#000000;stroke-miterlimit:10;}
	.st157{fill:#9712C5;stroke:#000000;stroke-miterlimit:10;}
	.st158{fill:#3D8D28;stroke:#000000;stroke-miterlimit:10;}
	.st159{fill:#68ED3A;}
	.st160{fill:#3D8D28;stroke:#FFFFFF;stroke-miterlimit:10;}
	.st161{fill:#68ED3A;stroke:#000000;stroke-miterlimit:10;}
	.st162{fill:#68ED3A;stroke:#FFFFFF;stroke-miterlimit:10;}
	.st163{fill:#00317D;}
	.st164{fill:#00737D;}
	.st165{fill:#146EE4;}
	.st166{fill:#4D99E4;stroke:#000000;stroke-miterlimit:10;}
	.st167{fill:none;stroke:#FFFFFF;stroke-width:11;stroke-miterlimit:10;}
	.st168{fill:#224754;}
	.st169{fill:#0E7B95;}
	.st170{fill:#FF8400;stroke:#000000;stroke-miterlimit:10;}
	.st171{fill:#00A0EB;}
	.st172{fill:#B9187D;}
	.st173{fill:#015297;}
	.st174{fill:#B0B0B0;}
	.st175{fill:#E1062F;}
	.st176{fill:#005BAB;}
</style>
<path class="st66" d="M594.5,576.2c0-93.6-20.8-396.5-56.5-478.7c-11.6-26.7-84.7-58.1-155.5-80.1c-24.8-7.7-54.1-9.9-81.7-9.4
	c-27.8-0.6-61.4,1.3-86.4,9.1C143.6,39.2,74.6,70.8,63,97.5C27.2,179.7,6.5,482.7,6.5,576.2c8.8,6.4,17.7,7.6,67.5,9.8
	c10-134,52-285,52-285s-4.1,248-4.1,270c0.2,18.6,87.7,23.8,173.7,24v0c1,0,2.5,0,3.5,0c1,0,2.5,0,3.5,0v0c86-0.2,175-5.4,175.2-24
	c0-22-2.9-270-2.9-270s42.1,151,52.1,285C576.6,583.8,585.7,582.7,594.5,576.2z"/>
<g>
	<g>
		<path class="st67" d="M155.2,109.2c12,0,4.2-25.3,4.4-54.5c0-5.7,0.4-11.6,0.8-17.3c-22,8-36.4,14.9-36.3,16.6
			C126.1,83.1,145.1,109.2,155.2,109.2z"/>
		<path class="st67" d="M130.8,108c-12,0-4.2,25.3-4.4,54.5c-0.1,29.3,4.5,52.8,4.4,62.7c12.1,0,31.3-29.5,31.3-56.7
			C162.2,137.4,141.5,108,130.8,108z"/>
	</g>
	<g>
		<path class="st67" d="M155.2,342.4c12,0,4.2-25.3,4.4-54.5c0.1-29.3,8.1-62.7-4.4-62.7c-6.5,0-15.1,8.6-21.6,20.7
			c-5.6,10.4-7.4,56.2-4.4,64.4C136,328.8,147.9,342.4,155.2,342.4z"/>
		<path class="st67" d="M130.8,341.2c-5.4,0-4.6,3.8-4.5,12.1c0.1,10.1,0.2,26.3,0.1,42.4c-0.1,29.3-8.1,62.7,4.4,62.7
			c12.1,0,31.3-29.5,31.3-56.7C162.2,370.6,141.5,341.2,130.8,341.2z"/>
	</g>
	<g>
		<path class="st67" d="M155.2,575.6c12,0,4.2-25.3,4.4-54.5c0.1-29.3,8.1-62.7-4.4-62.7c-12.1,0-31.3,29.5-31.3,56.7
			C123.8,546.2,144.5,575.6,155.2,575.6z"/>
	</g>
</g>
<g>
	<g>
		<path class="st67" d="M206.2,122.2c12,0,4.2-25.3,4.4-54.5c0.1-16.9,2.8-35.2,2.6-47.7c-0.1-8-13.5,2-29.8,7.9
			c-5,10-8.6,22.1-8.6,33.8C174.8,92.8,195.5,122.2,206.2,122.2z"/>
		<path class="st67" d="M181.8,121c-12,0-4.2,25.3-4.4,54.5c-0.1,29.3-8.1,62.7,4.4,62.7c12.1,0,31.3-29.5,31.3-56.7
			C213.2,150.4,192.5,121,181.8,121z"/>
	</g>
	<g>
		<path class="st67" d="M206.2,355.4c12,0,4.2-25.3,4.4-54.5c0.1-29.3,8.1-62.7-4.4-62.7c-12.1,0-31.3,29.5-31.3,56.7
			C174.8,326,195.5,355.4,206.2,355.4z"/>
		<path class="st67" d="M181.8,354.2c-12,0-4.2,25.3-4.4,54.5c-0.1,29.3-8.1,62.7,4.4,62.7c12.1,0,31.3-29.5,31.3-56.7
			C213.2,383.6,192.5,354.2,181.8,354.2z"/>
	</g>
	<g>
		<path class="st67" d="M206.2,588.6c12,0,4.2-25.3,4.4-54.5c0.1-29.3,8.1-62.7-4.4-62.7c-12.1,0-31.3,29.5-31.3,56.7
			C174.8,559.2,195.5,588.6,206.2,588.6z"/>
	</g>
</g>
<g>
	<g>
		<path class="st67" d="M257.2,126.2c12,0,4.2-25.3,4.4-54.5c0.1-29.3,8.1-62.7-4.4-62.7c-12.1,0-31.3,29.5-31.3,56.7
			C225.8,96.8,246.5,126.2,257.2,126.2z"/>
		<path class="st67" d="M232.8,125c-12,0-4.2,25.3-4.4,54.5c-0.1,29.3-8.1,62.7,4.4,62.7c12.1,0,31.3-29.5,31.3-56.7
			C264.2,154.4,243.5,125,232.8,125z"/>
	</g>
	<g>
		<path class="st67" d="M257.2,359.4c12,0,4.2-25.3,4.4-54.5c0.1-29.3,8.1-62.7-4.4-62.7c-12.1,0-31.3,29.5-31.3,56.7
			C225.8,330,246.5,359.4,257.2,359.4z"/>
		<path class="st67" d="M232.8,358.2c-12,0-4.2,25.3-4.4,54.5c-0.1,29.3-8.1,62.7,4.4,62.7c12.1,0,31.3-29.5,31.3-56.7
			C264.2,387.6,243.5,358.2,232.8,358.2z"/>
	</g>
	<g>
		<path class="st67" d="M257.2,592.6c12,0,4.2-25.3,4.4-54.5c0.1-29.3,8.1-62.7-4.4-62.7c-12.1,0-31.3,29.5-31.3,56.7
			C225.8,563.2,246.5,592.6,257.2,592.6z"/>
	</g>
</g>
<g>
	<g>
		<path class="st67" d="M308.2,127.2c12,0,4.2-25.3,4.4-54.5c0.1-29.3,8.1-62.7-4.4-62.7c-12.1,0-31.3,29.5-31.3,56.7
			C276.8,97.8,297.5,127.2,308.2,127.2z"/>
		<path class="st67" d="M283.8,126c-12,0-4.2,25.3-4.4,54.5c-0.1,29.3-8.1,62.7,4.4,62.7c12.1,0,31.3-29.5,31.3-56.7
			C315.2,155.4,294.5,126,283.8,126z"/>
	</g>
	<g>
		<path class="st67" d="M308.2,360.4c12,0,4.2-25.3,4.4-54.5c0.1-29.3,8.1-62.7-4.4-62.7c-12.1,0-31.3,29.5-31.3,56.7
			C276.8,331,297.5,360.4,308.2,360.4z"/>
		<path class="st67" d="M283.8,359.2c-12,0-4.2,25.3-4.4,54.5c-0.1,29.3-8.1,62.7,4.4,62.7c12.1,0,31.3-29.5,31.3-56.7
			C315.2,388.6,294.5,359.2,283.8,359.2z"/>
	</g>
	<g>
		<path class="st67" d="M308.2,593.6c12,0,4.2-25.3,4.4-54.5c0.1-29.3,8.1-62.7-4.4-62.7c-12.1,0-31.3,29.5-31.3,56.7
			C276.8,564.2,297.5,593.6,308.2,593.6z"/>
	</g>
</g>
<g>
	<g>
		<path class="st67" d="M359.2,127.2c12,0,4.2-25.3,4.4-54.5c0.1-29.3,8.1-62.7-4.4-62.7c-12.1,0-31.3,29.5-31.3,56.7
			C327.8,97.8,348.5,127.2,359.2,127.2z"/>
		<path class="st67" d="M334.8,126c-12,0-4.2,25.3-4.4,54.5c-0.1,29.3-8.1,62.7,4.4,62.7c12.1,0,31.3-29.5,31.3-56.7
			C366.2,155.4,345.5,126,334.8,126z"/>
	</g>
	<g>
		<path class="st67" d="M359.2,360.4c12,0,4.2-25.3,4.4-54.5c0.1-29.3,8.1-62.7-4.4-62.7c-12.1,0-31.3,29.5-31.3,56.7
			C327.8,331,348.5,360.4,359.2,360.4z"/>
		<path class="st67" d="M334.8,359.2c-12,0-4.2,25.3-4.4,54.5c-0.1,29.3-8.1,62.7,4.4,62.7c12.1,0,31.3-29.5,31.3-56.7
			C366.2,388.6,345.5,359.2,334.8,359.2z"/>
	</g>
	<g>
		<path class="st67" d="M359.2,593.6c12,0,4.2-25.3,4.4-54.5c0.1-29.3,8.1-62.7-4.4-62.7c-12.1,0-31.3,29.5-31.3,56.7
			C327.8,564.2,348.5,593.6,359.2,593.6z"/>
	</g>
</g>
<g>
	<g>
		<path class="st67" d="M410.2,125.2c12,0,4.2-25.3,4.4-54.5c0.1-14,1.9-28.9,2.5-40.7c-9.3-4-14-4.7-24.7-8
			c-7.4,11.1-13.5,27.5-13.5,42.7C378.8,95.8,399.5,125.2,410.2,125.2z"/>
		<path class="st67" d="M385.8,124c-12,0-4.2,25.3-4.4,54.5c-0.1,29.3-8.1,62.7,4.4,62.7c12.1,0,31.3-29.5,31.3-56.7
			C417.2,153.4,396.5,124,385.8,124z"/>
	</g>
	<g>
		<path class="st67" d="M410.2,358.4c12,0,4.2-25.3,4.4-54.5c0.1-29.3,8.1-62.7-4.4-62.7c-12.1,0-31.3,29.5-31.3,56.7
			C378.8,329,399.5,358.4,410.2,358.4z"/>
		<path class="st67" d="M385.8,357.2c-12,0-4.2,25.3-4.4,54.5c-0.1,29.3-8.1,62.7,4.4,62.7c12.1,0,31.3-29.5,31.3-56.7
			C417.2,386.6,396.5,357.2,385.8,357.2z"/>
	</g>
	<g>
		<path class="st67" d="M410.2,591.6c12,0,4.2-25.3,4.4-54.5c0.1-29.3,8.1-62.7-4.4-62.7c-12.1,0-31.3,29.5-31.3,56.7
			C378.8,562.2,399.5,591.6,410.2,591.6z"/>
	</g>
</g>
<g>
	<g>
		<path class="st67" d="M461.2,119.2c12,0,4.2-25.3,4.4-54.5c0-4.9,0.3-9.8,0.6-14.7c0-0.5,0.1-1,0.1-1.5
			c-16.1-6.4-21.7-10-32.3-12.9c-2.2,7-4,15.9-4,23.1C429.8,89.8,450.5,119.2,461.2,119.2z"/>
		<path class="st67" d="M436.8,118c-12,0-4.2,25.3-4.4,54.5c-0.1,29.3-8.1,62.7,4.4,62.7c12.1,0,31.3-29.5,31.3-56.7
			C468.2,147.4,447.5,118,436.8,118z"/>
	</g>
	<g>
		<path class="st67" d="M461.2,352.4c12,0,4.2-25.3,4.4-54.5c0.1-29.3,8.1-62.7-4.4-62.7c-12.1,0-31.3,29.5-31.3,56.7
			C429.8,323,450.5,352.4,461.2,352.4z"/>
		<path class="st67" d="M436.8,351.2c-12,0-4.2,25.3-4.4,54.5c-0.1,29.3-8.1,62.7,4.4,62.7c12.1,0,31.3-29.5,31.3-56.7
			C468.2,380.6,447.5,351.2,436.8,351.2z"/>
	</g>
	<g>
		<path class="st67" d="M467.7,576.6c0.8-9.9-2.3-26.9-2.2-45.5c0.1-29.3,8.1-62.7-4.4-62.7c-12.1,0-31.3,29.5-31.3,56.7
			c0,24.8,13.1,48.5,23.8,57.1C456.4,584.4,467.3,582.3,467.7,576.6z"/>
	</g>
</g>
<path class="st68" d="M70.4,88.6c0,0,77.1,9.2,55.7,220c-0.4,79.7-1.8,141.7-2.4,184.6c-0.7,46.5-0.8,70.5-0.8,71.6
	c0,3.2-0.6,7.5,0.8,9.2c0.7,1.1,1.7,2.3,3.4,3.5c4.7,3.4,15.3,6.5,27.3,8.8c-14.2-11.6-10.9-42.8-9.8-72.1c1.1-29.4-24-95.4-3-199.4
	c6.8-33.6-5.5-74.9-6-84C131.6,163.1,119.2,97.3,70.4,88.6z"/>
<path class="st68" d="M532.2,89c0,0-79.2,0.7-57.7,211.5c2.1,168.9,3.2,265.3,3.2,264.5c0-2.3,0,2.4,0,6.2c0,1.3-0.7,2.6-0.9,2.9
	c-0.7,1.1-2,2.2-3.6,3.4c-4.7,3.4-13.3,5.9-25.1,8.2c14.2-11.6,11.1-41.8,10-71.2c-1.1-29.4,24-95.4,3-199.4
	c-6.8-33.6,1.5-83.4,2-92.4C467,155.1,485.7,92,532.2,89z"/>
<g>
	<g>
		<path class="st118" d="M227.5,28.7C240.3,46,262,62.5,298.1,62.5c36.2,0,56.3-16.8,67.4-34.5C335.2,31.1,259.9,30.8,227.5,28.7z"
			/>
		<path class="st119" d="M368.1,1c-17.6,5.3-142.2,2.9-148.6,0.6c-0.1,0.3-0.3,0.7-0.5,1.1c2.2,7.1,6.3,17.5,13.7,27.5
			c29.5,1.9,97.9,2.2,125.6-0.6c6.2-9.9,9.4-20.2,10.9-27.3C368.8,1.8,368.4,1.4,368.1,1z"/>
	</g>
	<path class="st119" d="M369.2,2.3c-4.1,18.7-19,58.7-72.2,58.7c-53.9,0-72.4-40.1-78-58.3c-2.9,5.3-13.9,16.7-13.9,16.7
		s14.4,61,89.9,61c76.5,0,86.6-58.7,87.7-63.1C380.6,16.4,373.4,6.9,369.2,2.3z"/>
</g>
<path class="st68" d="M89.8,96.8c-10.1-6.7-16.9-8.2-21.4-7.7c-2.4,2.9-4.2,5.7-5.5,8.5C27.2,179.7,6.5,482.7,6.5,576.2
	c8.8,6.4,17.7,7.6,67.5,9.8c10-134,52-285,52-285s0,1.4-0.1,3.9c2.6-12.1,6.5-5.7,6.9-57.9C133.8,171.6,112.4,112.2,89.8,96.8z"/>
<path class="st68" d="M527,586c49.7-2.2,58.7-3.3,67.5-9.8c0-93.6-20.8-396.5-56.5-478.7c-1.1-2.5-2.7-5.1-4.8-7.6
	c-5.1-0.8-12.8,0.4-23.6,7.6c-22.6,15.4-43,60.5-43.2,148.8c0.4,53.2,5.6,43,8.7,55c0-0.2,0-0.3,0-0.3S517,452,527,586z"/>
<g>
	<g>
		<polygon class="st150" points="376.9,245 361.7,218 376.9,191 407.3,191 422.4,218 407.3,245 		"/>
		<path d="M406.7,192l14.6,26l-14.6,26h-29.1l-14.6-26l14.6-26H406.7 M407.8,190h-31.5l-15.8,28l15.8,28h31.5l15.8-28L407.8,190
			L407.8,190z"/>
	</g>
	<polyline class="st2" points="405.2,194.5 418.4,218 405.2,241.5 379,241.5 365.8,218 379,194.5 405.1,194.5 	"/>
	<g>
		<path d="M372.3,246l8.2-23.3c-1.2-0.1-2.8-1.1-2.9-1.2c-1.4-1.1-2.6-2.5-3.5-4.2c-1-1.9-1.5-4.1-1.5-6.4c0-1.7,0.3-3.4,0.8-4.9
			c0.5-1.5,1.3-2.9,2.2-4c0.9-1.1,2-2,3.2-2.7c1.2-0.6,2.6-1,4-1c1.4,0,2.8,0.3,4,1c1.2,0.7,2.3,1.6,3.2,2.7c0.9,1.1,1.6,2.4,2.2,4
			c0.6,1.5,0.8,3.1,0.8,4.9c0,1.7-0.3,3.4-0.9,5.2L382,246H372.3z M381.3,210.8c0,0.6,0.2,1.1,0.5,1.5s0.8,0.6,1.2,0.6
			c0.5,0,0.9-0.2,1.3-0.6s0.5-0.9,0.5-1.5c0-0.6-0.2-1.1-0.5-1.6c-0.4-0.4-0.8-0.6-1.3-0.6c-0.5,0-0.9,0.2-1.2,0.6
			C381.4,209.6,381.3,210.1,381.3,210.8z"/>
		<path d="M407.5,211.6c1.5,1.1,2.8,2.6,3.8,4.5c1,1.9,1.5,4.1,1.5,6.4c0,1.7-0.3,3.3-0.8,4.9c-0.5,1.5-1.3,2.9-2.2,4
			c-0.9,1.1-2,2-3.2,2.7c-1.2,0.7-2.6,1-4,1c-1.4,0-2.8-0.3-4-1c-1.2-0.6-2.3-1.5-3.2-2.7c-0.9-1.1-1.6-2.5-2.2-4
			c-0.6-1.5-0.8-3.1-0.8-4.9c0-1.7,0.3-3.5,0.9-5.2l9.8-27.4h9l-7.3,20.8c0,0,0.9,0,1.5,0.2C406.8,211.1,407.5,211.6,407.5,211.6z
			 M404.3,222.5c0-0.6-0.2-1.1-0.5-1.5c-0.4-0.4-0.8-0.6-1.2-0.6c-0.5,0-0.9,0.2-1.3,0.6c-0.4,0.4-0.5,0.9-0.5,1.5
			c0,0.6,0.2,1.1,0.5,1.5c0.4,0.4,0.8,0.6,1.3,0.6c0.5,0,0.9-0.2,1.2-0.6C404.1,223.7,404.3,223.1,404.3,222.5z"/>
	</g>
	<path class="st150" d="M375.2,244l8.2-23.2l-2.7-0.1c-0.4,0-1.3-0.5-1.8-0.8c-1.1-0.9-2.1-2.1-2.9-3.5c-0.8-1.6-1.2-3.5-1.2-5.6
		c0-1.5,0.2-2.9,0.7-4.2c0.4-1.3,1.1-2.4,1.9-3.4c0.8-0.9,1.6-1.6,2.6-2.2c0.9-0.5,1.9-0.8,3-0.8c1.1,0,2.1,0.2,3.1,0.8
		c1,0.5,1.9,1.3,2.7,2.2c0.8,0.9,1.4,2.1,1.8,3.4c0.5,1.3,0.7,2.7,0.7,4.2s-0.3,3-0.8,4.5l-9.9,28.7H375.2z M383,206.6
		c-1.1,0-2,0.5-2.8,1.4c-0.6,0.8-1,1.8-1,2.8c0,1,0.3,2,1,2.8c0.7,0.9,1.7,1.4,2.8,1.4c1.1,0,2.1-0.5,2.8-1.4c0.6-0.8,1-1.7,1-2.8
		c0-1.1-0.3-2-1-2.8C385.1,207.1,384.1,206.6,383,206.6z"/>
	<path class="st150" d="M402.5,233.1c-1.1,0-2.1-0.2-3.1-0.8c-1-0.5-1.9-1.3-2.7-2.2c-0.8-0.9-1.4-2.1-1.8-3.4
		c-0.5-1.3-0.7-2.7-0.7-4.2s0.3-3,0.8-4.5l9.3-26.1h4.8l-7.3,20.7l2.7,0.1c0.2,0,0.7,0.1,1,0.1c0.3,0.1,0.6,0.3,0.9,0.4
		c1.2,0.9,2.3,2.1,3.1,3.8c0.8,1.6,1.2,3.5,1.2,5.5c0,1.5-0.2,2.9-0.7,4.2c-0.4,1.3-1.1,2.4-1.9,3.4c-0.8,0.9-1.6,1.6-2.6,2.2
		C404.6,232.8,403.6,233.1,402.5,233.1z M402.5,218.4c-1.1,0-2.1,0.5-2.8,1.4c-0.6,0.8-1,1.7-1,2.8c0,1.1,0.3,2,1,2.8
		c0.7,0.9,1.7,1.4,2.8,1.4c1.1,0,2.1-0.5,2.8-1.4c0.6-0.8,1-1.8,1-2.8c0-1-0.3-2-1-2.8C404.6,218.9,403.6,218.4,402.5,218.4z"/>
</g>
</svg>
