<?xml version="1.0" encoding="utf-8"?>
<!-- Generator: Adobe Illustrator 17.0.0, SVG Export Plug-In . SVG Version: 6.00 Build 0)  -->
<!DOCTYPE svg PUBLIC "-//W3C//DTD SVG 1.1//EN" "http://www.w3.org/Graphics/SVG/1.1/DTD/svg11.dtd" [
	<!ENTITY ns_flows "http://ns.adobe.com/Flows/1.0/">
	<!ENTITY ns_extend "http://ns.adobe.com/Extensibility/1.0/">
	<!ENTITY ns_ai "http://ns.adobe.com/AdobeIllustrator/10.0/">
	<!ENTITY ns_graphs "http://ns.adobe.com/Graphs/1.0/">
]>
<svg version="1.1" id="Layer_1" xmlns:x="&ns_extend;" xmlns:i="&ns_ai;" xmlns:graph="&ns_graphs;"
	 xmlns="http://www.w3.org/2000/svg" xmlns:xlink="http://www.w3.org/1999/xlink" xmlns:a="http://ns.adobe.com/AdobeSVGViewerExtensions/3.0/"
	 x="0px" y="0px" width="600px" height="600px" viewBox="0 0 600 600" style="enable-background:new 0 0 600 600;"
	 xml:space="preserve">
<style type="text/css">
	.st0{fill:#FE0000;stroke:#000000;stroke-miterlimit:10;}
	.st1{fill:#FFFFFF;stroke:#000000;stroke-miterlimit:10;}
	.st2{fill:#FFFFFF;}
	.st3{fill:#7C0014;}
	.st4{fill:#F959FF;stroke:#000000;stroke-miterlimit:10;}
	.st5{fill:#EA24AE;}
	.st6{fill:#0563E1;}
	.st7{fill:#0B0A11;}
	.st8{fill:#004D9B;}
	.st9{fill:#C20000;}
	.st10{fill:#0563E1;stroke:#000000;stroke-miterlimit:10;}
	.st11{fill:url(#SVGID_1_);stroke:#000000;stroke-miterlimit:10;}
	.st12{fill:url(#SVGID_2_);}
	.st13{fill:#8ADAC9;stroke:#000000;stroke-miterlimit:10;}
	.st14{fill:#23495B;stroke:#000000;stroke-miterlimit:10;}
	.st15{fill:#CAC5C0;}
	.st16{fill:#23495B;}
	.st17{fill:#1976C9;stroke:#000000;stroke-miterlimit:10;}
	.st18{fill:#02619F;}
	.st19{fill:#1976C9;}
	.st20{fill:#02619F;stroke:#1976C9;stroke-miterlimit:10;}
	.st21{fill:#77A4CB;stroke:#000000;stroke-miterlimit:10;}
	.st22{stroke:#EDF3F8;stroke-miterlimit:10;}
	.st23{fill:#77A4CB;}
	.st24{fill:#C7CCC4;}
	.st25{fill:#FFFA5B;stroke:#000000;stroke-miterlimit:10;}
	.st26{fill:#1E2A24;}
	.st27{fill:#EBF0F5;stroke:#000000;stroke-miterlimit:10;}
	.st28{fill:url(#SVGID_3_);}
	.st29{fill:url(#SVGID_4_);}
	.st30{fill:#FFB05B;}
	.st31{fill:#4FAFBF;stroke:#000000;stroke-miterlimit:10;}
	.st32{fill:#43DA98;stroke:#000000;stroke-miterlimit:10;}
	.st33{fill:#00B273;}
	.st34{fill:#43DA98;}
	.st35{fill:#00B273;stroke:#000000;stroke-miterlimit:10;}
	.st36{fill:#BC2567;stroke:#FFFFFF;stroke-miterlimit:10;}
	.st37{fill:#8B004D;stroke:#000000;stroke-miterlimit:10;}
	.st38{fill:#5B5B4F;stroke:#000000;stroke-miterlimit:10;}
	.st39{fill:#3A3F40;}
	.st40{fill:#E7C993;}
	.st41{fill:#8B004D;}
	.st42{fill:#5B5B4F;}
	.st43{fill:#F02233;stroke:#000000;stroke-miterlimit:10;}
	.st44{fill:#4E2664;stroke:#000000;stroke-miterlimit:10;}
	.st45{fill:#04829F;}
	.st46{adobe-knockout:true;}
	.st47{fill:none;stroke:#FFFFFF;stroke-width:3;stroke-miterlimit:10;adobe-knockout:false;}
	.st48{fill:#006F8C;}
	.st49{fill:#F32CBB;stroke:#000000;stroke-miterlimit:10;}
	.st50{fill:#C000AD;stroke:#000000;stroke-miterlimit:10;}
	.st51{fill:#6BBA4F;}
	.st52{fill:#03850D;}
	.st53{fill:#97C0DA;stroke:#000000;stroke-miterlimit:10;}
	.st54{fill:#83A5CB;}
	.st55{fill:#0453BC;}
	.st56{fill:#A79F96;}
	.st57{fill:#0CD3CA;stroke:#000000;stroke-miterlimit:10;}
	.st58{fill:#299AB8;}
	.st59{fill:#299AB8;stroke:#000000;stroke-miterlimit:10;}
	.st60{fill:#C000AD;}
	.st61{fill:#0099C7;}
	.st62{fill:#6E4D7F;stroke:#000000;stroke-miterlimit:10;}
	.st63{fill:#04829F;stroke:#000000;stroke-miterlimit:10;}
	.st64{fill:none;stroke:#EA24AE;stroke-width:8;stroke-miterlimit:10;}
	.st65{fill:#F959FF;}
	.st66{fill:#06A600;stroke:#000000;stroke-miterlimit:10;}
	.st67{fill:none;stroke:#15DB51;stroke-width:8;stroke-miterlimit:10;}
	.st68{fill:#06A600;}
	.st69{fill:#15DB51;stroke:#000000;stroke-miterlimit:10;}
	.st70{fill:#069400;}
	.st71{fill:#0066B3;}
	.st72{fill:#003644;}
	.st73{fill:#567481;}
	.st74{fill:none;stroke:#FFFFFF;stroke-width:3;stroke-miterlimit:10;}
	.st75{fill:url(#SVGID_5_);stroke:#FFFFFF;stroke-miterlimit:10;}
	.st76{fill:#B05040;}
	.st77{fill:#5C2633;}
	.st78{fill:none;stroke:#A7747F;stroke-width:3;stroke-miterlimit:10;}
	.st79{fill:#46A0BE;}
	.st80{fill:#005FA5;}
	.st81{fill:#FE9C14;}
	.st82{fill:#FED539;}
	.st83{fill:#3AC919;stroke:#000000;stroke-miterlimit:10;}
	.st84{fill:#2A9F02;}
	.st85{fill:#3AC919;}
	.st86{fill:#2A9F02;stroke:#000000;stroke-miterlimit:10;}
	.st87{fill:#FE144C;}
	.st88{fill:#FE5F39;}
	.st89{fill:#E91B00;}
	.st90{fill:#FE0000;}
	.st91{fill:#0005A4;stroke:#000000;stroke-miterlimit:10;}
	.st92{fill:#000578;}
	.st93{fill:#004FA4;}
	.st94{fill:#0005A4;stroke:#FFFFFF;stroke-miterlimit:10;}
	.st95{fill:#FFE60B;stroke:#000000;stroke-width:1.5;stroke-miterlimit:10;}
	.st96{fill:#ED1C24;}
	.st97{fill:#FFEE34;}
	.st98{fill:#FF4A49;}
	.st99{fill:none;stroke:#000000;stroke-miterlimit:10;}
	.st100{fill:#F97F7A;}
	.st101{fill:#6E4D7F;}
	.st102{fill:#CA0014;}
	.st103{fill:#382351;}
	.st104{fill:#01A663;}
	.st105{fill:#8ABE23;}
	.st106{fill:#1D1D1B;}
	.st107{fill:#FEFEFE;}
</style>
<path class="st1" d="M6.1,342.8C40.7,232.2,21.2,187.2,67.7,94.2c10.5-21,71.9-57.8,135.8-73.2c0,0,109.7-25.5,180.5-3.5
	s140.3,53.3,151.9,80c35.7,82.1,31.2,191.6,59.7,243.7c-12.5,1.2-81.3,14.4-109.3,19.7c-2.4-7.3-13.4-60-13.4-60s3.2,248,3.2,270
	c-0.2,19-92.8,24-180.8,24s-167.5-10-167.5-26.9c0-16.8,1.1-262.1,1.1-262.1s-3.3,23.3-8.3,56.1C91.3,361.9,16.4,344,6.1,342.8z"/>
<g>
	<g>
		<path class="st2" d="M234.5,28.7C247.3,46,269,62.5,305.1,62.5c36.2,0,56.3-16.8,67.4-34.5C342.2,31.1,266.9,30.8,234.5,28.7z"/>
		<path class="st3" d="M375.1,1c-17.6,5.3-142.2,2.9-148.6,0.6c-0.1,0.3-0.3,0.7-0.5,1.1c2.2,7.1,6.3,17.5,13.7,27.5
			c29.5,1.9,97.9,2.2,125.6-0.6c6.2-9.9,9.4-20.2,10.9-27.3C375.8,1.8,375.4,1.4,375.1,1z"/>
	</g>
	<path class="st3" d="M376.2,2.3c-4.1,18.7-19,58.7-72.2,58.7c-53.9,0-72.4-40.1-78-58.3c-2.9,5.3-15.1,16-15.1,16
		s15.6,61.7,91.1,61.7c76.5,0,86.6-58.7,87.7-63.1C387.6,16.4,380.4,6.9,376.2,2.3z"/>
</g>
<path class="st1" d="M6.1,342.8C40.7,232.2,21.2,187.2,67.7,94.2c10.5-21,71.9-57.8,135.8-73.2c0,0,109.7-25.5,180.5-3.5
	s140.3,53.3,151.9,80c35.7,82.1,31.2,191.6,59.7,243.7c-12.5,1.2-81.3,14.4-109.3,19.7c-2.4-7.3-13.4-60-13.4-60s3.2,248,3.2,270
	c-0.2,19-92.8,24-180.8,24s-167.5-10-167.5-26.9c0-16.8,1.1-262.1,1.1-262.1s-3.3,23.3-8.3,56.1C91.3,361.9,16.4,344,6.1,342.8z"/>
<g>
	<g>
		<path class="st2" d="M234.5,28.7C247.3,46,269,62.5,305.1,62.5c36.2,0,56.3-16.8,67.4-34.5C342.2,31.1,266.9,30.8,234.5,28.7z"/>
		<path class="st3" d="M375.1,1c-17.6,5.3-142.2,2.9-148.6,0.6c-0.1,0.3-0.3,0.7-0.5,1.1c2.2,7.1,6.3,17.5,13.7,27.5
			c29.5,1.9,97.9,2.2,125.6-0.6c6.2-9.9,9.4-20.2,10.9-27.3C375.8,1.8,375.4,1.4,375.1,1z"/>
	</g>
	<path class="st3" d="M376.2,2.3c-4.1,18.7-19,58.7-72.2,58.7c-53.9,0-72.4-40.1-78-58.3c-2.9,5.3-15.1,16-15.1,16
		s15.6,61.7,91.1,61.7c76.5,0,86.6-58.7,87.7-63.1C387.6,16.4,380.4,6.9,376.2,2.3z"/>
</g>
<path class="st45" d="M6.1,342.8C40.7,232.2,21.2,187.2,67.7,94.2c10.5-21,71.9-57.8,135.8-73.2c0,0,109.7-25.5,180.5-3.5
	s140.3,53.3,151.9,80c35.7,82.1,31.2,191.6,59.7,243.7c-12.5,1.2-81.3,14.4-109.3,19.7c-2.4-7.3-13.4-60-13.4-60s3.2,248,3.2,270
	c-0.2,19-92.8,24-180.8,24s-167.5-10-167.5-26.9c0-16.8,1.1-262.1,1.1-262.1s-3.3,23.3-8.3,56.1C91.3,361.9,16.4,344,6.1,342.8z"/>
<g class="st46">
	<line class="st47" x1="134" y1="575" x2="134.5" y2="47"/>
	<path class="st47" d="M160,37"/>
	<path class="st47" d="M160,583"/>
	<line class="st47" x1="184.5" y1="588" x2="184.5" y2="28"/>
	<path class="st47" d="M211,30"/>
	<path class="st47" d="M211,590"/>
	<line class="st47" x1="235.5" y1="592" x2="235.5" y2="61"/>
	<line class="st47" x1="286.5" y1="593" x2="286.5" y2="82"/>
	<line class="st47" x1="337.5" y1="593" x2="337.5" y2="76"/>
	<line class="st47" x1="388.5" y1="591" x2="388.5" y2="21"/>
	<polyline class="st47" points="533,351.4 488.5,117.1 488.5,62 	"/>
	<polyline class="st47" points="573.4,344.1 525.5,92.1 525.5,86 	"/>
	<line class="st47" x1="496.3" y1="359.3" x2="466.7" y2="203.7"/>
	<polyline class="st47" points="50,351.4 98.5,104 98.5,68 	"/>
	<path class="st47" d="M10.1,344.1c0,0,15.9-62,19.5-86.1c1.9-12.8,4-16,18.3-112.9"/>
	<line class="st47" x1="87.7" y1="359.3" x2="127.7" y2="157.3"/>
	<line class="st47" x1="439.5" y1="585" x2="439.5" y2="41"/>
</g>
<path class="st48" d="M73.8,85.9c0,0,77.1,9.2,55.7,220c-0.9,166-1.1,253.8-1.1,255.9c0,3.2-0.6,7.5,0.8,9.2
	c0.7,1.1,1.7,2.3,3.4,3.5c4.7,3.4,13.4,6.6,25.2,9.1c-14.2-11.6-10.9-42.8-9.8-72.1c1.1-29.4-24-95.4-3-199.4
	c6.8-33.6-5.5-74.9-6-84C135,160.4,122.6,94.6,73.8,85.9z"/>
<path class="st48" d="M530.2,89c0,0-79.2,0.7-57.7,211.5c2.1,168.9,3.2,265.3,3.2,264.5c0-2.3,0,2.4,0,6.2c0,1.3-0.7,2.6-0.9,2.9
	c-0.7,1.1-2,2.2-3.6,3.4c-4.7,3.4-13.3,5.9-25.1,8.2c14.2-11.6,11.1-41.8,10-71.2c-1.1-29.4,24-95.4,3-199.4
	c-6.8-33.6,1.5-83.4,2-92.4C465,155.1,483.7,92,530.2,89z"/>
<g>
	<g>
		<path class="st45" d="M234.5,28.7C247.3,46,269,62.5,305.1,62.5c36.2,0,56.3-16.8,67.4-34.5C342.2,31.1,266.9,30.8,234.5,28.7z"/>
		<path class="st1" d="M375.1,1c-17.6,5.3-142.2,2.9-148.6,0.6c-0.1,0.3-0.3,0.7-0.5,1.1c2.2,7.1,6.3,17.5,13.7,27.5
			c29.5,1.9,97.9,2.2,125.6-0.6c6.2-9.9,9.4-20.2,10.9-27.3C375.8,1.8,375.4,1.4,375.1,1z"/>
	</g>
	<path class="st1" d="M376.2,2.3c-4.1,18.7-19,58.7-72.2,58.7c-53.9,0-72.4-40.1-78-58.3c-2.9,5.3-15.1,16-15.1,16
		s15.6,61.7,91.1,61.7c76.5,0,86.6-58.7,87.7-63.1C387.6,16.4,380.4,6.9,376.2,2.3z"/>
</g>
<g>
	<g>
		<polygon class="st104" points="388.9,179.1 402.8,175.9 408.9,188.7 420.1,197.5 413.8,210.3 413.9,224.5 400,227.7 388.9,236.6 
			377.8,227.7 364,224.5 364,210.3 357.8,197.5 368.9,188.7 375.1,175.9 		"/>
		<polygon class="st2" points="388.9,181 401.8,178 407.5,189.9 417.9,198.1 412.1,210 412.2,223.2 399.2,226.2 388.9,234.4 
			378.6,226.2 365.7,223.2 365.8,210 360,198.1 370.3,189.9 376,178 		"/>
		<polygon class="st104" points="388.9,182.7 400.9,179.9 406.2,191.1 415.9,198.7 410.5,209.8 410.5,222.1 398.5,224.8 
			388.9,232.4 379.3,224.8 367.3,222.1 367.4,209.8 362,198.7 371.6,191.1 376.9,179.9 		"/>
	</g>
	<g>
		<g>
			<path class="st2" d="M384.4,220.9c-0.1,0-0.2,0-0.4,0c-1.2-0.8-2.1-2-3.1-3c-0.8-0.8-1.7-1.2-2.8-1.2c-0.2,0-0.5,0.1-0.4-0.3
				c0-0.3,0.1-0.5,0.5-0.4c0.1,0,0.2,0,0.3,0c1.2-0.1,2-0.8,2-2.1c-0.1-2.3-0.8-4.5-1.2-6.7c-0.1-0.2-0.2-0.3-0.4-0.3
				c-1.6,0-2.3,0.5-2.2,2.1c0,0.1,0,0.1,0,0.1c0,0.4-0.2,0.4-0.5,0.4c-0.2,0-0.6,0.1-0.6-0.4c0-2,0-4.1,0-6.1c0-0.5,0.3-0.6,0.7-0.6
				c0.5,0,0.3,0.4,0.3,0.6c0,1.2,0.4,1.6,1.6,1.6c0.4,0,0.5-0.1,0.4-0.5c-0.5-2.3-1-4.6-1.5-6.9c-0.3-1.3-0.8-2.4-1.9-3.2
				c-0.7-0.6-1.5-0.4-2.1,0.2c-0.9,1-0.9,1.9,0.2,2.8c0.2,0.1,0.4,0.3,0.3,0.6c-0.1,0.3-0.4,0.2-0.7,0.1c-0.9-0.3-1.3-1-1.5-1.8
				c0-0.3,0-0.5,0-0.8c0.5-1.9,1.8-2.9,3.7-3.3c0.3-0.1,0.6,0,0.9-0.2c0.4,0,0.8,0,1.2,0c1.4,0.3,2.3,1.2,3.3,2.2
				c0.8,0.8,1.6,1.3,2.7,1.6c0.6,0.1,1.3,0.2,2,0.1c0.2,0,0.5-0.1,0.5,0.4c0,0.3,0,0.5-0.5,0.6c-1,0.1-1.7,0.8-1.9,1.8
				c-0.1,0.8-0.1,1.6,0.1,2.4c0.6,2.7,1.1,5.4,1.7,8.1c0.3,1.3,0.6,2.6,0.9,3.9c0.2-1,0.5-1.9,0.6-2.9c0.4-2.5,1.1-5,1.5-7.5
				c0.2-1.4,0.5-2.8,0.2-4.2c-0.1-0.8-0.4-1.4-1.3-1.7c-0.2-0.1-0.5-0.1-0.5-0.5c0.1-0.4,0.3-0.4,0.6-0.5c1.6-0.4,2.9-1.1,3.8-2.5
				c0.2-0.3,0.3-0.7,0.5-1.1c0.4,1.1,1.1,1.7,2,2.3c1,0.7,2.1,1.1,3.3,1.3c0.3,0.1,0.6,0,0.6,0.5c0,0.4-0.1,0.4-0.5,0.5
				c-0.9,0.1-1.4,0.6-1.6,1.5c-0.1,0.4-0.1,0.9-0.1,1.3c0,1.4,0.4,2.7,0.7,4c0.7,3.3,1.4,6.6,2.1,9.8c0.2,0.7,0.5,1.4,1.1,1.9
				c0-0.2,0-0.4,0-0.5c-0.3-1.4-0.1-2.7,0.2-4c0.8-3.1,1.5-6.1,2.3-9.2c0.5-2.2-0.4-3.9-2.5-4.8c-0.3-0.1-0.4-0.3-0.4-0.6
				c0-0.3,0.2-0.4,0.5-0.4c0.9-0.1,1.6-0.5,2.2-1.1c0.6-0.7,1.1-1.5,1.4-2.4c0.4,1.7,1.5,2.8,3.1,3.3c0.3,0.1,0.6,0.2,0.9,0.3
				c0,0.3,0,0.5,0,0.8c-0.1,0-0.2,0-0.3,0c-1.5,0.5-2.5,1.7-3,3.1c-1.3,3.9-2.2,7.9-3,11.9c-0.2,1-0.2,2.1,0.4,3.1
				c0.5,0.8,1.2,1.2,2.1,1.5c0.3,0.1,0.2,0.4,0.2,0.6c0,0.3-0.2,0.3-0.4,0.3c-0.9,0-1.7,0.2-2.5,0.6c-1.6,0.8-2.6,2.1-3.4,3.6
				c-0.1,0-0.1,0-0.2,0c-0.9-0.8-1.8-1.6-2.7-2.4c-0.9-0.8-1.8-1.6-3-1.8c-0.2-0.1-0.2-0.2-0.2-0.4c0-0.2,0-0.4,0.3-0.5
				c1.4-0.6,1.9-1.4,1.6-2.9c-0.5-2.7-1-5.4-1.5-8c-0.4-1.9-0.7-3.7-1.1-5.6c-0.3,2.4-0.9,4.7-1.5,7.1c-0.5,2.1-1,4.2-1.2,6.4
				c-0.1,1.2,0.4,2.3,1.5,2.9c0.3,0.1,0.5,0.3,0.5,0.7s-0.3,0.4-0.6,0.5C386.5,217.7,385.2,219,384.4,220.9z"/>
		</g>
	</g>
</g>
</svg>
