<?xml version="1.0" encoding="utf-8"?>
<!-- Generator: Adobe Illustrator 17.0.0, SVG Export Plug-In . SVG Version: 6.00 Build 0)  -->
<!DOCTYPE svg PUBLIC "-//W3C//DTD SVG 1.1//EN" "http://www.w3.org/Graphics/SVG/1.1/DTD/svg11.dtd" [
	<!ENTITY ns_flows "http://ns.adobe.com/Flows/1.0/">
	<!ENTITY ns_extend "http://ns.adobe.com/Extensibility/1.0/">
	<!ENTITY ns_ai "http://ns.adobe.com/AdobeIllustrator/10.0/">
	<!ENTITY ns_graphs "http://ns.adobe.com/Graphs/1.0/">
]>
<svg version="1.1" id="Layer_1" xmlns:x="&ns_extend;" xmlns:i="&ns_ai;" xmlns:graph="&ns_graphs;"
	 xmlns="http://www.w3.org/2000/svg" xmlns:xlink="http://www.w3.org/1999/xlink" xmlns:a="http://ns.adobe.com/AdobeSVGViewerExtensions/3.0/"
	 x="0px" y="0px" width="600px" height="600px" viewBox="0 0 600 600" style="enable-background:new 0 0 600 600;"
	 xml:space="preserve">
<style type="text/css">
	.st0{fill:#FE0000;stroke:#000000;stroke-miterlimit:10;}
	.st1{fill:#FFFFFF;stroke:#000000;stroke-miterlimit:10;}
	.st2{fill:#FFFFFF;}
	.st3{fill:#7C0014;}
	.st4{fill:#F959FF;stroke:#000000;stroke-miterlimit:10;}
	.st5{fill:#EA24AE;}
	.st6{fill:#0563E1;}
	.st7{fill:#0B0A11;}
	.st8{fill:#004D9B;}
	.st9{fill:#C20000;}
	.st10{fill:#0563E1;stroke:#000000;stroke-miterlimit:10;}
	.st11{fill:url(#SVGID_1_);stroke:#000000;stroke-miterlimit:10;}
	.st12{fill:url(#SVGID_2_);}
	.st13{fill:#8ADAC9;stroke:#000000;stroke-miterlimit:10;}
	.st14{fill:#23495B;stroke:#000000;stroke-miterlimit:10;}
	.st15{fill:#CAC5C0;}
	.st16{fill:#23495B;}
	.st17{fill:#1976C9;stroke:#000000;stroke-miterlimit:10;}
	.st18{fill:#02619F;}
	.st19{fill:#1976C9;}
	.st20{fill:#02619F;stroke:#1976C9;stroke-miterlimit:10;}
	.st21{fill:#77A4CB;stroke:#000000;stroke-miterlimit:10;}
	.st22{stroke:#EDF3F8;stroke-miterlimit:10;}
	.st23{fill:#77A4CB;}
	.st24{fill:#C7CCC4;}
	.st25{fill:#FFFA5B;stroke:#000000;stroke-miterlimit:10;}
	.st26{fill:#1E2A24;}
	.st27{fill:#EBF0F5;stroke:#000000;stroke-miterlimit:10;}
	.st28{fill:url(#SVGID_3_);}
	.st29{fill:url(#SVGID_4_);}
	.st30{fill:#FFB05B;}
	.st31{fill:#4FAFBF;stroke:#000000;stroke-miterlimit:10;}
	.st32{fill:#43DA98;stroke:#000000;stroke-miterlimit:10;}
	.st33{fill:#00B273;}
	.st34{fill:#43DA98;}
	.st35{fill:#00B273;stroke:#000000;stroke-miterlimit:10;}
	.st36{fill:#BC2567;stroke:#FFFFFF;stroke-miterlimit:10;}
	.st37{fill:#8B004D;stroke:#000000;stroke-miterlimit:10;}
	.st38{fill:#5B5B4F;stroke:#000000;stroke-miterlimit:10;}
	.st39{fill:#3A3F40;}
	.st40{fill:#E7C993;}
	.st41{fill:#8B004D;}
	.st42{fill:#5B5B4F;}
	.st43{fill:#F02233;stroke:#000000;stroke-miterlimit:10;}
	.st44{fill:#4E2664;stroke:#000000;stroke-miterlimit:10;}
	.st45{fill:#04829F;}
	.st46{adobe-knockout:true;}
	.st47{fill:none;stroke:#FFFFFF;stroke-width:3;stroke-miterlimit:10;adobe-knockout:false;}
	.st48{fill:#006F8C;}
	.st49{fill:#F32CBB;stroke:#000000;stroke-miterlimit:10;}
	.st50{fill:#C000AD;stroke:#000000;stroke-miterlimit:10;}
	.st51{fill:#6BBA4F;}
	.st52{fill:#03850D;}
	.st53{fill:#97C0DA;stroke:#000000;stroke-miterlimit:10;}
	.st54{fill:#83A5CB;}
	.st55{fill:#0453BC;}
	.st56{fill:#A79F96;}
	.st57{fill:#0CD3CA;stroke:#000000;stroke-miterlimit:10;}
	.st58{fill:#299AB8;}
	.st59{fill:#299AB8;stroke:#000000;stroke-miterlimit:10;}
	.st60{fill:#C000AD;}
	.st61{fill:#0099C7;}
	.st62{fill:#6E4D7F;stroke:#000000;stroke-miterlimit:10;}
	.st63{fill:#04829F;stroke:#000000;stroke-miterlimit:10;}
	.st64{fill:none;stroke:#EA24AE;stroke-width:8;stroke-miterlimit:10;}
	.st65{fill:#F959FF;}
	.st66{fill:#06A600;stroke:#000000;stroke-miterlimit:10;}
	.st67{fill:none;stroke:#15DB51;stroke-width:8;stroke-miterlimit:10;}
	.st68{fill:#06A600;}
	.st69{fill:#15DB51;stroke:#000000;stroke-miterlimit:10;}
	.st70{fill:#069400;}
	.st71{fill:#0066B3;}
	.st72{fill:#003644;}
	.st73{fill:#567481;}
	.st74{fill:none;stroke:#FFFFFF;stroke-width:3;stroke-miterlimit:10;}
	.st75{fill:url(#SVGID_5_);stroke:#FFFFFF;stroke-miterlimit:10;}
	.st76{fill:#B05040;}
	.st77{fill:#5C2633;}
	.st78{fill:none;stroke:#A7747F;stroke-width:3;stroke-miterlimit:10;}
	.st79{fill:#46A0BE;}
	.st80{fill:#005FA5;}
	.st81{fill:#FE9C14;}
	.st82{fill:#FED539;}
	.st83{fill:#3AC919;stroke:#000000;stroke-miterlimit:10;}
	.st84{fill:#2A9F02;}
	.st85{fill:#3AC919;}
	.st86{fill:#2A9F02;stroke:#000000;stroke-miterlimit:10;}
	.st87{fill:#FE144C;}
	.st88{fill:#FE5F39;}
	.st89{fill:#E91B00;}
	.st90{fill:#FE0000;}
	.st91{fill:#0005A4;stroke:#000000;stroke-miterlimit:10;}
	.st92{fill:#000578;}
	.st93{fill:#004FA4;}
	.st94{fill:#0005A4;stroke:#FFFFFF;stroke-miterlimit:10;}
	.st95{fill:#FFE60B;stroke:#000000;stroke-width:1.5;stroke-miterlimit:10;}
	.st96{fill:#ED1C24;}
	.st97{fill:#FFEE34;}
	.st98{fill:#FF4A49;}
	.st99{fill:none;stroke:#000000;stroke-miterlimit:10;}
	.st100{fill:#F97F7A;}
	.st101{fill:#6E4D7F;}
	.st102{fill:#CA0014;}
	.st103{fill:#382351;}
	.st104{fill:#01A663;}
	.st105{fill:#8ABE23;}
	.st106{fill:#1D1D1B;}
	.st107{fill:#FEFEFE;}
</style>
<path class="st43" d="M594.5,576.2c0-93.6-20.8-396.5-56.5-478.7c-11.6-26.7-84.7-58.1-155.5-80.1c-24.8-7.7-54.1-9.9-81.7-9.4
	c-27.8-0.6-61.4,1.3-86.4,9.1C143.6,39.2,74.6,70.8,63,97.5C27.2,179.7,6.5,482.7,6.5,576.2c8.8,6.4,17.7,7.6,67.5,9.8
	c10-134,52-285,52-285s-4.6,248-4.6,270c0.2,18.6,87.2,23.8,173.2,24v0c1,0,2.5,0,3.5,0c1,0,2.5,0,3.5,0v0
	c86-0.2,175.5-5.4,175.7-24c0-22-2.7-270-2.7-270s42.3,151,52.3,285C576.5,583.8,585.7,582.7,594.5,576.2z"/>
<g>
	<g>
		<polygon class="st100" points="124,166.3 191.9,118 117.7,140.5 113.1,125.8 279.3,74.7 209.2,124.6 347.1,83.3 306.2,124.1 
			452,78.4 415.4,124.7 506,99.8 489,122.3 374.9,150.9 408.8,108.2 250.9,157.6 292.9,115.6 		"/>
	</g>
	<g>
		<polygon class="st100" points="133.5,228.6 191.9,187 129,206.5 128.8,191.5 279.3,143.8 209.2,193.6 347.1,152.3 306.2,193.1 
			452,147.5 415.4,193.7 471.5,179.4 468.7,196 374.9,219.9 408.8,177.2 250.9,226.6 292.9,184.6 132.8,232.7 		"/>
	</g>
	<g>
		<polygon class="st100" points="124,304.3 191.9,256 137.3,272.5 132.7,257.8 279.3,212.8 209.2,262.7 347.1,221.3 306.2,262.2 
			452,216.5 415.4,262.7 464.7,249.2 468.5,264.1 374.9,289 408.8,246.2 250.9,295.6 292.9,253.7 		"/>
	</g>
	<g>
		<polygon class="st100" points="124,373.4 191.9,325.1 129,344.6 124.4,329.8 279.3,281.8 209.2,331.7 347.1,290.3 306.2,331.2 
			452,285.5 415.4,331.7 471.5,317.4 475.3,332.4 374.9,358 408.8,315.2 250.9,364.7 292.9,322.7 		"/>
	</g>
	<g>
		<polygon class="st100" points="124,442.4 191.9,394.1 129,413.6 124.4,398.8 279.3,350.8 209.2,400.7 347.1,359.3 306.2,400.2 
			452,354.5 415.4,400.8 471.5,386.5 475.3,401.4 374.9,427 408.8,384.3 250.9,433.7 292.9,391.7 		"/>
	</g>
	<g>
		<polygon class="st100" points="124,511.4 191.9,463.1 129,482.6 124.4,467.9 279.3,419.9 209.2,469.7 347.1,428.4 306.2,469.2 
			452,423.6 415.4,469.8 471.5,455.5 475.3,470.4 374.9,496 408.8,453.3 250.9,502.7 292.9,460.7 		"/>
	</g>
	<g>
		<polygon class="st100" points="124,580.4 191.9,532.1 129,551.6 124.4,536.9 279.3,488.9 209.2,538.8 347.1,497.4 306.2,538.3 
			452,492.6 415.4,538.8 471.5,524.5 475.3,539.5 374.9,565.1 408.8,522.3 250.9,571.7 292.9,529.8 		"/>
	</g>
</g>
<g>
	<g>
		<path class="st102" d="M227.5,28.7C240.3,46,262,62.5,298.1,62.5c36.2,0,56.3-16.8,67.4-34.5C335.2,31.1,259.9,30.8,227.5,28.7z"
			/>
		<path class="st43" d="M368.1,1c-17.6,5.3-142.2,2.9-148.6,0.6c-0.1,0.3-0.3,0.7-0.5,1.1c2.2,7.1,6.3,17.5,13.7,27.5
			c29.5,1.9,97.9,2.2,125.6-0.6c6.2-9.9,9.4-20.2,10.9-27.3C368.8,1.8,368.4,1.4,368.1,1z"/>
	</g>
	<path class="st43" d="M369.2,2.3c-4.1,18.7-19,58.7-72.2,58.7c-53.9,0-72.4-40.1-78-58.3c-2.9,5.3-13.9,16.7-13.9,16.7
		s14.4,61,89.9,61c76.5,0,86.6-58.7,87.7-63.1C380.6,16.4,373.4,6.9,369.2,2.3z"/>
</g>
<path class="st102" d="M70.4,88.6c0,0,77.1,9.2,55.7,220c-0.4,79.7-1.8,141.7-2.4,184.6c-0.7,46.5-0.8,70.5-0.8,71.6
	c0,3.2-0.6,7.5,0.8,9.2c0.7,1.1,1.7,2.3,3.4,3.5c4.7,3.4,15.3,6.5,27.3,8.8c-14.2-11.6-10.9-42.8-9.8-72.1c1.1-29.4-24-95.4-3-199.4
	c6.8-33.6-5.5-74.9-6-84C131.6,163.1,119.2,97.3,70.4,88.6z"/>
<path class="st102" d="M532.2,89c0,0-79.2,0.7-57.7,211.5c2.1,168.9,3.2,265.3,3.2,264.5c0-2.3,0,2.4,0,6.2c0,1.3-0.7,2.6-0.9,2.9
	c-0.7,1.1-2,2.2-3.6,3.4c-4.7,3.4-13.3,5.9-25.1,8.2c14.2-11.6,11.1-41.8,10-71.2c-1.1-29.4,24-95.4,3-199.4
	c-6.8-33.6,1.5-83.4,2-92.4C467,155.1,485.7,92,532.2,89z"/>
<g>
	<g>
		<polygon class="st104" points="388.9,179.1 402.8,175.9 408.9,188.7 420.1,197.5 413.8,210.3 413.9,224.5 400,227.7 388.9,236.6 
			377.8,227.7 364,224.5 364,210.3 357.8,197.5 368.9,188.7 375.1,175.9 		"/>
		<polygon class="st2" points="388.9,181 401.8,178 407.5,189.9 417.9,198.1 412.1,210 412.2,223.2 399.2,226.2 388.9,234.4 
			378.6,226.2 365.7,223.2 365.8,210 360,198.1 370.3,189.9 376,178 		"/>
		<polygon class="st104" points="388.9,182.7 400.9,179.9 406.2,191.1 415.9,198.7 410.5,209.8 410.5,222.1 398.5,224.8 
			388.9,232.4 379.3,224.8 367.3,222.1 367.4,209.8 362,198.7 371.6,191.1 376.9,179.9 		"/>
	</g>
	<g>
		<g>
			<path class="st2" d="M384.4,220.9c-0.1,0-0.2,0-0.4,0c-1.2-0.8-2.1-2-3.1-3c-0.8-0.8-1.7-1.2-2.8-1.2c-0.2,0-0.5,0.1-0.4-0.3
				c0-0.3,0.1-0.5,0.5-0.4c0.1,0,0.2,0,0.3,0c1.2-0.1,2-0.8,2-2.1c-0.1-2.3-0.8-4.5-1.2-6.7c-0.1-0.2-0.2-0.3-0.4-0.3
				c-1.6,0-2.3,0.5-2.2,2.1c0,0.1,0,0.1,0,0.1c0,0.4-0.2,0.4-0.5,0.4c-0.2,0-0.6,0.1-0.6-0.4c0-2,0-4.1,0-6.1c0-0.5,0.3-0.6,0.7-0.6
				c0.5,0,0.3,0.4,0.3,0.6c0,1.2,0.4,1.6,1.6,1.6c0.4,0,0.5-0.1,0.4-0.5c-0.5-2.3-1-4.6-1.5-6.9c-0.3-1.3-0.8-2.4-1.9-3.2
				c-0.7-0.6-1.5-0.4-2.1,0.2c-0.9,1-0.9,1.9,0.2,2.8c0.2,0.1,0.4,0.3,0.3,0.6c-0.1,0.3-0.4,0.2-0.7,0.1c-0.9-0.3-1.3-1-1.5-1.8
				c0-0.3,0-0.5,0-0.8c0.5-1.9,1.8-2.9,3.7-3.3c0.3-0.1,0.6,0,0.9-0.2c0.4,0,0.8,0,1.2,0c1.4,0.3,2.3,1.2,3.3,2.2
				c0.8,0.8,1.6,1.3,2.7,1.6c0.6,0.1,1.3,0.2,2,0.1c0.2,0,0.5-0.1,0.5,0.4c0,0.3,0,0.5-0.5,0.6c-1,0.1-1.7,0.8-1.9,1.8
				c-0.1,0.8-0.1,1.6,0.1,2.4c0.6,2.7,1.1,5.4,1.7,8.1c0.3,1.3,0.6,2.6,0.9,3.9c0.2-1,0.5-1.9,0.6-2.9c0.4-2.5,1.1-5,1.5-7.5
				c0.2-1.4,0.5-2.8,0.2-4.2c-0.1-0.8-0.4-1.4-1.3-1.7c-0.2-0.1-0.5-0.1-0.5-0.5c0.1-0.4,0.3-0.4,0.6-0.5c1.6-0.4,2.9-1.1,3.8-2.5
				c0.2-0.3,0.3-0.7,0.5-1.1c0.4,1.1,1.1,1.7,2,2.3c1,0.7,2.1,1.1,3.3,1.3c0.3,0.1,0.6,0,0.6,0.5c0,0.4-0.1,0.4-0.5,0.5
				c-0.9,0.1-1.4,0.6-1.6,1.5c-0.1,0.4-0.1,0.9-0.1,1.3c0,1.4,0.4,2.7,0.7,4c0.7,3.3,1.4,6.6,2.1,9.8c0.2,0.7,0.5,1.4,1.1,1.9
				c0-0.2,0-0.4,0-0.5c-0.3-1.4-0.1-2.7,0.2-4c0.8-3.1,1.5-6.1,2.3-9.2c0.5-2.2-0.4-3.9-2.5-4.8c-0.3-0.1-0.4-0.3-0.4-0.6
				c0-0.3,0.2-0.4,0.5-0.4c0.9-0.1,1.6-0.5,2.2-1.1c0.6-0.7,1.1-1.5,1.4-2.4c0.4,1.7,1.5,2.8,3.1,3.3c0.3,0.1,0.6,0.2,0.9,0.3
				c0,0.3,0,0.5,0,0.8c-0.1,0-0.2,0-0.3,0c-1.5,0.5-2.5,1.7-3,3.1c-1.3,3.9-2.2,7.9-3,11.9c-0.2,1-0.2,2.1,0.4,3.1
				c0.5,0.8,1.2,1.2,2.1,1.5c0.3,0.1,0.2,0.4,0.2,0.6c0,0.3-0.2,0.3-0.4,0.3c-0.9,0-1.7,0.2-2.5,0.6c-1.6,0.8-2.6,2.1-3.4,3.6
				c-0.1,0-0.1,0-0.2,0c-0.9-0.8-1.8-1.6-2.7-2.4c-0.9-0.8-1.8-1.6-3-1.8c-0.2-0.1-0.2-0.2-0.2-0.4c0-0.2,0-0.4,0.3-0.5
				c1.4-0.6,1.9-1.4,1.6-2.9c-0.5-2.7-1-5.4-1.5-8c-0.4-1.9-0.7-3.7-1.1-5.6c-0.3,2.4-0.9,4.7-1.5,7.1c-0.5,2.1-1,4.2-1.2,6.4
				c-0.1,1.2,0.4,2.3,1.5,2.9c0.3,0.1,0.5,0.3,0.5,0.7s-0.3,0.4-0.6,0.5C386.5,217.7,385.2,219,384.4,220.9z"/>
		</g>
	</g>
</g>
</svg>
