<?xml version="1.0" encoding="utf-8"?>
<!-- Generator: Adobe Illustrator 17.0.0, SVG Export Plug-In . SVG Version: 6.00 Build 0)  -->
<!DOCTYPE svg PUBLIC "-//W3C//DTD SVG 1.1//EN" "http://www.w3.org/Graphics/SVG/1.1/DTD/svg11.dtd" [
	<!ENTITY ns_flows "http://ns.adobe.com/Flows/1.0/">
	<!ENTITY ns_extend "http://ns.adobe.com/Extensibility/1.0/">
	<!ENTITY ns_ai "http://ns.adobe.com/AdobeIllustrator/10.0/">
	<!ENTITY ns_graphs "http://ns.adobe.com/Graphs/1.0/">
]>
<svg version="1.1" id="Layer_1" xmlns:x="&ns_extend;" xmlns:i="&ns_ai;" xmlns:graph="&ns_graphs;"
	 xmlns="http://www.w3.org/2000/svg" xmlns:xlink="http://www.w3.org/1999/xlink" xmlns:a="http://ns.adobe.com/AdobeSVGViewerExtensions/3.0/"
	 x="0px" y="0px" width="600px" height="600px" viewBox="0 0 600 600" style="enable-background:new 0 0 600 600;"
	 xml:space="preserve">
<style type="text/css">
	.st0{fill:#05297D;stroke:#000000;stroke-miterlimit:10;}
	.st1{fill:#527DD3;}
	.st2{fill:#E3E3E7;}
	.st3{fill:#302E29;}
	.st4{fill:#FFFFFF;stroke:#000000;stroke-miterlimit:10;}
	.st5{fill:#FFFFFF;}
	.st6{fill:#7C0014;}
	.st7{fill:#B1C49B;stroke:#000000;stroke-miterlimit:10;}
	.st8{fill:#8AA668;}
	.st9{fill:#7C7D14;stroke:#B1C49B;stroke-miterlimit:10;}
	.st10{fill:#4E3B64;stroke:#000000;stroke-miterlimit:10;}
	.st11{fill:#382351;}
	.st12{fill:#4E3B64;}
	.st13{stroke:#4E3B64;stroke-miterlimit:10;}
	.st14{fill:#EB5D12;stroke:#000000;stroke-miterlimit:10;}
	.st15{fill:#B85D12;}
	.st16{fill:#7C0014;stroke:#EB5D12;stroke-miterlimit:10;}
	.st17{fill:#631197;stroke:#000000;stroke-miterlimit:10;}
	.st18{fill:#58006C;}
	.st19{fill:#FE5561;}
	.st20{fill:#C2BEC8;}
	.st21{fill:#FD9D00;stroke:#000000;stroke-miterlimit:10;}
	.st22{fill:#DC8700;}
	.st23{fill:#7C0014;stroke:#FD9D00;stroke-miterlimit:10;}
	.st24{fill:#A69EF8;stroke:#000000;stroke-miterlimit:10;}
	.st25{fill:#8176F5;}
	.st26{fill:#7C0014;stroke:#A69EF8;stroke-miterlimit:10;}
	.st27{fill:#5C377E;stroke:#000000;stroke-miterlimit:10;}
	.st28{fill:#5C377E;}
	.st29{fill:#242424;stroke:#5C377E;stroke-miterlimit:10;}
	.st30{fill:#CAC5C0;}
	.st31{fill:#5C377E;stroke:#FFFFFF;stroke-miterlimit:10;}
	.st32{fill:#A4FEB7;stroke:#000000;stroke-miterlimit:10;}
	.st33{fill:#75D792;}
	.st34{fill:#E20227;stroke:#A4FEB7;stroke-miterlimit:10;}
	.st35{fill:#272F74;stroke:#000000;stroke-miterlimit:10;}
	.st36{fill:#272F74;}
	.st37{fill:#E20227;stroke:#000000;stroke-miterlimit:10;}
	.st38{fill:#EDF3F8;stroke:#000000;stroke-miterlimit:10;}
	.st39{fill:#E20227;}
	.st40{fill:#01615B;}
	.st41{fill:#B6CEE3;stroke:#000000;stroke-miterlimit:10;}
	.st42{fill:#E20227;stroke:#EDF3F8;stroke-miterlimit:10;}
	.st43{fill:#C7CCC4;}
	.st44{fill:#EDF3F8;stroke:#E20227;stroke-miterlimit:10;}
	.st45{fill:#B64D00;}
	.st46{fill:#BBE79B;stroke:#000000;stroke-miterlimit:10;}
	.st47{fill:#AA2EC8;stroke:#000000;stroke-miterlimit:10;}
	.st48{fill:#9700BB;}
	.st49{fill:#CBD0DE;stroke:#AA2EC8;stroke-miterlimit:10;}
	.st50{fill:#ECEEF3;stroke:#AA2EC8;stroke-miterlimit:10;}
	.st51{fill:none;stroke:#7C0014;stroke-width:8;stroke-miterlimit:10;}
	.st52{fill:none;stroke:#000000;stroke-width:8;stroke-miterlimit:10;}
	.st53{fill:#FFEB00;}
	.st54{fill:#625616;stroke:#000000;stroke-miterlimit:10;}
	.st55{fill:#1853A6;stroke:#1853A6;stroke-width:0.25;stroke-miterlimit:10;}
	.st56{fill:none;}
	.st57{fill:none;stroke:#1853A6;stroke-width:0.225;stroke-miterlimit:10;}
	.st58{fill:#1853A6;stroke:#1853A6;stroke-width:0.225;stroke-miterlimit:10;}
	.st59{fill:#625616;}
	.st60{stroke:#625616;stroke-miterlimit:10;}
	.st61{adobe-knockout:true;}
	.st62{fill:none;stroke:#FFFFFF;stroke-miterlimit:10;adobe-knockout:false;}
	.st63{fill:none;stroke:#5C377E;stroke-miterlimit:10;}
	.st64{fill:#97C266;}
	.st65{fill:#523900;stroke:#000000;stroke-miterlimit:10;}
	.st66{fill:#FF4A49;}
	.st67{fill:#3C6643;}
	.st68{fill:none;stroke:#FF4A49;stroke-width:0.2334;stroke-miterlimit:10;}
	.st69{fill:none;stroke:#01615B;stroke-width:8;stroke-linecap:round;stroke-miterlimit:10;}
	.st70{fill:#F1CF4D;stroke:#000000;stroke-miterlimit:10;}
	.st71{fill:#F7A161;}
	.st72{fill:#1C232F;}
	.st73{fill:#EDAA14;}
	.st74{fill:#096CB6;stroke:#F1CF4D;stroke-miterlimit:10;}
	.st75{fill:#0060CE;stroke:#000000;stroke-miterlimit:10;}
	.st76{fill:#E20227;stroke:#0060CE;stroke-miterlimit:10;}
	.st77{fill:#345F69;stroke:#000000;stroke-miterlimit:10;}
	.st78{fill:#114450;}
	.st79{fill:#C6FDEC;stroke:#000000;stroke-miterlimit:10;}
	.st80{fill:none;stroke:#E20227;stroke-width:8;stroke-linecap:round;stroke-miterlimit:10;}
	.st81{fill:none;stroke:#FFFFFF;stroke-width:8;stroke-linecap:round;stroke-miterlimit:10;}
	.st82{fill:#C673DA;}
	.st83{fill:#DC032B;}
	.st84{fill:#0165B2;}
	.st85{fill:#BBE79B;}
	.st86{fill:none;stroke:#FE5561;stroke-width:3;stroke-miterlimit:10;}
	.st87{fill:none;stroke:#9D9497;stroke-width:3;stroke-miterlimit:10;}
	.st88{fill:none;stroke:#C9C4C6;stroke-width:3;stroke-miterlimit:10;}
	.st89{fill:none;stroke:#E3E3E3;stroke-width:3;stroke-miterlimit:10;}
	.st90{fill:#0049B0;}
	.st91{fill:#9EE2D1;}
	.st92{fill:#096CB6;}
	.st93{fill:none;stroke:#0060CE;stroke-width:3;stroke-linecap:round;stroke-miterlimit:10;}
	.st94{fill:none;stroke:#F1CF4D;stroke-width:3;stroke-linecap:round;stroke-linejoin:round;stroke-miterlimit:10;}
	.st95{fill:none;stroke:#AA2EC8;stroke-miterlimit:10;}
	.st96{fill:url(#SVGID_1_);stroke:#C6FDEC;stroke-miterlimit:10;}
	.st97{fill:#096CB6;stroke:#C6FDEC;stroke-miterlimit:10;}
	.st98{stroke:#A0A0A0;stroke-miterlimit:10;}
	.st99{fill:#4B5459;}
	.st100{fill:#4E2664;stroke:#000000;stroke-miterlimit:10;}
	.st101{fill:#FFCF2B;stroke:#000000;stroke-miterlimit:10;}
	.st102{fill:#1C5DA4;}
	.st103{fill:#156A50;stroke:#000000;stroke-miterlimit:10;}
	.st104{fill:none;stroke:#FF7F35;stroke-width:11;stroke-miterlimit:10;}
	.st105{fill:#0F5A4B;}
	.st106{fill:#DAD2D8;stroke:#000000;stroke-miterlimit:10;}
	.st107{fill:#FF7F35;}
	.st108{fill:#ED1B23;}
	.st109{fill:#268FE1;stroke:#000000;stroke-miterlimit:10;}
	.st110{fill:#747785;stroke:#000000;stroke-miterlimit:10;}
	.st111{fill:#747785;}
	.st112{fill:#505C66;stroke:#747785;stroke-miterlimit:10;}
	.st113{fill:#0453BC;stroke:#000000;stroke-miterlimit:10;}
	.st114{fill:#0453BC;}
	.st115{fill:#073F98;stroke:#0453BC;stroke-miterlimit:10;}
	.st116{fill:#007BD8;}
	.st117{fill:#F9E42A;stroke:#000000;stroke-miterlimit:10;}
	.st118{fill:#1F2427;}
	.st119{fill:#F8C600;}
	.st120{fill:none;stroke:#000000;stroke-miterlimit:10;}
	.st121{fill:#4EC23A;}
	.st122{fill:#4EFE3A;stroke:#000000;stroke-miterlimit:10;}
	.st123{fill:#4EFE3A;}
	.st124{fill:#A8A8B4;}
	.st125{fill:#4EBD3A;}
	.st126{fill:url(#SVGID_2_);stroke:#000000;stroke-miterlimit:10;}
	.st127{fill:#E87140;stroke:#000000;stroke-miterlimit:10;}
	.st128{fill:#A02B00;stroke:#E87140;stroke-miterlimit:10;}
	.st129{fill:#00ABE9;stroke:#000000;stroke-miterlimit:10;}
	.st130{fill:#2C6AAD;}
	.st131{fill:#007BE9;}
	.st132{fill:#2C6AAD;stroke:#D0CDC1;stroke-miterlimit:10;}
	.st133{fill:#024D9E;}
	.st134{fill:#6B97C6;}
	.st135{fill:#000078;}
	.st136{fill:#073F98;}
	.st137{fill:#505C66;}
	.st138{fill:#ED936E;}
	.st139{fill:#0097D3;}
	.st140{fill:#1C232F;stroke:#F7A161;stroke-miterlimit:10;}
	.st141{fill:url(#SVGID_3_);stroke:#000000;stroke-miterlimit:10;}
	.st142{fill:#93CC00;}
	.st143{fill:none;stroke:#6DB52D;stroke-width:2;stroke-miterlimit:10;adobe-knockout:false;}
	.st144{fill:#1C232F;stroke:#93CC00;stroke-miterlimit:10;}
	.st145{fill:#1C232F;stroke:#1C232F;stroke-miterlimit:10;}
	.st146{stroke:#000000;stroke-miterlimit:10;}
	.st147{fill:#FF0000;stroke:#000000;stroke-miterlimit:10;}
	.st148{fill:#0F4B39;}
	.st149{fill:url(#SVGID_4_);}
	.st150{fill:#E48D78;stroke:#000000;stroke-miterlimit:10;}
	.st151{fill:#FF7F35;stroke:#156A50;stroke-miterlimit:10;}
	.st152{fill:url(#SVGID_5_);}
	.st153{fill:url(#SVGID_6_);}
	.st154{fill:none;stroke:#000000;stroke-miterlimit:10;adobe-knockout:false;}
	.st155{fill:#0361A4;}
	.st156{fill:#1C5DA4;stroke:#FFCF2B;stroke-miterlimit:10;}
	.st157{fill:#593486;}
	.st158{fill:#FFC918;}
	.st159{fill:#ED1C24;}
	.st160{fill:#268FE1;}
	.st161{fill:#0361A4;stroke:#268FE1;stroke-miterlimit:10;}
	.st162{adobe-knockout:false;}
	.st163{fill:none;stroke:#0453BC;stroke-miterlimit:10;}
	.st164{fill:none;stroke:#0453BC;stroke-width:3;stroke-linecap:round;stroke-miterlimit:10;adobe-knockout:false;}
	.st165{fill:none;stroke:#F9E42A;stroke-miterlimit:10;}
	.st166{fill:#1F2427;stroke:#F9E42A;stroke-miterlimit:10;}
	.st167{fill:none;stroke:#4EFE3A;stroke-width:11;stroke-miterlimit:10;}
	.st168{fill:#00254E;}
	.st169{fill:#05297D;}
	.st170{fill:#7D1E05;stroke:#000000;stroke-miterlimit:10;}
	.st171{fill:#D36B52;}
	.st172{fill:none;stroke:#AE61FF;stroke-width:11;stroke-miterlimit:10;}
	.st173{fill:#561A00;}
	.st174{fill:#6A1E05;}
	.st175{fill:#AE61FF;stroke:#7D1E05;stroke-miterlimit:10;}
	.st176{fill:#FDEA00;}
	.st177{fill:none;stroke:#A02B00;stroke-width:3;stroke-miterlimit:10;}
	.st178{fill:none;stroke:#EAA595;stroke-width:3;stroke-miterlimit:10;}
	.st179{fill:none;stroke:#F1F1F1;stroke-width:3;stroke-miterlimit:10;}
	.st180{fill:none;stroke:#FF7F35;stroke-width:6;stroke-miterlimit:10;}
	.st181{fill:#FF7F35;stroke:#DAD2D8;stroke-miterlimit:10;}
	.st182{fill:none;stroke:#FF0000;stroke-width:2;stroke-miterlimit:10;adobe-knockout:false;}
	.st183{fill:#F1E3C9;}
	.st184{fill:#F28330;}
	.st185{fill:#ED1B28;}
	.st186{fill:none;stroke:#FFFFFF;stroke-width:2;stroke-miterlimit:10;adobe-knockout:false;}
</style>
<path class="st110" d="M594.5,576.2c0-93.6-20.8-396.5-56.5-478.7c-11.6-26.7-84.7-58.1-155.5-80.1c-24.8-7.7-54.1-9.9-81.7-9.4
	c-27.8-0.6-61.4,1.3-86.4,9.1C143.6,39.2,74.6,70.8,63,97.5C27.2,179.7,6.5,482.7,6.5,576.2c8.8,6.4,17.7,7.6,67.5,9.8
	c10-134,52-285,52-285s-4.6,248-4.6,270c0.2,18.6,87.2,23.8,173.2,24v0c1,0,2.5,0,3.5,0c1,0,2.5,0,3.5,0v0
	c86-0.2,175.5-5.4,175.7-24c0-22-2.7-270-2.7-270s42.3,151,52.3,285C576.5,583.8,585.7,582.7,594.5,576.2z"/>
<g>
	<g>
		<path class="st111" d="M227.5,28.7C240.3,46,262,62.5,298.1,62.5c36.2,0,56.3-16.8,67.4-34.5C335.2,31.1,259.9,30.8,227.5,28.7z"
			/>
		<path class="st112" d="M368.1,1c-17.6,5.3-142.2,2.9-148.6,0.6c-0.1,0.3-0.3,0.7-0.5,1.1c2.2,7.1,6.3,17.5,13.7,27.5
			c29.5,1.9,97.9,2.2,125.6-0.6c6.2-9.9,9.4-20.2,10.9-27.3C368.8,1.8,368.4,1.4,368.1,1z"/>
	</g>
	<path class="st112" d="M369.2,2.3c-4.1,18.7-19,58.7-72.2,58.7c-53.9,0-72.4-40.1-78-58.3c-2.9,5.3-13.9,16.7-13.9,16.7
		s14.4,61,89.9,61c76.5,0,86.6-58.7,87.7-63.1C380.6,16.4,373.4,6.9,369.2,2.3z"/>
</g>
<path class="st137" d="M69.9,88.8c0,0,77.1,9.2,55.7,220c-0.4,79.7-1.8,141.7-2.4,184.6c-0.7,46.5-0.8,70.5-0.8,71.6
	c0,3.2-0.6,7.5,0.8,9.2c0.7,1.1,1.7,2.3,3.4,3.5c4.7,3.4,15.3,6.5,27.3,8.8c-14.2-11.6-10.9-42.8-9.8-72.1c1.1-29.4-24-95.4-3-199.4
	c6.8-33.6-5.5-74.9-6-84C131.1,163.3,118.7,97.5,69.9,88.8z"/>
<path class="st137" d="M531.8,89.2c0,0-79.2,0.7-57.7,211.5c2.1,168.9,3.2,265.3,3.2,264.5c0-2.3,0,2.4,0,6.2c0,1.3-0.7,2.6-0.9,2.9
	c-0.7,1.1-2,2.2-3.6,3.4c-4.7,3.4-13.3,5.9-25.1,8.2c14.2-11.6,11.1-41.8,10-71.2c-1.1-29.4,24-95.4,3-199.4
	c-6.8-33.6,1.5-83.4,2-92.4C466.5,155.3,485.2,92.2,531.8,89.2z"/>
<path class="st137" d="M527.4,585.4l-1.3-17.8c14.2-0.6,24.7-0.4,37.9-1.9c14.4-1.6,30-7.3,30-7.3v17.5c0,0-3,2.5-9,4.4
	c-5.2,1.6-21.7,3.6-31.3,3.9C536.5,584.9,527.4,585.4,527.4,585.4z"/>
<path class="st137" d="M73.9,585.4l1.3-17.8c-14.2-0.6-31.4-1-43.5-2.6c-14.4-2-25.2-7-25.2-7l0.1,18.3c0,0,3.4,2.4,9.4,4.3
	c5.2,1.6,21.8,3.4,31.4,3.7C64.8,584.9,73.9,585.4,73.9,585.4z"/>
<g class="st61">
	<g class="st162">
		<path class="st137" d="M316,594h-40V80c0,0,6.3,1.3,21,1.3c13.4,0,12.2-1.3,19-1.3V594z"/>
	</g>
	<g class="st162">
		<path class="st137" d="M263.6,593.8l-29.3-1.3c0-3.4,2.1-341.9,2.1-369.5c0-42.4-6.1-101.9-34.9-144.7
			c-16.9-25-38.2-40.2-38.4-40.3c0,0,16.3-8.3,30.4-10.7c25,18.4,72.2,69.9,72.2,195.7C265.7,250.7,263.6,590.4,263.6,593.8z"/>
	</g>
	<g class="st162">
		<path class="st137" d="M213.2,592.2l-18.7-1.5c0-3.7,4.1-319.4,4.1-374.7c0-111.4-71.3-163.7-70.9-161.9c0,0,10.3-6.5,18.6-9.2
			c7.4,6.5,20.7,19.6,32.8,37.8c17.4,26,38.1,70.2,38.1,133.3C217.3,271.4,213.2,588.5,213.2,592.2z"/>
	</g>
	<g class="st162">
		<path class="st137" d="M162.4,587.6l-7.6-1.4c0.1-2.8,6.2-279.2,6.2-362.2c0-109.6-65.1-153.4-65.8-153.8l6.6-3.5
			c0.7,0.5,16.7,9.4,33.5,34.7C150.7,124.6,169,164.6,169,224C169,307.1,162.5,584.8,162.4,587.6z"/>
	</g>
	<g class="st162">
		<path class="st137" d="M327.5,594.2l29.3-0.8c0-3.4-2.1-342.7-2.1-370.3c0-42.4,6.1-101.9,34.9-144.7c16.9-25,38.2-40.2,38.4-40.3
			c0,0,4.4-2,2.7-2.8c-8.2-3.8-21.7-8.2-28.7-10.3c-0.9-0.3-2.9,1.5-4.5,2.4c-25,18.4-72.2,69.9-72.2,195.7
			C325.4,250.7,327.4,590.7,327.5,594.2z"/>
	</g>
	<g class="st162">
		<path class="st137" d="M377.9,592.3l18.7-1c0-3.2-4.1-320-4.1-375.3c0-111.4,71.3-163.7,70.9-161.9c0,0,5.7-3.3,4.7-3.9
			c-2.8-1.7-13.9-6-19.4-8.2c-1-0.4-3,3.3-3.9,3c-7.4,6.5-20.7,19.6-32.8,37.8c-17.4,26-38.1,70.2-38.1,133.3
			C373.7,271.4,377.8,589.1,377.9,592.3z"/>
	</g>
	<g class="st162">
		<path class="st137" d="M428.3,588l8-1c-0.1-2.8-6.2-280-6.2-363c0-109.6,70.9-156.6,71.5-157.1l-7.9-4.4
			c-0.7,0.5-21.2,13.6-37.9,38.9c-15.4,23.2-33.7,63.2-33.7,122.6C422.1,307.1,428.2,585.2,428.3,588z"/>
	</g>
</g>
<g>
	<g>
		<g>
			<path class="st5" d="M394.3,238.2c-16.5,0-29.9-13.4-29.9-29.9s13.4-29.9,29.9-29.9c16.5,0,29.9,13.4,29.9,29.9
				S410.8,238.2,394.3,238.2z"/>
			<path class="st133" d="M394.3,179.6c7.7,0,14.9,3,20.3,8.4c5.4,5.4,8.4,12.6,8.4,20.3s-3,14.9-8.4,20.3
				c-5.4,5.4-12.6,8.4-20.3,8.4c-7.7,0-14.9-3-20.3-8.4c-5.4-5.4-8.4-12.6-8.4-20.3s3-14.9,8.4-20.3
				C379.4,182.6,386.7,179.6,394.3,179.6 M394.3,177.3c-17.1,0-31,13.9-31,31s13.9,31,31,31s31-13.9,31-31S411.5,177.3,394.3,177.3
				L394.3,177.3z"/>
		</g>
		<circle class="st134" cx="394.3" cy="208.3" r="26.3"/>
	</g>
	<g>
		<path class="st135" d="M405.4,200.1c-0.1-0.2-0.1-0.4,0.1-0.5c0.2-0.1,0.3,0,0.4,0.2c0.1,0.1,0.2,0.3,0.3,0.5c0,0,0.1,0.1,0.1,0.1
			c0,0,0.1-0.1,0.1-0.1c0-0.1,0-0.3-0.1-0.4s-0.1-0.3-0.2-0.4c0-0.1,0-0.3,0.2-0.3s0.3,0,0.4,0.1c0.1,0.1,0.1,0.3,0.3,0.2
			c0.2-0.1,0-0.2,0-0.4c-0.1-0.3-0.1-0.6,0-0.9c-0.2,0.1-0.4,0.2-0.6,0.4c-0.2,0.2-0.5,0.3-0.7,0.5c-0.1,0.1-0.2,0.1-0.3,0.1
			c-0.8,0.4-1.2,0.7-1.8,0.9c-0.2,0.1-0.5,0.2-0.8,0.2c-0.2,0-0.4-0.1-0.4-0.3c-0.1-0.2,0.1-0.2,0.3-0.3c1.6-0.6,3-1.4,4.3-2.6
			c0,0,0,0,0.1,0c0.3-0.2,0.5-0.2,0.8,0.2c0.2-0.3,0.2-0.6,0.3-1c0-0.6,0-1.3,0.2-1.9c0.3-0.9,0.7-1.7,1.5-2.2
			c0.3-0.2,0.7-0.3,1.1-0.4c0.2,0,0.2,0.1,0.2,0.2c-0.1,0.4-0.2,0.6-0.6,0.8s-0.6,0.4-0.7,0.8c0,0.1,0,0.1,0,0.2c0,0,0.1,0,0.1-0.1
			c0.2-0.2,0.6-0.3,0.9-0.4c0.2-0.1,0.3,0,0.2,0.2c0,0.4-0.2,0.7-0.5,0.9c-0.3,0.2-0.5,0.4-0.6,0.8c0,0.1,0,0.2,0,0.2
			c0.1,0.1,0.1-0.1,0.2-0.1c0.2-0.2,0.4-0.3,0.6-0.5c0.1-0.1,0.2-0.1,0.2,0.1c0,0.7,0,1.3-0.1,1.9c-0.1,0.6-0.4,0.9-0.8,1.3
			c-0.2,0.2-0.2,0.5-0.2,0.8c0.1,0.4,0.5,0.7,1,0.6c0.2-0.1,0.3,0,0.2,0.2c0,0.3-0.1,0.6-0.2,0.8c-0.3,0.5-0.8,0.7-1.4,0.5
			c-0.2-0.1-0.5-0.1-0.7-0.1c-0.2,0-0.2-0.1-0.2-0.2c0-0.2,0-0.3,0.1-0.5c-0.3,0.1-0.4,0.5-0.4,0.9c0.1,0.2,0.2,0.4,0.3,0.6
			c0.5,0.6,0.5,1.1,0.2,1.8c-0.2,0.4-0.5,0.8-0.9,1.1c0,0-0.1,0.1-0.1,0.1c-0.1,0-0.1-0.1-0.1-0.2c0-0.4,0-0.8-0.1-1.1
			c0-0.1-0.1-0.2-0.2-0.3c-0.1-0.1-0.2-0.1-0.4,0c-0.2,0.1-0.2,0.2-0.2,0.3c0,0.2,0.1,0.4,0.1,0.6c0.1,0.4,0,0.9-0.1,1.3
			c0,0.2-0.1,0.2-0.3,0.2c-0.4-0.1-0.7-0.2-1.1-0.3c-0.4-0.1-0.6-0.3-0.6-0.7c-0.2-1.1-0.6-2.2-1.3-3.2c-0.1-0.2-0.1-0.3,0.1-0.4
			c0.1-0.1,0.3-0.1,0.4,0.1c0.3,0.3,0.4,0.7,0.6,1.1c0,0.1,0,0.1,0.1,0.1s0.1-0.1,0.1-0.2c0-0.2,0-0.4-0.1-0.6
			c-0.1-0.2-0.2-0.4-0.2-0.6c0-0.1,0-0.2,0.1-0.3s0.2,0,0.3,0.1c0.2,0.2,0.3,0.5,0.4,0.7c0.1,0.1,0.1,0.2,0.2,0.2
			c0.1,0,0.1-0.2,0.1-0.3c0-0.1,0-0.1,0-0.2C405.6,200.6,405.5,200.2,405.4,200.1z"/>
		<path class="st135" d="M398.3,195.8c0.3-0.7,0.8-1,1.5-1.1c0.9-0.1,1.7,0.1,2.5,0.4c0.3,0.1,0.6,0.2,0.9,0.3c0.6,0.1,1,0,1.4-0.5
			c0.4-0.5,0.2-1,0-1.5c0-0.1-0.1-0.1-0.1-0.1c0-0.1-0.2-0.2-0.2-0.3c0.1-0.1,0.2,0,0.4,0c0.8,0.2,1.2,1.2,0.8,2
			c-0.3,0.7-0.8,0.9-1.5,1c-0.6,0.1-1.1-0.1-1.7-0.3c-0.4-0.2-0.8-0.3-1.2-0.4c-0.9-0.3-1.8-0.2-2.6,0.4
			C398.5,195.7,398.5,195.8,398.3,195.8z"/>
		<path class="st135" d="M389.1,201c-0.1,0.3,0,0.6,0.4,0.7c0.1,0,0.2,0.1,0.2,0.2c0.2,0.5,0.3,1.1,0.2,1.7
			c-0.1,0.5-0.2,0.7-0.7,0.8c-0.1,0-0.3,0.1-0.4,0c-0.5,0-0.5,0-0.3-0.4c0.2-0.5,0.1-0.9-0.1-1.4c-0.1-0.2-0.2-0.5-0.4-0.8
			c-0.1-0.3-0.2-0.6,0.1-0.9c0.3-0.3,0.4-0.8,0.5-1.2c0-0.1,0-0.1,0.1-0.1c0.1,0,0.1,0.1,0.1,0.1C388.9,200.2,389.2,200.5,389.1,201
			z"/>
		<path class="st135" d="M392.5,193.9c0,0,0-0.1,0.1-0.1c0.1,0,0.1,0.1,0.1,0.1c0.2,0.2,0.4,0.5,0.5,0.7c0.1,0.1,0.1,0.3,0,0.4
			c-0.2,0.1-0.3,0.1-0.5,0c-0.1-0.1-0.1-0.3-0.1-0.5C392.6,194.3,392.5,194.1,392.5,193.9z"/>
		<path class="st135" d="M397.6,223.1c0,0.2-0.3,0.4-0.5,0.4c-0.1,0-0.4-0.2-0.3-0.4c0.1-0.2,0.3-0.2,0.5-0.2
			C397.5,222.9,397.6,223,397.6,223.1z"/>
		<path class="st135" d="M395.2,192.4c0,0.1-0.1,0.2-0.1,0.2c-0.2,0-0.2-0.2-0.2-0.3c0-0.1,0-0.3,0.1-0.2
			C395.1,192.1,395.1,192.3,395.2,192.4z"/>
		<path class="st135" d="M391,226.6c0.1,0.1,0.2-0.1,0.2,0.1c0,0.1-0.1,0.2-0.2,0.2c-0.1,0-0.2-0.1-0.2-0.2
			C390.8,226.5,390.9,226.6,391,226.6z"/>
		<path class="st135" d="M395.6,192.8c0,0.1-0.1,0.1-0.1,0.1c-0.1,0-0.2-0.1-0.2-0.2c0-0.1,0-0.1,0.1-0.1
			C395.5,192.6,395.6,192.7,395.6,192.8z"/>
		<path class="st135" d="M414.3,206.2c-0.6-0.6-1.4-0.9-2.4-0.9c-1.5,0.1-2.6,0.8-3.5,1.9c-0.4,0.5-0.8,1-1.2,1.5
			c0,0.1-0.1,0.2-0.2,0.1c-0.1,0-0.1-0.1-0.1-0.2c0-0.2,0.1-0.4,0.2-0.6c0.1-0.1,0.2-0.3,0-0.4c-0.2-0.2-0.3,0-0.5,0.1
			c-0.1,0.1-0.1,0.1-0.2,0.2c-0.2,0.2-0.3,0.4-0.5,0.6c0,0.1-0.1,0.2-0.2,0.1c-0.1-0.1-0.1-0.2-0.1-0.2c0-0.2,0.1-0.5,0.2-0.7
			c0.1-0.2-0.1-0.4-0.3-0.3c-0.2,0-0.3,0.1-0.4,0.3c-0.1,0.2-0.2,0.4-0.4,0.6c0-0.1-0.1-0.1-0.1-0.2c0-0.2,0.1-0.4,0.1-0.6
			c0.1-0.1,0.1-0.3,0-0.4c-0.1-0.1-0.3-0.1-0.4,0c-0.2,0.1-0.4,0.3-0.5,0.5c0,0,0,0.1-0.1,0.1c-0.1,0,0-0.1,0-0.2
			c0-0.2,0-0.3,0.1-0.5c0-0.1,0.1-0.2,0-0.3c-0.1-0.1-0.2-0.1-0.4-0.1c-0.1,0-0.2,0.1-0.3,0.3c0,0.1-0.1,0.1-0.1,0.1
			c-0.1,0-0.1-0.1-0.1-0.1c0-0.3,0.4-0.6,0.6-0.6c1,0.3,2,0.6,3,0.8c0.3,0.1,0.6,0.1,1,0c0.2-0.1,0.3-0.2,0.3-0.4s-0.1-0.3-0.3-0.4
			c-0.1-0.1-0.2-0.1-0.2-0.1c-2.5-0.5-4.7-1.4-6.8-2.7c-0.1-0.1-0.2-0.1-0.2-0.2c0.1,0,0.1,0,0.1,0c0.6-0.1,1.2,0.1,1.8,0.4
			c0.5,0.2,0.9,0.5,1.4,0.7c0.1,0,0.1,0.1,0.2,0c0,0,0-0.1,0-0.2c-0.1-0.4-0.2-0.9-0.4-1.2c-0.5-1.2-1.2-2.2-2.4-2.9
			c-0.8-0.4-1.6-0.7-2.4-0.9c-1.2-0.3-2.2-0.9-2.8-1.9c0-0.1-0.1-0.1,0-0.1c0,0,0,0,0.1,0c0.8,0.7,1.7,1.1,2.8,1
			c0.2,0,0.3,0.1,0.4,0.1c0.2,0.2,0.5,0.4,0.8,0.6c0.6,0.3,1.2,0.1,1.6-0.4c0.1-0.2,0.1-0.2-0.1-0.4c-0.4-0.2-0.7-0.4-1-0.7
			c-0.2-0.3-0.2-0.4,0-0.6c0.2-0.1,0.2-0.4,0.2-0.6c0-0.2-0.1-0.3-0.4-0.3c-0.1,0-0.1-0.1-0.2-0.1c-0.1-0.1-0.1-0.1-0.2-0.1
			c-0.1,0.1-0.1,0.2,0,0.2c0,0.1,0,0.2-0.1,0.3s-0.2-0.1-0.2-0.2c-0.1-0.1-0.1-0.1-0.1-0.1c-0.1,0-0.1,0.1-0.1,0.1
			c0,0.1,0,0.1,0,0.1c0,0.1,0,0.2-0.1,0.2c-0.1,0-0.2-0.1-0.2-0.1s-0.1-0.2-0.2-0.2c-0.1,0-0.1,0.2-0.1,0.2c0,0.2-0.1,0.2-0.2,0.2
			c-0.5-0.2-0.8-0.5-1-1c-0.1-0.4,0.4-0.9,0.8-0.8c0.1,0,0.1,0,0.2-0.1c0.1-0.2,0.2-0.2,0.3-0.1c0.1,0.1,0.1,0.1,0.2,0
			c0.2-0.3,0.2-0.3,0.4,0c0,0,0.1,0.1,0.1,0.1c0.1,0,0.1-0.1,0.1-0.1c0-0.1,0.1-0.2,0.2-0.2s0.1,0.1,0.2,0.2c0.1,0.2,0.2,0.2,0.2,0
			c0.1-0.1,0.1-0.2,0.3-0.2c0.6-0.1,0.9-0.7,0.6-1.3c-0.1-0.1-0.1-0.1-0.2-0.1c-0.1,0.1-0.3,0-0.4-0.1c-0.1-0.1-0.1-0.1-0.1-0.2
			c0-0.1,0.1,0,0.2,0c0.2,0.1,0.4,0.1,0.5-0.1c0.1-0.2,0.1-0.5-0.1-0.6c-0.2-0.2-0.4-0.2-0.6-0.3c-0.5-0.1-1-0.3-1.6-0.4
			c-0.1,0-0.2,0-0.3,0c-0.3,0.1-0.4,0-0.6-0.2c-0.1-0.2-0.2-0.5-0.6-0.5c-0.1,0-0.1-0.1-0.1-0.1c0-0.1-0.1-0.2-0.2-0.2
			c-0.2-0.2-0.6-0.3-0.9-0.3c-1-0.2-2-0.1-3,0.1c-0.2,0.1-0.5,0.1-0.8,0.1c-0.2,0.1-0.2,0.2-0.2,0.4c0,0.1,0.1,0.3,0.3,0.2
			c0.5-0.2,1-0.2,1.4-0.3c0.7-0.1,1.4-0.1,2.1,0.1c0.1,0,0.2,0,0.2,0.2c-0.1,0-0.2,0-0.3,0c-0.5,0-1,0-1.4,0.1c-0.1,0-0.1,0-0.1,0
			c-1,0-1.7,1-1.8,1.1c-0.2,0.2-0.4,0.2-0.8,0c-0.6-0.3-1.1-0.6-1.5-1.1c-0.2-0.2-0.2-0.2-0.3,0.1c-0.1,0.2-0.1,0.4-0.2,0.6
			c0,0,0,0-0.1-0.1c0-0.1,0-0.1,0-0.1c-0.1-0.4,0-0.8,0.4-1.1c0.1-0.1,0.2-0.1,0.4,0c0.4,0.4,0.8,0.7,1.3,1.1
			c0.2,0.1,0.5,0.2,0.8,0.3c0.2,0,0.4-0.1,0.2-0.3c0-0.1-0.1-0.2-0.2-0.2c-0.8-0.5-1.5-1.1-2.1-1.8c-0.1-0.1-0.2-0.1-0.3,0
			c-0.3,0.3-0.7,0.7-0.9,1.2c-0.4,0.8-0.2,1.5,0.5,2c0.3,0.2,0.6,0.4,1,0.6c0.1,0,0.1,0.1,0.2,0.2c-0.6-0.2-1.2-0.4-1.8-0.9
			c-0.3-0.3-0.5-0.6-0.6-1.1c0-0.1,0-0.2-0.2-0.2c-0.3-0.2-0.6-0.4-1-0.5c-0.1-0.1-0.2-0.1-0.2,0c-0.3,0.5-0.5,1-0.5,1.6
			c0,0.6,0.5,1.1,1,1.2c0.2,0,0.3,0,0.4-0.1c0.1-0.2-0.1-0.2-0.2-0.3c-0.2-0.2-0.4-0.4-0.5-0.6c-0.1-0.1-0.1-0.2,0-0.3
			c0.3,0.4,0.6,0.7,1.1,0.8c0.1,0,0.2,0.1,0.2,0.2s0,0.2-0.1,0.2c-0.5,0.4-0.8,0.9-1.1,1.4c-0.2,0.4-0.4,0.9-0.7,1.4
			c-0.2,0.5-0.6,1-1.2,1.1c-0.1,0-0.1,0.1-0.1,0.2c0.2,0.4,0.8,0.7,1.2,0.6c0.1-0.1,0.2-0.1,0.2-0.3c0-0.2-0.1-0.4,0.1-0.6
			c0.1,0,0.1,0.1,0.1,0.1c0.1,0.3,0.2,0.6,0.4,0.9c0.2,0.3,0.5,0.2,0.6-0.1c0.1-0.2,0.1-0.5,0.1-0.8c-0.1-0.5-0.2-1-0.2-1.5
			c0-0.6,0.1-0.8,0.4-1.3c0-0.1,0.1-0.2,0.2-0.3c0,0.2-0.1,0.4,0,0.5c0.2,0.2,0.1,0.4,0,0.5c-0.1,0.1-0.2,0.2-0.2,0.4
			c0,0.5,0,1,0.1,1.4c0.1,0.1,0.2,0.3,0.3,0.3s0.3-0.1,0.4-0.2c0.1-0.5,0.1-0.9-0.1-1.3c-0.1-0.2-0.1-0.4,0-0.5
			c0.1-0.2,0.2-0.4,0.3-0.6c0.1-0.1,0.1-0.4,0.3-0.4c0.1,0.1,0,0.2,0,0.3c0,0.2,0,0.3,0.1,0.4c0.3,0.2,0.3,0.5,0.1,0.8
			c-0.1,0.1-0.1,0.2,0,0.4c0.1,0.1,0.2,0.1,0.3,0.1c0.2-0.1,0.5-0.3,0.4-0.6c-0.1-0.5,0.1-0.9,0.4-1.4c0.1-0.1,0.1-0.1,0.2-0.1
			c-0.1,0.3-0.1,0.6-0.2,0.9c0,0.1,0,0.2,0,0.2c0,0,0,0.1,0,0.1l0,0c0.1,0.2,0.1,0.3,0,0.4c-0.1,0.1-0.1,0.2-0.2,0.3
			c-0.1,0.2-0.3,0.4-0.5,0.4c0,0-0.1,0.1-0.1,0.1c0,0-0.1,0-0.1,0c-0.1,0-0.1,0.1-0.1,0.2c0,0,0,0.1,0,0.1c-0.1,0.4-0.4,0.7-0.9,0.8
			c-0.2,0.1-0.4,0.2-0.5,0.4c-0.2,0.5-0.8,0.7-1.2,0.4c-0.2-0.2-0.2-0.2-0.4,0.1c-0.2,0.4-0.1,0.8-0.1,1.2c0,0.7-0.1,1.2-0.6,1.7
			c-0.1,0.1-0.1,0.1,0,0.2c0.3,0.2,0.5,0.3,0.9,0.2c0.4-0.1,0.6-0.4,0.8-0.7c0.3-0.5,0.4-1.1,0.5-1.6c0-0.1,0-0.2,0.1-0.3
			c0.1,0.1,0.1,0.1,0.1,0.2c0.2,0.4,0.4,0.9,0.6,1.3c0.1,0.1,0.1,0.2,0.2,0.3c0.2,0.1,0.3,0.3,0.4,0.5s0.2,0.4,0.4,0.5
			c0.2,0.1,0.5,0,0.6-0.2c0.3-0.4,0-1.4-0.5-1.5h0c-0.3-0.1-0.4-0.3-0.4-0.6c0.1-0.3,0.3-0.7,0.2-1c0.2,0.1,0.1,0.3,0.4,0.4
			c0.2,0.1,0.3,0.2,0.3,0.4c0,0.5,0.3,0.9,0.6,1.3c0.2,0.2,0.4,0.2,0.6,0.1c0.3-0.1,0.3-0.4,0.3-0.6c0-0.2,0-0.4-0.3-0.5
			c-0.3-0.1-0.4-0.2-0.4-0.5c0-0.2,0-0.4-0.1-0.6l0,0v0c0-0.1,0-0.1,0-0.1c-0.1-0.2-0.1-0.7,0-0.8c0-0.2,0.1-0.4,0.1-0.4
			s0.1,0.1,0.2,0.4c0.1,0.2,0.1,0.3,0.3,0.4c0.3,0.3,0.6,0.6,0.6,1.2c0,0.2,0.3,0.4,0.5,0.4c0.2,0,0.4-0.2,0.4-0.5c0,0,0-0.1,0-0.1
			c0-0.2,0-0.3-0.1-0.5c-0.2-0.4-0.5-0.8-0.8-1.2c-0.1-0.1-0.2-0.2-0.4-0.2c-0.3,0-0.4-0.2-0.4-0.5c0-0.2,0-0.3,0.1-0.5
			c0-0.1,0-0.1,0-0.2c0-0.1,0-0.2,0-0.3c0-0.1,0-0.1,0-0.2c0-0.4,0-0.7,0-0.9c0,0,0,0,0-0.1c0.1-0.2,0.1-0.5,0.2-0.7
			c0.1,0.1,0,0.1,0,0.2c0,0.1,0,0.2,0,0.4c0.1,0.4,0.1,0.8,0.2,1.1c0.1,0.1,0.1,0.2,0.2,0.3c0,0,0,0.1,0.1,0.1
			c0.1,0.1,0.1,0.2,0.1,0.4c0,0.2,0,0.3,0.1,0.5c0.3,0.4,0.6,0.8,1,1.1c0,0.1,0.1,0.1,0.2,0.1c0.1-0.1,0-0.1,0-0.2
			c-0.3-0.5-0.5-1-0.6-1.6c-0.1-0.2-0.1-0.4,0-0.7c0-0.1,0-0.1,0-0.1s0.1,0,0.1,0.1c0,0.1,0,0.1,0,0.2c0.6,1.6,1.5,2.9,3,3.8
			c0.8,0.6,1.8,0.9,2.8,1.2c0.9,0.4,1.7,0.9,2.2,1.7c0,0,0.1,0.1,0,0.2c0-0.1-0.1-0.1-0.2-0.1c-0.7-0.6-1.6-0.9-2.4-1.3
			c-0.1,0-0.2-0.1-0.3,0c0,0.1,0.1,0.1,0.1,0.2c0.2,0.2,0.5,0.5,0.7,0.9c0.2,0.4,0.1,1-0.3,1.3c-0.2,0.2-0.5,0.2-0.8,0.1
			c-0.1-0.1-0.1-0.1,0-0.2c0.5-0.3,0.5-0.7,0.2-1.1c-0.2-0.3-0.5-0.5-0.8-0.6c-1.4-0.8-2.7-1.6-3.9-2.7c0,0-0.1-0.1-0.1-0.1
			c0,0,0,0.1,0,0.1c0.2,0.9-0.4,1.4-1.3,1.3c-0.2,0-0.2,0-0.2,0.2c-0.1,0.7-0.5,1-1.1,1c-0.2,0-0.2,0-0.3,0.2
			c-0.1,0.6-0.5,0.9-1.1,0.8c-0.2,0-0.3,0.1-0.2,0.3c0.2,0.5,0.3,1,0.2,1.6c0,0,0,0.1,0,0.1c0,0.4,0.1,0.7,0.4,1
			c0.5,0.6,0.9,1.1,0.7,1.9c0,0.1,0.1,0.1,0.2,0.1c0.8-0.1,1.1-0.4,1-1.2c-0.1-0.5-0.2-1-0.6-1.4c-0.2-0.3-0.4-0.6-0.4-0.9
			c0.2,0.1,0.3,0.3,0.5,0.4c0.2,0.3,0.4,0.6,0.7,0.9c0.1,0.2,0.4,0.3,0.6,0.2c0.2-0.1,0.4-0.4,0.4-0.6c-0.1-0.3-0.4-0.7-0.6-0.7
			c-0.5-0.1-0.6-0.2-0.6-0.7c0-0.2,0-0.5-0.1-0.7c0-0.1-0.1-0.1,0-0.3c0.2,0.2,0.4,0.4,0.7,0.5c0.1,0,0.2,0.2,0.2,0.3
			c0,0.4,0.3,0.7,0.5,1c0.3,0.4,0.6,0.8,0.9,1.1c0.3,0.2,0.7,0.4,1,0.2c0.2-0.1,0.2-0.2,0.2-0.4s-0.8-1-1-1c0,0,0,0,0,0
			c-0.5-0.1-0.7-0.2-0.7-0.8c0-0.4-0.2-0.8-0.4-1.1c-0.1-0.2-0.3-0.4-0.3-0.7c0.2,0.2,0.4,0.4,0.6,0.7c0.1,0.1,0.2,0.2,0.4,0.2
			c0.5,0,0.6,0.2,0.7,0.7c0,0.1,0,0.2,0.1,0.3c0.5,0.5,0.9,1.1,1.5,1.6c0.4,0.3,0.7,0.4,0.9,0.1c0.2-0.2,0.2-0.6-0.1-0.9
			c-0.1-0.1-0.2-0.2-0.4-0.2c-0.5,0-0.7-0.1-0.7-0.6c-0.1-0.3-0.2-0.6-0.4-0.9c-0.4-0.5-0.8-1-1.1-1.6c-0.1-0.1-0.1-0.2-0.1-0.3
			c0.6,0.6,1.2,1,1.7,1.6c0.1,0.1,0.2,0.2,0.4,0.2c0.3,0,0.5,0.2,0.5,0.5c0,0.1,0.1,0.3,0.2,0.4c0.5,0.5,0.9,1.1,1.7,1.1
			c0.2,0,0.2,0.2,0.1,0.3c-0.1,0.2-0.3,0.4-0.6,0.4c-0.2,0-0.2,0.1-0.3,0.2c-0.1,0.4-0.3,0.5-0.7,0.6c-0.5,0.1-0.9,0.1-1.3-0.1
			c-0.2-0.1-0.3-0.1-0.5,0c-0.2,0.2-0.5,0.2-0.8,0.1c-0.4,0-0.7-0.1-1-0.3c-0.4-0.2-0.7-0.2-1,0c-0.1,0.1-0.1,0.1-0.1,0.2
			c0,0.4-0.1,0.8-0.2,1.1c-0.3,1.5-1,2.8-2.1,3.8c-1.6,1.5-3.1,3.2-4.7,4.7c-0.2,0.2-0.5,0.4-0.8,0.6c-0.9,0.3-1.7,0.2-2.5-0.4
			c-0.1-0.1-0.3-0.3-0.5-0.4c0.3,0.8,0.8,1.2,1.5,1.6c0,0,0,0-0.1,0c0,0-0.1,0-0.1,0c-0.5,0-1-0.3-1.3-0.7c-1-1.2-0.9-3.1,0.2-4.2
			c1-1.1,2.1-2.1,3.1-3.2c1.1-1.2,1.3-3.1,0.5-4.5c-0.4-0.7-0.9-1.1-1.5-1.5c-0.3-0.2-0.6-0.4-0.9-0.7c-0.3-0.4-0.2-0.8,0.3-0.9
			c0.2-0.1,0.2-0.1,0.1-0.3c-0.3-0.3-0.7-0.5-1.1-0.3c-0.5,0.2-0.8,0.4-0.9,1c0,0.1,0,0.3-0.1,0.3c-0.2,0-0.3-0.1-0.3-0.3
			c0-0.2,0-0.4,0-0.5c0.2-0.4,0.5-0.7,0.8-0.9c0,0,0.1-0.1,0.1-0.1c0-0.1-0.1-0.1-0.1-0.1c-0.4-0.1-0.7-0.1-1.1,0
			c-0.7,0.1-1.2,0.5-1.3,1.1c-0.1,0.3-0.1,0.5,0,0.8c0,0.1,0,0.2-0.1,0.3c-0.1,0.1-0.2,0-0.3-0.1c-0.1-0.1-0.2-0.2-0.3-0.4
			c-0.1-0.2-0.2-0.4-0.4-0.5c-0.5-0.5-1.2-0.4-1.5,0.2c-0.1,0.2-0.1,0.2,0.1,0.4c0.5,0.2,0.8,0.6,1,1.1c0.2,0.5-0.1,1.2-0.5,1.3
			c-0.1,0-0.1,0.1-0.2,0c-0.1-0.1,0-0.1,0.1-0.2c0-0.1,0.1-0.1,0.1-0.2c0.1-0.2,0.1-0.3-0.1-0.3c-0.2,0-0.4-0.1-0.6-0.1
			c-1.2-0.4-1.8-1.3-2.2-2.4c-0.3-0.8-0.2-1.6,0.4-2.3c0.1-0.1,0.1-0.2,0.3-0.2c0.1,0.1,0,0.2-0.1,0.3c-0.2,0.4-0.4,0.8-0.4,1.3
			c0,0.1,0,0.2,0.1,0.2c0.1,0,0.1-0.1,0.1-0.2c0.1-0.2,0.2-0.5,0.3-0.6c0.7-0.8,1.4-1.6,2.4-2.1c1.2-0.6,2.4-1.4,3.3-2.4
			c0.5-0.6,0.9-1.2,1-1.9c0.1-1.3,0-2.2-1.3-3c-0.1-0.1-0.3-0.2-0.5-0.3c-0.8-0.3-1.1-0.9-1.1-1.8c0-0.2,0-0.4,0.1-0.6
			c-0.1,0-0.1,0-0.1,0.1c-0.4,0.5-0.6,1-0.4,1.7c0.1,0.4,0.4,0.7,0.7,0.9c0.2,0.2,0.5,0.4,0.7,0.6c0.4,0.3,0.8,0.7,1,1.2
			c0,0.1,0.1,0.2,0,0.4c-0.5-0.8-1.2-1.2-1.9-1.7c-0.7-0.6-1.1-1.3-1-2.3c0-0.1,0-0.1-0.1-0.1c-0.2,0.2-0.3,0.4-0.5,0.7
			c-0.4,1,0,1.7,0.6,2.5c0.3,0.4,0.7,0.6,1,1c0.1,0.1,0.2,0.2,0.2,0.3c0,0.2-0.2,0.2-0.4,0.2c-0.3,0-0.6-0.1-0.9-0.4
			c-0.5-0.4-0.9-1.1-1.3-1.7c-0.1-0.1-0.1-0.2-0.2-0.1c-0.6,1-0.8,2.2,0.5,3c0.2,0.1,0.4,0.2,0.6,0.4c0.2,0.1,0.3,0.3,0.1,0.5
			c-0.2,0.2-0.4,0.3-0.7,0.2c-0.5-0.1-0.9-0.2-1.3-0.2c-0.9,0-1.3,0.5-1.2,1.3c0,0.1,0,0.1,0,0.2c0,0.1,0,0.2,0.1,0.2
			c0.1,0,0.1-0.1,0.2-0.2c0.4-0.5,1.3-0.7,1.9-0.4c0.4,0.2,0.5,0.5,0.5,0.8c-0.2-0.2-0.4-0.4-0.7-0.4c-0.2-0.1-0.3,0-0.3,0.2
			c-0.1,0.2-0.2,0.4-0.4,0.6c-0.3,0.3-0.6,0.7-1,1c-0.3,0.3-0.6,0.6-0.8,1.1c-0.6,1.1-0.8,2.9,0.7,4.5c1.4,1.5,3.6,1.7,5.2,0.6
			c0.3-0.2,0.5-0.4,0.9-0.5c1.5-0.6,3,0.1,3.6,1.6c0.1,0.2,0.1,0.4,0.2,0.7c0.3-0.5,0.3-1,0.3-1.6c0.2,0.3,0.4,0.7,0.3,1.1
			c-0.2,1.2-0.9,2.1-2,2.7c-0.1,0.1-0.2,0.2-0.1,0.4c0.1,0.1,0.1,0.3,0.2,0.4c0.1,0,0.1,0.1,0.1,0.1s-0.1,0.1-0.2,0.1
			c-0.3-0.1-0.6-0.4-0.7-0.7c-0.1-0.5,0.1-0.9,0.5-1.3c0.1-0.1,0.1-0.1,0.1-0.1c0-0.1-0.1-0.1-0.2-0.1c-1.2-0.3-1.9,0.3-1.8,1.5
			c0,0.2,0,0.3,0.1,0.4c0,0.2,0,0.3,0.1,0.4c0,0.2-0.1,0.3-0.2,0.4c-0.2,0.1-0.3-0.1-0.4-0.2c0-0.1-0.1-0.2-0.1-0.2
			c-0.1-0.3-0.1-0.6-0.1-0.9c0-0.1,0-0.2-0.1-0.2c-0.1,0-0.1,0.1-0.2,0.1c-0.7,0.8-1,1.7-0.6,2.7c0.2,0.5,0.3,1.1,0.1,1.6
			c-0.2,0.6-0.2,1.2-0.1,1.8c0.3,2,2.2,3.3,3.6,3.4c0.4,0.1,1.3,0,1.5-0.1c0.8-0.2,1.4-0.6,2-1.1c0.6-0.6,1.1-1.2,1.7-1.7l0.4-0.4
			c0,0,0,0,0,0c0.1-0.1,0.1,0,0.2,0.1c0.3,0.8,0.7,1.5,1.1,2.3c0.2,0.5,0.5,1.1,0.4,1.7c0,1.1-1,1.8-2,1.4c-0.5-0.2-0.9-0.2-1.1,0.4
			c-0.1,0.3-0.3,0.6-0.4,0.9c-0.1,0.3-0.4,0.4-0.6,0.5c-0.7,0.2-2-0.2-2.5-0.8c0,0,0,0,0,0c0,0,0,0,0.1,0c0.8,0.4,1.5,0.5,2.4,0.4
			c0.1,0,0.2-0.1,0.3-0.1c0.2-0.1,0.3-0.1,0.2-0.4c-0.1-0.2-0.2-0.2-0.4-0.1c-0.4,0.1-0.9,0.1-1.3,0c-0.8-0.2-1.5-0.5-2.1-1
			c-0.2-0.2-0.2-0.1-0.3,0.1c0,0.3-0.1,0.5,0,0.8c0,0.8,0.4,1.5,1.2,1.9c0.3,0.1,0.6,0.3,0.9,0.4c0.3,0.2,0.5,0.4,0.6,0.7
			c0,0.1,0,0.1-0.1,0.1c0,0-0.1,0-0.1-0.1c-0.1-0.1-0.2-0.3-0.3-0.4c-0.1-0.1-0.2-0.1-0.2,0c-0.1,0.2-0.4,0.2-0.6,0.1
			c-0.4-0.2-0.6-0.4-1-0.7c0-0.1-0.1-0.1-0.2-0.1c-0.1,0,0,0.1,0,0.2c0,0.4,0,0.8,0.1,1.2c0.2,0.7,0.6,1.2,1.4,1.2
			c0.1,0,0.1,0,0.1,0c0.2,0,0.4,0.1,0.4,0.3c0,0.2-0.1,0.4-0.2,0.4c-0.1,0.1-0.2,0.1-0.3,0.2c-0.7,0.4-0.9,1-0.5,1.7
			c0.1,0.2,0.2,0.3,0.4,0.5s0.2,0.2,0.4,0c0.4-0.6,0.9-0.7,1.4-0.2c0.3,0.3,0.6,0.6,0.7,1c0.1,0.4,0.3,0.5,0.7,0.6
			c0.6,0.1,1.3,0.1,2,0.1c0.2,0,0.2-0.1,0.1-0.2c-0.1-0.2-0.2-0.5-0.3-0.7c0,0-0.1-0.1,0-0.1l0,0c0,0,0.1,0,0.1,0
			c0.1,0,0.2,0.1,0.2,0.1c0.3,0.2,0.3,0.3,0.4,0.4c0,0.1,0,0.2,0,0.2c0.1,0.2,0.3,0.3,0.5,0.3c0.1,0,0.3,0,0.4,0
			c0.2,0,0.3-0.1,0.2-0.3c-0.1-0.3-0.2-0.7-0.4-1c0.5,0.1,0.7,0.5,0.9,0.8c0.2,0.4,0.4,0.5,0.8,0.4c0.1,0,0.2-0.1,0.2-0.2
			c0-0.8-0.2-1.4-0.7-2c-0.1-0.1-0.1-0.1-0.2-0.1l0,0c-0.8-0.8-2.2-0.6-2.4-0.6c-0.3,0-0.5-0.1-0.7-0.2c-0.1-0.1-0.3-0.1-0.4,0.1
			c-0.2,0.2-0.1,0.5,0.2,0.6c0.2,0.1,0.5,0.1,0.8,0.1c0.1,0,0.2,0,0.3,0l0,0c0.3,0,0.7,0.1,0.9,0.1l0,0c0,0,0,0,0.1,0s0.1,0,0.1,0h0
			c0.2,0.1,0.4,0.1,0.6,0.3c-0.1,0.1-0.3,0-0.3,0l0,0c-0.3,0-1.2-0.1-1.7,0c-0.2,0-0.4,0-0.5,0c-0.6,0-0.7-0.6-0.6-0.9
			c0.3-0.8,0.5-1.6,0.6-2.3c0-0.6,0.2-1.1,0.5-1.6c0.2-0.4,0.5-0.6,1-0.6c1.3,0,2.5-0.1,3.8-0.4c1.1-0.3,2.1-0.8,2.9-1.8
			c0.9-1.1,1.1-2.5,1-3.9c-0.1-1.6-0.6-3.1-1.3-4.5c-0.1-0.2-0.1-0.4,0.1-0.6c0.3-0.4,0.6-0.7,1-0.9c0.2-0.1,0.3-0.1,0.5-0.1
			c0.7,0.1,1.3-0.1,1.9-0.5c0.2-0.1,0.4-0.2,0.6-0.4c0.2-0.1,0.4-0.1,0.5,0.1c0.2,0.2,0.1,0.4,0,0.6c-0.1,0.1-0.2,0.2-0.4,0.3
			c-0.3,0.2-0.7,0.4-1,0.5c0,0-0.1,0-0.1,0.1c0,0.1,0.1,0.1,0.1,0.1c0.4,0.2,0.8,0.3,1.1,0.4c0.3,0.1,0.6,0.1,0.9,0.1
			c0.7,0,1.2-0.3,1.5-0.9c0.1-0.3,0.4-0.4,0.6-0.3c0.3,0,0.4,0.2,0.5,0.6c0,0.1,0,0.2,0,0.2c0.1,0.8,0.6,1.3,1.4,1.3
			c0.3,0,0.7-0.1,1-0.2c0.3-0.1,0.3-0.1,0.1-0.3c-0.4-0.6-0.3-1.2,0.3-1.5c0.2-0.1,0.3-0.2,0.5-0.2c0.3-0.1,0.7-0.1,1-0.2
			c0.5-0.1,1.1-0.2,1.5-0.8c0,0,0,0,0,0c0.3,0,0.4-0.2,0.6-0.3c0.1-0.1,0.1-0.3-0.1-0.4c-0.2-0.1-0.5-0.2-0.7-0.2
			c-0.1,0-0.2,0-0.2-0.1c0-0.1,0.1-0.1,0.2-0.2c0.3-0.1,0.7-0.1,1,0.1c0.3,0.1,0.6,0.2,0.9,0c0.2-0.1,0.4-0.2,0.5-0.4
			c0.1-0.1,0.1-0.2,0-0.2c-0.2-0.1-0.5-0.3-0.8-0.4c-0.1,0-0.3,0-0.5-0.2c0.5-0.2,0.9-0.3,1.4,0c0.3,0.2,0.6,0.2,1,0.1
			C414.5,206.4,414.5,206.4,414.3,206.2z M398.6,193.7c-0.8,0.1-1.4,0.6-1.8,1.3c0-0.4,0.1-0.8,0.5-1.1S398.1,193.6,398.6,193.7z
			 M395,191.7c0-0.1,0-0.1,0.1-0.1c0.1-0.1,1.4,0.1,1.4,0.1l0,0c0,0,0.1,0,0.1,0c0.3,0.1,0.5,0.2,0.6,0.5c0,0.1,0.2,0.2,0.3,0.1
			c0.1-0.1,0.1-0.1,0.2-0.2l0,0l0,0v0c0-0.1,0-0.1,0.1-0.2c0.1,0,0.3,0,0.4,0.1c0.1,0.1,0.1,0.2,0.1,0.4c0,0.2-0.2,0.4-0.4,0.5
			c-0.5,0.1-1.1,0.2-1.6,0.1c0,0,0,0,0,0s0,0,0,0C395.5,192.8,395,192,395,191.7z M387.8,223.9c-0.1,0.8-0.3,1.6-0.4,2.4
			c0,0.2,0,0.4,0,0.6c-0.3-0.3-0.4-0.8-0.4-1.2c-0.1-0.8,0.1-1.4,0.2-2.1c0.1-0.5,0.3-1,0.1-1.5c0-0.1,0.1-0.1,0.2-0.1
			c0.3,0.1,0.5,0.4,0.4,0.8C387.9,223.2,387.8,223.5,387.8,223.9z M393.1,219.9c0,0-0.1,0-0.1,0c-0.3-0.2-0.4-0.5-0.6-0.8
			c0-0.1,0-0.1,0.1-0.1c0,0,0.1,0,0.1,0c0.2,0.2,0.4,0.5,0.5,0.7C393.1,219.8,393.1,219.8,393.1,219.9z M394.3,219.1
			c-0.1,0-0.1,0-0.1-0.1c-0.7-0.9-1.4-1.8-2-2.7c0,0-0.1-0.1,0-0.1c0-0.1,0.1,0,0.2,0c0.1,0.1,0.2,0.1,0.3,0.2
			c0.7,0.7,1.3,1.4,1.7,2.4C394.3,218.9,394.3,219,394.3,219.1z M396.3,212.5c-0.4-0.4-0.7-0.8-1.3-1c-0.1-0.1-0.2-0.1-0.2-0.2
			c-0.2-0.3-0.5-0.5-0.8-0.6c-0.2-0.1-0.5,0-0.6,0.2c-0.1,0.2-0.1,0.4,0.1,0.6c0.2,0.2,0.5,0.3,0.8,0.4c0.4,0.1,0.6,0.4,0.8,0.7
			c0.1,0.2,0.2,0.4,0.4,0.6c0.3,0.4,0.6,0.8,0.8,1.2c0.1,0.2,0.1,0.3,0.2,0.4c-0.1,0-0.1-0.1-0.2-0.1c-0.3-0.5-0.8-0.9-1.2-1.4
			c-0.1-0.1-0.1-0.2-0.2-0.1c-0.5,0-0.7-0.3-0.9-0.6c-0.2-0.4-0.5-0.6-0.8-0.8c-0.2-0.2-0.5-0.1-0.6,0s-0.1,0.4,0.1,0.6
			c0.1,0.1,0.3,0.2,0.5,0.3c0.2,0.2,0.5,0.3,0.7,0.6c0.2,0.2,0.4,0.3,0.6,0.4c0.3,0.2,0.5,0.4,0.6,0.9c0,0.2,0.2,0.3,0.2,0.5
			c0.2,0.4,0.4,0.7,0.5,1.1c0,0,0,0,0,0.1c-0.2-0.3-0.4-0.5-0.6-0.8c-0.2-0.2-0.3-0.3-0.6-0.4c-0.3-0.1-0.5-0.4-0.6-0.7
			c-0.4-0.7-1-1.1-1.6-1.4c-0.2-0.1-0.4,0-0.5,0.2s-0.1,0.4,0.1,0.6c0.2,0.2,0.5,0.4,0.8,0.7c0.4,0.4,0.8,0.9,1.2,1.3
			c0.1,0.1,0.2,0.2,0.4,0.3c0.3,0.2,0.5,0.4,0.6,0.7c0.1,0.4,0.3,0.8,0.4,1.2c0.1,0.2,0.1,0.4,0.1,0.6c-0.2-0.2-0.3-0.5-0.5-0.8
			c-0.1-0.2-0.2-0.4-0.4-0.4c-0.2-0.1-0.3-0.2-0.3-0.4c-0.5-1.1-1.4-1.8-2.2-2.5c0,0-0.1-0.1-0.2,0c-0.1,0-0.1,0.1-0.1,0.2
			s0.1,0.2,0,0.2c-0.1,0-0.1-0.1-0.2-0.2c-0.3-0.6-0.4-1.3-0.1-2c0.2-0.6,0.6-1,1-1.5c1.1-1.1,1.7-2.5,2.2-4c0-0.1,0-0.2,0.1-0.2
			c0.1,0,0.1,0.1,0.1,0.1c0.1,0.2,0.3,0.4,0.5,0.4c0.5,0.2,0.9,0.5,1.1,1c-0.1,0.1-0.2,0-0.3-0.1c-0.3-0.2-0.6-0.3-0.9-0.4
			c-0.4,0-0.5,0.2-0.3,0.5c0.1,0.2,0.2,0.3,0.4,0.4c0.5,0.3,1,0.8,1.2,1.3c0,0.1,0.1,0.2,0.1,0.2c-0.1,0-0.2-0.1-0.2-0.1
			c-0.4-0.4-0.9-0.7-1.4-0.9c-0.2-0.1-0.3-0.2-0.5,0c-0.1,0.2-0.1,0.4,0,0.6c0.2,0.2,0.4,0.4,0.7,0.4c0.3,0.1,0.5,0.2,0.6,0.5
			c0.1,0.2,0.2,0.4,0.4,0.6c0.3,0.3,0.5,0.6,0.6,1.1C396.4,212.7,396.4,212.6,396.3,212.5z M401.9,205.7c-0.1,0-0.1-0.1-0.1-0.1
			c0-0.2,0.1-0.2,0.3-0.2c0,0,0.1,0,0.1,0.1C402.1,205.6,402.1,205.7,401.9,205.7z M402.6,206.3c-0.1,0-0.1,0-0.1-0.1
			c0-0.2,0.2-0.5,0.5-0.5c0.1,0,0.1,0.1,0.1,0.1C403.1,205.9,402.7,206.3,402.6,206.3z"/>
		<path class="st135" d="M407.9,227.1c-0.9-0.4-1.8-0.6-2.8-0.6c-0.3,0-0.7,0-1-0.2c-0.1-0.1-0.2-0.1-0.3,0c-0.1,0.1-0.1,0.2,0,0.4
			c0.1,0.1,0.2,0.2,0.3,0.2c0.3,0.1,0.6,0.1,1,0.1c0.5,0,1,0.1,1.6,0.2c0.2,0,0.4,0.1,0.5,0.3c-0.4,0-0.7-0.1-1-0.1
			c-0.6-0.1-1.2-0.1-1.9-0.2c-0.4-0.1-0.7-0.4-0.7-0.9c0-0.2-0.1-0.3-0.1-0.5c-0.1-0.4-0.3-0.7-0.5-1c-0.2-0.3-0.4-0.6-0.5-1
			c-0.1-0.4,0-0.8,0.3-1c0.1-0.1,0.2-0.1,0.3-0.2c0.7-0.4,1.4-0.7,1.9-1.2c0.8-0.8,1.5-1.6,1.6-2.8c0.2-1.9-0.5-3.5-1.9-4.7
			c-0.7-0.6-1.6-1-2.4-1.4c-1.1-0.5-2.3-0.8-3.5-1.2c-0.2-0.1-0.4-0.1-0.5-0.2c-0.2-0.1-0.4,0.1-0.3,0.2c0,0.4,0.5,0.9,0.9,1
			c1.5,0.3,3,0.9,4.3,1.8c0.2,0.2,0.5,0.4,0.6,0.6c0,0.1,0.1,0.1,0.1,0.2c-0.1,0.1-0.2,0-0.2-0.1c-1.1-0.7-2.3-1.1-3.6-1.5
			c-0.2-0.1-0.5-0.1-0.8-0.1c-0.2,0-0.3,0.1-0.4,0.3c0,0.2,0.1,0.3,0.3,0.3c0.1,0,0.1,0,0.2,0c0.8,0.2,1.6,0.4,2.4,0.9
			c0.1,0.1,0.2,0.1,0.3,0.3c-0.4-0.1-0.8-0.2-1.1-0.3c-0.5-0.1-1-0.2-1.5-0.2c-0.1,0-0.3,0.1-0.3,0.2c0,0.2,0.1,0.2,0.2,0.3
			c0.1,0,0.2,0.1,0.3,0.1c0.3,0.1,0.6,0.2,0.9,0.4c0.1,0.1,0.2,0.1,0.2,0.2c-0.3-0.1-0.5-0.2-0.8-0.2c-0.4-0.1-0.6,0.1-0.6,0.6
			c0,0.4,0,0.7,0,1.1c0,0.2,0,0.3,0.2,0.4c0.4,0.3,0.8,0.6,1.1,1c0.1,0.2,0.6,0.9,0.7,1.2c0,0.1,0,0.1,0.1,0.2c0.1,0.3,0,0.6,0,0.9
			c0,0.4-0.2,0.6-0.5,0.8c-0.1,0.1-0.2,0.1-0.3,0.1c-0.4,0.1-0.6,0.4-0.7,0.8c-0.1,0.5-0.4,0.7-0.9,0.8c-0.2,0-0.5,0-0.8-0.1h0
			c-0.1,0-0.1,0-0.2-0.1c-0.2-0.1-0.4-0.2-0.1-0.2c0,0,0,0,0,0c0.1,0,0.3,0,0.5,0c0.3,0,0.6,0,0.9-0.1c0.2-0.1,0.3-0.2,0.2-0.4
			c-0.1-0.2-0.2-0.2-0.4-0.2c-0.3,0.1-0.6,0.1-0.9,0.1c-0.2,0-0.5,0-0.7-0.1c-0.2-0.1-0.5-0.1-0.8,0.1c-0.1,0.1-0.2,0.2-0.2,0.3h0
			c0,0,0,0.6,0.6,1.2l0,0c0,0.1,0.1,0.1,0.2,0.2c0.1,0.1,0.3,0.2,0.5,0.2c0.2,0.1,0.5,0.1,0.7,0.2c0.1,0,0.2,0.1,0.3,0.2
			c0,0.2-0.1,0.3-0.2,0.4s-0.2,0.1-0.4,0c-0.3,0-0.6-0.1-0.9-0.3c-0.1-0.1-0.2-0.1-0.2,0.1c0.1,0.4,0.2,0.8,0.4,1.1
			c0.3,0.4,0.7,0.6,1.3,0.5c0.1,0,0.3,0,0.4-0.1c0.2,0,0.4,0,0.5,0.2s0,0.3-0.1,0.5c0,0,0,0.1,0,0.1c-0.3,0.5-0.2,0.9,0.2,1.2
			c0.1,0.1,0.3,0.2,0.5,0.3c0.4,0.2,0.4,0.2,0.7-0.1c0.2-0.2,0.4-0.3,0.7-0.4c0.4-0.1,0.9,0,1.3,0.2c0.2,0.1,0.3,0.2,0.4,0.3
			c0.2,0.6,0.7,0.8,1.2,0.8c0.4,0,0.9,0,1.3,0c0.2,0,0.2-0.1,0.2-0.2c-0.1-0.3-0.2-0.5-0.3-0.8c0,0-0.1-0.1,0-0.1c0.1,0,0.1,0,0.1,0
			c0.3,0.1,0.6,0.3,0.7,0.6c0.1,0.3,0.3,0.4,0.6,0.5c0.1,0,0.2,0,0.4,0c0.3,0,0.4,0,0.2-0.3c-0.1-0.3-0.2-0.6-0.4-0.9
			c0.1-0.1,0.1-0.1,0.2,0c0.4,0.1,0.6,0.4,0.7,0.8c0.1,0.2,0.2,0.4,0.5,0.5c0.3,0.1,0.3,0.1,0.4-0.2
			C409.2,228.3,408.8,227.5,407.9,227.1z M405,216.2c0.1,0,0.1,0,0.2,0.1c0.7,0.7,0.9,2.3,0.4,3.2c-0.1,0.1-0.1,0.2-0.3,0.4
			c0.1-0.2,0.1-0.4,0.1-0.6c0.2-1,0-1.9-0.4-2.8C405,216.3,404.9,216.2,405,216.2z M402.3,227.6c-0.1,0.1-0.2,0-0.3,0
			c-0.3-0.2-0.6-0.4-0.8-0.7c-0.5-0.6-0.6-1.4-0.8-2.2c-0.1-0.3-0.1-0.7-0.4-0.9c0,0-0.1-0.1,0-0.1c0-0.1,0.1-0.1,0.2-0.1
			c0.3,0,0.6,0.2,0.8,0.6c0.1,0.3,0.2,0.6,0.2,0.9c0.1,0.8,0.5,1.6,1.1,2.2C402.3,227.4,402.4,227.5,402.3,227.6z"/>
	</g>
	<g>
		<path class="st5" d="M371.5,202.9c0.3,0.2,0.8,0.2,1.1,0.2c0.5,0,0.8-0.2,0.8-0.6c0-0.4-0.3-0.6-0.8-0.9c-1-0.6-1.2-1.3-1.2-1.8
			c0-1,0.7-1.9,2.1-1.9c0.4,0,0.9,0.1,1.1,0.2l-0.2,1.2c-0.2-0.1-0.5-0.2-0.8-0.2c-0.5,0-0.7,0.2-0.7,0.6c0,0.3,0.1,0.4,0.9,0.9
			c0.9,0.5,1.2,1.2,1.2,1.8c0,1.2-0.9,2-2.2,2c-0.5,0-1-0.1-1.3-0.2L371.5,202.9z"/>
		<path class="st5" d="M375.5,198.1c0.4-0.1,0.9-0.1,1.4-0.1c0.8,0,1.4,0.1,1.9,0.5c0.4,0.4,0.6,0.9,0.6,1.4c0,0.7-0.2,1.3-0.6,1.6
			c-0.4,0.4-1.1,0.6-1.6,0.6c-0.1,0-0.2,0-0.2,0v2.3h-1.5C375.5,204.4,375.5,198.1,375.5,198.1z M377,200.9c0,0,0.1,0,0.2,0
			c0.6,0,0.8-0.4,0.8-0.9c0-0.5-0.2-0.9-0.7-0.9c-0.1,0-0.2,0-0.3,0V200.9z"/>
		<path class="st5" d="M381.9,204.5c-1.6,0-2.1-1.7-2.1-3.3c0-1.6,0.6-3.2,2.2-3.2c1.7,0,2.1,1.9,2.1,3.1
			C384,203.5,383.2,204.5,381.9,204.5L381.9,204.5z M381.9,203.2c0.4,0,0.6-0.8,0.6-2c0-1.1-0.1-1.9-0.6-1.9c-0.4,0-0.6,0.8-0.6,1.9
			C381.3,202.4,381.5,203.2,381.9,203.2L381.9,203.2z"/>
		<path class="st5" d="M384.8,198.1c0.4-0.1,1-0.1,1.5-0.1c0.7,0,1.4,0.1,1.8,0.5c0.4,0.4,0.5,0.8,0.5,1.3c0,0.6-0.3,1.3-1,1.6v0
			c0.4,0.2,0.6,0.6,0.7,1.2c0.1,0.6,0.3,1.5,0.4,1.8h-1.5c-0.1-0.2-0.2-0.8-0.3-1.5c-0.1-0.8-0.3-0.9-0.6-0.9h-0.1v2.4h-1.5V198.1z
			 M386.3,200.8h0.2c0.5,0,0.7-0.4,0.7-0.9c0-0.5-0.2-0.8-0.6-0.8c-0.1,0-0.2,0-0.3,0C386.3,199.2,386.3,200.8,386.3,200.8z"/>
		<path class="st5" d="M390.2,199.4h-1.1V198h3.7v1.4h-1.1v5h-1.5L390.2,199.4L390.2,199.4z"/>
		<path class="st5" d="M394.4,204.4L393,198h1.6l0.4,2.6c0.1,0.7,0.2,1.4,0.3,2.1h0c0.1-0.7,0.2-1.4,0.2-2.1l0.4-2.6h1.6l-1.5,6.4
			H394.4z"/>
		<path class="st5" d="M400.8,201.7h-1.4v1.4h1.5v1.3h-3V198h2.9v1.3h-1.5v1.2h1.4V201.7L400.8,201.7z"/>
		<path class="st5" d="M401.8,198.1c0.4-0.1,1-0.1,1.5-0.1c0.7,0,1.4,0.1,1.8,0.5c0.4,0.4,0.5,0.8,0.5,1.3c0,0.6-0.3,1.3-1,1.6v0
			c0.4,0.2,0.6,0.6,0.7,1.2c0.1,0.6,0.3,1.5,0.4,1.8h-1.5c-0.1-0.2-0.2-0.8-0.3-1.5c-0.1-0.8-0.3-0.9-0.6-0.9h-0.2v2.4h-1.5V198.1z
			 M403.3,200.8h0.2c0.5,0,0.7-0.4,0.7-0.9c0-0.5-0.2-0.8-0.6-0.8c-0.1,0-0.2,0-0.3,0V200.8z"/>
		<path class="st5" d="M409.4,201.7H408v1.4h1.5v1.3h-3V198h2.9v1.3H408v1.2h1.4V201.7L409.4,201.7z"/>
		<path class="st5" d="M411.9,198v6.4h-1.5V198H411.9z"/>
		<path class="st5" d="M413,204.4V198h1.3l0.9,2.3c0.1,0.4,0.5,1.2,0.6,1.7h0c0-0.5-0.1-1.8-0.1-3v-1h1.3v6.4h-1.3l-0.8-2.1
			c-0.2-0.5-0.5-1.3-0.6-1.8h0c0,0.6,0.1,1.6,0.1,2.8v1.1L413,204.4L413,204.4z"/>
	</g>
	<g>
		<path class="st5" d="M374.6,207.6c0.3-0.1,0.8-0.1,1.4-0.1c0.8,0,1.4,0.2,1.9,0.6c0.6,0.5,0.8,1.4,0.8,2.6c0,1.2-0.3,2.2-0.9,2.7
			c-0.5,0.4-1.1,0.6-2,0.6c-0.4,0-0.9-0.1-1.1-0.1L374.6,207.6L374.6,207.6z M376,212.8c0.1,0,0.1,0,0.2,0c0.5,0,0.9-0.6,0.9-2.2
			c0-1.2-0.3-1.9-0.9-1.9c-0.1,0-0.1,0-0.2,0L376,212.8L376,212.8z"/>
		<path class="st5" d="M380.4,212.7l-0.2,1.2h-1.4l1.4-6.4h1.8l1.2,6.4h-1.4l-0.2-1.2H380.4z M381.3,211.5l-0.1-1.2
			c0-0.4-0.1-1.1-0.2-1.4h0c-0.1,0.4-0.1,1.1-0.2,1.4l-0.2,1.2H381.3z"/>
		<path class="st5" d="M383.7,207.6c0.4-0.1,1-0.1,1.5-0.1c0.7,0,1.4,0.1,1.8,0.5c0.4,0.4,0.5,0.8,0.5,1.4c0,0.6-0.3,1.3-1,1.6v0
			c0.4,0.2,0.6,0.6,0.8,1.2s0.3,1.5,0.4,1.8h-1.5c-0.1-0.2-0.2-0.8-0.3-1.5c-0.1-0.8-0.3-0.9-0.6-0.9h-0.2v2.4h-1.4L383.7,207.6
			L383.7,207.6z M385.2,210.4h0.2c0.5,0,0.7-0.4,0.7-0.9c0-0.5-0.2-0.8-0.6-0.8c-0.1,0-0.2,0-0.3,0.1L385.2,210.4L385.2,210.4z"/>
		<path class="st5" d="M392.3,211.9c0-0.5-0.1-1.3,0-1.9h0c-0.1,0.7-0.3,1.5-0.4,1.8l-0.5,2h-1l-0.4-2c-0.1-0.4-0.2-1.2-0.3-1.8h0
			c0,0.7-0.1,1.4-0.1,1.9l-0.1,2h-1.2l0.5-6.4h1.5l0.4,2.1c0.1,0.8,0.3,1.5,0.4,2.2h0c0.1-0.7,0.2-1.5,0.4-2.2l0.4-2.1h1.5l0.4,6.4
			h-1.3L392.3,211.9z"/>
		<path class="st5" d="M394.4,212.5c0.3,0.1,0.7,0.2,1.1,0.2c0.5,0,0.8-0.2,0.8-0.6c0-0.4-0.3-0.6-0.8-0.9c-1-0.6-1.2-1.3-1.2-1.8
			c0-1.1,0.7-2,2.1-2c0.4,0,0.9,0.1,1.1,0.2l-0.2,1.2c-0.2-0.1-0.5-0.2-0.8-0.2c-0.5,0-0.7,0.2-0.7,0.6c0,0.3,0.1,0.4,0.9,0.9
			c0.9,0.5,1.2,1.2,1.2,1.8c0,1.2-0.9,2-2.2,2c-0.5,0-1-0.1-1.3-0.2L394.4,212.5z"/>
		<path class="st5" d="M399.1,208.9H398v-1.4h3.7v1.4h-1.1v5h-1.5L399.1,208.9L399.1,208.9z"/>
		<path class="st5" d="M403.1,212.7l-0.2,1.2h-1.4l1.4-6.4h1.8l1.2,6.4h-1.4l-0.2-1.2H403.1z M404.1,211.5l-0.1-1.2
			c0-0.4-0.1-1.1-0.2-1.4h0c-0.1,0.4-0.1,1.1-0.2,1.4l-0.2,1.2H404.1z"/>
		<path class="st5" d="M406.5,207.6c0.3-0.1,0.8-0.1,1.4-0.1c0.8,0,1.4,0.2,1.9,0.6c0.6,0.5,0.8,1.4,0.8,2.6c0,1.2-0.3,2.2-0.9,2.7
			c-0.5,0.4-1.1,0.6-2,0.6c-0.4,0-0.9-0.1-1.1-0.1L406.5,207.6L406.5,207.6z M407.9,212.8c0.1,0,0.1,0,0.2,0c0.5,0,0.9-0.6,0.9-2.2
			c0-1.2-0.3-1.9-0.9-1.9c-0.1,0-0.1,0-0.2,0L407.9,212.8L407.9,212.8z"/>
		<path class="st5" d="M411.9,208.9h-1.1v-1.4h3.7v1.4h-1.1v5h-1.5L411.9,208.9L411.9,208.9z"/>
		<path class="st5" d="M381.4,224.6L381.4,224.6l-1.1,0.5l-0.2-1.1l1.4-0.7h1.3v6.2h-1.5C381.4,229.4,381.4,224.6,381.4,224.6z"/>
		<path class="st5" d="M386.1,223.2c0.9,0,1.7,0.6,1.7,1.6c0,0.4-0.1,0.9-0.8,1.3v0c0.6,0.3,0.9,0.8,0.9,1.6c0,1.2-0.9,1.9-2,1.9
			c-1.1,0-1.9-0.6-1.9-1.7c0-0.7,0.4-1.3,0.9-1.6v0c-0.5-0.3-0.7-0.8-0.7-1.3C384.3,223.8,385.1,223.2,386.1,223.2L386.1,223.2z
			 M386.1,228.5c0.4,0,0.5-0.4,0.5-0.8c0-0.5-0.3-0.9-0.6-1c-0.2,0.2-0.4,0.5-0.4,0.9C385.5,228.1,385.7,228.5,386.1,228.5
			L386.1,228.5z M386.1,224.2c-0.4,0-0.5,0.4-0.5,0.7c0,0.3,0.2,0.6,0.5,0.8c0.2-0.1,0.4-0.4,0.4-0.8
			C386.5,224.5,386.4,224.2,386.1,224.2L386.1,224.2z"/>
		<path class="st5" d="M388.9,228.3c0.3,0,0.4,0,0.6-0.1c0.2,0,0.5-0.1,0.7-0.3c0.2-0.2,0.4-0.6,0.6-1h0c-0.2,0.2-0.4,0.3-0.8,0.3
			c-0.8,0-1.5-0.7-1.5-1.9c0-1,0.6-2.2,1.9-2.2c1.2,0,1.8,1,1.8,2.5c0,1.5-0.5,2.5-1.1,3c-0.4,0.4-0.9,0.6-1.5,0.7
			c-0.2,0-0.4,0-0.6,0L388.9,228.3L388.9,228.3z M390.2,224.2c-0.3,0-0.5,0.4-0.4,1c0,0.5,0.1,1,0.5,1c0.2,0,0.3-0.1,0.4-0.2
			c0-0.1,0-0.3,0-0.8C390.7,224.7,390.5,224.2,390.2,224.2L390.2,224.2z"/>
		<path class="st5" d="M394.5,223.2c0.9,0,1.7,0.6,1.7,1.6c0,0.4-0.1,0.9-0.8,1.3v0c0.6,0.3,0.9,0.8,0.9,1.6c0,1.2-0.9,1.9-2,1.9
			c-1.1,0-1.9-0.6-1.9-1.7c0-0.7,0.4-1.3,0.9-1.6v0c-0.5-0.3-0.7-0.8-0.7-1.3C392.7,223.8,393.5,223.2,394.5,223.2L394.5,223.2z
			 M394.5,228.5c0.4,0,0.5-0.4,0.5-0.8c0-0.5-0.4-0.9-0.6-1c-0.2,0.2-0.4,0.5-0.4,0.9C393.9,228.1,394.1,228.5,394.5,228.5
			L394.5,228.5z M394.5,224.2c-0.4,0-0.5,0.4-0.5,0.7c0,0.3,0.2,0.6,0.6,0.8c0.2-0.1,0.3-0.4,0.3-0.8
			C394.9,224.5,394.8,224.2,394.5,224.2L394.5,224.2z"/>
		<path class="st5" d="M399.7,227.7c0,0.4,0.4,0.7,0.9,0.7c0.4,0,0.7-0.1,0.9-0.1l0.2,1c-0.4,0.1-0.9,0.2-1.4,0.2
			c-1.3,0-2.1-0.8-2.1-2.3c0-1.6,0.9-2.5,2-2.5c1,0,1.7,0.7,1.7,2.2c0,0.4,0,0.6,0,0.8L399.7,227.7L399.7,227.7z M400.7,226.7
			c0-0.4-0.1-0.9-0.4-0.9s-0.5,0.6-0.5,0.9H400.7z"/>
		<path class="st5" d="M403.4,229.5c-0.4,0-0.8-0.4-0.8-0.9c0-0.6,0.4-1,0.8-1c0.5,0,0.8,0.4,0.8,1
			C404.3,229.1,403.9,229.5,403.4,229.5L403.4,229.5z"/>
		<path class="st5" d="M405.9,229.4l-1.4-6.4h1.6l0.4,2.7c0.1,0.7,0.2,1.4,0.3,2.1h0c0.1-0.7,0.1-1.4,0.2-2.1l0.4-2.6h1.6l-1.5,6.4
			H405.9z"/>
	</g>
</g>
</svg>
