<?xml version="1.0" encoding="utf-8"?>
<!-- Generator: Adobe Illustrator 17.0.0, SVG Export Plug-In . SVG Version: 6.00 Build 0)  -->
<!DOCTYPE svg PUBLIC "-//W3C//DTD SVG 1.1//EN" "http://www.w3.org/Graphics/SVG/1.1/DTD/svg11.dtd">
<svg version="1.1" id="Layer_1" xmlns="http://www.w3.org/2000/svg" xmlns:xlink="http://www.w3.org/1999/xlink" x="0px" y="0px"
	 width="600px" height="600px" viewBox="0 0 600 600" enable-background="new 0 0 600 600" xml:space="preserve">
<path fill="#FFFFFF" stroke="#000000" stroke-miterlimit="10" d="M6.1,342.8C40.7,232.2,21.2,187.2,67.7,94.2
	c10.5-21,71.9-57.8,135.8-73.2c0,0,109.7-25.5,180.5-3.5s140.3,53.3,151.9,80c35.7,82.1,31.2,191.6,59.7,243.7
	c-12.5,1.2-81.3,14.4-109.3,19.7c-2.4-7.3-13.4-60-13.4-60s3.2,248,3.2,270c-0.2,19-92.8,24-180.8,24s-167.5-10-167.5-26.9
	c0-16.8,1.1-262.1,1.1-262.1s-3.3,23.3-8.3,56.1C91.3,361.9,16.4,344,6.1,342.8z"/>
<g>
	<g>
		<path fill="#FFFFFF" d="M234.5,28.7C247.3,46,269,62.5,305.1,62.5c36.2,0,56.3-16.8,67.4-34.5C342.2,31.1,266.9,30.8,234.5,28.7z"
			/>
	</g>
</g>
<path fill="#FFFFFF" stroke="#000000" stroke-miterlimit="10" d="M6.1,342.8C40.7,232.2,21.2,187.2,67.7,94.2
	c10.5-21,71.9-57.8,135.8-73.2c0,0,109.7-25.5,180.5-3.5s140.3,53.3,151.9,80c35.7,82.1,31.2,191.6,59.7,243.7
	c-12.5,1.2-81.3,14.4-109.3,19.7c-2.4-7.3-13.4-60-13.4-60s3.2,248,3.2,270c-0.2,19-92.8,24-180.8,24s-167.5-10-167.5-26.9
	c0-16.8,1.1-262.1,1.1-262.1s-3.3,23.3-8.3,56.1C91.3,361.9,16.4,344,6.1,342.8z"/>
<g>
	<g>
		<path fill="#FFFFFF" d="M234.5,28.7C247.3,46,269,62.5,305.1,62.5c36.2,0,56.3-16.8,67.4-34.5C342.2,31.1,266.9,30.8,234.5,28.7z"
			/>
	</g>
</g>
<path fill="#0453BC" stroke="#000000" stroke-miterlimit="10" d="M6.1,342.8C40.7,232.2,21.2,187.2,67.7,94.2
	c10.5-21,71.9-57.8,135.8-73.2c0,0,109.7-25.5,180.5-3.5s140.3,53.3,151.9,80c35.7,82.1,31.2,191.6,59.7,243.7
	c-12.5,1.2-81.3,14.4-109.3,19.7c-2.4-7.3-13.4-60-13.4-60s3.2,248,3.2,270c-0.2,19-92.8,24-180.8,24s-167.5-10-167.5-26.9
	c0-16.8,1.1-262.1,1.1-262.1s-3.3,23.3-8.3,56.1C91.3,361.9,16.4,344,6.1,342.8z"/>
<g>
	<g>
		<path fill="#0453BC" d="M231.5,28.7C244.3,46,266,62.5,302.1,62.5c36.2,0,56.3-16.8,67.4-34.5C339.2,31.1,263.9,30.8,231.5,28.7z"
			/>
		<path fill="#073F98" stroke="#0453BC" stroke-miterlimit="10" d="M372.1,1c-17.6,5.3-142.2,2.9-148.6,0.6
			c-0.1,0.3-0.3,0.7-0.5,1.1c2.2,7.1,6.3,17.5,13.7,27.5c29.5,1.9,97.9,2.2,125.6-0.6c6.2-9.9,9.4-20.2,10.9-27.3
			C372.8,1.8,372.4,1.4,372.1,1z"/>
	</g>
	<path fill="#073F98" stroke="#0453BC" stroke-miterlimit="10" d="M373.2,2.3C369.1,21,354.2,61,301,61c-53.9,0-72.4-40.1-78-58.3
		c-2.9,5.3-15.1,16-15.1,16s15.6,61.7,91.1,61.7c76.5,0,86.6-58.7,87.7-63.1C384.6,16.4,377.4,6.9,373.2,2.3z"/>
</g>
<path fill="#073F98" d="M123.5,345.1l-2.8,17c0,0-18.3-0.2-54.3-7.2c-18-3.5-53.4-11.4-60.3-12.1c3.2-10.1,5.8-20.6,5.8-20.6
	c13.4,2.5,37.1,9.2,60.5,14.2C97.6,341.9,123.5,345.1,123.5,345.1z"/>
<path fill="#073F98" d="M482.2,342.3l4.1,18.6c0,0,8.8-1.5,44.8-8.5c18-3.5,57.7-10,64.7-10.7c-4.7-9.1-8.7-20.9-8.7-20.9
	c-14,2.7-40.1,7.3-63,12.2C498.7,338.3,482.2,342.3,482.2,342.3z"/>
<g>
	<path fill="#073F98" d="M421.8,588.9l-8-300.2l0.1-1.2c0.6-6,16.5-147.4,66.8-231.9c0,0,10.8,5.3,16.1,8.5
		c3.5,2.1,6.7,3.9,14.7,9.4c-18.9,31.8-35.6,79.4-48.3,137.5c-8.7,40.1-12.7,72.7-13.5,79.1l7.8,292.6c0,0-10.8,2.8-20.8,4.3
		C426.8,588.6,421.8,588.9,421.8,588.9z"/>
</g>
<g>
	<g>
		<path fill="#073F98" d="M144.5,580l7.7-289.6c-2-14.5-19.9-143.4-63.8-217.2c0,0,15.1-10,19.9-12.8s10.5-5.7,10.5-5.7
			c50.2,84.3,68.5,226.4,69.3,232.5l0.2,1.4l-8,298.9c0,0-8-1-18.8-3.2C150.7,582,144.5,580,144.5,580z"/>
	</g>
	<g>
		<path fill="#073F98" d="M248.1,593.1l-36-2.1l4-293c-4.5-57.1-25.8-215.4-62.7-259.6c0,0,20.4-9,34.7-12.4
			c19.9,28.8,36.5,81.5,49.5,156.9c10.2,59.5,14.3,111,14.5,113.1l0.1,0.8v0.8L248.1,593.1z"/>
	</g>
	<g>
		<path fill="#073F98" d="M350,593.6l-4-296.8l0.1-0.8c0.2-2.2,4.5-54.1,14.9-114.1c12.8-73.8,29-125.9,48.1-155.3
			c18.6,5.9,35.3,13,35.3,13c-36.9,44.2-57.5,200.9-62.3,258.6l4,293.8L350,593.6z"/>
	</g>
	<g>
		<polygon fill="#073F98" points="316.2,594 280,593.8 280,77.5 316,77.2 		"/>
	</g>
</g>
<g>
	<g>
		<g>
			<path fill="#FFFFFF" d="M394.3,238.2c-16.5,0-29.9-13.4-29.9-29.9s13.4-29.9,29.9-29.9s29.9,13.4,29.9,29.9
				S410.8,238.2,394.3,238.2z"/>
			<path fill="#024D9E" d="M394.3,179.6c7.7,0,14.9,3,20.3,8.4s8.4,12.6,8.4,20.3s-3,14.9-8.4,20.3c-5.4,5.4-12.6,8.4-20.3,8.4
				c-7.7,0-14.9-3-20.3-8.4s-8.4-12.6-8.4-20.3s3-14.9,8.4-20.3C379.4,182.6,386.7,179.6,394.3,179.6 M394.3,177.3
				c-17.1,0-31,13.9-31,31s13.9,31,31,31s31-13.9,31-31S411.5,177.3,394.3,177.3L394.3,177.3z"/>
		</g>
		<circle fill="#6B97C6" cx="394.3" cy="208.3" r="26.3"/>
	</g>
	<g>
		<path fill="#000078" d="M405.4,200.1c-0.1-0.2-0.1-0.4,0.1-0.5s0.3,0,0.4,0.2c0.1,0.1,0.2,0.3,0.3,0.5l0.1,0.1l0.1-0.1
			c0-0.1,0-0.3-0.1-0.4s-0.1-0.3-0.2-0.4c0-0.1,0-0.3,0.2-0.3s0.3,0,0.4,0.1s0.1,0.3,0.3,0.2c0.2-0.1,0-0.2,0-0.4
			c-0.1-0.3-0.1-0.6,0-0.9c-0.2,0.1-0.4,0.2-0.6,0.4s-0.5,0.3-0.7,0.5c-0.1,0.1-0.2,0.1-0.3,0.1c-0.8,0.4-1.2,0.7-1.8,0.9
			c-0.2,0.1-0.5,0.2-0.8,0.2c-0.2,0-0.4-0.1-0.4-0.3c-0.1-0.2,0.1-0.2,0.3-0.3c1.6-0.6,3-1.4,4.3-2.6c0,0,0,0,0.1,0
			c0.3-0.2,0.5-0.2,0.8,0.2c0.2-0.3,0.2-0.6,0.3-1c0-0.6,0-1.3,0.2-1.9c0.3-0.9,0.7-1.7,1.5-2.2c0.3-0.2,0.7-0.3,1.1-0.4
			c0.2,0,0.2,0.1,0.2,0.2c-0.1,0.4-0.2,0.6-0.6,0.8s-0.6,0.4-0.7,0.8c0,0.1,0,0.1,0,0.2c0,0,0.1,0,0.1-0.1c0.2-0.2,0.6-0.3,0.9-0.4
			c0.2-0.1,0.3,0,0.2,0.2c0,0.4-0.2,0.7-0.5,0.9s-0.5,0.4-0.6,0.8c0,0.1,0,0.2,0,0.2c0.1,0.1,0.1-0.1,0.2-0.1
			c0.2-0.2,0.4-0.3,0.6-0.5c0.1-0.1,0.2-0.1,0.2,0.1c0,0.7,0,1.3-0.1,1.9c-0.1,0.6-0.4,0.9-0.8,1.3c-0.2,0.2-0.2,0.5-0.2,0.8
			c0.1,0.4,0.5,0.7,1,0.6c0.2-0.1,0.3,0,0.2,0.2c0,0.3-0.1,0.6-0.2,0.8c-0.3,0.5-0.8,0.7-1.4,0.5c-0.2-0.1-0.5-0.1-0.7-0.1
			s-0.2-0.1-0.2-0.2c0-0.2,0-0.3,0.1-0.5c-0.3,0.1-0.4,0.5-0.4,0.9c0.1,0.2,0.2,0.4,0.3,0.6c0.5,0.6,0.5,1.1,0.2,1.8
			c-0.2,0.4-0.5,0.8-0.9,1.1l-0.1,0.1c-0.1,0-0.1-0.1-0.1-0.2c0-0.4,0-0.8-0.1-1.1c0-0.1-0.1-0.2-0.2-0.3s-0.2-0.1-0.4,0
			c-0.2,0.1-0.2,0.2-0.2,0.3c0,0.2,0.1,0.4,0.1,0.6c0.1,0.4,0,0.9-0.1,1.3c0,0.2-0.1,0.2-0.3,0.2c-0.4-0.1-0.7-0.2-1.1-0.3
			s-0.6-0.3-0.6-0.7c-0.2-1.1-0.6-2.2-1.3-3.2c-0.1-0.2-0.1-0.3,0.1-0.4c0.1-0.1,0.3-0.1,0.4,0.1c0.3,0.3,0.4,0.7,0.6,1.1
			c0,0.1,0,0.1,0.1,0.1s0.1-0.1,0.1-0.2c0-0.2,0-0.4-0.1-0.6c-0.1-0.2-0.2-0.4-0.2-0.6c0-0.1,0-0.2,0.1-0.3s0.2,0,0.3,0.1
			c0.2,0.2,0.3,0.5,0.4,0.7c0.1,0.1,0.1,0.2,0.2,0.2s0.1-0.2,0.1-0.3s0-0.1,0-0.2C405.6,200.6,405.5,200.2,405.4,200.1z"/>
		<path fill="#000078" d="M398.3,195.8c0.3-0.7,0.8-1,1.5-1.1c0.9-0.1,1.7,0.1,2.5,0.4c0.3,0.1,0.6,0.2,0.9,0.3c0.6,0.1,1,0,1.4-0.5
			s0.2-1,0-1.5c0-0.1-0.1-0.1-0.1-0.1c0-0.1-0.2-0.2-0.2-0.3c0.1-0.1,0.2,0,0.4,0c0.8,0.2,1.2,1.2,0.8,2c-0.3,0.7-0.8,0.9-1.5,1
			c-0.6,0.1-1.1-0.1-1.7-0.3c-0.4-0.2-0.8-0.3-1.2-0.4c-0.9-0.3-1.8-0.2-2.6,0.4C398.5,195.7,398.5,195.8,398.3,195.8z"/>
		<path fill="#000078" d="M389.1,201c-0.1,0.3,0,0.6,0.4,0.7c0.1,0,0.2,0.1,0.2,0.2c0.2,0.5,0.3,1.1,0.2,1.7
			c-0.1,0.5-0.2,0.7-0.7,0.8c-0.1,0-0.3,0.1-0.4,0c-0.5,0-0.5,0-0.3-0.4c0.2-0.5,0.1-0.9-0.1-1.4c-0.1-0.2-0.2-0.5-0.4-0.8
			c-0.1-0.3-0.2-0.6,0.1-0.9c0.3-0.3,0.4-0.8,0.5-1.2c0-0.1,0-0.1,0.1-0.1s0.1,0.1,0.1,0.1C388.9,200.2,389.2,200.5,389.1,201z"/>
		<path fill="#000078" d="M392.5,193.9c0,0,0-0.1,0.1-0.1s0.1,0.1,0.1,0.1c0.2,0.2,0.4,0.5,0.5,0.7c0.1,0.1,0.1,0.3,0,0.4
			c-0.2,0.1-0.3,0.1-0.5,0c-0.1-0.1-0.1-0.3-0.1-0.5C392.6,194.3,392.5,194.1,392.5,193.9z"/>
		<path fill="#000078" d="M397.6,223.1c0,0.2-0.3,0.4-0.5,0.4c-0.1,0-0.4-0.2-0.3-0.4s0.3-0.2,0.5-0.2
			C397.5,222.9,397.6,223,397.6,223.1z"/>
		<path fill="#000078" d="M395.2,192.4c0,0.1-0.1,0.2-0.1,0.2c-0.2,0-0.2-0.2-0.2-0.3s0-0.3,0.1-0.2
			C395.1,192.1,395.1,192.3,395.2,192.4z"/>
		<path fill="#000078" d="M391,226.6c0.1,0.1,0.2-0.1,0.2,0.1c0,0.1-0.1,0.2-0.2,0.2s-0.2-0.1-0.2-0.2
			C390.8,226.5,390.9,226.6,391,226.6z"/>
		<path fill="#000078" d="M395.6,192.8c0,0.1-0.1,0.1-0.1,0.1c-0.1,0-0.2-0.1-0.2-0.2c0-0.1,0-0.1,0.1-0.1S395.6,192.7,395.6,192.8z
			"/>
		<path fill="#000078" d="M414.3,206.2c-0.6-0.6-1.4-0.9-2.4-0.9c-1.5,0.1-2.6,0.8-3.5,1.9c-0.4,0.5-0.8,1-1.2,1.5
			c0,0.1-0.1,0.2-0.2,0.1c-0.1,0-0.1-0.1-0.1-0.2c0-0.2,0.1-0.4,0.2-0.6c0.1-0.1,0.2-0.3,0-0.4c-0.2-0.2-0.3,0-0.5,0.1
			c-0.1,0.1-0.1,0.1-0.2,0.2c-0.2,0.2-0.3,0.4-0.5,0.6c0,0.1-0.1,0.2-0.2,0.1c-0.1-0.1-0.1-0.2-0.1-0.2c0-0.2,0.1-0.5,0.2-0.7
			s-0.1-0.4-0.3-0.3c-0.2,0-0.3,0.1-0.4,0.3s-0.2,0.4-0.4,0.6c0-0.1-0.1-0.1-0.1-0.2c0-0.2,0.1-0.4,0.1-0.6c0.1-0.1,0.1-0.3,0-0.4
			c-0.1-0.1-0.3-0.1-0.4,0c-0.2,0.1-0.4,0.3-0.5,0.5c0,0,0,0.1-0.1,0.1s0-0.1,0-0.2c0-0.2,0-0.3,0.1-0.5c0-0.1,0.1-0.2,0-0.3
			s-0.2-0.1-0.4-0.1c-0.1,0-0.2,0.1-0.3,0.3c0,0.1-0.1,0.1-0.1,0.1c-0.1,0-0.1-0.1-0.1-0.1c0-0.3,0.4-0.6,0.6-0.6c1,0.3,2,0.6,3,0.8
			c0.3,0.1,0.6,0.1,1,0c0.2-0.1,0.3-0.2,0.3-0.4s-0.1-0.3-0.3-0.4c-0.1-0.1-0.2-0.1-0.2-0.1c-2.5-0.5-4.7-1.4-6.8-2.7
			c-0.1-0.1-0.2-0.1-0.2-0.2c0.1,0,0.1,0,0.1,0c0.6-0.1,1.2,0.1,1.8,0.4c0.5,0.2,0.9,0.5,1.4,0.7c0.1,0,0.1,0.1,0.2,0
			c0,0,0-0.1,0-0.2c-0.1-0.4-0.2-0.9-0.4-1.2c-0.5-1.2-1.2-2.2-2.4-2.9c-0.8-0.4-1.6-0.7-2.4-0.9c-1.2-0.3-2.2-0.9-2.8-1.9
			c0-0.1-0.1-0.1,0-0.1c0,0,0,0,0.1,0c0.8,0.7,1.7,1.1,2.8,1c0.2,0,0.3,0.1,0.4,0.1c0.2,0.2,0.5,0.4,0.8,0.6
			c0.6,0.3,1.2,0.1,1.6-0.4c0.1-0.2,0.1-0.2-0.1-0.4c-0.4-0.2-0.7-0.4-1-0.7c-0.2-0.3-0.2-0.4,0-0.6c0.2-0.1,0.2-0.4,0.2-0.6
			c0-0.2-0.1-0.3-0.4-0.3c-0.1,0-0.1-0.1-0.2-0.1c-0.1-0.1-0.1-0.1-0.2-0.1c-0.1,0.1-0.1,0.2,0,0.2c0,0.1,0,0.2-0.1,0.3
			s-0.2-0.1-0.2-0.2c-0.1-0.1-0.1-0.1-0.1-0.1c-0.1,0-0.1,0.1-0.1,0.1c0,0.1,0,0.1,0,0.1c0,0.1,0,0.2-0.1,0.2s-0.2-0.1-0.2-0.1
			s-0.1-0.2-0.2-0.2s-0.1,0.2-0.1,0.2c0,0.2-0.1,0.2-0.2,0.2c-0.5-0.2-0.8-0.5-1-1c-0.1-0.4,0.4-0.9,0.8-0.8c0.1,0,0.1,0,0.2-0.1
			c0.1-0.2,0.2-0.2,0.3-0.1c0.1,0.1,0.1,0.1,0.2,0c0.2-0.3,0.2-0.3,0.4,0l0.1,0.1c0.1,0,0.1-0.1,0.1-0.1c0-0.1,0.1-0.2,0.2-0.2
			s0.1,0.1,0.2,0.2c0.1,0.2,0.2,0.2,0.2,0c0.1-0.1,0.1-0.2,0.3-0.2c0.6-0.1,0.9-0.7,0.6-1.3c-0.1-0.1-0.1-0.1-0.2-0.1
			c-0.1,0.1-0.3,0-0.4-0.1s-0.1-0.1-0.1-0.2c0-0.1,0.1,0,0.2,0c0.2,0.1,0.4,0.1,0.5-0.1c0.1-0.2,0.1-0.5-0.1-0.6
			c-0.2-0.2-0.4-0.2-0.6-0.3c-0.5-0.1-1-0.3-1.6-0.4c-0.1,0-0.2,0-0.3,0c-0.3,0.1-0.4,0-0.6-0.2c-0.1-0.2-0.2-0.5-0.6-0.5
			c-0.1,0-0.1-0.1-0.1-0.1c0-0.1-0.1-0.2-0.2-0.2c-0.2-0.2-0.6-0.3-0.9-0.3c-1-0.2-2-0.1-3,0.1c-0.2,0.1-0.5,0.1-0.8,0.1
			c-0.2,0.1-0.2,0.2-0.2,0.4c0,0.1,0.1,0.3,0.3,0.2c0.5-0.2,1-0.2,1.4-0.3c0.7-0.1,1.4-0.1,2.1,0.1c0.1,0,0.2,0,0.2,0.2
			c-0.1,0-0.2,0-0.3,0c-0.5,0-1,0-1.4,0.1c-0.1,0-0.1,0-0.1,0c-1,0-1.7,1-1.8,1.1c-0.2,0.2-0.4,0.2-0.8,0c-0.6-0.3-1.1-0.6-1.5-1.1
			c-0.2-0.2-0.2-0.2-0.3,0.1c-0.1,0.2-0.1,0.4-0.2,0.6c0,0,0,0-0.1-0.1c0-0.1,0-0.1,0-0.1c-0.1-0.4,0-0.8,0.4-1.1
			c0.1-0.1,0.2-0.1,0.4,0c0.4,0.4,0.8,0.7,1.3,1.1c0.2,0.1,0.5,0.2,0.8,0.3c0.2,0,0.4-0.1,0.2-0.3c0-0.1-0.1-0.2-0.2-0.2
			c-0.8-0.5-1.5-1.1-2.1-1.8c-0.1-0.1-0.2-0.1-0.3,0c-0.3,0.3-0.7,0.7-0.9,1.2c-0.4,0.8-0.2,1.5,0.5,2c0.3,0.2,0.6,0.4,1,0.6
			c0.1,0,0.1,0.1,0.2,0.2c-0.6-0.2-1.2-0.4-1.8-0.9c-0.3-0.3-0.5-0.6-0.6-1.1c0-0.1,0-0.2-0.2-0.2c-0.3-0.2-0.6-0.4-1-0.5
			c-0.1-0.1-0.2-0.1-0.2,0c-0.3,0.5-0.5,1-0.5,1.6s0.5,1.1,1,1.2c0.2,0,0.3,0,0.4-0.1c0.1-0.2-0.1-0.2-0.2-0.3
			c-0.2-0.2-0.4-0.4-0.5-0.6c-0.1-0.1-0.1-0.2,0-0.3c0.3,0.4,0.6,0.7,1.1,0.8c0.1,0,0.2,0.1,0.2,0.2s0,0.2-0.1,0.2
			c-0.5,0.4-0.8,0.9-1.1,1.4c-0.2,0.4-0.4,0.9-0.7,1.4c-0.2,0.5-0.6,1-1.2,1.1c-0.1,0-0.1,0.1-0.1,0.2c0.2,0.4,0.8,0.7,1.2,0.6
			c0.1-0.1,0.2-0.1,0.2-0.3s-0.1-0.4,0.1-0.6c0.1,0,0.1,0.1,0.1,0.1c0.1,0.3,0.2,0.6,0.4,0.9c0.2,0.3,0.5,0.2,0.6-0.1
			c0.1-0.2,0.1-0.5,0.1-0.8c-0.1-0.5-0.2-1-0.2-1.5c0-0.6,0.1-0.8,0.4-1.3c0-0.1,0.1-0.2,0.2-0.3c0,0.2-0.1,0.4,0,0.5
			c0.2,0.2,0.1,0.4,0,0.5s-0.2,0.2-0.2,0.4c0,0.5,0,1,0.1,1.4c0.1,0.1,0.2,0.3,0.3,0.3s0.3-0.1,0.4-0.2c0.1-0.5,0.1-0.9-0.1-1.3
			c-0.1-0.2-0.1-0.4,0-0.5c0.1-0.2,0.2-0.4,0.3-0.6c0.1-0.1,0.1-0.4,0.3-0.4c0.1,0.1,0,0.2,0,0.3c0,0.2,0,0.3,0.1,0.4
			c0.3,0.2,0.3,0.5,0.1,0.8c-0.1,0.1-0.1,0.2,0,0.4c0.1,0.1,0.2,0.1,0.3,0.1c0.2-0.1,0.5-0.3,0.4-0.6c-0.1-0.5,0.1-0.9,0.4-1.4
			c0.1-0.1,0.1-0.1,0.2-0.1c-0.1,0.3-0.1,0.6-0.2,0.9c0,0.1,0,0.2,0,0.2v0.1l0,0c0.1,0.2,0.1,0.3,0,0.4c-0.1,0.1-0.1,0.2-0.2,0.3
			c-0.1,0.2-0.3,0.4-0.5,0.4l-0.1,0.1H390c-0.1,0-0.1,0.1-0.1,0.2v0.1c-0.1,0.4-0.4,0.7-0.9,0.8c-0.2,0.1-0.4,0.2-0.5,0.4
			c-0.2,0.5-0.8,0.7-1.2,0.4c-0.2-0.2-0.2-0.2-0.4,0.1c-0.2,0.4-0.1,0.8-0.1,1.2c0,0.7-0.1,1.2-0.6,1.7c-0.1,0.1-0.1,0.1,0,0.2
			c0.3,0.2,0.5,0.3,0.9,0.2s0.6-0.4,0.8-0.7c0.3-0.5,0.4-1.1,0.5-1.6c0-0.1,0-0.2,0.1-0.3c0.1,0.1,0.1,0.1,0.1,0.2
			c0.2,0.4,0.4,0.9,0.6,1.3c0.1,0.1,0.1,0.2,0.2,0.3c0.2,0.1,0.3,0.3,0.4,0.5s0.2,0.4,0.4,0.5c0.2,0.1,0.5,0,0.6-0.2
			c0.3-0.4,0-1.4-0.5-1.5l0,0c-0.3-0.1-0.4-0.3-0.4-0.6c0.1-0.3,0.3-0.7,0.2-1c0.2,0.1,0.1,0.3,0.4,0.4c0.2,0.1,0.3,0.2,0.3,0.4
			c0,0.5,0.3,0.9,0.6,1.3c0.2,0.2,0.4,0.2,0.6,0.1c0.3-0.1,0.3-0.4,0.3-0.6c0-0.2,0-0.4-0.3-0.5s-0.4-0.2-0.4-0.5
			c0-0.2,0-0.4-0.1-0.6l0,0l0,0c0-0.1,0-0.1,0-0.1c-0.1-0.2-0.1-0.7,0-0.8c0-0.2,0.1-0.4,0.1-0.4s0.1,0.1,0.2,0.4
			c0.1,0.2,0.1,0.3,0.3,0.4c0.3,0.3,0.6,0.6,0.6,1.2c0,0.2,0.3,0.4,0.5,0.4s0.4-0.2,0.4-0.5v-0.1c0-0.2,0-0.3-0.1-0.5
			c-0.2-0.4-0.5-0.8-0.8-1.2c-0.1-0.1-0.2-0.2-0.4-0.2c-0.3,0-0.4-0.2-0.4-0.5c0-0.2,0-0.3,0.1-0.5c0-0.1,0-0.1,0-0.2
			c0-0.1,0-0.2,0-0.3s0-0.1,0-0.2c0-0.4,0-0.7,0-0.9c0,0,0,0,0-0.1c0.1-0.2,0.1-0.5,0.2-0.7c0.1,0.1,0,0.1,0,0.2c0,0.1,0,0.2,0,0.4
			c0.1,0.4,0.1,0.8,0.2,1.1c0.1,0.1,0.1,0.2,0.2,0.3c0,0,0,0.1,0.1,0.1c0.1,0.1,0.1,0.2,0.1,0.4s0,0.3,0.1,0.5
			c0.3,0.4,0.6,0.8,1,1.1c0,0.1,0.1,0.1,0.2,0.1c0.1-0.1,0-0.1,0-0.2c-0.3-0.5-0.5-1-0.6-1.6c-0.1-0.2-0.1-0.4,0-0.7
			c0-0.1,0-0.1,0-0.1s0.1,0,0.1,0.1s0,0.1,0,0.2c0.6,1.6,1.5,2.9,3,3.8c0.8,0.6,1.8,0.9,2.8,1.2c0.9,0.4,1.7,0.9,2.2,1.7
			c0,0,0.1,0.1,0,0.2c0-0.1-0.1-0.1-0.2-0.1c-0.7-0.6-1.6-0.9-2.4-1.3c-0.1,0-0.2-0.1-0.3,0c0,0.1,0.1,0.1,0.1,0.2
			c0.2,0.2,0.5,0.5,0.7,0.9s0.1,1-0.3,1.3c-0.2,0.2-0.5,0.2-0.8,0.1c-0.1-0.1-0.1-0.1,0-0.2c0.5-0.3,0.5-0.7,0.2-1.1
			c-0.2-0.3-0.5-0.5-0.8-0.6c-1.4-0.8-2.7-1.6-3.9-2.7l-0.1-0.1v0.1c0.2,0.9-0.4,1.4-1.3,1.3c-0.2,0-0.2,0-0.2,0.2
			c-0.1,0.7-0.5,1-1.1,1c-0.2,0-0.2,0-0.3,0.2c-0.1,0.6-0.5,0.9-1.1,0.8c-0.2,0-0.3,0.1-0.2,0.3c0.2,0.5,0.3,1,0.2,1.6v0.1
			c0,0.4,0.1,0.7,0.4,1c0.5,0.6,0.9,1.1,0.7,1.9c0,0.1,0.1,0.1,0.2,0.1c0.8-0.1,1.1-0.4,1-1.2c-0.1-0.5-0.2-1-0.6-1.4
			c-0.2-0.3-0.4-0.6-0.4-0.9c0.2,0.1,0.3,0.3,0.5,0.4c0.2,0.3,0.4,0.6,0.7,0.9c0.1,0.2,0.4,0.3,0.6,0.2s0.4-0.4,0.4-0.6
			c-0.1-0.3-0.4-0.7-0.6-0.7c-0.5-0.1-0.6-0.2-0.6-0.7c0-0.2,0-0.5-0.1-0.7c0-0.1-0.1-0.1,0-0.3c0.2,0.2,0.4,0.4,0.7,0.5
			c0.1,0,0.2,0.2,0.2,0.3c0,0.4,0.3,0.7,0.5,1c0.3,0.4,0.6,0.8,0.9,1.1c0.3,0.2,0.7,0.4,1,0.2c0.2-0.1,0.2-0.2,0.2-0.4s-0.8-1-1-1
			l0,0c-0.5-0.1-0.7-0.2-0.7-0.8c0-0.4-0.2-0.8-0.4-1.1c-0.1-0.2-0.3-0.4-0.3-0.7c0.2,0.2,0.4,0.4,0.6,0.7c0.1,0.1,0.2,0.2,0.4,0.2
			c0.5,0,0.6,0.2,0.7,0.7c0,0.1,0,0.2,0.1,0.3c0.5,0.5,0.9,1.1,1.5,1.6c0.4,0.3,0.7,0.4,0.9,0.1c0.2-0.2,0.2-0.6-0.1-0.9
			c-0.1-0.1-0.2-0.2-0.4-0.2c-0.5,0-0.7-0.1-0.7-0.6c-0.1-0.3-0.2-0.6-0.4-0.9c-0.4-0.5-0.8-1-1.1-1.6c-0.1-0.1-0.1-0.2-0.1-0.3
			c0.6,0.6,1.2,1,1.7,1.6c0.1,0.1,0.2,0.2,0.4,0.2c0.3,0,0.5,0.2,0.5,0.5c0,0.1,0.1,0.3,0.2,0.4c0.5,0.5,0.9,1.1,1.7,1.1
			c0.2,0,0.2,0.2,0.1,0.3c-0.1,0.2-0.3,0.4-0.6,0.4c-0.2,0-0.2,0.1-0.3,0.2c-0.1,0.4-0.3,0.5-0.7,0.6c-0.5,0.1-0.9,0.1-1.3-0.1
			c-0.2-0.1-0.3-0.1-0.5,0c-0.2,0.2-0.5,0.2-0.8,0.1c-0.4,0-0.7-0.1-1-0.3c-0.4-0.2-0.7-0.2-1,0c-0.1,0.1-0.1,0.1-0.1,0.2
			c0,0.4-0.1,0.8-0.2,1.1c-0.3,1.5-1,2.8-2.1,3.8c-1.6,1.5-3.1,3.2-4.7,4.7c-0.2,0.2-0.5,0.4-0.8,0.6c-0.9,0.3-1.7,0.2-2.5-0.4
			c-0.1-0.1-0.3-0.3-0.5-0.4c0.3,0.8,0.8,1.2,1.5,1.6c0,0,0,0-0.1,0h-0.1c-0.5,0-1-0.3-1.3-0.7c-1-1.2-0.9-3.1,0.2-4.2
			c1-1.1,2.1-2.1,3.1-3.2c1.1-1.2,1.3-3.1,0.5-4.5c-0.4-0.7-0.9-1.1-1.5-1.5c-0.3-0.2-0.6-0.4-0.9-0.7c-0.3-0.4-0.2-0.8,0.3-0.9
			c0.2-0.1,0.2-0.1,0.1-0.3c-0.3-0.3-0.7-0.5-1.1-0.3c-0.5,0.2-0.8,0.4-0.9,1c0,0.1,0,0.3-0.1,0.3c-0.2,0-0.3-0.1-0.3-0.3
			s0-0.4,0-0.5c0.2-0.4,0.5-0.7,0.8-0.9l0.1-0.1c0-0.1-0.1-0.1-0.1-0.1c-0.4-0.1-0.7-0.1-1.1,0c-0.7,0.1-1.2,0.5-1.3,1.1
			c-0.1,0.3-0.1,0.5,0,0.8c0,0.1,0,0.2-0.1,0.3s-0.2,0-0.3-0.1c-0.1-0.1-0.2-0.2-0.3-0.4c-0.1-0.2-0.2-0.4-0.4-0.5
			c-0.5-0.5-1.2-0.4-1.5,0.2c-0.1,0.2-0.1,0.2,0.1,0.4c0.5,0.2,0.8,0.6,1,1.1s-0.1,1.2-0.5,1.3c-0.1,0-0.1,0.1-0.2,0s0-0.1,0.1-0.2
			c0-0.1,0.1-0.1,0.1-0.2c0.1-0.2,0.1-0.3-0.1-0.3s-0.4-0.1-0.6-0.1c-1.2-0.4-1.8-1.3-2.2-2.4c-0.3-0.8-0.2-1.6,0.4-2.3
			c0.1-0.1,0.1-0.2,0.3-0.2c0.1,0.1,0,0.2-0.1,0.3c-0.2,0.4-0.4,0.8-0.4,1.3c0,0.1,0,0.2,0.1,0.2s0.1-0.1,0.1-0.2
			c0.1-0.2,0.2-0.5,0.3-0.6c0.7-0.8,1.4-1.6,2.4-2.1c1.2-0.6,2.4-1.4,3.3-2.4c0.5-0.6,0.9-1.2,1-1.9c0.1-1.3,0-2.2-1.3-3
			c-0.1-0.1-0.3-0.2-0.5-0.3c-0.8-0.3-1.1-0.9-1.1-1.8c0-0.2,0-0.4,0.1-0.6c-0.1,0-0.1,0-0.1,0.1c-0.4,0.5-0.6,1-0.4,1.7
			c0.1,0.4,0.4,0.7,0.7,0.9c0.2,0.2,0.5,0.4,0.7,0.6c0.4,0.3,0.8,0.7,1,1.2c0,0.1,0.1,0.2,0,0.4c-0.5-0.8-1.2-1.2-1.9-1.7
			c-0.7-0.6-1.1-1.3-1-2.3c0-0.1,0-0.1-0.1-0.1c-0.2,0.2-0.3,0.4-0.5,0.7c-0.4,1,0,1.7,0.6,2.5c0.3,0.4,0.7,0.6,1,1
			c0.1,0.1,0.2,0.2,0.2,0.3c0,0.2-0.2,0.2-0.4,0.2c-0.3,0-0.6-0.1-0.9-0.4c-0.5-0.4-0.9-1.1-1.3-1.7c-0.1-0.1-0.1-0.2-0.2-0.1
			c-0.6,1-0.8,2.2,0.5,3c0.2,0.1,0.4,0.2,0.6,0.4c0.2,0.1,0.3,0.3,0.1,0.5c-0.2,0.2-0.4,0.3-0.7,0.2c-0.5-0.1-0.9-0.2-1.3-0.2
			c-0.9,0-1.3,0.5-1.2,1.3c0,0.1,0,0.1,0,0.2c0,0.1,0,0.2,0.1,0.2s0.1-0.1,0.2-0.2c0.4-0.5,1.3-0.7,1.9-0.4c0.4,0.2,0.5,0.5,0.5,0.8
			c-0.2-0.2-0.4-0.4-0.7-0.4c-0.2-0.1-0.3,0-0.3,0.2c-0.1,0.2-0.2,0.4-0.4,0.6c-0.3,0.3-0.6,0.7-1,1c-0.3,0.3-0.6,0.6-0.8,1.1
			c-0.6,1.1-0.8,2.9,0.7,4.5c1.4,1.5,3.6,1.7,5.2,0.6c0.3-0.2,0.5-0.4,0.9-0.5c1.5-0.6,3,0.1,3.6,1.6c0.1,0.2,0.1,0.4,0.2,0.7
			c0.3-0.5,0.3-1,0.3-1.6c0.2,0.3,0.4,0.7,0.3,1.1c-0.2,1.2-0.9,2.1-2,2.7c-0.1,0.1-0.2,0.2-0.1,0.4c0.1,0.1,0.1,0.3,0.2,0.4
			c0.1,0,0.1,0.1,0.1,0.1s-0.1,0.1-0.2,0.1c-0.3-0.1-0.6-0.4-0.7-0.7c-0.1-0.5,0.1-0.9,0.5-1.3c0.1-0.1,0.1-0.1,0.1-0.1
			c0-0.1-0.1-0.1-0.2-0.1c-1.2-0.3-1.9,0.3-1.8,1.5c0,0.2,0,0.3,0.1,0.4c0,0.2,0,0.3,0.1,0.4c0,0.2-0.1,0.3-0.2,0.4
			c-0.2,0.1-0.3-0.1-0.4-0.2c0-0.1-0.1-0.2-0.1-0.2c-0.1-0.3-0.1-0.6-0.1-0.9c0-0.1,0-0.2-0.1-0.2s-0.1,0.1-0.2,0.1
			c-0.7,0.8-1,1.7-0.6,2.7c0.2,0.5,0.3,1.1,0.1,1.6c-0.2,0.6-0.2,1.2-0.1,1.8c0.3,2,2.2,3.3,3.6,3.4c0.4,0.1,1.3,0,1.5-0.1
			c0.8-0.2,1.4-0.6,2-1.1c0.6-0.6,1.1-1.2,1.7-1.7l0.4-0.4l0,0c0.1-0.1,0.1,0,0.2,0.1c0.3,0.8,0.7,1.5,1.1,2.3
			c0.2,0.5,0.5,1.1,0.4,1.7c0,1.1-1,1.8-2,1.4c-0.5-0.2-0.9-0.2-1.1,0.4c-0.1,0.3-0.3,0.6-0.4,0.9c-0.1,0.3-0.4,0.4-0.6,0.5
			c-0.7,0.2-2-0.2-2.5-0.8l0,0c0,0,0,0,0.1,0c0.8,0.4,1.5,0.5,2.4,0.4c0.1,0,0.2-0.1,0.3-0.1c0.2-0.1,0.3-0.1,0.2-0.4
			c-0.1-0.2-0.2-0.2-0.4-0.1c-0.4,0.1-0.9,0.1-1.3,0c-0.8-0.2-1.5-0.5-2.1-1c-0.2-0.2-0.2-0.1-0.3,0.1c0,0.3-0.1,0.5,0,0.8
			c0,0.8,0.4,1.5,1.2,1.9c0.3,0.1,0.6,0.3,0.9,0.4c0.3,0.2,0.5,0.4,0.6,0.7c0,0.1,0,0.1-0.1,0.1c0,0-0.1,0-0.1-0.1
			c-0.1-0.1-0.2-0.3-0.3-0.4c-0.1-0.1-0.2-0.1-0.2,0c-0.1,0.2-0.4,0.2-0.6,0.1c-0.4-0.2-0.6-0.4-1-0.7c0-0.1-0.1-0.1-0.2-0.1
			s0,0.1,0,0.2c0,0.4,0,0.8,0.1,1.2c0.2,0.7,0.6,1.2,1.4,1.2c0.1,0,0.1,0,0.1,0c0.2,0,0.4,0.1,0.4,0.3s-0.1,0.4-0.2,0.4
			c-0.1,0.1-0.2,0.1-0.3,0.2c-0.7,0.4-0.9,1-0.5,1.7c0.1,0.2,0.2,0.3,0.4,0.5s0.2,0.2,0.4,0c0.4-0.6,0.9-0.7,1.4-0.2
			c0.3,0.3,0.6,0.6,0.7,1s0.3,0.5,0.7,0.6c0.6,0.1,1.3,0.1,2,0.1c0.2,0,0.2-0.1,0.1-0.2c-0.1-0.2-0.2-0.5-0.3-0.7c0,0-0.1-0.1,0-0.1
			l0,0h0.1c0.1,0,0.2,0.1,0.2,0.1c0.3,0.2,0.3,0.3,0.4,0.4c0,0.1,0,0.2,0,0.2c0.1,0.2,0.3,0.3,0.5,0.3c0.1,0,0.3,0,0.4,0
			c0.2,0,0.3-0.1,0.2-0.3c-0.1-0.3-0.2-0.7-0.4-1c0.5,0.1,0.7,0.5,0.9,0.8c0.2,0.4,0.4,0.5,0.8,0.4c0.1,0,0.2-0.1,0.2-0.2
			c0-0.8-0.2-1.4-0.7-2c-0.1-0.1-0.1-0.1-0.2-0.1l0,0c-0.8-0.8-2.2-0.6-2.4-0.6c-0.3,0-0.5-0.1-0.7-0.2c-0.1-0.1-0.3-0.1-0.4,0.1
			c-0.2,0.2-0.1,0.5,0.2,0.6c0.2,0.1,0.5,0.1,0.8,0.1c0.1,0,0.2,0,0.3,0l0,0c0.3,0,0.7,0.1,0.9,0.1l0,0c0,0,0,0,0.1,0s0.1,0,0.1,0
			l0,0c0.2,0.1,0.4,0.1,0.6,0.3c-0.1,0.1-0.3,0-0.3,0l0,0c-0.3,0-1.2-0.1-1.7,0c-0.2,0-0.4,0-0.5,0c-0.6,0-0.7-0.6-0.6-0.9
			c0.3-0.8,0.5-1.6,0.6-2.3c0-0.6,0.2-1.1,0.5-1.6c0.2-0.4,0.5-0.6,1-0.6c1.3,0,2.5-0.1,3.8-0.4c1.1-0.3,2.1-0.8,2.9-1.8
			c0.9-1.1,1.1-2.5,1-3.9c-0.1-1.6-0.6-3.1-1.3-4.5c-0.1-0.2-0.1-0.4,0.1-0.6c0.3-0.4,0.6-0.7,1-0.9c0.2-0.1,0.3-0.1,0.5-0.1
			c0.7,0.1,1.3-0.1,1.9-0.5c0.2-0.1,0.4-0.2,0.6-0.4c0.2-0.1,0.4-0.1,0.5,0.1c0.2,0.2,0.1,0.4,0,0.6c-0.1,0.1-0.2,0.2-0.4,0.3
			c-0.3,0.2-0.7,0.4-1,0.5c0,0-0.1,0-0.1,0.1s0.1,0.1,0.1,0.1c0.4,0.2,0.8,0.3,1.1,0.4c0.3,0.1,0.6,0.1,0.9,0.1
			c0.7,0,1.2-0.3,1.5-0.9c0.1-0.3,0.4-0.4,0.6-0.3c0.3,0,0.4,0.2,0.5,0.6c0,0.1,0,0.2,0,0.2c0.1,0.8,0.6,1.3,1.4,1.3
			c0.3,0,0.7-0.1,1-0.2c0.3-0.1,0.3-0.1,0.1-0.3c-0.4-0.6-0.3-1.2,0.3-1.5c0.2-0.1,0.3-0.2,0.5-0.2c0.3-0.1,0.7-0.1,1-0.2
			c0.5-0.1,1.1-0.2,1.5-0.8l0,0c0.3,0,0.4-0.2,0.6-0.3c0.1-0.1,0.1-0.3-0.1-0.4c-0.2-0.1-0.5-0.2-0.7-0.2c-0.1,0-0.2,0-0.2-0.1
			s0.1-0.1,0.2-0.2c0.3-0.1,0.7-0.1,1,0.1c0.3,0.1,0.6,0.2,0.9,0c0.2-0.1,0.4-0.2,0.5-0.4c0.1-0.1,0.1-0.2,0-0.2
			c-0.2-0.1-0.5-0.3-0.8-0.4c-0.1,0-0.3,0-0.5-0.2c0.5-0.2,0.9-0.3,1.4,0c0.3,0.2,0.6,0.2,1,0.1
			C414.5,206.4,414.5,206.4,414.3,206.2z M398.6,193.7c-0.8,0.1-1.4,0.6-1.8,1.3c0-0.4,0.1-0.8,0.5-1.1S398.1,193.6,398.6,193.7z
			 M395,191.7c0-0.1,0-0.1,0.1-0.1c0.1-0.1,1.4,0.1,1.4,0.1l0,0h0.1c0.3,0.1,0.5,0.2,0.6,0.5c0,0.1,0.2,0.2,0.3,0.1
			c0.1-0.1,0.1-0.1,0.2-0.2l0,0l0,0l0,0c0-0.1,0-0.1,0.1-0.2c0.1,0,0.3,0,0.4,0.1s0.1,0.2,0.1,0.4s-0.2,0.4-0.4,0.5
			c-0.5,0.1-1.1,0.2-1.6,0.1l0,0l0,0C395.5,192.8,395,192,395,191.7z M387.8,223.9c-0.1,0.8-0.3,1.6-0.4,2.4c0,0.2,0,0.4,0,0.6
			c-0.3-0.3-0.4-0.8-0.4-1.2c-0.1-0.8,0.1-1.4,0.2-2.1c0.1-0.5,0.3-1,0.1-1.5c0-0.1,0.1-0.1,0.2-0.1c0.3,0.1,0.5,0.4,0.4,0.8
			C387.9,223.2,387.8,223.5,387.8,223.9z M393.1,219.9H393c-0.3-0.2-0.4-0.5-0.6-0.8c0-0.1,0-0.1,0.1-0.1h0.1
			c0.2,0.2,0.4,0.5,0.5,0.7C393.1,219.8,393.1,219.8,393.1,219.9z M394.3,219.1c-0.1,0-0.1,0-0.1-0.1c-0.7-0.9-1.4-1.8-2-2.7
			c0,0-0.1-0.1,0-0.1c0-0.1,0.1,0,0.2,0c0.1,0.1,0.2,0.1,0.3,0.2c0.7,0.7,1.3,1.4,1.7,2.4C394.3,218.9,394.3,219,394.3,219.1z
			 M396.3,212.5c-0.4-0.4-0.7-0.8-1.3-1c-0.1-0.1-0.2-0.1-0.2-0.2c-0.2-0.3-0.5-0.5-0.8-0.6c-0.2-0.1-0.5,0-0.6,0.2
			s-0.1,0.4,0.1,0.6c0.2,0.2,0.5,0.3,0.8,0.4c0.4,0.1,0.6,0.4,0.8,0.7c0.1,0.2,0.2,0.4,0.4,0.6c0.3,0.4,0.6,0.8,0.8,1.2
			c0.1,0.2,0.1,0.3,0.2,0.4c-0.1,0-0.1-0.1-0.2-0.1c-0.3-0.5-0.8-0.9-1.2-1.4c-0.1-0.1-0.1-0.2-0.2-0.1c-0.5,0-0.7-0.3-0.9-0.6
			c-0.2-0.4-0.5-0.6-0.8-0.8c-0.2-0.2-0.5-0.1-0.6,0s-0.1,0.4,0.1,0.6c0.1,0.1,0.3,0.2,0.5,0.3c0.2,0.2,0.5,0.3,0.7,0.6
			c0.2,0.2,0.4,0.3,0.6,0.4c0.3,0.2,0.5,0.4,0.6,0.9c0,0.2,0.2,0.3,0.2,0.5c0.2,0.4,0.4,0.7,0.5,1.1c0,0,0,0,0,0.1
			c-0.2-0.3-0.4-0.5-0.6-0.8c-0.2-0.2-0.3-0.3-0.6-0.4c-0.3-0.1-0.5-0.4-0.6-0.7c-0.4-0.7-1-1.1-1.6-1.4c-0.2-0.1-0.4,0-0.5,0.2
			s-0.1,0.4,0.1,0.6c0.2,0.2,0.5,0.4,0.8,0.7c0.4,0.4,0.8,0.9,1.2,1.3c0.1,0.1,0.2,0.2,0.4,0.3c0.3,0.2,0.5,0.4,0.6,0.7
			c0.1,0.4,0.3,0.8,0.4,1.2c0.1,0.2,0.1,0.4,0.1,0.6c-0.2-0.2-0.3-0.5-0.5-0.8c-0.1-0.2-0.2-0.4-0.4-0.4c-0.2-0.1-0.3-0.2-0.3-0.4
			c-0.5-1.1-1.4-1.8-2.2-2.5c0,0-0.1-0.1-0.2,0c-0.1,0-0.1,0.1-0.1,0.2s0.1,0.2,0,0.2s-0.1-0.1-0.2-0.2c-0.3-0.6-0.4-1.3-0.1-2
			c0.2-0.6,0.6-1,1-1.5c1.1-1.1,1.7-2.5,2.2-4c0-0.1,0-0.2,0.1-0.2s0.1,0.1,0.1,0.1c0.1,0.2,0.3,0.4,0.5,0.4c0.5,0.2,0.9,0.5,1.1,1
			c-0.1,0.1-0.2,0-0.3-0.1c-0.3-0.2-0.6-0.3-0.9-0.4c-0.4,0-0.5,0.2-0.3,0.5c0.1,0.2,0.2,0.3,0.4,0.4c0.5,0.3,1,0.8,1.2,1.3
			c0,0.1,0.1,0.2,0.1,0.2c-0.1,0-0.2-0.1-0.2-0.1c-0.4-0.4-0.9-0.7-1.4-0.9c-0.2-0.1-0.3-0.2-0.5,0c-0.1,0.2-0.1,0.4,0,0.6
			c0.2,0.2,0.4,0.4,0.7,0.4c0.3,0.1,0.5,0.2,0.6,0.5c0.1,0.2,0.2,0.4,0.4,0.6c0.3,0.3,0.5,0.6,0.6,1.1
			C396.4,212.7,396.4,212.6,396.3,212.5z M401.9,205.7c-0.1,0-0.1-0.1-0.1-0.1c0-0.2,0.1-0.2,0.3-0.2c0,0,0.1,0,0.1,0.1
			C402.1,205.6,402.1,205.7,401.9,205.7z M402.6,206.3c-0.1,0-0.1,0-0.1-0.1c0-0.2,0.2-0.5,0.5-0.5c0.1,0,0.1,0.1,0.1,0.1
			C403.1,205.9,402.7,206.3,402.6,206.3z"/>
		<path fill="#000078" d="M407.9,227.1c-0.9-0.4-1.8-0.6-2.8-0.6c-0.3,0-0.7,0-1-0.2c-0.1-0.1-0.2-0.1-0.3,0c-0.1,0.1-0.1,0.2,0,0.4
			c0.1,0.1,0.2,0.2,0.3,0.2c0.3,0.1,0.6,0.1,1,0.1c0.5,0,1,0.1,1.6,0.2c0.2,0,0.4,0.1,0.5,0.3c-0.4,0-0.7-0.1-1-0.1
			c-0.6-0.1-1.2-0.1-1.9-0.2c-0.4-0.1-0.7-0.4-0.7-0.9c0-0.2-0.1-0.3-0.1-0.5c-0.1-0.4-0.3-0.7-0.5-1s-0.4-0.6-0.5-1s0-0.8,0.3-1
			c0.1-0.1,0.2-0.1,0.3-0.2c0.7-0.4,1.4-0.7,1.9-1.2c0.8-0.8,1.5-1.6,1.6-2.8c0.2-1.9-0.5-3.5-1.9-4.7c-0.7-0.6-1.6-1-2.4-1.4
			c-1.1-0.5-2.3-0.8-3.5-1.2c-0.2-0.1-0.4-0.1-0.5-0.2c-0.2-0.1-0.4,0.1-0.3,0.2c0,0.4,0.5,0.9,0.9,1c1.5,0.3,3,0.9,4.3,1.8
			c0.2,0.2,0.5,0.4,0.6,0.6c0,0.1,0.1,0.1,0.1,0.2c-0.1,0.1-0.2,0-0.2-0.1c-1.1-0.7-2.3-1.1-3.6-1.5c-0.2-0.1-0.5-0.1-0.8-0.1
			c-0.2,0-0.3,0.1-0.4,0.3c0,0.2,0.1,0.3,0.3,0.3c0.1,0,0.1,0,0.2,0c0.8,0.2,1.6,0.4,2.4,0.9c0.1,0.1,0.2,0.1,0.3,0.3
			c-0.4-0.1-0.8-0.2-1.1-0.3c-0.5-0.1-1-0.2-1.5-0.2c-0.1,0-0.3,0.1-0.3,0.2c0,0.2,0.1,0.2,0.2,0.3c0.1,0,0.2,0.1,0.3,0.1
			c0.3,0.1,0.6,0.2,0.9,0.4c0.1,0.1,0.2,0.1,0.2,0.2c-0.3-0.1-0.5-0.2-0.8-0.2c-0.4-0.1-0.6,0.1-0.6,0.6c0,0.4,0,0.7,0,1.1
			c0,0.2,0,0.3,0.2,0.4c0.4,0.3,0.8,0.6,1.1,1c0.1,0.2,0.6,0.9,0.7,1.2c0,0.1,0,0.1,0.1,0.2c0.1,0.3,0,0.6,0,0.9
			c0,0.4-0.2,0.6-0.5,0.8c-0.1,0.1-0.2,0.1-0.3,0.1c-0.4,0.1-0.6,0.4-0.7,0.8c-0.1,0.5-0.4,0.7-0.9,0.8c-0.2,0-0.5,0-0.8-0.1l0,0
			c-0.1,0-0.1,0-0.2-0.1c-0.2-0.1-0.4-0.2-0.1-0.2l0,0c0.1,0,0.3,0,0.5,0c0.3,0,0.6,0,0.9-0.1c0.2-0.1,0.3-0.2,0.2-0.4
			c-0.1-0.2-0.2-0.2-0.4-0.2c-0.3,0.1-0.6,0.1-0.9,0.1c-0.2,0-0.5,0-0.7-0.1s-0.5-0.1-0.8,0.1c-0.1,0.1-0.2,0.2-0.2,0.3l0,0
			c0,0,0,0.6,0.6,1.2l0,0c0,0.1,0.1,0.1,0.2,0.2c0.1,0.1,0.3,0.2,0.5,0.2c0.2,0.1,0.5,0.1,0.7,0.2c0.1,0,0.2,0.1,0.3,0.2
			c0,0.2-0.1,0.3-0.2,0.4s-0.2,0.1-0.4,0c-0.3,0-0.6-0.1-0.9-0.3c-0.1-0.1-0.2-0.1-0.2,0.1c0.1,0.4,0.2,0.8,0.4,1.1
			c0.3,0.4,0.7,0.6,1.3,0.5c0.1,0,0.3,0,0.4-0.1c0.2,0,0.4,0,0.5,0.2s0,0.3-0.1,0.5v0.1c-0.3,0.5-0.2,0.9,0.2,1.2
			c0.1,0.1,0.3,0.2,0.5,0.3c0.4,0.2,0.4,0.2,0.7-0.1c0.2-0.2,0.4-0.3,0.7-0.4c0.4-0.1,0.9,0,1.3,0.2c0.2,0.1,0.3,0.2,0.4,0.3
			c0.2,0.6,0.7,0.8,1.2,0.8c0.4,0,0.9,0,1.3,0c0.2,0,0.2-0.1,0.2-0.2c-0.1-0.3-0.2-0.5-0.3-0.8c0,0-0.1-0.1,0-0.1s0.1,0,0.1,0
			c0.3,0.1,0.6,0.3,0.7,0.6s0.3,0.4,0.6,0.5c0.1,0,0.2,0,0.4,0c0.3,0,0.4,0,0.2-0.3c-0.1-0.3-0.2-0.6-0.4-0.9c0.1-0.1,0.1-0.1,0.2,0
			c0.4,0.1,0.6,0.4,0.7,0.8c0.1,0.2,0.2,0.4,0.5,0.5s0.3,0.1,0.4-0.2C409.2,228.3,408.8,227.5,407.9,227.1z M405,216.2
			c0.1,0,0.1,0,0.2,0.1c0.7,0.7,0.9,2.3,0.4,3.2c-0.1,0.1-0.1,0.2-0.3,0.4c0.1-0.2,0.1-0.4,0.1-0.6c0.2-1,0-1.9-0.4-2.8
			C405,216.3,404.9,216.2,405,216.2z M402.3,227.6c-0.1,0.1-0.2,0-0.3,0c-0.3-0.2-0.6-0.4-0.8-0.7c-0.5-0.6-0.6-1.4-0.8-2.2
			c-0.1-0.3-0.1-0.7-0.4-0.9c0,0-0.1-0.1,0-0.1c0-0.1,0.1-0.1,0.2-0.1c0.3,0,0.6,0.2,0.8,0.6c0.1,0.3,0.2,0.6,0.2,0.9
			c0.1,0.8,0.5,1.6,1.1,2.2C402.3,227.4,402.4,227.5,402.3,227.6z"/>
	</g>
	<g>
		<path fill="#FFFFFF" d="M371.5,202.9c0.3,0.2,0.8,0.2,1.1,0.2c0.5,0,0.8-0.2,0.8-0.6c0-0.4-0.3-0.6-0.8-0.9
			c-1-0.6-1.2-1.3-1.2-1.8c0-1,0.7-1.9,2.1-1.9c0.4,0,0.9,0.1,1.1,0.2l-0.2,1.2c-0.2-0.1-0.5-0.2-0.8-0.2c-0.5,0-0.7,0.2-0.7,0.6
			c0,0.3,0.1,0.4,0.9,0.9c0.9,0.5,1.2,1.2,1.2,1.8c0,1.2-0.9,2-2.2,2c-0.5,0-1-0.1-1.3-0.2V202.9z"/>
		<path fill="#FFFFFF" d="M375.5,198.1c0.4-0.1,0.9-0.1,1.4-0.1c0.8,0,1.4,0.1,1.9,0.5c0.4,0.4,0.6,0.9,0.6,1.4
			c0,0.7-0.2,1.3-0.6,1.6c-0.4,0.4-1.1,0.6-1.6,0.6c-0.1,0-0.2,0-0.2,0v2.3h-1.5C375.5,204.4,375.5,198.1,375.5,198.1z M377,200.9
			c0,0,0.1,0,0.2,0c0.6,0,0.8-0.4,0.8-0.9s-0.2-0.9-0.7-0.9c-0.1,0-0.2,0-0.3,0V200.9z"/>
		<path fill="#FFFFFF" d="M381.9,204.5c-1.6,0-2.1-1.7-2.1-3.3s0.6-3.2,2.2-3.2c1.7,0,2.1,1.9,2.1,3.1
			C384,203.5,383.2,204.5,381.9,204.5L381.9,204.5z M381.9,203.2c0.4,0,0.6-0.8,0.6-2c0-1.1-0.1-1.9-0.6-1.9c-0.4,0-0.6,0.8-0.6,1.9
			C381.3,202.4,381.5,203.2,381.9,203.2L381.9,203.2z"/>
		<path fill="#FFFFFF" d="M384.8,198.1c0.4-0.1,1-0.1,1.5-0.1c0.7,0,1.4,0.1,1.8,0.5s0.5,0.8,0.5,1.3c0,0.6-0.3,1.3-1,1.6l0,0
			c0.4,0.2,0.6,0.6,0.7,1.2c0.1,0.6,0.3,1.5,0.4,1.8h-1.5c-0.1-0.2-0.2-0.8-0.3-1.5c-0.1-0.8-0.3-0.9-0.6-0.9h-0.1v2.4h-1.5v-6.3
			H384.8z M386.3,200.8h0.2c0.5,0,0.7-0.4,0.7-0.9s-0.2-0.8-0.6-0.8c-0.1,0-0.2,0-0.3,0C386.3,199.2,386.3,200.8,386.3,200.8z"/>
		<path fill="#FFFFFF" d="M390.2,199.4h-1.1V198h3.7v1.4h-1.1v5h-1.5V199.4L390.2,199.4z"/>
		<path fill="#FFFFFF" d="M394.4,204.4L393,198h1.6l0.4,2.6c0.1,0.7,0.2,1.4,0.3,2.1l0,0c0.1-0.7,0.2-1.4,0.2-2.1l0.4-2.6h1.6
			l-1.5,6.4H394.4z"/>
		<path fill="#FFFFFF" d="M400.8,201.7h-1.4v1.4h1.5v1.3h-3V198h2.9v1.3h-1.5v1.2h1.4v1.2H400.8z"/>
		<path fill="#FFFFFF" d="M401.8,198.1c0.4-0.1,1-0.1,1.5-0.1c0.7,0,1.4,0.1,1.8,0.5s0.5,0.8,0.5,1.3c0,0.6-0.3,1.3-1,1.6l0,0
			c0.4,0.2,0.6,0.6,0.7,1.2c0.1,0.6,0.3,1.5,0.4,1.8h-1.5c-0.1-0.2-0.2-0.8-0.3-1.5c-0.1-0.8-0.3-0.9-0.6-0.9h-0.2v2.4h-1.5v-6.3
			H401.8z M403.3,200.8h0.2c0.5,0,0.7-0.4,0.7-0.9s-0.2-0.8-0.6-0.8c-0.1,0-0.2,0-0.3,0L403.3,200.8L403.3,200.8z"/>
		<path fill="#FFFFFF" d="M409.4,201.7H408v1.4h1.5v1.3h-3V198h2.9v1.3H408v1.2h1.4V201.7L409.4,201.7z"/>
		<path fill="#FFFFFF" d="M411.9,198v6.4h-1.5V198H411.9z"/>
		<path fill="#FFFFFF" d="M413,204.4V198h1.3l0.9,2.3c0.1,0.4,0.5,1.2,0.6,1.7l0,0c0-0.5-0.1-1.8-0.1-3v-1h1.3v6.4h-1.3l-0.8-2.1
			c-0.2-0.5-0.5-1.3-0.6-1.8l0,0c0,0.6,0.1,1.6,0.1,2.8v1.1H413L413,204.4z"/>
	</g>
	<g>
		<path fill="#FFFFFF" d="M374.6,207.6c0.3-0.1,0.8-0.1,1.4-0.1c0.8,0,1.4,0.2,1.9,0.6c0.6,0.5,0.8,1.4,0.8,2.6
			c0,1.2-0.3,2.2-0.9,2.7c-0.5,0.4-1.1,0.6-2,0.6c-0.4,0-0.9-0.1-1.1-0.1L374.6,207.6L374.6,207.6z M376,212.8c0.1,0,0.1,0,0.2,0
			c0.5,0,0.9-0.6,0.9-2.2c0-1.2-0.3-1.9-0.9-1.9c-0.1,0-0.1,0-0.2,0V212.8L376,212.8z"/>
		<path fill="#FFFFFF" d="M380.4,212.7l-0.2,1.2h-1.4l1.4-6.4h1.8l1.2,6.4h-1.4l-0.2-1.2H380.4z M381.3,211.5l-0.1-1.2
			c0-0.4-0.1-1.1-0.2-1.4l0,0c-0.1,0.4-0.1,1.1-0.2,1.4l-0.2,1.2H381.3z"/>
		<path fill="#FFFFFF" d="M383.7,207.6c0.4-0.1,1-0.1,1.5-0.1c0.7,0,1.4,0.1,1.8,0.5s0.5,0.8,0.5,1.4c0,0.6-0.3,1.3-1,1.6l0,0
			c0.4,0.2,0.6,0.6,0.8,1.2s0.3,1.5,0.4,1.8h-1.5c-0.1-0.2-0.2-0.8-0.3-1.5c-0.1-0.8-0.3-0.9-0.6-0.9h-0.2v2.4h-1.4L383.7,207.6
			L383.7,207.6z M385.2,210.4h0.2c0.5,0,0.7-0.4,0.7-0.9s-0.2-0.8-0.6-0.8c-0.1,0-0.2,0-0.3,0.1L385.2,210.4L385.2,210.4z"/>
		<path fill="#FFFFFF" d="M392.3,211.9c0-0.5-0.1-1.3,0-1.9l0,0c-0.1,0.7-0.3,1.5-0.4,1.8l-0.5,2h-1l-0.4-2
			c-0.1-0.4-0.2-1.2-0.3-1.8l0,0c0,0.7-0.1,1.4-0.1,1.9l-0.1,2h-1.2l0.5-6.4h1.5l0.4,2.1c0.1,0.8,0.3,1.5,0.4,2.2l0,0
			c0.1-0.7,0.2-1.5,0.4-2.2l0.4-2.1h1.5l0.4,6.4h-1.3L392.3,211.9z"/>
		<path fill="#FFFFFF" d="M394.4,212.5c0.3,0.1,0.7,0.2,1.1,0.2c0.5,0,0.8-0.2,0.8-0.6c0-0.4-0.3-0.6-0.8-0.9
			c-1-0.6-1.2-1.3-1.2-1.8c0-1.1,0.7-2,2.1-2c0.4,0,0.9,0.1,1.1,0.2l-0.2,1.2c-0.2-0.1-0.5-0.2-0.8-0.2c-0.5,0-0.7,0.2-0.7,0.6
			c0,0.3,0.1,0.4,0.9,0.9c0.9,0.5,1.2,1.2,1.2,1.8c0,1.2-0.9,2-2.2,2c-0.5,0-1-0.1-1.3-0.2V212.5z"/>
		<path fill="#FFFFFF" d="M399.1,208.9H398v-1.4h3.7v1.4h-1.1v5h-1.5V208.9L399.1,208.9z"/>
		<path fill="#FFFFFF" d="M403.1,212.7l-0.2,1.2h-1.4l1.4-6.4h1.8l1.2,6.4h-1.4l-0.2-1.2H403.1z M404.1,211.5l-0.1-1.2
			c0-0.4-0.1-1.1-0.2-1.4l0,0c-0.1,0.4-0.1,1.1-0.2,1.4l-0.2,1.2H404.1z"/>
		<path fill="#FFFFFF" d="M406.5,207.6c0.3-0.1,0.8-0.1,1.4-0.1c0.8,0,1.4,0.2,1.9,0.6c0.6,0.5,0.8,1.4,0.8,2.6
			c0,1.2-0.3,2.2-0.9,2.7c-0.5,0.4-1.1,0.6-2,0.6c-0.4,0-0.9-0.1-1.1-0.1L406.5,207.6L406.5,207.6z M407.9,212.8c0.1,0,0.1,0,0.2,0
			c0.5,0,0.9-0.6,0.9-2.2c0-1.2-0.3-1.9-0.9-1.9c-0.1,0-0.1,0-0.2,0V212.8L407.9,212.8z"/>
		<path fill="#FFFFFF" d="M411.9,208.9h-1.1v-1.4h3.7v1.4h-1.1v5h-1.5V208.9L411.9,208.9z"/>
		<path fill="#FFFFFF" d="M381.4,224.6L381.4,224.6l-1.1,0.5l-0.2-1.1l1.4-0.7h1.3v6.2h-1.5C381.4,229.4,381.4,224.6,381.4,224.6z"
			/>
		<path fill="#FFFFFF" d="M386.1,223.2c0.9,0,1.7,0.6,1.7,1.6c0,0.4-0.1,0.9-0.8,1.3l0,0c0.6,0.3,0.9,0.8,0.9,1.6
			c0,1.2-0.9,1.9-2,1.9s-1.9-0.6-1.9-1.7c0-0.7,0.4-1.3,0.9-1.6l0,0c-0.5-0.3-0.7-0.8-0.7-1.3C384.3,223.8,385.1,223.2,386.1,223.2
			L386.1,223.2z M386.1,228.5c0.4,0,0.5-0.4,0.5-0.8c0-0.5-0.3-0.9-0.6-1c-0.2,0.2-0.4,0.5-0.4,0.9
			C385.5,228.1,385.7,228.5,386.1,228.5L386.1,228.5z M386.1,224.2c-0.4,0-0.5,0.4-0.5,0.7s0.2,0.6,0.5,0.8c0.2-0.1,0.4-0.4,0.4-0.8
			C386.5,224.5,386.4,224.2,386.1,224.2L386.1,224.2z"/>
		<path fill="#FFFFFF" d="M388.9,228.3c0.3,0,0.4,0,0.6-0.1c0.2,0,0.5-0.1,0.7-0.3s0.4-0.6,0.6-1l0,0c-0.2,0.2-0.4,0.3-0.8,0.3
			c-0.8,0-1.5-0.7-1.5-1.9c0-1,0.6-2.2,1.9-2.2c1.2,0,1.8,1,1.8,2.5s-0.5,2.5-1.1,3c-0.4,0.4-0.9,0.6-1.5,0.7c-0.2,0-0.4,0-0.6,0
			L388.9,228.3L388.9,228.3z M390.2,224.2c-0.3,0-0.5,0.4-0.4,1c0,0.5,0.1,1,0.5,1c0.2,0,0.3-0.1,0.4-0.2c0-0.1,0-0.3,0-0.8
			S390.5,224.2,390.2,224.2L390.2,224.2z"/>
		<path fill="#FFFFFF" d="M394.5,223.2c0.9,0,1.7,0.6,1.7,1.6c0,0.4-0.1,0.9-0.8,1.3l0,0c0.6,0.3,0.9,0.8,0.9,1.6
			c0,1.2-0.9,1.9-2,1.9s-1.9-0.6-1.9-1.7c0-0.7,0.4-1.3,0.9-1.6l0,0c-0.5-0.3-0.7-0.8-0.7-1.3C392.7,223.8,393.5,223.2,394.5,223.2
			L394.5,223.2z M394.5,228.5c0.4,0,0.5-0.4,0.5-0.8c0-0.5-0.4-0.9-0.6-1c-0.2,0.2-0.4,0.5-0.4,0.9
			C393.9,228.1,394.1,228.5,394.5,228.5L394.5,228.5z M394.5,224.2c-0.4,0-0.5,0.4-0.5,0.7s0.2,0.6,0.6,0.8c0.2-0.1,0.3-0.4,0.3-0.8
			C394.9,224.5,394.8,224.2,394.5,224.2L394.5,224.2z"/>
		<path fill="#FFFFFF" d="M399.7,227.7c0,0.4,0.4,0.7,0.9,0.7c0.4,0,0.7-0.1,0.9-0.1l0.2,1c-0.4,0.1-0.9,0.2-1.4,0.2
			c-1.3,0-2.1-0.8-2.1-2.3c0-1.6,0.9-2.5,2-2.5c1,0,1.7,0.7,1.7,2.2c0,0.4,0,0.6,0,0.8L399.7,227.7L399.7,227.7z M400.7,226.7
			c0-0.4-0.1-0.9-0.4-0.9s-0.5,0.6-0.5,0.9H400.7z"/>
		<path fill="#FFFFFF" d="M403.4,229.5c-0.4,0-0.8-0.4-0.8-0.9c0-0.6,0.4-1,0.8-1c0.5,0,0.8,0.4,0.8,1
			C404.3,229.1,403.9,229.5,403.4,229.5L403.4,229.5z"/>
		<path fill="#FFFFFF" d="M405.9,229.4l-1.4-6.4h1.6l0.4,2.7c0.1,0.7,0.2,1.4,0.3,2.1l0,0c0.1-0.7,0.1-1.4,0.2-2.1l0.4-2.6h1.6
			l-1.5,6.4h-1.6V229.4z"/>
	</g>
</g>
</svg>
