<?xml version="1.0" encoding="utf-8"?>
<!-- Generator: Adobe Illustrator 17.0.0, SVG Export Plug-In . SVG Version: 6.00 Build 0)  -->
<!DOCTYPE svg PUBLIC "-//W3C//DTD SVG 1.1//EN" "http://www.w3.org/Graphics/SVG/1.1/DTD/svg11.dtd" [
	<!ENTITY ns_flows "http://ns.adobe.com/Flows/1.0/">
	<!ENTITY ns_extend "http://ns.adobe.com/Extensibility/1.0/">
	<!ENTITY ns_ai "http://ns.adobe.com/AdobeIllustrator/10.0/">
	<!ENTITY ns_graphs "http://ns.adobe.com/Graphs/1.0/">
]>
<svg version="1.1" id="Layer_1" xmlns:x="&ns_extend;" xmlns:i="&ns_ai;" xmlns:graph="&ns_graphs;"
	 xmlns="http://www.w3.org/2000/svg" xmlns:xlink="http://www.w3.org/1999/xlink" xmlns:a="http://ns.adobe.com/AdobeSVGViewerExtensions/3.0/"
	 x="0px" y="0px" width="600px" height="600px" viewBox="0 0 600 600" style="enable-background:new 0 0 600 600;"
	 xml:space="preserve">
<style type="text/css">
	.st0{fill:#000100;}
	.st1{fill:#E80040;stroke:#000000;stroke-miterlimit:10;}
	.st2{fill:#FCE200;stroke:#000000;stroke-miterlimit:10;}
	.st3{fill:#FEA63F;stroke:#000000;stroke-miterlimit:10;}
	.st4{fill:#FFFFFF;stroke:#000000;stroke-miterlimit:10;}
	.st5{fill:#FFFFFF;}
	.st6{fill:#7C0014;}
	.st7{fill:#75C255;stroke:#000000;stroke-miterlimit:10;}
	.st8{fill:#52B329;}
	.st9{fill:#52BCE0;stroke:#000000;stroke-miterlimit:10;}
	.st10{fill:#48ACD0;}
	.st11{fill:#028CBE;}
	.st12{fill:#52BCE0;}
	.st13{fill:#EFF0F9;stroke:#4E3B64;stroke-miterlimit:10;}
	.st14{fill:#1D5662;stroke:#000000;stroke-miterlimit:10;}
	.st15{fill:#1D5662;}
	.st16{fill:#054049;}
	.st17{fill:#037FC7;}
	.st18{fill:#9158B6;stroke:#000000;stroke-miterlimit:10;}
	.st19{fill:#752EA5;}
	.st20{fill:#2678C7;}
	.st21{fill:#FABFB6;stroke:#000000;stroke-miterlimit:10;}
	.st22{fill:#FABFB6;}
	.st23{fill:#FC8038;stroke:#FABFB6;stroke-miterlimit:10;}
	.st24{fill:#00A39B;}
	.st25{fill:#E53A3E;stroke:#000000;stroke-miterlimit:10;}
	.st26{fill:#E53A3E;}
	.st27{fill:#242424;stroke:#5C377E;stroke-miterlimit:10;}
	.st28{fill:#525252;stroke:#000000;stroke-miterlimit:10;}
	.st29{fill:#4998BB;}
	.st30{fill:#1A7F9E;}
	.st31{fill:#E58000;stroke:#000000;stroke-miterlimit:10;}
	.st32{fill:#BA7500;stroke:#000000;stroke-miterlimit:10;}
	.st33{fill:#DF961C;stroke:#000000;stroke-miterlimit:10;}
	.st34{fill:#DF961C;}
	.st35{fill:#EDF3F8;stroke:#000000;stroke-miterlimit:10;}
	.st36{fill:#DA7600;}
	.st37{fill:#C2BEC8;}
	.st38{fill:#000100;stroke:#FFFFFF;stroke-miterlimit:10;}
	.st39{fill:#A8F001;stroke:#000000;stroke-miterlimit:10;}
	.st40{fill:#0578CD;}
	.st41{fill:#1A58A5;}
	.st42{stroke:#625616;stroke-miterlimit:10;}
	.st43{adobe-knockout:true;}
	.st44{fill:none;stroke:#FFFFFF;stroke-width:3;stroke-miterlimit:10;adobe-knockout:false;}
	.st45{fill:#D71F26;stroke:#000000;stroke-miterlimit:10;}
	.st46{fill:#008183;}
	.st47{fill:#6FC266;}
	.st48{fill:#C4373C;}
	.st49{fill:#00CAB0;}
	.st50{fill:#FAAE1E;}
	.st51{fill:#EC153B;}
	.st52{fill:#00B296;}
	.st53{fill:#F2C958;stroke:#00CAB0;stroke-miterlimit:10;}
	.st54{fill:#FF354F;stroke:#000000;stroke-miterlimit:10;}
	.st55{fill:#0D36A7;stroke:#000000;stroke-miterlimit:10;}
	.st56{fill:#D2D7E2;stroke:#000000;stroke-miterlimit:10;}
	.st57{fill:#CA2B9D;stroke:#000000;stroke-miterlimit:10;}
	.st58{fill:#58006C;stroke:#000000;stroke-miterlimit:10;}
	.st59{fill:#C60021;}
	.st60{fill:#A30F81;}
	.st61{fill:#0159C0;stroke:#A0A0A0;stroke-miterlimit:10;}
	.st62{fill:#013390;}
	.st63{fill:#F08900;}
	.st64{fill:#D20129;}
	.st65{fill:#AD0000;}
	.st66{fill:#131E25;}
	.st67{fill:#DAD2D8;stroke:#000000;stroke-miterlimit:10;}
	.st68{fill:#AA0629;}
	.st69{fill:#0066B3;}
	.st70{fill:#969796;}
	.st71{fill:#E86271;}
	.st72{fill:url(#SVGID_1_);stroke:#000000;stroke-miterlimit:10;}
	.st73{fill:#5AB4D2;stroke:#000000;stroke-miterlimit:10;}
	.st74{fill:#5AB4D2;}
	.st75{fill:#FFFFFF;stroke:#5AB4D2;stroke-miterlimit:10;}
	.st76{fill:#073F98;stroke:#0453BC;stroke-miterlimit:10;}
	.st77{fill:#2762C9;stroke:#000000;stroke-miterlimit:10;}
	.st78{fill:#C252FF;}
	.st79{fill:url(#SVGID_2_);}
	.st80{fill:url(#SVGID_3_);}
	.st81{fill:#DAD2D8;}
	.st82{stroke:#000000;stroke-miterlimit:10;}
	.st83{fill:#05297D;stroke:#000000;stroke-miterlimit:10;}
	.st84{fill:#05297D;stroke:#FFFFFF;stroke-miterlimit:10;}
	.st85{fill:#A8A8B4;}
	.st86{fill:url(#SVGID_4_);stroke:#000000;stroke-miterlimit:10;}
	.st87{fill:#53536A;}
	.st88{fill:#073F98;}
	.st89{fill:#098FBC;}
	.st90{fill:url(#SVGID_5_);}
	.st91{fill:#F7A161;}
	.st92{fill:#FF0000;stroke:#000000;stroke-miterlimit:10;}
	.st93{fill:#F54849;stroke:#000000;stroke-miterlimit:10;}
	.st94{fill:url(#SVGID_6_);}
	.st95{fill:url(#SVGID_7_);}
	.st96{fill:#3A72B7;stroke:#000000;stroke-miterlimit:10;}
	.st97{fill:#96C4F0;stroke:#000000;stroke-miterlimit:10;}
	.st98{fill:#C50040;}
	.st99{fill:#D11E24;}
	.st100{fill:#E3E3E7;}
	.st101{stroke:#FFCF2B;stroke-miterlimit:10;}
	.st102{fill:none;stroke:#F9E42A;stroke-miterlimit:10;}
	.st103{fill:#F08900;stroke:#000000;stroke-miterlimit:10;}
	.st104{fill:#F28330;}
	.st105{fill:#FC8038;}
	.st106{fill:#5AB633;}
	.st107{fill:#553658;stroke:#75C255;stroke-miterlimit:10;}
	.st108{fill:#1853A6;}
	.st109{fill:#CB0000;}
	.st110{fill:#0F0D0E;}
	.st111{fill:#636363;}
	.st112{fill:#FFFFFF;stroke:#00A39B;stroke-miterlimit:10;}
	.st113{fill:#D71F26;}
	.st114{fill:#020000;}
	.st115{fill:none;stroke:#000000;stroke-width:0.5;stroke-miterlimit:10;}
	.st116{clip-path:url(#SVGID_9_);}
	.st117{clip-path:url(#SVGID_11_);}
	.st118{clip-path:url(#SVGID_13_);}
	.st119{clip-path:url(#SVGID_15_);}
	.st120{fill:#7A4A00;}
	.st121{fill:none;stroke:#1A7F9E;stroke-width:7;stroke-miterlimit:10;}
	.st122{fill:#E20227;stroke:#4998BB;stroke-miterlimit:10;}
	.st123{fill:#1F2427;}
	.st124{fill:#BA7500;}
	.st125{fill:none;stroke:#BA7500;stroke-width:7;stroke-miterlimit:10;}
	.st126{fill:#843D00;stroke:#000000;stroke-width:0.25;stroke-miterlimit:10;}
	.st127{stroke:#000000;stroke-width:0.25;stroke-miterlimit:10;}
	.st128{fill:#ECEEF3;stroke:#1A58A5;stroke-miterlimit:10;}
	.st129{fill:#233194;}
	.st130{fill:#E0DFE3;}
	.st131{fill:#C2BEC8;stroke:#000000;stroke-miterlimit:10;}
	.st132{fill:#233194;stroke:#000000;stroke-miterlimit:10;}
	.st133{fill:#A40100;}
	.st134{adobe-knockout:false;}
	.st135{fill:#A0AAC1;}
	.st136{fill:#A40100;stroke:#000000;stroke-miterlimit:10;}
	.st137{fill:#92F0D6;}
	.st138{fill:#F2C958;}
	.st139{fill:#CA2B9D;stroke:#CA2B9D;stroke-miterlimit:10;}
	.st140{fill:#A30F81;stroke:#000000;stroke-miterlimit:10;}
	.st141{fill:#7E2B42;}
	.st142{fill:#0D36A7;}
	.st143{fill:#EE1C24;}
	.st144{fill:#0159C0;}
	.st145{stroke:#A0A0A0;stroke-miterlimit:10;}
	.st146{stroke:#4E3B64;stroke-miterlimit:10;}
	.st147{fill:#FDEA00;stroke:#000000;stroke-width:0.217;}
	.st148{fill:#FDEA00;stroke:#000000;stroke-width:0.2326;}
	.st149{fill:#1D1D1B;}
	.st150{fill:#FF0000;}
	.st151{fill:none;stroke:#0453BC;stroke-width:25.435;stroke-miterlimit:10;adobe-knockout:false;}
	.st152{fill:none;stroke:#0453BC;stroke-width:25.4353;stroke-linecap:round;stroke-miterlimit:10;adobe-knockout:false;}
	.st153{fill:#CAC5C0;}
	.st154{fill:#2762C9;}
	.st155{fill:#C252FF;stroke:#000000;stroke-miterlimit:10;}
	.st156{fill:#A54B2D;stroke:#000000;stroke-miterlimit:10;}
	.st157{fill:#A54B2D;}
	.st158{stroke:#A54B2D;stroke-miterlimit:10;}
	.st159{fill:#823311;}
	.st160{fill:none;}
	.st161{fill:#05297D;}
	.st162{fill:none;stroke:#FF7F35;stroke-width:6;stroke-miterlimit:10;}
	.st163{fill:#031DFF;stroke:#000000;stroke-miterlimit:10;}
	.st164{fill:#0370FF;stroke:#000000;stroke-miterlimit:10;}
	.st165{fill:#031DC4;}
	.st166{fill:none;stroke:#0080CA;stroke-width:6;stroke-miterlimit:10;}
	.st167{fill:#031DFF;stroke:#FFFFFF;stroke-miterlimit:10;}
	.st168{fill:#0263B0;}
	.st169{fill:none;stroke:#FFFFFF;stroke-width:2;stroke-miterlimit:10;}
	.st170{fill:url(#SVGID_16_);stroke:#FFFFFF;stroke-miterlimit:10;}
	.st171{fill:url(#SVGID_17_);}
	.st172{fill:url(#SVGID_18_);}
	.st173{fill:url(#SVGID_19_);}
	.st174{fill:#693B0F;stroke:#000000;stroke-miterlimit:10;}
	.st175{fill:#3E4E70;}
	.st176{fill:#F7CE02;}
	.st177{fill:#0551E1;stroke:#000000;stroke-miterlimit:10;}
	.st178{fill:#EC153B;stroke:#000000;stroke-miterlimit:10;}
	.st179{fill:#0831FD;}
	.st180{fill:#0870FD;}
	.st181{fill:none;stroke:#9F3D44;stroke-width:3;stroke-miterlimit:10;}
</style>
<g>
	<path class="st0" d="M595.7,341.2c-28.5-52.1-24-161.6-59.7-243.7c-11.6-26.7-81.4-58-152.2-80C360.4,10.2,333,8.1,306,8.6V595
		c85-0.4,169.8-5.8,169.9-24c0-22-3.1-270-3.1-270s11.1,52.7,13.5,60C514.3,355.6,583.2,342.5,595.7,341.2z"/>
	<path class="st1" d="M203.5,21C139.6,36.4,78.2,73.2,67.7,94.2c-46.5,93-27,138-61.6,248.6c10.4,1.1,85.3,19.1,114.6,19.3
		c5-32.8,8.3-56.1,8.3-56.1s-1.1,245.3-1.1,262.1S207.3,595,295.4,595c3.7,0,7.4,0,11.1,0V8.6C252.7,9.6,203.5,21,203.5,21z"/>
	<path class="st1" d="M473.6,301.1c0,0,10.7,52,13.1,59.3c28-5.4,95.7-18.4,108.2-19.7c-28.5-52.1-24-161.6-59.7-243.7l-4.7-7.5
		c0,0-36.4,2.4-51.6,60.4c-3.1,12.4-5.8,24.3-7.3,36.9c-4.6,38-2.4,77.3,1,114.1C472.6,301.5,473.6,300.5,473.6,301.1z"/>
</g>
<g>
	<g>
		<path class="st87" d="M234.5,28.7C247.3,46,269,62.5,305.1,62.5c36.2,0,56.3-16.8,67.4-34.5C342.2,31.1,266.9,30.8,234.5,28.7z"/>
		<path class="st1" d="M375.1,1c-17.6,5.3-142.2,2.9-148.6,0.6c-0.1,0.3-0.3,0.7-0.5,1.1c2.2,7.1,6.3,17.5,13.7,27.5
			c29.5,1.9,97.9,2.2,125.6-0.6c6.2-9.9,9.4-20.2,10.9-27.3C375.8,1.8,375.4,1.4,375.1,1z"/>
	</g>
	<path class="st1" d="M376.2,2.3c-4.1,18.7-19,58.7-72.2,58.7c-53.9,0-72.4-40.1-78-58.3c-2.9,5.3-15.1,16-15.1,16
		s15.6,61.7,91.1,61.7c76.5,0,86.6-58.7,87.7-63.1C387.6,16.4,380.4,6.9,376.2,2.3z"/>
</g>
<path class="st98" d="M73.8,85.9c0,0,77.1,9.2,55.7,220c-0.9,166-1.1,253.8-1.1,255.9c0,3.2-0.6,7.5,0.8,9.2
	c0.7,1.1,1.7,2.3,3.4,3.5c4.7,3.4,13.4,6.6,25.2,9.1c-14.2-11.6-10.9-42.8-9.8-72.1c1.1-29.4-24-95.4-3-199.4
	c6.8-33.6-5.5-74.9-6-84C135,160.4,122.6,94.6,73.8,85.9z"/>
<path class="st87" d="M530.2,89c0,0-79.2,0.7-57.7,211.5c2.1,168.9,3.2,265.3,3.2,264.5c0-2.3,0,2.4,0,6.2c0,1.3-0.7,2.6-0.9,2.9
	c-0.7,1.1-2,2.2-3.6,3.4c-4.7,3.4-13.3,5.9-25.1,8.2c14.2-11.6,11.1-41.8,10-71.2c-1.1-29.4,24-95.4,3-199.4
	c-6.8-33.6,1.5-83.4,2-92.4C465,155.1,483.7,92,530.2,89z"/>
<path class="st0" d="M127.9,306c0,0-6.2,48.4-8.6,55.6C82.6,359.9,18.4,343.7,6,342.5C26.4,277,27.8,238.3,37.1,181.3
	c2.4-15,8.9-35.9,15.5-53.2c6.9-17.8,13.9-31.6,14.6-33.1c1.3-3,6.4-9.2,6.4-9.2s34.3,3.6,49.6,61.5c3.1,12.4,5.8,24.3,7.3,36.9
	c4.6,38,1.8,84.8-1.6,121.7C128.5,306.1,128.3,306,127.9,306z"/>
<g>
	<g>
		<path class="st5" d="M374.7,224.5c-16.8,0-30.4-13.6-30.4-30.4s13.6-30.4,30.4-30.4s30.4,13.6,30.4,30.4S391.5,224.5,374.7,224.5z
			"/>
		<path class="st68" d="M374.7,221.8c-15.3,0-27.7-12.4-27.7-27.7s12.4-27.7,27.7-27.7s27.7,12.4,27.7,27.7S390,221.8,374.7,221.8z"
			/>
		<path class="st68" d="M374.7,164.8c7.8,0,15.1,3.1,20.7,8.6c5.5,5.5,8.6,12.9,8.6,20.7s-3.1,15.1-8.6,20.7
			c-5.5,5.5-12.9,8.6-20.7,8.6c-7.8,0-15.1-3.1-20.7-8.6c-5.5-5.5-8.6-12.9-8.6-20.7s3-15.1,8.6-20.7
			C359.6,167.9,366.9,164.8,374.7,164.8 M374.7,162.6c-17.4,0-31.5,14.1-31.5,31.5s14.1,31.5,31.5,31.5s31.5-14.1,31.5-31.5
			S392.1,162.6,374.7,162.6L374.7,162.6z"/>
	</g>
	<g>
		<path class="st5" d="M373.6,191.2L373.6,191.2l-1.5,0.8l-0.3-1.2l2-1h1.3v8.3h-1.5L373.6,191.2L373.6,191.2z"/>
		<path class="st5" d="M352.4,184.9H363v2.8h-7.2v5.1h6.8v2.7h-6.8v7.8h-3.4V184.9z"/>
		<path class="st5" d="M379.4,202.7c-0.8,0.4-2.5,0.8-4.8,0.8c-5.8,0-9.3-3.6-9.3-9.2c0-6.1,4.2-9.7,9.8-9.7c2.2,0,3.8,0.4,4.4,0.8
			l-0.7,2.7c-0.9-0.4-2.1-0.7-3.6-0.7c-3.7,0-6.4,2.4-6.4,6.8c0,4,2.4,6.6,6.4,6.6c1.3,0,2.8-0.3,3.6-0.7L379.4,202.7z"/>
		<path class="st5" d="M382.2,203.3v-18.4h3.8l4.7,7.9c1.2,2.1,2.3,4.1,3.1,6.1l0.1,0c-0.2-2.4-0.3-4.8-0.3-7.6v-6.4h3.1v18.3h-3.5
			l-4.8-8.1c-1.2-2-2.4-4.2-3.3-6.3l-0.1,0c0.1,2.4,0.2,4.8,0.2,7.8v6.5L382.2,203.3L382.2,203.3z"/>
		<path class="st5" d="M377,198c-0.5,0-0.9-0.4-0.9-1s0.4-1,1-1c0.6,0,1,0.4,1,1C378,197.6,377.6,198,377,198L377,198z"/>
	</g>
</g>
</svg>
