<?xml version="1.0" encoding="utf-8"?>
<!-- Generator: Adobe Illustrator 17.0.0, SVG Export Plug-In . SVG Version: 6.00 Build 0)  -->
<!DOCTYPE svg PUBLIC "-//W3C//DTD SVG 1.1//EN" "http://www.w3.org/Graphics/SVG/1.1/DTD/svg11.dtd" [
	<!ENTITY ns_flows "http://ns.adobe.com/Flows/1.0/">
	<!ENTITY ns_extend "http://ns.adobe.com/Extensibility/1.0/">
	<!ENTITY ns_ai "http://ns.adobe.com/AdobeIllustrator/10.0/">
	<!ENTITY ns_graphs "http://ns.adobe.com/Graphs/1.0/">
]>
<svg version="1.1" id="Layer_1" xmlns:x="&ns_extend;" xmlns:i="&ns_ai;" xmlns:graph="&ns_graphs;"
	 xmlns="http://www.w3.org/2000/svg" xmlns:xlink="http://www.w3.org/1999/xlink" xmlns:a="http://ns.adobe.com/AdobeSVGViewerExtensions/3.0/"
	 x="0px" y="0px" width="600px" height="600px" viewBox="0 0 600 600" style="enable-background:new 0 0 600 600;"
	 xml:space="preserve">
<style type="text/css">
	.st0{fill:#000100;}
	.st1{fill:#E80040;stroke:#000000;stroke-miterlimit:10;}
	.st2{fill:#FCE200;stroke:#000000;stroke-miterlimit:10;}
	.st3{fill:#FEA63F;stroke:#000000;stroke-miterlimit:10;}
	.st4{fill:#FFFFFF;stroke:#000000;stroke-miterlimit:10;}
	.st5{fill:#FFFFFF;}
	.st6{fill:#7C0014;}
	.st7{fill:#75C255;stroke:#000000;stroke-miterlimit:10;}
	.st8{fill:#52B329;}
	.st9{fill:#52BCE0;stroke:#000000;stroke-miterlimit:10;}
	.st10{fill:#48ACD0;}
	.st11{fill:#028CBE;}
	.st12{fill:#52BCE0;}
	.st13{fill:#EFF0F9;stroke:#4E3B64;stroke-miterlimit:10;}
	.st14{fill:#1D5662;stroke:#000000;stroke-miterlimit:10;}
	.st15{fill:#1D5662;}
	.st16{fill:#054049;}
	.st17{fill:#037FC7;}
	.st18{fill:#9158B6;stroke:#000000;stroke-miterlimit:10;}
	.st19{fill:#752EA5;}
	.st20{fill:#2678C7;}
	.st21{fill:#FABFB6;stroke:#000000;stroke-miterlimit:10;}
	.st22{fill:#FABFB6;}
	.st23{fill:#FC8038;stroke:#FABFB6;stroke-miterlimit:10;}
	.st24{fill:#00A39B;}
	.st25{fill:#E53A3E;stroke:#000000;stroke-miterlimit:10;}
	.st26{fill:#E53A3E;}
	.st27{fill:#242424;stroke:#5C377E;stroke-miterlimit:10;}
	.st28{fill:#525252;stroke:#000000;stroke-miterlimit:10;}
	.st29{fill:#4998BB;}
	.st30{fill:#1A7F9E;}
	.st31{fill:#E58000;stroke:#000000;stroke-miterlimit:10;}
	.st32{fill:#BA7500;stroke:#000000;stroke-miterlimit:10;}
	.st33{fill:#DF961C;stroke:#000000;stroke-miterlimit:10;}
	.st34{fill:#DF961C;}
	.st35{fill:#EDF3F8;stroke:#000000;stroke-miterlimit:10;}
	.st36{fill:#DA7600;}
	.st37{fill:#C2BEC8;}
	.st38{fill:#000100;stroke:#FFFFFF;stroke-miterlimit:10;}
	.st39{fill:#A8F001;stroke:#000000;stroke-miterlimit:10;}
	.st40{fill:#0578CD;}
	.st41{fill:#1A58A5;}
	.st42{stroke:#625616;stroke-miterlimit:10;}
	.st43{adobe-knockout:true;}
	.st44{fill:none;stroke:#FFFFFF;stroke-width:3;stroke-miterlimit:10;adobe-knockout:false;}
	.st45{fill:#D71F26;stroke:#000000;stroke-miterlimit:10;}
	.st46{fill:#008183;}
	.st47{fill:#6FC266;}
	.st48{fill:#C4373C;}
	.st49{fill:#00CAB0;}
	.st50{fill:#FAAE1E;}
	.st51{fill:#EC153B;}
	.st52{fill:#00B296;}
	.st53{fill:#F2C958;stroke:#00CAB0;stroke-miterlimit:10;}
	.st54{fill:#FF354F;stroke:#000000;stroke-miterlimit:10;}
	.st55{fill:#0D36A7;stroke:#000000;stroke-miterlimit:10;}
	.st56{fill:#D2D7E2;stroke:#000000;stroke-miterlimit:10;}
	.st57{fill:#CA2B9D;stroke:#000000;stroke-miterlimit:10;}
	.st58{fill:#58006C;stroke:#000000;stroke-miterlimit:10;}
	.st59{fill:#C60021;}
	.st60{fill:#A30F81;}
	.st61{fill:#0159C0;stroke:#A0A0A0;stroke-miterlimit:10;}
	.st62{fill:#013390;}
	.st63{fill:#F08900;}
	.st64{fill:#D20129;}
	.st65{fill:#AD0000;}
	.st66{fill:#131E25;}
	.st67{fill:#DAD2D8;stroke:#000000;stroke-miterlimit:10;}
	.st68{fill:#0066B3;}
	.st69{fill:#969796;}
	.st70{fill:#E86271;}
	.st71{fill:url(#SVGID_1_);stroke:#000000;stroke-miterlimit:10;}
	.st72{fill:#5AB4D2;stroke:#000000;stroke-miterlimit:10;}
	.st73{fill:#5AB4D2;}
	.st74{fill:#FFFFFF;stroke:#5AB4D2;stroke-miterlimit:10;}
	.st75{fill:#073F98;stroke:#0453BC;stroke-miterlimit:10;}
	.st76{fill:#2762C9;stroke:#000000;stroke-miterlimit:10;}
	.st77{fill:#C252FF;}
	.st78{fill:url(#SVGID_2_);}
	.st79{fill:url(#SVGID_3_);}
	.st80{fill:#DAD2D8;}
	.st81{stroke:#000000;stroke-miterlimit:10;}
	.st82{fill:#05297D;stroke:#000000;stroke-miterlimit:10;}
	.st83{fill:#05297D;stroke:#FFFFFF;stroke-miterlimit:10;}
	.st84{fill:#A8A8B4;}
	.st85{fill:url(#SVGID_4_);stroke:#000000;stroke-miterlimit:10;}
	.st86{fill:#53536A;}
	.st87{fill:#073F98;}
	.st88{fill:#098FBC;}
	.st89{fill:url(#SVGID_5_);}
	.st90{fill:#F7A161;}
	.st91{fill:#FF0000;stroke:#000000;stroke-miterlimit:10;}
	.st92{fill:#F54849;stroke:#000000;stroke-miterlimit:10;}
	.st93{fill:url(#SVGID_6_);}
	.st94{fill:url(#SVGID_7_);}
	.st95{fill:#3A72B7;stroke:#000000;stroke-miterlimit:10;}
	.st96{fill:#96C4F0;stroke:#000000;stroke-miterlimit:10;}
	.st97{fill:#C50040;}
	.st98{fill:#D11E24;}
	.st99{fill:#E3E3E7;}
	.st100{stroke:#FFCF2B;stroke-miterlimit:10;}
	.st101{fill:none;stroke:#F9E42A;stroke-miterlimit:10;}
	.st102{fill:#F08900;stroke:#000000;stroke-miterlimit:10;}
	.st103{fill:#F28330;}
	.st104{fill:#FC8038;}
	.st105{fill:#5AB633;}
	.st106{fill:#553658;stroke:#75C255;stroke-miterlimit:10;}
	.st107{fill:#1853A6;}
	.st108{fill:#CB0000;}
	.st109{fill:#0F0D0E;}
	.st110{fill:#636363;}
	.st111{fill:#FFFFFF;stroke:#00A39B;stroke-miterlimit:10;}
	.st112{fill:#D71F26;}
	.st113{fill:#020000;}
	.st114{fill:none;stroke:#000000;stroke-width:0.5;stroke-miterlimit:10;}
	.st115{clip-path:url(#SVGID_9_);}
	.st116{clip-path:url(#SVGID_11_);}
	.st117{clip-path:url(#SVGID_13_);}
	.st118{clip-path:url(#SVGID_15_);}
	.st119{fill:#7A4A00;}
	.st120{fill:none;stroke:#1A7F9E;stroke-width:7;stroke-miterlimit:10;}
	.st121{fill:#E20227;stroke:#4998BB;stroke-miterlimit:10;}
	.st122{fill:#1F2427;}
	.st123{fill:#BA7500;}
	.st124{fill:none;stroke:#BA7500;stroke-width:7;stroke-miterlimit:10;}
	.st125{fill:#843D00;stroke:#000000;stroke-width:0.25;stroke-miterlimit:10;}
	.st126{stroke:#000000;stroke-width:0.25;stroke-miterlimit:10;}
	.st127{fill:#ECEEF3;stroke:#1A58A5;stroke-miterlimit:10;}
	.st128{fill:#233194;}
	.st129{fill:#E0DFE3;}
	.st130{fill:#C2BEC8;stroke:#000000;stroke-miterlimit:10;}
	.st131{fill:#233194;stroke:#000000;stroke-miterlimit:10;}
	.st132{fill:#A40100;}
	.st133{adobe-knockout:false;}
	.st134{fill:#A0AAC1;}
	.st135{fill:#A40100;stroke:#000000;stroke-miterlimit:10;}
	.st136{fill:#92F0D6;}
	.st137{fill:#F2C958;}
	.st138{fill:#CA2B9D;stroke:#CA2B9D;stroke-miterlimit:10;}
	.st139{fill:#A30F81;stroke:#000000;stroke-miterlimit:10;}
	.st140{fill:#7E2B42;}
	.st141{fill:#0D36A7;}
	.st142{fill:#EE1C24;}
	.st143{fill:#0159C0;}
	.st144{stroke:#A0A0A0;stroke-miterlimit:10;}
	.st145{stroke:#4E3B64;stroke-miterlimit:10;}
	.st146{fill:#FDEA00;stroke:#000000;stroke-width:0.217;}
	.st147{fill:#FDEA00;stroke:#000000;stroke-width:0.2326;}
	.st148{fill:#1D1D1B;}
	.st149{fill:#FF0000;}
	.st150{fill:none;stroke:#0453BC;stroke-width:25.435;stroke-miterlimit:10;adobe-knockout:false;}
	.st151{fill:none;stroke:#0453BC;stroke-width:25.4353;stroke-linecap:round;stroke-miterlimit:10;adobe-knockout:false;}
	.st152{fill:#CAC5C0;}
	.st153{fill:#2762C9;}
	.st154{fill:#C252FF;stroke:#000000;stroke-miterlimit:10;}
	.st155{fill:#A54B2D;stroke:#000000;stroke-miterlimit:10;}
	.st156{fill:#A54B2D;}
	.st157{stroke:#A54B2D;stroke-miterlimit:10;}
	.st158{fill:#823311;}
	.st159{fill:none;}
	.st160{fill:#05297D;}
	.st161{fill:none;stroke:#FF7F35;stroke-width:6;stroke-miterlimit:10;}
	.st162{fill:#031DFF;stroke:#000000;stroke-miterlimit:10;}
	.st163{fill:#0370FF;stroke:#000000;stroke-miterlimit:10;}
	.st164{fill:#031DC4;}
	.st165{fill:none;stroke:#0080CA;stroke-width:6;stroke-miterlimit:10;}
	.st166{fill:#031DFF;stroke:#FFFFFF;stroke-miterlimit:10;}
	.st167{fill:#0263B0;}
	.st168{fill:none;stroke:#FFFFFF;stroke-width:2;stroke-miterlimit:10;}
	.st169{fill:url(#SVGID_16_);stroke:#FFFFFF;stroke-miterlimit:10;}
	.st170{fill:url(#SVGID_17_);}
	.st171{fill:url(#SVGID_18_);}
	.st172{fill:url(#SVGID_19_);}
	.st173{fill:#693B0F;stroke:#000000;stroke-miterlimit:10;}
	.st174{fill:#3E4E70;}
	.st175{fill:#F7CE02;}
	.st176{fill:#0551E1;stroke:#000000;stroke-miterlimit:10;}
	.st177{fill:#EC153B;stroke:#000000;stroke-miterlimit:10;}
	.st178{fill:#0831FD;}
	.st179{fill:#0870FD;}
	.st180{fill:none;stroke:#9F3D44;stroke-width:3;stroke-miterlimit:10;}
</style>
<path class="st4" d="M6.1,342.8C40.7,232.2,21.2,187.2,67.7,94.2c10.5-21,71.9-57.8,135.8-73.2c0,0,109.7-25.5,180.5-3.5
	s140.3,53.3,151.9,80c35.7,82.1,31.2,191.6,59.7,243.7c-12.5,1.2-81.3,14.4-109.3,19.7c-2.4-7.3-13.4-60-13.4-60s3.2,248,3.2,270
	c-0.2,19-92.8,24-180.8,24s-167.5-10-167.5-26.9c0-16.8,1.1-262.1,1.1-262.1s-3.3,23.3-8.3,56.1C91.3,361.9,16.4,344,6.1,342.8z"/>
<g>
	<g>
		<path class="st5" d="M234.5,28.7C247.3,46,269,62.5,305.1,62.5c36.2,0,56.3-16.8,67.4-34.5C342.2,31.1,266.9,30.8,234.5,28.7z"/>
		<path class="st6" d="M375.1,1c-17.6,5.3-142.2,2.9-148.6,0.6c-0.1,0.3-0.3,0.7-0.5,1.1c2.2,7.1,6.3,17.5,13.7,27.5
			c29.5,1.9,97.9,2.2,125.6-0.6c6.2-9.9,9.4-20.2,10.9-27.3C375.8,1.8,375.4,1.4,375.1,1z"/>
	</g>
	<path class="st6" d="M376.2,2.3c-4.1,18.7-19,58.7-72.2,58.7c-53.9,0-72.4-40.1-78-58.3c-2.9,5.3-15.1,16-15.1,16
		s15.6,61.7,91.1,61.7c76.5,0,86.6-58.7,87.7-63.1C387.6,16.4,380.4,6.9,376.2,2.3z"/>
</g>
<path class="st4" d="M6.1,342.8C40.7,232.2,21.2,187.2,67.7,94.2c10.5-21,71.9-57.8,135.8-73.2c0,0,109.7-25.5,180.5-3.5
	s140.3,53.3,151.9,80c35.7,82.1,31.2,191.6,59.7,243.7c-12.5,1.2-81.3,14.4-109.3,19.7c-2.4-7.3-13.4-60-13.4-60s3.2,248,3.2,270
	c-0.2,19-92.8,24-180.8,24s-167.5-10-167.5-26.9c0-16.8,1.1-262.1,1.1-262.1s-3.3,23.3-8.3,56.1C91.3,361.9,16.4,344,6.1,342.8z"/>
<g>
	<g>
		<path class="st5" d="M234.5,28.7C247.3,46,269,62.5,305.1,62.5c36.2,0,56.3-16.8,67.4-34.5C342.2,31.1,266.9,30.8,234.5,28.7z"/>
		<path class="st6" d="M375.1,1c-17.6,5.3-142.2,2.9-148.6,0.6c-0.1,0.3-0.3,0.7-0.5,1.1c2.2,7.1,6.3,17.5,13.7,27.5
			c29.5,1.9,97.9,2.2,125.6-0.6c6.2-9.9,9.4-20.2,10.9-27.3C375.8,1.8,375.4,1.4,375.1,1z"/>
	</g>
	<path class="st6" d="M376.2,2.3c-4.1,18.7-19,58.7-72.2,58.7c-53.9,0-72.4-40.1-78-58.3c-2.9,5.3-15.1,16-15.1,16
		s15.6,61.7,91.1,61.7c76.5,0,86.6-58.7,87.7-63.1C387.6,16.4,380.4,6.9,376.2,2.3z"/>
</g>
<path class="st33" d="M6.1,342.8C40.7,232.2,21.2,187.2,67.7,94.2c10.5-21,71.9-57.8,135.8-73.2c0,0,109.7-25.5,180.5-3.5
	s140.3,53.3,151.9,80c35.7,82.1,31.2,191.6,59.7,243.7c-12.5,1.2-81.3,14.4-109.3,19.7c-2.4-7.3-13.4-60-13.4-60s3.2,248,3.2,270
	c-0.2,19-92.8,24-180.8,24s-167.5-10-167.5-26.9c0-16.8,1.1-262.1,1.1-262.1s-3.3,23.3-8.3,56.1C91.3,361.9,16.4,344,6.1,342.8z"/>
<g>
	<g>
		<path class="st34" d="M234.5,28.7C247.3,46,269,62.5,305.1,62.5c36.2,0,56.3-16.8,67.4-34.5C342.2,31.1,266.9,30.8,234.5,28.7z"/>
		<path class="st35" d="M375.1,1c-17.6,5.3-142.2,2.9-148.6,0.6c-0.1,0.3-0.3,0.7-0.5,1.1c2.2,7.1,6.3,17.5,13.7,27.5
			c29.5,1.9,97.9,2.2,125.6-0.6c6.2-9.9,9.4-20.2,10.9-27.3C375.8,1.8,375.4,1.4,375.1,1z"/>
	</g>
	<path class="st35" d="M376.2,2.3c-4.1,18.7-19,58.7-72.2,58.7c-53.9,0-72.4-40.1-78-58.3c-2.9,5.3-15.1,16-15.1,16
		s15.6,61.7,91.1,61.7c76.5,0,86.6-58.7,87.7-63.1C387.6,16.4,380.4,6.9,376.2,2.3z"/>
</g>
<path class="st36" d="M73.8,85.9c0,0,77.1,9.2,55.7,220c-0.9,166-1.1,253.8-1.1,255.9c0,3.2-0.6,7.5,0.8,9.2
	c0.7,1.1,1.7,2.3,3.4,3.5c4.7,3.4,13.4,6.6,25.2,9.1c-14.2-11.6-10.9-42.8-9.8-72.1c1.1-29.4-24-95.4-3-199.4
	c6.8-33.6-5.5-74.9-6-84C135,160.4,122.6,94.6,73.8,85.9z"/>
<path class="st36" d="M530.2,89c0,0-79.2,0.7-57.7,211.5c2.1,168.9,3.2,265.3,3.2,264.5c0-2.3,0,2.4,0,6.2c0,1.3-0.7,2.6-0.9,2.9
	c-0.7,1.1-2,2.2-3.6,3.4c-4.7,3.4-13.3,5.9-25.1,8.2c14.2-11.6,11.1-41.8,10-71.2c-1.1-29.4,24-95.4,3-199.4
	c-6.8-33.6,1.5-83.4,2-92.4C465,155.1,483.7,92,530.2,89z"/>
<g>
	<g>
		<path class="st119" d="M177.5,63.5c0,0-0.5,4.1-2,10.5c-0.4,1.6-0.9,3.3-1.3,5.2c-0.4,1.9-1,3.9-1.6,6c-0.6,2.1-1.3,4.3-2,6.6
			c-0.7,2.3-1.5,4.7-2.4,7.1c-3.6,9.7-8.2,20.4-15.3,30.8c-7,10.4-16.3,20.5-29,28.6c-0.7-11.1,1.9-22.9,6.5-34.2
			c2.3-5.7,5.1-11.2,8.2-16.5c1.5-2.7,3.2-5.2,4.8-7.7c1.7-2.5,3.3-4.9,5.1-7.2c1.8-2.3,3.5-4.5,5.2-6.5c0.9-1,1.7-2,2.6-3
			c0.9-1,1.7-1.9,2.6-2.8c1.7-1.8,3.3-3.5,4.9-5c1.5-1.6,3-3,4.4-4.2C173.9,66.2,177.5,63.5,177.5,63.5z"/>
	</g>
	<g>
		<path class="st119" d="M225.2,42.5c0,0,0.8,2.8,1.1,7.4c0.2,2.4,0.1,5.1-0.1,8.1c-0.2,1.5-0.3,3.1-0.7,4.8
			c-0.3,1.6-0.7,3.3-1.2,4.9c-1,3.4-2.4,6.7-4.2,10c-0.9,1.7-1.9,3.2-3,4.7c-1.1,1.5-2.4,3-3.8,4.4c-5.6,5.7-12.8,10.2-23.7,14.4
			c-0.5-2-0.8-4-1-6c-0.1-2-0.1-4.1,0.2-6c0.6-3.9,1.7-7.9,3.5-11.4c0.8-1.8,1.8-3.6,2.8-5.2c1-1.6,2.1-3.2,3.3-4.8
			c2.3-3,4.8-5.8,7.3-8.3c4.9-5,9.8-9.1,13.5-12.2C222.7,44.4,225.2,42.5,225.2,42.5z"/>
	</g>
	<g>
		<path class="st119" d="M174.5,138.5c0,0,0.1,3.6-0.6,9.4c-0.4,2.9-0.9,6.4-1.8,10.2c-0.4,1.9-0.9,3.9-1.5,6
			c-0.7,2-1.4,4.1-2.3,6.3c-1.7,4.3-3.8,8.7-6.4,13.2c-1.3,2.2-2.8,4.3-4.4,6.5c-1.6,2.1-3.4,4.2-5.3,6.2c-1.9,2-4,3.9-6.1,5.8
			c-2.2,1.9-4.7,3.5-7.2,5.1c-5.1,3.1-10.9,5.8-17.4,7.7c0.4-5,1.5-9.8,3.2-14.5c0.9-2.3,1.9-4.6,3-6.9c1.1-2.2,2.3-4.5,3.6-6.7
			c2.6-4.4,5.5-8.6,8.6-12.6c1.6-2,3.1-4,4.7-5.9c1.6-1.9,3.2-3.7,4.8-5.5c1.6-1.8,3.2-3.5,4.8-5.1c0.8-0.8,1.6-1.6,2.4-2.4
			c0.8-0.8,1.5-1.5,2.2-2.3c2.9-2.9,5.6-5.5,8-7.7C171.4,141,174.5,138.5,174.5,138.5z"/>
	</g>
	<g>
		<path class="st119" d="M255.1,78.5c0,0-0.1,1.2-0.4,3.5c-0.3,2.3-0.8,5.6-1.8,9.7c-1.9,8.2-5.6,19.5-11.7,31.7
			c-6.1,12.2-14.6,25.2-25.2,37.2c-5.3,6-11,11.8-17.4,17.4c-6.3,5.6-13.1,10.9-20.7,16.1c1.4-13.8,7.8-28.3,16-41.5
			c8.2-13.3,18.3-25.4,27.5-36.1c9.3-10.6,17.8-19.9,23.8-26.8c1.5-1.7,2.9-3.3,4.1-4.6c1.2-1.4,2.2-2.6,3.1-3.5
			C254.1,79.6,255.1,78.5,255.1,78.5z"/>
	</g>
	<g>
		<path class="st119" d="M204.4,210.5c0,0-0.7,4.3-2.6,11.1c-0.4,1.7-1,3.5-1.6,5.5c-0.5,2-1.1,4.1-1.8,6.4c-0.7,2.2-1.5,4.6-2.3,7
			c-0.8,2.5-1.7,5-2.7,7.6c-4,10.3-9.2,21.9-16.9,33c-7.6,11.2-17.9,22.1-31.5,30.1c0.1-5.9,1.2-11.8,2.7-17.8c1.5-6,3.7-12,6.3-18
			c2.6-5.9,5.7-11.8,9-17.4c1.6-2.8,3.4-5.5,5.2-8.2c1.8-2.6,3.5-5.2,5.4-7.7c7.4-9.9,15.1-17.9,20.9-23.3
			C200.6,213.4,204.4,210.5,204.4,210.5z"/>
	</g>
	<g>
		<path class="st119" d="M267,114.5c0,0-0.5,4.7-2.2,12.4c-0.8,3.8-2,8.4-3.5,13.6c-0.8,2.6-1.6,5.3-2.6,8.1
			c-1.1,2.7-2.2,5.6-3.5,8.5c-2.6,5.8-5.6,12-9.2,18.1c-1.8,3.1-3.8,6.1-5.9,9.1c-2.1,3-4.4,6-6.9,9s-5,5.8-7.8,8.6
			c-2.7,2.8-5.7,5.5-8.8,8.1c-6.2,5.2-13.1,9.9-20.7,13.9c1.1-6.4,3-12.8,5.7-19.3c2.6-6.4,5.9-12.8,9.5-19
			c3.6-6.2,7.6-12.3,11.8-18.1c2.1-2.9,4.1-5.8,6.2-8.6c2.1-2.8,4.2-5.5,6.3-8.1c2.1-2.6,4.2-5.1,6.2-7.5c1-1.2,2-2.4,3-3.5
			c1-1.2,1.9-2.3,2.8-3.4c3.7-4.4,7.1-8.3,10-11.5C263.2,118.3,267,114.5,267,114.5z"/>
	</g>
	<g>
		<path class="st119" d="M350.6,69.4c0,0-2.1,5.7-6.3,14.9c-2.1,4.5-4.6,10.1-7.7,16.2c-1.5,3.1-3.2,6.3-5,9.6
			c-1.7,3.4-3.6,6.9-5.6,10.5c-8.1,14.3-18.1,30.3-30.7,45.8c-12.5,15.5-27.7,30.5-45.7,42.3c2.2-7.9,5.4-16,9.3-24.2
			c3.9-8.2,8.4-16.4,13.4-24.6c5-8.1,10.5-16.1,16.1-23.8c2.8-3.8,5.7-7.6,8.6-11.2c2.9-3.6,5.8-7.2,8.6-10.6
			c2.9-3.4,5.8-6.6,8.6-9.7c1.4-1.5,2.8-3.1,4.1-4.5c1.4-1.5,2.7-2.9,4.1-4.2c2.7-2.7,5.2-5.3,7.6-7.7c2.4-2.4,4.6-4.6,6.8-6.5
			C345.3,73.9,350.6,69.4,350.6,69.4z"/>
	</g>
	<g>
		<path class="st119" d="M407.3,42.5c0,0-1.4,5.7-4.6,14.9c-1.6,4.6-3.5,10.1-5.8,16.3c-1.2,3.1-2.5,6.3-3.8,9.7
			c-1.4,3.4-2.9,6.9-4.5,10.6c-3.2,7.2-7,15-11.3,22.8c-2.2,3.9-4.5,7.9-7,11.8c-2.5,4-5.1,7.9-8,11.8
			c-11.3,15.7-26.2,30.6-43.9,41.3c1.1-3.8,2.4-7.7,3.9-11.5c0.7-1.9,1.5-3.8,2.4-5.8c0.4-1,0.9-1.9,1.3-2.9c0.4-1,0.8-2,1.3-3
			c3.4-7.9,7.7-15.7,12-23.7c2.2-4,4.5-7.9,6.8-11.8c2.3-3.9,4.7-7.8,7.2-11.7c4.9-7.6,9.9-15.1,14.9-22c2.5-3.5,5-6.8,7.4-10
			c2.4-3.2,4.8-6.3,7.1-9.1c2.3-2.9,4.5-5.5,6.6-8c2.1-2.5,4-4.8,5.9-6.8C402.5,47.2,407.3,42.5,407.3,42.5z"/>
	</g>
	<g>
		<path class="st119" d="M401.3,123.5c0,0-1.4,5.6-4.7,14.6c-1.6,4.5-3.7,9.9-6.3,16c-1.3,3-2.7,6.2-4.2,9.5
			c-1.5,3.3-3.1,6.7-4.9,10.2c-3.5,7-7.6,14.3-12.2,21.8c-4.6,7.5-9.6,15.1-15.3,22.6c-2.9,3.7-5.9,7.4-9,11.1
			c-1.6,1.8-3.2,3.6-4.8,5.5c-1.6,1.8-3.3,3.6-5,5.4c-6.8,7.1-14.4,13.8-22.7,20c1.4-7.7,3.9-15.7,7-23.7
			c3.2-8.1,6.9-16.3,11.5-24.1c4.5-7.9,9.4-15.7,14.5-23.2c2.5-3.8,5.2-7.3,7.8-10.8c2.7-3.5,5.3-6.9,7.9-10.2
			c5.3-6.6,10.3-12.7,15.2-18c4.8-5.4,9.2-10.1,12.9-14C396.5,128.1,401.3,123.5,401.3,123.5z"/>
	</g>
	<g>
		<path class="st119" d="M470,96.5c0,0-1.1,5.6-3.9,14.7c-2.7,9.1-7,21.7-13.5,35.9c-3.2,7.1-7.1,14.5-11.5,22
			c-2.2,3.8-4.7,7.5-7.2,11.3c-2.6,3.8-5.2,7.5-8.3,11.2c-11.7,14.8-26.7,28.4-44.5,38.1c1.1-3.7,2.5-7.4,4.1-11.1
			c0.8-1.8,1.6-3.7,2.5-5.5c0.4-0.9,0.9-1.8,1.3-2.8c0.4-0.9,0.9-1.9,1.3-2.8c3.6-7.5,8-15,12.5-22.5c9.2-14.9,19.4-29.8,29.3-42.9
			c9.8-13.2,19.3-24.6,26.3-32.6C465.4,101.2,470,96.5,470,96.5z"/>
	</g>
	<g>
		<path class="st119" d="M452,189.5c0,0-2,7.4-6.3,19.7c-0.5,1.5-1.1,3.2-1.7,4.9c-0.3,0.8-0.6,1.7-0.9,2.6
			c-0.3,0.9-0.7,1.8-1.1,2.7c-1.4,3.6-3,7.5-4.8,11.6c-1.8,4.1-3.6,8.5-5.8,13c-2.2,4.5-4.5,9.1-7,13.9
			c-4.9,9.6-10.9,19.6-17.4,29.9c-0.8,1.3-1.6,2.6-2.5,3.9c-0.9,1.3-1.7,2.5-2.6,3.8c-1.8,2.6-3.6,5.1-5.4,7.7
			c-1.8,2.6-3.7,5.1-5.7,7.7c-1,1.3-1.9,2.6-2.9,3.8c-1,1.3-2,2.5-3,3.8c-4.1,5-8.4,10-12.8,15c-4.4,4.9-9.1,9.7-13.9,14.4
			c-9.6,9.4-20,18.1-31,26c7.8-19.3,20.1-40,33.6-60.5c3.4-5.1,6.9-10.2,10.4-15.3c3.5-5.1,7-10.1,10.6-15
			c3.6-4.9,7.1-9.8,10.6-14.6c3.5-4.8,7.1-9.4,10.4-14c3.4-4.6,6.7-9,9.9-13.2c1.6-2.1,3.2-4.2,4.8-6.2c1.5-2,3-4,4.5-6
			c2.9-3.9,5.7-7.6,8.3-11c1.3-1.7,2.6-3.4,3.8-4.9c1.2-1.6,2.3-3.1,3.5-4.6C446.4,196.6,452,189.5,452,189.5z"/>
	</g>
	<g>
		<path class="st119" d="M472.9,231.5c0,0-0.8,5.8-3.1,15.7c-0.3,1.2-0.6,2.5-0.9,3.9c-0.2,0.7-0.3,1.4-0.5,2.1
			c-0.2,0.7-0.4,1.4-0.6,2.1c-0.8,2.9-1.8,5.9-2.9,9.2c-1.1,3.2-2.2,6.7-3.6,10.3c-1.4,3.5-2.9,7.2-4.6,11
			c-6.6,15.1-15.8,31.6-27.4,47.4c-11.7,15.8-25.7,30.9-42.6,44c0.8-4,1.8-8,3-12.2c1.2-4.1,2.7-8.3,4.4-12.4
			c3.4-8.3,7.4-16.7,12-24.9c4.6-8.2,9.5-16.3,14.6-24c2.6-3.9,5.1-7.7,7.7-11.4c2.5-3.7,5.2-7.3,7.6-10.8c2.5-3.5,4.9-6.9,7.3-10.2
			c1.2-1.6,2.4-3.2,3.6-4.8c1.1-1.6,2.3-3.1,3.3-4.6c2.2-3,4.3-5.8,6.3-8.4c2-2.6,3.9-5,5.5-7.3C468.6,237,472.9,231.5,472.9,231.5z
			"/>
	</g>
	<g>
		<path class="st119" d="M117.9,87.4c0,0-0.2,1-0.8,2.8c-0.5,1.8-1.3,4.3-2.3,7.5c-2,6.3-4.7,14.9-8.3,24.5
			c-3.7,9.6-8.5,20.4-15.5,31c-3.5,5.3-7.7,10.5-12.5,15.5c-4.9,4.9-10.5,9.6-17,13.4c-0.3-11.2,2.4-22.9,7-34.4
			c4.6-11.5,11.2-22.6,18.5-31.9c7.2-9.4,14.9-16.8,20.9-21.5c1.5-1.2,2.9-2.2,4.1-3.1c1.3-0.9,2.3-1.6,3.2-2.1
			C116.9,88,117.9,87.4,117.9,87.4z"/>
	</g>
	<g>
		<path class="st119" d="M103,192.4c0,0-0.5,1.2-1.5,3.2c-0.5,1-1.1,2.3-1.9,3.7c-0.4,0.7-0.8,1.5-1.1,2.3c-0.4,0.8-0.8,1.7-1.2,2.6
			c-3.5,7.3-8,17.5-13.2,29.3c-5.2,11.8-11.4,25.2-19.6,38.9c-4.1,6.8-8.8,13.7-14.2,20.3c-5.4,6.6-11.6,13-18.7,18.6
			c0.5-13.6,4-28.2,9.8-42.8c5.8-14.5,13.8-28.9,22.7-40.8c4.5-5.9,9.1-11.3,13.6-15.8c1.1-1.1,2.2-2.2,3.3-3.3
			c1.1-1.1,2.2-2,3.3-2.9c2.2-1.8,4.1-3.6,6-5c1.9-1.4,3.7-2.7,5.2-3.8c1.6-1,3-1.8,4.1-2.5C101.8,193.1,103,192.4,103,192.4z"/>
	</g>
	<g>
		<path class="st119" d="M126.8,243.5c0,0-0.2,4-1.4,10.4c-1.1,6.4-3.2,15.2-6.8,24.8c-1.8,4.8-4,9.8-6.6,14.8
			c-1.3,2.5-2.7,5-4.3,7.5c-1.5,2.5-3.3,5-5.1,7.4c-7.3,9.8-16.6,19.1-29.3,26.9c-0.3-5.5,0.2-11.1,1.4-16.8
			c1.3-5.6,3.2-11.3,5.7-16.7c4.9-11,11.8-21.1,18.7-29.8c6.9-8.6,13.9-15.7,19-20.7C123.3,246.4,126.8,243.5,126.8,243.5z"/>
	</g>
	<g>
		<path class="st119" d="M290.9,201.5c0,0-0.3,1.2-0.9,3.4c-0.6,2.2-1.7,5.3-2.9,9.2c-2.5,7.8-6.1,18.5-10.9,30.7
			c-4.9,12.2-11.3,25.9-20.3,39.3c-4.5,6.7-9.7,13.3-15.7,19.4c-6,6.1-12.8,11.7-20.5,16.4c2-13.3,6.9-27.2,13.3-41.1
			c6.4-13.8,14.5-27.5,22.9-39.2c8.4-11.8,17.1-21.6,23.7-28.1c1.7-1.6,3.2-3.1,4.5-4.4c1.4-1.2,2.6-2.3,3.6-3.1
			C289.8,202.3,290.9,201.5,290.9,201.5z"/>
	</g>
	<g>
		<path class="st119" d="M204.4,276.5c0,0,0.1,3.9-0.6,10.2c-0.4,3.2-0.9,7-1.8,11.2c-0.4,2.1-0.9,4.3-1.6,6.6
			c-0.7,2.3-1.4,4.6-2.3,7c-1.7,4.8-3.8,9.8-6.4,14.8c-2.7,5-5.9,9.9-9.7,14.6c-7.6,9.5-17.7,17.9-30.9,24.1
			c0.3-10.7,4-21.5,9.1-31.7c2.6-5.1,5.5-10,8.7-14.7c3.2-4.7,6.4-9.2,9.7-13.4c1.6-2.1,3.3-4.1,4.9-6c1.6-1.9,3.2-3.7,4.7-5.5
			c3-3.5,5.8-6.5,8.2-9.1C201.1,279.5,204.4,276.5,204.4,276.5z"/>
	</g>
	<g>
		<path class="st119" d="M204.5,360.4c0,0-0.3,0.9-1,2.6c-0.7,1.6-1.8,4-3.1,6.9c-2.8,5.7-6.8,13.4-11.9,21.7c-0.6,1-1.3,2.1-2,3.1
			c-0.7,1-1.3,2.1-2.1,3.2c-1.5,2.1-2.9,4.3-4.5,6.4c-0.8,1.1-1.6,2.1-2.4,3.2c-0.8,1.1-1.7,2.1-2.5,3.2c-0.8,1.1-1.7,2.2-2.6,3.2
			c-0.5,0.5-0.9,1.1-1.4,1.6c-0.5,0.5-0.9,1.1-1.4,1.6c-3.8,4.3-7.8,8.5-12.5,12.9c-4.6,4.4-9.5,8.8-15.3,13.8
			c-0.5-2.7-0.9-5.6-0.9-8.4c0.1-2.9,0.2-5.9,0.8-8.8c0.3-1.5,0.6-3,1-4.5c0.4-1.5,0.9-2.9,1.4-4.4l0.8-2.2c0.3-0.7,0.6-1.4,0.9-2.1
			c0.6-1.4,1.3-2.8,2-4.2c5.8-11.1,14.3-20.7,22.8-28c8.6-7.3,17.1-12.5,23.4-15.9c1.6-0.8,3-1.6,4.3-2.2c1.3-0.6,2.4-1.1,3.3-1.5
			C203.4,360.8,204.5,360.4,204.5,360.4z"/>
	</g>
	<g>
		<path class="st119" d="M293.9,270.5c0,0-0.3,1.5-0.9,4.4c-0.7,2.8-1.6,7-3.3,12.1c-1.6,5.2-3.9,11.2-6.8,18
			c-1.5,3.3-3.1,6.9-5,10.5c-1.9,3.6-3.9,7.4-6,11.2c-4.4,7.6-9.4,15.6-15,23.6c-5.6,8-11.7,16-18.3,23.9
			c-6.6,7.9-13.4,15.9-20.6,23.8c-7.2,8-14.5,16-22.4,24.5c0.2-2.2,0.5-4.4,0.8-6.6c0.4-2.2,0.7-4.6,1.3-6.8
			c1.1-4.5,2.4-9.3,4.2-13.8c0.9-2.3,1.8-4.6,2.8-6.9c1-2.3,2.1-4.5,3.2-6.8c1.1-2.3,2.3-4.5,3.6-6.8c1.3-2.2,2.5-4.5,3.9-6.7
			c10.8-17.5,24-33.4,36-47.4c3-3.5,6-6.8,8.8-10.1c1.4-1.6,2.8-3.2,4.2-4.7c1.3-1.6,2.7-3.1,3.9-4.6c1.3-1.5,2.6-2.9,3.8-4.3
			c1.2-1.4,2.4-2.8,3.5-4.1c1.1-1.3,2.2-2.6,3.3-3.8c1.1-1.2,2-2.4,3-3.6c1.9-2.3,3.6-4.4,5.1-6.2c1.5-1.9,2.7-3.4,3.7-4.7
			C292.7,272,293.9,270.5,293.9,270.5z"/>
	</g>
	<g>
		<path class="st119" d="M347.6,270.5c0,0-0.2,3.7-1.5,9.6c-0.6,3-1.6,6.4-2.9,10.2c-0.7,1.9-1.4,3.9-2.3,6c-0.9,2-1.9,4.1-3,6.2
			c-4.4,8.5-10.7,17.3-19.3,24.7c-8.6,7.4-19.5,13.3-32.9,16.3c1.8-10,6.7-19.4,13-27.9c6.3-8.5,13.8-16.1,21.1-22.6
			c7.2-6.6,14.2-12.1,19.3-16.1C344.2,272.8,347.6,270.5,347.6,270.5z"/>
	</g>
	<g>
		<path class="st119" d="M180.6,447.4c0,0-0.1,0.7-0.2,1.8c-0.2,1.1-0.5,2.7-0.9,4.6c-0.9,3.7-2.3,8.5-4.5,13.1
			c-1.1,2.3-2.4,4.5-3.9,6.5c-0.8,1-1.6,2-2.5,2.9c-0.9,0.9-2,1.8-3,2.7c-4.5,3.4-10.8,6.2-20.7,9.8c-3.4-6.5-2.7-14,0.4-20.3
			c3.2-6.3,8.6-11.2,14-14.3c5.4-3.1,10.8-4.7,14.8-5.6c2-0.4,3.6-0.7,4.8-0.8C180,447.4,180.6,447.4,180.6,447.4z"/>
	</g>
	<g>
		<path class="st119" d="M285,381.4c0,0-2.5,5.5-7.5,14.3c-5,8.8-12.4,20.8-21.8,34.2c-2.3,3.3-4.9,6.7-7.4,10.2
			c-1.3,1.7-2.6,3.5-4,5.2c-1.3,1.8-2.7,3.5-4.1,5.3c-2.9,3.5-5.7,7.2-8.8,10.8c-1.5,1.8-3,3.6-4.6,5.4c-1.6,1.8-3.2,3.6-4.8,5.4
			c-6.5,7.2-13.3,14.5-20.7,21.6c-7.4,7.1-15,14.3-23.4,21.2c2.7-16.3,10.7-34,21.4-50.2c10.8-16.2,24.1-31.1,36.9-43.3
			c12.8-12.3,25.1-22.2,34.1-29.2C279.3,385.4,285,381.4,285,381.4z"/>
	</g>
	<g>
		<path class="st119" d="M302.9,414.4c0,0-0.6,3.1-2.1,7.5c-0.8,2.1-1.6,4.8-2.7,7.6c-0.5,1.4-1.2,2.8-1.8,4.3
			c-0.7,1.5-1.4,3-2.2,4.5c-3.2,6-7.6,12.3-14.2,17.6c-6.6,5.3-15.4,9.6-27.1,10.7c0-4.2,0.8-8.1,2.1-11.9c1.3-3.8,3.1-7.3,5.4-10.7
			c2.2-3.4,4.9-6.5,7.8-9.4c1.4-1.5,3-2.8,4.5-4.1c1.6-1.3,3.1-2.5,4.7-3.7c1.6-1.1,3.2-2.2,4.8-3.2c1.6-1,3.1-1.9,4.6-2.7
			c1.5-0.8,3-1.5,4.4-2.2c1.4-0.6,2.6-1.2,3.9-1.7C299.9,415.2,302.9,414.4,302.9,414.4z"/>
	</g>
	<g>
		<path class="st119" d="M189.6,534.4c0,0-0.4,2.5-1.3,5.8c-0.2,0.8-0.5,1.7-0.7,2.6c-0.2,1-0.5,1.9-0.8,2.9c-0.3,1-0.6,2-1,2.9
			c-0.4,1-0.7,2-1.1,3c-0.4,1-0.9,1.9-1.4,2.8c-0.5,0.9-1,1.8-1.7,2.7c-0.7,0.8-1.3,1.7-2.1,2.5c-0.4,0.4-0.8,0.8-1.3,1.1
			c-0.5,0.4-1,0.7-1.4,1.1c-1,0.7-2.1,1.4-3.5,2.1c-0.7,0.3-1.3,0.6-2.1,1c-0.7,0.3-1.5,0.7-2.3,1c-0.8,0.3-1.7,0.6-2.6,0.9
			c-0.9,0.3-1.8,0.6-2.8,0.9c-2,0.6-4.2,1.2-6.7,1.7c-0.8-1.5-1.3-3.1-1.7-4.6c-0.4-1.5-0.7-3.1-0.6-4.6c0-1.5,0.2-3.1,0.5-4.6
			c0.1-0.4,0.2-0.7,0.3-1.1c0.1-0.4,0.2-0.7,0.4-1.1c0.3-0.7,0.6-1.4,0.9-2.1c0.3-0.7,0.7-1.4,1.1-2.1c0.4-0.7,0.8-1.3,1.3-1.9
			c0.9-1.2,2-2.4,3-3.5c0.5-0.6,1.1-1.1,1.7-1.6c0.6-0.5,1.2-1,1.8-1.4c1.2-0.9,2.4-1.8,3.8-2.4c2.6-1.3,5.1-2.4,7.6-3
			c1.2-0.3,2.4-0.6,3.5-0.8c0.5-0.1,1.1-0.2,1.6-0.3c0.5,0,1-0.1,1.5-0.1C187.3,534.1,189.6,534.4,189.6,534.4z"/>
	</g>
	<g>
		<path class="st119" d="M282,471.5c0,0-0.2,1-0.7,2.7c-0.5,1.7-1.2,4.3-2.3,7.4c-2.2,6.2-6.1,14.6-12,23.3
			c-5.8,8.7-13.5,17.5-22.7,25.2c-4.6,3.8-9.6,7.5-15.2,10.9c-5.5,3.4-11.5,6.7-18.4,10c0.6-11.2,6-22.7,13.4-32.4
			c7.5-9.8,16.7-17.9,25.4-24.6c8.7-6.7,16.8-12.1,22.7-16.1c3-2,5.4-3.6,7.1-4.7C281,472.1,282,471.5,282,471.5z"/>
	</g>
	<g>
		<path class="st119" d="M365.5,384.5c0,0-0.7,3.9-2.7,10c-1,3.1-2.4,6.7-4.1,10.6c-0.9,2-1.9,4.1-3,6.1c-1.1,2.1-2.4,4.2-3.7,6.4
			c-5.4,8.7-12.7,17.7-22.2,25.4c-9.5,7.6-21,13.9-35.2,17.4c1.2-5.3,3.2-10.4,5.9-15.4c2.7-4.9,5.9-9.7,9.6-14.2
			c7.3-9,15.9-16.9,24.2-23.7c4.1-3.4,8.1-6.4,11.8-9.2c3.7-2.8,7.1-5.1,10-7.2C361.8,386.8,365.5,384.5,365.5,384.5z"/>
	</g>
	<g>
		<path class="st119" d="M443.1,354.5c0,0-1.2,5.1-4.2,13.6c-0.4,1.1-0.8,2.2-1.2,3.3c-0.2,0.6-0.4,1.2-0.7,1.8
			c-0.3,0.6-0.5,1.2-0.8,1.8c-1.1,2.4-2.2,5-3.6,7.8c-1.3,2.7-2.7,5.7-4.4,8.6c-1.7,2.9-3.5,5.9-5.4,9
			c-7.8,12.4-18.4,25.4-31.4,37.1c-13,11.6-28.4,21.7-46.1,28.9c2.6-6.7,6.3-13.5,10.5-20.1c4.3-6.6,9.2-13.1,14.5-19.4
			c5.3-6.3,10.8-12.4,16.5-18.2c2.9-2.9,5.6-5.8,8.4-8.6c2.8-2.8,5.6-5.4,8.3-8.1c2.7-2.6,5.3-5.2,7.9-7.6c1.3-1.2,2.6-2.4,3.8-3.6
			c1.2-1.2,2.4-2.3,3.6-3.5c2.3-2.3,4.6-4.4,6.7-6.4c1.1-1,2.1-1.9,3.1-2.9c1-0.9,1.9-1.8,2.8-2.7
			C438.5,358.6,443.1,354.5,443.1,354.5z"/>
	</g>
	<g>
		<path class="st119" d="M308.9,498.4c0,0-0.5,1-1.4,2.7c-0.9,1.7-2.3,4.2-4.1,7.3c-3.6,6.1-8.9,14.3-15.6,23.1
			c-6.7,8.8-14.8,18.2-24.4,27.1c-4.9,4.4-10,8.8-15.8,13c-5.7,4.2-11.9,8.4-18.9,12.5c0.6-12.1,6-24.7,13.8-35.9
			c7.9-11.1,18-20.7,28-28.1c10-7.5,19.6-12.9,26.8-16.4c1.8-0.9,3.4-1.7,4.8-2.3c1.4-0.6,2.7-1.2,3.7-1.6
			C307.8,498.9,308.9,498.4,308.9,498.4z"/>
	</g>
	<g>
		<path class="st119" d="M383.5,468.4c0,0-1.6,3.7-4.8,9.1c-1.6,2.7-3.6,6-5.9,9.5c-1.2,1.8-2.5,3.5-3.9,5.4
			c-1.4,1.9-2.8,3.8-4.4,5.7c-3.2,3.8-6.6,7.8-10.5,11.6c-2,1.9-3.9,3.9-6.1,5.7c-1.1,0.9-2.2,1.8-3.3,2.7c-1.1,0.9-2.3,1.8-3.5,2.7
			c-2.3,1.8-4.8,3.5-7.4,5.1c-1.3,0.8-2.6,1.6-4,2.4c-1.4,0.8-2.7,1.6-4.2,2.3c-1.4,0.7-2.9,1.5-4.4,2.1c-1.5,0.7-3,1.4-4.6,2.1
			c-3.1,1.3-6.5,2.6-10,3.7c0.5-2.7,1.2-5.3,2.1-8c0.9-2.6,1.9-5.3,3.3-7.8c1.3-2.5,2.8-5,4.5-7.5l1.2-1.8c0.4-0.6,0.9-1.2,1.3-1.8
			c0.9-1.2,1.9-2.3,2.8-3.4c7.7-9.2,17.3-16.7,26.5-22.7c2.3-1.5,4.6-2.8,6.8-4.1c2.2-1.3,4.4-2.5,6.5-3.6c4.2-2.1,8-4,11.3-5.3
			C379.4,469.8,383.5,468.4,383.5,468.4z"/>
	</g>
	<g>
		<path class="st119" d="M449.1,411.5c0,0,0.3,2.9-0.1,7.5c-0.2,2.3-0.6,5-1.2,7.9c-0.6,3-1.6,6.1-3,9.2c-1.4,3.2-3.1,6.4-5.3,9.5
			c-2.2,3-4.9,5.9-8.1,8.4c-3.2,2.5-6.9,4.7-11.3,6.4c-4.4,1.6-9.4,2.8-15,3.2c-0.1-8.1,2.8-15.3,6.9-21.6c2.1-3.1,4.5-6,7.1-8.7
			c1.3-1.3,2.6-2.6,4-3.8c1.3-1.2,2.7-2.4,4.1-3.5c2.7-2.2,5.6-4.2,8.1-5.9c2.5-1.8,4.9-3.3,6.9-4.6
			C446.3,412.9,449.1,411.5,449.1,411.5z"/>
	</g>
	<g>
		<path class="st119" d="M428.2,480.5c0,0-0.2,1-0.5,2.8c-0.4,1.8-1,4.5-2.2,7.7c-1.1,3.2-2.7,7-4.9,11.1c-1.1,2-2.3,4.1-3.7,6.3
			c-1.4,2.1-2.8,4.3-4.5,6.4c-3.2,4.3-7,8.6-11.1,12.7c-2.1,2.1-4.2,4-6.5,6c-2.2,2-4.6,3.8-7,5.7c-4.9,3.6-9.9,7.1-15.6,10.5
			c-1.4,0.9-2.8,1.7-4.3,2.5c-1.5,0.9-2.9,1.7-4.5,2.6c-0.8,0.4-1.6,0.9-2.4,1.3c-0.8,0.5-1.6,0.9-2.3,1.4c-1.6,0.9-3.2,1.8-5,2.7
			c0.1-2.8,0.5-5.8,1.2-8.7c0.4-1.4,0.8-2.9,1.3-4.3c0.2-0.7,0.5-1.5,0.8-2.2c0.3-0.7,0.6-1.4,0.9-2.1c0.6-1.4,1.3-2.8,2.1-4.2
			c0.8-1.4,1.6-2.7,2.4-4.1c1.7-2.7,3.6-5.2,5.6-7.7c8.2-9.8,18.2-17.5,27.2-23.8c9.1-6.3,17.3-11.5,23.2-15.7c1.5-1,2.8-2,4-2.8
			c1.2-0.9,2.1-1.6,3-2.2C427.3,481.2,428.2,480.5,428.2,480.5z"/>
	</g>
	<g>
		<path class="st119" d="M443.1,528.5c0,0,0.1,2.7-0.5,7c-0.3,2.2-1,4.6-2,7.3c-0.9,2.7-2.3,5.4-4,8.1c-0.4,0.7-0.9,1.4-1.3,2
			c-0.5,0.6-1,1.3-1.5,1.9c-1,1.3-2.2,2.5-3.4,3.7c-2.4,2.3-5.3,4.4-8.6,5.9c-6.6,3.2-14.5,4.6-25.5,3.8c0.2-3.8,1.2-7.5,2.7-10.7
			c1.5-3.2,3.6-6.2,6-8.7c4.8-5.1,10.7-8.7,16.4-11.5c2.7-1.4,5.6-2.6,8.1-3.7c2.5-1.1,4.9-2,6.9-2.8
			C440.4,529.4,443.1,528.5,443.1,528.5z"/>
	</g>
	<g>
		<path class="st119" d="M303.1,555.3c0,0-0.2,0.5-0.5,1.4c-0.3,0.9-0.8,2.1-1.2,3.5c-1,2.8-1.9,6.2-2.9,8.9
			c-0.2,0.7-0.5,1.3-0.8,1.9c-0.1,0.3-0.3,0.6-0.5,0.8c-0.2,0.3-0.3,0.5-0.5,0.8c-0.4,0.4-0.8,0.9-1.4,1.2c-0.5,0.4-1.2,0.7-1.9,1
			c-3.1,1.2-8.3,1.7-17.4,4.1c-4.2-4.7-4.6-10.7-2.2-15.7c2.3-4.9,7.2-8.5,12-9.9c4.9-1.5,9.5-1,12.5-0.1c0.8,0.2,1.5,0.5,2,0.7
			c0.6,0.3,1.1,0.5,1.5,0.7C302.7,555.1,303.1,555.3,303.1,555.3z"/>
	</g>
	<g>
		<path class="st119" d="M443.2,51.4c0,0-0.1,0.7-0.2,2c-0.2,1.3-0.4,3-0.7,5.2c-0.7,4.3-1.5,9.8-3.2,15.7c-1.7,5.8-4.3,12-9.1,17.9
			c-4.8,5.8-11.8,11.4-22.4,15.3c-2.5-7.6-1.9-15.2,0.7-22.4c2.5-7.2,7.2-13.9,12.3-19.3c5.2-5.4,11-9.2,15.3-11.4
			c1.1-0.5,2.1-1,3-1.4c0.9-0.4,1.7-0.7,2.3-0.9C442.5,51.6,443.2,51.4,443.2,51.4z"/>
	</g>
	<g>
		<path class="st119" d="M505.9,102.4c0,0-0.2,0.8-0.6,2.1c-0.4,1.3-1,3.3-1.7,5.6c-1.5,4.6-3.6,10.8-6.7,17.2
			c-3.2,6.5-7.5,13.4-14,19.5c-6.5,6.1-15.3,11.4-27.2,13.9c-0.2-8.7,2.4-16.8,6.8-24.3c4.4-7.5,10.5-14.2,16.9-19.6
			c6.4-5.4,13.1-9.2,18.2-11.5c1.3-0.6,2.4-1,3.4-1.4c1-0.4,1.9-0.7,2.7-0.9C505.1,102.6,505.9,102.4,505.9,102.4z"/>
	</g>
	<g>
		<path class="st119" d="M526.7,144.4c0,0-0.6,3.8-2.3,9.8c-1.7,6-4.6,14.2-8.7,22.9c-1,2.2-2.2,4.4-3.3,6.6
			c-0.6,1.1-1.2,2.2-1.9,3.3c-0.6,1.1-1.3,2.2-1.9,3.4c-1.4,2.2-2.7,4.5-4.3,6.7c-0.8,1.1-1.5,2.2-2.3,3.4c-0.8,1.1-1.7,2.2-2.5,3.3
			c-3.5,4.4-7.2,8.8-11.6,13.3c-4.4,4.4-9.2,8.9-14.8,13.7c-2.6-10.5-0.6-22.7,4.2-33.6c4.8-11,12.2-20.8,19.7-28.5
			c7.5-7.8,15-13.7,20.5-17.9C523,146.7,526.7,144.4,526.7,144.4z"/>
	</g>
	<g>
		<path class="st119" d="M538.6,186.5c0,0-0.1,1.2-0.3,3.5c-0.2,2.2-0.6,5.5-1.4,9.5c-1.5,8.1-4.5,19.3-9.5,31.5
			c-2.5,6.1-5.3,12.5-8.6,18.9c-1.7,3.2-3.4,6.4-5.2,9.7c-1.8,3.2-3.8,6.5-5.8,9.7c-4.1,6.5-8.4,12.9-13.3,19.5
			c-1.2,1.6-2.4,3.3-3.7,4.9c-1.3,1.7-2.5,3.4-3.8,5c-0.7,0.8-1.3,1.7-2,2.5c-0.7,0.9-1.3,1.7-2,2.6c-1.3,1.7-2.7,3.5-4.2,5.3
			c-0.6-3.3-1-6.9-1-10.5c0-1.8,0.1-3.6,0.2-5.5c0.1-0.9,0.1-1.9,0.2-2.8c0.1-0.9,0.3-1.9,0.4-2.8c0.3-1.9,0.6-3.8,1-5.7
			c0.4-1.9,0.9-3.7,1.4-5.6c1-3.8,2.3-7.4,3.7-11.2c5.8-14.7,14.3-28.1,22.6-39.4c8.3-11.3,16.3-20.9,22-27.8
			c1.4-1.7,2.7-3.3,3.9-4.7c1.1-1.4,2.1-2.6,2.9-3.6C537.7,187.6,538.6,186.5,538.6,186.5z"/>
	</g>
	<g>
		<path class="st119" d="M550.5,249.6c0,0,0.5,4.3,0.5,11.4c0,3.6-0.3,7.8-0.8,12.7c-0.3,2.4-0.6,5-1.1,7.6
			c-0.5,2.6-1.1,5.4-1.8,8.2c-0.3,1.4-0.7,2.8-1.1,4.3c-0.4,1.4-0.9,2.9-1.4,4.4c-1,2.9-2.1,5.9-3.4,8.9c-1.3,3-2.8,6-4.5,9
			c-1.7,3-3.4,6-5.5,8.8c-2.1,2.9-4.3,5.7-6.7,8.4c-2.4,2.7-5.2,5.2-8,7.6c-1.4,1.2-2.9,2.4-4.4,3.5c-1.5,1.1-3.2,2.1-4.8,3.1
			c-3.3,2-6.7,3.8-10.2,5.3c0.4-2.9,1-5.8,1.8-8.7c0.4-1.4,0.8-2.9,1.3-4.3c0.2-0.7,0.5-1.4,0.7-2.1c0.2-0.7,0.5-1.4,0.7-2.2
			c1.9-5.8,4.6-11.3,7.2-17.1c1.3-2.8,2.8-5.6,4.3-8.4c1.4-2.8,2.9-5.6,4.4-8.3c0.8-1.4,1.6-2.7,2.3-4c0.7-1.4,1.5-2.7,2.3-4
			c1.5-2.7,3.1-5.2,4.7-7.8c1.5-2.6,3-5,4.5-7.4c1.5-2.4,3-4.6,4.3-6.8c2.7-4.4,5.3-8.2,7.5-11.5
			C547.6,253.5,550.5,249.6,550.5,249.6z"/>
	</g>
	<g>
		<path class="st119" d="M571.4,304.5c0,0,0.3,0.4,0.8,1.1c0.5,0.7,1.1,1.7,1.7,3.1c0.6,1.3,1.1,2.8,1.4,4.4
			c0.3,1.6,0.5,3.3,0.3,4.9c-0.3,3.1-1.6,5.9-4.7,7c-3.2,1.2-8.2,0.8-16.8-1.2c-1.5-2.4-2.3-4.7-2.6-6.6c-0.3-1.9,0-3.6,0.7-5.1
			c1.3-2.8,3.9-4.6,6.7-5.5c1.5-0.5,2.9-0.8,4.3-1c1.4-0.2,2.8-0.4,4-0.5C569.6,304.8,571.4,304.5,571.4,304.5z"/>
	</g>
</g>
<g>
	<circle class="st125" cx="381.4" cy="202.8" r="31.5"/>
	<g>
		<path class="st5" d="M390.8,203.9c-0.8,0-1.5-0.7-1.5-1.5c0-0.8,0.7-1.5,1.5-1.5h5.5l0-6.4c-2.4-0.5-3.9-0.6-4.6-0.6h-1.4
			c-0.8,0-1.8,0.1-2.9,0.4c-3.9,1.5-5.9,3.9-5.9,7.3v0.8c0,0.9,0.2,1.9,0.6,2.9c1.7,3.4,4.5,5.2,8.6,5.2c1.8,0,3.7-0.4,5.6-1l0-5.6
			L390.8,203.9L390.8,203.9z"/>
		<path class="st5" d="M375.8,201.9c-0.7,0-1.2-0.6-1.2-1.2c0-0.7,0.5-1.2,1.2-1.2h5v-5h-14.4l-0.1,0.1v15.9l0.1,0.2h8.4l0.2-0.2
			v-4.2h5.5l0.1,0l-0.5-4.2C380.2,201.8,375.8,201.8,375.8,201.9z"/>
	</g>
	<path class="st5" d="M377.9,225.6c0-0.7,0.5-1.2,1.2-1.2s1.2,0.5,1.2,1.2v2.8H391l-5.8-8.5c0-0.2,1.8-2.7,5.4-7.6l-0.2-0.2h-10.1
		v2.5c0,0.7-0.5,1.2-1.2,1.2s-1.2-0.6-1.2-1.2v-2.5H372l-0.1,0.1v15.9l0.1,0.3h5.9V225.6z"/>
	<path class="st5" d="M378.5,175.9h6.3l0.2,0.2V192l-0.2,0.2h-8.1l-0.2-0.2v-5.9l-1.6,1.1c-0.2-0.3-1.2-2.6-2.8-7.1L378.5,175.9z"/>
</g>
</svg>
