<?xml version="1.0" encoding="utf-8"?>
<!-- Generator: Adobe Illustrator 17.0.0, SVG Export Plug-In . SVG Version: 6.00 Build 0)  -->
<!DOCTYPE svg PUBLIC "-//W3C//DTD SVG 1.1//EN" "http://www.w3.org/Graphics/SVG/1.1/DTD/svg11.dtd" [
	<!ENTITY ns_flows "http://ns.adobe.com/Flows/1.0/">
	<!ENTITY ns_extend "http://ns.adobe.com/Extensibility/1.0/">
	<!ENTITY ns_ai "http://ns.adobe.com/AdobeIllustrator/10.0/">
	<!ENTITY ns_graphs "http://ns.adobe.com/Graphs/1.0/">
]>
<svg version="1.1" id="Layer_1" xmlns:x="&ns_extend;" xmlns:i="&ns_ai;" xmlns:graph="&ns_graphs;"
	 xmlns="http://www.w3.org/2000/svg" xmlns:xlink="http://www.w3.org/1999/xlink" xmlns:a="http://ns.adobe.com/AdobeSVGViewerExtensions/3.0/"
	 x="0px" y="0px" width="600px" height="600px" viewBox="0 0 600 600" style="enable-background:new 0 0 600 600;"
	 xml:space="preserve">
<style type="text/css">
	.st0{fill:#000100;}
	.st1{fill:#E80040;stroke:#000000;stroke-miterlimit:10;}
	.st2{fill:#FCE200;stroke:#000000;stroke-miterlimit:10;}
	.st3{fill:#FEA63F;stroke:#000000;stroke-miterlimit:10;}
	.st4{fill:#FFFFFF;stroke:#000000;stroke-miterlimit:10;}
	.st5{fill:#FFFFFF;}
	.st6{fill:#7C0014;}
	.st7{fill:#75C255;stroke:#000000;stroke-miterlimit:10;}
	.st8{fill:#52B329;}
	.st9{fill:#52BCE0;stroke:#000000;stroke-miterlimit:10;}
	.st10{fill:#48ACD0;}
	.st11{fill:#028CBE;}
	.st12{fill:#52BCE0;}
	.st13{fill:#EFF0F9;stroke:#4E3B64;stroke-miterlimit:10;}
	.st14{fill:#1D5662;stroke:#000000;stroke-miterlimit:10;}
	.st15{fill:#1D5662;}
	.st16{fill:#054049;}
	.st17{fill:#037FC7;}
	.st18{fill:#9158B6;stroke:#000000;stroke-miterlimit:10;}
	.st19{fill:#752EA5;}
	.st20{fill:#2678C7;}
	.st21{fill:#FABFB6;stroke:#000000;stroke-miterlimit:10;}
	.st22{fill:#FABFB6;}
	.st23{fill:#FC8038;stroke:#FABFB6;stroke-miterlimit:10;}
	.st24{fill:#00A39B;}
	.st25{fill:#E53A3E;stroke:#000000;stroke-miterlimit:10;}
	.st26{fill:#E53A3E;}
	.st27{fill:#242424;stroke:#5C377E;stroke-miterlimit:10;}
	.st28{fill:#525252;stroke:#000000;stroke-miterlimit:10;}
	.st29{fill:#4998BB;}
	.st30{fill:#1A7F9E;}
	.st31{fill:#E58000;stroke:#000000;stroke-miterlimit:10;}
	.st32{fill:#BA7500;stroke:#000000;stroke-miterlimit:10;}
	.st33{fill:#DF961C;stroke:#000000;stroke-miterlimit:10;}
	.st34{fill:#DF961C;}
	.st35{fill:#EDF3F8;stroke:#000000;stroke-miterlimit:10;}
	.st36{fill:#DA7600;}
	.st37{fill:#C2BEC8;}
	.st38{fill:#000100;stroke:#FFFFFF;stroke-miterlimit:10;}
	.st39{fill:#A8F001;stroke:#000000;stroke-miterlimit:10;}
	.st40{fill:#0578CD;}
	.st41{fill:#1A58A5;}
	.st42{stroke:#625616;stroke-miterlimit:10;}
	.st43{adobe-knockout:true;}
	.st44{fill:none;stroke:#FFFFFF;stroke-width:3;stroke-miterlimit:10;adobe-knockout:false;}
	.st45{fill:#D71F26;stroke:#000000;stroke-miterlimit:10;}
	.st46{fill:#008183;}
	.st47{fill:#6FC266;}
	.st48{fill:#C4373C;}
	.st49{fill:#00CAB0;}
	.st50{fill:#FAAE1E;}
	.st51{fill:#EC153B;}
	.st52{fill:#00B296;}
	.st53{fill:#F2C958;stroke:#00CAB0;stroke-miterlimit:10;}
	.st54{fill:#FF354F;stroke:#000000;stroke-miterlimit:10;}
	.st55{fill:#0D36A7;stroke:#000000;stroke-miterlimit:10;}
	.st56{fill:#D2D7E2;stroke:#000000;stroke-miterlimit:10;}
	.st57{fill:#CA2B9D;stroke:#000000;stroke-miterlimit:10;}
	.st58{font-family:'ArialMT';}
	.st59{font-size:11;}
	.st60{fill:#58006C;stroke:#000000;stroke-miterlimit:10;}
	.st61{fill:#C60021;}
	.st62{fill:#A30F81;}
	.st63{fill:#0159C0;stroke:#A0A0A0;stroke-miterlimit:10;}
	.st64{fill:#013390;}
	.st65{fill:#F08900;}
	.st66{fill:#D20129;}
	.st67{fill:#AD0000;}
	.st68{fill:#131E25;}
	.st69{fill:#DAD2D8;stroke:#000000;stroke-miterlimit:10;}
	.st70{fill:#0066B3;}
	.st71{fill:#969796;}
	.st72{fill:#E86271;}
	.st73{fill:url(#SVGID_1_);stroke:#000000;stroke-miterlimit:10;}
	.st74{fill:#5AB4D2;stroke:#000000;stroke-miterlimit:10;}
	.st75{fill:#5AB4D2;}
	.st76{fill:#FFFFFF;stroke:#5AB4D2;stroke-miterlimit:10;}
	.st77{fill:#073F98;stroke:#0453BC;stroke-miterlimit:10;}
	.st78{fill:#2762C9;stroke:#000000;stroke-miterlimit:10;}
	.st79{fill:#C252FF;}
	.st80{fill:url(#SVGID_2_);}
	.st81{fill:url(#SVGID_3_);}
	.st82{fill:#DAD2D8;}
	.st83{stroke:#000000;stroke-miterlimit:10;}
	.st84{fill:#05297D;stroke:#000000;stroke-miterlimit:10;}
	.st85{fill:#05297D;stroke:#FFFFFF;stroke-miterlimit:10;}
	.st86{fill:#A8A8B4;}
	.st87{fill:url(#SVGID_4_);stroke:#000000;stroke-miterlimit:10;}
	.st88{fill:#53536A;}
	.st89{fill:#073F98;}
	.st90{fill:#098FBC;}
	.st91{fill:url(#SVGID_5_);}
	.st92{fill:#F7A161;}
	.st93{fill:#FF0000;stroke:#000000;stroke-miterlimit:10;}
	.st94{fill:#F54849;stroke:#000000;stroke-miterlimit:10;}
	.st95{fill:url(#SVGID_6_);}
	.st96{fill:url(#SVGID_7_);}
	.st97{fill:#3A72B7;stroke:#000000;stroke-miterlimit:10;}
	.st98{fill:#96C4F0;stroke:#000000;stroke-miterlimit:10;}
	.st99{fill:#C50040;}
	.st100{fill:#D11E24;}
	.st101{fill:#E3E3E7;}
	.st102{stroke:#FFCF2B;stroke-miterlimit:10;}
	.st103{fill:none;stroke:#F9E42A;stroke-miterlimit:10;}
	.st104{fill:#F08900;stroke:#000000;stroke-miterlimit:10;}
	.st105{fill:#F28330;}
	.st106{fill:#FC8038;}
	.st107{fill:#5AB633;}
	.st108{fill:#553658;stroke:#75C255;stroke-miterlimit:10;}
	.st109{fill:#1853A6;}
	.st110{fill:#CB0000;}
	.st111{fill:#0F0D0E;}
	.st112{fill:#636363;}
	.st113{fill:#FFFFFF;stroke:#00A39B;stroke-miterlimit:10;}
	.st114{fill:#D71F26;}
	.st115{fill:#020000;}
	.st116{fill:none;stroke:#000000;stroke-width:0.5;stroke-miterlimit:10;}
	.st117{clip-path:url(#SVGID_9_);}
	.st118{clip-path:url(#SVGID_11_);}
	.st119{clip-path:url(#SVGID_13_);}
	.st120{clip-path:url(#SVGID_15_);}
	.st121{fill:#7A4A00;}
	.st122{fill:none;stroke:#1A7F9E;stroke-width:7;stroke-miterlimit:10;}
	.st123{fill:#E20227;stroke:#4998BB;stroke-miterlimit:10;}
	.st124{fill:#1F2427;}
	.st125{fill:#BA7500;}
	.st126{fill:none;stroke:#BA7500;stroke-width:7;stroke-miterlimit:10;}
	.st127{fill:#843D00;stroke:#000000;stroke-width:0.25;stroke-miterlimit:10;}
	.st128{stroke:#000000;stroke-width:0.25;stroke-miterlimit:10;}
	.st129{fill:#ECEEF3;stroke:#1A58A5;stroke-miterlimit:10;}
	.st130{fill:#233194;}
	.st131{fill:#E0DFE3;}
	.st132{fill:#C2BEC8;stroke:#000000;stroke-miterlimit:10;}
	.st133{fill:#233194;stroke:#000000;stroke-miterlimit:10;}
	.st134{fill:#A40100;}
	.st135{adobe-knockout:false;}
	.st136{fill:#A0AAC1;}
	.st137{fill:#A40100;stroke:#000000;stroke-miterlimit:10;}
	.st138{fill:#92F0D6;}
	.st139{fill:#F2C958;}
	.st140{fill:#CA2B9D;stroke:#CA2B9D;stroke-miterlimit:10;}
	.st141{fill:#A30F81;stroke:#000000;stroke-miterlimit:10;}
	.st142{fill:#7E2B42;}
	.st143{fill:#0D36A7;}
	.st144{fill:#EE1C24;}
	.st145{fill:#0159C0;}
	.st146{stroke:#A0A0A0;stroke-miterlimit:10;}
	.st147{stroke:#4E3B64;stroke-miterlimit:10;}
	.st148{fill:#FDEA00;stroke:#000000;stroke-width:0.217;}
	.st149{fill:#FDEA00;stroke:#000000;stroke-width:0.2326;}
	.st150{fill:#1D1D1B;}
	.st151{fill:#FF0000;}
	.st152{fill:none;stroke:#0453BC;stroke-width:25.435;stroke-miterlimit:10;adobe-knockout:false;}
	.st153{fill:none;stroke:#0453BC;stroke-width:25.4353;stroke-linecap:round;stroke-miterlimit:10;adobe-knockout:false;}
	.st154{fill:#CAC5C0;}
	.st155{fill:#2762C9;}
	.st156{fill:#C252FF;stroke:#000000;stroke-miterlimit:10;}
	.st157{fill:#A54B2D;stroke:#000000;stroke-miterlimit:10;}
	.st158{fill:#A54B2D;}
	.st159{stroke:#A54B2D;stroke-miterlimit:10;}
	.st160{fill:#823311;}
	.st161{fill:none;}
	.st162{fill:#05297D;}
	.st163{fill:none;stroke:#FF7F35;stroke-width:6;stroke-miterlimit:10;}
	.st164{fill:#031DFF;stroke:#000000;stroke-miterlimit:10;}
	.st165{fill:#0370FF;stroke:#000000;stroke-miterlimit:10;}
	.st166{fill:#031DC4;}
	.st167{fill:none;stroke:#0080CA;stroke-width:6;stroke-miterlimit:10;}
	.st168{fill:#031DFF;stroke:#FFFFFF;stroke-miterlimit:10;}
	.st169{fill:#0263B0;}
	.st170{fill:none;stroke:#FFFFFF;stroke-width:2;stroke-miterlimit:10;}
	.st171{fill:url(#SVGID_16_);stroke:#FFFFFF;stroke-miterlimit:10;}
	.st172{fill:url(#SVGID_17_);}
	.st173{fill:url(#SVGID_18_);}
	.st174{fill:url(#SVGID_19_);}
	.st175{fill:#693B0F;stroke:#000000;stroke-miterlimit:10;}
	.st176{fill:#3E4E70;}
	.st177{fill:#F7CE02;}
	.st178{fill:#0551E1;stroke:#000000;stroke-miterlimit:10;}
	.st179{fill:#EC153B;stroke:#000000;stroke-miterlimit:10;}
	.st180{fill:#0831FD;}
	.st181{fill:#0870FD;}
	.st182{fill:none;stroke:#9F3D44;stroke-width:3;stroke-miterlimit:10;}
</style>
<path class="st31" d="M594.5,576.2c0-93.6-20.8-396.5-56.5-478.7c-11.6-26.7-84.7-58.1-155.5-80.1c-24.8-7.7-54.1-9.9-81.7-9.4
	c-27.8-0.6-61.4,1.3-86.4,9.1C143.6,39.2,74.6,70.8,63,97.5C27.2,179.7,6.5,482.7,6.5,576.2c8.8,6.4,17.7,7.6,67.5,9.8
	c10-134,52-285,52-285s-4.1,248-4.1,270c0.2,18.6,87.7,23.8,173.7,24v0c1,0,2.5,0,3.5,0c1,0,2.5,0,3.5,0v0c86-0.2,175-5.4,175.2-24
	c0-22-2.9-270-2.9-270s42.1,151,52.1,285C576.6,583.8,585.7,582.7,594.5,576.2z"/>
<g>
	<g>
		<path class="st31" d="M227.5,28.7C240.3,46,262,62.5,298.1,62.5c36.2,0,56.3-16.8,67.4-34.5C335.2,31.1,259.9,30.8,227.5,28.7z"/>
		<path class="st32" d="M368.1,1c-17.6,5.3-142.2,2.9-148.6,0.6c-0.1,0.3-0.3,0.7-0.5,1.1c2.2,7.1,6.3,17.5,13.7,27.5
			c29.5,1.9,97.9,2.2,125.6-0.6c6.2-9.9,9.4-20.2,10.9-27.3C368.8,1.8,368.4,1.4,368.1,1z"/>
	</g>
	<path class="st32" d="M369.2,2.3c-4.1,18.7-19,58.7-72.2,58.7c-53.9,0-72.4-40.1-78-58.3c-2.9,5.3-13.9,16.7-13.9,16.7
		s14.4,61,89.9,61c76.5,0,86.6-58.7,87.7-63.1C380.6,16.4,373.4,6.9,369.2,2.3z"/>
</g>
<text transform="matrix(1 0 0 1 62.9999 581.0644)" class="st58 st59"> </text>
<path class="st125" d="M69.9,88.8c0,0,77.1,9.2,55.7,220c-0.4,79.7-1.8,141.7-2.4,184.6c-0.7,46.5-0.8,70.5-0.8,71.6
	c0,3.2-0.6,7.5,0.8,9.2c0.7,1.1,1.7,2.3,3.4,3.5c4.7,3.4,15.3,6.5,27.3,8.8c-14.2-11.6-10.9-42.8-9.8-72.1c1.1-29.4-24-95.4-3-199.4
	c6.8-33.6-5.5-74.9-6-84C131.1,163.3,118.7,97.5,69.9,88.8z"/>
<path class="st125" d="M531.8,89.2c0,0-79.2,0.7-57.7,211.5c2.1,168.9,3.2,265.3,3.2,264.5c0-2.3,0,2.4,0,6.2c0,1.3-0.7,2.6-0.9,2.9
	c-0.7,1.1-2,2.2-3.6,3.4c-4.7,3.4-13.3,5.9-25.1,8.2c14.2-11.6,11.1-41.8,10-71.2c-1.1-29.4,24-95.4,3-199.4
	c-6.8-33.6,1.5-83.4,2-92.4C466.5,155.3,485.2,92.2,531.8,89.2z"/>
<polyline class="st126" points="306.3,78 215,320 319,352 249,591.5 "/>
<polyline class="st126" points="271.2,77.4 171,344 275,376 211.9,591.3 "/>
<polyline class="st126" points="131,369.2 231,400 175.7,588.7 "/>
<line class="st126" x1="240.7" y1="64.2" x2="130.2" y2="359.6"/>
<polyline class="st126" points="130.2,406.5 187,424 143.8,571.4 "/>
<line class="st126" x1="217.4" y1="35.9" x2="135.7" y2="251.6"/>
<line class="st126" x1="182.8" y1="31.8" x2="127.8" y2="176.9"/>
<line class="st126" x1="140.1" y1="49" x2="111.2" y2="125.3"/>
<line class="st126" x1="95.7" y1="70.7" x2="86.5" y2="95.2"/>
<polyline class="st126" points="345,70 261,294 365,326 287.2,591.4 "/>
<polyline class="st126" points="398.3,26 307,268 411,300 325.3,591.4 "/>
<polyline class="st126" points="430.1,36.3 353,242 457,274 364.7,590.9 "/>
<line class="st126" x1="471.9" y1="354.1" x2="403.2" y2="588.4"/>
<polyline class="st126" points="462.2,47.5 399,216 467.3,237 "/>
<line class="st126" x1="469" y1="495.5" x2="443" y2="584.5"/>
<polyline class="st126" points="492.3,64 445,190 469.8,197.6 "/>
<g>
	<circle class="st127" cx="381.4" cy="202.8" r="31.5"/>
	<g>
		<path class="st5" d="M390.8,203.9c-0.8,0-1.5-0.7-1.5-1.5c0-0.8,0.7-1.5,1.5-1.5h5.5l0-6.4c-2.4-0.5-3.9-0.6-4.6-0.6h-1.4
			c-0.8,0-1.8,0.1-2.9,0.4c-3.9,1.5-5.9,3.9-5.9,7.3v0.8c0,0.9,0.2,1.9,0.6,2.9c1.7,3.4,4.5,5.2,8.6,5.2c1.8,0,3.7-0.4,5.6-1l0-5.6
			L390.8,203.9L390.8,203.9z"/>
		<path class="st5" d="M375.8,201.9c-0.7,0-1.2-0.6-1.2-1.2c0-0.7,0.5-1.2,1.2-1.2h5v-5h-14.4l-0.1,0.1v15.9l0.1,0.2h8.4l0.2-0.2
			v-4.2h5.5l0.1,0l-0.5-4.2C380.2,201.8,375.8,201.8,375.8,201.9z"/>
	</g>
	<path class="st5" d="M377.9,225.6c0-0.7,0.5-1.2,1.2-1.2s1.2,0.5,1.2,1.2v2.8H391l-5.8-8.5c0-0.2,1.8-2.7,5.4-7.6l-0.2-0.2h-10.1
		v2.5c0,0.7-0.5,1.2-1.2,1.2s-1.2-0.6-1.2-1.2v-2.5H372l-0.1,0.1v15.9l0.1,0.3h5.9V225.6z"/>
	<path class="st5" d="M378.5,175.9h6.3l0.2,0.2V192l-0.2,0.2h-8.1l-0.2-0.2v-5.9l-1.6,1.1c-0.2-0.3-1.2-2.6-2.8-7.1L378.5,175.9z"/>
</g>
</svg>
