<?xml version="1.0" encoding="utf-8"?>
<!-- Generator: Adobe Illustrator 17.0.0, SVG Export Plug-In . SVG Version: 6.00 Build 0)  -->
<!DOCTYPE svg PUBLIC "-//W3C//DTD SVG 1.1//EN" "http://www.w3.org/Graphics/SVG/1.1/DTD/svg11.dtd" [
	<!ENTITY ns_flows "http://ns.adobe.com/Flows/1.0/">
	<!ENTITY ns_extend "http://ns.adobe.com/Extensibility/1.0/">
	<!ENTITY ns_ai "http://ns.adobe.com/AdobeIllustrator/10.0/">
	<!ENTITY ns_graphs "http://ns.adobe.com/Graphs/1.0/">
]>
<svg version="1.1" id="Layer_1" xmlns:x="&ns_extend;" xmlns:i="&ns_ai;" xmlns:graph="&ns_graphs;"
	 xmlns="http://www.w3.org/2000/svg" xmlns:xlink="http://www.w3.org/1999/xlink" xmlns:a="http://ns.adobe.com/AdobeSVGViewerExtensions/3.0/"
	 x="0px" y="0px" width="600px" height="600px" viewBox="0 0 600 600" style="enable-background:new 0 0 600 600;"
	 xml:space="preserve">
<style type="text/css">
	.st0{fill:#0068B4;}
	.st1{fill:#9400A6;}
	.st2{fill:#FFFFFF;}
	.st3{fill:#D2D705;}
	.st4{fill:#7A9E04;}
	.st5{fill:#C272D7;stroke:#000000;stroke-miterlimit:10;}
	.st6{fill:#FFFFFF;stroke:#000000;stroke-miterlimit:10;}
	.st7{fill:#7C0014;}
	.st8{fill:#E0DE71;stroke:#000000;stroke-miterlimit:10;}
	.st9{fill:#CC5C9B;}
	.st10{fill:#B91F75;}
	.st11{fill:#C8218D;stroke:#000000;stroke-miterlimit:10;}
	.st12{fill:#EBA79C;stroke:#000000;stroke-miterlimit:10;}
	.st13{fill:#FF7D6F;}
	.st14{fill:#FE5561;}
	.st15{stroke:#000000;stroke-miterlimit:10;}
	.st16{fill:#10792E;}
	.st17{fill:#5F546E;}
	.st18{fill:#10792E;stroke:#000000;stroke-miterlimit:10;}
	.st19{fill:#C8218D;}
	.st20{fill:#C7CCC4;}
	.st21{fill:#A7DCF3;stroke:#000000;stroke-miterlimit:10;}
	.st22{fill:#49B7E7;}
	.st23{fill:#CB5E22;stroke:#000000;stroke-miterlimit:10;}
	.st24{fill:url(#SVGID_1_);}
	.st25{fill:url(#SVGID_2_);}
	.st26{fill:url(#SVGID_3_);}
	.st27{fill:url(#SVGID_4_);}
	.st28{fill:url(#SVGID_5_);}
	.st29{fill:#242424;stroke:#CB5E22;stroke-miterlimit:10;}
	.st30{fill:#2A2A2A;stroke:#000000;stroke-miterlimit:10;}
	.st31{fill:#5F5F5F;}
	.st32{fill:#2A2A2A;stroke:#FFFFFF;stroke-miterlimit:10;}
	.st33{fill:#C82321;}
	.st34{fill:#FF8075;stroke:#000000;stroke-miterlimit:10;}
	.st35{fill:#FF5A4A;}
	.st36{fill:#FF056D;stroke:#FF8075;stroke-miterlimit:10;}
	.st37{fill:#0075FA;stroke:#000000;stroke-miterlimit:10;}
	.st38{fill:#FF056D;}
	.st39{fill:#0066AE;}
	.st40{fill:#FF056D;stroke:#0075FA;stroke-miterlimit:10;}
	.st41{fill:#EDF3F8;stroke:#000000;stroke-miterlimit:10;}
	.st42{fill:#1D1D1B;stroke:#EDF3F8;stroke-miterlimit:10;}
	.st43{fill:#CFB114;}
	.st44{fill:#22A2A9;}
	.st45{fill:#C2BEC8;}
	.st46{fill:#10792E;stroke:#FFFFFF;stroke-miterlimit:10;}
	.st47{fill:#F6FF14;stroke:#000000;stroke-miterlimit:10;}
	.st48{fill:none;stroke:#87C000;stroke-width:8;stroke-linecap:round;stroke-miterlimit:10;}
	.st49{fill:#DEE200;}
	.st50{fill:#008290;}
	.st51{fill:#FFB7B1;}
	.st52{fill:#9400A6;stroke:#000000;stroke-miterlimit:10;}
	.st53{fill:#DF6B54;stroke:#000000;stroke-miterlimit:10;}
	.st54{fill:#C13323;}
	.st55{fill:#5E0089;}
	.st56{fill:#FDB05F;stroke:#000000;stroke-miterlimit:10;}
	.st57{fill:none;stroke:#000000;stroke-miterlimit:10;}
	.st58{fill:#435338;}
	.st59{fill:#580088;}
	.st60{fill:#EBA79C;}
	.st61{fill:#FE5561;stroke:#EBA79C;stroke-miterlimit:10;}
	.st62{fill:#F78100;}
	.st63{fill:#FDB05F;}
	.st64{fill:#8E48D8;stroke:#000000;stroke-miterlimit:10;}
	.st65{fill:#5D22A5;}
	.st66{fill:#87D971;stroke:#000000;stroke-miterlimit:10;}
	.st67{fill:#B8EDA4;}
	.st68{fill:#4EC23A;}
	.st69{fill:#2F2428;}
	.st70{fill:#CD0A36;}
	.st71{fill:#4C4C4C;}
	.st72{fill:#146EE4;stroke:#000000;stroke-miterlimit:10;}
	.st73{fill:#79B2FF;}
	.st74{fill:none;stroke:#79B2FF;stroke-width:11;stroke-miterlimit:10;}
	.st75{fill:#0055B8;}
	.st76{fill:#307DDB;}
	.st77{fill:#4F435F;}
	.st78{fill:#212025;}
	.st79{fill:none;stroke:#67D700;stroke-width:8;stroke-miterlimit:10;}
	.st80{fill:#B1BBBE;stroke:#000000;stroke-miterlimit:10;}
	.st81{fill:#8A8B97;}
	.st82{fill:#505C66;stroke:#747785;stroke-miterlimit:10;}
	.st83{fill:#06D0CC;stroke:#000000;stroke-miterlimit:10;}
	.st84{fill:#0299AF;stroke:#000000;stroke-miterlimit:10;}
	.st85{fill:#019DBA;}
	.st86{fill:#CAC5C0;}
	.st87{fill:#0453BC;}
	.st88{fill:#535353;}
	.st89{fill:#EA772F;stroke:#000000;stroke-miterlimit:10;}
	.st90{fill:#1F2427;}
	.st91{fill:#E05900;}
	.st92{fill:#A8A8B4;}
	.st93{fill:#005898;}
	.st94{fill:#79B2FF;stroke:#000000;stroke-miterlimit:10;}
	.st95{fill:#1D3F89;}
	.st96{fill:#E87140;stroke:#000000;stroke-miterlimit:10;}
	.st97{fill:#002F55;}
	.st98{fill:#59504E;stroke:#000000;stroke-miterlimit:10;}
	.st99{fill:#505C66;}
	.st100{fill:#4D99E4;}
	.st101{fill:#F7A161;}
	.st102{fill:#C13323;stroke:#F7A161;stroke-miterlimit:10;}
	.st103{fill:#D24D91;stroke:#000000;stroke-miterlimit:10;}
	.st104{fill:#923EB9;}
	.st105{fill:#D24D91;}
	.st106{fill:#1C232F;stroke:#D24D91;stroke-miterlimit:10;}
	.st107{fill:#0E7B95;stroke:#000000;stroke-miterlimit:10;}
	.st108{fill:#005E8F;}
	.st109{fill:#E2187D;stroke:#000000;stroke-miterlimit:10;}
	.st110{fill:#00A0EB;stroke:#000000;stroke-miterlimit:10;}
	.st111{fill:#C51971;}
	.st112{fill:#E2187D;}
	.st113{fill:#67D700;stroke:#000000;stroke-miterlimit:10;}
	.st114{fill:#48A333;}
	.st115{fill:#67D700;}
	.st116{fill:#8E48D8;}
	.st117{stroke:#A0A0A0;stroke-miterlimit:10;}
	.st118{fill:#87D971;}
	.st119{fill:#4EC23A;stroke:#000000;stroke-miterlimit:10;}
	.st120{fill:#C72365;}
	.st121{fill:#9712C5;}
	.st122{fill:#307DDB;stroke:#000000;stroke-miterlimit:10;}
	.st123{fill:#D53D1F;}
	.st124{fill:#A9007C;}
	.st125{fill:#CDCB20;}
	.st126{fill:#48A333;stroke:#B1C49B;stroke-miterlimit:10;}
	.st127{fill:none;stroke:#48A333;stroke-width:4;stroke-miterlimit:10;}
	.st128{fill:#5A1F8E;}
	.st129{fill:none;stroke:#5A1F8E;stroke-width:3;stroke-miterlimit:10;}
	.st130{fill:#5A1F8E;stroke:#CC5C9B;stroke-miterlimit:10;}
	.st131{fill:#E81C2F;}
	.st132{fill:#FFEE34;}
	.st133{fill:none;stroke:#024598;stroke-width:8;stroke-linecap:round;stroke-miterlimit:10;}
	.st134{fill:none;stroke:#1D1D1B;stroke-width:4;stroke-miterlimit:10;}
	.st135{fill:none;stroke:#FF056D;stroke-width:6;stroke-linecap:round;stroke-miterlimit:10;}
	.st136{fill:#7A8504;}
	.st137{fill:#121617;stroke:#7A8504;stroke-miterlimit:10;}
	.st138{fill:none;stroke:#00268A;stroke-width:6;stroke-linecap:round;stroke-miterlimit:10;}
	.st139{fill:#145863;}
	.st140{fill:#145863;stroke:#22A2A9;stroke-miterlimit:10;}
	.st141{fill:#54B948;}
	.st142{fill:#6F00A6;stroke:#000000;stroke-miterlimit:10;}
	.st143{fill:none;stroke:#FFFFFF;stroke-width:6;stroke-miterlimit:10;}
	.st144{fill:#14DEAC;}
	.st145{fill:#1466AC;}
	.st146{fill:#757575;}
	.st147{fill:none;stroke:#CD0A36;stroke-width:8;stroke-miterlimit:10;}
	.st148{fill:none;stroke:#67D700;stroke-width:40;stroke-miterlimit:10;}
	.st149{fill:#CD0A36;stroke:#000000;stroke-miterlimit:10;}
	.st150{fill:#ED1C24;}
	.st151{fill:none;stroke:#505C66;stroke-width:3;stroke-miterlimit:10;}
	.st152{fill:none;stroke:#06D0CC;stroke-width:3;stroke-miterlimit:10;}
	.st153{fill:#007AC2;}
	.st154{fill:#EF3D1F;}
	.st155{stroke:#EA772F;stroke-miterlimit:10;}
	.st156{fill:#0068B4;stroke:#000000;stroke-miterlimit:10;}
	.st157{fill:#9712C5;stroke:#000000;stroke-miterlimit:10;}
	.st158{fill:#3D8D28;stroke:#000000;stroke-miterlimit:10;}
	.st159{fill:#68ED3A;}
	.st160{fill:#3D8D28;stroke:#FFFFFF;stroke-miterlimit:10;}
	.st161{fill:#68ED3A;stroke:#000000;stroke-miterlimit:10;}
	.st162{fill:#68ED3A;stroke:#FFFFFF;stroke-miterlimit:10;}
	.st163{fill:#00317D;}
	.st164{fill:#00737D;}
	.st165{fill:#146EE4;}
	.st166{fill:#4D99E4;stroke:#000000;stroke-miterlimit:10;}
	.st167{fill:none;stroke:#FFFFFF;stroke-width:11;stroke-miterlimit:10;}
	.st168{fill:#224754;}
	.st169{fill:#0E7B95;}
	.st170{fill:#FF8400;stroke:#000000;stroke-miterlimit:10;}
	.st171{fill:#00A0EB;}
	.st172{fill:#B9187D;}
	.st173{fill:#015297;}
	.st174{fill:#B0B0B0;}
	.st175{fill:#E1062F;}
	.st176{fill:#005BAB;}
</style>
<path class="st9" d="M594.5,576.2c0-93.6-20.8-396.5-56.5-478.7c-11.6-26.7-84.7-58.1-155.5-80.1c-24.8-7.7-54.1-9.9-81.7-9.4
	c-27.8-0.6-61.4,1.3-86.4,9.1C143.6,39.2,74.6,70.8,63,97.5C27.2,179.7,6.5,482.7,6.5,576.2c8.8,6.4,17.7,7.6,67.5,9.8
	c10-134,52-285,52-285S122,549,122,571c0.2,18.6,88,23.8,174,24v0c1,0,2.5,0,3.5,0c1,0,2.5,0,3.5,0v0c86-0.2,174.7-5.4,174.9-24
	c0-22-3-270-3-270s42.1,151,52.1,285C576.6,583.8,585.7,582.7,594.5,576.2z"/>
<path class="st10" d="M70.4,88.6c0,0,77.1,9.2,55.7,220c-0.4,79.7-1.8,141.7-2.4,184.6c-0.7,46.5-0.8,70.5-0.8,71.6
	c0,3.2-0.6,7.5,0.8,9.2c0.7,1.1,1.7,2.3,3.4,3.5c4.7,3.4,15.3,6.5,27.3,8.8c-14.2-11.6-10.9-42.8-9.8-72.1c1.1-29.4-24-95.4-3-199.4
	c6.8-33.6-5.5-74.9-6-84C131.6,163.1,119.2,97.3,70.4,88.6z"/>
<path class="st10" d="M532.2,89c0,0-79.2,0.7-57.7,211.5c2.1,168.9,3.2,265.3,3.2,264.5c0-2.3,0,2.4,0,6.2c0,1.3-0.7,2.6-0.9,2.9
	c-0.7,1.1-2,2.2-3.6,3.4c-4.7,3.4-13.3,5.9-25.1,8.2c14.2-11.6,11.1-41.8,10-71.2c-1.1-29.4,24-95.4,3-199.4
	c-6.8-33.6,1.5-83.4,2-92.4C467,155.1,485.7,92,532.2,89z"/>
<path class="st128" d="M530.5,90.4c-5.6,0.4-47.4,6.9-57.8,85.8c-4.3,48.7-9.5,74.6,4.7,131.5c-2.6-62.1,40.1-178.1,72-172.5
	c-3.9-15.5-11.5-37.7-11.5-37.7S536.1,90,530.5,90.4z"/>
<path class="st128" d="M70.9,89.2c5.4,1.5,47.3,10.1,57.7,89c4.3,48.7,10.2,76.6-5.8,131.3c2.6-62.1-39.8-178.3-71.7-172.7
	c3.5-17.2,11.8-37.3,11.8-37.3S67.1,88.1,70.9,89.2z"/>
<path class="st128" d="M229,43.9c0,0-75.9,11.1-114.8,50C173.5,75.4,262.3,68,262.3,68L229,43.9z"/>
<path class="st128" d="M377.5,42.9c0,0,79.2,12.1,118.1,51C436.4,75.4,347.5,68,347.5,68L377.5,42.9z"/>
<g>
	<line class="st129" x1="130.5" y1="575" x2="130.5" y2="50"/>
	<line class="st129" x1="156.5" y1="583" x2="156.5" y2="39"/>
	<line class="st129" x1="181.5" y1="588" x2="181.5" y2="30"/>
	<line class="st129" x1="207.5" y1="590" x2="207.5" y2="23"/>
	<line class="st129" x1="232.5" y1="592" x2="232.5" y2="61"/>
	<line class="st129" x1="258.5" y1="593" x2="258.5" y2="77"/>
	<line class="st129" x1="283.5" y1="593" x2="283.5" y2="82"/>
	<line class="st129" x1="309.5" y1="593" x2="309.5" y2="83"/>
	<line class="st129" x1="334.5" y1="593" x2="334.5" y2="78"/>
	<line class="st129" x1="360.5" y1="592" x2="360.5" y2="63"/>
	<line class="st129" x1="385.5" y1="591" x2="385.5" y2="25"/>
	<line class="st129" x1="411.5" y1="589" x2="411.5" y2="30"/>
	<line class="st129" x1="436.5" y1="585" x2="436.5" y2="41"/>
	<line class="st129" x1="462.5" y1="579" x2="462.5" y2="51"/>
</g>
<g>
	<g>
		<path class="st10" d="M231.5,28.7C244.3,46,266,62.5,302.1,62.5c36.2,0,56.3-16.8,67.4-34.5C339.2,31.1,263.9,30.8,231.5,28.7z"/>
		<path class="st130" d="M372.1,1c-17.6,5.3-142.2,2.9-148.6,0.6c-0.1,0.3-0.3,0.7-0.5,1.1c2.2,7.1,6.3,17.5,13.7,27.5
			c29.5,1.9,97.9,2.2,125.6-0.6c6.2-9.9,9.4-20.2,10.9-27.3C372.8,1.8,372.4,1.4,372.1,1z"/>
	</g>
	<path class="st130" d="M373.2,2.3c-4.1,18.7-19,58.7-72.2,58.7c-53.9,0-72.4-40.1-78-58.3c-2.9,5.3-13.9,16.7-13.9,16.7
		s14.4,61,89.9,61c76.5,0,86.6-58.7,87.7-63.1C384.6,16.4,377.4,6.9,373.2,2.3z"/>
</g>
<g>
	<g>
		<g>
			<path class="st2" d="M397.6,250.3c-12.3,0-21-3.6-25.9-10.8c-3.7-5.3-3.8-10.8-3.8-10.8v-37.9h59.5v37.9c0,0-0.1,5.5-3.8,10.8
				C418.9,246.6,410.1,250.3,397.6,250.3z"/>
			<path class="st131" d="M429.2,189.1h-63v39.7c0,0,0.1,23.3,31.4,23.3c31.6,0,31.6-23.3,31.6-23.3V189.1L429.2,189.1z"/>
		</g>
	</g>
	<path class="st132" d="M407,243.1c-0.4-0.1-0.7-0.1-1-0.2c-1.2-0.1-2.3,0.3-3.2,1.1c-0.3,0.2-0.5,0.5-0.7,0.8
		c-0.1,0.2-0.3,0.2-0.5,0.4c0,0.1-0.1,0-0.1,0c-0.9-0.3-1.8-0.7-2.6-1.3c0,0-0.1-0.1-0.2-0.1c-0.1,0-0.2,0.1-0.3,0.2
		c0,0.1,0.1,0.1,0.2,0.1c0.8,0.5,1.6,0.9,2.4,1.2c0.1,0,0.2,0.2,0.3,0.3c0.1,0.1,0.1,0.2,0.1,0.4c-0.1,0.7,0.1,1.3,0.5,1.8
		c0.8,1,1.7,1.6,2.9,2c0.2,0.1,0.4,0.1,0.5,0.1c0.1,0,0.1,0,0.1-0.1c-0.2-1.3-0.8-2.5-1.9-3.4c-0.5-0.3-1-0.5-1.5-0.7
		c-0.1,0-0.2-0.1-0.4-0.1c-0.1,0-0.2-0.1-0.2-0.2c0.2,0,0.3,0.1,0.4,0.1c1.1,0.4,2.3,0.5,3.5,0.5c0.3,0,0.5,0.2,0.7,0.3
		c0,0,0,0.1,0,0.1c0,0.6,0.3,1.1,0.8,1.5c0.8,0.6,1.6,0.9,2.6,1.1c0.5,0.1,0.9,0.1,1.4,0c0.2-0.1,0.2-0.1,0.1-0.3
		c-0.3-0.6-0.7-1.1-1.2-1.6c-0.8-0.7-1.7-1.1-2.7-1.1c-0.2,0-0.5,0-0.8,0.1c-0.1,0-0.2,0-0.3-0.1c0.2,0,0.3,0,0.5,0
		c1.2-0.1,2.4-0.3,3.6-0.7c0.2-0.1,0.5,0.1,0.7,0.1c0,0,0,0,0.1,0c0.3,0.8,0.9,1.1,1.7,1.3c0.6,0.1,1.1,0.1,1.7,0
		c0.7-0.1,1.4-0.2,2-0.6c0.2-0.2,0.2-0.2,0-0.3c-1-0.9-2.1-1.2-3.3-1.2c-0.7,0-1.3,0.2-1.9,0.5c-0.2,0.1-0.2,0.1-0.4,0
		c0-0.1,0.1-0.1,0.1-0.1c0.9-0.3,1.8-0.7,2.7-1.2c0.5-0.2,0.9-0.5,1.4-0.8c0.2-0.1,0.4-0.1,0.7-0.2c0.1,0,0.1,0,0.1,0
		c0.5,0.6,1,0.7,1.7,0.7c0.8,0,1.6-0.3,2.3-0.6c0.4-0.2,0.9-0.4,1.2-0.7c0.1-0.1,0.2-0.2,0.4-0.4c0.1-0.1,0-0.1,0-0.1
		c-0.6-0.3-1.2-0.4-1.9-0.4c-0.7,0-1.3,0.1-2,0.3c-0.6,0.2-1.1,0.6-1.7,1c-0.1,0-0.1,0.1-0.2,0.1c0.1-0.2,0.3-0.2,0.4-0.3
		c0.5-0.4,1-0.9,1.5-1.4c0.4-0.4,0.8-0.8,1.1-1.2c0.1-0.2,0.4-0.2,0.6-0.3c0,0,0,0,0.1,0c0.5,0.3,1.1,0.3,1.7,0.1
		c0.8-0.2,1.5-0.7,2.1-1.2c0.4-0.3,0.8-0.7,1.1-1.1c0.2-0.2,0.3-0.4,0.4-0.6c-0.3-0.1-0.7-0.1-1-0.1c-1.2,0.1-2.3,0.5-3.2,1.3
		c-0.4,0.4-0.8,0.8-1.1,1.2c-0.1,0.1-0.1,0.2-0.3,0.2c0.2-0.2,0.4-0.4,0.5-0.7c0.7-0.8,1.3-1.8,1.8-2.7c0.1-0.1,0.2-0.1,0.4-0.2
		c0.1-0.1,0.3-0.2,0.6-0.1c0.6,0.1,1.2-0.1,1.7-0.6c0.9-0.8,1.7-1.7,2.3-2.8c0.1-0.2,0.2-0.4,0.2-0.6c0-0.1,0.1-0.1-0.1-0.1
		c-0.8,0.1-1.6,0.4-2.2,0.9c-0.5,0.3-1,0.8-1.3,1.3c-0.3,0.5-0.6,1-0.8,1.5c-0.1,0.1-0.2,0.2-0.3,0.3c0-0.1,0-0.2,0.1-0.2
		c0.6-1.1,1-2.3,1.5-3.5c0.1-0.2,0.3-0.4,0.4-0.6c0,0,0,0,0.1,0c0.7,0,1.2-0.3,1.7-0.8c0.6-0.6,1-1.4,1.3-2.1
		c0.2-0.6,0.4-1.1,0.5-1.7c0-0.1,0-0.1,0-0.2c0-0.1-0.1,0-0.1,0.1c-0.9,0.4-1.6,0.9-2.2,1.6c-0.6,0.8-1.1,1.7-1.3,2.8
		c0,0.1,0,0.3-0.2,0.4c0-0.2,0.1-0.4,0.2-0.6c0.3-1.1,0.4-2.3,0.5-3.4c0-0.3,0.2-0.4,0.4-0.7c0,0,0,0,0,0c0.5-0.1,0.9-0.4,1.2-0.8
		c0.4-0.6,0.8-1.2,0.9-1.9c0.2-0.8,0.3-1.6,0.2-2.4c0-0.1,0-0.2,0-0.2c-0.1,0-0.1,0.1-0.2,0.1c-0.5,0.4-1,0.9-1.3,1.6
		c-0.4,0.6-0.7,1.3-0.9,2c-0.1,0.5-0.1,0.9-0.1,1.4c0,0.2-0.1,0.3-0.2,0.5c0-0.2,0-0.4,0-0.6c0-1.1,0-2.2-0.2-3.3
		c0-0.2,0-0.4,0.1-0.6c0.3-0.4,0.4-0.8,0.4-1.3c0-0.7-0.3-1.3-0.6-1.9c-0.2-0.5-0.5-0.9-0.8-1.3c-0.1,0.3-0.2,0.6-0.4,0.9
		c-0.2,1-0.2,2,0.2,2.9c0.1,0.2,0.3,0.5,0.5,0.7c0.2,0.2,0.3,0.5,0.4,0.8c0.1,0.9,0.2,1.8,0.1,2.7c0,0,0,0,0,0.1
		c-0.2-0.1-0.2-0.2-0.2-0.4c0.1-0.6,0-1.1-0.3-1.6c-0.3-0.5-0.7-0.8-1.1-1.1c-0.4-0.3-0.8-0.5-1.2-0.8c0,0.4,0,0.9,0.1,1.3
		c0.2,1,0.8,1.8,1.7,2.2c0.2,0.1,0.3,0.2,0.5,0.2c0.1,0,0.2,0.1,0.3,0.2c0,0,0,0.1,0,0.1c0.2,0.1,0.2,0.4,0.2,0.6
		c-0.1,1.1-0.2,2.1-0.4,3.1c0,0.1,0,0.1,0,0.2c0,0,0,0.1,0,0.1c0,0,0,0-0.1-0.1c-0.1-0.1-0.1-0.2,0-0.4c0.4-0.7,0.2-1.4-0.2-2.1
		c-0.3-0.4-0.6-0.9-1-1.2c-0.3-0.3-0.6-0.6-0.9-0.9c-0.1,0.2-0.1,0.4-0.1,0.5c0,0.7,0,1.4,0.3,2.1c0.3,0.8,0.8,1.4,1.6,1.7
		c0.1,0,0.1,0.1,0.1,0.2c0,0.1,0.1,0.2,0.2,0.3c0,0.1,0,0.1,0,0.2c-0.2,0.8-0.4,1.6-0.7,2.3c-0.2,0.6-0.5,1.1-0.7,1.7
		c0,0.1,0,0.1-0.1,0.1c-0.1-0.2-0.1-0.3,0-0.5c0.5-0.7,0.6-1.5,0.4-2.3c-0.2-0.7-0.5-1.2-0.8-1.8c-0.1-0.3-0.3-0.6-0.5-0.9
		c-0.2,0.2-0.2,0.5-0.3,0.8c-0.2,0.8-0.3,1.5-0.2,2.3c0.1,0.7,0.3,1.3,0.8,1.8l0,0c0.3,0.2,0.4,0.4,0.5,0.8c0,0.1,0,0.2,0,0.2
		c-0.4,0.8-0.9,1.6-1.4,2.4c-0.3,0.6-0.7,1.1-1.1,1.6c-0.1-0.2,0-0.4,0.1-0.5c0.6-0.5,0.9-1.2,1-2c0.1-0.9-0.1-1.7-0.3-2.5
		c-0.1-0.4-0.1-0.7-0.2-1c-0.2,0.2-0.3,0.3-0.4,0.6c-0.5,0.7-0.8,1.5-0.9,2.4c-0.1,0.8-0.1,1.5,0.2,2.2c0,0,0,0.1,0,0.1
		c0.3,0.3,0.2,0.7,0.2,1c0,0.1-0.1,0.1-0.1,0.2c-0.5,0.6-1,1.1-1.5,1.6c-0.5,0.5-1.1,1-1.7,1.5c0,0,0,0.1-0.1,0.1
		c0-0.2,0.1-0.4,0.3-0.5c0.4-0.2,0.7-0.5,0.9-0.8c0.5-0.7,0.6-1.4,0.7-2.3c0-0.8,0.1-1.6,0.1-2.4c0,0,0,0,0-0.1
		c-0.2,0.2-0.4,0.4-0.6,0.6c-0.6,0.7-1.1,1.4-1.3,2.3c-0.2,0.8-0.4,1.7-0.1,2.5c0,0.1,0,0.1,0,0.2c0,0,0,0.1,0,0.1
		c-0.1,0.4-0.3,0.7-0.7,0.9c-1.1,0.8-2.3,1.4-3.6,1.9c0,0,0,0-0.1,0c0.1-0.3,0.1-0.3,0.4-0.3c0.4-0.1,0.7-0.3,1-0.5
		c0.7-0.5,1-1.3,1.3-2.1c0.2-0.6,0.4-1.3,0.7-2c0-0.1,0.1-0.2,0.1-0.3c-0.3,0.1-0.6,0.3-0.9,0.4c-0.5,0.3-1,0.7-1.3,1.2
		c-0.7,0.9-1.2,1.8-1.3,3c0,0.3-0.3,0.7-0.6,0.8c-1,0.4-2,0.6-3.1,0.7c-0.2,0-0.5,0-0.8,0.1c0.1-0.3,0.2-0.3,0.5-0.2
		c0.5,0.1,1-0.1,1.4-0.3c0.5-0.3,0.9-0.7,1.2-1.1c0.5-0.7,1-1.4,1.4-2.2c0.1-0.1,0.1-0.1,0.1-0.2c-0.2,0-0.4,0-0.5,0.1
		c-1,0.2-1.9,0.7-2.6,1.4c-0.6,0.6-1.1,1.2-1.3,2.1c0,0.2-0.2,0.2-0.3,0.4c-0.1,0.2-0.3,0.2-0.4,0.2c-1.3,0-2.6-0.2-3.9-0.6
		c0,0-0.2,0-0.1-0.1c0-0.1,0.2-0.2,0.2-0.1c0.9,0.5,1.6,0.3,2.4-0.1c0.6-0.3,1-0.7,1.5-1.1c0.3-0.2,0.6-0.5,0.9-0.8
		C406.9,243.2,406.9,243.2,407,243.1z"/>
	<path class="st132" d="M388.2,243.1c0.4-0.1,0.6-0.1,1-0.2c1.2-0.1,2.3,0.3,3.2,1.1c0.3,0.2,0.5,0.5,0.7,0.8
		c0.1,0.2,0.3,0.2,0.5,0.4c0,0.1,0.1,0,0.1,0c0.9-0.3,1.8-0.7,2.6-1.3c0.1,0,0.1-0.1,0.2-0.1c0.1,0,0.2,0.1,0.3,0.2
		c0,0.1-0.1,0.1-0.2,0.1c-0.8,0.5-1.6,0.9-2.4,1.2c-0.2,0-0.2,0.2-0.3,0.3c-0.1,0.1-0.1,0.2-0.1,0.4c0.1,0.7-0.1,1.3-0.5,1.8
		c-0.8,1-1.7,1.6-2.9,2c-0.2,0.1-0.4,0.1-0.5,0.1c-0.1,0-0.1,0-0.1-0.1c0.2-1.3,0.8-2.5,1.9-3.4c0.5-0.3,1-0.5,1.5-0.7
		c0.1,0,0.2-0.1,0.4-0.1c0.1,0,0.2-0.1,0.2-0.2c-0.1,0-0.3,0.1-0.4,0.1c-1.1,0.4-2.3,0.5-3.5,0.5c-0.3,0-0.5,0.2-0.6,0.3
		c-0.1,0-0.1,0.1-0.1,0.1c0,0.6-0.3,1.1-0.8,1.5c-0.8,0.6-1.6,0.9-2.5,1.1c-0.5,0.1-1,0.1-1.4,0c-0.2-0.1-0.2-0.1-0.1-0.3
		c0.3-0.6,0.7-1.1,1.2-1.6c0.8-0.7,1.7-1.1,2.7-1.1c0.2,0,0.5,0,0.8,0.1c0.1,0,0.2,0,0.3-0.1c-0.2,0-0.3,0-0.5,0
		c-1.2-0.1-2.4-0.3-3.6-0.7c-0.2-0.1-0.5,0.1-0.7,0.1c0,0,0,0-0.1,0c-0.3,0.8-0.9,1.1-1.7,1.3c-0.6,0.1-1.1,0.1-1.7,0
		c-0.7-0.1-1.4-0.2-1.9-0.6c-0.2-0.2-0.2-0.2,0-0.3c1-0.9,2.1-1.2,3.3-1.2c0.7,0,1.3,0.2,1.9,0.5c0.2,0.1,0.2,0.1,0.4,0
		c0-0.1-0.1-0.1-0.1-0.1c-0.9-0.3-1.8-0.7-2.7-1.2c-0.5-0.2-1-0.5-1.4-0.8c-0.2-0.1-0.5-0.1-0.7-0.2c0,0-0.1,0-0.1,0
		c-0.4,0.6-1,0.7-1.7,0.7c-0.8,0-1.6-0.3-2.3-0.6c-0.4-0.2-0.9-0.4-1.2-0.7c-0.1-0.1-0.2-0.2-0.4-0.4c-0.1-0.1,0-0.1,0.1-0.1
		c0.6-0.3,1.2-0.4,1.9-0.4c0.7,0,1.4,0.1,2,0.3c0.6,0.2,1.1,0.6,1.6,1c0.1,0,0.1,0.1,0.2,0.1c-0.1-0.2-0.3-0.2-0.4-0.3
		c-0.5-0.4-1-0.9-1.5-1.4c-0.4-0.4-0.8-0.8-1.1-1.2c-0.1-0.2-0.4-0.2-0.6-0.3c0,0,0,0-0.1,0c-0.6,0.3-1.1,0.3-1.7,0.1
		c-0.8-0.2-1.5-0.7-2.1-1.2c-0.4-0.3-0.8-0.7-1.1-1.1c-0.1-0.2-0.3-0.4-0.4-0.6c0.4-0.1,0.7-0.1,1-0.1c1.2,0.1,2.3,0.5,3.2,1.3
		c0.4,0.4,0.8,0.8,1.1,1.2c0.1,0.1,0.1,0.2,0.3,0.2c-0.2-0.2-0.4-0.4-0.5-0.7c-0.7-0.8-1.3-1.8-1.8-2.7c-0.1-0.1-0.2-0.1-0.4-0.2
		c-0.1-0.1-0.3-0.2-0.6-0.1c-0.6,0.1-1.2-0.1-1.7-0.6c-0.9-0.8-1.7-1.7-2.3-2.8c-0.1-0.2-0.2-0.4-0.2-0.6c0-0.1,0-0.1,0.1-0.1
		c0.8,0.1,1.6,0.4,2.2,0.9c0.5,0.3,0.9,0.8,1.3,1.3c0.3,0.5,0.6,1,0.9,1.5c0,0.1,0.2,0.2,0.3,0.3c0-0.1,0-0.2-0.1-0.2
		c-0.6-1.1-1.1-2.3-1.5-3.5c-0.1-0.2-0.3-0.4-0.4-0.6c0,0-0.1,0-0.1,0c-0.7,0-1.2-0.3-1.7-0.8c-0.5-0.6-0.9-1.4-1.3-2.1
		c-0.2-0.6-0.5-1.1-0.5-1.7c0-0.1,0-0.1,0-0.2c0-0.1,0.1,0,0.1,0.1c0.9,0.4,1.5,0.9,2.1,1.6c0.6,0.8,1.1,1.7,1.3,2.8
		c0,0.1,0,0.3,0.2,0.4c0-0.2-0.1-0.4-0.1-0.6c-0.3-1.1-0.4-2.3-0.5-3.4c0-0.3-0.2-0.4-0.4-0.7c0,0,0,0,0,0c-0.5-0.1-0.9-0.4-1.2-0.8
		c-0.5-0.6-0.8-1.2-0.9-1.9c-0.2-0.8-0.3-1.6-0.2-2.4c0-0.1,0-0.2,0.1-0.2c0.1,0,0.1,0.1,0.2,0.1c0.5,0.4,1,0.9,1.3,1.6
		c0.4,0.6,0.7,1.3,0.8,2c0.1,0.5,0.1,0.9,0.1,1.4c0,0.2,0.1,0.3,0.2,0.5c0-0.2,0-0.4,0-0.6c0-1.1,0-2.2,0.2-3.3c0-0.2,0-0.4-0.1-0.6
		c-0.3-0.4-0.4-0.8-0.4-1.3c0-0.7,0.3-1.3,0.6-1.9c0.2-0.5,0.5-0.9,0.8-1.3c0.1,0.3,0.2,0.6,0.4,0.9c0.2,1,0.2,2-0.2,2.9
		c-0.1,0.2-0.3,0.5-0.5,0.7c-0.2,0.2-0.3,0.5-0.4,0.8c-0.1,0.9-0.2,1.8-0.1,2.7c0,0,0,0,0,0.1c0.2-0.1,0.2-0.2,0.2-0.4
		c-0.1-0.6,0-1.1,0.3-1.6c0.3-0.5,0.7-0.8,1.2-1.1c0.4-0.3,0.8-0.5,1.2-0.8c0,0.4,0,0.9-0.1,1.3c-0.2,1-0.8,1.8-1.7,2.2
		c-0.2,0.1-0.4,0.2-0.5,0.2c-0.1,0-0.2,0.1-0.3,0.2c0,0,0,0.1-0.1,0.1c-0.2,0.1-0.2,0.4-0.2,0.6c0,1.1,0.2,2.1,0.4,3.1
		c0,0.1,0,0.1,0,0.2c0,0,0,0.1,0.1,0.1c0,0,0,0,0.1-0.1c0.1-0.1,0.1-0.2,0.1-0.4c-0.4-0.7-0.2-1.4,0.2-2.1c0.3-0.4,0.6-0.9,1-1.2
		c0.3-0.3,0.6-0.6,0.9-0.9c0.1,0.2,0.1,0.4,0.1,0.5c0,0.7,0,1.4-0.3,2.1c-0.3,0.8-0.8,1.4-1.5,1.7c-0.1,0-0.1,0.1-0.1,0.2
		c-0.1,0.1-0.1,0.2-0.2,0.3c0,0.1,0,0.1,0,0.2c0.2,0.8,0.4,1.6,0.7,2.3c0.2,0.6,0.4,1.1,0.7,1.7c0,0.1,0,0.1,0.1,0.1
		c0.1-0.2,0.1-0.3,0-0.5c-0.6-0.7-0.6-1.5-0.4-2.3c0.2-0.7,0.5-1.2,0.8-1.8c0.1-0.3,0.3-0.6,0.5-0.9c0.1,0.2,0.2,0.5,0.3,0.8
		c0.2,0.8,0.3,1.5,0.2,2.3c-0.1,0.7-0.3,1.3-0.8,1.8l0,0c-0.3,0.2-0.4,0.4-0.5,0.8c0,0.1,0,0.2,0,0.2c0.4,0.8,0.9,1.6,1.4,2.4
		c0.4,0.6,0.7,1.1,1.2,1.6c0.1-0.2,0-0.4-0.1-0.5c-0.6-0.5-0.9-1.2-1-2c-0.1-0.9,0.1-1.7,0.3-2.5c0.1-0.4,0.1-0.7,0.2-1
		c0.2,0.2,0.3,0.3,0.4,0.6c0.5,0.7,0.8,1.5,0.9,2.4c0.1,0.8,0.1,1.5-0.2,2.2c0,0,0,0.1,0,0.1c-0.3,0.3-0.2,0.7-0.2,1
		c0,0.1,0.1,0.1,0.1,0.2c0.5,0.6,1,1.1,1.5,1.6c0.5,0.5,1.1,1,1.7,1.5c0,0,0.1,0.1,0.1,0.1c0-0.2-0.1-0.4-0.3-0.5
		c-0.4-0.2-0.7-0.5-0.9-0.8c-0.5-0.7-0.6-1.4-0.7-2.3c0-0.8-0.1-1.6-0.1-2.4c0,0,0,0,0-0.1c0.2,0.2,0.4,0.4,0.6,0.6
		c0.6,0.7,1.1,1.4,1.3,2.3c0.2,0.8,0.4,1.7,0.1,2.5c0,0.1,0,0.1,0,0.2c0,0,0,0.1,0,0.1c0.1,0.4,0.3,0.7,0.6,0.9
		c1.2,0.8,2.4,1.4,3.7,1.9c0,0,0,0,0.1,0c-0.1-0.3-0.1-0.3-0.4-0.3c-0.4-0.1-0.7-0.3-1-0.5c-0.7-0.5-1-1.3-1.3-2.1
		c-0.2-0.6-0.5-1.3-0.7-2c0-0.1-0.1-0.2-0.1-0.3c0.3,0.1,0.6,0.3,0.9,0.4c0.5,0.3,1,0.7,1.3,1.2c0.7,0.9,1.2,1.8,1.3,3
		c0,0.3,0.3,0.7,0.6,0.8c1,0.4,2,0.6,3.1,0.7c0.2,0,0.5,0,0.8,0.1c-0.1-0.3-0.2-0.3-0.5-0.2c-0.5,0.1-1-0.1-1.4-0.3
		c-0.5-0.3-0.9-0.7-1.2-1.1c-0.5-0.7-1-1.4-1.4-2.2c-0.1-0.1-0.1-0.1-0.1-0.2c0.2,0,0.4,0,0.5,0.1c1,0.2,1.9,0.7,2.6,1.4
		c0.6,0.6,1.1,1.2,1.3,2.1c0.1,0.2,0.2,0.2,0.3,0.4c0.1,0.2,0.3,0.2,0.4,0.2c1.3,0,2.6-0.2,3.9-0.6c0.1,0,0.2,0,0.1-0.1
		c0-0.1-0.1-0.2-0.2-0.1c-0.8,0.5-1.6,0.3-2.4-0.1c-0.6-0.3-1-0.7-1.5-1.1c-0.3-0.2-0.6-0.5-0.9-0.8
		C388.3,243.2,388.3,243.2,388.2,243.1z"/>
	<g>
		<path class="st2" d="M385,194.7h-1.9v1.2h2.1v1.3h-3.6V191h3.5v1.3h-2v1.1h1.9V194.7z"/>
		<path class="st2" d="M386.1,197.2V191h1.7l0.9,2c0.3,0.5,0.6,1.4,0.8,2h0c-0.1-0.7-0.1-1.7-0.1-2.7V191h1.4v6.1h-1.5l-1-2.1
			c-0.3-0.6-0.6-1.4-0.9-2.1h0c0,0.8,0,1.7,0,2.8v1.4H386.1z"/>
		<path class="st2" d="M395.4,194.7h-1.9v1.2h2.1v1.3H392V191h3.5v1.3h-2v1.1h1.9V194.7z"/>
		<path class="st2" d="M396.5,191.1c0.4-0.1,1.1-0.1,1.8-0.1c0.9,0,1.5,0.1,1.9,0.5c0.4,0.3,0.6,0.8,0.6,1.3c0,0.7-0.5,1.3-1,1.5v0
			c0.4,0.2,0.6,0.6,0.7,1.1c0.1,0.6,0.3,1.5,0.5,1.8h-1.6c-0.1-0.2-0.2-0.7-0.4-1.4c-0.1-0.8-0.4-0.9-0.8-0.9H398v2.3h-1.5
			C396.5,197.2,396.5,191.1,396.5,191.1z M398,193.7h0.4c0.5,0,0.9-0.3,0.9-0.8c0-0.5-0.2-0.8-0.8-0.8c-0.2,0-0.4,0-0.5,0L398,193.7
			L398,193.7z"/>
		<path class="st2" d="M406.2,196.9c-0.4,0.1-1.1,0.3-1.8,0.3c-1,0-1.8-0.3-2.3-0.8c-0.5-0.6-0.9-1.4-0.8-2.3c0-2.2,1.5-3.2,3.2-3.2
			c0.7,0,1.2,0.1,1.5,0.3l-0.3,1.3c-0.3-0.1-0.6-0.2-1.2-0.2c-1,0-1.7,0.5-1.7,1.9c0,1.2,0.6,1.8,1.5,1.8c0.2,0,0.3,0,0.4,0v-1.1
			h-0.7v-1.2h2.1V196.9z"/>
		<path class="st2" d="M408.7,191v6.1h-1.5V191H408.7z"/>
		<path class="st2" d="M413.2,194.7h-1.9v1.2h2.1v1.3h-3.7V191h3.5v1.3h-2v1.1h1.9V194.7z"/>
	</g>
	<g>
		<path class="st2" d="M396.7,209.6c-0.2,0.3-0.5,0.4-0.9,0.4c-0.4,0-0.8-0.1-1-0.4c-0.2-0.3-0.3-0.7-0.3-1.3v-2.6
			c0-0.9,0.2-1.4,0.7-1.7c0.2-0.1,0.4-0.1,0.6-0.1c0.8,0,1.2,0.5,1.2,1.6v0.8h-0.9v-0.8c0-0.3,0-0.5-0.1-0.6c0-0.1-0.1-0.2-0.3-0.2
			s-0.2,0.1-0.3,0.2c0,0.1-0.1,0.3-0.1,0.6v2.8c0,0.3,0,0.5,0.1,0.7c0.1,0.1,0.2,0.2,0.3,0.2s0.2-0.1,0.3-0.2c0-0.1,0.1-0.4,0.1-0.7
			v-0.9h0.9v0.9C397,208.9,396.9,209.4,396.7,209.6z"/>
		<path class="st2" d="M399.9,209.6c-0.2,0.3-0.5,0.4-1,0.4c-0.4,0-0.8-0.1-1-0.4c-0.2-0.3-0.3-0.7-0.3-1.3v-2.7
			c0-1.1,0.4-1.6,1.3-1.6c0.4,0,0.8,0.1,1,0.4c0.2,0.3,0.3,0.7,0.3,1.2v2.7C400.2,208.9,400.1,209.3,399.9,209.6z M398.6,209.1
			c0,0.1,0.1,0.2,0.3,0.2c0.2,0,0.3-0.1,0.3-0.2c0-0.1,0.1-0.4,0.1-0.7v-2.8c0-0.3,0-0.5-0.1-0.6s-0.1-0.2-0.3-0.2
			c-0.2,0-0.2,0.1-0.3,0.2c0,0.1-0.1,0.3-0.1,0.6v2.8C398.5,208.7,398.5,208.9,398.6,209.1z"/>
		<path class="st2" d="M401.3,210v-5.2h-0.7V204h2.2v0.8h-0.6v5.2L401.3,210L401.3,210z"/>
		<path class="st2" d="M403.6,210v-5.2h-0.7V204h2.2v0.8h-0.6v5.2L403.6,210L403.6,210z"/>
		<path class="st2" d="M408.1,205.5c0,0.6-0.2,1-0.5,1.2c0.4,0.2,0.6,0.6,0.6,1.4v0.1c0,0.6-0.1,1-0.3,1.3c-0.2,0.3-0.5,0.4-1,0.4
			h-1.3V204h1.2c0.4,0,0.8,0.1,0.9,0.3s0.3,0.6,0.3,1.1L408.1,205.5L408.1,205.5z M406.5,206.4h0.3c0.1,0,0.2-0.1,0.3-0.1
			c0.1-0.1,0.1-0.3,0.1-0.6v-0.4c0-0.2,0-0.4-0.1-0.5c0-0.1-0.1-0.1-0.3-0.1h-0.3V206.4L406.5,206.4z M406.5,209.2h0.3
			c0.2,0,0.3,0,0.4-0.2s0.1-0.4,0.1-0.7v-0.5c0-0.3,0-0.5-0.1-0.6c0-0.1-0.2-0.2-0.3-0.2h-0.4L406.5,209.2L406.5,209.2z"/>
		<path class="st2" d="M411.1,209.7c-0.2,0.2-0.5,0.4-1,0.4c-0.4,0-0.8-0.1-1-0.4c-0.2-0.2-0.3-0.7-0.3-1.2V204h0.9v4.4
			c0,0.3,0,0.5,0.1,0.6c0,0.1,0.1,0.1,0.1,0.2c0.1,0.1,0.1,0.1,0.2,0.1s0.2,0,0.3-0.1c0-0.1,0.1-0.2,0.1-0.3c0-0.1,0-0.2,0-0.4V204
			h0.9v4.4C411.5,209,411.4,209.4,411.1,209.7z"/>
		<path class="st2" d="M412.2,208.3v-0.5h0.9v0.6c0,0.3,0,0.6,0.1,0.7c0,0.1,0.1,0.2,0.3,0.2s0.2-0.1,0.3-0.2c0-0.1,0.1-0.3,0.1-0.6
			s0-0.5-0.1-0.6c-0.1-0.2-0.2-0.4-0.4-0.6l-0.4-0.5c-0.2-0.2-0.3-0.4-0.5-0.7c-0.1-0.2-0.2-0.5-0.2-0.8c0-0.5,0.1-0.9,0.3-1.1
			c0.2-0.2,0.5-0.3,1-0.3s0.8,0.1,0.9,0.4c0.2,0.3,0.2,0.7,0.2,1.2v0.4h-0.8v-0.4c0-0.3,0-0.5-0.1-0.6c0-0.1-0.1-0.2-0.3-0.2
			s-0.2,0.1-0.3,0.1c-0.1,0.1-0.1,0.2-0.1,0.4s0,0.4,0.1,0.4c0,0.1,0.2,0.2,0.3,0.4l0.5,0.5c0.2,0.3,0.4,0.5,0.5,0.8
			c0.1,0.3,0.2,0.6,0.2,0.9c0,0.5-0.1,1-0.3,1.2c-0.2,0.3-0.5,0.4-1,0.4s-0.8-0.1-1-0.4C412.2,209.3,412.2,208.9,412.2,208.3z"/>
	</g>
	<path class="st2" d="M376.5,199.1v7.4l0,0l0,0v20.2c0,0.2,0.1,3.9,2.6,7.6c1.5,2.2,3.5,3.8,6.1,5.1c3.3,1.6,7.5,2.4,12.5,2.4
		c5,0,9.2-0.8,12.6-2.4c2.6-1.2,4.6-2.9,6.1-5.1c2.5-3.7,2.6-7.4,2.6-7.6v-27.7H376.5z M381.3,202.1l31.5,32.3
		c-0.8,0.8-1.7,1.5-2.7,2.1L379,204.4v-2.3H381.3z M397.7,239.3c-4.4,0-8-0.7-11-2.2c-2.2-1.1-4-2.6-5.3-4.5
		c-2.2-3.2-2.3-6.5-2.3-6.7v-16.8l27.9,28.7C404.3,238.8,401.2,239.3,397.7,239.3z M416.5,226c0,0.1-0.1,2.8-1.7,5.7l-28.9-29.6
		h30.6V226z"/>
</g>
</svg>
