<?xml version="1.0" encoding="utf-8"?>
<!-- Generator: Adobe Illustrator 17.0.0, SVG Export Plug-In . SVG Version: 6.00 Build 0)  -->
<!DOCTYPE svg PUBLIC "-//W3C//DTD SVG 1.1//EN" "http://www.w3.org/Graphics/SVG/1.1/DTD/svg11.dtd" [
	<!ENTITY ns_flows "http://ns.adobe.com/Flows/1.0/">
	<!ENTITY ns_extend "http://ns.adobe.com/Extensibility/1.0/">
	<!ENTITY ns_ai "http://ns.adobe.com/AdobeIllustrator/10.0/">
	<!ENTITY ns_graphs "http://ns.adobe.com/Graphs/1.0/">
]>
<svg version="1.1" id="Layer_1" xmlns:x="&ns_extend;" xmlns:i="&ns_ai;" xmlns:graph="&ns_graphs;"
	 xmlns="http://www.w3.org/2000/svg" xmlns:xlink="http://www.w3.org/1999/xlink" xmlns:a="http://ns.adobe.com/AdobeSVGViewerExtensions/3.0/"
	 x="0px" y="0px" width="600px" height="600px" viewBox="0 0 600 600" style="enable-background:new 0 0 600 600;"
	 xml:space="preserve">
<style type="text/css">
	.st0{fill:#FE0000;stroke:#000000;stroke-miterlimit:10;}
	.st1{fill:#FFFFFF;stroke:#000000;stroke-miterlimit:10;}
	.st2{fill:#FFFFFF;}
	.st3{fill:#7C0014;}
	.st4{fill:#F959FF;stroke:#000000;stroke-miterlimit:10;}
	.st5{fill:#EA24AE;}
	.st6{fill:#0563E1;}
	.st7{fill:#0B0A11;}
	.st8{fill:#004D9B;}
	.st9{fill:#C20000;}
	.st10{fill:#0563E1;stroke:#000000;stroke-miterlimit:10;}
	.st11{fill:url(#SVGID_1_);stroke:#000000;stroke-miterlimit:10;}
	.st12{fill:url(#SVGID_2_);}
	.st13{fill:#8ADAC9;stroke:#000000;stroke-miterlimit:10;}
	.st14{fill:#23495B;stroke:#000000;stroke-miterlimit:10;}
	.st15{fill:#CAC5C0;}
	.st16{fill:#23495B;}
	.st17{fill:#1976C9;stroke:#000000;stroke-miterlimit:10;}
	.st18{fill:#02619F;}
	.st19{fill:#1976C9;}
	.st20{fill:#02619F;stroke:#1976C9;stroke-miterlimit:10;}
	.st21{fill:#77A4CB;stroke:#000000;stroke-miterlimit:10;}
	.st22{stroke:#EDF3F8;stroke-miterlimit:10;}
	.st23{fill:#77A4CB;}
	.st24{fill:#C7CCC4;}
	.st25{fill:#FFFA5B;stroke:#000000;stroke-miterlimit:10;}
	.st26{fill:#1E2A24;}
	.st27{fill:#EBF0F5;stroke:#000000;stroke-miterlimit:10;}
	.st28{fill:url(#SVGID_3_);}
	.st29{fill:url(#SVGID_4_);}
	.st30{fill:#FFB05B;}
	.st31{fill:#4FAFBF;stroke:#000000;stroke-miterlimit:10;}
	.st32{fill:#43DA98;stroke:#000000;stroke-miterlimit:10;}
	.st33{fill:#00B273;}
	.st34{fill:#43DA98;}
	.st35{fill:#00B273;stroke:#000000;stroke-miterlimit:10;}
	.st36{fill:#BC2567;stroke:#FFFFFF;stroke-miterlimit:10;}
	.st37{fill:#8B004D;stroke:#000000;stroke-miterlimit:10;}
	.st38{fill:#5B5B4F;stroke:#000000;stroke-miterlimit:10;}
	.st39{fill:#3A3F40;}
	.st40{fill:#E7C993;}
	.st41{fill:#8B004D;}
	.st42{fill:#5B5B4F;}
	.st43{fill:#F02233;stroke:#000000;stroke-miterlimit:10;}
	.st44{fill:#4E2664;stroke:#000000;stroke-miterlimit:10;}
	.st45{fill:#04829F;}
	.st46{adobe-knockout:true;}
	.st47{fill:none;stroke:#FFFFFF;stroke-width:3;stroke-miterlimit:10;adobe-knockout:false;}
	.st48{fill:#006F8C;}
	.st49{fill:#F32CBB;stroke:#000000;stroke-miterlimit:10;}
	.st50{fill:#C000AD;stroke:#000000;stroke-miterlimit:10;}
	.st51{fill:#6BBA4F;}
	.st52{fill:#03850D;}
	.st53{fill:#97C0DA;stroke:#000000;stroke-miterlimit:10;}
	.st54{fill:#83A5CB;}
	.st55{fill:#0453BC;}
	.st56{fill:#A79F96;}
	.st57{fill:#0CD3CA;stroke:#000000;stroke-miterlimit:10;}
	.st58{fill:#299AB8;}
	.st59{fill:#299AB8;stroke:#000000;stroke-miterlimit:10;}
	.st60{fill:#C000AD;}
	.st61{fill:#0099C7;}
	.st62{fill:#6E4D7F;stroke:#000000;stroke-miterlimit:10;}
	.st63{fill:#04829F;stroke:#000000;stroke-miterlimit:10;}
	.st64{fill:none;stroke:#EA24AE;stroke-width:8;stroke-miterlimit:10;}
	.st65{fill:#F959FF;}
	.st66{fill:#06A600;stroke:#000000;stroke-miterlimit:10;}
	.st67{fill:none;stroke:#15DB51;stroke-width:8;stroke-miterlimit:10;}
	.st68{fill:#06A600;}
	.st69{fill:#15DB51;stroke:#000000;stroke-miterlimit:10;}
	.st70{fill:#069400;}
	.st71{fill:#0066B3;}
	.st72{fill:#003644;}
	.st73{fill:#567481;}
	.st74{fill:none;stroke:#FFFFFF;stroke-width:3;stroke-miterlimit:10;}
	.st75{fill:url(#SVGID_5_);stroke:#FFFFFF;stroke-miterlimit:10;}
	.st76{fill:#B05040;}
	.st77{fill:#5C2633;}
	.st78{fill:none;stroke:#A7747F;stroke-width:3;stroke-miterlimit:10;}
	.st79{fill:#46A0BE;}
	.st80{fill:#005FA5;}
	.st81{fill:#FE9C14;}
	.st82{fill:#FED539;}
	.st83{fill:#3AC919;stroke:#000000;stroke-miterlimit:10;}
	.st84{fill:#2A9F02;}
	.st85{fill:#3AC919;}
	.st86{fill:#2A9F02;stroke:#000000;stroke-miterlimit:10;}
	.st87{fill:#FE144C;}
	.st88{fill:#FE5F39;}
	.st89{fill:#E91B00;}
	.st90{fill:#FE0000;}
	.st91{fill:#0005A4;stroke:#000000;stroke-miterlimit:10;}
	.st92{fill:#000578;}
	.st93{fill:#004FA4;}
	.st94{fill:#0005A4;stroke:#FFFFFF;stroke-miterlimit:10;}
	.st95{fill:#FFE60B;stroke:#000000;stroke-width:1.5;stroke-miterlimit:10;}
	.st96{fill:#ED1C24;}
	.st97{fill:#FFEE34;}
	.st98{fill:#FF4A49;}
	.st99{fill:none;stroke:#000000;stroke-miterlimit:10;}
	.st100{fill:#F97F7A;}
	.st101{fill:#6E4D7F;}
	.st102{fill:#CA0014;}
	.st103{fill:#382351;}
	.st104{fill:#01A663;}
	.st105{fill:#8ABE23;}
	.st106{fill:#1D1D1B;}
	.st107{fill:#FEFEFE;}
</style>
<path class="st1" d="M6.1,342.8C40.7,232.2,21.2,187.2,67.7,94.2c10.5-21,71.9-57.8,135.8-73.2c0,0,109.7-25.5,180.5-3.5
	s140.3,53.3,151.9,80c35.7,82.1,31.2,191.6,59.7,243.7c-12.5,1.2-81.3,14.4-109.3,19.7c-2.4-7.3-13.4-60-13.4-60s3.2,248,3.2,270
	c-0.2,19-92.8,24-180.8,24s-167.5-10-167.5-26.9c0-16.8,1.1-262.1,1.1-262.1s-3.3,23.3-8.3,56.1C91.3,361.9,16.4,344,6.1,342.8z"/>
<g>
	<g>
		<path class="st2" d="M234.5,28.7C247.3,46,269,62.5,305.1,62.5c36.2,0,56.3-16.8,67.4-34.5C342.2,31.1,266.9,30.8,234.5,28.7z"/>
		<path class="st3" d="M375.1,1c-17.6,5.3-142.2,2.9-148.6,0.6c-0.1,0.3-0.3,0.7-0.5,1.1c2.2,7.1,6.3,17.5,13.7,27.5
			c29.5,1.9,97.9,2.2,125.6-0.6c6.2-9.9,9.4-20.2,10.9-27.3C375.8,1.8,375.4,1.4,375.1,1z"/>
	</g>
	<path class="st3" d="M376.2,2.3c-4.1,18.7-19,58.7-72.2,58.7c-53.9,0-72.4-40.1-78-58.3c-2.9,5.3-15.1,16-15.1,16
		s15.6,61.7,91.1,61.7c76.5,0,86.6-58.7,87.7-63.1C387.6,16.4,380.4,6.9,376.2,2.3z"/>
</g>
<path class="st1" d="M6.1,342.8C40.7,232.2,21.2,187.2,67.7,94.2c10.5-21,71.9-57.8,135.8-73.2c0,0,109.7-25.5,180.5-3.5
	s140.3,53.3,151.9,80c35.7,82.1,31.2,191.6,59.7,243.7c-12.5,1.2-81.3,14.4-109.3,19.7c-2.4-7.3-13.4-60-13.4-60s3.2,248,3.2,270
	c-0.2,19-92.8,24-180.8,24s-167.5-10-167.5-26.9c0-16.8,1.1-262.1,1.1-262.1s-3.3,23.3-8.3,56.1C91.3,361.9,16.4,344,6.1,342.8z"/>
<g>
	<g>
		<path class="st2" d="M234.5,28.7C247.3,46,269,62.5,305.1,62.5c36.2,0,56.3-16.8,67.4-34.5C342.2,31.1,266.9,30.8,234.5,28.7z"/>
		<path class="st3" d="M375.1,1c-17.6,5.3-142.2,2.9-148.6,0.6c-0.1,0.3-0.3,0.7-0.5,1.1c2.2,7.1,6.3,17.5,13.7,27.5
			c29.5,1.9,97.9,2.2,125.6-0.6c6.2-9.9,9.4-20.2,10.9-27.3C375.8,1.8,375.4,1.4,375.1,1z"/>
	</g>
	<path class="st3" d="M376.2,2.3c-4.1,18.7-19,58.7-72.2,58.7c-53.9,0-72.4-40.1-78-58.3c-2.9,5.3-15.1,16-15.1,16
		s15.6,61.7,91.1,61.7c76.5,0,86.6-58.7,87.7-63.1C387.6,16.4,380.4,6.9,376.2,2.3z"/>
</g>
<path class="st1" d="M6.1,342.8C40.7,232.2,21.2,187.2,67.7,94.2c10.5-21,71.9-57.8,135.8-73.2c0,0,109.7-25.5,180.5-3.5
	s140.3,53.3,151.9,80c35.7,82.1,31.2,191.6,59.7,243.7c-12.5,1.2-81.3,14.4-109.3,19.7c-2.4-7.3-13.4-60-13.4-60s3.2,248,3.2,270
	c-0.2,19-92.8,24-180.8,24s-167.5-10-167.5-26.9c0-16.8,1.1-262.1,1.1-262.1s-3.3,23.3-8.3,56.1C91.3,361.9,16.4,344,6.1,342.8z"/>
<g>
	<g>
		<path class="st90" d="M480.1,142c-154.5-31.3-357.4-0.5-359.4-0.1l-3.1-19.8c0.5-0.1,52.5-8.1,123.2-12
			c41.5-2.3,81.3-2.8,118.3-1.4c46.4,1.7,88.4,6.3,125,13.7L480.1,142z"/>
	</g>
	<g>
		<path class="st90" d="M136.5,189.9l-3-19.8c1.8-0.3,177.1-25.9,335.4-1.8l-3,19.8C310.7,164.4,138.2,189.6,136.5,189.9z"/>
	</g>
	<g>
		<path class="st90" d="M136,237.9l-2.1-19.9c1.7-0.2,176.4-17.9,334.9-1.6l-2.1,19.9C310.4,220.2,137.8,237.8,136,237.9z"/>
	</g>
	<g>
		<path class="st90" d="M135.6,286l-1.2-20c1.7-0.1,175.7-9.9,334.5-1.3l-1.1,20C310.2,276.1,137.3,285.9,135.6,286z"/>
	</g>
	<g>
		<path class="st90" d="M135.1,334l-0.2-20c1.7,0,175-2,333.9-1.1l-0.1,20C310,332,136.8,334,135.1,334z"/>
	</g>
	<g>
		<path class="st90" d="M297.4,384.4c-91.7,0-161.7-2.4-162.8-2.4l0.7-20c1.7,0.1,174.4,5.9,333.4-0.9l0.9,20
			C411,383.6,350.5,384.4,297.4,384.4z"/>
	</g>
	<g>
		<path class="st90" d="M306.7,436c-96.7,0-171.4-5.9-172.5-6l1.6-19.9c1.7,0.1,173.7,13.8,333-0.7l1.8,19.9
			C414.9,434.3,357.8,436,306.7,436z"/>
	</g>
	<g>
		<path class="st90" d="M309.4,487.6c-98.3,0-174.6-9.5-175.7-9.7l2.5-19.8c1.7,0.2,173.1,21.6,332.5-0.4l2.7,19.8
			C416.4,485.1,360,487.6,309.4,487.6z"/>
	</g>
	<g>
		<path class="st90" d="M309.7,539.2c-25.5,0-48.8-0.9-68.7-2c-63.3-3.7-105.9-11-107.7-11.4l3.4-19.7c1.7,0.3,172.4,29.3,332-0.2
			l3.6,19.7C416.1,536,358.9,539.2,309.7,539.2z"/>
	</g>
	<g>
		<path class="st90" d="M310.4,590.9c-21.7,0-44.9-0.8-69.7-2.6c-63.5-4.7-106.1-14.1-107.9-14.5l4.3-19.5
			c0.4,0.1,43.3,9.4,105.5,14.1c57.1,4.3,142.8,5.3,226.1-14l4.5,19.5C436.9,582.2,382,590.9,310.4,590.9z"/>
	</g>
</g>
<path class="st15" d="M73.8,85.9c0,0,77.1,9.2,55.7,220c-0.9,166-1.1,253.8-1.1,255.9c0,3.2-0.6,7.5,0.8,9.2
	c0.7,1.1,1.7,2.3,3.4,3.5c4.7,3.4,13.4,6.6,25.2,9.1c-14.2-11.6-10.9-42.8-9.8-72.1c1.1-29.4-24-95.4-3-199.4
	c6.8-33.6-5.5-74.9-6-84C135,160.4,122.6,94.6,73.8,85.9z"/>
<path class="st15" d="M530.2,89c0,0-79.2,0.7-57.7,211.5c2.1,168.9,3.2,265.3,3.2,264.5c0-2.3,0,2.4,0,6.2c0,1.3-0.7,2.6-0.9,2.9
	c-0.7,1.1-2,2.2-3.6,3.4c-4.7,3.4-13.3,5.9-25.1,8.2c14.2-11.6,11.1-41.8,10-71.2c-1.1-29.4,24-95.4,3-199.4
	c-6.8-33.6,1.5-83.4,2-92.4C465,155.1,483.7,92,530.2,89z"/>
<path class="st90" d="M229,43.9c0,0-75.9,11.1-114.8,50C173.5,75.4,262.3,68,262.3,68L229,43.9z"/>
<path class="st90" d="M377.5,42.9c0,0,79.2,12.1,118.1,51C436.4,75.4,347.5,68,347.5,68L377.5,42.9z"/>
<g>
	<g>
		<path class="st15" d="M234.5,28.7C247.3,46,269,62.5,305.1,62.5c36.2,0,56.3-16.8,67.4-34.5C342.2,31.1,266.9,30.8,234.5,28.7z"/>
		<path class="st0" d="M375.1,1c-17.6,5.3-142.2,2.9-148.6,0.6c-0.1,0.3-0.3,0.7-0.5,1.1c2.2,7.1,6.3,17.5,13.7,27.5
			c29.5,1.9,97.9,2.2,125.6-0.6c6.2-9.9,9.4-20.2,10.9-27.3C375.8,1.8,375.4,1.4,375.1,1z"/>
	</g>
	<path class="st0" d="M376.2,2.3c-4.1,18.7-19,58.7-72.2,58.7c-53.9,0-72.4-40.1-78-58.3c-2.9,5.3-15.1,16-15.1,16
		s15.6,61.7,91.1,61.7c76.5,0,86.6-58.7,87.7-63.1C387.6,16.4,380.4,6.9,376.2,2.3z"/>
</g>
<g>
	<g>
		<path class="st97" d="M376.3,207.4c-12.5,0-21.4-3.6-26.4-10.7c-3.7-5.2-3.8-10.6-3.8-10.7v-37.4h60.5V186c0,0.1-0.1,5.4-3.8,10.7
			C397.8,203.8,388.9,207.4,376.3,207.4z"/>
		<path class="st98" d="M404.9,150.4V186c0,0.2-0.1,5.1-3.6,9.8c-2,2.8-4.8,5-8.2,6.6c-4.5,2.1-10.1,3.1-16.8,3.1
			c-6.6,0-12.2-1.1-16.7-3.1c-3.4-1.6-6.2-3.8-8.2-6.6c-3.4-4.7-3.6-9.6-3.6-9.8v-35.6H404.9 M408.4,146.9h-64V186
			c0,0,0.1,23.1,31.9,23.1c32.1,0,32.1-23.1,32.1-23.1V146.9L408.4,146.9z"/>
	</g>
	<g>
		<path class="st98" d="M351.8,156.1L351.8,156.1l-1.3,0.9l-0.2-1l1.6-1.2h0.8V165h-0.9V156.1z"/>
		<path class="st98" d="M355.1,165.2c-0.4,0-0.6-0.4-0.6-0.9s0.3-1,0.6-1s0.7,0.4,0.7,1C355.7,164.8,355.5,165.2,355.1,165.2
			L355.1,165.2z"/>
		<path class="st98" d="M357,154.5h3.8v1.1h-2.8v3.5h2.6v1.1h-2.6v4.8h-1V154.5z"/>
		<path class="st98" d="M366.7,164.7c-0.3,0.2-0.9,0.4-1.7,0.4c-2,0-3.4-1.8-3.4-5.3c0-3.6,1.6-5.5,3.6-5.5c0.8,0,1.3,0.2,1.6,0.4
			l-0.2,1.1c-0.3-0.2-0.7-0.4-1.3-0.4c-1.5,0-2.6,1.4-2.6,4.3c0,2.8,1,4.2,2.6,4.2c0.5,0,1-0.1,1.4-0.4L366.7,164.7z"/>
		<path class="st98" d="M371.9,154.5v6.2c0,1.5,0.4,2.3,1,2.3s1-0.6,1-2.3v-6.2h2v5.9c0,3.1-1,4.7-3,4.7s-3-1.6-3-4.8v-5.9H371.9z"
			/>
		<path class="st98" d="M377.2,165v-10.5h2.2l1.2,3.4c0.4,0.9,0.8,2.3,1.1,3.4h0c-0.1-1.2-0.1-2.9-0.1-4.6v-2.2h1.8V165h-2l-1.2-3.5
			c-0.3-1-0.8-2.4-1.1-3.6h0c0.1,1.2,0.1,2.9,0.1,4.7v2.4C379,165,377.2,165,377.2,165z"/>
		<path class="st98" d="M386.6,154.5V165h-2v-10.5H386.6z"/>
		<path class="st98" d="M391,165.2c-2.2,0-3.3-2.5-3.3-5.4c0-2.9,1.2-5.4,3.4-5.4c2.4,0,3.4,2.7,3.4,5.2
			C394.4,163.2,393.1,165.2,391,165.2L391,165.2z M391.1,163c0.9,0,1.3-1.3,1.3-3.3c0-1.8-0.5-3.2-1.3-3.2s-1.4,1.4-1.3,3.2
			C389.7,161.7,390.2,163,391.1,163L391.1,163z"/>
		<path class="st98" d="M395.5,165v-10.5h2.2l1.2,3.4c0.4,0.9,0.8,2.3,1.1,3.4h0c-0.1-1.2-0.1-2.9-0.1-4.6v-2.2h1.8V165h-2l-1.2-3.5
			c-0.4-1-0.8-2.4-1.1-3.6h0c0.1,1.2,0.1,2.9,0.1,4.7v2.4C397.3,165,395.5,165,395.5,165z"/>
	</g>
	<g>
		<path class="st97" d="M402.4,178.4c0,0,0-0.1-0.1-0.1c-2.4-6.3-9.3-10.2-16-9.1c-7.2,1.2-12.4,7.2-12.5,14.6c0,2,0.4,3.9,1.1,5.7
			c4.1,9.8,16.6,12.3,24.1,4.8c3.1-3,4.4-6.7,4.3-10.8C403.5,181.6,402.8,179.6,402.4,178.4z"/>
		<path d="M402.8,179.3c0,0.2-0.1,0.3-0.3,0.3c-0.2,0-0.2-0.1-0.2-0.3s0.1-0.3,0.2-0.3C402.7,179,402.7,179.2,402.8,179.3z"/>
		<path d="M402.4,178.4c0,0,0-0.1,0-0.1c-2.4-6.3-9.3-10.2-16-9.1c-7.2,1.2-12.4,7.2-12.5,14.6c0,2,0.4,3.9,1.1,5.7
			c4.1,9.8,16.6,12.3,24.1,4.8c3-3,4.4-6.7,4.3-10.8C403.5,181.6,402.9,179.6,402.4,178.4z M400,192c-0.1-0.4-0.1-0.7-0.1-1
			c-0.1-0.2-0.1-0.4-0.4-0.2c-1.2,1-2.6,1.4-4.1,1.4c-0.3,0-0.4,0-0.6,0.3c-0.6,1.5-1.4,2.8-2.7,3.6c-0.3,0.2-0.1,0.3,0,0.4
			c0.3,0.2,0.6,0.3,0.9,0.4c-1.9,0.9-6.3,0.9-8.5,0c0.3-0.2,0.6-0.3,0.9-0.4c0.2-0.1,0.3-0.2,0-0.4c-1.3-0.8-2.1-2.1-2.7-3.5
			c-0.1-0.3-0.2-0.4-0.6-0.4c-1.5-0.1-2.9-0.4-4.1-1.4c-0.3-0.2-0.4-0.1-0.4,0.2c0,0.3-0.1,0.6-0.1,1c-1.8-2.5-2.6-5.1-2.7-8.1
			c0.3,0.3,0.5,0.5,0.8,0.7c0.1,0.1,0.3,0.1,0.3-0.1c0.4-1.6,1.4-2.8,2.6-3.8c0.2-0.1,0.2-0.3,0.1-0.5c-0.4-1.5-5.4,2.2-1-4.6
			c0.5-1.6,4.8-4.8,6.8-5c-0.1,0.4-0.6,0.7-0.4,1c0.2,0.3,0.7,0.1,1,0.1c1.2,0.2,2.4,0.6,3.4,1.3c0.2,0.2,0.4,0.2,0.7,0
			c1.3-0.8,2.7-1.4,4.3-1.3c0.3,0,0.3-0.1,0.2-0.3c-0.1-0.2-0.3-0.5-0.5-0.9c2.9,1,5.1,2.6,7,5c-0.4-0.1-0.7-0.1-1-0.2
			c-0.2,0-0.3,0.1-0.2,0.3c0.6,1.5,0.5,3,0,4.5c0,0.2-0.1,0.3,0.1,0.4c0,0,0.1,0.1,0.1,0.1l0,0c0,0,0,0,0,0.1c0,0,0.1,0.1,0.1,0.1
			c1.1,0.9,2,2.4,2.1,2.6c0.1,0.3,0.2,0.6,0.3,0.9c0.1,0.4,0.2,0.4,0.5,0.1c0.2-0.2,0.4-0.4,0.6-0.7
			C402.6,186.9,401.7,189.5,400,192z"/>
		<path d="M393.6,181.8c-1.3-1.4-2.8-2.5-4.6-3.3c-0.3-0.1-0.5-0.1-0.8,0c-1.7,0.8-3.2,1.9-4.5,3.2c-0.2,0.2-0.3,0.5-0.2,0.9
			c0.2,1.9,0.8,3.6,1.7,5.2c0.2,0.3,0.4,0.4,0.7,0.5c0.9,0.1,1.8,0.2,2.6,0.3c0.1,0,0.2,0,0.4,0c0.8,0,1.9-0.1,2.6-0.3
			c0.1,0,0.1,0,0.1-0.1c0.7-0.3,1.3-1.9,1.6-3.3c0.2-0.8,0.4-1.6,0.5-2.5C393.9,182.2,393.8,182,393.6,181.8z"/>
	</g>
	<g>
		<path class="st99" d="M357.2,188.1c0.2,1.9-0.3,2.7-1.8,3.1c-1.1,0.3-1.5,1.2-2,2c-0.5,0.7,0.7,2.1,1.6,1.9c1-0.3,2-0.2,2.9-0.9
			c1.1-0.9,2.2-1.6,2.3-3.3c0.1-1.6,1.3-2.6,2.4-3.7c0.2-0.2,0.7-0.5,0.6-0.9c-0.1-0.4-0.6-0.5-1-0.5c-0.9,0-1.8,0.1-2.8,0.1
			c-1.1,0.1-2.1,0-3.3-0.6c1-0.6,2-0.6,2.6-1.7c-2,0.3-3.9,0.4-5.6-0.9c0.8-0.5,1.7-0.2,2.3-1c-1.8-0.7-3.8-1-4.8-3.1
			c0.5,0,1,0,1.5,0c0.3,0,0.7-0.1,0.9-0.4c0.1-0.5-0.4-0.5-0.6-0.7c-1.6-1-2.2-2.5-2.3-4.3c0.7-0.1,0.9,0.5,1.3,0.8
			c2.4,1.9,4.9,2.8,8,2.1c3-0.7,3.9,0,4.8,3c0.4,1.2,0.6,2.3,1.8,3.3c-0.1-1.1,0.3-2-0.3-3c-0.4-0.6-0.1-1.4,0-2.1
			c0-0.2,0.2-0.5,0.1-0.7c-0.6-1.1-0.6-1-0.1-2.2c0.1-0.2,0.8-0.6,0-0.9c-0.2-0.1,0-0.3,0-0.4c0.8-3.1,4.4-4.9,7.3-3.5
			c0.6,0.3,1.2,0.6,1.9,0.8c0.6,0.1,1.1,0.5,1.5,0.9c0.2,0.3,0.6,0.6,0.5,0.9c-0.1,0.5-0.6,0.1-1,0.2c-0.4,0.1-0.8,0-1.2,0.1
			c-1.1,0.2-1.6,1.3-1.1,2.3c1,1.7,2,3.4,2.5,5.7c0.4-1.9,0.4-1.9,2-1.6c0.6,0.1,1.4-0.2,1.7,0.8c0.2,0.5,1.2,0.6,2,0.4
			c0.7-0.3,0.2-0.9,0.1-1.3c0-0.8-0.1-1.5,1.1-1.5c0.4,0,0.6-0.1,0.6,0.4c0,0.6,0.7,0.1,0.9,0.5c0,0.5-0.7,0.5-0.9,0.9
			c-0.1,0.4-0.5,0.8,0,1.1c0.2,0.1,0.7-0.2,0.6,0.3c0,0.3-0.4,0.5-0.6,0.5c-0.3,0.1-0.6,0.1-0.9,0.1c-2,0.1-3.6,0.9-4.7,2.7
			c-0.1,0.2-0.2,0.2-0.4,0.2c-1.5,0.2-1.5,0.2-2.1,1.6c-0.8-0.8-1.3-1.7-2.4-2.1c-0.2,0.1-0.1,0.2,0,0.3c1.9,1.5,2.5,3.6,2.5,6
			c0,0.6-0.1,1.2,0.2,1.7c0.1,0.2,0.3,0.5,0,0.6c-0.8,0.4-0.8,1.3-1.4,1.8c-0.2,0.2-0.4,0.5-0.1,0.9c0.2,0.3,0.5,0.1,0.8,0
			c1.4-0.4,1.9,0,1.7,1.3c0,0.5-0.7,0.8-0.6,1.6c-0.7-0.3-0.8-1.4-1.7-1.1c-0.5,0.2,0.1,0.7-0.4,1c-0.8-0.4-0.7-1.2-0.8-1.9
			c-0.1-0.6-0.1-1.3-0.7-1.8c-0.2-0.1-0.4-0.7-0.8,0c-0.2,0.4-0.5-0.2-0.7-0.4c-0.6-1.1-0.5-2.2-0.1-3.4c-0.6,0.6-0.6,0.6-0.7,1.2
			c-0.1,0.5-0.3,0.9-0.8,1s-0.5-0.4-0.6-0.8c-0.1-0.3-0.2-0.6-0.7-0.7c1.2,3-1.2,4-3,5.4c0.5,0.4,0.9,0.1,1.2-0.1
			c1.2-0.6,1.8-0.5,2.5,0.7c0.1,0.1,0.1,0.3,0.2,0.3c0.1,0.1,0.2,0.2,0.4,0.3c-0.8,0.4-1.6,0.5-2.4,0.5c-1.6,0-3.1,0-4.6,0
			c-0.9,0-1.2-0.3-1.3-1.1c-0.1-0.7,0-1.3-0.3-2c-0.3-0.7-0.6-0.7-1.2-0.3c-1.9,1.4-4.1,1.6-6.3,1.1c-1-0.2-1-3.1-0.1-3.9
			c0.3-0.3,0.8-0.5,1.2-0.7c0.2-0.2,0.7-0.2,0.6-0.5C354.7,189,356.3,189,357.2,188.1z"/>
		<path class="st98" d="M357.2,188.1c0.2,1.9-0.3,2.7-1.8,3.1c-1.1,0.3-1.5,1.2-2,2c-0.5,0.7,0.7,2.1,1.6,1.9c1-0.3,2-0.2,2.9-0.9
			c1.1-0.9,2.2-1.6,2.3-3.3c0.1-1.6,1.3-2.6,2.4-3.7c0.2-0.2,0.7-0.5,0.6-0.9c-0.1-0.4-0.6-0.5-1-0.5c-0.9,0-1.8,0.1-2.8,0.1
			c-1.1,0.1-2.1,0-3.3-0.6c1-0.6,2-0.6,2.6-1.7c-2,0.3-3.9,0.4-5.6-0.9c0.8-0.5,1.7-0.2,2.3-1c-1.8-0.7-3.8-1-4.8-3.1
			c0.5,0,1,0,1.5,0c0.3,0,0.7-0.1,0.9-0.4c0.1-0.5-0.4-0.5-0.6-0.7c-1.6-1-2.2-2.5-2.3-4.3c0.7-0.1,0.9,0.5,1.3,0.8
			c2.4,1.9,4.9,2.8,8,2.1c3-0.7,3.9,0,4.8,3c0.4,1.2,0.6,2.3,1.8,3.3c-0.1-1.1,0.3-2-0.3-3c-0.4-0.6-0.1-1.4,0-2.1
			c0-0.2,0.2-0.5,0.1-0.7c-0.6-1.1-0.6-1-0.1-2.2c0.1-0.2,0.8-0.6,0-0.9c-0.2-0.1,0-0.3,0-0.4c0.8-3.1,4.4-4.9,7.3-3.5
			c0.6,0.3,1.2,0.6,1.9,0.8c0.6,0.1,1.1,0.5,1.5,0.9c0.2,0.3,0.6,0.6,0.5,0.9c-0.1,0.5-0.6,0.1-1,0.2c-0.4,0.1-0.8,0-1.2,0.1
			c-1.1,0.2-1.6,1.3-1.1,2.3c1,1.7,2,3.4,2.5,5.7c0.4-1.9,0.4-1.9,2-1.6c0.6,0.1,1.4-0.2,1.7,0.8c0.2,0.5,1.2,0.6,2,0.4
			c0.7-0.3,0.2-0.9,0.1-1.3c0-0.8-0.1-1.5,1.1-1.5c0.4,0,0.6-0.1,0.6,0.4c0,0.6,0.7,0.1,0.9,0.5c0,0.5-0.7,0.5-0.9,0.9
			c-0.1,0.4-0.5,0.8,0,1.1c0.2,0.1,0.7-0.2,0.6,0.3c0,0.3-0.4,0.5-0.6,0.5c-0.3,0.1-0.6,0.1-0.9,0.1c-2,0.1-3.6,0.9-4.7,2.7
			c-0.1,0.2-0.2,0.2-0.4,0.2c-1.5,0.2-1.5,0.2-2.1,1.6c-0.8-0.8-1.3-1.7-2.4-2.1c-0.2,0.1-0.1,0.2,0,0.3c1.9,1.5,2.5,3.6,2.5,6
			c0,0.6-0.1,1.2,0.2,1.7c0.1,0.2,0.3,0.5,0,0.6c-0.8,0.4-0.8,1.3-1.4,1.8c-0.2,0.2-0.4,0.5-0.1,0.9c0.2,0.3,0.5,0.1,0.8,0
			c1.4-0.4,1.9,0,1.7,1.3c0,0.5-0.7,0.8-0.6,1.6c-0.7-0.3-0.8-1.4-1.7-1.1c-0.5,0.2,0.1,0.7-0.4,1c-0.8-0.4-0.7-1.2-0.8-1.9
			c-0.1-0.6-0.1-1.3-0.7-1.8c-0.2-0.1-0.4-0.7-0.8,0c-0.2,0.4-0.5-0.2-0.7-0.4c-0.6-1.1-0.5-2.2-0.1-3.4c-0.6,0.6-0.6,0.6-0.7,1.2
			c-0.1,0.5-0.3,0.9-0.8,1s-0.5-0.4-0.6-0.8c-0.1-0.3-0.2-0.6-0.7-0.7c1.2,3-1.2,4-3,5.4c0.5,0.4,0.9,0.1,1.2-0.1
			c1.2-0.6,1.8-0.5,2.5,0.7c0.1,0.1,0.1,0.3,0.2,0.3c0.1,0.1,0.2,0.2,0.4,0.3c-0.8,0.4-1.6,0.5-2.4,0.5c-1.6,0-3.1,0-4.6,0
			c-0.9,0-1.2-0.3-1.3-1.1c-0.1-0.7,0-1.3-0.3-2c-0.3-0.7-0.6-0.7-1.2-0.3c-1.9,1.4-4.1,1.6-6.3,1.1c-1-0.2-1-3.1-0.1-3.9
			c0.3-0.3,0.8-0.5,1.2-0.7c0.2-0.2,0.7-0.2,0.6-0.5C354.7,189,356.3,189,357.2,188.1z"/>
	</g>
</g>
</svg>
