<?xml version="1.0" encoding="utf-8"?>
<!-- Generator: Adobe Illustrator 17.0.0, SVG Export Plug-In . SVG Version: 6.00 Build 0)  -->
<!DOCTYPE svg PUBLIC "-//W3C//DTD SVG 1.1//EN" "http://www.w3.org/Graphics/SVG/1.1/DTD/svg11.dtd" [
	<!ENTITY ns_flows "http://ns.adobe.com/Flows/1.0/">
	<!ENTITY ns_extend "http://ns.adobe.com/Extensibility/1.0/">
	<!ENTITY ns_ai "http://ns.adobe.com/AdobeIllustrator/10.0/">
	<!ENTITY ns_graphs "http://ns.adobe.com/Graphs/1.0/">
]>
<svg version="1.1" id="Layer_1" xmlns:x="&ns_extend;" xmlns:i="&ns_ai;" xmlns:graph="&ns_graphs;"
	 xmlns="http://www.w3.org/2000/svg" xmlns:xlink="http://www.w3.org/1999/xlink" xmlns:a="http://ns.adobe.com/AdobeSVGViewerExtensions/3.0/"
	 x="0px" y="0px" width="600px" height="600px" viewBox="0 0 600 600" style="enable-background:new 0 0 600 600;"
	 xml:space="preserve">
<style type="text/css">
	.st0{fill:#05297D;stroke:#000000;stroke-miterlimit:10;}
	.st1{fill:#527DD3;}
	.st2{fill:#E3E3E7;}
	.st3{fill:#302E29;}
	.st4{fill:#FFFFFF;stroke:#000000;stroke-miterlimit:10;}
	.st5{fill:#FFFFFF;}
	.st6{fill:#7C0014;}
	.st7{fill:#B1C49B;stroke:#000000;stroke-miterlimit:10;}
	.st8{fill:#8AA668;}
	.st9{fill:#7C7D14;stroke:#B1C49B;stroke-miterlimit:10;}
	.st10{fill:#4E3B64;stroke:#000000;stroke-miterlimit:10;}
	.st11{fill:#382351;}
	.st12{fill:#4E3B64;}
	.st13{stroke:#4E3B64;stroke-miterlimit:10;}
	.st14{fill:#EB5D12;stroke:#000000;stroke-miterlimit:10;}
	.st15{fill:#B85D12;}
	.st16{fill:#7C0014;stroke:#EB5D12;stroke-miterlimit:10;}
	.st17{fill:#631197;stroke:#000000;stroke-miterlimit:10;}
	.st18{fill:#58006C;}
	.st19{fill:#FE5561;}
	.st20{fill:#C2BEC8;}
	.st21{fill:#FD9D00;stroke:#000000;stroke-miterlimit:10;}
	.st22{fill:#DC8700;}
	.st23{fill:#7C0014;stroke:#FD9D00;stroke-miterlimit:10;}
	.st24{fill:#A69EF8;stroke:#000000;stroke-miterlimit:10;}
	.st25{fill:#8176F5;}
	.st26{fill:#7C0014;stroke:#A69EF8;stroke-miterlimit:10;}
	.st27{fill:#5C377E;stroke:#000000;stroke-miterlimit:10;}
	.st28{fill:#5C377E;}
	.st29{fill:#242424;stroke:#5C377E;stroke-miterlimit:10;}
	.st30{fill:#CAC5C0;}
	.st31{fill:#5C377E;stroke:#FFFFFF;stroke-miterlimit:10;}
	.st32{fill:#A4FEB7;stroke:#000000;stroke-miterlimit:10;}
	.st33{fill:#75D792;}
	.st34{fill:#E20227;stroke:#A4FEB7;stroke-miterlimit:10;}
	.st35{fill:#272F74;stroke:#000000;stroke-miterlimit:10;}
	.st36{fill:#272F74;}
	.st37{fill:#E20227;stroke:#000000;stroke-miterlimit:10;}
	.st38{fill:#EDF3F8;stroke:#000000;stroke-miterlimit:10;}
	.st39{fill:#E20227;}
	.st40{fill:#01615B;}
	.st41{fill:#B6CEE3;stroke:#000000;stroke-miterlimit:10;}
	.st42{fill:#E20227;stroke:#EDF3F8;stroke-miterlimit:10;}
	.st43{fill:#C7CCC4;}
	.st44{fill:#EDF3F8;stroke:#E20227;stroke-miterlimit:10;}
	.st45{fill:#B64D00;}
	.st46{fill:#BBE79B;stroke:#000000;stroke-miterlimit:10;}
	.st47{fill:#AA2EC8;stroke:#000000;stroke-miterlimit:10;}
	.st48{fill:#9700BB;}
	.st49{fill:#CBD0DE;stroke:#AA2EC8;stroke-miterlimit:10;}
	.st50{fill:#ECEEF3;stroke:#AA2EC8;stroke-miterlimit:10;}
	.st51{fill:none;stroke:#7C0014;stroke-width:8;stroke-miterlimit:10;}
	.st52{fill:none;stroke:#000000;stroke-width:8;stroke-miterlimit:10;}
	.st53{fill:#FFEB00;}
	.st54{fill:#625616;stroke:#000000;stroke-miterlimit:10;}
	.st55{fill:#1853A6;stroke:#1853A6;stroke-width:0.25;stroke-miterlimit:10;}
	.st56{fill:none;}
	.st57{fill:none;stroke:#1853A6;stroke-width:0.225;stroke-miterlimit:10;}
	.st58{fill:#1853A6;stroke:#1853A6;stroke-width:0.225;stroke-miterlimit:10;}
	.st59{fill:#625616;}
	.st60{stroke:#625616;stroke-miterlimit:10;}
	.st61{adobe-knockout:true;}
	.st62{fill:none;stroke:#FFFFFF;stroke-miterlimit:10;adobe-knockout:false;}
	.st63{fill:none;stroke:#5C377E;stroke-miterlimit:10;}
	.st64{fill:#97C266;}
	.st65{fill:#523900;stroke:#000000;stroke-miterlimit:10;}
	.st66{fill:#FF4A49;}
	.st67{fill:#3C6643;}
	.st68{fill:none;stroke:#FF4A49;stroke-width:0.2334;stroke-miterlimit:10;}
	.st69{fill:none;stroke:#01615B;stroke-width:8;stroke-linecap:round;stroke-miterlimit:10;}
	.st70{fill:#F1CF4D;stroke:#000000;stroke-miterlimit:10;}
	.st71{fill:#F7A161;}
	.st72{fill:#1C232F;}
	.st73{fill:#EDAA14;}
	.st74{fill:#096CB6;stroke:#F1CF4D;stroke-miterlimit:10;}
	.st75{fill:#0060CE;stroke:#000000;stroke-miterlimit:10;}
	.st76{fill:#E20227;stroke:#0060CE;stroke-miterlimit:10;}
	.st77{fill:#345F69;stroke:#000000;stroke-miterlimit:10;}
	.st78{fill:#114450;}
	.st79{fill:#C6FDEC;stroke:#000000;stroke-miterlimit:10;}
	.st80{fill:none;stroke:#E20227;stroke-width:8;stroke-linecap:round;stroke-miterlimit:10;}
	.st81{fill:none;stroke:#FFFFFF;stroke-width:8;stroke-linecap:round;stroke-miterlimit:10;}
	.st82{fill:#C673DA;}
	.st83{fill:#DC032B;}
	.st84{fill:#0165B2;}
	.st85{fill:#BBE79B;}
	.st86{fill:none;stroke:#FE5561;stroke-width:3;stroke-miterlimit:10;}
	.st87{fill:none;stroke:#9D9497;stroke-width:3;stroke-miterlimit:10;}
	.st88{fill:none;stroke:#C9C4C6;stroke-width:3;stroke-miterlimit:10;}
	.st89{fill:none;stroke:#E3E3E3;stroke-width:3;stroke-miterlimit:10;}
	.st90{fill:#0049B0;}
	.st91{fill:#9EE2D1;}
	.st92{fill:#096CB6;}
	.st93{fill:none;stroke:#0060CE;stroke-width:3;stroke-linecap:round;stroke-miterlimit:10;}
	.st94{fill:none;stroke:#F1CF4D;stroke-width:3;stroke-linecap:round;stroke-linejoin:round;stroke-miterlimit:10;}
	.st95{fill:none;stroke:#AA2EC8;stroke-miterlimit:10;}
	.st96{fill:url(#SVGID_1_);stroke:#C6FDEC;stroke-miterlimit:10;}
	.st97{fill:#096CB6;stroke:#C6FDEC;stroke-miterlimit:10;}
	.st98{stroke:#A0A0A0;stroke-miterlimit:10;}
	.st99{fill:#4B5459;}
	.st100{fill:#4E2664;stroke:#000000;stroke-miterlimit:10;}
	.st101{fill:#FFCF2B;stroke:#000000;stroke-miterlimit:10;}
	.st102{fill:#1C5DA4;}
	.st103{fill:#156A50;stroke:#000000;stroke-miterlimit:10;}
	.st104{fill:none;stroke:#FF7F35;stroke-width:11;stroke-miterlimit:10;}
	.st105{fill:#0F5A4B;}
	.st106{fill:#DAD2D8;stroke:#000000;stroke-miterlimit:10;}
	.st107{fill:#FF7F35;}
	.st108{fill:#ED1B23;}
	.st109{fill:#268FE1;stroke:#000000;stroke-miterlimit:10;}
	.st110{fill:#747785;stroke:#000000;stroke-miterlimit:10;}
	.st111{fill:#747785;}
	.st112{fill:#505C66;stroke:#747785;stroke-miterlimit:10;}
	.st113{fill:#0453BC;stroke:#000000;stroke-miterlimit:10;}
	.st114{fill:#0453BC;}
	.st115{fill:#073F98;stroke:#0453BC;stroke-miterlimit:10;}
	.st116{fill:#007BD8;}
	.st117{fill:#F9E42A;stroke:#000000;stroke-miterlimit:10;}
	.st118{fill:#1F2427;}
	.st119{fill:#F8C600;}
	.st120{fill:none;stroke:#000000;stroke-miterlimit:10;}
	.st121{fill:#4EC23A;}
	.st122{fill:#4EFE3A;stroke:#000000;stroke-miterlimit:10;}
	.st123{fill:#4EFE3A;}
	.st124{fill:#A8A8B4;}
	.st125{fill:#4EBD3A;}
	.st126{fill:url(#SVGID_2_);stroke:#000000;stroke-miterlimit:10;}
	.st127{fill:#E87140;stroke:#000000;stroke-miterlimit:10;}
	.st128{fill:#A02B00;stroke:#E87140;stroke-miterlimit:10;}
	.st129{fill:#00ABE9;stroke:#000000;stroke-miterlimit:10;}
	.st130{fill:#2C6AAD;}
	.st131{fill:#007BE9;}
	.st132{fill:#2C6AAD;stroke:#D0CDC1;stroke-miterlimit:10;}
	.st133{fill:#024D9E;}
	.st134{fill:#6B97C6;}
	.st135{fill:#000078;}
	.st136{fill:#073F98;}
	.st137{fill:#505C66;}
	.st138{fill:#ED936E;}
	.st139{fill:#0097D3;}
	.st140{fill:#1C232F;stroke:#F7A161;stroke-miterlimit:10;}
	.st141{fill:url(#SVGID_3_);stroke:#000000;stroke-miterlimit:10;}
	.st142{fill:#93CC00;}
	.st143{fill:none;stroke:#6DB52D;stroke-width:2;stroke-miterlimit:10;adobe-knockout:false;}
	.st144{fill:#1C232F;stroke:#93CC00;stroke-miterlimit:10;}
	.st145{fill:#1C232F;stroke:#1C232F;stroke-miterlimit:10;}
	.st146{stroke:#000000;stroke-miterlimit:10;}
	.st147{fill:#FF0000;stroke:#000000;stroke-miterlimit:10;}
	.st148{fill:#0F4B39;}
	.st149{fill:url(#SVGID_4_);}
	.st150{fill:#E48D78;stroke:#000000;stroke-miterlimit:10;}
	.st151{fill:#FF7F35;stroke:#156A50;stroke-miterlimit:10;}
	.st152{fill:url(#SVGID_5_);}
	.st153{fill:url(#SVGID_6_);}
	.st154{fill:none;stroke:#000000;stroke-miterlimit:10;adobe-knockout:false;}
	.st155{fill:#0361A4;}
	.st156{fill:#1C5DA4;stroke:#FFCF2B;stroke-miterlimit:10;}
	.st157{fill:#593486;}
	.st158{fill:#FFC918;}
	.st159{fill:#ED1C24;}
	.st160{fill:#268FE1;}
	.st161{fill:#0361A4;stroke:#268FE1;stroke-miterlimit:10;}
	.st162{adobe-knockout:false;}
	.st163{fill:none;stroke:#0453BC;stroke-miterlimit:10;}
	.st164{fill:none;stroke:#0453BC;stroke-width:3;stroke-linecap:round;stroke-miterlimit:10;adobe-knockout:false;}
	.st165{fill:none;stroke:#F9E42A;stroke-miterlimit:10;}
	.st166{fill:#1F2427;stroke:#F9E42A;stroke-miterlimit:10;}
	.st167{fill:none;stroke:#4EFE3A;stroke-width:11;stroke-miterlimit:10;}
	.st168{fill:#00254E;}
	.st169{fill:#05297D;}
	.st170{fill:#7D1E05;stroke:#000000;stroke-miterlimit:10;}
	.st171{fill:#D36B52;}
	.st172{fill:none;stroke:#AE61FF;stroke-width:11;stroke-miterlimit:10;}
	.st173{fill:#561A00;}
	.st174{fill:#6A1E05;}
	.st175{fill:#AE61FF;stroke:#7D1E05;stroke-miterlimit:10;}
	.st176{fill:#FDEA00;}
	.st177{fill:none;stroke:#A02B00;stroke-width:3;stroke-miterlimit:10;}
	.st178{fill:none;stroke:#EAA595;stroke-width:3;stroke-miterlimit:10;}
	.st179{fill:none;stroke:#F1F1F1;stroke-width:3;stroke-miterlimit:10;}
	.st180{fill:none;stroke:#FF7F35;stroke-width:6;stroke-miterlimit:10;}
	.st181{fill:#FF7F35;stroke:#DAD2D8;stroke-miterlimit:10;}
	.st182{fill:none;stroke:#FF0000;stroke-width:2;stroke-miterlimit:10;adobe-knockout:false;}
	.st183{fill:#F1E3C9;}
	.st184{fill:#F28330;}
	.st185{fill:#ED1B28;}
	.st186{fill:none;stroke:#FFFFFF;stroke-width:2;stroke-miterlimit:10;adobe-knockout:false;}
</style>
<path class="st100" d="M594.5,576.2c0-93.6-20.8-396.5-56.5-478.7c-11.6-26.7-84.7-58.1-155.5-80.1c-24.8-7.7-54.1-9.9-81.7-9.4
	c-27.8-0.6-61.4,1.3-86.4,9.1C143.6,39.2,74.6,70.8,63,97.5C27.2,179.7,6.5,482.7,6.5,576.2c8.8,6.4,17.7,7.6,67.5,9.8
	c10-134,52-285,52-285s-3.6,248-3.6,270c0.2,18.6,88.2,23.8,174.2,24v0c1,0,2.5,0,3.5,0c1,0,2.5,0,3.5,0v0
	c86-0.2,174.5-5.4,174.7-24c0-22-3.2-270-3.2-270s42,151,52,285C576.7,583.8,585.7,582.7,594.5,576.2z"/>
<path class="st11" d="M70.4,88.6c0,0,77.1,9.2,55.7,220c-0.4,79.7-1.8,141.7-2.4,184.6c-0.7,46.5-0.8,70.5-0.8,71.6
	c0,3.2-0.6,7.5,0.8,9.2c0.7,1.1,1.7,2.3,3.4,3.5c4.7,3.4,15.3,6.5,27.3,8.8c-14.2-11.6-10.9-42.8-9.8-72.1c1.1-29.4-24-95.4-3-199.4
	c6.8-33.6-5.5-74.9-6-84C131.6,163.1,119.2,97.3,70.4,88.6z"/>
<path class="st11" d="M532.2,89c0,0-79.2,0.7-57.7,211.5c2.1,168.9,3.2,265.3,3.2,264.5c0-2.3,0,2.4,0,6.2c0,1.3-0.7,2.6-0.9,2.9
	c-0.7,1.1-2,2.2-3.6,3.4c-4.7,3.4-13.3,5.9-25.1,8.2c14.2-11.6,11.1-41.8,10-71.2c-1.1-29.4,24-95.4,3-199.4
	c-6.8-33.6,1.5-83.4,2-92.4C467,155.1,485.7,92,532.2,89z"/>
<path class="st157" d="M127,56.1c0.5,5.3,2.4,11.6,4.6,16.5c3.1,6.5,7.8,8,14.5,9.3c5.3,1,11.6,1.8,12.4,8.2
	c0.9,7.1-5.3,14.5-8.4,20.3c-5.3,9.7-5.9,24.4,8.3,26.2c10.7,1.4,28.2-8.3,20.2-20.4c-2.9-4.4-7.9-7.9-8.5-13.5
	c-0.5-5.1,2.9-9.6,8.3-9.3c4.3,0.2,7.5,4.8,11.8,4.8c6-0.1,9-8.4,10.1-13.1c3.1-12.7-5.7-23.1-16-12.2c-9.8,10.3-17.8,5.9-19.2-7.6
	c-0.3-2.8,1.2-11.3,0.2-15.9c-0.8-3.7-8-10-13.2-9.9c-8.7,3.6-17,7.4-24.8,11.4C127.1,52.6,126.9,54.4,127,56.1z"/>
<path class="st157" d="M210,51.9c10.1,3.8,6.1,16.6,6.6,24.3c1,13.9,18.1,8.1,22.6-0.7c2.9-5.8,2-9.4-1.3-14.5
	c-2.9-4.6-5.8-9.2-0.4-13.6c5.5-4.5,10.3,0.2,15.8-1.1c4.8-1.2,7-9,6.5-13.4c-0.9-6.8-6.2-5-11.4-3.7c-6.7,1.7-13.3,3.3-20.2,3.6
	c-7,0.3-12.3-0.7-17-6.2c-1.7-1.9-3-3.5-4.5-4.7c-2,0.4-3,0.7-3,0.7c-1.9,0.4-3.7,0.9-5.6,1.4c-5.6,6.9-11.8,15.4-12.5,23
	C184.6,58.1,203.7,49.5,210,51.9z"/>
<path class="st157" d="M205.5,175.1c10.3-7.5,7.2-23.5,21.4-27.2c12.4-3.2,26.3,24.8,36.1,11.3c5.1-7,10.6-24.2,1.2-30.4
	c-7.5-4.8-20.4,6.1-27.5,6.4c-11.2,3-9.2-10.8-8.1-15.2c1.9-7.4-1.4-16.9-9.3-18.9S192.5,97,192.7,112c0.1,10.9,19.8,15.8,14.6,27.9
	c-2.6,5.9-11.1,7.4-15.3,11.9c-3.6,3.8-5.2,9.5-6.7,14.4C181,179.4,196.4,181.7,205.5,175.1z"/>
<path class="st157" d="M258.7,109.7c4.6-0.9,8.9-3.5,13.7-2.5c4.7,0.9,9.4,4.7,12.9,7.9c3.5,3.3,4.9,6.2,4.6,11
	c-0.2,4.4-3.3,11.6-0.5,15.6c2.6,3.7,7.3,1.6,10.1-0.8c4.6-3.9,6.1-10,5.4-15.8c-1.1-8.8-9.7-16.9-2.6-25c3.3-3.7,7.8-5.7,12.7-6.4
	c4.4-0.6,9.2,0.3,12.4-3.6c8.5-10.3-3.8-17.9-12.6-19.2c-12-1.8-23.2-2-30.5,8.9c-5.6,8.3-11.5,15.4-18.1,3.4L265,82
	c-9.9-5.9-19,3.3-22,12.9C239.9,105.1,249.4,111.5,258.7,109.7z"/>
<path class="st157" d="M193.4,215.8c-8-13.3-20,0.9-29.5-7.4c-12.7-11.1,8.5-30.1,13-40c2.2-4.8,5-12.7-1.7-15.1
	c-6.7-2.4-16.6,3.8-22.3,6.7l-4,6c0,5,0.2,10,0,15c-0.2,5.5-3.7,9.2-4.2,14.6c-4.2,0.8-8.3,1.5-12.5,2c1,6.6,1.1,13.3,0.8,19.9
	c4-0.8,8.4-0.6,11.8,1.3c5.4,3.1,4.1,8.6,5.2,13.9c2.8,14.4,20.6,14.8,31.7,9.8C191.7,238.3,199.6,226.1,193.4,215.8z"/>
<path class="st157" d="M261,221.7c7.9-1.2,20.2,7,26.3-0.4c4.6-5.5,3.8-20.3-2.9-24.1c-11.9-6.7-23.1,7-33.5,9.1
	c-9.2,1.9-12.1-15.6-14.4-22c-0.1-1.5-0.7-2.3-0.7-2.3c-8.6-8.4-20-4.2-25.2,6.1c-2.8,5.5-2.6,11.7,1.2,16.6c3,3.9,8.9,6,10.9,10.7
	c3.8,9.2-7.5,18.1-8.9,26.6c-1.3,8.1,5.1,19.8,14.4,18.1c12.3-2.2,12.9-15.9,15.7-25.2C246.1,228.2,254,222.8,261,221.7z"/>
<path class="st157" d="M289.5,164.6c-4.2,6.6-12.8,18.6,0.4,19.4c9.5,0.6,22.1-1.2,26.4,10.2c3.5,9.3-2.3,19.7-1,29.5
	c5,7.3,16,3.9,20.4-1.5c2.9-3.6,1.8-9.1,2.2-13.3c0.4-3.6-5.6-10.9,0-20.7c3.1-5.5,8.5-4.7,11.2-6c7.5-3.5,17.1,1.5,18.1-9.1
	c0.9-9-0.2-17.4-8.4-22.3c-9.4-5.6-17.1-1.1-24.9,5.1c-4.7,3.7-11.5,18.4-18.4,14.5c-4.3-2.4,2.4-12.3-0.6-18.3s-9.7-6.1-14.1-4.6
	C292.5,150.2,292.5,160,289.5,164.6z"/>
<path class="st157" d="M318.6,123.5c1,9.8,14.7,10.9,21.9,9.4c8.5-1.8,19.7-10.9,28.6-7.1c8.6,3.7,4.3,16.4,12.6,19.8
	c12.5,5.3,19-13.5,17.5-22.5c-2.1-11.9-11.1-18.8-17.3-28.4c-2.9-4.4-3.3-8.5-3-13.7c0.3-4.6,1.8-10-1.9-13.7
	c-6.5-6.4-18.7-4.1-23.3,2.8c-2.6,3.9-5.6,10.1-3.3,14.7c2.2,4.4,7.8,5.8,9.3,10.9C362.6,106.7,345,106,345,106
	C335.7,105.5,317.3,111.2,318.6,123.5z"/>
<path class="st157" d="M391.2,37.7c-2.1,11,2.1,17.2,8.2,25.6c3.2,4.3,4.9,8.1,3.6,13.5c-1,4.7-4.6,8.8-4.2,13.8
	c0.7,8.3,10.8,11.3,17.8,9.5c24.7-6.3-7-43.7,20.4-42.3c4.1,0.2,7.8,0.3,11.9,0.2c3.9-0.1,9.2,1.2,12.7-0.9c2.2-1.3,3.8-4.2,4.7-7.3
	c-19.7-8.9-41.9-17.4-64.8-25C396.4,27.2,392.4,31.5,391.2,37.7z"/>
<path class="st157" d="M270.3,340.4c10.2-1.5,14.1-10.6,15.3-19.7c0.9-7,4.4-25,16.1-17.7c4.7,2.9,10,17.4,27,9
	c10.2-5,14.4-25.5,6.8-34.1c-4.4-4.9-10.7-3.4-16.7-3.6c-4.1-0.1-13.9-0.3-16.6-3.8c-2-2.6-0.1-5.7-0.6-8.5
	c-0.3-1.7-1.4-2.9-1.5-4.6c-0.3-2.7-3-8.7-3-8.7c-2-4.1-8.1-6.6-12-7.3c-6.2-1.1-12.6,0.4-17.3,5.6c-8.3,9.1-2.3,16,3.6,23.6
	c7.7,9.9,2.3,17-5,25.2c-4.3,4.8-7.7,8.3-8.9,14.6c-1.4,7.1-4.4,16.9-0.7,23.7C259.3,338.9,264.9,341.1,270.3,340.4z"/>
<path class="st157" d="M209.5,284.1c-8.4-4.3-8.9-13.9-14.7-20.4c-8-8.8-20.2-2.1-25.1,6.7c-6.3,11.3,0.3,18.3,8.2,25.7
	c7.7,7.2,8.5,15.9,1.2,23.9c-8.7,9.5-21.6,14.2-21,29.3c0.7,15.7,18,31,32.5,19.4c6.7-5.3,9.8-14.2,11.4-22.3
	c1.3-6.9,0.3-15,2.6-21.6c3.7-10.6,18.8-8.4,27.2-12.9c9.1-4.9,11.7-15.3,10.5-23.9c0,0-0.7-6.7-6-6.7
	C231,281.3,219.3,289.1,209.5,284.1z"/>
<path class="st157" d="M272.2,408.2c5,1,10.2,4.7,15.3,4.5c6.5-0.2,9.4-6.8,10.7-12.4c3.3-14-3.4-20.6-16.9-18.4
	c-7.8,1.3-27.7,9.2-33.6,0.3c-3.7-5.5,1.1-13.3,1.7-19c0.9-8.7-3-14.3-3-14.3c-2.7-4.3-7.6-6.1-13.3-5.4c-5.6,0.6-9.3,5.9-10.5,10.9
	c-2.8,12.2,3.4,23.4,7.4,34.4c4.5,12.3-2.1,18.8-8.4,28.3c-6.7,9.9-0.3,29.1,13.8,25.7c11.3-2.7,11.5-18.2,16.8-26.4
	C257.1,409,263.4,406.4,272.2,408.2z"/>
<path class="st157" d="M359.6,357.2c5.8-2.5,12.8,0.9,18.7-1.4c7.1-2.8,8.9-11.7,9.4-18.5c0.6-7.3,0-17.1-7.3-21
	c-7-3.7-16.8-0.5-23.3,2.8c-6.6,3.4-11.3,8.2-15.4,14.3c-2.9,4.3-5.6,9-11,10.4c-9.4,2.3-14.7-21.9-26.5-11.8
	c-4.4,3.2-8.4,7.3-8.2,13.1c0.2,6.5,5.3,11.1,11.1,13c6.3,2.1,13.1,1.5,18.6,5.7c6.7,5.1,8.7,13.9,9.8,21.8
	c0.6,4.5-0.3,12.5,5.1,14.4c4.6,1.6,12.2-3,14.8-6.5C362.7,383.7,347,362.4,359.6,357.2z"/>
<path class="st157" d="M408.8,226.1c-4.8-0.8-10.5-0.7-15.3,0.4c-6.1,1.4-10.2,6.1-15.6,8.9c-9.2,4.8-12.9-6.3-21.2-6.3H355
	c0.6-1,1.1-0.5,1.7-0.5c0,0-13.1-0.5-20.4,6.1c-9.5,8.7-4.7,19.9,6.9,22.6c10.1,2.3,22.3-0.5,24.1,12.9c1.1,8.1-5.4,21.2,5.8,24.1
	c4.6,1.2,10.6,0.2,13.8-3.5c4-4.6,2.3-11.3,1.7-16.8c-1.2-11.1,4.5-16.3,15.2-18.2c6.5-1.2,19.7,4.9,23-2.7
	C431.6,242.3,418.7,227.7,408.8,226.1z"/>
<path class="st157" d="M413.1,191.8c-9.8,8.9-21.3-3-27.4-10.1c-3.1-3.7-7.3,4.7-10.6,10.1c-2.4,4.2-3.5,8.9-0.1,13.6
	c7.2,9.9,22,4.1,30.4-0.5c7-3.9,17.2-11.4,22.6-1.4c3.2,6.1,1.7,23.9,12,22.5c11.5-1.5,14.8-16.5,15.1-25.7
	c0.6-15.9-1.1-34.9-10.6-48.2c-5.2-7.2-16.3-18.8-26.2-16.6c-11.6,2.5-21.2,20.7-16.2,31.6C405.5,174.5,423.7,182.2,413.1,191.8z"/>
<path class="st157" d="M162.5,468.3c3.4,11.1,11.6,23.5,24.5,16.2c7.4-4.2,14.2-14.1,12.1-22.9c-2.4-9.8-13.8-14.6-15.9-24.7
	c-2.5-12.2,11.3-17.9,17.6-25.9c4-5.1,8-22-3.5-20.6c-11,1.3-16.2,16.2-28.6,15.5c-9.8-0.6-16.5-10.2-27-8
	c-10.3,2.2-12.1,12.2-10.8,21.2h-1.4c5.3,8,11.1,15.2,20.3,20.2C160.8,445.2,159.2,457.4,162.5,468.3z"/>
<path class="st157" d="M315.6,440.1c-7.1-0.5-13,0.5-19,4.4c-4.1,2.6-8.3,7.2-13.6,5c-7.7-3.3-8.2-11.9-13.5-15.8
	c-1.9-1.4-3-2.7-6.7-2.3c-0.1,0-2.5,1.3-2.5,1.3c-3.8,3.5-3.5,12.5-1.8,18.4c2.9,10.4,15.5,16.5,12.9,28.2
	c-2.2,10.3-11.3,19.1-8,30.4c2.8,9.5,17,12.1,24.9,7.4c10.5-6.4,4.5-22.3,8-32c2.8-7.9,10.9-11,18.6-11.3c4.2-0.2,8.4,0.4,12-2.2
	c4.7-3.3,6.7-10.2,7.7-15.4C337.4,442.4,327,440.9,315.6,440.1z"/>
<path class="st157" d="M222.1,518c-1.7-6.7,2.7-13.1,5.4-18.9c2.6-5.6,3.7-10.8,3.2-17c-0.5-0.8-1.7-2.2-1.7-2.2
	c-4.1-3-9.6-7.1-15-5c-6.5,2.6-8.5,12.6-9.9,18.5c-3.2,13.4-4.7,25.8-21.5,22.8c-10.4-1.9-23.2-10-33.8-4.7
	c-13.7,7-7.2,23.5,2.9,30.3c5.3,3.5,11.8,5.6,18.1,4.1c5.8-1.4,10.2-5.6,15.6-7.8c12.6-5.2,21.3,3.2,26.5,13.8
	c5.6,11.2,15.3,18.4,28.5,17.5c12.7-0.8,15.9-14,11.3-24.3C246.1,532.2,225.5,531.9,222.1,518z"/>
<path class="st157" d="M474.8,310.3c-1.9-16.7-14.4-19.9-28.3-13.6c-3.9,1.8-11,7.2-15.6,5.8c-4.3-1.3-4.6-7.5-5.1-11.2
	c-1-6.5-9.4-7.4-13.7-6.2c-6.4,1.8-11.7,5.5-14,13c-3.4,10.9,2.5,18.7,9.2,26.5c8.1,9.5,8.5,18.5,4.5,30.1
	c-2.8,8.1-11.1,22.6,0.6,27.5c11,4.6,21.3-4,22.2-14.8c0.8-9.2-5.1-23.4,3.9-29.9c7.9-5.8,18.2-1.8,26.9-4.3
	c2.1-0.6,3.8-1.7,5.1-3.2c1.4-1.7,2.5-3.8,3.5-6.6C475.2,319.2,475.2,314.3,474.8,310.3z"/>
<path class="st157" d="M392.2,404.3c-0.8-4.7,0-9.8-2.3-14.3c-1.4-2.9-6.2-4.5-9.7-4.1c-1.8,0.1-3.5,0.5-5.1,1.1
	c-8.9,3.5-13,14.7-8.4,24.4c4.3,9,16.8,18.2,5.1,26.2c-9.5,6.4-13.9,9.7-12.7,22.3c0.5,5.8,1.6,12.3,7.4,15
	c5.7,2.6,16.4,2.4,22.2,0.1c10.4-4.1,7.1-20.3,8.2-29.2c1.6-13.3,16.7-11.9,27.4-12.5c4.8-0.3,10.9,2.6,15.4,1.3
	c6-1.8,7.6-10.6,6.5-15.9c-2.6-12.6-17-15.3-27.3-11c-5.4,2.2-9.8,6.5-15.6,7.8C394,417.6,393.4,411.5,392.2,404.3z"/>
<path class="st157" d="M388.1,509.4c-11.6,0.1-23.9,7.4-35.5,4.2c-8.7-2.4-13.3-11.8-17-20.2c0,0-1.3-4-3.9-4.7
	c-7.6-1.1-15.6,0.1-19.8,7.6c-2.6,4.6-1.3,9,1.9,12.9c2.6,3.2,10.1,6.3,11.3,10.3c1.1,3.6-2.6,6.3-4.6,8.9
	c-3.6,4.6-6.3,9.6-7.5,15.3c-2.3,10.8,3.3,18.3,13.6,22.1c5.9,2.2,13,2.7,17.8-2c4.7-4.5,4.6-11.2,6.8-16.9
	c3.9-9.8,15.7-8.9,24.6-8.9c9.7,0,23.7,1.5,26.8-10.6C405.2,517.2,398.1,509.3,388.1,509.4z"/>
<path class="st157" d="M455.2,458.3c-3.3,2.9-1.8,10.3-8.2,10.8s-8-11.1-8-11.1c-14.6-5.8-23.2,0.3-24.4,16.1
	c-0.4,5.3-0.8,11,4.2,14.1c4.1,2.6,9.6,1.1,13.8,3.3c4.8,2.6,7.2,9.8,8,14.8c1,6.2-2.7,11.4-2.2,17.2c0.9,9.5,17.9,16.1,21.8,5.4
	c2.5-7-0.3-14.9,1.4-22c1.3-5.6,4.9-10.7,9.4-14.2c1.5-1.1,3-2.1,4.5-3.1c-0.1-11.5-0.3-23.5-0.4-35.7
	C468.4,452.2,460.3,453.8,455.2,458.3z"/>
<path class="st157" d="M292.4,553.5c-5.3-4.6-15.6,0.1-20.4,3.5c-6,4.3-5.9,7-1.6,12.1c4.7,5.5,8.3,12.3,6.8,19.8
	c-0.6,2.8-1.9,5.3-3.6,7.5c7.2,0.1,14.5,0.2,21.9,0.2c2.2,0,4.4,0,6.6,0c-1.2-3.2-3.2-6-4.3-9.4
	C294.6,577.3,301.5,561.4,292.4,553.5z"/>
<path class="st157" d="M434.3,586.6c-3.1-2.1-5.5-2.3-6.7-6.3c-1.4-4.3-0.2-9.8-0.7-14.3c-0.9-8.5-1.9-10.4-10.2-9.8
	c-12.2,0.8-35.3,9.8-29,25.2c1.7,4.2,3.2,8.3,4.2,12.6c17-1.1,32.5-2.6,45.4-4.6C436.5,588.4,435.5,587.4,434.3,586.6z"/>
<path class="st157" d="M464,252c1.4-5.7-2.3-12.5-0.8-18.4c-4.4-0.4-8.8,0.1-12.1,2.1c-5.7,3.5-10.3,9.9-10.1,16.4
	c0.3,13.8,7.5,20.2,21,20c0.3,0,0.6,0,1,0C461.8,265.3,462.1,258.5,464,252z"/>
<path class="st157" d="M132.8,323.5c3.8,5.6,5.6,4.2,9.1-0.7c2-2.9,4.4-5.8,6.1-8.9c1.3-2.4,3.6-5.4,4.5-7.9c1.7-4.6-1.2-9-2.7-13.2
	c-2.3-6.8-13-14.2-16.6-12.6s-6.9,9.5-7.3,14.1c-0.3,3.5,0,20.8,6.2,29.2"/>
<path class="st157" d="M96,100c0,0,12-4,9-14s7-4,13,3s21-2,17,9s-9,31-2,38s-4,31-9,18S104,101,96,100z"/>
<path class="st157" d="M466,75c-7.6,7.2-33-3-27,11s19,24,11,29s-15,22-1,20s18-29,28-24s13,4,13,4l16-14c0,0-11-16-3-21
	S488,54,466,75z"/>
<g>
	<g>
		<g>
			<path class="st158" d="M301.3,232.5c-12.3,0-21-3.6-25.9-10.8c-3.7-5.3-3.8-10.8-3.8-10.8V173h59.5v37.9c0,0.1-0.1,5.5-3.8,10.8
				C322.5,228.8,313.7,232.5,301.3,232.5z"/>
			<path class="st155" d="M329.4,174.8v36.1c0,0.2-0.1,5.1-3.5,9.9c-2,2.8-4.7,5.1-8.1,6.7c-4.4,2.1-10,3.2-16.5,3.2
				c-6.5,0-12-1.1-16.4-3.2c-3.4-1.6-6.1-3.9-8-6.7c-3.4-4.8-3.5-9.7-3.5-10v-36.1H329.4 M332.9,171.2h-63v39.6
				c0,0,0.1,23.4,31.4,23.4c31.6,0,31.6-23.4,31.6-23.4V171.2L332.9,171.2z"/>
		</g>
	</g>
	<g>
		<path d="M281.9,176.6c0.2-0.1,0.6-0.1,1-0.1c0.4,0,0.7,0.1,1,0.2c0.2,0.2,0.4,0.5,0.4,0.8c0,0.4-0.1,0.7-0.5,0.9v0
			c0.4,0.1,0.6,0.5,0.6,1c0,0.4-0.1,0.6-0.3,0.9c-0.2,0.2-0.6,0.4-1.3,0.4c-0.4,0-0.6,0-0.8-0.1L281.9,176.6L281.9,176.6z
			 M282.7,178.2h0.1c0.3,0,0.5-0.2,0.5-0.4c0-0.2-0.1-0.4-0.4-0.4c-0.1,0-0.2,0-0.2,0L282.7,178.2L282.7,178.2z M282.7,179.9
			c0,0,0.1,0,0.2,0c0.3,0,0.5-0.2,0.5-0.5c0-0.4-0.2-0.5-0.5-0.5h-0.2L282.7,179.9L282.7,179.9z"/>
		<path d="M284.7,176.6c0.2-0.1,0.6-0.1,1-0.1c0.5,0,0.8,0.1,1,0.3c0.2,0.2,0.3,0.5,0.3,0.9c0,0.5-0.3,0.8-0.6,1v0
			c0.2,0.1,0.3,0.4,0.4,0.7c0.1,0.4,0.2,1,0.2,1.2h-0.9c0-0.1-0.1-0.5-0.2-1c-0.1-0.5-0.2-0.6-0.4-0.6h-0.1v1.5h-0.8L284.7,176.6
			L284.7,176.6z M285.6,178.3h0.2c0.3,0,0.5-0.2,0.5-0.5s-0.1-0.5-0.4-0.5c-0.1,0-0.2,0-0.2,0C285.6,177.3,285.6,178.3,285.6,178.3z
			"/>
		<path d="M288.4,179.7l-0.1,0.9h-0.9l0.9-4h1.1l0.9,4h-0.9l-0.2-0.9H288.4z M289,178.9l-0.1-0.7c0-0.2-0.1-0.6-0.1-0.8l0,0
			c0,0.2-0.1,0.6-0.1,0.8l-0.1,0.7H289z"/>
		<path d="M291.3,176.6v2.4c0,0.6,0.1,0.9,0.5,0.9c0.3,0,0.4-0.2,0.4-0.9v-2.4h0.9v2.3c0,1.2-0.4,1.8-1.3,1.8s-1.3-0.6-1.3-1.8v-2.2
			L291.3,176.6L291.3,176.6L291.3,176.6z"/>
		<path d="M293.6,180.6v-4.1h0.9l0.5,1.3c0.1,0.3,0.3,0.9,0.5,1.3h0c0-0.5-0.1-1.1-0.1-1.8v-0.8h0.8v4h-0.8l-0.5-1.3
			c-0.1-0.4-0.3-0.9-0.5-1.4h0c0,0.5,0,1.1,0,1.8v0.9L293.6,180.6C293.6,180.6,293.6,180.6,293.6,180.6z"/>
		<path d="M296.8,179.6c0.2,0.1,0.5,0.2,0.8,0.2c0.3,0,0.4-0.1,0.4-0.4c0-0.2-0.1-0.3-0.5-0.5c-0.5-0.3-0.8-0.7-0.8-1.2
			c0-0.7,0.4-1.2,1.2-1.2c0.3,0,0.6,0.1,0.8,0.2l-0.1,0.8c-0.1-0.1-0.4-0.2-0.6-0.2c-0.3,0-0.4,0.1-0.4,0.3c0,0.2,0.2,0.3,0.6,0.5
			c0.5,0.3,0.8,0.7,0.8,1.2c0,0.7-0.5,1.3-1.3,1.3c-0.4,0-0.7-0.1-0.9-0.2L296.8,179.6z"/>
		<path d="M301.5,180.5c-0.1,0.1-0.4,0.1-0.7,0.1c-1.1,0-1.6-0.9-1.6-2c0-1.4,0.8-2.1,1.7-2.1c0.3,0,0.6,0.1,0.7,0.2l-0.1,0.8
			c-0.1-0.1-0.3-0.1-0.5-0.1c-0.5,0-0.9,0.4-0.9,1.2c0,0.8,0.3,1.2,0.9,1.2c0.2,0,0.4-0.1,0.5-0.1L301.5,180.5z"/>
		<path d="M302.8,176.6v1.5h0.9v-1.5h0.9v4h-0.9V179h-0.9v1.6h-0.9v-4H302.8z"/>
		<path d="M305.6,180.6l-0.7-4h0.9l0.2,1.5c0,0.4,0.1,1,0.1,1.4l0,0c0-0.5,0.1-0.9,0.2-1.4l0.2-1.5h0.9l0.2,1.5
			c0.1,0.4,0.1,0.9,0.2,1.4l0,0c0-0.5,0.1-0.9,0.1-1.4l0.2-1.5h0.9l-0.8,4.1h-0.9l-0.2-1.4c0-0.4-0.1-0.8-0.1-1.2l0,0
			c0,0.5-0.1,0.9-0.1,1.2l-0.2,1.4H305.6z"/>
		<path d="M311.1,179H310v0.8h1.2v0.8h-2v-4h1.9v0.8h-1.1v0.7h1L311.1,179L311.1,179z"/>
		<path d="M312.5,176.6v4h-0.9v-4H312.5z"/>
		<path d="M315.7,180.4c-0.2,0.1-0.6,0.2-1,0.2c-0.6,0-1-0.2-1.2-0.5c-0.3-0.4-0.5-0.9-0.5-1.5c0-1.4,0.8-2.1,1.8-2.1
			c0.4,0,0.7,0.1,0.9,0.2l-0.1,0.8c-0.2-0.1-0.4-0.1-0.7-0.1c-0.5,0-0.9,0.4-0.9,1.2c0,0.8,0.4,1.2,0.8,1.2c0.1,0,0.2,0,0.2,0v-0.7
			h-0.4v-0.8h1.2L315.7,180.4L315.7,180.4z"/>
		<path d="M318.1,179H317v0.8h1.2v0.8h-2v-4h1.9v0.8h-1.1v0.7h1L318.1,179L318.1,179z"/>
		<path d="M318.7,176.6c0.2-0.1,0.6-0.1,1-0.1c0.5,0,0.8,0.1,1.1,0.3c0.2,0.2,0.3,0.5,0.3,0.9c0,0.5-0.3,0.8-0.5,1v0
			c0.2,0.1,0.3,0.4,0.4,0.7c0.1,0.4,0.2,1,0.2,1.2h-0.9c0-0.1-0.1-0.5-0.2-1c-0.1-0.5-0.2-0.6-0.4-0.6h-0.1v1.5h-0.8L318.7,176.6
			L318.7,176.6z M319.5,178.3h0.2c0.3,0,0.5-0.2,0.5-0.5s-0.2-0.5-0.4-0.5c-0.1,0-0.2,0-0.2,0V178.3z"/>
		<path d="M275.3,183.1h-0.8v-0.9h2.4v0.9h-0.8v3.1h-0.9V183.1z"/>
		<path d="M278.1,182.2v2.4c0,0.6,0.1,0.9,0.5,0.9c0.3,0,0.4-0.2,0.4-0.9v-2.4h0.8v2.3c0,1.2-0.5,1.8-1.3,1.8
			c-0.9,0-1.3-0.6-1.3-1.8v-2.2L278.1,182.2L278.1,182.2z"/>
		<path d="M280.5,182.3c0.2,0,0.6-0.1,1-0.1c0.5,0,0.8,0.1,1,0.3c0.2,0.2,0.3,0.5,0.3,0.9c0,0.5-0.3,0.9-0.5,1v0
			c0.2,0.1,0.3,0.4,0.4,0.7c0.1,0.4,0.2,1,0.2,1.1H282c0-0.1-0.1-0.4-0.2-0.9c-0.1-0.5-0.2-0.6-0.4-0.6h-0.1v1.5h-0.8L280.5,182.3
			L280.5,182.3z M281.3,184h0.2c0.3,0,0.5-0.2,0.5-0.5s-0.1-0.5-0.4-0.5c-0.1,0-0.2,0-0.2,0V184z"/>
		<path d="M283.3,186.3v-4h0.9l0.5,1.3c0.1,0.4,0.3,0.9,0.4,1.3h0c-0.1-0.5-0.1-1.1-0.1-1.8v-0.8h0.8v4H285l-0.5-1.4
			c-0.1-0.4-0.4-0.9-0.5-1.4h0c0,0.5,0,1.1,0,1.8v0.9L283.3,186.3C283.3,186.2,283.3,186.3,283.3,186.3z"/>
		<path d="M287.5,184.3v0.7h-1.2v-0.7H287.5z"/>
		<path d="M289.7,182.2v2.4c0,0.6,0.1,0.9,0.4,0.9c0.3,0,0.5-0.2,0.5-0.9v-2.4h0.9v2.3c0,1.2-0.5,1.8-1.3,1.8s-1.3-0.6-1.3-1.8v-2.2
			L289.7,182.2L289.7,182.2z"/>
		<path d="M292,186.3v-4h0.9l0.5,1.3c0.2,0.4,0.3,0.9,0.5,1.3h0c0-0.5-0.1-1.1-0.1-1.8v-0.8h0.8v4h-0.9l-0.5-1.4
			c-0.2-0.4-0.4-0.9-0.5-1.4h0c0,0.5,0,1.1,0,1.8v0.9L292,186.3C292,186.2,292,186.3,292,186.3z"/>
		<path d="M295.2,182.3c0.2,0,0.6-0.1,0.9-0.1c0.6,0,1,0.1,1.2,0.4c0.4,0.3,0.6,0.8,0.6,1.6c0,0.8-0.2,1.4-0.6,1.7
			c-0.3,0.3-0.8,0.4-1.4,0.4c-0.4,0-0.6,0-0.8-0.1L295.2,182.3L295.2,182.3z M296,185.5c0.1,0,0.1,0,0.1,0c0.5,0,0.9-0.4,0.9-1.3
			c0-0.8-0.3-1.2-0.8-1.2c-0.1,0-0.2,0-0.2,0V185.5z"/>
		<path d="M299.3,185.3c0.2,0.1,0.5,0.2,0.8,0.2c0.3,0,0.5-0.2,0.5-0.4s-0.1-0.3-0.5-0.5c-0.5-0.3-0.8-0.7-0.8-1.2
			c0-0.7,0.5-1.2,1.2-1.2c0.4,0,0.6,0.1,0.8,0.2l-0.2,0.8c-0.1-0.1-0.3-0.2-0.6-0.2c-0.3,0-0.4,0.1-0.4,0.3c0,0.2,0.1,0.3,0.6,0.5
			c0.5,0.3,0.8,0.7,0.8,1.2c0,0.7-0.5,1.3-1.3,1.3c-0.4,0-0.7-0.1-0.9-0.2L299.3,185.3z"/>
		<path d="M301.8,182.3c0.2,0,0.6-0.1,1-0.1c0.5,0,0.8,0.1,1,0.3c0.2,0.2,0.4,0.6,0.4,1c0,0.4-0.1,0.8-0.3,1c-0.2,0.3-0.6,0.4-1,0.4
			c-0.1,0-0.1,0-0.2,0v1.4h-0.8L301.8,182.3L301.8,182.3z M302.6,184.1c0,0,0.1,0,0.2,0c0.3,0,0.5-0.2,0.5-0.6
			c0-0.3-0.1-0.5-0.5-0.5c-0.1,0-0.2,0-0.2,0V184.1z"/>
		<path d="M305.8,186.3c-0.9,0-1.4-1-1.4-2.1c0-1.1,0.5-2.1,1.5-2.1c1,0,1.4,1,1.4,2C307.3,185.6,306.7,186.3,305.8,186.3
			L305.8,186.3z M305.8,185.5c0.4,0,0.6-0.5,0.6-1.2c0-0.7-0.2-1.2-0.6-1.2c-0.4,0-0.6,0.5-0.6,1.2
			C305.2,185,305.5,185.5,305.8,185.5L305.8,185.5z"/>
		<path d="M307.7,182.3c0.2,0,0.6-0.1,1-0.1c0.5,0,0.8,0.1,1,0.3c0.2,0.2,0.3,0.5,0.3,0.9c0,0.5-0.3,0.9-0.5,1v0
			c0.2,0.1,0.3,0.4,0.4,0.7c0.1,0.4,0.2,1,0.2,1.1h-0.9c0-0.1-0.1-0.4-0.2-0.9c-0.1-0.5-0.2-0.6-0.4-0.6h-0.1v1.5h-0.8L307.7,182.3
			L307.7,182.3z M308.6,184h0.2c0.3,0,0.5-0.2,0.5-0.5s-0.1-0.5-0.4-0.5c-0.1,0-0.2,0-0.2,0V184z"/>
		<path d="M311.1,183.1h-0.8v-0.9h2.4v0.9H312v3.1h-0.9V183.1z"/>
		<path d="M313.9,186.3l-0.9-4h0.9l0.3,1.6c0.1,0.4,0.2,0.9,0.2,1.4l0,0c0.1-0.5,0.1-1,0.2-1.4l0.3-1.6h0.9l-0.9,4H313.9z"/>
		<path d="M318.1,184.6H317v0.8h1.2v0.9h-2v-4h1.9v0.8H317v0.7h1.1L318.1,184.6C318.1,184.6,318.1,184.6,318.1,184.6z"/>
		<path d="M318.7,182.3c0.2,0,0.6-0.1,1-0.1c0.5,0,0.8,0.1,1,0.3c0.2,0.2,0.3,0.5,0.3,0.9c0,0.5-0.3,0.9-0.6,1v0
			c0.2,0.1,0.3,0.4,0.4,0.7c0.1,0.4,0.2,1,0.2,1.1h-0.9c-0.1-0.1-0.1-0.4-0.2-0.9c-0.1-0.5-0.2-0.6-0.4-0.6h-0.1v1.5h-0.8
			L318.7,182.3L318.7,182.3z M319.5,184h0.2c0.3,0,0.5-0.2,0.5-0.5s-0.1-0.5-0.4-0.5c-0.1,0-0.2,0-0.2,0V184z"/>
		<path d="M323.4,184.6h-1v0.8h1.2v0.9h-2v-4h2v0.8h-1.1v0.7h1L323.4,184.6C323.4,184.6,323.4,184.6,323.4,184.6z"/>
		<path d="M324.8,182.2v4H324v-4H324.8z"/>
		<path d="M325.4,186.3v-4h0.9l0.5,1.3c0.1,0.4,0.3,0.9,0.4,1.3h0c0-0.5-0.1-1.1-0.1-1.8v-0.8h0.8v4h-0.9l-0.5-1.4
			c-0.2-0.4-0.4-0.9-0.5-1.4l0,0c0,0.5,0,1.1,0,1.8v0.9L325.4,186.3L325.4,186.3z"/>
		<path d="M276.7,190.3h-1v0.8h1.2v0.9h-2v-4h2v0.9h-1.1v0.7h1V190.3z"/>
		<path d="M278.1,187.9v4h-0.9v-4H278.1z"/>
		<path d="M278.7,191.9v-4h0.9l0.5,1.3c0.1,0.4,0.3,0.9,0.5,1.3h0c-0.1-0.5-0.1-1.1-0.1-1.8v-0.9h0.8v4h-0.9l-0.5-1.4
			c-0.1-0.4-0.4-0.9-0.5-1.4h0c0,0.5,0,1.1,0,1.8v0.9L278.7,191.9C278.7,191.9,278.7,191.9,278.7,191.9z"/>
		<path d="M282.4,188.8h-0.8v-0.9h2.4v0.9h-0.8v3.1h-0.9V188.8z"/>
		<path d="M284.4,188c0.2,0,0.6-0.1,1-0.1c0.5,0,0.8,0.1,1.1,0.3c0.2,0.2,0.3,0.5,0.3,0.9c0,0.5-0.3,0.8-0.5,1v0
			c0.2,0.1,0.3,0.4,0.4,0.7c0.1,0.4,0.2,1,0.2,1.2H286c-0.1-0.1-0.1-0.4-0.2-0.9c-0.1-0.5-0.2-0.6-0.4-0.6h-0.1v1.5h-0.8L284.4,188
			L284.4,188z M285.2,189.7h0.2c0.3,0,0.5-0.2,0.5-0.5s-0.1-0.5-0.4-0.5c-0.1,0-0.2,0-0.2,0C285.2,188.7,285.2,189.7,285.2,189.7z"
			/>
		<path d="M288,191.1l-0.1,0.9H287l0.9-4h1.1l0.9,4H289l-0.2-0.9L288,191.1L288,191.1z M288.7,190.3l-0.1-0.7
			c-0.1-0.2-0.1-0.6-0.1-0.8l0,0c-0.1,0.2-0.1,0.6-0.1,0.8l-0.1,0.7H288.7z"/>
		<path d="M292.3,191.9c-0.1,0-0.4,0.1-0.7,0.1c-1.1,0-1.6-1-1.6-2c0-1.5,0.8-2.1,1.7-2.1c0.3,0,0.6,0.1,0.7,0.1l-0.1,0.8
			c-0.1-0.1-0.3-0.1-0.5-0.1c-0.5,0-0.9,0.4-0.9,1.2c0,0.8,0.3,1.2,0.9,1.2c0.2,0,0.4-0.1,0.5-0.1L292.3,191.9z"/>
		<path d="M293.6,187.9v1.5h0.9v-1.5h0.9v4h-0.9v-1.6h-0.9v1.6h-0.9v-4H293.6z"/>
		<path d="M296.5,188.8h-0.8v-0.9h2.4v0.9h-0.8v3.1h-0.9V188.8z"/>
		<path d="M300,191.9l-1-4h0.9l0.3,1.6c0.1,0.4,0.2,0.9,0.2,1.4l0,0c0.1-0.5,0.1-1,0.2-1.4l0.3-1.6h0.9l-1,4H300z"/>
		<path d="M303.5,192c-0.9,0-1.4-1-1.4-2.1c0-1.1,0.5-2.1,1.5-2.1c1,0,1.4,1,1.4,2C305,191.2,304.4,192,303.5,192L303.5,192z
			 M303.5,191.2c0.4,0,0.6-0.5,0.6-1.2c0-0.7-0.2-1.2-0.6-1.2c-0.3,0-0.6,0.5-0.6,1.2C303,190.7,303.2,191.2,303.5,191.2
			L303.5,191.2z"/>
		<path d="M305.4,191.9v-4h0.9l0.5,1.3c0.1,0.4,0.3,0.9,0.5,1.3h0c-0.1-0.5-0.1-1.1-0.1-1.8v-0.9h0.8v4h-0.9l-0.5-1.4
			c-0.1-0.4-0.4-0.9-0.5-1.4h0c0,0.5,0,1.1,0,1.8v0.9L305.4,191.9L305.4,191.9L305.4,191.9z"/>
		<path d="M318.8,189L318.8,189l-0.6,0.4l-0.1-0.8l0.9-0.5h0.7v3.9h-0.8V189z"/>
		<path d="M321.7,188c0.7,0,1,0.5,1,1c0,0.3-0.1,0.6-0.4,0.8l0,0c0.3,0.2,0.5,0.5,0.5,1c0,0.7-0.5,1.2-1.2,1.2
			c-0.8,0-1.1-0.5-1.1-1.1c0-0.5,0.2-0.8,0.5-1l0,0c-0.3-0.2-0.4-0.5-0.4-0.9C320.6,188.4,321.1,188,321.7,188L321.7,188z
			 M321.7,191.3c0.2,0,0.3-0.2,0.3-0.4c0-0.3-0.2-0.5-0.4-0.6c-0.2,0.1-0.3,0.3-0.3,0.5C321.3,191.1,321.5,191.3,321.7,191.3
			L321.7,191.3z M321.7,188.7c-0.2,0-0.3,0.2-0.3,0.4c0,0.2,0.1,0.4,0.4,0.5c0.1-0.1,0.2-0.2,0.2-0.4
			C321.9,188.9,321.9,188.7,321.7,188.7L321.7,188.7z"/>
		<path d="M323.4,191.2c0.1,0,0.2,0,0.3,0c0.2,0,0.4-0.1,0.5-0.2c0.2-0.1,0.3-0.4,0.4-0.6l0,0c-0.1,0.1-0.3,0.2-0.6,0.2
			c-0.5,0-0.9-0.4-0.9-1.2c0-0.7,0.5-1.4,1.2-1.4c0.8,0,1.2,0.8,1.2,1.7c0,0.8-0.2,1.4-0.6,1.8c-0.3,0.3-0.7,0.5-1.2,0.5
			c-0.1,0-0.2,0-0.3,0L323.4,191.2L323.4,191.2z M324.2,188.7c-0.2,0-0.3,0.2-0.3,0.6c0,0.3,0.1,0.6,0.3,0.6c0.1,0,0.2-0.1,0.3-0.2
			c0-0.1,0-0.1,0-0.3C324.6,189.1,324.5,188.7,324.2,188.7L324.2,188.7z"/>
		<path d="M327.8,188.9h-1.1l0,0.5c0,0,0.1,0,0.1,0c0.3,0,0.6,0.1,0.8,0.3c0.2,0.2,0.3,0.5,0.3,1c0,0.7-0.5,1.4-1.4,1.4
			c-0.3,0-0.6-0.1-0.8-0.2l0.1-0.8c0.1,0.1,0.4,0.2,0.6,0.2c0.3,0,0.5-0.2,0.5-0.5c0-0.4-0.3-0.6-0.8-0.6c-0.1,0-0.2,0-0.4,0
			l0.2-2.1h1.7L327.8,188.9L327.8,188.9z"/>
		<path d="M311.7,190.3h-1.1v0.8h1.2v0.9h-2v-4h1.9v0.9h-1.1v0.7h1.1L311.7,190.3L311.7,190.3z"/>
		<path d="M312.7,192c-0.3,0-0.5-0.2-0.5-0.6s0.2-0.6,0.5-0.6s0.5,0.2,0.5,0.6S312.9,192,312.7,192L312.7,192z"/>
		<path d="M314.3,191.9l-0.9-4h0.9l0.3,1.6c0.1,0.4,0.2,0.9,0.2,1.4l0,0c0.1-0.5,0.1-1,0.2-1.4l0.3-1.6h0.9l-1,4H314.3z"/>
		<path d="M316.6,192c-0.3,0-0.5-0.2-0.5-0.6s0.2-0.6,0.5-0.6s0.5,0.2,0.5,0.6C317.1,191.8,316.9,192,316.6,192L316.6,192z"/>
	</g>
	<g>
		
			<rect x="276.6" y="209.6" transform="matrix(0.4514 0.8923 -0.8923 0.4514 344.8058 -130.13)" class="st155" width="3.2" height="11.6"/>
	</g>
	<g>
		
			<rect x="301.9" y="178.2" transform="matrix(0.4506 0.8927 -0.8927 0.4506 353.4145 -156.1015)" class="st155" width="3.2" height="61.8"/>
	</g>
	<g>
		
			<rect x="324.3" y="198.5" transform="matrix(0.4506 0.8927 -0.8927 0.4506 361.5176 -178.6652)" class="st155" width="3.2" height="11.7"/>
	</g>
	<g>
		<g>
			<path class="st159" d="M292.5,210.8c-0.1,0.1-0.3,0.1-0.3,0c-0.1-0.1-0.2-0.1-0.2,0c-0.1,0.1-0.1,0.1,0,0.2
				c0.5,0.6,0.4,1.2,0.1,1.8c-0.1,0.3-0.3,0.6-0.6,0.8c0,0-0.1,0.1-0.1,0.1s0-0.1,0-0.1c0-0.2,0-0.5,0-0.8c0-0.1,0-0.2-0.2-0.2
				c-0.2,0-0.5-0.1-0.6-0.3c0,0-0.1-0.2-0.1-0.3c0-0.1,0-0.2,0-0.3c0-0.2,0-0.4,0-0.6c-0.1-0.2-0.2-0.2-0.4-0.1
				c-0.1,0.1-0.2,0.3-0.3,0.4c-0.1,0.1-0.1,0.3-0.3,0.4c-0.2,0.3-0.5,0.3-0.9,0.1c-0.1-0.1-0.1,0-0.1,0.1c-0.1,0.2-0.1,0.4-0.2,0.6
				c0,0.1,0,0.1-0.1,0.1c-0.2-0.4-0.4-0.8-0.5-1.2c0-0.5,0.1-0.9,0.4-1.2c-0.1-0.1-0.2-0.1-0.4-0.1c-0.2-0.1-0.4-0.4-0.4-0.7
				c0-0.1,0-0.1-0.1-0.1c-0.3,0-0.6,0.1-0.8,0.2c0-0.1,0-0.2,0.1-0.2c0.2-0.4,0.5-0.8,0.8-1c0.4-0.2,0.8-0.2,1.2-0.1
				c0,0,0.1,0,0.1,0.1c0-0.3,0.1-0.5,0.2-0.8c0-0.1-0.1-0.1-0.1-0.2c-0.2-0.2-0.4-0.3-0.7-0.5c0,0,0,0-0.1,0
				c0.1-0.1,0.2-0.1,0.4-0.1c0.4-0.1,0.8-0.1,1.2,0c0.4,0.1,0.8,0.5,0.8,0.9c0,0.3,0.1,0.5,0.2,0.8c0.2,0.3,0.4,0.4,0.8,0.4
				c0.3,0,0.5-0.1,0.8-0.2c0.7-0.3,1.4-0.6,2-0.9c0.3-0.2,0.6-0.3,0.9-0.4c0.1,0,0.1-0.1,0.2-0.2c0.1-0.3,0.1-0.3-0.1-0.5
				c-0.5-0.4-0.9-1-1.2-1.5c-0.3-0.4-0.7-0.9-1.1-1.3c-0.2-0.2-0.2-0.2-0.3,0.1c-0.2,0.6-0.6,0.9-1.2,1.1c-0.3,0.1-0.6,0.2-0.9,0.2
				c0-0.1,0.1-0.2,0.2-0.3c0.1-0.2,0.2-0.4,0.4-0.5c0-0.1,0-0.1,0-0.2c-0.4-0.3-0.4-0.8-0.1-1.1c0.1-0.1,0.2-0.2,0.3-0.4
				c0.1-0.1,0.1-0.2,0-0.3c-0.1-0.1-0.2-0.1-0.3-0.1c-0.3-0.1-0.4,0.2-0.6,0.3c-0.3,0.2-0.7,0.2-0.9-0.1c0,0-0.1-0.1-0.1-0.2
				c0-0.1-0.1-0.1-0.2-0.1c-0.2,0.1-0.3,0.2-0.5,0.3c-0.1,0-0.1,0.1-0.2,0.1c0-0.5,0.2-0.9,0.4-1.3c0.2-0.4,0.6-0.6,1.1-0.6
				c-0.1-0.1-0.2-0.2-0.2-0.3c-0.1-0.3,0-0.5,0.2-0.8c0-0.1,0-0.1,0-0.1c-0.2-0.2-0.4-0.2-0.7-0.4c0,0-0.1,0-0.1-0.1
				c0.5-0.2,0.9-0.4,1.5-0.3c0.4,0,0.8,0.3,1,0.7c0,0,0,0.1,0.1,0.1c0.1-0.2,0.3-0.4,0.6-0.4c0.1-0.1,0.1-0.2,0-0.2
				c-0.1-0.2-0.1-0.5-0.2-0.7c0-0.1,0-0.1,0-0.1c0.5,0.2,0.9,0.4,1.3,0.8c0.2,0.2,0.2,0.4,0.3,0.7c0,0.1,0,0.1,0,0.2
				c-0.1,0-0.1-0.2-0.1-0.1c-0.1,0.1,0.1,0.1,0.1,0.2c0.1,0.2,0,0.2,0,0.4c-0.1,0.2-0.2,0.4-0.3,0.6c-0.1,0.4-0.1,0.8,0.3,1.1
				c0.2,0.2,0.5,0.3,0.7,0.5c1,0.6,2,1.1,2.9,1.8c0.1,0.1,0.2,0.2,0.4,0.2c0.1,0.1,0.1,0.1,0.2,0c0.6-0.3,1.3-0.5,2-0.8
				c0.4-0.2,0.8-0.3,1.2-0.5c0.1,0,0.1,0,0.1-0.1c0.1-0.1,0.2,0,0.2-0.1c0.1-0.2,0.2-0.4,0.2-0.6c0-0.2-0.1-0.2-0.2-0.2
				c-0.2,0-0.5,0.1-0.7,0.2c-0.5,0.1-1,0.3-1.5,0.4c-0.2,0-0.4,0-0.6,0c-0.1,0-0.1-0.1,0-0.1c0-0.2,0.1-0.4,0.2-0.6
				c0.1-0.2,0.1-0.4,0.1-0.6c0-0.1,0-0.1-0.1-0.1c-0.4,0.2-0.7,0.4-1,0.5c-0.6,0.2-1.3-0.1-1.5-0.7c-0.2-0.5-0.1-1,0.3-1.4
				c0.1-0.1,0.3-0.3,0.5-0.4c0,0.1,0,0.2-0.1,0.2c-0.1,0.2-0.1,0.5-0.1,0.8c0,0.2,0.2,0.4,0.4,0.5c0.4,0.1,0.7,0,1.1-0.1
				c0.1-0.1,0.2-0.1,0.4-0.2c-0.3-0.4-0.4-0.8-0.4-1.2c0-0.1,0.1-0.2,0.1-0.2c0.5-0.1,0.8-0.3,1.1-0.6c0.2-0.1,0.3-0.3,0.5-0.4
				c0.1-0.1,0.1-0.1,0.1-0.2c-0.1-0.4-0.2-0.8-0.3-1.2c-0.2-0.7-0.4-1.4-0.6-2c0,0,0-0.1,0-0.1c0.2,0.1,0.3,0.2,0.5,0.3
				c0.3,0.2,0.5,0.4,0.8,0.6c0.2,0.2,0.4,0.5,0.2,0.9c0,0.1,0,0.1,0,0.1c0.1,0.2,0.4,0.2,0.6,0.1c0.1,0,0.1-0.1,0.1-0.1
				c0,0,0-0.1-0.1-0.1c-0.2-0.2-0.4-0.5-0.2-0.8c0.2-0.4,0.6-0.9,0.9-1.3c0.2,0.3,0.4,0.6,0.6,0.9c0.1,0.2,0.2,0.3,0.3,0.5
				c0.1,0.3,0,0.6-0.2,0.8c-0.1,0-0.1,0.1,0,0.1c0.1,0.1,0.6,0,0.7-0.2c0-0.1,0-0.1,0-0.1c-0.2-0.3-0.1-0.6,0.1-0.9
				c0.1-0.1,0.3-0.2,0.4-0.4c0.3-0.2,0.6-0.4,0.9-0.7c0,0.1,0,0.2-0.1,0.3c-0.1,0.6-0.3,1.2-0.5,1.8c-0.1,0.3-0.2,0.7-0.3,1
				c0,0.1,0,0.2,0.1,0.1c0.1,0,0.3-0.1,0.4-0.1c0.1,0,0.1,0,0.1,0.1c0,0.3-0.1,0.7-0.3,1c-0.1,0.1-0.2,0.2-0.3,0.2
				c0.3,0.2,0.5,0.3,0.8,0.5c0.6,0.5,1,1.2,1.3,2c0.2,0.7,0.2,1.5,0,2.2c-0.2,0.9-0.7,1.7-1.3,2.4c-0.3,0.3-0.5,0.6-0.7,1.1
				c-0.2,0.6,0,1.2,0.5,1.5c0.2,0.2,0.5,0.3,0.8,0.4c0,0,0,0,0,0c0,0.1,0,0.1,0,0.1c-0.5,0.3-1,0.6-1.6,0.7c-0.1,0-0.2,0-0.4,0
				c0,0.1,0.1,0.1,0.1,0.2c0.8,0.6,1.6,1.3,2.3,2.1c0.4,0.4,0.7,1,0.9,1.5c0.2,0.3,0.3,0.6,0.5,0.9c0.1,0.2,0.1,0.4,0.2,0.5
				c0.5,0.6,1,1.3,1.6,1.8c0.3,0.3,0.6,0.6,1,0.6c0.6,0.1,1.2-0.3,1.1-1.1c-0.1-0.4-0.4-0.7-0.6-1c-0.7-0.9-1.6-1.8-2.4-2.6
				c-0.5-0.5-1-1-1.3-1.6c-0.4-0.6-0.5-1.2-0.4-1.9c0-0.6,0.2-1.2,0.6-1.8c0.3-0.5,0.7-0.9,1.1-1.2c0.1-0.1,0.2-0.2,0.2-0.2
				c0.1,0,0.1-0.1,0-0.2c-0.3-0.5-0.6-0.9-0.9-1.5c-0.4-0.8-0.5-1.5-0.4-2.4c0.1-0.8,0.4-1.5,0.9-2.2c0.1-0.2,0.2-0.4,0.4-0.5
				c0-0.1,0-0.1,0-0.2c-0.2-0.2-0.3-0.3-0.4-0.5c-0.2-0.4-0.1-0.8,0.1-1.2c0.2-0.4,0.5-0.7,0.8-1c0.4-0.4,0.7-0.8,0.9-1.4
				c0,0,0-0.1,0.1-0.1c0.5,0.5,0.9,1.1,1.1,1.8c0.1,0.4,0.2,0.9,0.1,1.4c-0.1,0.8-0.5,1.5-1,2.1c-0.3,0.4-0.6,0.8-0.8,1.2
				c-0.3,0.6-0.3,1.1-0.1,1.8c0.1,0.3,0.2,0.6,0.4,0.9c-0.1,0-0.1,0.1-0.1,0.1c0,0.1,0.1,0.1,0.1,0.2c0.2,0.1,0.3,0.2,0.4,0.4
				c0,0.1,0.1,0.1,0.2,0c0.6-0.6,1.1-1.1,1.6-1.8c0-0.1,0-0.1,0-0.2c-0.2-0.2-0.4-0.5-0.5-0.8c-0.1-0.4,0-0.7,0.2-1
				c0.3-0.4,0.7-0.8,1-1.2c0.3-0.3,0.6-0.7,0.7-1.1c0-0.1,0.1-0.1,0.2,0c0.3,0.3,0.5,0.6,0.7,1c0.1,0.1,0.1,0.2,0.1,0.4
				c0,0.1,0,0.2,0.1,0.2c0.1,0,0.1,0.2,0,0.3c0,0,0,0.1,0,0.1c0,0,0,0,0.1,0c0.1,0,0.1,0,0.1,0.1c0.1,0.3,0,0.6,0,1
				c-0.1,0.8-0.5,1.5-1,2.2c-0.6,0.8-1.2,1.6-2,2.3c-0.1,0.1,0,0.1,0,0.1c0.4,0.4,0.9,0.7,1.3,1.1c0.8,0.7,1.4,1.5,1.8,2.4
				c0.5,1.1,0.8,2.2,0.7,3.4c-0.1,1-0.3,2-0.8,2.9c-0.3,0.6-0.6,1.2-1.1,1.7c-0.6,0.6-1.2,1-2.1,1.2c-0.9,0.2-1.8,0-2.6-0.5
				c-0.9-0.5-1.6-1.3-2.2-2.1c0,0,0-0.1-0.1-0.1c-0.1,0.2-0.1,0.5-0.2,0.7c-0.2,0.5-0.4,0.9-0.7,1.3c-0.1,0.2-0.3,0.4-0.4,0.6
				c-0.1,0.5-0.1,1,0.3,1.4c0.3,0.2,0.6,0.2,0.9,0.2c0.2-0.1,0.5-0.2,0.6-0.4c0,0,0.1-0.1,0.1-0.1c0,0,0,0.1,0,0.1
				c0,0.7-0.1,1.4-0.7,1.8c-0.1,0.1-0.3,0.2-0.3,0.4c-0.2,0.4-0.2,0.8,0.1,1.2c0.1,0.2,0.3,0.4,0.5,0.6c0.2,0.4,0.2,0.8,0.1,1.2
				c-0.1,0.5-0.4,0.8-0.7,1.2c0,0,0,0.1-0.1,0.1c0,0,0-0.1,0-0.1c0-0.2-0.1-0.5-0.1-0.7c0-0.1,0-0.2-0.2-0.2c-0.4,0-0.8-0.2-0.9-0.7
				c0-0.2-0.1-0.2-0.2-0.1c-0.2,0.1-0.4,0.3-0.6,0.5c-0.2,0.2-0.2,0.6-0.2,0.9c0,0.2,0.1,0.5,0,0.7c-0.1,0.3-0.3,0.6-0.6,0.6
				c-0.2,0-0.2,0.1-0.1,0.2c0,0.1,0,0.2,0.1,0.4c0,0.1,0.1,0.2,0.1,0.4c-0.5-0.2-1-0.5-1.2-1c-0.2-0.2-0.2-0.5-0.2-0.8
				c0-0.1,0-0.1-0.1-0.1c-0.3,0.2-0.7,0.2-1-0.1c-0.1-0.1-0.1,0-0.1,0c-0.2,0.2-0.4,0.4-0.6,0.6c0,0-0.1,0.1-0.1,0.1
				c-0.1-0.9-0.1-1.7,0.8-2.2c-0.5-0.2-0.6-0.6-0.5-1c0-0.1-0.1-0.1-0.1-0.1c-0.2,0-0.4-0.1-0.6-0.1c0,0-0.1,0-0.1,0
				c0,0,0-0.1,0.1-0.1c0.3-0.4,0.7-0.6,1.2-0.8c0.4,0,0.8,0,1.1,0.3c0.6,0.5,1.4,0.3,1.8-0.2c0.3-0.4,0.4-0.8,0.2-1.2
				c-0.1-0.3-0.4-0.5-0.6-0.7c-0.4-0.3-0.8-0.6-1.1-1.1c-0.1-0.1-0.1-0.2-0.2-0.2c-0.1,0-0.1,0.1-0.2,0.2c-0.2,0.1-0.5,0.2-0.8,0.2
				c-0.4,0-0.8-0.1-1.1-0.4c0.2-0.2,0.4-0.2,0.6-0.4c0.6-0.4,0.9-0.9,1.1-1.6c0.1-0.8,0.5-1.5,1.1-2.1c0.1-0.1,0.2-0.2,0.3-0.3
				c0-0.1,0-0.1,0-0.1c-0.6-0.1-1.1-0.1-1.7,0c-0.9,0.2-1.7,0.6-2.3,1.3c-0.5,0.6-0.8,1.2-0.8,2c0,0.7,0.5,1.4,1.1,1.7
				c0.2,0.1,0.4,0.1,0.6,0.2c-0.1,0.1-0.2,0.2-0.4,0.3c-0.4,0.2-0.7,0.4-1.2,0.3c-0.3,0-0.5-0.2-0.7-0.3c-0.1-0.1-0.2-0.1-0.4-0.1
				c-0.2,0-0.5,0.2-0.5,0.5c0,0.2,0.1,0.5,0.1,0.8c0.1,0.5,0,0.9-0.3,1.3c-0.4,0.4-0.8,0.6-1.3,0.7c0.1-0.3,0.2-0.5,0.3-0.8
				c0-0.1,0-0.1,0-0.1c-0.4-0.2-0.5-0.8-0.4-1.2c0-0.1,0.1-0.1,0-0.2c-0.4-0.2-1-0.1-1.2,0.2c-0.1,0.2-0.1,0.4-0.2,0.6
				c-0.1,0.4-0.6,0.9-1.2,0.6c-0.1-0.1-0.1,0-0.1,0.1c-0.1,0.2-0.1,0.5-0.2,0.7c0,0,0,0.1,0,0.1c0,0,0,0-0.1-0.1
				c-0.3-0.4-0.5-0.9-0.5-1.4c0-0.3,0.1-0.6,0.2-0.8c0,0,0-0.1,0-0.1c-0.2,0-0.3-0.1-0.5-0.1c0-0.1-0.1-0.1-0.1-0.2
				c0-0.1,0-0.1-0.1-0.1c-0.2,0-0.2-0.1-0.1-0.2c0,0,0,0,0,0c0,0-0.1,0.1-0.1-0.1c0-0.1,0.1-0.2,0-0.2c-0.1,0-0.2,0-0.2,0.1
				c-0.2,0.2-0.4,0.2-0.6,0.2c-0.1,0-0.2,0-0.2,0.1c0.2-0.6,0.8-1.5,1.6-1.5c0.1,0,0.1,0,0-0.1c-0.2-0.3-0.1-0.8,0.2-1
				c0.1-0.1,0.1-0.1,0-0.2c-0.2-0.1-0.4-0.3-0.5-0.4c0,0-0.1-0.1,0-0.1c0.6-0.2,1.4-0.2,1.9,0.3c0,0.1,0.1,0.1,0.1,0.2
				c0.1,0.1,0.1,0.1,0,0.3c-0.1,0.1-0.1,0.2,0,0.2c0,0,0-0.1,0.1-0.1c0,0,0-0.1,0.1-0.1s0.1,0.1,0.1,0.2c0,0.1,0.1,0.2,0.1,0.2
				c-0.1,0.1-0.1-0.1-0.1,0c0,0.1,0,0.1,0,0.1c0.3,0.1,0.5,0.5,1,0.6c0.6,0.1,1-0.2,1.4-0.6c0.4-0.6,0.4-1.2,0.1-1.8
				c0,0,0-0.1-0.1-0.1c0-0.1-0.1-0.1-0.2-0.1c-0.6,0.3-1.5,0.2-1.9-0.3c-0.1-0.1-0.2-0.2-0.2-0.3c0-0.1,0-0.1,0-0.1
				c0.3-0.1,0.6-0.1,0.9-0.2c0.4-0.1,0.7-0.4,1-0.7s0.5-0.6,0.7-0.9c0.6-0.7,1.3-1.2,2.2-1.5c1-0.3,1.9-0.4,2.9-0.3c0,0,0.1,0,0.2,0
				c-0.1-0.1-0.3-0.2-0.5-0.3c-0.5-0.2-1-0.3-1.5-0.5c-0.6-0.3-1.1-0.7-1.6-1.2c0,0,0-0.1-0.1-0.1c-0.1,0,0,0.1,0,0.1
				c0,0.4,0,0.8,0,1.2c0,0,0,0,0,0.1c-0.4-0.2-0.7-0.5-1-0.9c-0.2-0.3-0.5-0.6-0.6-1c0-0.1-0.1-0.1-0.2-0.1
				c-0.6,0.1-1.2,0.1-1.8,0.1c-0.2,0-0.5,0.1-0.7,0.1C293,210.7,292.7,210.7,292.5,210.8z M312.9,213.3c0-0.7-0.1-1.4-0.4-2.1
				c-0.3-0.8-0.8-1.4-1.4-2c-0.5-0.5-1.1-0.9-1.6-1.4c0-0.1-0.1,0-0.1,0c-0.1,0.1-0.2,0.2-0.3,0.2c-0.4,0.3-0.8,0.7-1,1.2
				c-0.2,0.4-0.2,0.8,0,1.2c0.1,0.3,0.4,0.6,0.6,0.8c0.5,0.6,1.1,1.1,1.7,1.6c0.8,0.8,1.6,1.6,2.1,2.7c0,0,0,0.1,0.1,0.1s0,0,0-0.1
				C312.7,214.9,312.9,214.1,312.9,213.3z M299.5,199.4c0.1,0.1,0.1,0,0.2,0.1c0.1,0,0.2,0,0.2,0.1c0.1,0.2,0.4,0.2,0.5,0
				c0.2-0.2,0.2-0.6,0.2-0.9c0-0.1-0.1-0.1-0.1,0C300.3,199,299.9,199.3,299.5,199.4z M299.1,201.3c0.2,0.1,0.4,0.2,0.6,0.2
				c0.2,0,0.2-0.1,0.3-0.2c0.1-0.2,0.1-0.2-0.1-0.2C299.6,201.1,299.4,201.2,299.1,201.3z M299.9,200.5c-0.2-0.3-0.6-0.3-0.8,0
				C299.4,200.5,299.7,200.5,299.9,200.5z M308.8,204.5c0-0.1-0.1-0.1-0.1-0.2c0,0-0.1,0-0.1,0c0,0,0,0.1,0,0.1
				C308.7,204.4,308.8,204.4,308.8,204.5z"/>
		</g>
	</g>
</g>
<g>
	<g>
		<path class="st100" d="M227.5,28.7C240.3,46,262,62.5,298.1,62.5c36.2,0,56.3-16.8,67.4-34.5C335.2,31.1,259.9,30.8,227.5,28.7z"
			/>
		<path class="st13" d="M368.1,1c-17.6,5.3-142.2,2.9-148.6,0.6c-0.1,0.3-0.3,0.7-0.5,1.1c2.2,7.1,6.3,17.5,13.7,27.5
			c29.5,1.9,97.9,2.2,125.6-0.6c6.2-9.9,9.4-20.2,10.9-27.3C368.8,1.8,368.4,1.4,368.1,1z"/>
	</g>
	<path class="st13" d="M369.2,2.3c-4.1,18.7-19,58.7-72.2,58.7c-53.9,0-72.4-40.1-78-58.3c-2.9,5.3-13.9,16.7-13.9,16.7
		s14.4,61,89.9,61c76.5,0,86.6-58.7,87.7-63.1C380.6,16.4,373.4,6.9,369.2,2.3z"/>
</g>
</svg>
