<?xml version="1.0" encoding="utf-8"?>
<!-- Generator: Adobe Illustrator 17.0.0, SVG Export Plug-In . SVG Version: 6.00 Build 0)  -->
<!DOCTYPE svg PUBLIC "-//W3C//DTD SVG 1.1//EN" "http://www.w3.org/Graphics/SVG/1.1/DTD/svg11.dtd" [
	<!ENTITY ns_flows "http://ns.adobe.com/Flows/1.0/">
	<!ENTITY ns_extend "http://ns.adobe.com/Extensibility/1.0/">
	<!ENTITY ns_ai "http://ns.adobe.com/AdobeIllustrator/10.0/">
	<!ENTITY ns_graphs "http://ns.adobe.com/Graphs/1.0/">
]>
<svg version="1.1" id="Layer_1" xmlns:x="&ns_extend;" xmlns:i="&ns_ai;" xmlns:graph="&ns_graphs;"
	 xmlns="http://www.w3.org/2000/svg" xmlns:xlink="http://www.w3.org/1999/xlink" xmlns:a="http://ns.adobe.com/AdobeSVGViewerExtensions/3.0/"
	 x="0px" y="0px" width="600px" height="600px" viewBox="0 0 600 600" style="enable-background:new 0 0 600 600;"
	 xml:space="preserve">
<style type="text/css">
	.st0{fill:#05297D;stroke:#000000;stroke-miterlimit:10;}
	.st1{fill:#527DD3;}
	.st2{fill:#E3E3E7;}
	.st3{fill:#302E29;}
	.st4{fill:#FFFFFF;stroke:#000000;stroke-miterlimit:10;}
	.st5{fill:#FFFFFF;}
	.st6{fill:#7C0014;}
	.st7{fill:#B1C49B;stroke:#000000;stroke-miterlimit:10;}
	.st8{fill:#8AA668;}
	.st9{fill:#7C7D14;stroke:#B1C49B;stroke-miterlimit:10;}
	.st10{fill:#4E3B64;stroke:#000000;stroke-miterlimit:10;}
	.st11{fill:#382351;}
	.st12{fill:#4E3B64;}
	.st13{stroke:#4E3B64;stroke-miterlimit:10;}
	.st14{fill:#EB5D12;stroke:#000000;stroke-miterlimit:10;}
	.st15{fill:#B85D12;}
	.st16{fill:#7C0014;stroke:#EB5D12;stroke-miterlimit:10;}
	.st17{fill:#631197;stroke:#000000;stroke-miterlimit:10;}
	.st18{fill:#58006C;}
	.st19{fill:#FE5561;}
	.st20{fill:#C2BEC8;}
	.st21{fill:#FD9D00;stroke:#000000;stroke-miterlimit:10;}
	.st22{fill:#DC8700;}
	.st23{fill:#7C0014;stroke:#FD9D00;stroke-miterlimit:10;}
	.st24{fill:#A69EF8;stroke:#000000;stroke-miterlimit:10;}
	.st25{fill:#8176F5;}
	.st26{fill:#7C0014;stroke:#A69EF8;stroke-miterlimit:10;}
	.st27{fill:#5C377E;stroke:#000000;stroke-miterlimit:10;}
	.st28{fill:#5C377E;}
	.st29{fill:#242424;stroke:#5C377E;stroke-miterlimit:10;}
	.st30{fill:#CAC5C0;}
	.st31{fill:#5C377E;stroke:#FFFFFF;stroke-miterlimit:10;}
	.st32{fill:#A4FEB7;stroke:#000000;stroke-miterlimit:10;}
	.st33{fill:#75D792;}
	.st34{fill:#E20227;stroke:#A4FEB7;stroke-miterlimit:10;}
	.st35{fill:#272F74;stroke:#000000;stroke-miterlimit:10;}
	.st36{fill:#272F74;}
	.st37{fill:#E20227;stroke:#000000;stroke-miterlimit:10;}
	.st38{fill:#EDF3F8;stroke:#000000;stroke-miterlimit:10;}
	.st39{fill:#E20227;}
	.st40{fill:#01615B;}
	.st41{fill:#B6CEE3;stroke:#000000;stroke-miterlimit:10;}
	.st42{fill:#E20227;stroke:#EDF3F8;stroke-miterlimit:10;}
	.st43{fill:#C7CCC4;}
	.st44{fill:#EDF3F8;stroke:#E20227;stroke-miterlimit:10;}
	.st45{fill:#B64D00;}
	.st46{fill:#BBE79B;stroke:#000000;stroke-miterlimit:10;}
	.st47{fill:#AA2EC8;stroke:#000000;stroke-miterlimit:10;}
	.st48{fill:#9700BB;}
	.st49{fill:#CBD0DE;stroke:#AA2EC8;stroke-miterlimit:10;}
	.st50{fill:#ECEEF3;stroke:#AA2EC8;stroke-miterlimit:10;}
	.st51{fill:none;stroke:#7C0014;stroke-width:8;stroke-miterlimit:10;}
	.st52{fill:none;stroke:#000000;stroke-width:8;stroke-miterlimit:10;}
	.st53{fill:#FFEB00;}
	.st54{fill:#625616;stroke:#000000;stroke-miterlimit:10;}
	.st55{fill:#1853A6;stroke:#1853A6;stroke-width:0.25;stroke-miterlimit:10;}
	.st56{fill:none;}
	.st57{fill:none;stroke:#1853A6;stroke-width:0.225;stroke-miterlimit:10;}
	.st58{fill:#1853A6;stroke:#1853A6;stroke-width:0.225;stroke-miterlimit:10;}
	.st59{fill:#625616;}
	.st60{stroke:#625616;stroke-miterlimit:10;}
	.st61{adobe-knockout:true;}
	.st62{fill:none;stroke:#FFFFFF;stroke-miterlimit:10;adobe-knockout:false;}
	.st63{fill:none;stroke:#5C377E;stroke-miterlimit:10;}
	.st64{fill:#97C266;}
	.st65{fill:#523900;stroke:#000000;stroke-miterlimit:10;}
	.st66{fill:#FF4A49;}
	.st67{fill:#3C6643;}
	.st68{fill:none;stroke:#FF4A49;stroke-width:0.2334;stroke-miterlimit:10;}
	.st69{fill:none;stroke:#01615B;stroke-width:8;stroke-linecap:round;stroke-miterlimit:10;}
	.st70{fill:#F1CF4D;stroke:#000000;stroke-miterlimit:10;}
	.st71{fill:#F7A161;}
	.st72{fill:#1C232F;}
	.st73{fill:#EDAA14;}
	.st74{fill:#096CB6;stroke:#F1CF4D;stroke-miterlimit:10;}
	.st75{fill:#0060CE;stroke:#000000;stroke-miterlimit:10;}
	.st76{fill:#E20227;stroke:#0060CE;stroke-miterlimit:10;}
	.st77{fill:#345F69;stroke:#000000;stroke-miterlimit:10;}
	.st78{fill:#114450;}
	.st79{fill:#C6FDEC;stroke:#000000;stroke-miterlimit:10;}
	.st80{fill:none;stroke:#E20227;stroke-width:8;stroke-linecap:round;stroke-miterlimit:10;}
	.st81{fill:none;stroke:#FFFFFF;stroke-width:8;stroke-linecap:round;stroke-miterlimit:10;}
	.st82{fill:#C673DA;}
	.st83{fill:#DC032B;}
	.st84{fill:#0165B2;}
	.st85{fill:#BBE79B;}
	.st86{fill:none;stroke:#FE5561;stroke-width:3;stroke-miterlimit:10;}
	.st87{fill:none;stroke:#9D9497;stroke-width:3;stroke-miterlimit:10;}
	.st88{fill:none;stroke:#C9C4C6;stroke-width:3;stroke-miterlimit:10;}
	.st89{fill:none;stroke:#E3E3E3;stroke-width:3;stroke-miterlimit:10;}
	.st90{fill:#0049B0;}
	.st91{fill:#9EE2D1;}
	.st92{fill:#096CB6;}
	.st93{fill:none;stroke:#0060CE;stroke-width:3;stroke-linecap:round;stroke-miterlimit:10;}
	.st94{fill:none;stroke:#F1CF4D;stroke-width:3;stroke-linecap:round;stroke-linejoin:round;stroke-miterlimit:10;}
	.st95{fill:none;stroke:#AA2EC8;stroke-miterlimit:10;}
	.st96{fill:url(#SVGID_1_);stroke:#C6FDEC;stroke-miterlimit:10;}
	.st97{fill:#096CB6;stroke:#C6FDEC;stroke-miterlimit:10;}
	.st98{stroke:#A0A0A0;stroke-miterlimit:10;}
	.st99{fill:#4B5459;}
	.st100{fill:#4E2664;stroke:#000000;stroke-miterlimit:10;}
	.st101{fill:#FFCF2B;stroke:#000000;stroke-miterlimit:10;}
	.st102{fill:#1C5DA4;}
	.st103{fill:#156A50;stroke:#000000;stroke-miterlimit:10;}
	.st104{fill:none;stroke:#FF7F35;stroke-width:11;stroke-miterlimit:10;}
	.st105{fill:#0F5A4B;}
	.st106{fill:#DAD2D8;stroke:#000000;stroke-miterlimit:10;}
	.st107{fill:#FF7F35;}
	.st108{fill:#ED1B23;}
	.st109{fill:#268FE1;stroke:#000000;stroke-miterlimit:10;}
	.st110{fill:#747785;stroke:#000000;stroke-miterlimit:10;}
	.st111{fill:#747785;}
	.st112{fill:#505C66;stroke:#747785;stroke-miterlimit:10;}
	.st113{fill:#0453BC;stroke:#000000;stroke-miterlimit:10;}
	.st114{fill:#0453BC;}
	.st115{fill:#073F98;stroke:#0453BC;stroke-miterlimit:10;}
	.st116{fill:#007BD8;}
	.st117{fill:#F9E42A;stroke:#000000;stroke-miterlimit:10;}
	.st118{fill:#1F2427;}
	.st119{fill:#F8C600;}
	.st120{fill:none;stroke:#000000;stroke-miterlimit:10;}
	.st121{fill:#4EC23A;}
	.st122{fill:#4EFE3A;stroke:#000000;stroke-miterlimit:10;}
	.st123{fill:#4EFE3A;}
	.st124{fill:#A8A8B4;}
	.st125{fill:#4EBD3A;}
	.st126{fill:url(#SVGID_2_);stroke:#000000;stroke-miterlimit:10;}
	.st127{fill:#E87140;stroke:#000000;stroke-miterlimit:10;}
	.st128{fill:#A02B00;stroke:#E87140;stroke-miterlimit:10;}
	.st129{fill:#00ABE9;stroke:#000000;stroke-miterlimit:10;}
	.st130{fill:#2C6AAD;}
	.st131{fill:#007BE9;}
	.st132{fill:#2C6AAD;stroke:#D0CDC1;stroke-miterlimit:10;}
	.st133{fill:#024D9E;}
	.st134{fill:#6B97C6;}
	.st135{fill:#000078;}
	.st136{fill:#073F98;}
	.st137{fill:#505C66;}
	.st138{fill:#ED936E;}
	.st139{fill:#0097D3;}
	.st140{fill:#1C232F;stroke:#F7A161;stroke-miterlimit:10;}
	.st141{fill:url(#SVGID_3_);stroke:#000000;stroke-miterlimit:10;}
	.st142{fill:#93CC00;}
	.st143{fill:none;stroke:#6DB52D;stroke-width:2;stroke-miterlimit:10;adobe-knockout:false;}
	.st144{fill:#1C232F;stroke:#93CC00;stroke-miterlimit:10;}
	.st145{fill:#1C232F;stroke:#1C232F;stroke-miterlimit:10;}
	.st146{stroke:#000000;stroke-miterlimit:10;}
	.st147{fill:#FF0000;stroke:#000000;stroke-miterlimit:10;}
	.st148{fill:#0F4B39;}
	.st149{fill:url(#SVGID_4_);}
	.st150{fill:#E48D78;stroke:#000000;stroke-miterlimit:10;}
	.st151{fill:#FF7F35;stroke:#156A50;stroke-miterlimit:10;}
	.st152{fill:url(#SVGID_5_);}
	.st153{fill:url(#SVGID_6_);}
	.st154{fill:none;stroke:#000000;stroke-miterlimit:10;adobe-knockout:false;}
	.st155{fill:#0361A4;}
	.st156{fill:#1C5DA4;stroke:#FFCF2B;stroke-miterlimit:10;}
	.st157{fill:#593486;}
	.st158{fill:#FFC918;}
	.st159{fill:#ED1C24;}
	.st160{fill:#268FE1;}
	.st161{fill:#0361A4;stroke:#268FE1;stroke-miterlimit:10;}
	.st162{adobe-knockout:false;}
	.st163{fill:none;stroke:#0453BC;stroke-miterlimit:10;}
	.st164{fill:none;stroke:#0453BC;stroke-width:3;stroke-linecap:round;stroke-miterlimit:10;adobe-knockout:false;}
	.st165{fill:none;stroke:#F9E42A;stroke-miterlimit:10;}
	.st166{fill:#1F2427;stroke:#F9E42A;stroke-miterlimit:10;}
	.st167{fill:none;stroke:#4EFE3A;stroke-width:11;stroke-miterlimit:10;}
	.st168{fill:#00254E;}
	.st169{fill:#05297D;}
	.st170{fill:#7D1E05;stroke:#000000;stroke-miterlimit:10;}
	.st171{fill:#D36B52;}
	.st172{fill:none;stroke:#AE61FF;stroke-width:11;stroke-miterlimit:10;}
	.st173{fill:#561A00;}
	.st174{fill:#6A1E05;}
	.st175{fill:#AE61FF;stroke:#7D1E05;stroke-miterlimit:10;}
	.st176{fill:#FDEA00;}
	.st177{fill:none;stroke:#A02B00;stroke-width:3;stroke-miterlimit:10;}
	.st178{fill:none;stroke:#EAA595;stroke-width:3;stroke-miterlimit:10;}
	.st179{fill:none;stroke:#F1F1F1;stroke-width:3;stroke-miterlimit:10;}
	.st180{fill:none;stroke:#FF7F35;stroke-width:6;stroke-miterlimit:10;}
	.st181{fill:#FF7F35;stroke:#DAD2D8;stroke-miterlimit:10;}
	.st182{fill:none;stroke:#FF0000;stroke-width:2;stroke-miterlimit:10;adobe-knockout:false;}
	.st183{fill:#F1E3C9;}
	.st184{fill:#F28330;}
	.st185{fill:#ED1B28;}
	.st186{fill:none;stroke:#FFFFFF;stroke-width:2;stroke-miterlimit:10;adobe-knockout:false;}
</style>
<path class="st109" d="M6.1,342.8C40.7,232.2,21.2,187.2,67.7,94.2c10.5-21,71.9-57.8,135.8-73.2c0,0,109.7-25.5,180.5-3.5
	s140.3,53.3,151.9,80c35.7,82.1,31.2,191.6,59.7,243.7c-12.5,1.2-81.3,14.4-109.3,19.7c-2.4-7.3-13.4-60-13.4-60s3.2,248,3.2,270
	c-0.2,19-92.8,24-180.8,24s-167.5-10-167.5-26.9c0-16.8,1.1-262.1,1.1-262.1s-3.3,23.3-8.3,56.1C91.3,361.9,16.4,344,6.1,342.8z"/>
<path class="st116" d="M73.8,85.9c0,0,77.1,9.2,55.7,220c-0.9,166-1.1,253.8-1.1,255.9c0,3.2-0.6,7.5,0.8,9.2
	c0.7,1.1,1.7,2.3,3.4,3.5c4.7,3.4,13.4,6.6,25.2,9.1c-14.2-11.6-10.9-42.8-9.8-72.1c1.1-29.4-24-95.4-3-199.4
	c6.8-33.6-5.5-74.9-6-84C135,160.4,122.6,94.6,73.8,85.9z"/>
<path class="st116" d="M530.2,89c0,0-79.2,0.7-57.7,211.5c2.1,168.9,3.2,265.3,3.2,264.5c0-2.3,0,2.4,0,6.2c0,1.3-0.7,2.6-0.9,2.9
	c-0.7,1.1-2,2.2-3.6,3.4c-4.7,3.4-13.3,5.9-25.1,8.2c14.2-11.6,11.1-41.8,10-71.2c-1.1-29.4,24-95.4,3-199.4
	c-6.8-33.6,1.5-83.4,2-92.4C465,155.1,483.7,92,530.2,89z"/>
<path class="st155" d="M123.5,345.1l-2.8,17c0,0-18.3-0.2-54.3-7.2c-18-3.5-53.4-11.4-60.3-12.1c3.2-10.1,5.8-20.6,5.8-20.6
	c13.4,2.5,37.1,9.2,60.5,14.2C97.6,341.9,123.5,345.1,123.5,345.1z"/>
<path class="st155" d="M482.2,342.3l4.1,18.6c0,0,8.8-1.5,44.8-8.5c18-3.5,57.7-10,64.7-10.7c-4.7-9.1-8.7-20.9-8.7-20.9
	c-14,2.7-40.1,7.3-63,12.2C498.7,338.3,482.2,342.3,482.2,342.3z"/>
<path class="st155" d="M229,43.9c0,0-75.9,11.1-114.8,50C173.5,75.4,262.3,68,262.3,68L229,43.9z"/>
<path class="st155" d="M377.5,42.9c0,0,79.2,12.1,118.1,51C436.4,75.4,347.5,68,347.5,68L377.5,42.9z"/>
<g>
	<g>
		<g>
			<path class="st158" d="M301.3,232.5c-12.3,0-21-3.6-25.9-10.8c-3.7-5.3-3.8-10.8-3.8-10.8V173h59.5v37.9c0,0.1-0.1,5.5-3.8,10.8
				C322.5,228.8,313.7,232.5,301.3,232.5z"/>
			<path class="st155" d="M329.4,174.8v36.1c0,0.2-0.1,5.1-3.5,9.9c-2,2.8-4.7,5.1-8.1,6.7c-4.4,2.1-10,3.2-16.5,3.2
				c-6.5,0-12-1.1-16.4-3.2c-3.4-1.6-6.1-3.9-8-6.7c-3.4-4.8-3.5-9.7-3.5-10v-36.1H329.4 M332.9,171.2h-63v39.6
				c0,0,0.1,23.4,31.4,23.4c31.6,0,31.6-23.4,31.6-23.4V171.2L332.9,171.2z"/>
		</g>
	</g>
	<g>
		<path d="M281.9,176.6c0.2-0.1,0.6-0.1,1-0.1c0.4,0,0.7,0.1,1,0.2c0.2,0.2,0.4,0.5,0.4,0.8c0,0.4-0.1,0.7-0.5,0.9v0
			c0.4,0.1,0.6,0.5,0.6,1c0,0.4-0.1,0.6-0.3,0.9c-0.2,0.2-0.6,0.4-1.3,0.4c-0.4,0-0.6,0-0.8-0.1L281.9,176.6L281.9,176.6z
			 M282.7,178.2h0.1c0.3,0,0.5-0.2,0.5-0.4c0-0.2-0.1-0.4-0.4-0.4c-0.1,0-0.2,0-0.2,0L282.7,178.2L282.7,178.2z M282.7,179.9
			c0,0,0.1,0,0.2,0c0.3,0,0.5-0.2,0.5-0.5c0-0.4-0.2-0.5-0.5-0.5h-0.2L282.7,179.9L282.7,179.9z"/>
		<path d="M284.7,176.6c0.2-0.1,0.6-0.1,1-0.1c0.5,0,0.8,0.1,1,0.3c0.2,0.2,0.3,0.5,0.3,0.9c0,0.5-0.3,0.8-0.6,1v0
			c0.2,0.1,0.3,0.4,0.4,0.7c0.1,0.4,0.2,1,0.2,1.2h-0.9c0-0.1-0.1-0.5-0.2-1c-0.1-0.5-0.2-0.6-0.4-0.6h-0.1v1.5h-0.8L284.7,176.6
			L284.7,176.6z M285.6,178.3h0.2c0.3,0,0.5-0.2,0.5-0.5s-0.1-0.5-0.4-0.5c-0.1,0-0.2,0-0.2,0C285.6,177.3,285.6,178.3,285.6,178.3z
			"/>
		<path d="M288.4,179.7l-0.1,0.9h-0.9l0.9-4h1.1l0.9,4h-0.9l-0.2-0.9H288.4z M289,178.9l-0.1-0.7c0-0.2-0.1-0.6-0.1-0.8l0,0
			c0,0.2-0.1,0.6-0.1,0.8l-0.1,0.7H289z"/>
		<path d="M291.3,176.6v2.4c0,0.6,0.1,0.9,0.5,0.9c0.3,0,0.4-0.2,0.4-0.9v-2.4h0.9v2.3c0,1.2-0.4,1.8-1.3,1.8s-1.3-0.6-1.3-1.8v-2.2
			L291.3,176.6L291.3,176.6L291.3,176.6z"/>
		<path d="M293.6,180.6v-4.1h0.9l0.5,1.3c0.1,0.3,0.3,0.9,0.5,1.3h0c0-0.5-0.1-1.1-0.1-1.8v-0.8h0.8v4h-0.8l-0.5-1.3
			c-0.1-0.4-0.3-0.9-0.5-1.4h0c0,0.5,0,1.1,0,1.8v0.9L293.6,180.6C293.6,180.6,293.6,180.6,293.6,180.6z"/>
		<path d="M296.8,179.6c0.2,0.1,0.5,0.2,0.8,0.2c0.3,0,0.4-0.1,0.4-0.4c0-0.2-0.1-0.3-0.5-0.5c-0.5-0.3-0.8-0.7-0.8-1.2
			c0-0.7,0.4-1.2,1.2-1.2c0.3,0,0.6,0.1,0.8,0.2l-0.1,0.8c-0.1-0.1-0.4-0.2-0.6-0.2c-0.3,0-0.4,0.1-0.4,0.3c0,0.2,0.2,0.3,0.6,0.5
			c0.5,0.3,0.8,0.7,0.8,1.2c0,0.7-0.5,1.3-1.3,1.3c-0.4,0-0.7-0.1-0.9-0.2L296.8,179.6z"/>
		<path d="M301.5,180.5c-0.1,0.1-0.4,0.1-0.7,0.1c-1.1,0-1.6-0.9-1.6-2c0-1.4,0.8-2.1,1.7-2.1c0.3,0,0.6,0.1,0.7,0.2l-0.1,0.8
			c-0.1-0.1-0.3-0.1-0.5-0.1c-0.5,0-0.9,0.4-0.9,1.2c0,0.8,0.3,1.2,0.9,1.2c0.2,0,0.4-0.1,0.5-0.1L301.5,180.5z"/>
		<path d="M302.8,176.6v1.5h0.9v-1.5h0.9v4h-0.9V179h-0.9v1.6h-0.9v-4H302.8z"/>
		<path d="M305.6,180.6l-0.7-4h0.9l0.2,1.5c0,0.4,0.1,1,0.1,1.4l0,0c0-0.5,0.1-0.9,0.2-1.4l0.2-1.5h0.9l0.2,1.5
			c0.1,0.4,0.1,0.9,0.2,1.4l0,0c0-0.5,0.1-0.9,0.1-1.4l0.2-1.5h0.9l-0.8,4.1h-0.9l-0.2-1.4c0-0.4-0.1-0.8-0.1-1.2l0,0
			c0,0.5-0.1,0.9-0.1,1.2l-0.2,1.4H305.6z"/>
		<path d="M311.1,179H310v0.8h1.2v0.8h-2v-4h1.9v0.8h-1.1v0.7h1L311.1,179L311.1,179z"/>
		<path d="M312.5,176.6v4h-0.9v-4H312.5z"/>
		<path d="M315.7,180.4c-0.2,0.1-0.6,0.2-1,0.2c-0.6,0-1-0.2-1.2-0.5c-0.3-0.4-0.5-0.9-0.5-1.5c0-1.4,0.8-2.1,1.8-2.1
			c0.4,0,0.7,0.1,0.9,0.2l-0.1,0.8c-0.2-0.1-0.4-0.1-0.7-0.1c-0.5,0-0.9,0.4-0.9,1.2c0,0.8,0.4,1.2,0.8,1.2c0.1,0,0.2,0,0.2,0v-0.7
			h-0.4v-0.8h1.2L315.7,180.4L315.7,180.4z"/>
		<path d="M318.1,179H317v0.8h1.2v0.8h-2v-4h1.9v0.8h-1.1v0.7h1L318.1,179L318.1,179z"/>
		<path d="M318.7,176.6c0.2-0.1,0.6-0.1,1-0.1c0.5,0,0.8,0.1,1.1,0.3c0.2,0.2,0.3,0.5,0.3,0.9c0,0.5-0.3,0.8-0.5,1v0
			c0.2,0.1,0.3,0.4,0.4,0.7c0.1,0.4,0.2,1,0.2,1.2h-0.9c0-0.1-0.1-0.5-0.2-1c-0.1-0.5-0.2-0.6-0.4-0.6h-0.1v1.5h-0.8L318.7,176.6
			L318.7,176.6z M319.5,178.3h0.2c0.3,0,0.5-0.2,0.5-0.5s-0.2-0.5-0.4-0.5c-0.1,0-0.2,0-0.2,0V178.3z"/>
		<path d="M275.3,183.1h-0.8v-0.9h2.4v0.9h-0.8v3.1h-0.9V183.1z"/>
		<path d="M278.1,182.2v2.4c0,0.6,0.1,0.9,0.5,0.9c0.3,0,0.4-0.2,0.4-0.9v-2.4h0.8v2.3c0,1.2-0.5,1.8-1.3,1.8
			c-0.9,0-1.3-0.6-1.3-1.8v-2.2L278.1,182.2L278.1,182.2z"/>
		<path d="M280.5,182.3c0.2,0,0.6-0.1,1-0.1c0.5,0,0.8,0.1,1,0.3c0.2,0.2,0.3,0.5,0.3,0.9c0,0.5-0.3,0.9-0.5,1v0
			c0.2,0.1,0.3,0.4,0.4,0.7c0.1,0.4,0.2,1,0.2,1.1H282c0-0.1-0.1-0.4-0.2-0.9c-0.1-0.5-0.2-0.6-0.4-0.6h-0.1v1.5h-0.8L280.5,182.3
			L280.5,182.3z M281.3,184h0.2c0.3,0,0.5-0.2,0.5-0.5s-0.1-0.5-0.4-0.5c-0.1,0-0.2,0-0.2,0V184z"/>
		<path d="M283.3,186.3v-4h0.9l0.5,1.3c0.1,0.4,0.3,0.9,0.4,1.3h0c-0.1-0.5-0.1-1.1-0.1-1.8v-0.8h0.8v4H285l-0.5-1.4
			c-0.1-0.4-0.4-0.9-0.5-1.4h0c0,0.5,0,1.1,0,1.8v0.9L283.3,186.3C283.3,186.2,283.3,186.3,283.3,186.3z"/>
		<path d="M287.5,184.3v0.7h-1.2v-0.7H287.5z"/>
		<path d="M289.7,182.2v2.4c0,0.6,0.1,0.9,0.4,0.9c0.3,0,0.5-0.2,0.5-0.9v-2.4h0.9v2.3c0,1.2-0.5,1.8-1.3,1.8s-1.3-0.6-1.3-1.8v-2.2
			L289.7,182.2L289.7,182.2z"/>
		<path d="M292,186.3v-4h0.9l0.5,1.3c0.2,0.4,0.3,0.9,0.5,1.3h0c0-0.5-0.1-1.1-0.1-1.8v-0.8h0.8v4h-0.9l-0.5-1.4
			c-0.2-0.4-0.4-0.9-0.5-1.4h0c0,0.5,0,1.1,0,1.8v0.9L292,186.3C292,186.2,292,186.3,292,186.3z"/>
		<path d="M295.2,182.3c0.2,0,0.6-0.1,0.9-0.1c0.6,0,1,0.1,1.2,0.4c0.4,0.3,0.6,0.8,0.6,1.6c0,0.8-0.2,1.4-0.6,1.7
			c-0.3,0.3-0.8,0.4-1.4,0.4c-0.4,0-0.6,0-0.8-0.1L295.2,182.3L295.2,182.3z M296,185.5c0.1,0,0.1,0,0.1,0c0.5,0,0.9-0.4,0.9-1.3
			c0-0.8-0.3-1.2-0.8-1.2c-0.1,0-0.2,0-0.2,0V185.5z"/>
		<path d="M299.3,185.3c0.2,0.1,0.5,0.2,0.8,0.2c0.3,0,0.5-0.2,0.5-0.4s-0.1-0.3-0.5-0.5c-0.5-0.3-0.8-0.7-0.8-1.2
			c0-0.7,0.5-1.2,1.2-1.2c0.4,0,0.6,0.1,0.8,0.2l-0.2,0.8c-0.1-0.1-0.3-0.2-0.6-0.2c-0.3,0-0.4,0.1-0.4,0.3c0,0.2,0.1,0.3,0.6,0.5
			c0.5,0.3,0.8,0.7,0.8,1.2c0,0.7-0.5,1.3-1.3,1.3c-0.4,0-0.7-0.1-0.9-0.2L299.3,185.3z"/>
		<path d="M301.8,182.3c0.2,0,0.6-0.1,1-0.1c0.5,0,0.8,0.1,1,0.3c0.2,0.2,0.4,0.6,0.4,1c0,0.4-0.1,0.8-0.3,1c-0.2,0.3-0.6,0.4-1,0.4
			c-0.1,0-0.1,0-0.2,0v1.4h-0.8L301.8,182.3L301.8,182.3z M302.6,184.1c0,0,0.1,0,0.2,0c0.3,0,0.5-0.2,0.5-0.6
			c0-0.3-0.1-0.5-0.5-0.5c-0.1,0-0.2,0-0.2,0V184.1z"/>
		<path d="M305.8,186.3c-0.9,0-1.4-1-1.4-2.1c0-1.1,0.5-2.1,1.5-2.1c1,0,1.4,1,1.4,2C307.3,185.6,306.7,186.3,305.8,186.3
			L305.8,186.3z M305.8,185.5c0.4,0,0.6-0.5,0.6-1.2c0-0.7-0.2-1.2-0.6-1.2c-0.4,0-0.6,0.5-0.6,1.2
			C305.2,185,305.5,185.5,305.8,185.5L305.8,185.5z"/>
		<path d="M307.7,182.3c0.2,0,0.6-0.1,1-0.1c0.5,0,0.8,0.1,1,0.3c0.2,0.2,0.3,0.5,0.3,0.9c0,0.5-0.3,0.9-0.5,1v0
			c0.2,0.1,0.3,0.4,0.4,0.7c0.1,0.4,0.2,1,0.2,1.1h-0.9c0-0.1-0.1-0.4-0.2-0.9c-0.1-0.5-0.2-0.6-0.4-0.6h-0.1v1.5h-0.8L307.7,182.3
			L307.7,182.3z M308.6,184h0.2c0.3,0,0.5-0.2,0.5-0.5s-0.1-0.5-0.4-0.5c-0.1,0-0.2,0-0.2,0V184z"/>
		<path d="M311.1,183.1h-0.8v-0.9h2.4v0.9H312v3.1h-0.9V183.1z"/>
		<path d="M313.9,186.3l-0.9-4h0.9l0.3,1.6c0.1,0.4,0.2,0.9,0.2,1.4l0,0c0.1-0.5,0.1-1,0.2-1.4l0.3-1.6h0.9l-0.9,4H313.9z"/>
		<path d="M318.1,184.6H317v0.8h1.2v0.9h-2v-4h1.9v0.8H317v0.7h1.1L318.1,184.6C318.1,184.6,318.1,184.6,318.1,184.6z"/>
		<path d="M318.7,182.3c0.2,0,0.6-0.1,1-0.1c0.5,0,0.8,0.1,1,0.3c0.2,0.2,0.3,0.5,0.3,0.9c0,0.5-0.3,0.9-0.6,1v0
			c0.2,0.1,0.3,0.4,0.4,0.7c0.1,0.4,0.2,1,0.2,1.1h-0.9c-0.1-0.1-0.1-0.4-0.2-0.9c-0.1-0.5-0.2-0.6-0.4-0.6h-0.1v1.5h-0.8
			L318.7,182.3L318.7,182.3z M319.5,184h0.2c0.3,0,0.5-0.2,0.5-0.5s-0.1-0.5-0.4-0.5c-0.1,0-0.2,0-0.2,0V184z"/>
		<path d="M323.4,184.6h-1v0.8h1.2v0.9h-2v-4h2v0.8h-1.1v0.7h1L323.4,184.6C323.4,184.6,323.4,184.6,323.4,184.6z"/>
		<path d="M324.8,182.2v4H324v-4H324.8z"/>
		<path d="M325.4,186.3v-4h0.9l0.5,1.3c0.1,0.4,0.3,0.9,0.4,1.3h0c0-0.5-0.1-1.1-0.1-1.8v-0.8h0.8v4h-0.9l-0.5-1.4
			c-0.2-0.4-0.4-0.9-0.5-1.4l0,0c0,0.5,0,1.1,0,1.8v0.9L325.4,186.3L325.4,186.3z"/>
		<path d="M276.7,190.3h-1v0.8h1.2v0.9h-2v-4h2v0.9h-1.1v0.7h1V190.3z"/>
		<path d="M278.1,187.9v4h-0.9v-4H278.1z"/>
		<path d="M278.7,191.9v-4h0.9l0.5,1.3c0.1,0.4,0.3,0.9,0.5,1.3h0c-0.1-0.5-0.1-1.1-0.1-1.8v-0.9h0.8v4h-0.9l-0.5-1.4
			c-0.1-0.4-0.4-0.9-0.5-1.4h0c0,0.5,0,1.1,0,1.8v0.9L278.7,191.9C278.7,191.9,278.7,191.9,278.7,191.9z"/>
		<path d="M282.4,188.8h-0.8v-0.9h2.4v0.9h-0.8v3.1h-0.9V188.8z"/>
		<path d="M284.4,188c0.2,0,0.6-0.1,1-0.1c0.5,0,0.8,0.1,1.1,0.3c0.2,0.2,0.3,0.5,0.3,0.9c0,0.5-0.3,0.8-0.5,1v0
			c0.2,0.1,0.3,0.4,0.4,0.7c0.1,0.4,0.2,1,0.2,1.2H286c-0.1-0.1-0.1-0.4-0.2-0.9c-0.1-0.5-0.2-0.6-0.4-0.6h-0.1v1.5h-0.8L284.4,188
			L284.4,188z M285.2,189.7h0.2c0.3,0,0.5-0.2,0.5-0.5s-0.1-0.5-0.4-0.5c-0.1,0-0.2,0-0.2,0C285.2,188.7,285.2,189.7,285.2,189.7z"
			/>
		<path d="M288,191.1l-0.1,0.9H287l0.9-4h1.1l0.9,4H289l-0.2-0.9L288,191.1L288,191.1z M288.7,190.3l-0.1-0.7
			c-0.1-0.2-0.1-0.6-0.1-0.8l0,0c-0.1,0.2-0.1,0.6-0.1,0.8l-0.1,0.7H288.7z"/>
		<path d="M292.3,191.9c-0.1,0-0.4,0.1-0.7,0.1c-1.1,0-1.6-1-1.6-2c0-1.5,0.8-2.1,1.7-2.1c0.3,0,0.6,0.1,0.7,0.1l-0.1,0.8
			c-0.1-0.1-0.3-0.1-0.5-0.1c-0.5,0-0.9,0.4-0.9,1.2c0,0.8,0.3,1.2,0.9,1.2c0.2,0,0.4-0.1,0.5-0.1L292.3,191.9z"/>
		<path d="M293.6,187.9v1.5h0.9v-1.5h0.9v4h-0.9v-1.6h-0.9v1.6h-0.9v-4H293.6z"/>
		<path d="M296.5,188.8h-0.8v-0.9h2.4v0.9h-0.8v3.1h-0.9V188.8z"/>
		<path d="M300,191.9l-1-4h0.9l0.3,1.6c0.1,0.4,0.2,0.9,0.2,1.4l0,0c0.1-0.5,0.1-1,0.2-1.4l0.3-1.6h0.9l-1,4H300z"/>
		<path d="M303.5,192c-0.9,0-1.4-1-1.4-2.1c0-1.1,0.5-2.1,1.5-2.1c1,0,1.4,1,1.4,2C305,191.2,304.4,192,303.5,192L303.5,192z
			 M303.5,191.2c0.4,0,0.6-0.5,0.6-1.2c0-0.7-0.2-1.2-0.6-1.2c-0.3,0-0.6,0.5-0.6,1.2C303,190.7,303.2,191.2,303.5,191.2
			L303.5,191.2z"/>
		<path d="M305.4,191.9v-4h0.9l0.5,1.3c0.1,0.4,0.3,0.9,0.5,1.3h0c-0.1-0.5-0.1-1.1-0.1-1.8v-0.9h0.8v4h-0.9l-0.5-1.4
			c-0.1-0.4-0.4-0.9-0.5-1.4h0c0,0.5,0,1.1,0,1.8v0.9L305.4,191.9L305.4,191.9L305.4,191.9z"/>
		<path d="M318.8,189L318.8,189l-0.6,0.4l-0.1-0.8l0.9-0.5h0.7v3.9h-0.8V189z"/>
		<path d="M321.7,188c0.7,0,1,0.5,1,1c0,0.3-0.1,0.6-0.4,0.8l0,0c0.3,0.2,0.5,0.5,0.5,1c0,0.7-0.5,1.2-1.2,1.2
			c-0.8,0-1.1-0.5-1.1-1.1c0-0.5,0.2-0.8,0.5-1l0,0c-0.3-0.2-0.4-0.5-0.4-0.9C320.6,188.4,321.1,188,321.7,188L321.7,188z
			 M321.7,191.3c0.2,0,0.3-0.2,0.3-0.4c0-0.3-0.2-0.5-0.4-0.6c-0.2,0.1-0.3,0.3-0.3,0.5C321.3,191.1,321.5,191.3,321.7,191.3
			L321.7,191.3z M321.7,188.7c-0.2,0-0.3,0.2-0.3,0.4c0,0.2,0.1,0.4,0.4,0.5c0.1-0.1,0.2-0.2,0.2-0.4
			C321.9,188.9,321.9,188.7,321.7,188.7L321.7,188.7z"/>
		<path d="M323.4,191.2c0.1,0,0.2,0,0.3,0c0.2,0,0.4-0.1,0.5-0.2c0.2-0.1,0.3-0.4,0.4-0.6l0,0c-0.1,0.1-0.3,0.2-0.6,0.2
			c-0.5,0-0.9-0.4-0.9-1.2c0-0.7,0.5-1.4,1.2-1.4c0.8,0,1.2,0.8,1.2,1.7c0,0.8-0.2,1.4-0.6,1.8c-0.3,0.3-0.7,0.5-1.2,0.5
			c-0.1,0-0.2,0-0.3,0L323.4,191.2L323.4,191.2z M324.2,188.7c-0.2,0-0.3,0.2-0.3,0.6c0,0.3,0.1,0.6,0.3,0.6c0.1,0,0.2-0.1,0.3-0.2
			c0-0.1,0-0.1,0-0.3C324.6,189.1,324.5,188.7,324.2,188.7L324.2,188.7z"/>
		<path d="M327.8,188.9h-1.1l0,0.5c0,0,0.1,0,0.1,0c0.3,0,0.6,0.1,0.8,0.3c0.2,0.2,0.3,0.5,0.3,1c0,0.7-0.5,1.4-1.4,1.4
			c-0.3,0-0.6-0.1-0.8-0.2l0.1-0.8c0.1,0.1,0.4,0.2,0.6,0.2c0.3,0,0.5-0.2,0.5-0.5c0-0.4-0.3-0.6-0.8-0.6c-0.1,0-0.2,0-0.4,0
			l0.2-2.1h1.7L327.8,188.9L327.8,188.9z"/>
		<path d="M311.7,190.3h-1.1v0.8h1.2v0.9h-2v-4h1.9v0.9h-1.1v0.7h1.1L311.7,190.3L311.7,190.3z"/>
		<path d="M312.7,192c-0.3,0-0.5-0.2-0.5-0.6s0.2-0.6,0.5-0.6s0.5,0.2,0.5,0.6S312.9,192,312.7,192L312.7,192z"/>
		<path d="M314.3,191.9l-0.9-4h0.9l0.3,1.6c0.1,0.4,0.2,0.9,0.2,1.4l0,0c0.1-0.5,0.1-1,0.2-1.4l0.3-1.6h0.9l-1,4H314.3z"/>
		<path d="M316.6,192c-0.3,0-0.5-0.2-0.5-0.6s0.2-0.6,0.5-0.6s0.5,0.2,0.5,0.6C317.1,191.8,316.9,192,316.6,192L316.6,192z"/>
	</g>
	<g>
		
			<rect x="276.6" y="209.6" transform="matrix(0.4514 0.8923 -0.8923 0.4514 344.8057 -130.1299)" class="st155" width="3.2" height="11.6"/>
	</g>
	<g>
		
			<rect x="301.9" y="178.2" transform="matrix(0.4506 0.8927 -0.8927 0.4506 353.4145 -156.1015)" class="st155" width="3.2" height="61.8"/>
	</g>
	<g>
		
			<rect x="324.3" y="198.5" transform="matrix(0.4506 0.8927 -0.8927 0.4506 361.5177 -178.6653)" class="st155" width="3.2" height="11.7"/>
	</g>
	<g>
		<g>
			<path class="st159" d="M292.5,210.8c-0.1,0.1-0.3,0.1-0.3,0c-0.1-0.1-0.2-0.1-0.2,0c-0.1,0.1-0.1,0.1,0,0.2
				c0.5,0.6,0.4,1.2,0.1,1.8c-0.1,0.3-0.3,0.6-0.6,0.8c0,0-0.1,0.1-0.1,0.1s0-0.1,0-0.1c0-0.2,0-0.5,0-0.8c0-0.1,0-0.2-0.2-0.2
				c-0.2,0-0.5-0.1-0.6-0.3c0,0-0.1-0.2-0.1-0.3c0-0.1,0-0.2,0-0.3c0-0.2,0-0.4,0-0.6c-0.1-0.2-0.2-0.2-0.4-0.1
				c-0.1,0.1-0.2,0.3-0.3,0.4c-0.1,0.1-0.1,0.3-0.3,0.4c-0.2,0.3-0.5,0.3-0.9,0.1c-0.1-0.1-0.1,0-0.1,0.1c-0.1,0.2-0.1,0.4-0.2,0.6
				c0,0.1,0,0.1-0.1,0.1c-0.2-0.4-0.4-0.8-0.5-1.2c0-0.5,0.1-0.9,0.4-1.2c-0.1-0.1-0.2-0.1-0.4-0.1c-0.2-0.1-0.4-0.4-0.4-0.7
				c0-0.1,0-0.1-0.1-0.1c-0.3,0-0.6,0.1-0.8,0.2c0-0.1,0-0.2,0.1-0.2c0.2-0.4,0.5-0.8,0.8-1c0.4-0.2,0.8-0.2,1.2-0.1
				c0,0,0.1,0,0.1,0.1c0-0.3,0.1-0.5,0.2-0.8c0-0.1-0.1-0.1-0.1-0.2c-0.2-0.2-0.4-0.3-0.7-0.5c0,0,0,0-0.1,0
				c0.1-0.1,0.2-0.1,0.4-0.1c0.4-0.1,0.8-0.1,1.2,0c0.4,0.1,0.8,0.5,0.8,0.9c0,0.3,0.1,0.5,0.2,0.8c0.2,0.3,0.4,0.4,0.8,0.4
				c0.3,0,0.5-0.1,0.8-0.2c0.7-0.3,1.4-0.6,2-0.9c0.3-0.2,0.6-0.3,0.9-0.4c0.1,0,0.1-0.1,0.2-0.2c0.1-0.3,0.1-0.3-0.1-0.5
				c-0.5-0.4-0.9-1-1.2-1.5c-0.3-0.4-0.7-0.9-1.1-1.3c-0.2-0.2-0.2-0.2-0.3,0.1c-0.2,0.6-0.6,0.9-1.2,1.1c-0.3,0.1-0.6,0.2-0.9,0.2
				c0-0.1,0.1-0.2,0.2-0.3c0.1-0.2,0.2-0.4,0.4-0.5c0-0.1,0-0.1,0-0.2c-0.4-0.3-0.4-0.8-0.1-1.1c0.1-0.1,0.2-0.2,0.3-0.4
				c0.1-0.1,0.1-0.2,0-0.3c-0.1-0.1-0.2-0.1-0.3-0.1c-0.3-0.1-0.4,0.2-0.6,0.3c-0.3,0.2-0.7,0.2-0.9-0.1c0,0-0.1-0.1-0.1-0.2
				c0-0.1-0.1-0.1-0.2-0.1c-0.2,0.1-0.3,0.2-0.5,0.3c-0.1,0-0.1,0.1-0.2,0.1c0-0.5,0.2-0.9,0.4-1.3c0.2-0.4,0.6-0.6,1.1-0.6
				c-0.1-0.1-0.2-0.2-0.2-0.3c-0.1-0.3,0-0.5,0.2-0.8c0-0.1,0-0.1,0-0.1c-0.2-0.2-0.4-0.2-0.7-0.4c0,0-0.1,0-0.1-0.1
				c0.5-0.2,0.9-0.4,1.5-0.3c0.4,0,0.8,0.3,1,0.7c0,0,0,0.1,0.1,0.1c0.1-0.2,0.3-0.4,0.6-0.4c0.1-0.1,0.1-0.2,0-0.2
				c-0.1-0.2-0.1-0.5-0.2-0.7c0-0.1,0-0.1,0-0.1c0.5,0.2,0.9,0.4,1.3,0.8c0.2,0.2,0.2,0.4,0.3,0.7c0,0.1,0,0.1,0,0.2
				c-0.1,0-0.1-0.2-0.1-0.1c-0.1,0.1,0.1,0.1,0.1,0.2c0.1,0.2,0,0.2,0,0.4c-0.1,0.2-0.2,0.4-0.3,0.6c-0.1,0.4-0.1,0.8,0.3,1.1
				c0.2,0.2,0.5,0.3,0.7,0.5c1,0.6,2,1.1,2.9,1.8c0.1,0.1,0.2,0.2,0.4,0.2c0.1,0.1,0.1,0.1,0.2,0c0.6-0.3,1.3-0.5,2-0.8
				c0.4-0.2,0.8-0.3,1.2-0.5c0.1,0,0.1,0,0.1-0.1c0.1-0.1,0.2,0,0.2-0.1c0.1-0.2,0.2-0.4,0.2-0.6c0-0.2-0.1-0.2-0.2-0.2
				c-0.2,0-0.5,0.1-0.7,0.2c-0.5,0.1-1,0.3-1.5,0.4c-0.2,0-0.4,0-0.6,0c-0.1,0-0.1-0.1,0-0.1c0-0.2,0.1-0.4,0.2-0.6
				c0.1-0.2,0.1-0.4,0.1-0.6c0-0.1,0-0.1-0.1-0.1c-0.4,0.2-0.7,0.4-1,0.5c-0.6,0.2-1.3-0.1-1.5-0.7c-0.2-0.5-0.1-1,0.3-1.4
				c0.1-0.1,0.3-0.3,0.5-0.4c0,0.1,0,0.2-0.1,0.2c-0.1,0.2-0.1,0.5-0.1,0.8c0,0.2,0.2,0.4,0.4,0.5c0.4,0.1,0.7,0,1.1-0.1
				c0.1-0.1,0.2-0.1,0.4-0.2c-0.3-0.4-0.4-0.8-0.4-1.2c0-0.1,0.1-0.2,0.1-0.2c0.5-0.1,0.8-0.3,1.1-0.6c0.2-0.1,0.3-0.3,0.5-0.4
				c0.1-0.1,0.1-0.1,0.1-0.2c-0.1-0.4-0.2-0.8-0.3-1.2c-0.2-0.7-0.4-1.4-0.6-2c0,0,0-0.1,0-0.1c0.2,0.1,0.3,0.2,0.5,0.3
				c0.3,0.2,0.5,0.4,0.8,0.6c0.2,0.2,0.4,0.5,0.2,0.9c0,0.1,0,0.1,0,0.1c0.1,0.2,0.4,0.2,0.6,0.1c0.1,0,0.1-0.1,0.1-0.1
				c0,0,0-0.1-0.1-0.1c-0.2-0.2-0.4-0.5-0.2-0.8c0.2-0.4,0.6-0.9,0.9-1.3c0.2,0.3,0.4,0.6,0.6,0.9c0.1,0.2,0.2,0.3,0.3,0.5
				c0.1,0.3,0,0.6-0.2,0.8c-0.1,0-0.1,0.1,0,0.1c0.1,0.1,0.6,0,0.7-0.2c0-0.1,0-0.1,0-0.1c-0.2-0.3-0.1-0.6,0.1-0.9
				c0.1-0.1,0.3-0.2,0.4-0.4c0.3-0.2,0.6-0.4,0.9-0.7c0,0.1,0,0.2-0.1,0.3c-0.1,0.6-0.3,1.2-0.5,1.8c-0.1,0.3-0.2,0.7-0.3,1
				c0,0.1,0,0.2,0.1,0.1c0.1,0,0.3-0.1,0.4-0.1c0.1,0,0.1,0,0.1,0.1c0,0.3-0.1,0.7-0.3,1c-0.1,0.1-0.2,0.2-0.3,0.2
				c0.3,0.2,0.5,0.3,0.8,0.5c0.6,0.5,1,1.2,1.3,2c0.2,0.7,0.2,1.5,0,2.2c-0.2,0.9-0.7,1.7-1.3,2.4c-0.3,0.3-0.5,0.6-0.7,1.1
				c-0.2,0.6,0,1.2,0.5,1.5c0.2,0.2,0.5,0.3,0.8,0.4c0,0,0,0,0,0c0,0.1,0,0.1,0,0.1c-0.5,0.3-1,0.6-1.6,0.7c-0.1,0-0.2,0-0.4,0
				c0,0.1,0.1,0.1,0.1,0.2c0.8,0.6,1.6,1.3,2.3,2.1c0.4,0.4,0.7,1,0.9,1.5c0.2,0.3,0.3,0.6,0.5,0.9c0.1,0.2,0.1,0.4,0.2,0.5
				c0.5,0.6,1,1.3,1.6,1.8c0.3,0.3,0.6,0.6,1,0.6c0.6,0.1,1.2-0.3,1.1-1.1c-0.1-0.4-0.4-0.7-0.6-1c-0.7-0.9-1.6-1.8-2.4-2.6
				c-0.5-0.5-1-1-1.3-1.6c-0.4-0.6-0.5-1.2-0.4-1.9c0-0.6,0.2-1.2,0.6-1.8c0.3-0.5,0.7-0.9,1.1-1.2c0.1-0.1,0.2-0.2,0.2-0.2
				c0.1,0,0.1-0.1,0-0.2c-0.3-0.5-0.6-0.9-0.9-1.5c-0.4-0.8-0.5-1.5-0.4-2.4c0.1-0.8,0.4-1.5,0.9-2.2c0.1-0.2,0.2-0.4,0.4-0.5
				c0-0.1,0-0.1,0-0.2c-0.2-0.2-0.3-0.3-0.4-0.5c-0.2-0.4-0.1-0.8,0.1-1.2c0.2-0.4,0.5-0.7,0.8-1c0.4-0.4,0.7-0.8,0.9-1.4
				c0,0,0-0.1,0.1-0.1c0.5,0.5,0.9,1.1,1.1,1.8c0.1,0.4,0.2,0.9,0.1,1.4c-0.1,0.8-0.5,1.5-1,2.1c-0.3,0.4-0.6,0.8-0.8,1.2
				c-0.3,0.6-0.3,1.1-0.1,1.8c0.1,0.3,0.2,0.6,0.4,0.9c-0.1,0-0.1,0.1-0.1,0.1c0,0.1,0.1,0.1,0.1,0.2c0.2,0.1,0.3,0.2,0.4,0.4
				c0,0.1,0.1,0.1,0.2,0c0.6-0.6,1.1-1.1,1.6-1.8c0-0.1,0-0.1,0-0.2c-0.2-0.2-0.4-0.5-0.5-0.8c-0.1-0.4,0-0.7,0.2-1
				c0.3-0.4,0.7-0.8,1-1.2c0.3-0.3,0.6-0.7,0.7-1.1c0-0.1,0.1-0.1,0.2,0c0.3,0.3,0.5,0.6,0.7,1c0.1,0.1,0.1,0.2,0.1,0.4
				c0,0.1,0,0.2,0.1,0.2c0.1,0,0.1,0.2,0,0.3c0,0,0,0.1,0,0.1c0,0,0,0,0.1,0c0.1,0,0.1,0,0.1,0.1c0.1,0.3,0,0.6,0,1
				c-0.1,0.8-0.5,1.5-1,2.2c-0.6,0.8-1.2,1.6-2,2.3c-0.1,0.1,0,0.1,0,0.1c0.4,0.4,0.9,0.7,1.3,1.1c0.8,0.7,1.4,1.5,1.8,2.4
				c0.5,1.1,0.8,2.2,0.7,3.4c-0.1,1-0.3,2-0.8,2.9c-0.3,0.6-0.6,1.2-1.1,1.7c-0.6,0.6-1.2,1-2.1,1.2c-0.9,0.2-1.8,0-2.6-0.5
				c-0.9-0.5-1.6-1.3-2.2-2.1c0,0,0-0.1-0.1-0.1c-0.1,0.2-0.1,0.5-0.2,0.7c-0.2,0.5-0.4,0.9-0.7,1.3c-0.1,0.2-0.3,0.4-0.4,0.6
				c-0.1,0.5-0.1,1,0.3,1.4c0.3,0.2,0.6,0.2,0.9,0.2c0.2-0.1,0.5-0.2,0.6-0.4c0,0,0.1-0.1,0.1-0.1c0,0,0,0.1,0,0.1
				c0,0.7-0.1,1.4-0.7,1.8c-0.1,0.1-0.3,0.2-0.3,0.4c-0.2,0.4-0.2,0.8,0.1,1.2c0.1,0.2,0.3,0.4,0.5,0.6c0.2,0.4,0.2,0.8,0.1,1.2
				c-0.1,0.5-0.4,0.8-0.7,1.2c0,0,0,0.1-0.1,0.1c0,0,0-0.1,0-0.1c0-0.2-0.1-0.5-0.1-0.7c0-0.1,0-0.2-0.2-0.2c-0.4,0-0.8-0.2-0.9-0.7
				c0-0.2-0.1-0.2-0.2-0.1c-0.2,0.1-0.4,0.3-0.6,0.5c-0.2,0.2-0.2,0.6-0.2,0.9c0,0.2,0.1,0.5,0,0.7c-0.1,0.3-0.3,0.6-0.6,0.6
				c-0.2,0-0.2,0.1-0.1,0.2c0,0.1,0,0.2,0.1,0.4c0,0.1,0.1,0.2,0.1,0.4c-0.5-0.2-1-0.5-1.2-1c-0.2-0.2-0.2-0.5-0.2-0.8
				c0-0.1,0-0.1-0.1-0.1c-0.3,0.2-0.7,0.2-1-0.1c-0.1-0.1-0.1,0-0.1,0c-0.2,0.2-0.4,0.4-0.6,0.6c0,0-0.1,0.1-0.1,0.1
				c-0.1-0.9-0.1-1.7,0.8-2.2c-0.5-0.2-0.6-0.6-0.5-1c0-0.1-0.1-0.1-0.1-0.1c-0.2,0-0.4-0.1-0.6-0.1c0,0-0.1,0-0.1,0
				c0,0,0-0.1,0.1-0.1c0.3-0.4,0.7-0.6,1.2-0.8c0.4,0,0.8,0,1.1,0.3c0.6,0.5,1.4,0.3,1.8-0.2c0.3-0.4,0.4-0.8,0.2-1.2
				c-0.1-0.3-0.4-0.5-0.6-0.7c-0.4-0.3-0.8-0.6-1.1-1.1c-0.1-0.1-0.1-0.2-0.2-0.2c-0.1,0-0.1,0.1-0.2,0.2c-0.2,0.1-0.5,0.2-0.8,0.2
				c-0.4,0-0.8-0.1-1.1-0.4c0.2-0.2,0.4-0.2,0.6-0.4c0.6-0.4,0.9-0.9,1.1-1.6c0.1-0.8,0.5-1.5,1.1-2.1c0.1-0.1,0.2-0.2,0.3-0.3
				c0-0.1,0-0.1,0-0.1c-0.6-0.1-1.1-0.1-1.7,0c-0.9,0.2-1.7,0.6-2.3,1.3c-0.5,0.6-0.8,1.2-0.8,2c0,0.7,0.5,1.4,1.1,1.7
				c0.2,0.1,0.4,0.1,0.6,0.2c-0.1,0.1-0.2,0.2-0.4,0.3c-0.4,0.2-0.7,0.4-1.2,0.3c-0.3,0-0.5-0.2-0.7-0.3c-0.1-0.1-0.2-0.1-0.4-0.1
				c-0.2,0-0.5,0.2-0.5,0.5c0,0.2,0.1,0.5,0.1,0.8c0.1,0.5,0,0.9-0.3,1.3c-0.4,0.4-0.8,0.6-1.3,0.7c0.1-0.3,0.2-0.5,0.3-0.8
				c0-0.1,0-0.1,0-0.1c-0.4-0.2-0.5-0.8-0.4-1.2c0-0.1,0.1-0.1,0-0.2c-0.4-0.2-1-0.1-1.2,0.2c-0.1,0.2-0.1,0.4-0.2,0.6
				c-0.1,0.4-0.6,0.9-1.2,0.6c-0.1-0.1-0.1,0-0.1,0.1c-0.1,0.2-0.1,0.5-0.2,0.7c0,0,0,0.1,0,0.1c0,0,0,0-0.1-0.1
				c-0.3-0.4-0.5-0.9-0.5-1.4c0-0.3,0.1-0.6,0.2-0.8c0,0,0-0.1,0-0.1c-0.2,0-0.3-0.1-0.5-0.1c0-0.1-0.1-0.1-0.1-0.2
				c0-0.1,0-0.1-0.1-0.1c-0.2,0-0.2-0.1-0.1-0.2c0,0,0,0,0,0c0,0-0.1,0.1-0.1-0.1c0-0.1,0.1-0.2,0-0.2c-0.1,0-0.2,0-0.2,0.1
				c-0.2,0.2-0.4,0.2-0.6,0.2c-0.1,0-0.2,0-0.2,0.1c0.2-0.6,0.8-1.5,1.6-1.5c0.1,0,0.1,0,0-0.1c-0.2-0.3-0.1-0.8,0.2-1
				c0.1-0.1,0.1-0.1,0-0.2c-0.2-0.1-0.4-0.3-0.5-0.4c0,0-0.1-0.1,0-0.1c0.6-0.2,1.4-0.2,1.9,0.3c0,0.1,0.1,0.1,0.1,0.2
				c0.1,0.1,0.1,0.1,0,0.3c-0.1,0.1-0.1,0.2,0,0.2c0,0,0-0.1,0.1-0.1c0,0,0-0.1,0.1-0.1s0.1,0.1,0.1,0.2c0,0.1,0.1,0.2,0.1,0.2
				c-0.1,0.1-0.1-0.1-0.1,0c0,0.1,0,0.1,0,0.1c0.3,0.1,0.5,0.5,1,0.6c0.6,0.1,1-0.2,1.4-0.6c0.4-0.6,0.4-1.2,0.1-1.8
				c0,0,0-0.1-0.1-0.1c0-0.1-0.1-0.1-0.2-0.1c-0.6,0.3-1.5,0.2-1.9-0.3c-0.1-0.1-0.2-0.2-0.2-0.3c0-0.1,0-0.1,0-0.1
				c0.3-0.1,0.6-0.1,0.9-0.2c0.4-0.1,0.7-0.4,1-0.7s0.5-0.6,0.7-0.9c0.6-0.7,1.3-1.2,2.2-1.5c1-0.3,1.9-0.4,2.9-0.3c0,0,0.1,0,0.2,0
				c-0.1-0.1-0.3-0.2-0.5-0.3c-0.5-0.2-1-0.3-1.5-0.5c-0.6-0.3-1.1-0.7-1.6-1.2c0,0,0-0.1-0.1-0.1c-0.1,0,0,0.1,0,0.1
				c0,0.4,0,0.8,0,1.2c0,0,0,0,0,0.1c-0.4-0.2-0.7-0.5-1-0.9c-0.2-0.3-0.5-0.6-0.6-1c0-0.1-0.1-0.1-0.2-0.1
				c-0.6,0.1-1.2,0.1-1.8,0.1c-0.2,0-0.5,0.1-0.7,0.1C293,210.7,292.7,210.7,292.5,210.8z M312.9,213.3c0-0.7-0.1-1.4-0.4-2.1
				c-0.3-0.8-0.8-1.4-1.4-2c-0.5-0.5-1.1-0.9-1.6-1.4c0-0.1-0.1,0-0.1,0c-0.1,0.1-0.2,0.2-0.3,0.2c-0.4,0.3-0.8,0.7-1,1.2
				c-0.2,0.4-0.2,0.8,0,1.2c0.1,0.3,0.4,0.6,0.6,0.8c0.5,0.6,1.1,1.1,1.7,1.6c0.8,0.8,1.6,1.6,2.1,2.7c0,0,0,0.1,0.1,0.1s0,0,0-0.1
				C312.7,214.9,312.9,214.1,312.9,213.3z M299.5,199.4c0.1,0.1,0.1,0,0.2,0.1c0.1,0,0.2,0,0.2,0.1c0.1,0.2,0.4,0.2,0.5,0
				c0.2-0.2,0.2-0.6,0.2-0.9c0-0.1-0.1-0.1-0.1,0C300.3,199,299.9,199.3,299.5,199.4z M299.1,201.3c0.2,0.1,0.4,0.2,0.6,0.2
				c0.2,0,0.2-0.1,0.3-0.2c0.1-0.2,0.1-0.2-0.1-0.2C299.6,201.1,299.4,201.2,299.1,201.3z M299.9,200.5c-0.2-0.3-0.6-0.3-0.8,0
				C299.4,200.5,299.7,200.5,299.9,200.5z M308.8,204.5c0-0.1-0.1-0.1-0.1-0.2c0,0-0.1,0-0.1,0c0,0,0,0.1,0,0.1
				C308.7,204.4,308.8,204.4,308.8,204.5z"/>
		</g>
	</g>
</g>
<g>
	<g>
		<path class="st160" d="M234.5,28.7C247.3,46,269,62.5,305.1,62.5c36.2,0,56.3-16.8,67.4-34.5C342.2,31.1,266.9,30.8,234.5,28.7z"
			/>
		<path class="st161" d="M375.1,1c-17.6,5.3-142.2,2.9-148.6,0.6c-0.1,0.3-0.3,0.7-0.5,1.1c2.2,7.1,6.3,17.5,13.7,27.5
			c29.5,1.9,97.9,2.2,125.6-0.6c6.2-9.9,9.4-20.2,10.9-27.3C375.8,1.8,375.4,1.4,375.1,1z"/>
	</g>
	<path class="st161" d="M376.2,2.3c-4.1,18.7-19,58.7-72.2,58.7c-53.9,0-72.4-40.1-78-58.3c-2.9,5.3-15.1,16-15.1,16
		s15.6,61.7,91.1,61.7c76.5,0,86.6-58.7,87.7-63.1C387.6,16.4,380.4,6.9,376.2,2.3z"/>
</g>
<g>
	<polygon class="st155" points="417,314.4 186,194.5 186,194.5 186,208 417,327.9 	"/>
	<polygon class="st155" points="417,356.4 186,236.5 186,236.5 186,250 417,369.9 	"/>
	<polygon class="st155" points="186,278.5 186,292 417,411.9 417,398.4 186,278.5 	"/>
	<polygon class="st155" points="186,321.5 186,335 417,454.9 417,441.4 186,321.5 	"/>
</g>
<g>
	<path class="st155" d="M186,441.3v13.5l0,0l118.4-61.5c-4.3-2.2-8.4-4.6-12.5-7.1L186,441.3z"/>
	<path class="st155" d="M186,399.3v13.5l0,0l81.9-42.5c-3.8-2.6-7.6-5.1-11.4-7.6L186,399.3z"/>
	<path class="st155" d="M417,279.4l-39.1,20.3c4.2,2.2,8.4,4.5,12.5,7.1l26.7-13.8V279.4z"/>
	<path class="st155" d="M186,357.3v13.5l0,0l43.7-22.7c-5-2.1-10.1-4-15-5.7L186,357.3z"/>
	<path class="st155" d="M417,237.4l-82.7,42.9c4.8,2,9.6,4.1,14.4,6.1l68.3-35.5V237.4z"/>
	<path class="st155" d="M417,194.4l-119.7,62.1c1.7,0.9,3.4,2,4.7,3.4c2,1.3,3.8,3,5.7,4.7L417,207.9V194.4z"/>
</g>
</svg>
