<?xml version="1.0" encoding="utf-8"?>
<!-- Generator: Adobe Illustrator 17.0.0, SVG Export Plug-In . SVG Version: 6.00 Build 0)  -->
<!DOCTYPE svg PUBLIC "-//W3C//DTD SVG 1.1//EN" "http://www.w3.org/Graphics/SVG/1.1/DTD/svg11.dtd" [
	<!ENTITY ns_flows "http://ns.adobe.com/Flows/1.0/">
	<!ENTITY ns_extend "http://ns.adobe.com/Extensibility/1.0/">
	<!ENTITY ns_ai "http://ns.adobe.com/AdobeIllustrator/10.0/">
	<!ENTITY ns_graphs "http://ns.adobe.com/Graphs/1.0/">
]>
<svg version="1.1" id="Layer_1" xmlns:x="&ns_extend;" xmlns:i="&ns_ai;" xmlns:graph="&ns_graphs;"
	 xmlns="http://www.w3.org/2000/svg" xmlns:xlink="http://www.w3.org/1999/xlink" xmlns:a="http://ns.adobe.com/AdobeSVGViewerExtensions/3.0/"
	 x="0px" y="0px" width="600px" height="600px" viewBox="0 0 600 600" style="enable-background:new 0 0 600 600;"
	 xml:space="preserve">
<style type="text/css">
	.st0{fill:#000100;}
	.st1{fill:#E80040;stroke:#000000;stroke-miterlimit:10;}
	.st2{fill:#FCE200;stroke:#000000;stroke-miterlimit:10;}
	.st3{fill:#FEA63F;stroke:#000000;stroke-miterlimit:10;}
	.st4{fill:#FFFFFF;stroke:#000000;stroke-miterlimit:10;}
	.st5{fill:#FFFFFF;}
	.st6{fill:#7C0014;}
	.st7{fill:#75C255;stroke:#000000;stroke-miterlimit:10;}
	.st8{fill:#52B329;}
	.st9{fill:#52BCE0;stroke:#000000;stroke-miterlimit:10;}
	.st10{fill:#48ACD0;}
	.st11{fill:#028CBE;}
	.st12{fill:#52BCE0;}
	.st13{fill:#EFF0F9;stroke:#4E3B64;stroke-miterlimit:10;}
	.st14{fill:#1D5662;stroke:#000000;stroke-miterlimit:10;}
	.st15{fill:#1D5662;}
	.st16{fill:#054049;}
	.st17{fill:#037FC7;}
	.st18{fill:#9158B6;stroke:#000000;stroke-miterlimit:10;}
	.st19{fill:#752EA5;}
	.st20{fill:#2678C7;}
	.st21{fill:#FABFB6;stroke:#000000;stroke-miterlimit:10;}
	.st22{fill:#FABFB6;}
	.st23{fill:#FC8038;stroke:#FABFB6;stroke-miterlimit:10;}
	.st24{fill:#00A39B;}
	.st25{fill:#E53A3E;stroke:#000000;stroke-miterlimit:10;}
	.st26{fill:#E53A3E;}
	.st27{fill:#242424;stroke:#5C377E;stroke-miterlimit:10;}
	.st28{fill:#525252;stroke:#000000;stroke-miterlimit:10;}
	.st29{fill:#4998BB;}
	.st30{fill:#1A7F9E;}
	.st31{fill:#E58000;stroke:#000000;stroke-miterlimit:10;}
	.st32{fill:#BA7500;stroke:#000000;stroke-miterlimit:10;}
	.st33{fill:#DF961C;stroke:#000000;stroke-miterlimit:10;}
	.st34{fill:#DF961C;}
	.st35{fill:#EDF3F8;stroke:#000000;stroke-miterlimit:10;}
	.st36{fill:#DA7600;}
	.st37{fill:#C2BEC8;}
	.st38{fill:#000100;stroke:#FFFFFF;stroke-miterlimit:10;}
	.st39{fill:#A8F001;stroke:#000000;stroke-miterlimit:10;}
	.st40{fill:#0578CD;}
	.st41{fill:#1A58A5;}
	.st42{stroke:#625616;stroke-miterlimit:10;}
	.st43{adobe-knockout:true;}
	.st44{fill:none;stroke:#FFFFFF;stroke-width:3;stroke-miterlimit:10;adobe-knockout:false;}
	.st45{fill:#D71F26;stroke:#000000;stroke-miterlimit:10;}
	.st46{fill:#008183;}
	.st47{fill:#6FC266;}
	.st48{fill:#C4373C;}
	.st49{fill:#00CAB0;}
	.st50{fill:#FAAE1E;}
	.st51{fill:#EC153B;}
	.st52{fill:#00B296;}
	.st53{fill:#F2C958;stroke:#00CAB0;stroke-miterlimit:10;}
	.st54{fill:#FF354F;stroke:#000000;stroke-miterlimit:10;}
	.st55{fill:#0D36A7;stroke:#000000;stroke-miterlimit:10;}
	.st56{fill:#D2D7E2;stroke:#000000;stroke-miterlimit:10;}
	.st57{fill:#CA2B9D;stroke:#000000;stroke-miterlimit:10;}
	.st58{fill:#58006C;stroke:#000000;stroke-miterlimit:10;}
	.st59{fill:#C60021;}
	.st60{fill:#A30F81;}
	.st61{fill:#0159C0;stroke:#A0A0A0;stroke-miterlimit:10;}
	.st62{fill:#013390;}
	.st63{fill:#F08900;}
	.st64{fill:#D20129;}
	.st65{fill:#AD0000;}
	.st66{fill:#131E25;}
	.st67{fill:#DAD2D8;stroke:#000000;stroke-miterlimit:10;}
	.st68{fill:#0066B3;}
	.st69{fill:#969796;}
	.st70{fill:#E86271;}
	.st71{fill:url(#SVGID_1_);stroke:#000000;stroke-miterlimit:10;}
	.st72{fill:#5AB4D2;stroke:#000000;stroke-miterlimit:10;}
	.st73{fill:#5AB4D2;}
	.st74{fill:#FFFFFF;stroke:#5AB4D2;stroke-miterlimit:10;}
	.st75{fill:#073F98;stroke:#0453BC;stroke-miterlimit:10;}
	.st76{fill:#2762C9;stroke:#000000;stroke-miterlimit:10;}
	.st77{fill:#C252FF;}
	.st78{fill:url(#SVGID_2_);}
	.st79{fill:url(#SVGID_3_);}
	.st80{fill:#DAD2D8;}
	.st81{stroke:#000000;stroke-miterlimit:10;}
	.st82{fill:#05297D;stroke:#000000;stroke-miterlimit:10;}
	.st83{fill:#05297D;stroke:#FFFFFF;stroke-miterlimit:10;}
	.st84{fill:#A8A8B4;}
	.st85{fill:url(#SVGID_4_);stroke:#000000;stroke-miterlimit:10;}
	.st86{fill:#53536A;}
	.st87{fill:#073F98;}
	.st88{fill:#098FBC;}
	.st89{fill:url(#SVGID_5_);}
	.st90{fill:#F7A161;}
	.st91{fill:#FF0000;stroke:#000000;stroke-miterlimit:10;}
	.st92{fill:#F54849;stroke:#000000;stroke-miterlimit:10;}
	.st93{fill:url(#SVGID_6_);}
	.st94{fill:url(#SVGID_7_);}
	.st95{fill:#3A72B7;stroke:#000000;stroke-miterlimit:10;}
	.st96{fill:#96C4F0;stroke:#000000;stroke-miterlimit:10;}
	.st97{fill:#C50040;}
	.st98{fill:#D11E24;}
	.st99{fill:#E3E3E7;}
	.st100{stroke:#FFCF2B;stroke-miterlimit:10;}
	.st101{fill:none;stroke:#F9E42A;stroke-miterlimit:10;}
	.st102{fill:#F08900;stroke:#000000;stroke-miterlimit:10;}
	.st103{fill:#F28330;}
	.st104{fill:#FC8038;}
	.st105{fill:#5AB633;}
	.st106{fill:#553658;stroke:#75C255;stroke-miterlimit:10;}
	.st107{fill:#1853A6;}
	.st108{fill:#CB0000;}
	.st109{fill:#0F0D0E;}
	.st110{fill:#636363;}
	.st111{fill:#FFFFFF;stroke:#00A39B;stroke-miterlimit:10;}
	.st112{fill:#D71F26;}
	.st113{fill:#020000;}
	.st114{fill:none;stroke:#000000;stroke-width:0.5;stroke-miterlimit:10;}
	.st115{clip-path:url(#SVGID_9_);}
	.st116{clip-path:url(#SVGID_11_);}
	.st117{clip-path:url(#SVGID_13_);}
	.st118{clip-path:url(#SVGID_15_);}
	.st119{fill:#7A4A00;}
	.st120{fill:none;stroke:#1A7F9E;stroke-width:7;stroke-miterlimit:10;}
	.st121{fill:#E20227;stroke:#4998BB;stroke-miterlimit:10;}
	.st122{fill:#1F2427;}
	.st123{fill:#BA7500;}
	.st124{fill:none;stroke:#BA7500;stroke-width:7;stroke-miterlimit:10;}
	.st125{fill:#843D00;stroke:#000000;stroke-width:0.25;stroke-miterlimit:10;}
	.st126{stroke:#000000;stroke-width:0.25;stroke-miterlimit:10;}
	.st127{fill:#ECEEF3;stroke:#1A58A5;stroke-miterlimit:10;}
	.st128{fill:#233194;}
	.st129{fill:#E0DFE3;}
	.st130{fill:#C2BEC8;stroke:#000000;stroke-miterlimit:10;}
	.st131{fill:#233194;stroke:#000000;stroke-miterlimit:10;}
	.st132{fill:#A40100;}
	.st133{adobe-knockout:false;}
	.st134{fill:#A0AAC1;}
	.st135{fill:#A40100;stroke:#000000;stroke-miterlimit:10;}
	.st136{fill:#92F0D6;}
	.st137{fill:#F2C958;}
	.st138{fill:#CA2B9D;stroke:#CA2B9D;stroke-miterlimit:10;}
	.st139{fill:#A30F81;stroke:#000000;stroke-miterlimit:10;}
	.st140{fill:#7E2B42;}
	.st141{fill:#0D36A7;}
	.st142{fill:#EE1C24;}
	.st143{fill:#0159C0;}
	.st144{stroke:#A0A0A0;stroke-miterlimit:10;}
	.st145{stroke:#4E3B64;stroke-miterlimit:10;}
	.st146{fill:#FDEA00;stroke:#000000;stroke-width:0.217;}
	.st147{fill:#FDEA00;stroke:#000000;stroke-width:0.2326;}
	.st148{fill:#1D1D1B;}
	.st149{fill:#FF0000;}
	.st150{fill:none;stroke:#0453BC;stroke-width:25.435;stroke-miterlimit:10;adobe-knockout:false;}
	.st151{fill:none;stroke:#0453BC;stroke-width:25.4353;stroke-linecap:round;stroke-miterlimit:10;adobe-knockout:false;}
	.st152{fill:#CAC5C0;}
	.st153{fill:#2762C9;}
	.st154{fill:#C252FF;stroke:#000000;stroke-miterlimit:10;}
	.st155{fill:#A54B2D;stroke:#000000;stroke-miterlimit:10;}
	.st156{fill:#A54B2D;}
	.st157{stroke:#A54B2D;stroke-miterlimit:10;}
	.st158{fill:#823311;}
	.st159{fill:none;}
	.st160{fill:#05297D;}
	.st161{fill:none;stroke:#FF7F35;stroke-width:6;stroke-miterlimit:10;}
	.st162{fill:#031DFF;stroke:#000000;stroke-miterlimit:10;}
	.st163{fill:#0370FF;stroke:#000000;stroke-miterlimit:10;}
	.st164{fill:#031DC4;}
	.st165{fill:none;stroke:#0080CA;stroke-width:6;stroke-miterlimit:10;}
	.st166{fill:#031DFF;stroke:#FFFFFF;stroke-miterlimit:10;}
	.st167{fill:#0263B0;}
	.st168{fill:none;stroke:#FFFFFF;stroke-width:2;stroke-miterlimit:10;}
	.st169{fill:url(#SVGID_16_);stroke:#FFFFFF;stroke-miterlimit:10;}
	.st170{fill:url(#SVGID_17_);}
	.st171{fill:url(#SVGID_18_);}
	.st172{fill:url(#SVGID_19_);}
	.st173{fill:#693B0F;stroke:#000000;stroke-miterlimit:10;}
	.st174{fill:#3E4E70;}
	.st175{fill:#F7CE02;}
	.st176{fill:#0551E1;stroke:#000000;stroke-miterlimit:10;}
	.st177{fill:#EC153B;stroke:#000000;stroke-miterlimit:10;}
	.st178{fill:#0831FD;}
	.st179{fill:#0870FD;}
	.st180{fill:none;stroke:#9F3D44;stroke-width:3;stroke-miterlimit:10;}
</style>
<path class="st155" d="M594.5,576.2c0-93.6-20.8-396.5-56.5-478.7c-11.6-26.7-84.7-58.1-155.5-80.1c-24.8-7.7-54.1-9.9-81.7-9.4
	c-27.8-0.6-61.4,1.3-86.4,9.1C143.6,39.2,74.6,70.8,63,97.5C27.2,179.7,6.5,482.7,6.5,576.2c8.8,6.4,17.7,7.6,67.5,9.8
	c10-134,52-285,52-285s-5.1,248-5.1,270c0.2,18.6,86.7,23.8,172.7,24v0c1,0,2.5,0,3.5,0c1,0,2.5,0,3.5,0v0c86-0.2,176-5.4,176.2-24
	c0-22-2.4-270-2.4-270s42.4,151,52.4,285C576.3,583.8,585.7,582.7,594.5,576.2z"/>
<g>
	<g>
		<path class="st156" d="M227.5,28.7C240.3,46,262,62.5,298.1,62.5c36.2,0,56.3-16.8,67.4-34.5C335.2,31.1,259.9,30.8,227.5,28.7z"
			/>
		<path class="st157" d="M368.1,1c-17.6,5.3-142.2,2.9-148.6,0.6c-0.1,0.3-0.3,0.7-0.5,1.1c2.2,7.1,6.3,17.5,13.7,27.5
			c29.5,1.9,97.9,2.2,125.6-0.6c6.2-9.9,9.4-20.2,10.9-27.3C368.8,1.8,368.4,1.4,368.1,1z"/>
	</g>
	<path class="st157" d="M369.2,2.3c-4.1,18.7-19,58.7-72.2,58.7c-53.9,0-72.4-40.1-78-58.3c-2.9,5.3-13.9,16.7-13.9,16.7
		s14.4,61,89.9,61c76.5,0,86.6-58.7,87.7-63.1C380.6,16.4,373.4,6.9,369.2,2.3z"/>
</g>
<path class="st158" d="M69.9,88.8c0,0,77.1,9.2,55.7,220c-0.4,79.7-1.8,141.7-2.4,184.6c-0.7,46.5-0.8,70.5-0.8,71.6
	c0,3.2-0.6,7.5,0.8,9.2c0.7,1.1,1.7,2.3,3.4,3.5c4.7,3.4,15.3,6.5,27.3,8.8c-14.2-11.6-10.9-42.8-9.8-72.1c1.1-29.4-24-95.4-3-199.4
	c6.8-33.6-5.5-74.9-6-84C131.1,163.3,118.7,97.5,69.9,88.8z"/>
<path class="st158" d="M531.8,89.2c0,0-79.2,0.7-57.7,211.5c2.1,168.9,3.2,265.3,3.2,264.5c0-2.3,0,2.4,0,6.2c0,1.3-0.7,2.6-0.9,2.9
	c-0.7,1.1-2,2.2-3.6,3.4c-4.7,3.4-13.3,5.9-25.1,8.2c14.2-11.6,11.1-41.8,10-71.2c-1.1-29.4,24-95.4,3-199.4
	c-6.8-33.6,1.5-83.4,2-92.4C466.5,155.3,485.2,92.2,531.8,89.2z"/>
<path d="M527.4,585.4l-1.3-17.8c14.2-0.6,24.2-0.4,37.4-1.9c14.4-1.6,30.2-7.6,30.2-7.6l0.2,17.8c0,0-3.4,2.5-9.4,4.4
	c-5.2,1.6-21.4,3.6-31.1,3.9C536.2,584.9,527.4,585.4,527.4,585.4z"/>
<path class="st157" d="M73.9,585.4l1.3-17.8c-14.2-0.6-31.4-1-43.5-2.6c-14.4-2-25.2-7-25.2-7l0.1,18.3c0,0,3.4,2.4,9.4,4.3
	c5.2,1.6,21.8,3.4,31.4,3.7C64.8,584.9,73.9,585.4,73.9,585.4z"/>
<path d="M212.2,25.7L209,20c-41.9,12.6-70.3,24.8-90.5,35.2c-35.2,18.2-45,27.8-49,33.6C74.6,89.7,79,91,83,92.6
	C117.4,58.6,164.3,36.4,212.2,25.7z"/>
<path d="M96.3,100.6c9.3,7.8,12.9,16.9,14.1,19.9C118.4,82.5,224,47,224,47l-5.6-10C173.6,49.1,130.8,69.9,96.3,100.6z"/>
<path d="M368.8,45.5c0,0,108.5,38.3,117.9,76c0.9-2.6,6.2-10.5,14.5-18.1c-38.2-30-82-54.4-129.1-64.3L368.8,45.5z"/>
<path d="M531.3,88c-4.2-5.7-26.3-23.5-65.5-39.6c-21-8.6-41.2-17.2-83-30.4L377.1,29C426.8,43.3,477.8,60.1,518,91.9
	C522.2,90,526.6,88.6,531.3,88z"/>
<g class="st43">
	<g class="st133">
		<path d="M593,537.6c-7.3,2.8-33,11.6-69.6,9.2c0.1,1.4,0.3,2.6,0.5,4.1c4.2,0.3,8.8,0.3,12.7,0.3c28.5,0,48.7-6.2,56.6-9.2
			C593.1,540.5,593.2,539,593,537.6z"/>
	</g>
	<g class="st133">
		<path d="M520.7,524.6c0.2,1.5,0.5,4,0.6,4c2.6,0.1,5.1,0.1,7.5,0.1c32.3,0,55.5-7.7,63.5-10.8c0-1.4-0.1-3-0.1-4.4
			C585.9,516.1,558.4,526,520.7,524.6z"/>
	</g>
	<g class="st133">
		<path d="M518.1,506.4c0.8,0,1.8,0,2.6,0c35.7,0,62.4-9.2,70.3-12.3c0-1.4,0-2.7,0-4.3c-5.2,2.1-34,13.2-73.5,12.6
			C517.4,502.4,517.9,505.1,518.1,506.4z"/>
	</g>
	<g class="st133">
		<path d="M514.6,484c38.4-0.3,67.8-10.9,75.4-13.9c0-1.5,0-2.9,0-4.3c-3.1,1.3-34.2,14.1-76.1,14.3C513.8,480,514.5,484,514.6,484z
			"/>
	</g>
	<g class="st133">
		<path d="M510.8,461.6c38.3-1,68.8-11.9,77.2-15.2c0-1.4,0-2.9,0-4.3c-5,2.1-36.8,14.5-78,15.4C510,457.6,510.5,460.3,510.8,461.6z
			"/>
	</g>
	<g class="st133">
		<path d="M505.9,435.1c0.2,1.4,0.5,4,0.7,4c40.4-1.6,72.7-13.5,80.4-16.6c0-1.4,0-2.9,0-4.3C584.4,419.2,549.9,433.5,505.9,435.1z"
			/>
	</g>
	<g class="st133">
		<path d="M502.1,416.6c40.8-2.1,74.2-14.3,82.9-17.7c0-1.4,0-2.9,0-4.3c-4.9,2-40,15.9-83.7,18.1
			C501.2,412.6,502.1,416.6,502.1,416.6z"/>
	</g>
	<g class="st133">
		<path d="M582.8,371c-7,2.8-42.9,16.5-86.2,19.1c0,0.5,0.6,3.5,0.8,4c41.6-2.6,76.4-15.2,85.7-18.9
			C582.8,373.7,582.6,372.3,582.8,371z"/>
	</g>
	<g class="st133">
		<path d="M581.1,347.3c-7.6,3.1-45.2,17.4-89.8,20.3c0.5,1.2,0.7,2.6,1,3.9c42.5-3,78.6-16,88.9-20
			C581.2,350.1,581.5,348.7,581.1,347.3z"/>
	</g>
	<g class="st133">
		<path d="M486,345c0,1.3,0.1,2.6,0.6,4c42.5-3.2,79.4-16.1,91.6-20.8c-0.2-1.4-0.2-2.8-0.2-4.2C567.5,328.1,529.7,341.8,486,345z"
			/>
	</g>
	<g class="st133">
		<path d="M480.2,322.6c0.5,1.2,0.7,2.6,1,3.9c43.3-3.5,81.5-16.8,94.7-21.8c-0.1-1.4-0.2-2.7-0.5-4.1
			C563.3,305.3,524.4,319.1,480.2,322.6z"/>
	</g>
	<g class="st133">
		<path d="M573,277.2c-13.5,5.2-53.8,19.2-98.7,23c0.3,1.3,0.8,2.6,1.2,3.9c44.1-3.8,83.7-17.4,98.1-22.8
			C573.1,279.9,572.5,278.7,573,277.2z"/>
	</g>
	<g class="st133">
		<path d="M472,277.4c0,1.3,0,2.7,0,4c43.8-4.3,83.4-17.7,98.9-23.5c-0.1-1.3-0.3-2.7-0.7-4C555.6,259.4,516,273,472,277.4z"/>
	</g>
	<g class="st133">
		<path d="M566.5,228.4c-12.8,5-51.8,19.2-96,23c0,1.4-0.1,2.9,0.2,4.3c42.6-3.7,81.6-17.4,96.5-23
			C567.1,231.3,566.5,230,566.5,228.4z"/>
	</g>
	<g class="st133">
		<path d="M563,203c-11.8,4.7-50.5,18.9-92.5,22.3c-0.3,1.5,0.2,2.7,0,4.1c41.3-3.1,78.5-16.7,92.3-22.1
			C562.7,205.9,562.9,204.4,563,203z"/>
	</g>
	<g class="st133">
		<path d="M471.8,199c-0.5,1.2-0.6,2.8-0.5,4.1c39.6-2.9,75.8-16.3,88-21.2c-0.2-1.3-0.4-2.7-0.7-4C547.4,182.4,511.5,196,471.8,199
			z"/>
	</g>
	<g class="st133">
		<path d="M552.8,153.2c-11.3,4.7-42.9,16.6-77.8,19.4c-0.1,1.4-0.6,2.7-0.9,4.1c34.9-2.6,66.7-14.3,79.2-19.4
			C552.9,156.1,552.6,154.7,552.8,153.2z"/>
	</g>
	<g class="st133">
		<path d="M481.7,145.9c-0.5,1.4-1.2,2.8-1.8,4.2c29.8-2.9,56.5-12.7,68.1-17.5c-0.5-1.3-0.8-2.7-1-3.9
			C536.3,133.2,510.6,142.8,481.7,145.9z"/>
	</g>
	<g class="st133">
		<path d="M493.5,118.3c-1.1,1.3-2,2.9-2.8,4.5c21.5-3.2,40.2-9.9,50.6-14.2c-0.2-1.4-0.5-2.8-1.4-3.8
			C530.4,108.8,513.3,115,493.5,118.3z"/>
	</g>
</g>
<g class="st43">
	<g class="st133">
		<path d="M7,540.6c7.3,2.8,33,11.6,69.6,9.2c-0.1,1.4-0.3,2.6-0.5,4.1c-4.2,0.3-8.8,0.3-12.7,0.3c-28.5,0-48.7-6.2-56.6-9.2
			C6.9,543.5,6.8,542,7,540.6z"/>
	</g>
	<g class="st133">
		<path d="M79.4,527.6c-0.2,1.5-0.5,4-0.6,4c-2.6,0.1-5.1,0.1-7.5,0.1c-32.3,0-55.5-7.7-63.5-10.8c0-1.4,0.1-3,0.1-4.4
			C14.1,519.1,41.6,529,79.4,527.6z"/>
	</g>
	<g class="st133">
		<path d="M82,509.4c-0.8,0-1.8,0-2.6,0c-35.7,0-62.4-9.2-70.4-12.3c0-1.4,0-2.7,0-4.3c5,2.1,34,13.2,73.5,12.6
			C82.6,505.4,82.2,508.1,82,509.4z"/>
	</g>
	<g class="st133">
		<path d="M85.4,487C47,486.7,18,476.1,10,473.1c0-1.5,0-2.9,0-4.3c3,1.3,34.2,14.1,76.1,14.3C86.2,483,85.5,487,85.4,487z"/>
	</g>
	<g class="st133">
		<path d="M89.2,464.6c-38.3-1-69.2-11.9-77.2-15.2c0-1.4,0-2.9,0-4.3c5,2.1,36.8,14.5,78,15.4C90.1,460.6,89.6,463.3,89.2,464.6z"
			/>
	</g>
	<g class="st133">
		<path d="M94.2,438.1c-0.2,1.4-0.5,4-0.7,4C53.1,440.5,21,428.5,13,425.5c0-1.4,0-2.9,0-4.3C16,422.2,50.1,436.5,94.2,438.1z"/>
	</g>
	<g class="st133">
		<path d="M97.9,419.6C57.1,417.5,24,405.3,15,401.8c0-1.4,0-2.9,0-4.3c5,2,40,15.9,83.7,18.1C98.8,415.6,98,419.6,97.9,419.6z"/>
	</g>
	<g class="st133">
		<path d="M17.3,374c7,2.8,42.9,16.5,86.2,19.1c0,0.5-0.6,3.5-0.8,4c-41.6-2.6-76.4-15.2-85.7-18.9C17.2,376.7,17.4,375.3,17.3,374z
			"/>
	</g>
	<g class="st133">
		<path d="M19,350.3c7.6,3.1,45.2,17.4,89.8,20.3c-0.5,1.2-0.7,2.6-1,3.9c-42.5-3-78.6-16-88.9-20C18.8,353.1,18.6,351.7,19,350.3z"
			/>
	</g>
	<g class="st133">
		<path d="M114.1,348c0,1.3-0.1,2.6-0.6,4c-42.5-3.2-79.4-16.1-91.6-20.8c0.2-1.4,0.2-2.8,0.2-4.2C32.6,331.1,70.4,344.8,114.1,348z
			"/>
	</g>
	<g class="st133">
		<path d="M119.8,325.6c-0.5,1.2-0.7,2.6-1,3.9c-43.3-3.5-81.5-16.8-94.7-21.8c0.1-1.4,0.2-2.7,0.5-4.1
			C36.8,308.3,75.7,322.1,119.8,325.6z"/>
	</g>
	<g class="st133">
		<path d="M27.1,280.2c13.5,5.2,53.8,19.2,98.7,23c-0.3,1.3-0.8,2.6-1.2,3.9c-44.1-3.8-83.7-17.4-98.1-22.8
			C27,282.9,27.5,281.7,27.1,280.2z"/>
	</g>
	<g class="st133">
		<path d="M128,280.4c0,1.3,0,2.7,0,4c-44-4.3-83.4-17.7-98.9-23.5c0.1-1.3,0.3-2.7,0.6-4C44.4,262.4,84,276,128,280.4z"/>
	</g>
	<g class="st133">
		<path d="M33.6,231.4c12.8,5,51.8,19.2,96,23c0,1.4,0.1,2.9-0.2,4.3c-42.6-3.7-81.6-17.4-96.5-23C33,234.3,33.5,233,33.6,231.4z"/>
	</g>
	<g class="st133">
		<path d="M37.1,206c11.8,4.7,50.5,18.9,92.5,22.3c0.3,1.5-0.2,2.7,0,4.1c-41.3-3.1-78.5-16.7-92.3-22.1
			C37.4,208.9,37.2,207.4,37.1,206z"/>
	</g>
	<g class="st133">
		<path d="M128.3,202c0.5,1.2,0.6,2.8,0.5,4.1c-39.6-2.9-75.8-16.3-88-21.2c0.2-1.3,0.4-2.7,0.7-4C52.6,185.4,88.5,199,128.3,202z"
			/>
	</g>
	<g class="st133">
		<path d="M47.3,156.2c11.3,4.7,42.9,16.6,77.8,19.4c0.1,1.4,0.6,2.7,0.9,4.1c-34.9-2.6-66.7-14.3-79.2-19.4
			C47.2,159.1,47.4,157.7,47.3,156.2z"/>
	</g>
	<g class="st133">
		<path d="M118.4,148.9c0.5,1.4,1.2,2.8,1.8,4.2c-29.8-2.9-56.5-12.7-68.1-17.5c0.5-1.3,0.8-2.7,1-3.9
			C63.8,136.2,89.5,145.8,118.4,148.9z"/>
	</g>
	<g class="st133">
		<path d="M106.6,121.3c1.1,1.3,2,2.9,2.8,4.5c-21.5-3.2-40.2-9.9-50.6-14.2c0.2-1.4,0.5-2.8,1.4-3.8
			C69.6,111.8,86.7,118,106.6,121.3z"/>
	</g>
</g>
<g>
	<g>
		<path class="st5" d="M387.3,138.8c-17.4,0-31.5,14.1-31.5,31.5s14.1,31.5,31.5,31.5s31.5-14.1,31.5-31.5S404.7,138.8,387.3,138.8
			L387.3,138.8z"/>
	</g>
	<path class="st149" d="M407.9,148.5c-1-0.9-2.6-0.9-3.5,0.1c0,0-0.1,0.1-0.1,0.1c-0.3,0.2-0.5,0.5-0.8,0.8l-16,28.3l-16.1-28.5
		c-0.1-0.2-0.2-0.4-0.4-0.5c-0.1-0.2-0.2-0.3-0.3-0.5c-0.9-1-2.5-1.1-3.5-0.1c-6.2,5.7-9.7,13.7-9.7,22.1c0,5.3,1.4,10.4,4,15
		c2.5,4.4,6.2,8.1,10.6,10.7c0.4,0.2,0.9,0.4,1.3,0.4c0.8,0,1.7-0.4,2.1-1.2c0.7-1.2,0.3-2.7-0.9-3.4c-7.5-4.5-12.2-12.7-12.2-21.5
		c0-5.8,2.1-11.4,5.8-15.9l17.1,30.1l0,0c0.1,0.2,0.2,0.4,0.4,0.5c0,0,0.1,0.1,0.1,0.1c0,0.1,0.1,0.1,0.2,0.2c0,0,0.1,0.1,0.1,0.1
		c0.1,0.1,0.1,0.2,0.2,0.2c0,0,0,0.1,0.1,0.1l0,0c0,0,0-0.1,0-0.1c0.1,0.1,0.2,0.1,0.3,0.1c0.1,0,0.2,0.1,0.3,0.1c0,0,0,0,0,0
		c0.2,0.1,0.5,0.1,0.7,0.1l0,0l0,0c0.2,0,0.5-0.1,0.7-0.1c0,0,0,0,0.1,0c0.1,0,0.2-0.1,0.2-0.1c0.1,0,0.2-0.1,0.2-0.1c0,0,0,0,0.1,0
		l0,0c0,0,0,0,0,0c0.1-0.1,0.1-0.1,0.2-0.2c0,0,0,0,0.1-0.1c0.1-0.1,0.1-0.1,0.2-0.1c0,0,0-0.1,0.1-0.1c0.2-0.2,0.3-0.3,0.4-0.5l0,0
		l17-29.9c3.6,4.5,5.6,9.9,5.6,15.8c0,8.6-4.3,16.4-11.5,21c-1.1,0.8-1.5,2.3-0.8,3.4c0.5,0.8,1.3,1.2,2.1,1.2
		c0.5,0,0.9-0.1,1.4-0.4c8.6-5.5,13.8-15,13.8-25.2C417.3,162.1,413.9,154.2,407.9,148.5z"/>
	<g>
		<path class="st149" d="M382.3,161.7c-2.2,0-4-1.8-4-4.1v-4.1c0-2.2,1.9-4.1,4-4.1c2.2,0,4.1,1.8,4.1,4.1v4.1
			C386.4,159.9,384.6,161.7,382.3,161.7z M380.9,153.5v4.1c0,0.8,0.7,1.5,1.5,1.5c0.8,0,1.5-0.7,1.5-1.5v-4.1c0-0.8-0.6-1.5-1.5-1.5
			C381.5,152,380.9,152.7,380.9,153.5z"/>
		<path class="st149" d="M395.8,157.4c0,2.4-1.9,4.3-4.3,4.3c-1.3,0-2.6-0.6-3.4-1.7c-0.5-0.6-0.4-1.4,0.2-1.8
			c0.6-0.4,1.4-0.3,1.8,0.2c0.9,1.2,3,0.6,3-1c0-0.9-0.8-1.7-1.7-1.7c-0.4,0-0.7,0.1-1,0.4c-0.6,0.4-1.4,0.3-1.8-0.2
			c-0.2-0.3-0.3-0.7-0.2-1.1l0.6-4.1c0.1-0.6,0.6-1.1,1.3-1.1h3.6c0.7,0,1.3,0.6,1.3,1.3c0,0.7-0.6,1.3-1.3,1.3h-2.5l-0.2,1h0.2
			C393.9,153.1,395.8,155,395.8,157.4z"/>
	</g>
</g>
</svg>
