<?xml version="1.0" encoding="utf-8"?>
<!-- Generator: Adobe Illustrator 17.0.0, SVG Export Plug-In . SVG Version: 6.00 Build 0)  -->
<!DOCTYPE svg PUBLIC "-//W3C//DTD SVG 1.1//EN" "http://www.w3.org/Graphics/SVG/1.1/DTD/svg11.dtd" [
	<!ENTITY ns_flows "http://ns.adobe.com/Flows/1.0/">
	<!ENTITY ns_extend "http://ns.adobe.com/Extensibility/1.0/">
	<!ENTITY ns_ai "http://ns.adobe.com/AdobeIllustrator/10.0/">
	<!ENTITY ns_graphs "http://ns.adobe.com/Graphs/1.0/">
]>
<svg version="1.1" id="Layer_1" xmlns:x="&ns_extend;" xmlns:i="&ns_ai;" xmlns:graph="&ns_graphs;"
	 xmlns="http://www.w3.org/2000/svg" xmlns:xlink="http://www.w3.org/1999/xlink" xmlns:a="http://ns.adobe.com/AdobeSVGViewerExtensions/3.0/"
	 x="0px" y="0px" width="600px" height="600px" viewBox="0 0 600 600" style="enable-background:new 0 0 600 600;"
	 xml:space="preserve">
<style type="text/css">
	.st0{fill:#0068B4;}
	.st1{fill:#9400A6;}
	.st2{fill:#FFFFFF;}
	.st3{fill:#D2D705;}
	.st4{fill:#7A9E04;}
	.st5{fill:#C272D7;stroke:#000000;stroke-miterlimit:10;}
	.st6{fill:#FFFFFF;stroke:#000000;stroke-miterlimit:10;}
	.st7{fill:#7C0014;}
	.st8{fill:#E0DE71;stroke:#000000;stroke-miterlimit:10;}
	.st9{fill:#CC5C9B;}
	.st10{fill:#B91F75;}
	.st11{fill:#C8218D;stroke:#000000;stroke-miterlimit:10;}
	.st12{fill:#EBA79C;stroke:#000000;stroke-miterlimit:10;}
	.st13{fill:#FF7D6F;}
	.st14{fill:#FE5561;}
	.st15{stroke:#000000;stroke-miterlimit:10;}
	.st16{fill:#10792E;}
	.st17{fill:#5F546E;}
	.st18{fill:#10792E;stroke:#000000;stroke-miterlimit:10;}
	.st19{fill:#C8218D;}
	.st20{fill:#C7CCC4;}
	.st21{fill:#A7DCF3;stroke:#000000;stroke-miterlimit:10;}
	.st22{fill:#49B7E7;}
	.st23{fill:#CB5E22;stroke:#000000;stroke-miterlimit:10;}
	.st24{fill:url(#SVGID_1_);}
	.st25{fill:url(#SVGID_2_);}
	.st26{fill:url(#SVGID_3_);}
	.st27{fill:url(#SVGID_4_);}
	.st28{fill:url(#SVGID_5_);}
	.st29{fill:#242424;stroke:#CB5E22;stroke-miterlimit:10;}
	.st30{fill:#2A2A2A;stroke:#000000;stroke-miterlimit:10;}
	.st31{fill:#5F5F5F;}
	.st32{fill:#2A2A2A;stroke:#FFFFFF;stroke-miterlimit:10;}
	.st33{fill:#C82321;}
	.st34{fill:#FF8075;stroke:#000000;stroke-miterlimit:10;}
	.st35{fill:#FF5A4A;}
	.st36{fill:#FF056D;stroke:#FF8075;stroke-miterlimit:10;}
	.st37{fill:#0075FA;stroke:#000000;stroke-miterlimit:10;}
	.st38{fill:#FF056D;}
	.st39{fill:#0066AE;}
	.st40{fill:#FF056D;stroke:#0075FA;stroke-miterlimit:10;}
	.st41{fill:#EDF3F8;stroke:#000000;stroke-miterlimit:10;}
	.st42{fill:#1D1D1B;stroke:#EDF3F8;stroke-miterlimit:10;}
	.st43{fill:#CFB114;}
	.st44{fill:#22A2A9;}
	.st45{fill:#C2BEC8;}
	.st46{fill:#10792E;stroke:#FFFFFF;stroke-miterlimit:10;}
	.st47{fill:#F6FF14;stroke:#000000;stroke-miterlimit:10;}
	.st48{fill:none;stroke:#87C000;stroke-width:8;stroke-linecap:round;stroke-miterlimit:10;}
	.st49{fill:#DEE200;}
	.st50{fill:#008290;}
	.st51{fill:#FFB7B1;}
	.st52{fill:#9400A6;stroke:#000000;stroke-miterlimit:10;}
	.st53{fill:#DF6B54;stroke:#000000;stroke-miterlimit:10;}
	.st54{fill:#C13323;}
	.st55{fill:#5E0089;}
	.st56{fill:#FDB05F;stroke:#000000;stroke-miterlimit:10;}
	.st57{fill:none;stroke:#000000;stroke-miterlimit:10;}
	.st58{fill:#435338;}
	.st59{fill:#580088;}
	.st60{fill:#EBA79C;}
	.st61{fill:#FE5561;stroke:#EBA79C;stroke-miterlimit:10;}
	.st62{fill:#F78100;}
	.st63{fill:#FDB05F;}
	.st64{fill:#8E48D8;stroke:#000000;stroke-miterlimit:10;}
	.st65{fill:#5D22A5;}
	.st66{fill:#87D971;stroke:#000000;stroke-miterlimit:10;}
	.st67{fill:#B8EDA4;}
	.st68{fill:#4EC23A;}
	.st69{fill:#2F2428;}
	.st70{fill:#CD0A36;}
	.st71{fill:#4C4C4C;}
	.st72{fill:#146EE4;stroke:#000000;stroke-miterlimit:10;}
	.st73{fill:#79B2FF;}
	.st74{fill:none;stroke:#79B2FF;stroke-width:11;stroke-miterlimit:10;}
	.st75{fill:#0055B8;}
	.st76{fill:#307DDB;}
	.st77{fill:#4F435F;}
	.st78{fill:#212025;}
	.st79{fill:none;stroke:#67D700;stroke-width:8;stroke-miterlimit:10;}
	.st80{fill:#B1BBBE;stroke:#000000;stroke-miterlimit:10;}
	.st81{fill:#8A8B97;}
	.st82{fill:#505C66;stroke:#747785;stroke-miterlimit:10;}
	.st83{fill:#06D0CC;stroke:#000000;stroke-miterlimit:10;}
	.st84{fill:#0299AF;stroke:#000000;stroke-miterlimit:10;}
	.st85{fill:#019DBA;}
	.st86{fill:#CAC5C0;}
	.st87{fill:#0453BC;}
	.st88{fill:#535353;}
	.st89{fill:#EA772F;stroke:#000000;stroke-miterlimit:10;}
	.st90{fill:#1F2427;}
	.st91{fill:#E05900;}
	.st92{fill:#A8A8B4;}
	.st93{fill:#005898;}
	.st94{fill:#79B2FF;stroke:#000000;stroke-miterlimit:10;}
	.st95{fill:#1D3F89;}
	.st96{fill:#E87140;stroke:#000000;stroke-miterlimit:10;}
	.st97{fill:#002F55;}
	.st98{fill:#59504E;stroke:#000000;stroke-miterlimit:10;}
	.st99{fill:#505C66;}
	.st100{fill:#4D99E4;}
	.st101{fill:#F7A161;}
	.st102{fill:#C13323;stroke:#F7A161;stroke-miterlimit:10;}
	.st103{fill:#D24D91;stroke:#000000;stroke-miterlimit:10;}
	.st104{fill:#923EB9;}
	.st105{fill:#D24D91;}
	.st106{fill:#1C232F;stroke:#D24D91;stroke-miterlimit:10;}
	.st107{fill:#0E7B95;stroke:#000000;stroke-miterlimit:10;}
	.st108{fill:#005E8F;}
	.st109{fill:#E2187D;stroke:#000000;stroke-miterlimit:10;}
	.st110{fill:#00A0EB;stroke:#000000;stroke-miterlimit:10;}
	.st111{fill:#C51971;}
	.st112{fill:#E2187D;}
	.st113{fill:#67D700;stroke:#000000;stroke-miterlimit:10;}
	.st114{fill:#48A333;}
	.st115{fill:#67D700;}
	.st116{fill:#8E48D8;}
	.st117{stroke:#A0A0A0;stroke-miterlimit:10;}
	.st118{fill:#87D971;}
	.st119{fill:#4EC23A;stroke:#000000;stroke-miterlimit:10;}
	.st120{fill:#C72365;}
	.st121{fill:#9712C5;}
	.st122{fill:#307DDB;stroke:#000000;stroke-miterlimit:10;}
	.st123{fill:#D53D1F;}
	.st124{fill:#A9007C;}
	.st125{fill:#CDCB20;}
	.st126{fill:#48A333;stroke:#B1C49B;stroke-miterlimit:10;}
	.st127{fill:none;stroke:#48A333;stroke-width:4;stroke-miterlimit:10;}
	.st128{fill:#5A1F8E;}
	.st129{fill:none;stroke:#5A1F8E;stroke-width:3;stroke-miterlimit:10;}
	.st130{fill:#5A1F8E;stroke:#CC5C9B;stroke-miterlimit:10;}
	.st131{fill:#E81C2F;}
	.st132{fill:#FFEE34;}
	.st133{fill:none;stroke:#024598;stroke-width:8;stroke-linecap:round;stroke-miterlimit:10;}
	.st134{fill:none;stroke:#1D1D1B;stroke-width:4;stroke-miterlimit:10;}
	.st135{fill:none;stroke:#FF056D;stroke-width:6;stroke-linecap:round;stroke-miterlimit:10;}
	.st136{fill:#7A8504;}
	.st137{fill:#121617;stroke:#7A8504;stroke-miterlimit:10;}
	.st138{fill:none;stroke:#00268A;stroke-width:6;stroke-linecap:round;stroke-miterlimit:10;}
	.st139{fill:#145863;}
	.st140{fill:#145863;stroke:#22A2A9;stroke-miterlimit:10;}
	.st141{fill:#54B948;}
	.st142{fill:#6F00A6;stroke:#000000;stroke-miterlimit:10;}
	.st143{fill:none;stroke:#FFFFFF;stroke-width:6;stroke-miterlimit:10;}
	.st144{fill:#14DEAC;}
	.st145{fill:#1466AC;}
	.st146{fill:#757575;}
	.st147{fill:none;stroke:#CD0A36;stroke-width:8;stroke-miterlimit:10;}
	.st148{fill:none;stroke:#67D700;stroke-width:40;stroke-miterlimit:10;}
	.st149{fill:#CD0A36;stroke:#000000;stroke-miterlimit:10;}
	.st150{fill:#ED1C24;}
	.st151{fill:none;stroke:#505C66;stroke-width:3;stroke-miterlimit:10;}
	.st152{fill:none;stroke:#06D0CC;stroke-width:3;stroke-miterlimit:10;}
	.st153{fill:#007AC2;}
	.st154{fill:#EF3D1F;}
	.st155{stroke:#EA772F;stroke-miterlimit:10;}
	.st156{fill:#0068B4;stroke:#000000;stroke-miterlimit:10;}
	.st157{fill:#9712C5;stroke:#000000;stroke-miterlimit:10;}
	.st158{fill:#3D8D28;stroke:#000000;stroke-miterlimit:10;}
	.st159{fill:#68ED3A;}
	.st160{fill:#3D8D28;stroke:#FFFFFF;stroke-miterlimit:10;}
	.st161{fill:#68ED3A;stroke:#000000;stroke-miterlimit:10;}
	.st162{fill:#68ED3A;stroke:#FFFFFF;stroke-miterlimit:10;}
	.st163{fill:#00317D;}
	.st164{fill:#00737D;}
	.st165{fill:#146EE4;}
	.st166{fill:#4D99E4;stroke:#000000;stroke-miterlimit:10;}
	.st167{fill:none;stroke:#FFFFFF;stroke-width:11;stroke-miterlimit:10;}
	.st168{fill:#224754;}
	.st169{fill:#0E7B95;}
	.st170{fill:#FF8400;stroke:#000000;stroke-miterlimit:10;}
	.st171{fill:#00A0EB;}
	.st172{fill:#B9187D;}
	.st173{fill:#015297;}
	.st174{fill:#B0B0B0;}
	.st175{fill:#E1062F;}
	.st176{fill:#005BAB;}
</style>
<path class="st21" d="M417.8,590.3c35.4-3.6,59.7-9.6,59.8-19.3c0-22-2.9-270-2.9-270s42.1,151,52.1,285c49.7-2.2,58.8-3.3,67.6-9.8
	c0-93.6-20.8-396.5-56.5-478.7c-11.6-26.7-84.7-58.1-155.5-80.1c-24.8-7.7-54.1-9.9-81.7-9.4c-27.8-0.6-61.4,1.3-86.4,9.1
	C143.6,39.2,74.6,70.8,63,97.5C27.2,179.7,6.5,482.7,6.5,576.2c8.8,6.4,17.7,7.6,67.5,9.8c10-134,52-285,52-285s-4.1,248-4.1,270
	c0.2,18.6,87.7,23.8,173.7,24v0c1,0,2.5,0,3.5,0c1,0,2.5,0,3.5,0v0C343.6,594.9,385.4,593.6,417.8,590.3"/>
<g>
	<g>
		<path class="st22" d="M227.5,28.7C240.3,46,262,62.5,298.1,62.5c36.2,0,56.3-16.8,67.4-34.5C335.2,31.1,259.9,30.8,227.5,28.7z"/>
		<path class="st21" d="M368.1,1c-17.6,5.3-142.2,2.9-148.6,0.6c-0.1,0.3-0.3,0.7-0.5,1.1c2.2,7.1,6.3,17.5,13.7,27.5
			c29.5,1.9,97.9,2.2,125.6-0.6c6.2-9.9,9.4-20.2,10.9-27.3C368.8,1.8,368.4,1.4,368.1,1z"/>
	</g>
	<path class="st21" d="M369.2,2.3c-4.1,18.7-19,58.7-72.2,58.7c-53.9,0-72.4-40.1-78-58.3c-2.9,5.3-13.9,16.7-13.9,16.7
		s14.4,61,89.9,61c76.5,0,86.6-58.7,87.7-63.1C380.6,16.4,373.4,6.9,369.2,2.3z"/>
</g>
<path class="st22" d="M69.9,88.8c0,0,77.1,9.2,55.7,220c-0.4,79.7-1.8,141.7-2.4,184.6c-0.7,46.5-0.8,70.5-0.8,71.6
	c0,3.2-0.6,7.5,0.8,9.2c0.7,1.1,1.7,2.3,3.4,3.5c4.7,3.4,15.3,6.5,27.3,8.8c-14.2-11.6-10.9-42.8-9.8-72.1c1.1-29.4-24-95.4-3-199.4
	c6.8-33.6-5.5-74.9-6-84C131.1,163.3,118.7,97.5,69.9,88.8z"/>
<path class="st22" d="M531.8,89.2c0,0-79.2,0.7-57.7,211.5c2.1,168.9,3.2,265.3,3.2,264.5c0-2.3,0,2.4,0,6.2c0,1.3-0.7,2.6-0.9,2.9
	c-0.7,1.1-2,2.2-3.6,3.4c-4.7,3.4-13.3,5.9-25.1,8.2c14.2-11.6,11.1-41.8,10-71.2c-1.1-29.4,24-95.4,3-199.4
	c-6.8-33.6,1.5-83.4,2-92.4C466.5,155.3,485.2,92.2,531.8,89.2z"/>
<line class="st133" x1="98.9" y1="103.6" x2="181" y2="60"/>
<line class="st133" x1="114.9" y1="126.8" x2="229" y2="68"/>
<line class="st133" x1="125.5" y1="155" x2="263.8" y2="82.2"/>
<line class="st133" x1="231" y1="133.5" x2="417.7" y2="35.3"/>
<line class="st133" x1="131.9" y1="185.6" x2="193.1" y2="153.4"/>
<line class="st133" x1="410.5" y1="73" x2="455.7" y2="49.3"/>
<line class="st133" x1="292.6" y1="135" x2="377.3" y2="90.5"/>
<line class="st133" x1="134.5" y1="218.3" x2="292.6" y2="135"/>
<line class="st133" x1="234.5" y1="199.8" x2="489.7" y2="66"/>
<line class="st133" x1="140" y1="249.4" x2="201" y2="217.4"/>
<line class="st133" x1="374.9" y1="159.8" x2="515" y2="86"/>
<line class="st133" x1="190.1" y1="257" x2="351.7" y2="172"/>
<line class="st133" x1="143.1" y1="281.8" x2="177.2" y2="263.8"/>
<line class="st133" x1="442.4" y1="158.2" x2="477" y2="140"/>
<line class="st133" x1="266.1" y1="251" x2="417.6" y2="171.3"/>
<path class="st133" d="M266.1,251"/>
<path class="st133" d="M241.3,264"/>
<line class="st133" x1="140.5" y1="317.1" x2="241.3" y2="264"/>
<line class="st133" x1="353.5" y1="239" x2="466.4" y2="179.6"/>
<line class="st133" x1="216.8" y1="310.9" x2="327.4" y2="252.8"/>
<line class="st133" x1="133.9" y1="354.6" x2="186.2" y2="327.1"/>
<line class="st133" x1="412.1" y1="242.2" x2="462.5" y2="215.6"/>
<line class="st133" x1="130.5" y1="390.4" x2="391.9" y2="252.8"/>
<line class="st133" x1="236.7" y1="368.5" x2="459.6" y2="251.2"/>
<line class="st133" x1="132.3" y1="423.4" x2="207.4" y2="383.9"/>
<line class="st133" x1="381.2" y1="326.4" x2="455.6" y2="287.3"/>
<line class="st133" x1="136.3" y1="455.3" x2="347.1" y2="344.4"/>
<line class="st133" x1="236.3" y1="436.7" x2="460.3" y2="318.8"/>
<line class="st133" x1="141.8" y1="486.4" x2="195.9" y2="457.9"/>
<line class="st133" x1="341.2" y1="415.5" x2="464.9" y2="350.4"/>
<line class="st133" x1="145.3" y1="518.6" x2="308.8" y2="432.5"/>
<line class="st133" x1="419.2" y1="408.4" x2="467" y2="383.3"/>
<line class="st133" x1="261.3" y1="491.5" x2="386.7" y2="425.5"/>
<line class="st133" x1="142.1" y1="554.3" x2="231.2" y2="507.4"/>
<line class="st133" x1="361" y1="473" x2="466.9" y2="417.3"/>
<line class="st133" x1="209.4" y1="552.8" x2="335.3" y2="486.6"/>
<line class="st133" x1="152.9" y1="582.6" x2="185.7" y2="565.3"/>
<line class="st133" x1="316.3" y1="532.6" x2="462.5" y2="455.6"/>
<line class="st133" x1="213.4" y1="586.8" x2="287.4" y2="547.8"/>
<line class="st133" x1="415.6" y1="516.3" x2="457.2" y2="494.4"/>
<line class="st133" x1="273.3" y1="591.2" x2="386.4" y2="531.7"/>
<line class="st133" x1="345.1" y1="589.4" x2="456.7" y2="530.7"/>
<line class="st133" x1="418.7" y1="586.7" x2="456.7" y2="566.7"/>
<g>
	<g>
		<path class="st2" d="M298.1,214.8c-18.7,0-34-15.2-34-34s15.2-34,34-34s34,15.2,34,34S316.8,214.8,298.1,214.8z"/>
		<path d="M298.1,148.1c8.7,0,17,3.4,23.1,9.6c6.2,6.2,9.6,14.4,9.6,23.1s-3.4,17-9.6,23.1c-6.2,6.2-14.4,9.6-23.1,9.6
			s-17-3.4-23.1-9.6c-6.2-6.2-9.6-14.4-9.6-23.1s3.4-17,9.6-23.1C281.1,151.5,289.3,148.1,298.1,148.1 M298.1,145.5
			c-19.5,0-35.3,15.8-35.3,35.3s15.8,35.3,35.3,35.3s35.3-15.8,35.3-35.3S317.6,145.5,298.1,145.5L298.1,145.5z"/>
	</g>
	<g>
		<circle class="st2" cx="298.1" cy="180.8" r="30"/>
		<path d="M298.1,211.5c-16.9,0-30.7-13.8-30.7-30.7s13.8-30.7,30.7-30.7s30.7,13.8,30.7,30.7S315,211.5,298.1,211.5z M298.1,151.5
			c-16.1,0-29.3,13.1-29.3,29.3s13.1,29.3,29.3,29.3s29.3-13.1,29.3-29.3S314.2,151.5,298.1,151.5z"/>
	</g>
	<g>
		<path d="M318.7,159.6L276.3,202c5.4,5.4,12.9,8.8,21.2,8.8c16.6,0,30-13.4,30-30C327.5,172.5,324.1,165,318.7,159.6z"/>
	</g>
	<path d="M290.6,181.2c0.4,0,0.3,0.3,0.3,0.5c0,1.1-0.4,2.2-1,3.4c2-1.3,3.2-3,4.2-5c0.2,0.9,0,1.6,0,2.3c2.9-2.8,3.8-6.3,2.8-10.4
		c0.7,0.7,1.4,1.2,2.1,1.8c-0.2-2.5-1.3-4.4-2.6-6.4c0.5-0.1,0.8,0.4,1.2,0.4c0.1-0.1,0-0.2-0.1-0.3c-1.5-2.5-3.4-4.6-5.9-6
		c-2.7-1.6-5.5-1.8-8.5-1.1c-0.9,0.3-1.7,0.7-2.3,1.4c-0.2,0.2-0.3,0.3-0.6,0.3c-0.6,0.1-1.2,0.1-1.7,0.3c-1.1,0.4-1.9,1.2-2.1,2.4
		c-0.2,1.2,0.1,2.2,1.1,2.9c0.1,0.1,0.1,0.1,0.2,0.1c0,0,0.1,0,0.1,0c0.1-0.1,0-0.3,0-0.4c0-0.9,0.3-1.2,1.3-1.2
		c2.6,0.1,4,2.1,3.4,4.9c-0.2,1.3-0.8,2.5-1.3,3.8c-0.9,2-1.4,4-1.2,6.2c0,0.3,0,0.5,0.2,0.9c1.6-1.2,2.9-2.6,4.1-4.3
		c0,2-0.4,3.8-1,5.7c1.1-0.6,1.8-1.4,2.5-2.2c0,0.6-0.1,1-0.6,1.6c-0.2,0.3-0.3,0.6-0.2,1c0.3,1.3,0.1,2.6-0.2,4
		c0,0.2-0.1,0.3,0,0.6c1.9-1.4,3.5-3,4.8-5C289.9,182.6,290.4,181.9,290.6,181.2c-0.2,0-0.3,0.4-0.6,0.4c0.7-3.4,0.2-6.7-1.6-9.6
		c0.1,3-0.7,5.7-2.2,6.5c0.4-1.7,0.5-3.4-0.1-5c-0.3,0-0.4,0.4-0.7,0.3c0.3-0.7,0.5-1.4,0.5-2.1c0.1-0.7-0.1-1.4-0.3-2.1
		c0.5,0.2,0.8,0.7,1.4,1.1c-1-2.8-3-4.1-5.6-4.6c1.1-0.3,2.3-0.2,3.4-0.1c-0.1-0.2-0.3-0.2-0.4-0.3c-1.4-0.5-2.8-0.5-4.2-0.5
		c-1,0-2.1,0-2.8,1c-0.4-1.5,0.2-2.6,1.6-2.9c0.7-0.1,1.3-0.2,2-0.2c0.2,0,0.4,0,0.5-0.3c0.4-1,1.3-1.3,2.1-1.5
		c4.9-1.2,8.7,1.3,11.1,4.4c0,0,0,0.1,0,0.2c-0.5-0.1-0.9-0.4-1.5-0.4c1.6,1.5,2.7,3.2,3.4,5.1c-1.1-0.7-2-1.5-3.1-2
		c0.9,1.3,1.5,2.8,1.6,4.4c0.2,1.6-0.3,3.8-0.9,4.5c-0.3-2.6-1.2-4.6-2.5-5.6c0.3,0.9,0.6,1.7,0.6,2.6c0.1,0.9,0.1,1.8-0.1,2.7
		C292.2,178.6,291.5,179.9,290.6,181.2z"/>
	<path d="M289.2,163.5c-2.1-1.8-4.4-0.8-6.5-0.6c0.6,1,2,1.7,3,1.4c0.2-0.1,0.5-0.1,0.6-0.3c0.7-1.1,1.6-0.7,2.5-0.5
		c0.1,0,0.2,0,0.3,0C289.1,163.5,289.1,163.5,289.2,163.5z"/>
	<path d="M280.9,164.3c0.2,0,0.3-0.1,0.3-0.3c0-0.3-0.2-0.5-0.5-0.5c-0.2,0-0.3,0.1-0.3,0.3C280.4,164.1,280.6,164.2,280.9,164.3z"
		/>
	<path class="st2" d="M322.5,191h-10.1c-0.8-0.7-1.4-1.5-1.4-2.6c0-0.8,0.8-0.9,0.9-0.9s0.9,0,0.9,0.9h1.7c0-1.7-1.3-2.6-2.6-2.6
		c-1.3,0-2.6,0.9-2.6,2.6c0,1.1,0.3,1.9,0.9,2.6H306v-5.7h9.1v-1.7H306h-1.7v1.7v12.8h1.7v-5.4h5.7c0.8,0.7,1.5,1.3,1.5,2v0.1
		c0,0.3,0.1,1.1-0.3,1.4c-0.1,0.1-0.2,0.3-0.7,0.3c-0.5,0-0.8-0.1-1-0.3c-0.4-0.4-0.4-1.2-0.4-1.5l-0.9-0.1l-0.9-0.1
		c0,0.2-0.2,1.7,0.8,2.8c0.4,0.4,1.1,0.9,2.2,0.9c1.1,0,1.7-0.5,2-0.9c0.8-1,0.7-2.4,0.7-2.7c0-0.8-0.3-1.4-0.8-2h6.4h0.2
		c-0.9,5.3-5.6,9.5-11.1,9.5c-6.2,0-11.3-5.1-11.3-11.3c0-6.2,5.1-11.3,11.3-11.3c3,0,5.9,1.2,8,3.3l1.2-1.2
		c-2.4-2.4-5.8-3.8-9.2-3.8c-7.2,0-13,5.8-13,13c0,7.2,5.8,13,12.9,13C316.7,204,322.5,198.2,322.5,191
		C322.5,191.1,322.5,191.1,322.5,191z"/>
</g>
</svg>
