<?xml version="1.0" encoding="utf-8"?>
<!-- Generator: Adobe Illustrator 17.0.0, SVG Export Plug-In . SVG Version: 6.00 Build 0)  -->
<!DOCTYPE svg PUBLIC "-//W3C//DTD SVG 1.1//EN" "http://www.w3.org/Graphics/SVG/1.1/DTD/svg11.dtd" [
	<!ENTITY ns_flows "http://ns.adobe.com/Flows/1.0/">
	<!ENTITY ns_extend "http://ns.adobe.com/Extensibility/1.0/">
	<!ENTITY ns_ai "http://ns.adobe.com/AdobeIllustrator/10.0/">
	<!ENTITY ns_graphs "http://ns.adobe.com/Graphs/1.0/">
]>
<svg version="1.1" id="Layer_1" xmlns:x="&ns_extend;" xmlns:i="&ns_ai;" xmlns:graph="&ns_graphs;"
	 xmlns="http://www.w3.org/2000/svg" xmlns:xlink="http://www.w3.org/1999/xlink" xmlns:a="http://ns.adobe.com/AdobeSVGViewerExtensions/3.0/"
	 x="0px" y="0px" width="600px" height="600px" viewBox="0 0 600 600" style="enable-background:new 0 0 600 600;"
	 xml:space="preserve">
<style type="text/css">
	.st0{fill:#000100;}
	.st1{fill:#E80040;stroke:#000000;stroke-miterlimit:10;}
	.st2{fill:#FCE200;stroke:#000000;stroke-miterlimit:10;}
	.st3{fill:#FEA63F;stroke:#000000;stroke-miterlimit:10;}
	.st4{fill:#FFFFFF;stroke:#000000;stroke-miterlimit:10;}
	.st5{fill:#FFFFFF;}
	.st6{fill:#7C0014;}
	.st7{fill:#75C255;stroke:#000000;stroke-miterlimit:10;}
	.st8{fill:#52B329;}
	.st9{fill:#52BCE0;stroke:#000000;stroke-miterlimit:10;}
	.st10{fill:#48ACD0;}
	.st11{fill:#028CBE;}
	.st12{fill:#52BCE0;}
	.st13{fill:#EFF0F9;stroke:#4E3B64;stroke-miterlimit:10;}
	.st14{fill:#1D5662;stroke:#000000;stroke-miterlimit:10;}
	.st15{fill:#1D5662;}
	.st16{fill:#054049;}
	.st17{fill:#037FC7;}
	.st18{fill:#9158B6;stroke:#000000;stroke-miterlimit:10;}
	.st19{fill:#752EA5;}
	.st20{fill:#2678C7;}
	.st21{fill:#FABFB6;stroke:#000000;stroke-miterlimit:10;}
	.st22{fill:#FABFB6;}
	.st23{fill:#FC8038;stroke:#FABFB6;stroke-miterlimit:10;}
	.st24{fill:#00A39B;}
	.st25{fill:#E53A3E;stroke:#000000;stroke-miterlimit:10;}
	.st26{fill:#E53A3E;}
	.st27{fill:#242424;stroke:#5C377E;stroke-miterlimit:10;}
	.st28{fill:#525252;stroke:#000000;stroke-miterlimit:10;}
	.st29{fill:#4998BB;}
	.st30{fill:#1A7F9E;}
	.st31{fill:#E58000;stroke:#000000;stroke-miterlimit:10;}
	.st32{fill:#BA7500;stroke:#000000;stroke-miterlimit:10;}
	.st33{fill:#DF961C;stroke:#000000;stroke-miterlimit:10;}
	.st34{fill:#DF961C;}
	.st35{fill:#EDF3F8;stroke:#000000;stroke-miterlimit:10;}
	.st36{fill:#DA7600;}
	.st37{fill:#C2BEC8;}
	.st38{fill:#000100;stroke:#FFFFFF;stroke-miterlimit:10;}
	.st39{fill:#A8F001;stroke:#000000;stroke-miterlimit:10;}
	.st40{fill:#0578CD;}
	.st41{fill:#1A58A5;}
	.st42{stroke:#625616;stroke-miterlimit:10;}
	.st43{adobe-knockout:true;}
	.st44{fill:none;stroke:#FFFFFF;stroke-width:3;stroke-miterlimit:10;adobe-knockout:false;}
	.st45{fill:#D71F26;stroke:#000000;stroke-miterlimit:10;}
	.st46{fill:#008183;}
	.st47{fill:#6FC266;}
	.st48{fill:#C4373C;}
	.st49{fill:#00CAB0;}
	.st50{fill:#FAAE1E;}
	.st51{fill:#EC153B;}
	.st52{fill:#00B296;}
	.st53{fill:#F2C958;stroke:#00CAB0;stroke-miterlimit:10;}
	.st54{fill:#FF354F;stroke:#000000;stroke-miterlimit:10;}
	.st55{fill:#0D36A7;stroke:#000000;stroke-miterlimit:10;}
	.st56{fill:#D2D7E2;stroke:#000000;stroke-miterlimit:10;}
	.st57{fill:#CA2B9D;stroke:#000000;stroke-miterlimit:10;}
	.st58{fill:#58006C;stroke:#000000;stroke-miterlimit:10;}
	.st59{fill:#C60021;}
	.st60{fill:#A30F81;}
	.st61{fill:#0159C0;stroke:#A0A0A0;stroke-miterlimit:10;}
	.st62{fill:#013390;}
	.st63{fill:#F08900;}
	.st64{fill:#D20129;}
	.st65{fill:#AD0000;}
	.st66{fill:#131E25;}
	.st67{fill:#DAD2D8;stroke:#000000;stroke-miterlimit:10;}
	.st68{fill:#0066B3;}
	.st69{fill:#969796;}
	.st70{fill:#E86271;}
	.st71{fill:url(#SVGID_1_);stroke:#000000;stroke-miterlimit:10;}
	.st72{fill:#5AB4D2;stroke:#000000;stroke-miterlimit:10;}
	.st73{fill:#5AB4D2;}
	.st74{fill:#FFFFFF;stroke:#5AB4D2;stroke-miterlimit:10;}
	.st75{fill:#073F98;stroke:#0453BC;stroke-miterlimit:10;}
	.st76{fill:#2762C9;stroke:#000000;stroke-miterlimit:10;}
	.st77{fill:#C252FF;}
	.st78{fill:url(#SVGID_2_);}
	.st79{fill:url(#SVGID_3_);}
	.st80{fill:#DAD2D8;}
	.st81{stroke:#000000;stroke-miterlimit:10;}
	.st82{fill:#05297D;stroke:#000000;stroke-miterlimit:10;}
	.st83{fill:#05297D;stroke:#FFFFFF;stroke-miterlimit:10;}
	.st84{fill:#A8A8B4;}
	.st85{fill:url(#SVGID_4_);stroke:#000000;stroke-miterlimit:10;}
	.st86{fill:#53536A;}
	.st87{fill:#073F98;}
	.st88{fill:#098FBC;}
	.st89{fill:url(#SVGID_5_);}
	.st90{fill:#F7A161;}
	.st91{fill:#FF0000;stroke:#000000;stroke-miterlimit:10;}
	.st92{fill:#F54849;stroke:#000000;stroke-miterlimit:10;}
	.st93{fill:url(#SVGID_6_);}
	.st94{fill:url(#SVGID_7_);}
	.st95{fill:#3A72B7;stroke:#000000;stroke-miterlimit:10;}
	.st96{fill:#96C4F0;stroke:#000000;stroke-miterlimit:10;}
	.st97{fill:#C50040;}
	.st98{fill:#D11E24;}
	.st99{fill:#E3E3E7;}
	.st100{stroke:#FFCF2B;stroke-miterlimit:10;}
	.st101{fill:none;stroke:#F9E42A;stroke-miterlimit:10;}
	.st102{fill:#F08900;stroke:#000000;stroke-miterlimit:10;}
	.st103{fill:#F28330;}
	.st104{fill:#FC8038;}
	.st105{fill:#5AB633;}
	.st106{fill:#553658;stroke:#75C255;stroke-miterlimit:10;}
	.st107{fill:#1853A6;}
	.st108{fill:#CB0000;}
	.st109{fill:#0F0D0E;}
	.st110{fill:#636363;}
	.st111{fill:#FFFFFF;stroke:#00A39B;stroke-miterlimit:10;}
	.st112{fill:#D71F26;}
	.st113{fill:#020000;}
	.st114{fill:none;stroke:#000000;stroke-width:0.5;stroke-miterlimit:10;}
	.st115{clip-path:url(#SVGID_9_);}
	.st116{clip-path:url(#SVGID_11_);}
	.st117{clip-path:url(#SVGID_13_);}
	.st118{clip-path:url(#SVGID_15_);}
	.st119{fill:#7A4A00;}
	.st120{fill:none;stroke:#1A7F9E;stroke-width:7;stroke-miterlimit:10;}
	.st121{fill:#E20227;stroke:#4998BB;stroke-miterlimit:10;}
	.st122{fill:#1F2427;}
	.st123{fill:#BA7500;}
	.st124{fill:none;stroke:#BA7500;stroke-width:7;stroke-miterlimit:10;}
	.st125{fill:#843D00;stroke:#000000;stroke-width:0.25;stroke-miterlimit:10;}
	.st126{stroke:#000000;stroke-width:0.25;stroke-miterlimit:10;}
	.st127{fill:#ECEEF3;stroke:#1A58A5;stroke-miterlimit:10;}
	.st128{fill:#233194;}
	.st129{fill:#E0DFE3;}
	.st130{fill:#C2BEC8;stroke:#000000;stroke-miterlimit:10;}
	.st131{fill:#233194;stroke:#000000;stroke-miterlimit:10;}
	.st132{fill:#A40100;}
	.st133{adobe-knockout:false;}
	.st134{fill:#A0AAC1;}
	.st135{fill:#A40100;stroke:#000000;stroke-miterlimit:10;}
	.st136{fill:#92F0D6;}
	.st137{fill:#F2C958;}
	.st138{fill:#CA2B9D;stroke:#CA2B9D;stroke-miterlimit:10;}
	.st139{fill:#A30F81;stroke:#000000;stroke-miterlimit:10;}
	.st140{fill:#7E2B42;}
	.st141{fill:#0D36A7;}
	.st142{fill:#EE1C24;}
	.st143{fill:#0159C0;}
	.st144{stroke:#A0A0A0;stroke-miterlimit:10;}
	.st145{stroke:#4E3B64;stroke-miterlimit:10;}
	.st146{fill:#FDEA00;stroke:#000000;stroke-width:0.217;}
	.st147{fill:#FDEA00;stroke:#000000;stroke-width:0.2326;}
	.st148{fill:#1D1D1B;}
	.st149{fill:#FF0000;}
	.st150{fill:none;stroke:#0453BC;stroke-width:25.435;stroke-miterlimit:10;adobe-knockout:false;}
	.st151{fill:none;stroke:#0453BC;stroke-width:25.4353;stroke-linecap:round;stroke-miterlimit:10;adobe-knockout:false;}
	.st152{fill:#CAC5C0;}
	.st153{fill:#2762C9;}
	.st154{fill:#C252FF;stroke:#000000;stroke-miterlimit:10;}
	.st155{fill:#A54B2D;stroke:#000000;stroke-miterlimit:10;}
	.st156{fill:#A54B2D;}
	.st157{stroke:#A54B2D;stroke-miterlimit:10;}
	.st158{fill:#823311;}
	.st159{fill:none;}
	.st160{fill:#05297D;}
	.st161{fill:none;stroke:#FF7F35;stroke-width:6;stroke-miterlimit:10;}
	.st162{fill:#031DFF;stroke:#000000;stroke-miterlimit:10;}
	.st163{fill:#0370FF;stroke:#000000;stroke-miterlimit:10;}
	.st164{fill:#031DC4;}
	.st165{fill:none;stroke:#0080CA;stroke-width:6;stroke-miterlimit:10;}
	.st166{fill:#031DFF;stroke:#FFFFFF;stroke-miterlimit:10;}
	.st167{fill:#0263B0;}
	.st168{fill:none;stroke:#FFFFFF;stroke-width:2;stroke-miterlimit:10;}
	.st169{fill:url(#SVGID_16_);stroke:#FFFFFF;stroke-miterlimit:10;}
	.st170{fill:url(#SVGID_17_);}
	.st171{fill:url(#SVGID_18_);}
	.st172{fill:url(#SVGID_19_);}
	.st173{fill:#693B0F;stroke:#000000;stroke-miterlimit:10;}
	.st174{fill:#3E4E70;}
	.st175{fill:#F7CE02;}
	.st176{fill:#0551E1;stroke:#000000;stroke-miterlimit:10;}
	.st177{fill:#EC153B;stroke:#000000;stroke-miterlimit:10;}
	.st178{fill:#0831FD;}
	.st179{fill:#0870FD;}
	.st180{fill:none;stroke:#9F3D44;stroke-width:3;stroke-miterlimit:10;}
</style>
<path class="st92" d="M6.1,342.8C40.7,232.2,21.2,187.2,67.7,94.2c10.5-21,71.9-57.8,135.8-73.2c0,0,109.7-25.5,180.5-3.5
	s140.3,53.3,151.9,80c35.7,82.1,31.2,191.6,59.7,243.7c-12.5,1.2-81.3,14.4-109.3,19.7c-2.4-7.3-13.4-60-13.4-60s3.2,248,3.2,270
	c-0.2,19-92.8,24-180.8,24s-167.5-10-167.5-26.9c0-16.8,1.1-262.1,1.1-262.1s-3.3,23.3-8.3,56.1C91.3,361.9,16.4,344,6.1,342.8z"/>
<path class="st91" d="M123.5,345.1l-2.8,17c0,0-18.3-0.2-54.3-7.2c-18-3.5-53.4-11.4-60.3-12.1c3.2-10.1,5.8-20.6,5.8-20.6
	c13.4,2.5,37.1,9.2,60.5,14.2C97.6,341.9,123.5,345.1,123.5,345.1z"/>
<path class="st91" d="M482.2,342.3l4.1,18.6c0,0,8.8-1.5,44.8-8.5c18-3.5,57.7-10,64.7-10.7c-4.7-9.1-8.7-20.9-8.7-20.9
	c-14,2.7-40.1,7.3-63,12.2C498.7,338.3,482.2,342.3,482.2,342.3z"/>
<path class="st98" d="M73.8,85.9c0,0,77.1,9.2,55.7,220c-0.9,166-1.1,253.8-1.1,255.9c0,3.2-0.6,7.5,0.8,9.2
	c0.7,1.1,1.7,2.3,3.4,3.5c4.7,3.4,13.4,6.6,25.2,9.1c-14.2-11.6-10.9-42.8-9.8-72.1c1.1-29.4-24-95.4-3-199.4
	c6.8-33.6-5.5-74.9-6-84C135,160.4,122.6,94.6,73.8,85.9z"/>
<path class="st98" d="M473.8,406c1.2,102.9,1.9,159.6,1.9,159c0-2.3,0,2.4,0,6.2c0,1.3-0.7,2.6-0.9,2.9c-0.7,1.1-2,2.2-3.6,3.4
	c-4.7,3.4-13.3,5.9-25.1,8.2c14.2-11.6,11.1-41.8,10-71.2c-1.1-29.4,24-95.4,3-199.4c-6.8-33.6,1.5-83.4,2-92.4
	C465,155.1,483.7,92,530.2,89c0,0-79.2,0.7-57.7,211.5C473,339.7,473.4,374.9,473.8,406"/>
<g>
	<g>
		<path class="st99" d="M234.5,28.7C247.3,46,269,62.5,305.1,62.5c36.2,0,56.3-16.8,67.4-34.5C342.2,31.1,266.9,30.8,234.5,28.7z"/>
		<path class="st91" d="M375.1,1c-17.6,5.3-142.2,2.9-148.6,0.6c-0.1,0.3-0.3,0.7-0.5,1.1c2.2,7.1,6.3,17.5,13.7,27.5
			c29.5,1.9,97.9,2.2,125.6-0.6c6.2-9.9,9.4-20.2,10.9-27.3C375.8,1.8,375.4,1.4,375.1,1z"/>
	</g>
	<path class="st91" d="M376.2,2.3c-4.1,18.7-19,58.7-72.2,58.7c-53.9,0-72.4-40.1-78-58.3c-2.9,5.3-15.1,16-15.1,16
		s15.6,61.7,91.1,61.7c76.5,0,86.6-58.7,87.7-63.1C387.6,16.4,380.4,6.9,376.2,2.3z"/>
</g>
<line class="st180" x1="104.7" y1="107.5" x2="222.6" y2="37.4"/>
<line class="st180" x1="91.7" y1="91.5" x2="212.8" y2="19.5"/>
<line class="st180" x1="115.7" y1="123.1" x2="235.4" y2="52.1"/>
<line class="st180" x1="122.7" y1="142" x2="252" y2="64.6"/>
<line class="st180" x1="127.9" y1="161" x2="274.3" y2="73.6"/>
<line class="st180" x1="133.7" y1="181.1" x2="301.4" y2="79.8"/>
<line class="st180" x1="134.5" y1="202.3" x2="418.8" y2="31.7"/>
<line class="st180" x1="136.8" y1="223.5" x2="441.2" y2="40.6"/>
<line class="st180" x1="138.4" y1="246.2" x2="466.4" y2="48"/>
<line class="st180" x1="140.7" y1="265.8" x2="484.2" y2="59.6"/>
<line class="st180" x1="140" y1="287.7" x2="503.6" y2="70.3"/>
<line class="st180" x1="139.2" y1="310.5" x2="522.2" y2="81.6"/>
<line class="st180" x1="136.8" y1="335.5" x2="485.2" y2="126.3"/>
<line class="st180" x1="134.5" y1="357.5" x2="474.7" y2="154.6"/>
<line class="st180" x1="132.9" y1="381.8" x2="468.8" y2="180.7"/>
<line class="st180" x1="132.9" y1="404.5" x2="465.9" y2="204.9"/>
<line class="st180" x1="132.1" y1="427.2" x2="464" y2="228.4"/>
<line class="st180" x1="136" y1="446.1" x2="463.4" y2="251"/>
<line class="st180" x1="139.2" y1="468" x2="466.4" y2="271.9"/>
<line class="st180" x1="140" y1="489.9" x2="468.1" y2="293.2"/>
<line class="st180" x1="143.9" y1="510.3" x2="467" y2="316.4"/>
<line class="st180" x1="141.5" y1="533.1" x2="467.1" y2="338.5"/>
<line class="st180" x1="142.3" y1="555" x2="467.7" y2="360.5"/>
<line class="st180" x1="149.4" y1="571.5" x2="470.8" y2="380.4"/>
<line class="st180" x1="168.2" y1="584" x2="470.6" y2="403.4"/>
<line class="st180" x1="201.1" y1="587.1" x2="468.8" y2="427"/>
<line class="st180" x1="236.4" y1="589.5" x2="467" y2="451"/>
<line class="st180" x1="272.4" y1="591.1" x2="466.9" y2="473.8"/>
<line class="st180" x1="304.5" y1="591.8" x2="462" y2="498"/>
<line class="st180" x1="343" y1="591.8" x2="460.7" y2="521.5"/>
<line class="st180" x1="384.5" y1="588.7" x2="460.6" y2="543.4"/>
<line class="st180" x1="422.1" y1="587.9" x2="458.6" y2="566.3"/>
<g>
	<path class="st5" d="M302,200.2c-28.6,0-51.8,23.8-51.8,53.2s23.2,53.2,51.8,53.2s51.8-23.8,51.8-53.2S330.6,200.2,302,200.2z"/>
	<path class="st174" d="M302.2,204c-26.5,0-48.1,22.2-48.1,49.4s21.6,49.4,48.1,49.4s48.1-22.2,48.1-49.4S328.7,204,302.2,204z
		 M346.5,241.7l-6.4-6.6c-1.2-6.8-4.1-12.3-7.1-16.4C339.6,224.8,344.3,232.7,346.5,241.7z M317.1,282.6c-3.6-0.7-15.6-3.2-19.1-4.7
		c-2-6.6-3.7-15.9-4.8-22.2c0.1,0,0.1,0.1,0.2,0.1c2.3-4.8,15.2-19.1,15.2-19.1s0-0.1-0.1-0.1c5.9,1.2,15.5,3.6,21.9,7.5
		c1.9,9.3,2.6,16.6,2.9,20.4C331.3,267.2,324.3,277,317.1,282.6z M284.9,287.9c-9.3-2.9-16.6-9.1-19.8-12.2
		c-1.4-4.6-3.5-15.2-3.7-20c2.4-2.7,6.9-7.3,12-11.3c1.7,1,12.7,7.7,18.2,10.4c1,6.2,2.6,15.6,4.7,22.7
		C295.2,278.6,287.8,286,284.9,287.9z M330.5,242.3c-7-4.1-16.9-6.4-22.6-7.5c-1.5-3.8-4.9-12.5-7.4-16.6c3.6-3.3,7.2-6,9.6-7.6
		c2.1,0,8,0.1,12.6,0.9c1.2,0.6,2.4,1.3,3.5,2c3.7,3.3,9.7,10,12.1,20.1L330.5,242.3z M309.9,207l-0.3,2c-2.6,1.8-7,5.1-11.2,9
		c-5.1,0.7-15.4,3.1-18.9,3.9c-2.7-2.3-5.1-4-6.4-4.9c7.9-6.7,18.1-10.8,29.1-10.8C304.8,206.3,307.4,206.6,309.9,207z M271.9,218.1
		c1,0.6,3.3,2.2,6,4.5c-1.9,3.2-3.8,15.2-4.5,19.8c-5.2,3.9-9.8,8.5-12.5,11.4c-1.7-1.5-3.2-4.8-4.1-7
		C258.3,235.5,263.9,225.4,271.9,218.1z M264.6,280.3c0.2-0.6,0.4-1.4,0.8-2.3c4,3.6,11.1,9.1,20.1,11.6c2.4,3,5.9,7.5,8.8,10.1
		C282,297.6,271.4,290.4,264.6,280.3z M317.3,297.9c0.2-3.7,0.5-10.9,0.6-14c6.5-5,12.7-13.1,15.5-17.1c0,0.4,0,0.6,0,0.6
		s8.2,0.9,12.1,1C341,282.2,330.6,293.1,317.3,297.9z"/>
</g>
<g>
	<path class="st99" d="M206.2,207.1c2.7-3.4,5-7.1,10.1-6.1c2.1,0.4,4.1,0.9,4.8,3.2c0.7,2.4-0.3,4.4-2.2,5.8
		c-1.3,1-2.8,1.8-4.1,2.9c-5,4.4-8.5,10.6-2.6,17.4c2.2,2.5,3.6,2.3,5.6-0.3c6.1-8,7-17.6,7.8-27.1c1.1-12.2,6.4-21.2,17.1-27
		c3.9-2.1,7.4-5.1,10.9-7.9c1.6-1.3,3.4-1.8,5.3-1.8c3.1,0,6.1-0.5,8.9-1.7c0.8,1.5-1.6,1.4-1.3,2.6c1.2,1,2.1-0.5,3.5-0.3
		c-1.3,2.3-3.5,2.6-5.5,3.2c-2.2,0.7-2.5,1.6-0.6,3.1c1.9,1.5,3.9,3.1,6.3,3.6c2.9,0.5,3.8,2.9,3.7,4.9c-0.2,2.5-2.2,4.4-5.2,4.1
		c-1.4-0.2-2.8,0-4.1,0.4c-3.7,1.1-7.2,0.8-10.8-1.4c0.3,1.8,1.4,2.3,2.4,2.8c1.3,0.6,1.9,1.5,1.2,2.8c-2.1,4.2,0,7.6,1.9,11.1
		c2.4-2.3,4.4-4.8,6.4-7.4c3.7-4.6,5.6-4.6,9.4,0c2.2,2.7,4.5,5.3,7.2,7.6c1,0.9,2.6,1.9,1.9,3.5c-0.4,0.8-1.3,2-2.6,2
		c-1.8-0.1-3.1-1-3.7-2.8c-0.9-2.8-2.1-5.1-4.8-6.7c-2-1.1-3-0.9-3.9,1.1c-1.3,2.7-2.6,5.4-4.1,8c-3.2,5.6-6.9,5.9-11.3,1.1
		c-0.5-0.5-0.7-1.4-1.7-1.4c1.8,5.2,5.5,7.4,10.5,6.2c10.6-2.5,10.9-2.1,11.1,9c0,2.5,0.5,4.9,0.7,7.4c0.1,1.3,0.4,3-0.8,3.6
		c-0.9,0.4-2.5,0-3.4-0.7c-1.2-0.8-1.6-2.3-1-3.9c1-2.8,2-5.5,0.8-8.7c-0.9-2.4-1.9-2.7-3.9-1.8c-4.7,2.2-9.4,4-14.8,3
		c0.2,1.9,2.9,1,2.4,2.7c-0.3,1.1-1.5,2.1-2.5,2.8c-1.1,0.9-2.4,1.4-3.7,2.1c-1.2,0.7-2.5,1.3-3.8,2c5.3,5.8,4.9,13.3-0.8,18.1
		c-2.5,2.1-2.7,4.7-1.3,7.4c1.6,3.1,3.9,5.5,7.5,6c1.2,0.2,2.6,0.5,2.8,1.7c0.3,1.3-1.4,1.8-2.2,2.3c-2.2,1.3-4.2,2.9-6.1-1.3
		c-1.8-3.9-5.2-7.2-9.2-9.1c-3.2-1.6-3.4-3.8-2.2-6.6c0.9-2,2.2-3.8,1.4-7c-0.9,4.1-3.4,6.2-6.3,7.9c-5.9,3.7-6.4,12.1-1.1,17
		c0.9,0.8,2.6,2.3,1.6,3c-1.3,0.9-3.2,1.6-5.2,1c-1.2-0.4-2.5-0.2-2.4-2.2c0.3-5.4-1.7-10.2-4.5-14.7c-1.3-2.1-1.5-3.7,0.4-5.4
		c1.9-1.7,1.4-3.5,0.7-5.9c-1.1-4.3-4.3-6.5-6.8-9.5c-4.6-5.5-4.9-8.4-2-14.2c1.8-3.5,3.9-6.8,7.9-8.5c4.4-1.8,5.4-5.3,2.5-7.2
		c-2.3-1.6-4.1-1-5.4,1.4C211.8,207.3,209.8,208.7,206.2,207.1z"/>
	<path class="st99" d="M397.8,207.1c-2.7-3.4-5-7.1-10.1-6.1c-2.1,0.4-4.1,0.9-4.8,3.2c-0.7,2.4,0.3,4.4,2.2,5.8
		c1.3,1,2.8,1.8,4.1,2.9c5,4.4,8.5,10.6,2.6,17.4c-2.2,2.5-3.6,2.3-5.6-0.3c-6.1-8-7-17.6-7.8-27.1c-1.1-12.2-6.4-21.2-17.1-27
		c-3.9-2.1-7.4-5.1-10.9-7.9c-1.6-1.3-3.4-1.8-5.3-1.8c-3.1,0-6.1-0.5-8.9-1.7c-0.8,1.5,1.6,1.4,1.3,2.6c-1.2,1-2.1-0.5-3.5-0.3
		c1.3,2.3,3.5,2.6,5.5,3.2c2.2,0.7,2.5,1.6,0.6,3.1s-3.9,3.1-6.3,3.6c-2.9,0.5-3.8,2.9-3.7,4.9c0.2,2.5,2.2,4.4,5.2,4.1
		c1.4-0.2,2.8,0,4.1,0.4c3.7,1.1,7.2,0.8,10.8-1.4c-0.3,1.8-1.4,2.3-2.4,2.8c-1.3,0.6-1.9,1.5-1.2,2.8c2.1,4.2,0,7.6-1.9,11.1
		c-2.4-2.3-4.4-4.8-6.4-7.4c-3.7-4.6-5.6-4.6-9.4,0c-2.2,2.7-4.5,5.3-7.2,7.6c-1,0.9-2.6,1.9-1.9,3.5c0.4,0.8,1.3,2,2.6,2
		c1.8-0.1,3.1-1,3.7-2.8c0.9-2.8,2.1-5.1,4.8-6.7c2-1.1,3-0.9,3.9,1.1c1.3,2.7,2.6,5.4,4.1,8c3.2,5.6,6.9,5.9,11.3,1.1
		c0.5-0.5,0.7-1.4,1.7-1.4c-1.8,5.2-5.5,7.4-10.5,6.2c-10.6-2.5-10.9-2.1-11.1,9c0,2.5-0.5,4.9-0.7,7.4c-0.1,1.3-0.4,3,0.8,3.6
		c0.9,0.4,2.5,0,3.4-0.7c1.2-0.8,1.6-2.3,1-3.9c-1-2.8-2-5.5-0.8-8.7c0.9-2.4,1.9-2.7,3.9-1.8c4.7,2.2,9.4,4,14.8,3
		c-0.2,1.9-2.9,1-2.4,2.7c0.3,1.1,1.5,2.1,2.5,2.8c1.1,0.9,2.4,1.4,3.7,2.1c1.2,0.7,2.5,1.3,3.8,2c-5.3,5.8-4.9,13.3,0.8,18.1
		c2.5,2.1,2.7,4.7,1.3,7.4c-1.6,3.1-3.9,5.5-7.5,6c-1.2,0.2-2.6,0.5-2.8,1.7c-0.3,1.3,1.4,1.8,2.2,2.3c2.2,1.3,4.2,2.9,6.1-1.3
		c1.8-3.9,5.2-7.2,9.2-9.1c3.2-1.6,3.4-3.8,2.2-6.6c-0.9-2-2.2-3.8-1.4-7c0.9,4.1,3.4,6.2,6.3,7.9c5.9,3.7,6.4,12.1,1.1,17
		c-0.9,0.8-2.6,2.3-1.6,3c1.3,0.9,3.2,1.6,5.2,1c1.2-0.4,2.5-0.2,2.4-2.2c-0.3-5.4,1.7-10.2,4.5-14.7c1.3-2.1,1.5-3.7-0.4-5.4
		c-1.9-1.7-1.4-3.5-0.7-5.9c1.1-4.3,4.3-6.5,6.8-9.5c4.6-5.5,4.9-8.4,2-14.2c-1.8-3.5-3.9-6.8-7.9-8.5c-4.4-1.8-5.4-5.3-2.5-7.2
		c2.3-1.6,4.1-1,5.4,1.4C392.2,207.3,394.2,208.7,397.8,207.1z"/>
</g>
</svg>
