<?xml version="1.0" encoding="utf-8"?>
<!-- Generator: Adobe Illustrator 17.0.0, SVG Export Plug-In . SVG Version: 6.00 Build 0)  -->
<!DOCTYPE svg PUBLIC "-//W3C//DTD SVG 1.1//EN" "http://www.w3.org/Graphics/SVG/1.1/DTD/svg11.dtd" [
	<!ENTITY ns_flows "http://ns.adobe.com/Flows/1.0/">
	<!ENTITY ns_extend "http://ns.adobe.com/Extensibility/1.0/">
	<!ENTITY ns_ai "http://ns.adobe.com/AdobeIllustrator/10.0/">
	<!ENTITY ns_graphs "http://ns.adobe.com/Graphs/1.0/">
]>
<svg version="1.1" id="Layer_1" xmlns:x="&ns_extend;" xmlns:i="&ns_ai;" xmlns:graph="&ns_graphs;"
	 xmlns="http://www.w3.org/2000/svg" xmlns:xlink="http://www.w3.org/1999/xlink" xmlns:a="http://ns.adobe.com/AdobeSVGViewerExtensions/3.0/"
	 x="0px" y="0px" width="600px" height="600px" viewBox="0 0 600 600" style="enable-background:new 0 0 600 600;"
	 xml:space="preserve">
<style type="text/css">
	.st0{fill:#05297D;stroke:#000000;stroke-miterlimit:10;}
	.st1{fill:#527DD3;}
	.st2{fill:#E3E3E7;}
	.st3{fill:#302E29;}
	.st4{fill:#FFFFFF;stroke:#000000;stroke-miterlimit:10;}
	.st5{fill:#FFFFFF;}
	.st6{fill:#7C0014;}
	.st7{fill:#B1C49B;stroke:#000000;stroke-miterlimit:10;}
	.st8{fill:#8AA668;}
	.st9{fill:#7C7D14;stroke:#B1C49B;stroke-miterlimit:10;}
	.st10{fill:#4E3B64;stroke:#000000;stroke-miterlimit:10;}
	.st11{fill:#382351;}
	.st12{fill:#4E3B64;}
	.st13{stroke:#4E3B64;stroke-miterlimit:10;}
	.st14{fill:#EB5D12;stroke:#000000;stroke-miterlimit:10;}
	.st15{fill:#B85D12;}
	.st16{fill:#7C0014;stroke:#EB5D12;stroke-miterlimit:10;}
	.st17{fill:#631197;stroke:#000000;stroke-miterlimit:10;}
	.st18{fill:#58006C;}
	.st19{fill:#FE5561;}
	.st20{fill:#C2BEC8;}
	.st21{fill:#FD9D00;stroke:#000000;stroke-miterlimit:10;}
	.st22{fill:#DC8700;}
	.st23{fill:#7C0014;stroke:#FD9D00;stroke-miterlimit:10;}
	.st24{fill:#A69EF8;stroke:#000000;stroke-miterlimit:10;}
	.st25{fill:#8176F5;}
	.st26{fill:#7C0014;stroke:#A69EF8;stroke-miterlimit:10;}
	.st27{fill:#5C377E;stroke:#000000;stroke-miterlimit:10;}
	.st28{fill:#5C377E;}
	.st29{fill:#242424;stroke:#5C377E;stroke-miterlimit:10;}
	.st30{fill:#CAC5C0;}
	.st31{fill:#5C377E;stroke:#FFFFFF;stroke-miterlimit:10;}
	.st32{fill:#A4FEB7;stroke:#000000;stroke-miterlimit:10;}
	.st33{fill:#75D792;}
	.st34{fill:#E20227;stroke:#A4FEB7;stroke-miterlimit:10;}
	.st35{fill:#272F74;stroke:#000000;stroke-miterlimit:10;}
	.st36{fill:#272F74;}
	.st37{fill:#E20227;stroke:#000000;stroke-miterlimit:10;}
	.st38{fill:#EDF3F8;stroke:#000000;stroke-miterlimit:10;}
	.st39{fill:#E20227;}
	.st40{fill:#01615B;}
	.st41{fill:#B6CEE3;stroke:#000000;stroke-miterlimit:10;}
	.st42{fill:#E20227;stroke:#EDF3F8;stroke-miterlimit:10;}
	.st43{fill:#C7CCC4;}
	.st44{fill:#EDF3F8;stroke:#E20227;stroke-miterlimit:10;}
	.st45{fill:#B64D00;}
	.st46{fill:#BBE79B;stroke:#000000;stroke-miterlimit:10;}
	.st47{fill:#AA2EC8;stroke:#000000;stroke-miterlimit:10;}
	.st48{fill:#9700BB;}
	.st49{fill:#CBD0DE;stroke:#AA2EC8;stroke-miterlimit:10;}
	.st50{fill:#ECEEF3;stroke:#AA2EC8;stroke-miterlimit:10;}
	.st51{fill:none;stroke:#7C0014;stroke-width:8;stroke-miterlimit:10;}
	.st52{fill:none;stroke:#000000;stroke-width:8;stroke-miterlimit:10;}
	.st53{fill:#FFEB00;}
	.st54{fill:#625616;stroke:#000000;stroke-miterlimit:10;}
	.st55{fill:#1853A6;stroke:#1853A6;stroke-width:0.25;stroke-miterlimit:10;}
	.st56{fill:none;}
	.st57{fill:none;stroke:#1853A6;stroke-width:0.225;stroke-miterlimit:10;}
	.st58{fill:#1853A6;stroke:#1853A6;stroke-width:0.225;stroke-miterlimit:10;}
	.st59{fill:#625616;}
	.st60{stroke:#625616;stroke-miterlimit:10;}
	.st61{adobe-knockout:true;}
	.st62{fill:none;stroke:#FFFFFF;stroke-miterlimit:10;adobe-knockout:false;}
	.st63{fill:none;stroke:#5C377E;stroke-miterlimit:10;}
	.st64{fill:#97C266;}
	.st65{fill:#523900;stroke:#000000;stroke-miterlimit:10;}
	.st66{fill:#FF4A49;}
	.st67{fill:#3C6643;}
	.st68{fill:none;stroke:#FF4A49;stroke-width:0.2334;stroke-miterlimit:10;}
	.st69{fill:none;stroke:#01615B;stroke-width:8;stroke-linecap:round;stroke-miterlimit:10;}
	.st70{fill:#F1CF4D;stroke:#000000;stroke-miterlimit:10;}
	.st71{fill:#F7A161;}
	.st72{fill:#1C232F;}
	.st73{fill:#EDAA14;}
	.st74{fill:#096CB6;stroke:#F1CF4D;stroke-miterlimit:10;}
	.st75{fill:#0060CE;stroke:#000000;stroke-miterlimit:10;}
	.st76{fill:#E20227;stroke:#0060CE;stroke-miterlimit:10;}
	.st77{fill:#345F69;stroke:#000000;stroke-miterlimit:10;}
	.st78{fill:#114450;}
	.st79{fill:#C6FDEC;stroke:#000000;stroke-miterlimit:10;}
	.st80{fill:none;stroke:#E20227;stroke-width:8;stroke-linecap:round;stroke-miterlimit:10;}
	.st81{fill:none;stroke:#FFFFFF;stroke-width:8;stroke-linecap:round;stroke-miterlimit:10;}
	.st82{fill:#C673DA;}
	.st83{fill:#DC032B;}
	.st84{fill:#0165B2;}
	.st85{fill:#BBE79B;}
	.st86{fill:none;stroke:#FE5561;stroke-width:3;stroke-miterlimit:10;}
	.st87{fill:none;stroke:#9D9497;stroke-width:3;stroke-miterlimit:10;}
	.st88{fill:none;stroke:#C9C4C6;stroke-width:3;stroke-miterlimit:10;}
	.st89{fill:none;stroke:#E3E3E3;stroke-width:3;stroke-miterlimit:10;}
	.st90{fill:#0049B0;}
	.st91{fill:#9EE2D1;}
	.st92{fill:#096CB6;}
	.st93{fill:none;stroke:#0060CE;stroke-width:3;stroke-linecap:round;stroke-miterlimit:10;}
	.st94{fill:none;stroke:#F1CF4D;stroke-width:3;stroke-linecap:round;stroke-linejoin:round;stroke-miterlimit:10;}
	.st95{fill:none;stroke:#AA2EC8;stroke-miterlimit:10;}
	.st96{fill:url(#SVGID_1_);stroke:#C6FDEC;stroke-miterlimit:10;}
	.st97{fill:#096CB6;stroke:#C6FDEC;stroke-miterlimit:10;}
	.st98{stroke:#A0A0A0;stroke-miterlimit:10;}
	.st99{fill:#4B5459;}
	.st100{fill:#4E2664;stroke:#000000;stroke-miterlimit:10;}
	.st101{fill:#FFCF2B;stroke:#000000;stroke-miterlimit:10;}
	.st102{fill:#1C5DA4;}
	.st103{fill:#156A50;stroke:#000000;stroke-miterlimit:10;}
	.st104{fill:none;stroke:#FF7F35;stroke-width:11;stroke-miterlimit:10;}
	.st105{fill:#0F5A4B;}
	.st106{fill:#DAD2D8;stroke:#000000;stroke-miterlimit:10;}
	.st107{fill:#FF7F35;}
	.st108{fill:#ED1B23;}
	.st109{fill:#268FE1;stroke:#000000;stroke-miterlimit:10;}
	.st110{fill:#747785;stroke:#000000;stroke-miterlimit:10;}
	.st111{fill:#747785;}
	.st112{fill:#505C66;stroke:#747785;stroke-miterlimit:10;}
	.st113{fill:#0453BC;stroke:#000000;stroke-miterlimit:10;}
	.st114{fill:#0453BC;}
	.st115{fill:#073F98;stroke:#0453BC;stroke-miterlimit:10;}
	.st116{fill:#007BD8;}
	.st117{fill:#F9E42A;stroke:#000000;stroke-miterlimit:10;}
	.st118{fill:#1F2427;}
	.st119{fill:#F8C600;}
	.st120{fill:none;stroke:#000000;stroke-miterlimit:10;}
	.st121{fill:#4EC23A;}
	.st122{fill:#4EFE3A;stroke:#000000;stroke-miterlimit:10;}
	.st123{fill:#4EFE3A;}
	.st124{fill:#A8A8B4;}
	.st125{fill:#4EBD3A;}
	.st126{fill:url(#SVGID_2_);stroke:#000000;stroke-miterlimit:10;}
	.st127{fill:#E87140;stroke:#000000;stroke-miterlimit:10;}
	.st128{fill:#A02B00;stroke:#E87140;stroke-miterlimit:10;}
	.st129{fill:#00ABE9;stroke:#000000;stroke-miterlimit:10;}
	.st130{fill:#2C6AAD;}
	.st131{fill:#007BE9;}
	.st132{fill:#2C6AAD;stroke:#D0CDC1;stroke-miterlimit:10;}
	.st133{fill:#024D9E;}
	.st134{fill:#6B97C6;}
	.st135{fill:#000078;}
	.st136{fill:#073F98;}
	.st137{fill:#505C66;}
	.st138{fill:#ED936E;}
	.st139{fill:#0097D3;}
	.st140{fill:#1C232F;stroke:#F7A161;stroke-miterlimit:10;}
	.st141{fill:url(#SVGID_3_);stroke:#000000;stroke-miterlimit:10;}
	.st142{fill:#93CC00;}
	.st143{fill:none;stroke:#6DB52D;stroke-width:2;stroke-miterlimit:10;adobe-knockout:false;}
	.st144{fill:#1C232F;stroke:#93CC00;stroke-miterlimit:10;}
	.st145{fill:#1C232F;stroke:#1C232F;stroke-miterlimit:10;}
	.st146{stroke:#000000;stroke-miterlimit:10;}
	.st147{fill:#FF0000;stroke:#000000;stroke-miterlimit:10;}
	.st148{fill:#0F4B39;}
	.st149{fill:url(#SVGID_4_);}
	.st150{fill:#E48D78;stroke:#000000;stroke-miterlimit:10;}
	.st151{fill:#FF7F35;stroke:#156A50;stroke-miterlimit:10;}
	.st152{fill:url(#SVGID_5_);}
	.st153{fill:url(#SVGID_6_);}
	.st154{fill:none;stroke:#000000;stroke-miterlimit:10;adobe-knockout:false;}
	.st155{fill:#0361A4;}
	.st156{fill:#1C5DA4;stroke:#FFCF2B;stroke-miterlimit:10;}
	.st157{fill:#593486;}
	.st158{fill:#FFC918;}
	.st159{fill:#ED1C24;}
	.st160{fill:#268FE1;}
	.st161{fill:#0361A4;stroke:#268FE1;stroke-miterlimit:10;}
	.st162{adobe-knockout:false;}
	.st163{fill:none;stroke:#0453BC;stroke-miterlimit:10;}
	.st164{fill:none;stroke:#0453BC;stroke-width:3;stroke-linecap:round;stroke-miterlimit:10;adobe-knockout:false;}
	.st165{fill:none;stroke:#F9E42A;stroke-miterlimit:10;}
	.st166{fill:#1F2427;stroke:#F9E42A;stroke-miterlimit:10;}
	.st167{fill:none;stroke:#4EFE3A;stroke-width:11;stroke-miterlimit:10;}
	.st168{fill:#00254E;}
	.st169{fill:#05297D;}
	.st170{fill:#7D1E05;stroke:#000000;stroke-miterlimit:10;}
	.st171{fill:#D36B52;}
	.st172{fill:none;stroke:#AE61FF;stroke-width:11;stroke-miterlimit:10;}
	.st173{fill:#561A00;}
	.st174{fill:#6A1E05;}
	.st175{fill:#AE61FF;stroke:#7D1E05;stroke-miterlimit:10;}
	.st176{fill:#FDEA00;}
	.st177{fill:none;stroke:#A02B00;stroke-width:3;stroke-miterlimit:10;}
	.st178{fill:none;stroke:#EAA595;stroke-width:3;stroke-miterlimit:10;}
	.st179{fill:none;stroke:#F1F1F1;stroke-width:3;stroke-miterlimit:10;}
	.st180{fill:none;stroke:#FF7F35;stroke-width:6;stroke-miterlimit:10;}
	.st181{fill:#FF7F35;stroke:#DAD2D8;stroke-miterlimit:10;}
	.st182{fill:none;stroke:#FF0000;stroke-width:2;stroke-miterlimit:10;adobe-knockout:false;}
	.st183{fill:#F1E3C9;}
	.st184{fill:#F28330;}
	.st185{fill:#ED1B28;}
	.st186{fill:none;stroke:#FFFFFF;stroke-width:2;stroke-miterlimit:10;adobe-knockout:false;}
</style>
<g>
	<path class="st2" d="M327.8,508.9c-97.4,31.8-165.3-5.1-198.6-31.6c-0.2,45.9-0.4,84.7-0.4,91c0,16.8,79.5,26.9,167.5,26.9
		s180.6-5,180.8-24c0-13.2-1.2-108.2-2.1-181.8C459.8,422.6,421.1,478.5,327.8,508.9z"/>
	<path class="st3" d="M536.9,97.8c-11.6-26.7-81.2-58-151.9-80c-70.8-22-180.5,3.5-180.5,3.5C140.6,36.6,79.2,73.4,68.7,94.4
		c-46.5,93-27,138-61.6,248.6c5.4,0.6,28.3,5.7,53.1,10.6c5.7-34.3,20.5-120.3,27.6-141.7c9-27,39-72,66-81c27-9,72-33,81-30
		c9,3-33,159-33,159s168,84,255-138c17,14.2,82.5,74.2,89.4,228.2c22.9-4.2,44.1-8,50.4-8.6C568.2,289.4,572.7,179.9,536.9,97.8z"/>
</g>
<path class="st120" d="M6.1,342.8C40.7,232.2,21.2,187.2,67.7,94.2c10.5-21,71.9-57.8,135.8-73.2c0,0,109.7-25.5,180.5-3.5
	s140.3,53.3,151.9,80c35.7,82.1,31.2,191.6,59.7,243.7c-12.5,1.2-81.3,14.4-109.3,19.7c-2.4-7.3-13.4-60-13.4-60s3.2,248,3.2,270
	c-0.2,19-92.8,24-180.8,24s-167.5-10-167.5-26.9c0-16.8,1.1-262.1,1.1-262.1s-3.3,23.3-8.3,56.1C91.3,361.9,16.4,344,6.1,342.8z"/>
<g>
	<g>
		<path class="st121" d="M231.5,28.7C244.3,46,266,62.5,302.1,62.5c36.2,0,56.3-16.8,67.4-34.5C339.2,31.1,263.9,30.8,231.5,28.7z"
			/>
		<path class="st122" d="M372.1,1c-17.6,5.3-142.2,2.9-148.6,0.6c-0.1,0.3-0.3,0.7-0.5,1.1c2.2,7.1,6.3,17.5,13.7,27.5
			c29.5,1.9,97.9,2.2,125.6-0.6c6.2-9.9,9.4-20.2,10.9-27.3C372.8,1.8,372.4,1.4,372.1,1z"/>
	</g>
	<path class="st122" d="M373.2,2.3c-4.1,18.7-19,58.7-72.2,58.7c-53.9,0-72.4-40.1-78-58.3c-2.9,5.3-15.1,16-15.1,16
		s15.6,61.7,91.1,61.7c76.5,0,86.6-58.7,87.7-63.1C384.6,16.4,377.4,6.9,373.2,2.3z"/>
</g>
<g>
	<path class="st123" d="M459,315.1c-6.8-33.6,1.5-83.4,2-92.4c1.8-29.8,6.4-58.7,15-82c-8.2-9.3-15.1-15.4-19.1-18.8
		c-87,222-255,138-255,138s42-156,33-159c-9-3-54,21-81,30c-8.7,2.9-17.6,9.5-26.1,18c6.5,23.5,9.6,51.1,11.3,79.1
		c0.5,9.1,12.8,50.4,6,84c-16.8,83.3-4.1,142.2,1.1,177.5c37,23.8,98.6,46.6,181.7,19.5c80.4-26.2,120.2-71.4,139.5-104.5
		C467.8,378.6,465.8,348.9,459,315.1z"/>
	<path class="st123" d="M546.2,350.1c-5-111.3-40.5-173.5-66.3-204.8c-9.9,31.2-15.1,79.7-7.4,155.2c0.4,33.7,0.8,64.4,1.1,92.1
		c0.5-1.1,1-2.1,1.5-3.2c-0.6-48.8-1.1-88.2-1.1-88.2s11.1,52.7,13.4,60C501.1,358.6,524.4,354.1,546.2,350.1z"/>
	<path class="st123" d="M123.9,152.8c-16.4,17.8-30.4,42-36.1,59.1c-7.2,21.5-21.9,107.4-27.6,141.7c22.9,4.4,47.4,8.6,61.5,8.7
		c3.8-25,6.7-44.5,7.8-52.4c0-1.4,0-2.7,0-4.1C136.8,233.9,132.6,185.4,123.9,152.8z"/>
	<path class="st124" d="M75.1,86.2c6.5,1.6,34.1,11.4,48.8,66.7c1.2-1.4,2.5-2.7,3.8-3.9C118.6,116.2,102.9,91.8,75.1,86.2z"/>
	<path class="st124" d="M75.1,86.2c-0.9-0.2-1.4-0.3-1.4-0.3C74.2,86,74.7,86.1,75.1,86.2z"/>
	<path class="st124" d="M130,306.2c0,0-0.2,1.3-0.5,3.8c-0.9,163.3-1,249.7-1.1,251.8c0,3.2-0.6,7.5,0.8,9.2
		c0.7,1.1,1.7,2.3,3.4,3.5c4.7,3.4,13.4,6.6,25.2,9.1c-14.2-11.6-10.9-42.8-9.8-72.1c0.2-5.9-0.6-13.2-1.9-22
		c-6.4-4.1-12-8.2-16.9-12.1C129.6,401.5,130,306.2,130,306.2z"/>
	<path class="st125" d="M145,312c6.8-33.6-5.5-74.9-6-84c-1.7-28-4.8-55.7-11.3-79.1c-1.3,1.3-2.5,2.6-3.8,3.9
		c8.7,32.6,12.9,81.1,5.5,153.1c0,1.4,0,2.7,0,4.1c0.4-2.4,0.5-3.8,0.5-3.8s-0.4,95.2-0.8,171.1c4.9,3.9,10.5,8,16.9,12.1
		C140.9,454.2,128.2,395.3,145,312z"/>
	<path class="st124" d="M475.7,564.5c0,0.4,0,0.5,0,0.5C475.7,564.4,475.7,564.3,475.7,564.5z"/>
	<path class="st124" d="M456,514.5c1.1,29.4,4.2,59.5-10,71.2c11.8-2.4,20.4-4.9,25.1-8.2c1.7-1.2,2.9-2.3,3.6-3.4
		c0.3-0.3,0.9-1.6,0.9-2.9c0-2.8,0-6.1,0-6.7c-0.1-6.1-0.8-67-2.1-171.9c-1.8,3.7-3.9,7.6-6.3,11.8
		C466.4,458.1,455.2,494.7,456,514.5z"/>
	<path class="st124" d="M528.8,89.1c-25.3,2.3-42.1,22.6-52.8,51.6c1.3,1.5,2.6,3,3.9,4.6C495.4,96.3,522.3,89.9,528.8,89.1z"/>
	<path class="st124" d="M528.8,89.1c0.5,0,0.9-0.1,1.4-0.1C530.2,89,529.7,89,528.8,89.1z"/>
	<path class="st125" d="M479.9,145.3c-1.3-1.6-2.7-3.2-3.9-4.6c-8.6,23.3-13.2,52.2-15,82c-0.5,9.1-8.8,58.8-2,92.4
		c6.8,33.7,8.8,63.5,8.3,89.3c2.4-4.1,4.5-8.1,6.3-11.8c-0.3-27.7-0.7-58.5-1.1-92.1C464.8,225.1,470.1,176.5,479.9,145.3z"/>
</g>
<g>
	<g>
		<g>
			<path class="st176" d="M385.4,213.2c-16.8,0-30.4-13.6-30.4-30.4s13.6-30.4,30.4-30.4s30.4,13.6,30.4,30.4
				S402.2,213.2,385.4,213.2z"/>
			<path d="M385.4,153.6c7.8,0,15.1,3.1,20.6,8.6s8.6,12.9,8.6,20.7c0,7.8-3.1,15.1-8.6,20.6s-12.9,8.6-20.6,8.6s-15.1-3.1-20.6-8.6
				s-8.6-12.8-8.6-20.6s3.1-15.1,8.6-20.6S377.6,153.6,385.4,153.6 M385.4,151.3c-17.4,0-31.5,14.1-31.5,31.5s14.1,31.5,31.5,31.5
				s31.5-14.1,31.5-31.5S402.8,151.3,385.4,151.3L385.4,151.3z"/>
		</g>
		<g>
			<circle class="st176" cx="385.4" cy="182.8" r="26.8"/>
			<path d="M385.4,210.2c-15.1,0-27.4-12.3-27.4-27.4s12.3-27.4,27.4-27.4s27.4,12.3,27.4,27.4S400.5,210.2,385.4,210.2z
				 M385.4,156.7c-14.4,0-26.1,11.7-26.1,26.1S371,209,385.4,209s26.1-11.7,26.1-26.1S399.8,156.7,385.4,156.7z"/>
		</g>
	</g>
	<g>
		<g>
			<path d="M381.4,159.1c0,0.5,0,14.3,0,20.8c0,0.6,0.1,1.1,0.3,1.7c1.1,3.4,2.2,5,3.3,8.4c0.1,0.2,0.2,0.4,0.3,0.8
				c0.2-0.7,0.4-1.2,0.6-1.8c0.8-2.5,1.5-3.2,2.4-5.7c0.6-1.8,0.8-3.5,0.8-5.4c0-6,0-11.9,0-17.9c0-0.2,0-0.5,0-0.8
				c0.8,0.5,1.3,0.8,1.9,1.2c0.8,0.6,1.2,0.9,1.5,1.5c0.3,0.6,0.4,0.8,0.4,1.7c0,5.2,0,10.9,0,16c0,0.5-0.1,1-0.2,1.5
				c-1.9,6.4-3.9,8.9-5.8,15.4c-0.2,0.7-0.5,1-1.2,0.9c-0.7-0.1-1.4,0.2-1.7-0.9c-2-6.2-4-8.6-6-14.8c-0.2-0.6-0.3-1.1-0.3-1.8
				c0-5.9,0-11.8,0-17.6c0-0.7,0.2-1.1,0.8-1.4C379.4,160.5,380.3,159.8,381.4,159.1z"/>
			<path d="M394.2,194.7c-0.2-0.4-0.2-0.7-0.2-1c0-9.9,0-19.8,0-29.7c0-0.3-0.1-0.7,0.1-0.8c0.3-0.1,0.5,0.2,0.7,0.4
				c3.2,2.4,6.3,4.9,9.5,7.3c0.5,0.3,0.7,0.7,0.7,1.3c0,1.3,0,2.5,0,3.8c0,0.6-0.2,1-0.7,1.3c-0.4,0.2-2.9,1.5-2.9,1.5
				s1.9,0.7,2,0.7c1.6,0.2,1.8,1.2,1.8,2.8c0,1.5,0.3,3-0.2,3.9c-0.6,1-1.9,1.6-3,2.4C399.5,190.7,396.9,192.7,394.2,194.7z
				 M401.5,183.1c0-0.4-0.1-0.7-0.5-0.8c-0.8-0.3-1.6-0.6-2.4-0.9c-0.5-0.2-0.6-0.1-0.6,0.4c0,1.3,0,2.7,0,4c0,0.1,0,0.4,0.1,0.4
				c0.2,0.1,0.3-0.1,0.4-0.2c0.9-0.7,1.8-1.5,2.6-2.2C401.3,183.6,401.5,183.4,401.5,183.1z M397.8,173.8L397.8,173.8
				c0,0.6,0,1.1,0,1.7c0,0.4,0.1,0.6,0.6,0.6c1.1,0.1,2-0.6,2.8-1.2c0.4-0.2,0.4-0.9-0.2-1.3c-0.9-0.7-1.8-1.2-2.7-1.9
				c-0.4-0.3-0.5-0.1-0.5,0.3C397.8,172.6,397.8,173.2,397.8,173.8z"/>
			<path d="M376.2,162.3c0,0.4,0,0.7,0,1c0,4.1,0,8.2,0,12.3c0,0.6-0.2,1-0.8,1.2c-0.4,0.1-0.8,0.4-1.2,0.6
				c-0.3,0.2-2.2,1.1-2.2,1.1s1.9,0.4,2.3,0.5c1.8,0.5,2,1.7,2,3.3c-0.1,3.6-0.1,7.2-0.1,10.8c0,0.3,0,0.6,0,1
				c-0.4,0-0.6-0.2-0.8-0.4c-3.2-2.6-6.4-5.2-9.5-7.8c-0.5-0.4-0.6-0.7-0.6-1.3c0-4.4,0-8.7,0-13.1c0-0.4,0.1-0.8,0.5-1.1
				c3.3-2.6,6.6-5.2,9.9-7.9C375.8,162.6,375.9,162.5,376.2,162.3z M372.7,170.2c-1.4,1.1-2.4,2-3.6,2.8c-0.3,0.2-0.4,0.8-0.3,1.9
				c0,0.2-0.1,1.9,0.6,1.4c1.5-0.8,2.1-1.2,3.1-2c0.2-0.1,0.2-0.3,0.2-0.5C372.7,172.7,372.7,171.6,372.7,170.2z M372.5,186
				c0-1.5,0-2.7,0-4c0-0.4-0.2-0.5-0.5-0.5c-0.9-0.2-1.8-0.4-2.7-0.7c-0.2,0-0.4-0.2-0.6,0.1c0,0.1,0,0.3,0,0.7c0,0.4,0,0.9,0,1.2
				c0,0.2,0.1,0.3,0.2,0.4C370.1,184.1,371.2,185,372.5,186z"/>
		</g>
	</g>
	<g>
		<path d="M384.6,206.9c-0.3,0.4-0.8,0.6-1.4,0.6s-1.1-0.2-1.4-0.6c-0.3-0.4-0.5-0.9-0.5-1.7v-3.9c0-0.7,0.2-1.2,0.5-1.6
			c0.3-0.3,0.8-0.5,1.4-0.5s1.1,0.2,1.4,0.5c0.3,0.4,0.5,0.9,0.5,1.6v3.9C385,205.9,384.9,206.5,384.6,206.9z M383.2,206.4
			c0.2,0,0.4-0.1,0.5-0.2c0.1-0.2,0.1-0.5,0.1-1v-4c0-0.6-0.1-0.9-0.4-1c0,0-0.1,0-0.3,0s-0.2,0.1-0.4,0.2c-0.1,0.1-0.2,0.4-0.2,0.8
			v4c0,0.5,0,0.8,0.1,1C382.8,206.3,383,206.4,383.2,206.4z"/>
		<path d="M389,206.8c-0.3,0.4-0.7,0.6-1.3,0.6c-0.6,0-1-0.1-1.3-0.5c-0.3-0.3-0.4-0.9-0.4-1.6v-0.4h1.2v0.2c0,0.5,0,0.9,0.1,1
			c0.1,0.2,0.2,0.2,0.4,0.2c0.2,0,0.3-0.1,0.3-0.1c0.1-0.1,0.1-0.1,0.1-0.2c0-0.1,0.1-0.3,0.1-0.7v-1.2c-0.2,0.1-0.4,0.2-0.8,0.2
			c-0.6,0-1-0.2-1.2-0.6c-0.2-0.4-0.4-1-0.4-1.8v-0.3c0-1,0.2-1.7,0.5-2.1c0.3-0.3,0.7-0.4,1.2-0.4c0.5,0,0.9,0.1,1.2,0.3
			c0.2,0.2,0.4,0.5,0.5,0.9c0.1,0.4,0.1,0.8,0.1,1.4v3.2C389.4,205.8,389.2,206.5,389,206.8z M387.6,203.2c0.3,0,0.5-0.1,0.5-0.4
			v-1.6c0-0.4,0-0.7-0.1-0.9s-0.2-0.3-0.4-0.3c-0.2,0-0.4,0.1-0.4,0.3c-0.1,0.2-0.1,0.5-0.1,0.9v0.7c0,0.4,0,0.8,0.1,0.9
			C387.3,203.1,387.4,203.2,387.6,203.2z"/>
	</g>
</g>
</svg>
