<?xml version="1.0" encoding="utf-8"?>
<!-- Generator: Adobe Illustrator 17.0.0, SVG Export Plug-In . SVG Version: 6.00 Build 0)  -->
<!DOCTYPE svg PUBLIC "-//W3C//DTD SVG 1.1//EN" "http://www.w3.org/Graphics/SVG/1.1/DTD/svg11.dtd" [
	<!ENTITY ns_flows "http://ns.adobe.com/Flows/1.0/">
	<!ENTITY ns_extend "http://ns.adobe.com/Extensibility/1.0/">
	<!ENTITY ns_ai "http://ns.adobe.com/AdobeIllustrator/10.0/">
	<!ENTITY ns_graphs "http://ns.adobe.com/Graphs/1.0/">
]>
<svg version="1.1" id="Layer_1" xmlns:x="&ns_extend;" xmlns:i="&ns_ai;" xmlns:graph="&ns_graphs;"
	 xmlns="http://www.w3.org/2000/svg" xmlns:xlink="http://www.w3.org/1999/xlink" xmlns:a="http://ns.adobe.com/AdobeSVGViewerExtensions/3.0/"
	 x="0px" y="0px" width="600px" height="600px" viewBox="0 0 600 600" style="enable-background:new 0 0 600 600;"
	 xml:space="preserve">
<style type="text/css">
	.st0{fill:#05297D;stroke:#000000;stroke-miterlimit:10;}
	.st1{fill:#527DD3;}
	.st2{fill:#E3E3E7;}
	.st3{fill:#302E29;}
	.st4{fill:#FFFFFF;stroke:#000000;stroke-miterlimit:10;}
	.st5{fill:#FFFFFF;}
	.st6{fill:#7C0014;}
	.st7{fill:#B1C49B;stroke:#000000;stroke-miterlimit:10;}
	.st8{fill:#8AA668;}
	.st9{fill:#7C7D14;stroke:#B1C49B;stroke-miterlimit:10;}
	.st10{fill:#4E3B64;stroke:#000000;stroke-miterlimit:10;}
	.st11{fill:#382351;}
	.st12{fill:#4E3B64;}
	.st13{stroke:#4E3B64;stroke-miterlimit:10;}
	.st14{fill:#EB5D12;stroke:#000000;stroke-miterlimit:10;}
	.st15{fill:#B85D12;}
	.st16{fill:#7C0014;stroke:#EB5D12;stroke-miterlimit:10;}
	.st17{fill:#631197;stroke:#000000;stroke-miterlimit:10;}
	.st18{fill:#58006C;}
	.st19{fill:#FE5561;}
	.st20{fill:#C2BEC8;}
	.st21{fill:#FD9D00;stroke:#000000;stroke-miterlimit:10;}
	.st22{fill:#DC8700;}
	.st23{fill:#7C0014;stroke:#FD9D00;stroke-miterlimit:10;}
	.st24{fill:#A69EF8;stroke:#000000;stroke-miterlimit:10;}
	.st25{fill:#8176F5;}
	.st26{fill:#7C0014;stroke:#A69EF8;stroke-miterlimit:10;}
	.st27{fill:#5C377E;stroke:#000000;stroke-miterlimit:10;}
	.st28{fill:#5C377E;}
	.st29{fill:#242424;stroke:#5C377E;stroke-miterlimit:10;}
	.st30{fill:#CAC5C0;}
	.st31{fill:#5C377E;stroke:#FFFFFF;stroke-miterlimit:10;}
	.st32{fill:#A4FEB7;stroke:#000000;stroke-miterlimit:10;}
	.st33{fill:#75D792;}
	.st34{fill:#E20227;stroke:#A4FEB7;stroke-miterlimit:10;}
	.st35{fill:#272F74;stroke:#000000;stroke-miterlimit:10;}
	.st36{fill:#272F74;}
	.st37{fill:#E20227;stroke:#000000;stroke-miterlimit:10;}
	.st38{fill:#EDF3F8;stroke:#000000;stroke-miterlimit:10;}
	.st39{fill:#E20227;}
	.st40{fill:#01615B;}
	.st41{fill:#B6CEE3;stroke:#000000;stroke-miterlimit:10;}
	.st42{fill:#E20227;stroke:#EDF3F8;stroke-miterlimit:10;}
	.st43{fill:#C7CCC4;}
	.st44{fill:#EDF3F8;stroke:#E20227;stroke-miterlimit:10;}
	.st45{fill:#B64D00;}
	.st46{fill:#BBE79B;stroke:#000000;stroke-miterlimit:10;}
	.st47{fill:#AA2EC8;stroke:#000000;stroke-miterlimit:10;}
	.st48{fill:#9700BB;}
	.st49{fill:#CBD0DE;stroke:#AA2EC8;stroke-miterlimit:10;}
	.st50{fill:#ECEEF3;stroke:#AA2EC8;stroke-miterlimit:10;}
	.st51{fill:none;stroke:#7C0014;stroke-width:8;stroke-miterlimit:10;}
	.st52{fill:none;stroke:#000000;stroke-width:8;stroke-miterlimit:10;}
	.st53{fill:#FFEB00;}
	.st54{fill:#625616;stroke:#000000;stroke-miterlimit:10;}
	.st55{fill:#1853A6;stroke:#1853A6;stroke-width:0.25;stroke-miterlimit:10;}
	.st56{fill:none;}
	.st57{fill:none;stroke:#1853A6;stroke-width:0.225;stroke-miterlimit:10;}
	.st58{fill:#1853A6;stroke:#1853A6;stroke-width:0.225;stroke-miterlimit:10;}
	.st59{fill:#625616;}
	.st60{stroke:#625616;stroke-miterlimit:10;}
	.st61{adobe-knockout:true;}
	.st62{fill:none;stroke:#FFFFFF;stroke-miterlimit:10;adobe-knockout:false;}
	.st63{fill:none;stroke:#5C377E;stroke-miterlimit:10;}
	.st64{fill:#97C266;}
	.st65{fill:#523900;stroke:#000000;stroke-miterlimit:10;}
	.st66{fill:#FF4A49;}
	.st67{fill:#3C6643;}
	.st68{fill:none;stroke:#FF4A49;stroke-width:0.2334;stroke-miterlimit:10;}
	.st69{fill:none;stroke:#01615B;stroke-width:8;stroke-linecap:round;stroke-miterlimit:10;}
	.st70{fill:#F1CF4D;stroke:#000000;stroke-miterlimit:10;}
	.st71{fill:#F7A161;}
	.st72{fill:#1C232F;}
	.st73{fill:#EDAA14;}
	.st74{fill:#096CB6;stroke:#F1CF4D;stroke-miterlimit:10;}
	.st75{fill:#0060CE;stroke:#000000;stroke-miterlimit:10;}
	.st76{fill:#E20227;stroke:#0060CE;stroke-miterlimit:10;}
	.st77{fill:#345F69;stroke:#000000;stroke-miterlimit:10;}
	.st78{fill:#114450;}
	.st79{fill:#C6FDEC;stroke:#000000;stroke-miterlimit:10;}
	.st80{fill:none;stroke:#E20227;stroke-width:8;stroke-linecap:round;stroke-miterlimit:10;}
	.st81{fill:none;stroke:#FFFFFF;stroke-width:8;stroke-linecap:round;stroke-miterlimit:10;}
	.st82{fill:#C673DA;}
	.st83{fill:#DC032B;}
	.st84{fill:#0165B2;}
	.st85{fill:#BBE79B;}
	.st86{fill:none;stroke:#FE5561;stroke-width:3;stroke-miterlimit:10;}
	.st87{fill:none;stroke:#9D9497;stroke-width:3;stroke-miterlimit:10;}
	.st88{fill:none;stroke:#C9C4C6;stroke-width:3;stroke-miterlimit:10;}
	.st89{fill:none;stroke:#E3E3E3;stroke-width:3;stroke-miterlimit:10;}
	.st90{fill:#0049B0;}
	.st91{fill:#9EE2D1;}
	.st92{fill:#096CB6;}
	.st93{fill:none;stroke:#0060CE;stroke-width:3;stroke-linecap:round;stroke-miterlimit:10;}
	.st94{fill:none;stroke:#F1CF4D;stroke-width:3;stroke-linecap:round;stroke-linejoin:round;stroke-miterlimit:10;}
	.st95{fill:none;stroke:#AA2EC8;stroke-miterlimit:10;}
	.st96{fill:url(#SVGID_1_);stroke:#C6FDEC;stroke-miterlimit:10;}
	.st97{fill:#096CB6;stroke:#C6FDEC;stroke-miterlimit:10;}
	.st98{stroke:#A0A0A0;stroke-miterlimit:10;}
	.st99{fill:#4B5459;}
	.st100{fill:#4E2664;stroke:#000000;stroke-miterlimit:10;}
	.st101{fill:#FFCF2B;stroke:#000000;stroke-miterlimit:10;}
	.st102{fill:#1C5DA4;}
	.st103{fill:#156A50;stroke:#000000;stroke-miterlimit:10;}
	.st104{fill:none;stroke:#FF7F35;stroke-width:11;stroke-miterlimit:10;}
	.st105{fill:#0F5A4B;}
	.st106{fill:#DAD2D8;stroke:#000000;stroke-miterlimit:10;}
	.st107{fill:#FF7F35;}
	.st108{fill:#ED1B23;}
	.st109{fill:#268FE1;stroke:#000000;stroke-miterlimit:10;}
	.st110{fill:#747785;stroke:#000000;stroke-miterlimit:10;}
	.st111{fill:#747785;}
	.st112{fill:#505C66;stroke:#747785;stroke-miterlimit:10;}
	.st113{fill:#0453BC;stroke:#000000;stroke-miterlimit:10;}
	.st114{fill:#0453BC;}
	.st115{fill:#073F98;stroke:#0453BC;stroke-miterlimit:10;}
	.st116{fill:#007BD8;}
	.st117{fill:#F9E42A;stroke:#000000;stroke-miterlimit:10;}
	.st118{fill:#1F2427;}
	.st119{fill:#F8C600;}
	.st120{fill:none;stroke:#000000;stroke-miterlimit:10;}
	.st121{fill:#4EC23A;}
	.st122{fill:#4EFE3A;stroke:#000000;stroke-miterlimit:10;}
	.st123{fill:#4EFE3A;}
	.st124{fill:#A8A8B4;}
	.st125{fill:#4EBD3A;}
	.st126{fill:url(#SVGID_2_);stroke:#000000;stroke-miterlimit:10;}
	.st127{fill:#E87140;stroke:#000000;stroke-miterlimit:10;}
	.st128{fill:#A02B00;stroke:#E87140;stroke-miterlimit:10;}
	.st129{fill:#00ABE9;stroke:#000000;stroke-miterlimit:10;}
	.st130{fill:#2C6AAD;}
	.st131{fill:#007BE9;}
	.st132{fill:#2C6AAD;stroke:#D0CDC1;stroke-miterlimit:10;}
	.st133{fill:#024D9E;}
	.st134{fill:#6B97C6;}
	.st135{fill:#000078;}
	.st136{fill:#073F98;}
	.st137{fill:#505C66;}
	.st138{fill:#ED936E;}
	.st139{fill:#0097D3;}
	.st140{fill:#1C232F;stroke:#F7A161;stroke-miterlimit:10;}
	.st141{fill:url(#SVGID_3_);stroke:#000000;stroke-miterlimit:10;}
	.st142{fill:#93CC00;}
	.st143{fill:none;stroke:#6DB52D;stroke-width:2;stroke-miterlimit:10;adobe-knockout:false;}
	.st144{fill:#1C232F;stroke:#93CC00;stroke-miterlimit:10;}
	.st145{fill:#1C232F;stroke:#1C232F;stroke-miterlimit:10;}
	.st146{stroke:#000000;stroke-miterlimit:10;}
	.st147{fill:#FF0000;stroke:#000000;stroke-miterlimit:10;}
	.st148{fill:#0F4B39;}
	.st149{fill:url(#SVGID_4_);}
	.st150{fill:#E48D78;stroke:#000000;stroke-miterlimit:10;}
	.st151{fill:#FF7F35;stroke:#156A50;stroke-miterlimit:10;}
	.st152{fill:url(#SVGID_5_);}
	.st153{fill:url(#SVGID_6_);}
	.st154{fill:none;stroke:#000000;stroke-miterlimit:10;adobe-knockout:false;}
	.st155{fill:#0361A4;}
	.st156{fill:#1C5DA4;stroke:#FFCF2B;stroke-miterlimit:10;}
	.st157{fill:#593486;}
	.st158{fill:#FFC918;}
	.st159{fill:#ED1C24;}
	.st160{fill:#268FE1;}
	.st161{fill:#0361A4;stroke:#268FE1;stroke-miterlimit:10;}
	.st162{adobe-knockout:false;}
	.st163{fill:none;stroke:#0453BC;stroke-miterlimit:10;}
	.st164{fill:none;stroke:#0453BC;stroke-width:3;stroke-linecap:round;stroke-miterlimit:10;adobe-knockout:false;}
	.st165{fill:none;stroke:#F9E42A;stroke-miterlimit:10;}
	.st166{fill:#1F2427;stroke:#F9E42A;stroke-miterlimit:10;}
	.st167{fill:none;stroke:#4EFE3A;stroke-width:11;stroke-miterlimit:10;}
	.st168{fill:#00254E;}
	.st169{fill:#05297D;}
	.st170{fill:#7D1E05;stroke:#000000;stroke-miterlimit:10;}
	.st171{fill:#D36B52;}
	.st172{fill:none;stroke:#AE61FF;stroke-width:11;stroke-miterlimit:10;}
	.st173{fill:#561A00;}
	.st174{fill:#6A1E05;}
	.st175{fill:#AE61FF;stroke:#7D1E05;stroke-miterlimit:10;}
	.st176{fill:#FDEA00;}
	.st177{fill:none;stroke:#A02B00;stroke-width:3;stroke-miterlimit:10;}
	.st178{fill:none;stroke:#EAA595;stroke-width:3;stroke-miterlimit:10;}
	.st179{fill:none;stroke:#F1F1F1;stroke-width:3;stroke-miterlimit:10;}
	.st180{fill:none;stroke:#FF7F35;stroke-width:6;stroke-miterlimit:10;}
	.st181{fill:#FF7F35;stroke:#DAD2D8;stroke-miterlimit:10;}
	.st182{fill:none;stroke:#FF0000;stroke-width:2;stroke-miterlimit:10;adobe-knockout:false;}
	.st183{fill:#F1E3C9;}
	.st184{fill:#F28330;}
	.st185{fill:#ED1B28;}
	.st186{fill:none;stroke:#FFFFFF;stroke-width:2;stroke-miterlimit:10;adobe-knockout:false;}
</style>
<path class="st4" d="M6.1,342.8C40.7,232.2,21.2,187.2,67.7,94.2c10.5-21,71.9-57.8,135.8-73.2c0,0,109.7-25.5,180.5-3.5
	s140.3,53.3,151.9,80c35.7,82.1,31.2,191.6,59.7,243.7c-12.5,1.2-81.3,14.4-109.3,19.7c-2.4-7.3-13.4-60-13.4-60s3.2,248,3.2,270
	c-0.2,19-92.8,24-180.8,24s-167.5-10-167.5-26.9c0-16.8,1.1-262.1,1.1-262.1s-3.3,23.3-8.3,56.1C91.3,361.9,16.4,344,6.1,342.8z"/>
<g>
	<g>
		<path class="st5" d="M234.5,28.7C247.3,46,269,62.5,305.1,62.5c36.2,0,56.3-16.8,67.4-34.5C342.2,31.1,266.9,30.8,234.5,28.7z"/>
		<path class="st6" d="M375.1,1c-17.6,5.3-142.2,2.9-148.6,0.6c-0.1,0.3-0.3,0.7-0.5,1.1c2.2,7.1,6.3,17.5,13.7,27.5
			c29.5,1.9,97.9,2.2,125.6-0.6c6.2-9.9,9.4-20.2,10.9-27.3C375.8,1.8,375.4,1.4,375.1,1z"/>
	</g>
	<path class="st6" d="M376.2,2.3c-4.1,18.7-19,58.7-72.2,58.7c-53.9,0-72.4-40.1-78-58.3c-2.9,5.3-15.1,16-15.1,16
		s15.6,61.7,91.1,61.7c76.5,0,86.6-58.7,87.7-63.1C387.6,16.4,380.4,6.9,376.2,2.3z"/>
</g>
<path class="st4" d="M6.1,342.8C40.7,232.2,21.2,187.2,67.7,94.2c10.5-21,71.9-57.8,135.8-73.2c0,0,109.7-25.5,180.5-3.5
	s140.3,53.3,151.9,80c35.7,82.1,31.2,191.6,59.7,243.7c-12.5,1.2-81.3,14.4-109.3,19.7c-2.4-7.3-13.4-60-13.4-60s3.2,248,3.2,270
	c-0.2,19-92.8,24-180.8,24s-167.5-10-167.5-26.9c0-16.8,1.1-262.1,1.1-262.1s-3.3,23.3-8.3,56.1C91.3,361.9,16.4,344,6.1,342.8z"/>
<g>
	<g>
		<path class="st5" d="M234.5,28.7C247.3,46,269,62.5,305.1,62.5c36.2,0,56.3-16.8,67.4-34.5C342.2,31.1,266.9,30.8,234.5,28.7z"/>
		<path class="st6" d="M375.1,1c-17.6,5.3-142.2,2.9-148.6,0.6c-0.1,0.3-0.3,0.7-0.5,1.1c2.2,7.1,6.3,17.5,13.7,27.5
			c29.5,1.9,97.9,2.2,125.6-0.6c6.2-9.9,9.4-20.2,10.9-27.3C375.8,1.8,375.4,1.4,375.1,1z"/>
	</g>
	<path class="st6" d="M376.2,2.3c-4.1,18.7-19,58.7-72.2,58.7c-53.9,0-72.4-40.1-78-58.3c-2.9,5.3-15.1,16-15.1,16
		s15.6,61.7,91.1,61.7c76.5,0,86.6-58.7,87.7-63.1C387.6,16.4,380.4,6.9,376.2,2.3z"/>
</g>
<path class="st117" d="M6.1,342.8C40.7,232.2,21.2,187.2,67.7,94.2c10.5-21,71.9-57.8,135.8-73.2c0,0,109.7-25.5,180.5-3.5
	s140.3,53.3,151.9,80c35.7,82.1,31.2,191.6,59.7,243.7c-12.5,1.2-81.3,14.4-109.3,19.7c-2.4-7.3-13.4-60-13.4-60s3.2,248,3.2,270
	c-0.2,19-92.8,24-180.8,24s-167.5-10-167.5-26.9c0-16.8,1.1-262.1,1.1-262.1s-3.3,23.3-8.3,56.1C91.3,361.9,16.4,344,6.1,342.8z"/>
<path class="st118" d="M473.6,301.1c0,0,10.7,52,13.1,59.3c28-5.4,95.7-18.4,108.2-19.7c-28.5-52.1-24-161.6-59.7-243.7l-4.7-7.5
	c0,0-36.4,2.4-51.6,60.4c-3.1,12.4-5.8,24.3-7.3,36.9c-4.6,38-2.4,77.3,1,114.1C472.6,301.5,473.6,300.5,473.6,301.1z"/>
<path class="st118" d="M128.5,306c0,0-6.2,48.4-8.6,55.6C83.2,359.9,19,343.7,6.5,342.5C27,277,28.3,238.3,37.7,181.3
	c2.4-15,8.9-35.9,15.5-53.2c6.9-17.8,13.9-31.6,14.6-33.1c1.3-3,6.4-9.2,6.4-9.2s34.3,3.6,49.6,61.5c3.1,12.4,5.8,24.3,7.3,36.9
	c4.6,38,1.8,84.8-1.6,121.7C129,306.1,128.8,306,128.5,306z"/>
<path class="st119" d="M73.8,85.9c0,0,77.1,9.2,55.7,220c-0.9,166-1.1,253.8-1.1,255.9c0,3.2-0.6,7.5,0.8,9.2
	c0.7,1.1,1.7,2.3,3.4,3.5c4.7,3.4,13.4,6.6,25.2,9.1c-14.2-11.6-10.9-42.8-9.8-72.1c1.1-29.4-24-95.4-3-199.4
	c6.8-33.6-5.5-74.9-6-84C135,160.4,122.6,94.6,73.8,85.9z"/>
<path class="st119" d="M530.2,89c0,0-79.2,0.7-57.7,211.5c2.1,168.9,3.2,265.3,3.2,264.5c0-2.3,0,2.4,0,6.2c0,1.3-0.7,2.6-0.9,2.9
	c-0.7,1.1-2,2.2-3.6,3.4c-4.7,3.4-13.3,5.9-25.1,8.2c14.2-11.6,11.1-41.8,10-71.2c-1.1-29.4,24-95.4,3-199.4
	c-6.8-33.6,1.5-83.4,2-92.4C465,155.1,483.7,92,530.2,89z"/>
<rect x="37.5" y="23.5" class="st165" width="36" height="36"/>
<path class="st118" d="M375.5,16.4c-16.9,26-68.9,49.9-82.4,55.8c-11.8-5.7-56.7-28.8-73.5-54.7c-53.4,10-102.4,33.4-130.8,55.3
	c-15.5,12-21,22.4-21,22.4s60.3,61,60.3,85c15-40.4,89.6-89.8,167.4-90c26.5,0.1,55.4,5.8,78.9,14.9c0.4-3.9,0.9-7.9,1.6-12
	c5.5-33,32.7-52.5,62.5-56.8C411.7,25.9,391.1,19.3,375.5,16.4z"/>
<g>
	<g>
		<path class="st117" d="M234.5,28.7C247.3,46,269,62.5,305.1,62.5c36.2,0,56.3-16.8,67.4-34.5C342.2,31.1,266.9,30.8,234.5,28.7z"
			/>
		<path class="st166" d="M375.1,1c-17.6,5.3-142.2,2.9-148.6,0.6c-0.1,0.3-0.3,0.7-0.5,1.1c2.2,7.1,6.3,17.5,13.7,27.5
			c29.5,1.9,97.9,2.2,125.6-0.6c6.2-9.9,9.4-20.2,10.9-27.3C375.8,1.8,375.4,1.4,375.1,1z"/>
	</g>
	<path class="st166" d="M376.2,2.3c-4.1,18.7-19,58.7-72.2,58.7c-53.9,0-72.4-40.1-78-58.3c-2.9,5.3-15.1,16-15.1,16
		s15.6,61.7,91.1,61.7c76.5,0,86.6-58.7,87.7-63.1C387.6,16.4,380.4,6.9,376.2,2.3z"/>
</g>
<g>
	<g>
		<g>
			<path class="st176" d="M385.4,213.2c-16.8,0-30.4-13.6-30.4-30.4s13.6-30.4,30.4-30.4s30.4,13.6,30.4,30.4
				S402.2,213.2,385.4,213.2z"/>
			<path d="M385.4,153.6c7.8,0,15.1,3.1,20.6,8.6s8.6,12.9,8.6,20.7c0,7.8-3.1,15.1-8.6,20.6s-12.9,8.6-20.6,8.6s-15.1-3.1-20.6-8.6
				s-8.6-12.8-8.6-20.6s3.1-15.1,8.6-20.6S377.6,153.6,385.4,153.6 M385.4,151.3c-17.4,0-31.5,14.1-31.5,31.5s14.1,31.5,31.5,31.5
				s31.5-14.1,31.5-31.5S402.8,151.3,385.4,151.3L385.4,151.3z"/>
		</g>
		<g>
			<circle class="st176" cx="385.4" cy="182.8" r="26.8"/>
			<path d="M385.4,210.2c-15.1,0-27.4-12.3-27.4-27.4s12.3-27.4,27.4-27.4s27.4,12.3,27.4,27.4S400.5,210.2,385.4,210.2z
				 M385.4,156.7c-14.4,0-26.1,11.7-26.1,26.1S371,209,385.4,209s26.1-11.7,26.1-26.1S399.8,156.7,385.4,156.7z"/>
		</g>
	</g>
	<g>
		<g>
			<path d="M381.4,159.1c0,0.5,0,14.3,0,20.8c0,0.6,0.1,1.1,0.3,1.7c1.1,3.4,2.2,5,3.3,8.4c0.1,0.2,0.2,0.4,0.3,0.8
				c0.2-0.7,0.4-1.2,0.6-1.8c0.8-2.5,1.5-3.2,2.4-5.7c0.6-1.8,0.8-3.5,0.8-5.4c0-6,0-11.9,0-17.9c0-0.2,0-0.5,0-0.8
				c0.8,0.5,1.3,0.8,1.9,1.2c0.8,0.6,1.2,0.9,1.5,1.5c0.3,0.6,0.4,0.8,0.4,1.7c0,5.2,0,10.9,0,16c0,0.5-0.1,1-0.2,1.5
				c-1.9,6.4-3.9,8.9-5.8,15.4c-0.2,0.7-0.5,1-1.2,0.9c-0.7-0.1-1.4,0.2-1.7-0.9c-2-6.2-4-8.6-6-14.8c-0.2-0.6-0.3-1.1-0.3-1.8
				c0-5.9,0-11.8,0-17.6c0-0.7,0.2-1.1,0.8-1.4C379.4,160.5,380.3,159.8,381.4,159.1z"/>
			<path d="M394.2,194.7c-0.2-0.4-0.2-0.7-0.2-1c0-9.9,0-19.8,0-29.7c0-0.3-0.1-0.7,0.1-0.8c0.3-0.1,0.5,0.2,0.7,0.4
				c3.2,2.4,6.3,4.9,9.5,7.3c0.5,0.3,0.7,0.7,0.7,1.3c0,1.3,0,2.5,0,3.8c0,0.6-0.2,1-0.7,1.3c-0.4,0.2-2.9,1.5-2.9,1.5
				s1.9,0.7,2,0.7c1.6,0.2,1.8,1.2,1.8,2.8c0,1.5,0.3,3-0.2,3.9c-0.6,1-1.9,1.6-3,2.4C399.5,190.7,396.9,192.7,394.2,194.7z
				 M401.5,183.1c0-0.4-0.1-0.7-0.5-0.8c-0.8-0.3-1.6-0.6-2.4-0.9c-0.5-0.2-0.6-0.1-0.6,0.4c0,1.3,0,2.7,0,4c0,0.1,0,0.4,0.1,0.4
				c0.2,0.1,0.3-0.1,0.4-0.2c0.9-0.7,1.8-1.5,2.6-2.2C401.3,183.6,401.5,183.4,401.5,183.1z M397.8,173.8L397.8,173.8
				c0,0.6,0,1.1,0,1.7c0,0.4,0.1,0.6,0.6,0.6c1.1,0.1,2-0.6,2.8-1.2c0.4-0.2,0.4-0.9-0.2-1.3c-0.9-0.7-1.8-1.2-2.7-1.9
				c-0.4-0.3-0.5-0.1-0.5,0.3C397.8,172.6,397.8,173.2,397.8,173.8z"/>
			<path d="M376.2,162.3c0,0.4,0,0.7,0,1c0,4.1,0,8.2,0,12.3c0,0.6-0.2,1-0.8,1.2c-0.4,0.1-0.8,0.4-1.2,0.6
				c-0.3,0.2-2.2,1.1-2.2,1.1s1.9,0.4,2.3,0.5c1.8,0.5,2,1.7,2,3.3c-0.1,3.6-0.1,7.2-0.1,10.8c0,0.3,0,0.6,0,1
				c-0.4,0-0.6-0.2-0.8-0.4c-3.2-2.6-6.4-5.2-9.5-7.8c-0.5-0.4-0.6-0.7-0.6-1.3c0-4.4,0-8.7,0-13.1c0-0.4,0.1-0.8,0.5-1.1
				c3.3-2.6,6.6-5.2,9.9-7.9C375.8,162.6,375.9,162.5,376.2,162.3z M372.7,170.2c-1.4,1.1-2.4,2-3.6,2.8c-0.3,0.2-0.4,0.8-0.3,1.9
				c0,0.2-0.1,1.9,0.6,1.4c1.5-0.8,2.1-1.2,3.1-2c0.2-0.1,0.2-0.3,0.2-0.5C372.7,172.7,372.7,171.6,372.7,170.2z M372.5,186
				c0-1.5,0-2.7,0-4c0-0.4-0.2-0.5-0.5-0.5c-0.9-0.2-1.8-0.4-2.7-0.7c-0.2,0-0.4-0.2-0.6,0.1c0,0.1,0,0.3,0,0.7c0,0.4,0,0.9,0,1.2
				c0,0.2,0.1,0.3,0.2,0.4C370.1,184.1,371.2,185,372.5,186z"/>
		</g>
	</g>
	<g>
		<path d="M384.6,206.9c-0.3,0.4-0.8,0.6-1.4,0.6s-1.1-0.2-1.4-0.6c-0.3-0.4-0.5-0.9-0.5-1.7v-3.9c0-0.7,0.2-1.2,0.5-1.6
			c0.3-0.3,0.8-0.5,1.4-0.5s1.1,0.2,1.4,0.5c0.3,0.4,0.5,0.9,0.5,1.6v3.9C385,205.9,384.9,206.5,384.6,206.9z M383.2,206.4
			c0.2,0,0.4-0.1,0.5-0.2c0.1-0.2,0.1-0.5,0.1-1v-4c0-0.6-0.1-0.9-0.4-1c0,0-0.1,0-0.3,0s-0.2,0.1-0.4,0.2c-0.1,0.1-0.2,0.4-0.2,0.8
			v4c0,0.5,0,0.8,0.1,1C382.8,206.3,383,206.4,383.2,206.4z"/>
		<path d="M389,206.8c-0.3,0.4-0.7,0.6-1.3,0.6c-0.6,0-1-0.1-1.3-0.5c-0.3-0.3-0.4-0.9-0.4-1.6v-0.4h1.2v0.2c0,0.5,0,0.9,0.1,1
			c0.1,0.2,0.2,0.2,0.4,0.2c0.2,0,0.3-0.1,0.3-0.1c0.1-0.1,0.1-0.1,0.1-0.2c0-0.1,0.1-0.3,0.1-0.7v-1.2c-0.2,0.1-0.4,0.2-0.8,0.2
			c-0.6,0-1-0.2-1.2-0.6c-0.2-0.4-0.4-1-0.4-1.8v-0.3c0-1,0.2-1.7,0.5-2.1c0.3-0.3,0.7-0.4,1.2-0.4c0.5,0,0.9,0.1,1.2,0.3
			c0.2,0.2,0.4,0.5,0.5,0.9c0.1,0.4,0.1,0.8,0.1,1.4v3.2C389.4,205.8,389.2,206.5,389,206.8z M387.6,203.2c0.3,0,0.5-0.1,0.5-0.4
			v-1.6c0-0.4,0-0.7-0.1-0.9s-0.2-0.3-0.4-0.3c-0.2,0-0.4,0.1-0.4,0.3c-0.1,0.2-0.1,0.5-0.1,0.9v0.7c0,0.4,0,0.8,0.1,0.9
			C387.3,203.1,387.4,203.2,387.6,203.2z"/>
	</g>
</g>
</svg>
