<?xml version="1.0" encoding="utf-8"?>
<!-- Generator: Adobe Illustrator 17.0.0, SVG Export Plug-In . SVG Version: 6.00 Build 0)  -->
<!DOCTYPE svg PUBLIC "-//W3C//DTD SVG 1.1//EN" "http://www.w3.org/Graphics/SVG/1.1/DTD/svg11.dtd" [
	<!ENTITY ns_flows "http://ns.adobe.com/Flows/1.0/">
	<!ENTITY ns_extend "http://ns.adobe.com/Extensibility/1.0/">
	<!ENTITY ns_ai "http://ns.adobe.com/AdobeIllustrator/10.0/">
	<!ENTITY ns_graphs "http://ns.adobe.com/Graphs/1.0/">
]>
<svg version="1.1" id="Layer_1" xmlns:x="&ns_extend;" xmlns:i="&ns_ai;" xmlns:graph="&ns_graphs;"
	 xmlns="http://www.w3.org/2000/svg" xmlns:xlink="http://www.w3.org/1999/xlink" xmlns:a="http://ns.adobe.com/AdobeSVGViewerExtensions/3.0/"
	 x="0px" y="0px" width="600px" height="600px" viewBox="0 0 600 600" style="enable-background:new 0 0 600 600;"
	 xml:space="preserve">
<style type="text/css">
	.st0{fill:#05297D;stroke:#000000;stroke-miterlimit:10;}
	.st1{fill:#527DD3;}
	.st2{fill:#E3E3E7;}
	.st3{fill:#302E29;}
	.st4{fill:#FFFFFF;stroke:#000000;stroke-miterlimit:10;}
	.st5{fill:#FFFFFF;}
	.st6{fill:#7C0014;}
	.st7{fill:#B1C49B;stroke:#000000;stroke-miterlimit:10;}
	.st8{fill:#8AA668;}
	.st9{fill:#7C7D14;stroke:#B1C49B;stroke-miterlimit:10;}
	.st10{fill:#4E3B64;stroke:#000000;stroke-miterlimit:10;}
	.st11{fill:#382351;}
	.st12{fill:#4E3B64;}
	.st13{stroke:#4E3B64;stroke-miterlimit:10;}
	.st14{fill:#EB5D12;stroke:#000000;stroke-miterlimit:10;}
	.st15{fill:#B85D12;}
	.st16{fill:#7C0014;stroke:#EB5D12;stroke-miterlimit:10;}
	.st17{fill:#631197;stroke:#000000;stroke-miterlimit:10;}
	.st18{fill:#58006C;}
	.st19{fill:#FE5561;}
	.st20{fill:#C2BEC8;}
	.st21{fill:#FD9D00;stroke:#000000;stroke-miterlimit:10;}
	.st22{fill:#DC8700;}
	.st23{fill:#7C0014;stroke:#FD9D00;stroke-miterlimit:10;}
	.st24{fill:#A69EF8;stroke:#000000;stroke-miterlimit:10;}
	.st25{fill:#8176F5;}
	.st26{fill:#7C0014;stroke:#A69EF8;stroke-miterlimit:10;}
	.st27{fill:#5C377E;stroke:#000000;stroke-miterlimit:10;}
	.st28{fill:#5C377E;}
	.st29{fill:#242424;stroke:#5C377E;stroke-miterlimit:10;}
	.st30{fill:#CAC5C0;}
	.st31{fill:#5C377E;stroke:#FFFFFF;stroke-miterlimit:10;}
	.st32{fill:#A4FEB7;stroke:#000000;stroke-miterlimit:10;}
	.st33{fill:#75D792;}
	.st34{fill:#E20227;stroke:#A4FEB7;stroke-miterlimit:10;}
	.st35{fill:#272F74;stroke:#000000;stroke-miterlimit:10;}
	.st36{fill:#272F74;}
	.st37{fill:#E20227;stroke:#000000;stroke-miterlimit:10;}
	.st38{fill:#EDF3F8;stroke:#000000;stroke-miterlimit:10;}
	.st39{fill:#E20227;}
	.st40{fill:#01615B;}
	.st41{fill:#B6CEE3;stroke:#000000;stroke-miterlimit:10;}
	.st42{fill:#E20227;stroke:#EDF3F8;stroke-miterlimit:10;}
	.st43{fill:#C7CCC4;}
	.st44{fill:#EDF3F8;stroke:#E20227;stroke-miterlimit:10;}
	.st45{fill:#B64D00;}
	.st46{fill:#BBE79B;stroke:#000000;stroke-miterlimit:10;}
	.st47{fill:#AA2EC8;stroke:#000000;stroke-miterlimit:10;}
	.st48{fill:#9700BB;}
	.st49{fill:#CBD0DE;stroke:#AA2EC8;stroke-miterlimit:10;}
	.st50{fill:#ECEEF3;stroke:#AA2EC8;stroke-miterlimit:10;}
	.st51{fill:none;stroke:#7C0014;stroke-width:8;stroke-miterlimit:10;}
	.st52{fill:none;stroke:#000000;stroke-width:8;stroke-miterlimit:10;}
	.st53{fill:#FFEB00;}
	.st54{fill:#625616;stroke:#000000;stroke-miterlimit:10;}
	.st55{fill:#1853A6;stroke:#1853A6;stroke-width:0.25;stroke-miterlimit:10;}
	.st56{fill:none;}
	.st57{fill:none;stroke:#1853A6;stroke-width:0.225;stroke-miterlimit:10;}
	.st58{fill:#1853A6;stroke:#1853A6;stroke-width:0.225;stroke-miterlimit:10;}
	.st59{fill:#625616;}
	.st60{stroke:#625616;stroke-miterlimit:10;}
	.st61{adobe-knockout:true;}
	.st62{fill:none;stroke:#FFFFFF;stroke-miterlimit:10;adobe-knockout:false;}
	.st63{fill:none;stroke:#5C377E;stroke-miterlimit:10;}
	.st64{fill:#97C266;}
	.st65{fill:#523900;stroke:#000000;stroke-miterlimit:10;}
	.st66{fill:#FF4A49;}
	.st67{fill:#3C6643;}
	.st68{fill:none;stroke:#FF4A49;stroke-width:0.2334;stroke-miterlimit:10;}
	.st69{fill:none;stroke:#01615B;stroke-width:8;stroke-linecap:round;stroke-miterlimit:10;}
	.st70{fill:#F1CF4D;stroke:#000000;stroke-miterlimit:10;}
	.st71{fill:#F7A161;}
	.st72{fill:#1C232F;}
	.st73{fill:#EDAA14;}
	.st74{fill:#096CB6;stroke:#F1CF4D;stroke-miterlimit:10;}
	.st75{fill:#0060CE;stroke:#000000;stroke-miterlimit:10;}
	.st76{fill:#E20227;stroke:#0060CE;stroke-miterlimit:10;}
	.st77{fill:#345F69;stroke:#000000;stroke-miterlimit:10;}
	.st78{fill:#114450;}
	.st79{fill:#C6FDEC;stroke:#000000;stroke-miterlimit:10;}
	.st80{fill:none;stroke:#E20227;stroke-width:8;stroke-linecap:round;stroke-miterlimit:10;}
	.st81{fill:none;stroke:#FFFFFF;stroke-width:8;stroke-linecap:round;stroke-miterlimit:10;}
	.st82{fill:#C673DA;}
	.st83{fill:#DC032B;}
	.st84{fill:#0165B2;}
	.st85{fill:#BBE79B;}
	.st86{fill:none;stroke:#FE5561;stroke-width:3;stroke-miterlimit:10;}
	.st87{fill:none;stroke:#9D9497;stroke-width:3;stroke-miterlimit:10;}
	.st88{fill:none;stroke:#C9C4C6;stroke-width:3;stroke-miterlimit:10;}
	.st89{fill:none;stroke:#E3E3E3;stroke-width:3;stroke-miterlimit:10;}
	.st90{fill:#0049B0;}
	.st91{fill:#9EE2D1;}
	.st92{fill:#096CB6;}
	.st93{fill:none;stroke:#0060CE;stroke-width:3;stroke-linecap:round;stroke-miterlimit:10;}
	.st94{fill:none;stroke:#F1CF4D;stroke-width:3;stroke-linecap:round;stroke-linejoin:round;stroke-miterlimit:10;}
	.st95{fill:none;stroke:#AA2EC8;stroke-miterlimit:10;}
	.st96{fill:url(#SVGID_1_);stroke:#C6FDEC;stroke-miterlimit:10;}
	.st97{fill:#096CB6;stroke:#C6FDEC;stroke-miterlimit:10;}
	.st98{stroke:#A0A0A0;stroke-miterlimit:10;}
	.st99{fill:#4B5459;}
	.st100{fill:#4E2664;stroke:#000000;stroke-miterlimit:10;}
	.st101{fill:#FFCF2B;stroke:#000000;stroke-miterlimit:10;}
	.st102{fill:#1C5DA4;}
	.st103{fill:#156A50;stroke:#000000;stroke-miterlimit:10;}
	.st104{fill:none;stroke:#FF7F35;stroke-width:11;stroke-miterlimit:10;}
	.st105{fill:#0F5A4B;}
	.st106{fill:#DAD2D8;stroke:#000000;stroke-miterlimit:10;}
	.st107{fill:#FF7F35;}
	.st108{fill:#ED1B23;}
	.st109{fill:#268FE1;stroke:#000000;stroke-miterlimit:10;}
	.st110{fill:#747785;stroke:#000000;stroke-miterlimit:10;}
	.st111{fill:#747785;}
	.st112{fill:#505C66;stroke:#747785;stroke-miterlimit:10;}
	.st113{fill:#0453BC;stroke:#000000;stroke-miterlimit:10;}
	.st114{fill:#0453BC;}
	.st115{fill:#073F98;stroke:#0453BC;stroke-miterlimit:10;}
	.st116{fill:#007BD8;}
	.st117{fill:#F9E42A;stroke:#000000;stroke-miterlimit:10;}
	.st118{fill:#1F2427;}
	.st119{fill:#F8C600;}
	.st120{fill:none;stroke:#000000;stroke-miterlimit:10;}
	.st121{fill:#4EC23A;}
	.st122{fill:#4EFE3A;stroke:#000000;stroke-miterlimit:10;}
	.st123{fill:#4EFE3A;}
	.st124{fill:#A8A8B4;}
	.st125{fill:#4EBD3A;}
	.st126{fill:url(#SVGID_2_);stroke:#000000;stroke-miterlimit:10;}
	.st127{fill:#E87140;stroke:#000000;stroke-miterlimit:10;}
	.st128{fill:#A02B00;stroke:#E87140;stroke-miterlimit:10;}
	.st129{fill:#00ABE9;stroke:#000000;stroke-miterlimit:10;}
	.st130{fill:#2C6AAD;}
	.st131{fill:#007BE9;}
	.st132{fill:#2C6AAD;stroke:#D0CDC1;stroke-miterlimit:10;}
	.st133{fill:#024D9E;}
	.st134{fill:#6B97C6;}
	.st135{fill:#000078;}
	.st136{fill:#073F98;}
	.st137{fill:#505C66;}
	.st138{fill:#ED936E;}
	.st139{fill:#0097D3;}
	.st140{fill:#1C232F;stroke:#F7A161;stroke-miterlimit:10;}
	.st141{fill:url(#SVGID_3_);stroke:#000000;stroke-miterlimit:10;}
	.st142{fill:#93CC00;}
	.st143{fill:none;stroke:#6DB52D;stroke-width:2;stroke-miterlimit:10;adobe-knockout:false;}
	.st144{fill:#1C232F;stroke:#93CC00;stroke-miterlimit:10;}
	.st145{fill:#1C232F;stroke:#1C232F;stroke-miterlimit:10;}
	.st146{stroke:#000000;stroke-miterlimit:10;}
	.st147{fill:#FF0000;stroke:#000000;stroke-miterlimit:10;}
	.st148{fill:#0F4B39;}
	.st149{fill:url(#SVGID_4_);}
	.st150{fill:#E48D78;stroke:#000000;stroke-miterlimit:10;}
	.st151{fill:#FF7F35;stroke:#156A50;stroke-miterlimit:10;}
	.st152{fill:url(#SVGID_5_);}
	.st153{fill:url(#SVGID_6_);}
	.st154{fill:none;stroke:#000000;stroke-miterlimit:10;adobe-knockout:false;}
	.st155{fill:#0361A4;}
	.st156{fill:#1C5DA4;stroke:#FFCF2B;stroke-miterlimit:10;}
	.st157{fill:#593486;}
	.st158{fill:#FFC918;}
	.st159{fill:#ED1C24;}
	.st160{fill:#268FE1;}
	.st161{fill:#0361A4;stroke:#268FE1;stroke-miterlimit:10;}
	.st162{adobe-knockout:false;}
	.st163{fill:none;stroke:#0453BC;stroke-miterlimit:10;}
	.st164{fill:none;stroke:#0453BC;stroke-width:3;stroke-linecap:round;stroke-miterlimit:10;adobe-knockout:false;}
	.st165{fill:none;stroke:#F9E42A;stroke-miterlimit:10;}
	.st166{fill:#1F2427;stroke:#F9E42A;stroke-miterlimit:10;}
	.st167{fill:none;stroke:#4EFE3A;stroke-width:11;stroke-miterlimit:10;}
	.st168{fill:#00254E;}
	.st169{fill:#05297D;}
	.st170{fill:#7D1E05;stroke:#000000;stroke-miterlimit:10;}
	.st171{fill:#D36B52;}
	.st172{fill:none;stroke:#AE61FF;stroke-width:11;stroke-miterlimit:10;}
	.st173{fill:#561A00;}
	.st174{fill:#6A1E05;}
	.st175{fill:#AE61FF;stroke:#7D1E05;stroke-miterlimit:10;}
	.st176{fill:#FDEA00;}
	.st177{fill:none;stroke:#A02B00;stroke-width:3;stroke-miterlimit:10;}
	.st178{fill:none;stroke:#EAA595;stroke-width:3;stroke-miterlimit:10;}
	.st179{fill:none;stroke:#F1F1F1;stroke-width:3;stroke-miterlimit:10;}
	.st180{fill:none;stroke:#FF7F35;stroke-width:6;stroke-miterlimit:10;}
	.st181{fill:#FF7F35;stroke:#DAD2D8;stroke-miterlimit:10;}
	.st182{fill:none;stroke:#FF0000;stroke-width:2;stroke-miterlimit:10;adobe-knockout:false;}
	.st183{fill:#F1E3C9;}
	.st184{fill:#F28330;}
	.st185{fill:#ED1B28;}
	.st186{fill:none;stroke:#FFFFFF;stroke-width:2;stroke-miterlimit:10;adobe-knockout:false;}
</style>
<path class="st70" d="M594.5,576.2c0-93.6-20.8-396.5-56.5-478.7c-11.6-26.7-84.7-58.1-155.5-80.1c-24.8-7.7-54.1-9.9-81.7-9.4
	c-27.8-0.6-61.4,1.3-86.4,9.1C143.6,39.2,74.6,70.8,63,97.5C27.2,179.7,6.5,482.7,6.5,576.2c8.8,6.4,17.7,7.6,67.5,9.8
	c10-134,52-285,52-285s-3.6,248-3.6,270c0.2,18.6,88.2,23.8,174.2,24v0c1,0,2.5,0,3.5,0c1,0,2.5,0,3.5,0v0
	c86-0.2,174.5-5.4,174.7-24c0-22-3.2-270-3.2-270s42,151,52,285C576.7,583.8,585.7,582.7,594.5,576.2z"/>
<path class="st73" d="M70.4,88.6c0,0,77.1,9.2,55.7,220c-0.4,79.7-1.8,141.7-2.4,184.6c-0.7,46.5-0.8,70.5-0.8,71.6
	c0,3.2-0.6,7.5,0.8,9.2c0.7,1.1,1.7,2.3,3.4,3.5c4.7,3.4,15.3,6.5,27.3,8.8c-14.2-11.6-10.9-42.8-9.8-72.1c1.1-29.4-24-95.4-3-199.4
	c6.8-33.6-5.5-74.9-6-84C131.6,163.1,119.2,97.3,70.4,88.6z"/>
<path class="st73" d="M532.2,89c0,0-79.2,0.7-57.7,211.5c2.1,168.9,3.2,265.3,3.2,264.5c0-2.3,0,2.4,0,6.2c0,1.3-0.7,2.6-0.9,2.9
	c-0.7,1.1-2,2.2-3.6,3.4c-4.7,3.4-13.3,5.9-25.1,8.2c14.2-11.6,11.1-41.8,10-71.2c-1.1-29.4,24-95.4,3-199.4
	c-6.8-33.6,1.5-83.4,2-92.4C467,155.1,485.7,92,532.2,89z"/>
<g>
	<g>
		<path class="st70" d="M227.5,28.7C240.3,46,262,62.5,298.1,62.5c36.2,0,56.3-16.8,67.4-34.5C335.2,31.1,259.9,30.8,227.5,28.7z"/>
		<path class="st74" d="M368.1,1c-17.6,5.3-142.2,2.9-148.6,0.6c-0.1,0.3-0.3,0.7-0.5,1.1c2.2,7.1,6.3,17.5,13.7,27.5
			c29.5,1.9,97.9,2.2,125.6-0.6c6.2-9.9,9.4-20.2,10.9-27.3C368.8,1.8,368.4,1.4,368.1,1z"/>
	</g>
	<path class="st74" d="M369.2,2.3c-4.1,18.7-19,58.7-72.2,58.7c-53.9,0-72.4-40.1-78-58.3c-2.9,5.3-13.9,16.7-13.9,16.7
		s14.4,61,89.9,61c76.5,0,86.6-58.7,87.7-63.1C380.6,16.4,373.4,6.9,369.2,2.3z"/>
</g>
<g>
	<g>
		<path class="st5" d="M392.1,157.3c-9.9,0-20.9,0-30.5,0c0,8.8-7.3,15.9-16.4,16.2c5,46.7,31.5,46.8,31.5,46.8s26.5-0.1,31.5-46.8
			C399.3,173.1,392.1,165.8,392.1,157.3L392.1,157.3z"/>
		<path class="st92" d="M392.1,157.3c-9.9,0-20.9,0-30.5,0c0,8.8-7.3,15.9-16.4,16.2c5,46.7,31.5,46.8,31.5,46.8s26.5-0.1,31.5-46.8
			C399.3,173.1,392.1,165.8,392.1,157.3L392.1,157.3z"/>
	</g>
	<g>
		<path class="st92" d="M359.5,171.2c-2.8,2.8-6.2,4.6-10.1,5.4c1.2,8.4,3.2,15.8,6.1,21.7c2.5,5.3,5.6,9.6,9.4,12.7
			c5.9,5,11.3,5.4,11.9,5.4c0.6,0,6-0.4,11.9-5.4c0.6-0.5,1.2-1.1,1.8-1.6L364,164.5C363,166.9,361.5,169.2,359.5,171.2z"/>
		<path class="st5" d="M398,198.4c2.8-6,4.9-13.3,6.1-21.8c-3.8-0.9-7.2-2.8-9.9-5.6c-2.8-2.8-4.7-10-5.4-10h0H365
			c-0.2,1.2-0.6,2.3-1,3.5l26.5,44.9C393.4,206.5,396,202.8,398,198.4z"/>
	</g>
	<g>
		<path class="st5" d="M357,199.7l-3.9-25.4h3.7l1.6,11.5l1,8.1h0.1l0.9-8.1l1.4-11.5h3.6l-3.6,25.4H357z"/>
		<path class="st5" d="M366.7,206.8v-18.1h-1.7v-2.8h1.7v-1.1c0-1.2,0.3-2.1,1-2.8s1.5-1,2.5-1s1.9,0.1,2.5,0.4v2.4
			c-0.3-0.1-0.6-0.1-1-0.1c-0.8,0-1.2,0.4-1.2,1.2v1h2.2v2.8h-2.2v18.1H366.7z"/>
		<path class="st5" d="M373.7,213.8v-25.4h3.9v22.1h4.9v3.3H373.7z"/>
	</g>
	<g>
		<path class="st92" d="M376.4,176.7c0,0.9-0.2,1.4-0.7,1.6c0.6,0.2,0.9,0.8,0.9,1.9v0.2c0,0.8-0.1,1.4-0.4,1.8
			c-0.3,0.4-0.7,0.5-1.4,0.5H373v-8.1h1.8c0.6,0,1,0.1,1.3,0.4c0.2,0.3,0.4,0.8,0.4,1.4V176.7z M374.2,177.9h0.4
			c0.2,0,0.4-0.1,0.4-0.2c0.1-0.1,0.1-0.4,0.1-0.8v-0.5c0-0.3-0.1-0.5-0.1-0.6c-0.1-0.1-0.2-0.1-0.4-0.1h-0.4
			C374.2,175.6,374.2,177.9,374.2,177.9z M374.2,181.8h0.4c0.2,0,0.4-0.1,0.5-0.2c0.1-0.2,0.1-0.5,0.1-0.9v-0.7
			c0-0.4-0.1-0.7-0.1-0.9c-0.1-0.2-0.2-0.2-0.5-0.2h-0.5V181.8z"/>
		<path class="st92" d="M380.6,182.2c-0.3,0.4-0.8,0.6-1.4,0.6s-1.1-0.2-1.4-0.6s-0.5-1-0.5-1.8v-3.7c0-1.5,0.6-2.2,1.8-2.2
			c0.6,0,1.1,0.2,1.4,0.6s0.4,0.9,0.4,1.6v3.7C381,181.2,380.9,181.8,380.6,182.2z M378.8,181.4c0.1,0.2,0.2,0.3,0.5,0.3
			s0.4-0.1,0.5-0.3c0.1-0.2,0.1-0.5,0.1-1v-3.8c0-0.4,0-0.7-0.1-0.8c-0.1-0.2-0.2-0.3-0.4-0.3c-0.2,0-0.3,0.1-0.4,0.3
			c-0.1,0.2-0.1,0.5-0.1,0.8v3.8C378.7,180.9,378.7,181.2,378.8,181.4z"/>
		<path class="st92" d="M385.2,182.2c-0.3,0.4-0.7,0.5-1.3,0.5s-1-0.2-1.4-0.6c-0.3-0.4-0.4-1-0.4-1.7v-3.5c0-1.2,0.3-1.9,0.9-2.2
			c0.2-0.1,0.5-0.2,0.9-0.2c1.1,0,1.7,0.7,1.7,2.2v1.1h-1.2v-1c0-0.4,0-0.7-0.1-0.9c-0.1-0.2-0.2-0.3-0.4-0.3
			c-0.2,0-0.4,0.1-0.4,0.3c-0.1,0.2-0.1,0.5-0.1,0.9v3.8c0,0.4,0,0.8,0.1,0.9c0.1,0.2,0.2,0.3,0.4,0.3s0.4-0.1,0.4-0.3
			c0.1-0.2,0.1-0.5,0.1-0.9v-1.1h1.2v1.1C385.6,181.3,385.5,181.9,385.2,182.2z"/>
		<path class="st92" d="M386.6,182.7v-8.1h1.2v3.2h1.1v-3.2h1.2v8.1H389v-3.8h-1.1v3.8L386.6,182.7L386.6,182.7z"/>
		<path class="st92" d="M394.6,182.2c-0.3,0.4-0.8,0.5-1.4,0.5s-1.1-0.2-1.4-0.5c-0.3-0.4-0.4-0.9-0.4-1.6v-6h1.2v6
			c0,0.4,0,0.7,0.1,0.8c0,0.1,0.1,0.2,0.1,0.2c0,0.1,0.2,0.1,0.4,0.1c0.2,0,0.3-0.1,0.4-0.2c0.1-0.1,0.1-0.2,0.1-0.4
			c0-0.1,0-0.3,0-0.6v-6h1.2v6C395,181.4,394.9,181.9,394.6,182.2z"/>
		<path class="st92" d="M396.2,182.7v-8.1h1.6l1.1,5.9l1.1-5.9h1.5v8.1h-1.1v-3l0.1-2.8l-1.1,5.7h-1l-1.1-5.7l0,2.8v3L396.2,182.7
			L396.2,182.7z"/>
		<path class="st92" d="M380.2,192.3v-6.6c-0.1,0.1-0.2,0.2-0.5,0.3c-0.2,0.1-0.4,0.1-0.6,0.1v-0.9c0.3,0,0.5-0.1,0.8-0.3
			s0.4-0.4,0.5-0.7h1v8.1H380.2z"/>
		<path class="st92" d="M385.7,191.9c-0.3,0.4-0.7,0.5-1.3,0.5s-1-0.2-1.3-0.5c-0.3-0.3-0.5-0.8-0.5-1.6c0,0,0-0.2,0-0.6
			c0-0.4,0-0.8,0.2-1.1c0.1-0.3,0.3-0.6,0.5-0.7c-0.4-0.3-0.6-0.9-0.6-1.8c0-0.7,0.1-1.2,0.4-1.5c0.3-0.3,0.7-0.5,1.4-0.5
			s1.1,0.1,1.4,0.5c0.3,0.3,0.4,0.8,0.4,1.5c0,0.9-0.2,1.5-0.6,1.8c0.2,0.2,0.4,0.4,0.5,0.7c0.1,0.3,0.2,0.7,0.2,1.1v0.6
			C386.1,191,386,191.6,385.7,191.9z M384,191.1c0.1,0.2,0.2,0.2,0.4,0.2s0.4-0.1,0.4-0.2c0-0.1,0.1-0.4,0.1-0.8v-0.7
			c0-0.8-0.2-1.2-0.5-1.2c-0.2,0-0.3,0.1-0.4,0.3s-0.1,0.5-0.1,0.9v0.7C383.9,190.7,383.9,191,384,191.1z M384.1,187.5
			c0.1,0.1,0.1,0.1,0.3,0.1l0,0c0.1,0,0.2,0,0.3-0.1c0.1-0.1,0.1-0.2,0.2-0.4s0.1-0.4,0.1-0.8c0-0.4,0-0.6-0.1-0.8
			c0-0.2-0.1-0.3-0.1-0.3s-0.2-0.1-0.3-0.1s-0.2,0-0.3,0.1c-0.1,0.1-0.2,0.5-0.2,1.1S384,187.3,384.1,187.5z"/>
		<path class="st92" d="M389,192.3v-1.4h-2V190l1.8-5.8h1.3v5.6h0.6v1h-0.6v1.4H389z M388,189.9h1v-4L388,189.9z"/>
		<path class="st92" d="M394.5,191.9c-0.3,0.4-0.7,0.5-1.3,0.5s-1.1-0.2-1.3-0.5c-0.3-0.3-0.4-0.8-0.4-1.6c0,0,0-0.2,0-0.6
			c0-0.4,0-0.8,0.2-1.1c0.1-0.3,0.3-0.6,0.5-0.7c-0.4-0.3-0.6-0.9-0.6-1.8c0-0.7,0.1-1.2,0.4-1.5c0.3-0.3,0.7-0.5,1.4-0.5
			s1.1,0.1,1.4,0.5c0.3,0.3,0.4,0.8,0.4,1.5c0,0.9-0.2,1.5-0.6,1.8c0.2,0.2,0.4,0.4,0.5,0.7c0.1,0.3,0.2,0.7,0.2,1.1v0.6
			C395,191,394.8,191.6,394.5,191.9z M392.8,191.1c0.1,0.2,0.2,0.2,0.5,0.2s0.4-0.1,0.4-0.2c0.1-0.1,0.1-0.4,0.1-0.8v-0.7
			c0-0.8-0.2-1.2-0.5-1.2c-0.2,0-0.3,0.1-0.4,0.3s-0.1,0.5-0.1,0.9v0.7C392.7,190.7,392.7,191,392.8,191.1z M393,187.5
			c0.1,0.1,0.1,0.1,0.3,0.1l0,0c0.1,0,0.2,0,0.3-0.1c0.1-0.1,0.1-0.2,0.2-0.4c0-0.2,0.1-0.4,0.1-0.8c0-0.4,0-0.6,0-0.8
			c0-0.2-0.1-0.3-0.1-0.3c-0.1-0.1-0.2-0.1-0.3-0.1s-0.2,0-0.3,0.1c-0.1,0.1-0.2,0.5-0.2,1.1S392.8,187.3,393,187.5z"/>
	</g>
</g>
<path class="st93" d="M128.8,319.8c15-7.3,28.9-8.4,43.3,1.2c14,9.3,24.5,30.3,19.7,47.1c-4.7,16.3-22.9,35.7-36.8,44.7
	c-9,5.8-18.6,7.6-28.1,6.1"/>
<path class="st93" d="M125.8,442.8c29.7-10.5,59.6-19.5,89.9-27.9c28.5-8,61.9-18.9,90.1-4.2c26.1,13.7,37.4,51.2,7,67.1
	c-32.2,16.8-72.5,5.1-107.3,11.4C151,499,140,515,125,536"/>
<path class="st93" d="M191.8,352.8c44.9,1.5,85.5-0.2,127.3-17.8c33.7-14.2,78.9-30.8,112-5.6c12.8,9.7,17.4,25.1,8.6,39.1
	c-10,15.9-30.4,23.9-48,27.3c-35.2,6.8-64.9-8.4-98.6-14.5c-40.3-7.4-76.6,0.1-115.4,11.9"/>
<path class="st93" d="M473,394c-15,29-67,32.7-91.9,39.9c-21.7,6.3-46,23.6-41.6,49.5c2.2,13.3,13.1,23.9,26.8,24.4
	c13.5,0.5,24.5-8.7,36.1-14.2c27-12.8,50.7-3.1,70.2,17.2"/>
<path class="st93" d="M124,559.9c21.2,0.3,42.2,1.5,62-7.6c13.8-6.3,27.2-12.9,41.8-17.4c7.7-2.3,13.6-6.5,21.2-8.2
	c7.2-1.6,13.4-4.8,20.8-6.4c14.6-3.2,28.5-2.3,43.5-2.4c26.7-0.2,45,25.4,70.6,29.9c6.2,1.1,12.1,3.3,18.3,3.3
	c9.9,0,19.9-0.3,29.9-0.4c11.2-0.1,31.7,4.6,40.7-2.6"/>
<path class="st93" d="M437.7,38.7c-4.9,8.4,8.7,26.7-15.6,33c-8.2,2.2-16.8,2.3-24.9,4.6c-7.4,2.1-20.5,5.5-25.2,12
	c-4.8,6.6-0.7,18.1,3.8,24c11.5,14.7,37.1,7.5,52.8,9.9C479,130,472.8,190.8,461,210c-9.6,15.5-26.1,24.9-43.7,31.5
	c-14.4,5.4-29.7,3.8-44.3,0.2c-44.5-11.1-87.2-22.5-133.7-13.4c-22.6,4.4-56,16.5-58.3,43.8c-2.1,25.1,25,39.8,46.4,41.9
	c27.1,2.7,51.7-9.7,73.1-24.9c17.4-12.4,33.6-25.5,55.6-27.8c39.6-4.2,92,11.2,113.5,46.6"/>
<path class="st93" d="M182.9,31.8c12.7,6.2,26.8,14.3,27.4,29.8c0.7,18.8-5.5,31.9-25.2,35.7c-16.3,3.1-29.4-4.1-45.6-5.6
	C110,89,108,122,123,124c0,0,38,19,86.7,0.8c29.4-11,64.6-18.8,95-4.8c22.6,10.4,35.5,39.1,7.2,51.4c-15.4,6.7-33.5,7.3-49.9,9.6
	c-20.4,2.8-40.6,7-59.5,15.4c-34,15.1-57.5,41.3-75.6,73.1"/>
<path class="st93" d="M224,121c0,0,6,16-11,27s-49,12-56,28s47,6,77-11s69-39,88-30"/>
</svg>
