<?xml version="1.0" encoding="utf-8"?>
<!-- Generator: Adobe Illustrator 17.0.0, SVG Export Plug-In . SVG Version: 6.00 Build 0)  -->
<!DOCTYPE svg PUBLIC "-//W3C//DTD SVG 1.1//EN" "http://www.w3.org/Graphics/SVG/1.1/DTD/svg11.dtd" [
	<!ENTITY ns_flows "http://ns.adobe.com/Flows/1.0/">
	<!ENTITY ns_extend "http://ns.adobe.com/Extensibility/1.0/">
	<!ENTITY ns_ai "http://ns.adobe.com/AdobeIllustrator/10.0/">
	<!ENTITY ns_graphs "http://ns.adobe.com/Graphs/1.0/">
]>
<svg version="1.1" id="Layer_1" xmlns:x="&ns_extend;" xmlns:i="&ns_ai;" xmlns:graph="&ns_graphs;"
	 xmlns="http://www.w3.org/2000/svg" xmlns:xlink="http://www.w3.org/1999/xlink" xmlns:a="http://ns.adobe.com/AdobeSVGViewerExtensions/3.0/"
	 x="0px" y="0px" width="600px" height="600px" viewBox="0 0 600 600" style="enable-background:new 0 0 600 600;"
	 xml:space="preserve">
<style type="text/css">
	.st0{fill:#000100;}
	.st1{fill:#E80040;stroke:#000000;stroke-miterlimit:10;}
	.st2{fill:#FCE200;stroke:#000000;stroke-miterlimit:10;}
	.st3{fill:#FEA63F;stroke:#000000;stroke-miterlimit:10;}
	.st4{fill:#FFFFFF;stroke:#000000;stroke-miterlimit:10;}
	.st5{fill:#FFFFFF;}
	.st6{fill:#7C0014;}
	.st7{fill:#75C255;stroke:#000000;stroke-miterlimit:10;}
	.st8{fill:#52B329;}
	.st9{fill:#52BCE0;stroke:#000000;stroke-miterlimit:10;}
	.st10{fill:#48ACD0;}
	.st11{fill:#028CBE;}
	.st12{fill:#52BCE0;}
	.st13{fill:#EFF0F9;stroke:#4E3B64;stroke-miterlimit:10;}
	.st14{fill:#1D5662;stroke:#000000;stroke-miterlimit:10;}
	.st15{fill:#1D5662;}
	.st16{fill:#054049;}
	.st17{fill:#037FC7;}
	.st18{fill:#9158B6;stroke:#000000;stroke-miterlimit:10;}
	.st19{fill:#752EA5;}
	.st20{fill:#2678C7;}
	.st21{fill:#FABFB6;stroke:#000000;stroke-miterlimit:10;}
	.st22{fill:#FABFB6;}
	.st23{fill:#FC8038;stroke:#FABFB6;stroke-miterlimit:10;}
	.st24{fill:#00A39B;}
	.st25{fill:#E53A3E;stroke:#000000;stroke-miterlimit:10;}
	.st26{fill:#E53A3E;}
	.st27{fill:#242424;stroke:#5C377E;stroke-miterlimit:10;}
	.st28{fill:#525252;stroke:#000000;stroke-miterlimit:10;}
	.st29{fill:#4998BB;}
	.st30{fill:#1A7F9E;}
	.st31{fill:#E58000;stroke:#000000;stroke-miterlimit:10;}
	.st32{fill:#BA7500;stroke:#000000;stroke-miterlimit:10;}
	.st33{fill:#DF961C;stroke:#000000;stroke-miterlimit:10;}
	.st34{fill:#DF961C;}
	.st35{fill:#EDF3F8;stroke:#000000;stroke-miterlimit:10;}
	.st36{fill:#DA7600;}
	.st37{fill:#C2BEC8;}
	.st38{fill:#000100;stroke:#FFFFFF;stroke-miterlimit:10;}
	.st39{fill:#A8F001;stroke:#000000;stroke-miterlimit:10;}
	.st40{fill:#0578CD;}
	.st41{fill:#1A58A5;}
	.st42{stroke:#625616;stroke-miterlimit:10;}
	.st43{adobe-knockout:true;}
	.st44{fill:none;stroke:#FFFFFF;stroke-width:3;stroke-miterlimit:10;adobe-knockout:false;}
	.st45{fill:#D71F26;stroke:#000000;stroke-miterlimit:10;}
	.st46{fill:#008183;}
	.st47{fill:#6FC266;}
	.st48{fill:#C4373C;}
	.st49{fill:#00CAB0;}
	.st50{fill:#FAAE1E;}
	.st51{fill:#EC153B;}
	.st52{fill:#00B296;}
	.st53{fill:#F2C958;stroke:#00CAB0;stroke-miterlimit:10;}
	.st54{fill:#FF354F;stroke:#000000;stroke-miterlimit:10;}
	.st55{fill:#0D36A7;stroke:#000000;stroke-miterlimit:10;}
	.st56{fill:#D2D7E2;stroke:#000000;stroke-miterlimit:10;}
	.st57{fill:#CA2B9D;stroke:#000000;stroke-miterlimit:10;}
	.st58{fill:#58006C;stroke:#000000;stroke-miterlimit:10;}
	.st59{fill:#C60021;}
	.st60{fill:#A30F81;}
	.st61{fill:#0159C0;stroke:#A0A0A0;stroke-miterlimit:10;}
	.st62{fill:#013390;}
	.st63{fill:#F08900;}
	.st64{fill:#D20129;}
	.st65{fill:#AD0000;}
	.st66{fill:#131E25;}
	.st67{fill:#DAD2D8;stroke:#000000;stroke-miterlimit:10;}
	.st68{fill:#0066B3;}
	.st69{fill:#969796;}
	.st70{fill:#E86271;}
	.st71{fill:url(#SVGID_1_);stroke:#000000;stroke-miterlimit:10;}
	.st72{fill:#5AB4D2;stroke:#000000;stroke-miterlimit:10;}
	.st73{fill:#5AB4D2;}
	.st74{fill:#FFFFFF;stroke:#5AB4D2;stroke-miterlimit:10;}
	.st75{fill:#073F98;stroke:#0453BC;stroke-miterlimit:10;}
	.st76{fill:#2762C9;stroke:#000000;stroke-miterlimit:10;}
	.st77{fill:#C252FF;}
	.st78{fill:url(#SVGID_2_);}
	.st79{fill:url(#SVGID_3_);}
	.st80{fill:#DAD2D8;}
	.st81{stroke:#000000;stroke-miterlimit:10;}
	.st82{fill:#05297D;stroke:#000000;stroke-miterlimit:10;}
	.st83{fill:#05297D;stroke:#FFFFFF;stroke-miterlimit:10;}
	.st84{fill:#A8A8B4;}
	.st85{fill:url(#SVGID_4_);stroke:#000000;stroke-miterlimit:10;}
	.st86{fill:#53536A;}
	.st87{fill:#073F98;}
	.st88{fill:#098FBC;}
	.st89{fill:url(#SVGID_5_);}
	.st90{fill:#F7A161;}
	.st91{fill:#FF0000;stroke:#000000;stroke-miterlimit:10;}
	.st92{fill:#F54849;stroke:#000000;stroke-miterlimit:10;}
	.st93{fill:url(#SVGID_6_);}
	.st94{fill:url(#SVGID_7_);}
	.st95{fill:#3A72B7;stroke:#000000;stroke-miterlimit:10;}
	.st96{fill:#96C4F0;stroke:#000000;stroke-miterlimit:10;}
	.st97{fill:#C50040;}
	.st98{fill:#D11E24;}
	.st99{fill:#E3E3E7;}
	.st100{stroke:#FFCF2B;stroke-miterlimit:10;}
	.st101{fill:none;stroke:#F9E42A;stroke-miterlimit:10;}
	.st102{fill:#F08900;stroke:#000000;stroke-miterlimit:10;}
	.st103{fill:#F28330;}
	.st104{fill:#FC8038;}
	.st105{fill:#5AB633;}
	.st106{fill:#553658;stroke:#75C255;stroke-miterlimit:10;}
	.st107{fill:#1853A6;}
	.st108{fill:#CB0000;}
	.st109{fill:#0F0D0E;}
	.st110{fill:#636363;}
	.st111{fill:#FFFFFF;stroke:#00A39B;stroke-miterlimit:10;}
	.st112{fill:#D71F26;}
	.st113{fill:#020000;}
	.st114{fill:none;stroke:#000000;stroke-width:0.5;stroke-miterlimit:10;}
	.st115{clip-path:url(#SVGID_9_);}
	.st116{clip-path:url(#SVGID_11_);}
	.st117{clip-path:url(#SVGID_13_);}
	.st118{clip-path:url(#SVGID_15_);}
	.st119{fill:#7A4A00;}
	.st120{fill:none;stroke:#1A7F9E;stroke-width:7;stroke-miterlimit:10;}
	.st121{fill:#E20227;stroke:#4998BB;stroke-miterlimit:10;}
	.st122{fill:#1F2427;}
	.st123{fill:#BA7500;}
	.st124{fill:none;stroke:#BA7500;stroke-width:7;stroke-miterlimit:10;}
	.st125{fill:#843D00;stroke:#000000;stroke-width:0.25;stroke-miterlimit:10;}
	.st126{stroke:#000000;stroke-width:0.25;stroke-miterlimit:10;}
	.st127{fill:#ECEEF3;stroke:#1A58A5;stroke-miterlimit:10;}
	.st128{fill:#233194;}
	.st129{fill:#E0DFE3;}
	.st130{fill:#C2BEC8;stroke:#000000;stroke-miterlimit:10;}
	.st131{fill:#233194;stroke:#000000;stroke-miterlimit:10;}
	.st132{fill:#A40100;}
	.st133{adobe-knockout:false;}
	.st134{fill:#A0AAC1;}
	.st135{fill:#A40100;stroke:#000000;stroke-miterlimit:10;}
	.st136{fill:#92F0D6;}
	.st137{fill:#F2C958;}
	.st138{fill:#CA2B9D;stroke:#CA2B9D;stroke-miterlimit:10;}
	.st139{fill:#A30F81;stroke:#000000;stroke-miterlimit:10;}
	.st140{fill:#7E2B42;}
	.st141{fill:#0D36A7;}
	.st142{fill:#EE1C24;}
	.st143{fill:#0159C0;}
	.st144{stroke:#A0A0A0;stroke-miterlimit:10;}
	.st145{stroke:#4E3B64;stroke-miterlimit:10;}
	.st146{fill:#FDEA00;stroke:#000000;stroke-width:0.217;}
	.st147{fill:#FDEA00;stroke:#000000;stroke-width:0.2326;}
	.st148{fill:#1D1D1B;}
	.st149{fill:#FF0000;}
	.st150{fill:none;stroke:#0453BC;stroke-width:25.435;stroke-miterlimit:10;adobe-knockout:false;}
	.st151{fill:none;stroke:#0453BC;stroke-width:25.4353;stroke-linecap:round;stroke-miterlimit:10;adobe-knockout:false;}
	.st152{fill:#CAC5C0;}
	.st153{fill:#2762C9;}
	.st154{fill:#C252FF;stroke:#000000;stroke-miterlimit:10;}
	.st155{fill:#A54B2D;stroke:#000000;stroke-miterlimit:10;}
	.st156{fill:#A54B2D;}
	.st157{stroke:#A54B2D;stroke-miterlimit:10;}
	.st158{fill:#823311;}
	.st159{fill:none;}
	.st160{fill:#05297D;}
	.st161{fill:none;stroke:#FF7F35;stroke-width:6;stroke-miterlimit:10;}
	.st162{fill:#031DFF;stroke:#000000;stroke-miterlimit:10;}
	.st163{fill:#0370FF;stroke:#000000;stroke-miterlimit:10;}
	.st164{fill:#031DC4;}
	.st165{fill:none;stroke:#0080CA;stroke-width:6;stroke-miterlimit:10;}
	.st166{fill:#031DFF;stroke:#FFFFFF;stroke-miterlimit:10;}
	.st167{fill:#0263B0;}
	.st168{fill:none;stroke:#FFFFFF;stroke-width:2;stroke-miterlimit:10;}
	.st169{fill:url(#SVGID_16_);stroke:#FFFFFF;stroke-miterlimit:10;}
	.st170{fill:url(#SVGID_17_);}
	.st171{fill:url(#SVGID_18_);}
	.st172{fill:url(#SVGID_19_);}
	.st173{fill:#693B0F;stroke:#000000;stroke-miterlimit:10;}
	.st174{fill:#3E4E70;}
	.st175{fill:#F7CE02;}
	.st176{fill:#0551E1;stroke:#000000;stroke-miterlimit:10;}
	.st177{fill:#EC153B;stroke:#000000;stroke-miterlimit:10;}
	.st178{fill:#0831FD;}
	.st179{fill:#0870FD;}
	.st180{fill:none;stroke:#9F3D44;stroke-width:3;stroke-miterlimit:10;}
</style>
<path class="st4" d="M6.1,342.8C40.7,232.2,21.2,187.2,67.7,94.2c10.5-21,71.9-57.8,135.8-73.2c0,0,109.7-25.5,180.5-3.5
	s140.3,53.3,151.9,80c35.7,82.1,31.2,191.6,59.7,243.7c-12.5,1.2-81.3,14.4-109.3,19.7c-2.4-7.3-13.4-60-13.4-60s3.2,248,3.2,270
	c-0.2,19-92.8,24-180.8,24s-167.5-10-167.5-26.9c0-16.8,1.1-262.1,1.1-262.1s-3.3,23.3-8.3,56.1C91.3,361.9,16.4,344,6.1,342.8z"/>
<g>
	<g>
		<path class="st5" d="M234.5,28.7C247.3,46,269,62.5,305.1,62.5c36.2,0,56.3-16.8,67.4-34.5C342.2,31.1,266.9,30.8,234.5,28.7z"/>
		<path class="st6" d="M375.1,1c-17.6,5.3-142.2,2.9-148.6,0.6c-0.1,0.3-0.3,0.7-0.5,1.1c2.2,7.1,6.3,17.5,13.7,27.5
			c29.5,1.9,97.9,2.2,125.6-0.6c6.2-9.9,9.4-20.2,10.9-27.3C375.8,1.8,375.4,1.4,375.1,1z"/>
	</g>
	<path class="st6" d="M376.2,2.3c-4.1,18.7-19,58.7-72.2,58.7c-53.9,0-72.4-40.1-78-58.3c-2.9,5.3-15.1,16-15.1,16
		s15.6,61.7,91.1,61.7c76.5,0,86.6-58.7,87.7-63.1C387.6,16.4,380.4,6.9,376.2,2.3z"/>
</g>
<path class="st4" d="M6.1,342.8C40.7,232.2,21.2,187.2,67.7,94.2c10.5-21,71.9-57.8,135.8-73.2c0,0,109.7-25.5,180.5-3.5
	s140.3,53.3,151.9,80c35.7,82.1,31.2,191.6,59.7,243.7c-12.5,1.2-81.3,14.4-109.3,19.7c-2.4-7.3-13.4-60-13.4-60s3.2,248,3.2,270
	c-0.2,19-92.8,24-180.8,24s-167.5-10-167.5-26.9c0-16.8,1.1-262.1,1.1-262.1s-3.3,23.3-8.3,56.1C91.3,361.9,16.4,344,6.1,342.8z"/>
<g>
	<g>
		<path class="st5" d="M234.5,28.7C247.3,46,269,62.5,305.1,62.5c36.2,0,56.3-16.8,67.4-34.5C342.2,31.1,266.9,30.8,234.5,28.7z"/>
		<path class="st6" d="M375.1,1c-17.6,5.3-142.2,2.9-148.6,0.6c-0.1,0.3-0.3,0.7-0.5,1.1c2.2,7.1,6.3,17.5,13.7,27.5
			c29.5,1.9,97.9,2.2,125.6-0.6c6.2-9.9,9.4-20.2,10.9-27.3C375.8,1.8,375.4,1.4,375.1,1z"/>
	</g>
	<path class="st6" d="M376.2,2.3c-4.1,18.7-19,58.7-72.2,58.7c-53.9,0-72.4-40.1-78-58.3c-2.9,5.3-15.1,16-15.1,16
		s15.6,61.7,91.1,61.7c76.5,0,86.6-58.7,87.7-63.1C387.6,16.4,380.4,6.9,376.2,2.3z"/>
</g>
<path class="st4" d="M6.1,342.8C40.7,232.2,21.2,187.2,67.7,94.2c10.5-21,71.9-57.8,135.8-73.2c0,0,109.7-25.5,180.5-3.5
	s140.3,53.3,151.9,80c35.7,82.1,31.2,191.6,59.7,243.7c-12.5,1.2-81.3,14.4-109.3,19.7c-2.4-7.3-13.4-60-13.4-60s3.2,248,3.2,270
	c-0.2,19-92.8,24-180.8,24s-167.5-10-167.5-26.9c0-16.8,1.1-262.1,1.1-262.1s-3.3,23.3-8.3,56.1C91.3,361.9,16.4,344,6.1,342.8z"/>
<path class="st80" d="M73.8,85.9c0,0,77.1,9.2,55.7,220c-0.9,166-1.1,253.8-1.1,255.9c0,3.2-0.6,7.5,0.8,9.2
	c0.7,1.1,1.7,2.3,3.4,3.5c4.7,3.4,13.4,6.6,25.2,9.1c-14.2-11.6-10.9-42.8-9.8-72.1c1.1-29.4-24-95.4-3-199.4
	c6.8-33.6-5.5-74.9-6-84C135,160.4,122.6,94.6,73.8,85.9z"/>
<path class="st80" d="M530.2,89c0,0-79.2,0.7-57.7,211.5c2.1,168.9,3.2,265.3,3.2,264.5c0-2.3,0,2.4,0,6.2c0,1.3-0.7,2.6-0.9,2.9
	c-0.7,1.1-2,2.2-3.6,3.4c-4.7,3.4-13.3,5.9-25.1,8.2c14.2-11.6,11.1-41.8,10-71.2c-1.1-29.4,24-95.4,3-199.4
	c-6.8-33.6,1.5-83.4,2-92.4C465,155.1,483.7,92,530.2,89z"/>
<rect x="37.5" y="23.5" class="st101" width="36" height="36"/>
<g>
	<g>
		<path class="st80" d="M234.5,28.7C247.3,46,269,62.5,305.1,62.5c36.2,0,56.3-16.8,67.4-34.5C342.2,31.1,266.9,30.8,234.5,28.7z"/>
		<path class="st82" d="M375.1,1c-17.6,5.3-142.2,2.9-148.6,0.6c-0.1,0.3-0.3,0.7-0.5,1.1c2.2,7.1,6.3,17.5,13.7,27.5
			c29.5,1.9,97.9,2.2,125.6-0.6c6.2-9.9,9.4-20.2,10.9-27.3C375.8,1.8,375.4,1.4,375.1,1z"/>
	</g>
	<path class="st82" d="M376.2,2.3c-4.1,18.7-19,58.7-72.2,58.7c-53.9,0-72.4-40.1-78-58.3c-2.9,5.3-15.1,16-15.1,16
		s15.6,61.7,91.1,61.7c76.5,0,86.6-58.7,87.7-63.1C387.6,16.4,380.4,6.9,376.2,2.3z"/>
</g>
<g>
	<path class="st159" d="M389.5,411.5c1-8.4,2.2-16.9,3.6-25.4c-33.6,0.8-66.5,1.1-96.9,1.1c-32.9,0-62.7-0.3-87.2-0.8
		c1.3,8.3,2.5,16.7,3.5,25C258.4,413.2,322.4,414.5,389.5,411.5z"/>
	<path class="st159" d="M385.7,462.5c0.2-8.4,0.6-16.9,1.2-25.4c-28,1.2-55.5,1.7-81.2,1.7c-33.9,0-64.9-0.8-90.7-1.8
		c0.6,8.4,1.1,16.8,1.2,25C260.9,464.8,321.7,466.6,385.7,462.5z"/>
	<path class="st159" d="M432.8,211.1c0.7-3.1,1.5-6.1,2.2-9.1c1.1-4.6,2-9.1,2.7-13.4c-105.9-15.2-220.7-5.8-273.3,0.2
		c0.7,4.3,1.6,8.7,2.6,13.2c0.8,3.5,1.7,7,2.6,10.6C221,208.7,328.3,202.7,432.8,211.1z"/>
	<path class="st159" d="M420.5,260.1c2.1-8.2,4.1-16.2,6.1-24c-98.7-7.5-199.4-2.2-250.8,1.6c1.9,7.7,4,15.6,6,23.7
		C233.2,259.3,326.5,256.7,420.5,260.1z"/>
	<path class="st159" d="M408.3,310c1.9-8.3,3.9-16.6,5.9-24.7c-88.2-3-175.3-0.7-226.1,1.3c2,8,3.9,16.1,5.8,24.2
		C244.2,310.4,325,309.8,408.3,310z"/>
	<path class="st159" d="M440,163.2c0.1-8.4-0.5-16.4-1.6-23.9c-100.8-16.8-215.4-6.5-275,1.2c-1,7.2-1.5,14.8-1.4,22.8
		c19.3-2.2,46.5-4.8,78.8-6.6C293.2,153.9,367.9,153,440,163.2z"/>
	<path class="st159" d="M397.5,360.5c1.6-8.3,3.2-16.5,5-24.8c-78.2-0.2-153.6,0.3-202.9,0.7c1.7,8.1,3.4,16.2,4.9,24.4
		C252.7,361.7,323.7,362.3,397.5,360.5z"/>
	<path class="st159" d="M402.2,562.4c-3.4-7.7-6.2-15.7-8.5-24.1c-29.5,2.7-58.1,3.7-84.4,3.7c-24.4,0-46.8-0.9-66-2
		c-12.5-0.8-24.2-1.7-34.9-2.7c-2.2,8.2-4.9,16.1-8.1,23.7c13.3,1.7,28.5,3.4,45.2,4.7C286.6,568.8,343,570.1,402.2,562.4z"/>
	<path class="st159" d="M388.6,513.2c-1.2-8.2-2-16.7-2.5-25.3c-26.9,1.7-53.3,2.4-78.1,2.4c-34.4,0-65.9-1.3-92.1-2.9
		c-0.4,8.4-1.2,16.7-2.3,24.7C259,516.1,322.2,519,388.6,513.2z"/>
	<path class="st160" d="M438.4,139.4c-1.4-9.7-3.8-18.6-6.7-26.8c-45.5-6.7-108.6-10.7-191.5-5.2c-26.9,1.8-50.9,4.3-70.4,6.6
		c-2.8,8.1-5,16.9-6.4,26.5C223,132.9,337.6,122.6,438.4,139.4z"/>
	<path class="st160" d="M437.7,188.6c1.5-8.9,2.2-17.3,2.3-25.4c-72.1-10.2-146.7-9.3-199.2-6.4c-32.2,1.8-59.5,4.4-78.8,6.6
		c0.1,8,0.9,16.5,2.3,25.4C217,182.8,331.8,173.3,437.7,188.6z"/>
	<path class="st160" d="M426.6,236.1c2.2-8.6,4.3-17,6.2-25c-104.5-8.3-211.8-2.4-263.3,1.6c2,8,4.1,16.4,6.3,25
		C227.2,233.8,327.9,228.6,426.6,236.1z"/>
	<path class="st160" d="M414.2,285.3c2.1-8.6,4.2-17,6.3-25.2c-94-3.4-187.3-0.8-238.7,1.3c2.1,8.2,4.2,16.6,6.3,25.2
		C238.9,284.6,326,282.3,414.2,285.3z"/>
	<path class="st160" d="M402.5,335.8c1.8-8.7,3.8-17.3,5.8-25.7c-83.3-0.2-164.1,0.4-214.4,0.8c2,8.5,3.9,17,5.7,25.6
		C248.9,336,324.4,335.6,402.5,335.8z"/>
	<path class="st160" d="M393.1,386.1c1.4-8.5,2.9-17,4.5-25.5c-73.9,1.8-144.8,1.2-193,0.3c1.6,8.5,3.1,17,4.4,25.5
		c24.5,0.4,54.4,0.8,87.2,0.8C326.5,387.1,359.5,386.8,393.1,386.1z"/>
	<path class="st160" d="M387,437c0.6-8.4,1.5-17,2.5-25.6c-67.1,3-131.1,1.7-177-0.2c1,8.6,1.9,17.1,2.5,25.6
		c25.8,1,56.8,1.8,90.7,1.8C331.5,438.7,358.9,438.2,387,437z"/>
	<path class="st160" d="M386.1,487.9c-0.4-8.3-0.6-16.8-0.4-25.4c-64,4.1-124.8,2.3-169.5-0.5c0.2,8.6,0.1,17.1-0.4,25.4
		c26.2,1.6,57.7,2.9,92.1,2.9C332.9,490.3,359.2,489.6,386.1,487.9z"/>
	<path class="st160" d="M309.4,542c26.2,0,54.9-1,84.4-3.7c-2.2-8.1-3.9-16.4-5.1-25.1c-66.4,5.8-129.6,2.9-175.1-1.1
		c-1.2,8.7-2.9,17.1-5,25.2c10.7,1,22.4,1.9,34.9,2.7C262.5,541.1,284.9,542,309.4,542z"/>
	<path class="st160" d="M245.6,565.6c-16.7-1.3-31.9-3-45.2-4.7c-3.6,8.5-8,16.5-13.2,23.9c15.6,2.2,34.5,4.4,55.9,6.1
		c23.7,1.9,46.1,2.7,66.9,2.7c41,0,76.4-3.1,105.6-7.4c-5.3-7.4-9.7-15.3-13.5-23.8C343,570.1,286.6,568.8,245.6,565.6z"/>
</g>
<path class="st160" d="M96.3,100.6c9.3,7.8,12.9,16.9,14.1,19.9c8-38,116.2-74.6,116.2-74.6l-5.6-10
	C173.6,49.1,130.8,69.9,96.3,100.6z"/>
<path class="st160" d="M368.8,45.5c0,0,108.5,38.3,117.9,76c0.9-2.6,6.2-10.5,14.5-18.1c-38.2-30-82-54.4-129.1-64.3L368.8,45.5z"/>
<g>
	<g>
		<g>
			<path class="st5" d="M381.1,211.3c-16.8,0-30.4-13.6-30.4-30.3s13.6-30.4,30.4-30.4s30.4,13.6,30.4,30.4S397.8,211.3,381.1,211.3
				z"/>
			<path class="st167" d="M381.1,151.7c7.8,0,15.1,3.1,20.6,8.6s8.5,12.9,8.5,20.7s-3,15.1-8.5,20.6s-12.9,8.6-20.6,8.6
				c-7.8,0-15.1-3.1-20.6-8.6s-8.6-12.8-8.6-20.6s3-15.1,8.5-20.6S373.3,151.7,381.1,151.7 M381.1,149.4
				c-17.4,0-31.5,14.1-31.5,31.5s14.1,31.5,31.5,31.5s31.5-14.1,31.5-31.5S398.5,149.4,381.1,149.4L381.1,149.4z"/>
		</g>
	</g>
	<g>
		<path class="st167" d="M360.5,195.5v-6h1.1l0.9,4.4l0.8-4.4h1.1v6h-0.8v-2.2l0-2.1l-0.8,4.3h-0.7l-0.8-4.3l0,2.1v2.2L360.5,195.5
			L360.5,195.5z"/>
		<path class="st167" d="M365.4,195.5v-6h2v0.8h-1.1v1.8h1v0.8h-1v1.9h1.1v0.8L365.4,195.5L365.4,195.5z"/>
		<path class="st167" d="M368.2,195.5v-6h0.9v6H368.2z"/>
		<path class="st167" d="M370.1,195.5v-6h1.4c0.4,0,0.8,0.1,1,0.4c0.2,0.2,0.3,0.7,0.3,1.2v2.7c0,0.6-0.1,1.1-0.3,1.4
			c-0.2,0.3-0.5,0.4-1,0.4L370.1,195.5L370.1,195.5z M371,194.8h0.3c0.2,0,0.3-0.1,0.4-0.2c0.1-0.1,0.1-0.3,0.1-0.6v-3
			c0-0.3-0.1-0.5-0.1-0.7c-0.1-0.1-0.2-0.2-0.4-0.2H371V194.8z"/>
		<path class="st167" d="M373.5,195.5v-6h2v0.8h-1.1v1.8h1v0.8h-1v1.9h1.1v0.8L373.5,195.5L373.5,195.5z"/>
		<path class="st167" d="M377.5,192.7l-0.3,0v2.8h-0.9v-6h1.5c0.3,0,0.5,0.1,0.7,0.2c0.1,0.1,0.2,0.3,0.3,0.5c0,0.2,0.1,0.5,0.1,0.9
			s-0.1,0.7-0.1,0.9c-0.1,0.2-0.2,0.3-0.4,0.4c0.2,0,0.4,0.2,0.4,0.4c0.1,0.2,0.1,0.8,0.1,1.5c0,0.8,0,1.2,0,1.2h-0.9
			c0-0.1,0-0.8,0-2.2c0-0.3,0-0.4-0.1-0.5C377.9,192.8,377.7,192.7,377.5,192.7z M377.3,192h0.4c0.1,0,0.2,0,0.2-0.1
			c0.1,0,0.1-0.1,0.1-0.3c0-0.1,0-0.3,0-0.6v0c0-0.3,0-0.6-0.1-0.7c0-0.1-0.2-0.1-0.4-0.1h-0.3L377.3,192L377.3,192z"/>
		<path class="st167" d="M379.8,195.5v-6h0.9v6H379.8z"/>
		<path class="st167" d="M383.9,195.2c-0.2,0.3-0.5,0.4-1,0.4c-0.4,0-0.8-0.2-1-0.5c-0.2-0.3-0.3-0.7-0.3-1.3v-2.6
			c0-0.9,0.2-1.5,0.7-1.7c0.2-0.1,0.4-0.1,0.6-0.1c0.9,0,1.3,0.5,1.3,1.6v0.8h-0.9v-0.8c0-0.3,0-0.5-0.1-0.7c0-0.1-0.1-0.2-0.3-0.2
			s-0.2,0.1-0.3,0.2c-0.1,0.1-0.1,0.3-0.1,0.6v2.8c0,0.3,0,0.6,0.1,0.7c0.1,0.1,0.2,0.2,0.3,0.2s0.2-0.1,0.3-0.2
			c0-0.2,0.1-0.4,0.1-0.7V193h0.9v0.9C384.2,194.5,384.1,194.9,383.9,195.2z"/>
		<path class="st167" d="M385,195.5v-6h0.9v2.4h0.8v-2.4h0.9v6h-0.9v-2.8h-0.8v2.8H385z"/>
		<path class="st167" d="M388.6,195.5v-6h2v0.8h-1.1v1.8h1.1v0.8h-1.1v1.9h1.2v0.8L388.6,195.5L388.6,195.5z"/>
		<path class="st167" d="M392.6,192.7l-0.3,0v2.8h-0.9v-6h1.5c0.3,0,0.6,0.1,0.7,0.2s0.2,0.3,0.3,0.5c0.1,0.2,0.1,0.5,0.1,0.9
			s0,0.7-0.1,0.9s-0.2,0.3-0.4,0.4c0.2,0,0.3,0.2,0.4,0.4s0.1,0.8,0.1,1.5c0,0.8,0,1.2,0,1.2H393c0-0.1,0-0.8,0-2.2
			c0-0.3,0-0.4-0.1-0.5C392.9,192.8,392.8,192.7,392.6,192.7z M392.3,192h0.4c0.1,0,0.2,0,0.2-0.1c0,0,0.1-0.1,0.1-0.3
			c0-0.1,0-0.3,0-0.6v0c0-0.3,0-0.6-0.1-0.7c0-0.1-0.2-0.1-0.4-0.1h-0.3L392.3,192L392.3,192z"/>
		<path class="st167" d="M396,193.8v-0.6h0.9v0.6c0,0.3,0,0.6,0.1,0.7c0,0.1,0.2,0.2,0.3,0.2c0.2,0,0.2-0.1,0.3-0.2
			c0-0.1,0.1-0.3,0.1-0.6s-0.1-0.5-0.1-0.7c-0.1-0.2-0.2-0.4-0.4-0.6l-0.4-0.4c-0.2-0.2-0.4-0.5-0.5-0.7c-0.1-0.2-0.2-0.5-0.2-0.8
			c0-0.5,0.1-0.9,0.3-1.1c0.2-0.2,0.5-0.4,1-0.4s0.8,0.1,0.9,0.4c0.2,0.3,0.2,0.7,0.2,1.2v0.4h-0.8V191c0-0.3,0-0.5-0.1-0.6
			s-0.1-0.2-0.3-0.2c-0.2,0-0.2,0.1-0.3,0.2c-0.1,0.1-0.1,0.2-0.1,0.4c0,0.2,0,0.4,0.1,0.5c0.1,0.1,0.2,0.2,0.4,0.4l0.5,0.6
			c0.2,0.3,0.4,0.5,0.6,0.8c0.1,0.3,0.2,0.6,0.2,0.9c0,0.6-0.1,1-0.3,1.2c-0.2,0.3-0.5,0.4-1,0.4s-0.8-0.2-1-0.5
			C396.1,194.9,396,194.4,396,193.8z"/>
		<path class="st167" d="M399.9,195.5l-0.9-6h0.9l0.4,2.7l0.2,1.9h0l0.2-1.9l0.3-2.7h0.8l-0.8,6H399.9z"/>
		<path class="st167" d="M367,202.9c-0.2,0.3-0.6,0.4-1,0.4c-0.5,0-0.8-0.2-1.1-0.4c-0.2-0.3-0.3-0.7-0.3-1.3v-2.9
			c0-0.5,0.1-0.9,0.3-1.2c0.2-0.3,0.6-0.4,1.1-0.4c0.5,0,0.8,0.1,1,0.4c0.2,0.3,0.3,0.7,0.3,1.2v2.9
			C367.3,202.2,367.2,202.6,367,202.9z M365.9,202.6c0.1,0,0.2-0.1,0.3-0.2c0.1-0.1,0.1-0.3,0.1-0.7v-2.9c0-0.5-0.1-0.7-0.3-0.8
			c-0.1,0-0.1,0-0.2,0s-0.2,0.1-0.2,0.1c-0.1,0.1-0.1,0.3-0.1,0.6v3c0,0.4,0,0.6,0.1,0.7C365.6,202.5,365.8,202.6,365.9,202.6z"/>
		<path class="st167" d="M368.2,203.3v-0.3c0-0.3,0-0.6,0.1-0.9c0.1-0.3,0.3-0.6,0.5-1c0,0,0.1-0.2,0.2-0.4c0.1-0.3,0.3-0.4,0.4-0.6
			c0.2-0.3,0.3-0.7,0.3-1.2c0-0.5-0.1-0.8-0.3-0.8c-0.2,0-0.3,0.1-0.4,0.4c0,0.1,0,0.3,0,0.5v0.8h-0.9v-0.4c0-0.8,0.1-1.2,0.2-1.5
			c0.1-0.3,0.3-0.4,0.6-0.5c0.1,0,0.3,0,0.5,0c0.2,0,0.4,0,0.5,0.1c0.1,0.1,0.3,0.2,0.4,0.4c0.2,0.3,0.3,0.7,0.3,1.2
			s-0.1,0.9-0.3,1.3c-0.2,0.4-0.4,0.7-0.6,1c-0.3,0.5-0.5,1-0.6,1.4h1.4v0.7L368.2,203.3L368.2,203.3z"/>
		<path class="st167" d="M372.6,203.3v-6h1.4c0.5,0,0.8,0.1,1,0.4c0.2,0.2,0.3,0.7,0.3,1.2v2.7c0,0.6-0.1,1.1-0.3,1.4
			c-0.2,0.3-0.5,0.4-1,0.4L372.6,203.3L372.6,203.3z M373.5,202.6h0.3c0.2,0,0.3-0.1,0.4-0.2c0.1-0.1,0.1-0.3,0.1-0.6v-3
			c0-0.3,0-0.5-0.1-0.7c-0.1-0.1-0.2-0.2-0.4-0.2h-0.3V202.6z"/>
		<path class="st167" d="M378.4,203c-0.2,0.2-0.5,0.4-1,0.4s-0.8-0.1-1-0.4c-0.2-0.3-0.3-0.7-0.3-1.2v-4.5h0.9v4.5
			c0,0.3,0,0.5,0,0.6s0.1,0.1,0.1,0.2c0,0,0.1,0.1,0.2,0.1s0.2-0.1,0.3-0.1c0.1-0.1,0.1-0.2,0.1-0.3c0-0.1,0-0.3,0-0.4v-4.5h0.9v4.5
			C378.7,202.3,378.6,202.7,378.4,203z"/>
		<path class="st167" d="M379.6,203.3v-6h0.9v6H379.6z"/>
		<path class="st167" d="M381.4,201.6V201h0.9v0.6c0,0.3,0,0.6,0.1,0.7c0,0.1,0.2,0.2,0.3,0.2c0.2,0,0.2-0.1,0.3-0.2
			c0-0.1,0.1-0.3,0.1-0.6s-0.1-0.5-0.1-0.7c-0.1-0.2-0.2-0.4-0.4-0.6l-0.4-0.4c-0.2-0.2-0.4-0.5-0.5-0.7c-0.1-0.2-0.2-0.5-0.2-0.8
			c0-0.5,0.1-0.9,0.3-1.1c0.2-0.2,0.5-0.4,1-0.4s0.8,0.1,1,0.4c0.2,0.3,0.2,0.7,0.2,1.2v0.4H383v-0.4c0-0.3,0-0.5-0.1-0.6
			c0-0.1-0.1-0.2-0.3-0.2s-0.2,0.1-0.3,0.2c-0.1,0.1-0.1,0.2-0.1,0.4c0,0.2,0,0.4,0.1,0.5c0.1,0.1,0.2,0.2,0.4,0.4l0.5,0.6
			c0.2,0.3,0.4,0.5,0.6,0.8c0.1,0.3,0.2,0.6,0.2,0.9c0,0.6-0.1,1-0.3,1.2c-0.2,0.3-0.5,0.4-1,0.4s-0.8-0.2-1-0.5
			C381.4,202.6,381.4,202.2,381.4,201.6z"/>
		<path class="st167" d="M387.2,198.8c0,0.7-0.2,1.1-0.5,1.2c0.4,0.2,0.7,0.6,0.7,1.4v0.2c0,0.6-0.1,1-0.3,1.3
			c-0.2,0.3-0.5,0.4-1,0.4h-1.3v-6h1.3c0.5,0,0.8,0.1,1,0.3c0.2,0.2,0.3,0.5,0.3,1L387.2,198.8L387.2,198.8z M385.5,199.7h0.3
			c0.2,0,0.2-0.1,0.3-0.2c0-0.1,0.1-0.3,0.1-0.6v-0.4c0-0.2,0-0.4-0.1-0.5c-0.1-0.1-0.2-0.1-0.3-0.1h-0.3V199.7z M385.5,202.6h0.3
			c0.2,0,0.3-0.1,0.4-0.2c0.1-0.1,0.1-0.3,0.1-0.7v-0.5c0-0.3,0-0.5-0.1-0.6c0-0.1-0.2-0.2-0.4-0.2h-0.4L385.5,202.6L385.5,202.6z"
			/>
		<path class="st167" d="M390.3,203c-0.2,0.2-0.6,0.4-1,0.4c-0.5,0-0.8-0.1-1-0.4c-0.2-0.3-0.3-0.7-0.3-1.2v-4.5h0.9v4.5
			c0,0.3,0,0.5,0,0.6c0,0.1,0.1,0.1,0.1,0.2c0.1,0,0.1,0.1,0.2,0.1s0.2-0.1,0.3-0.1c0.1-0.1,0.1-0.2,0.1-0.3c0-0.1,0-0.3,0-0.4v-4.5
			h0.9v4.5C390.6,202.3,390.5,202.7,390.3,203z"/>
		<path class="st167" d="M392.7,200.5l-0.3,0v2.8h-0.9v-6h1.5c0.3,0,0.5,0.1,0.7,0.2s0.2,0.3,0.3,0.5c0,0.2,0.1,0.5,0.1,0.9
			s0,0.7-0.1,0.9c-0.1,0.2-0.2,0.3-0.4,0.4c0.2,0,0.4,0.2,0.4,0.4c0.1,0.2,0.1,0.8,0.1,1.5c0,0.8,0,1.2,0,1.2h-0.9
			c0-0.1,0-0.8,0-2.2c0-0.3,0-0.4-0.1-0.5C393,200.5,392.9,200.5,392.7,200.5z M392.4,199.7h0.4c0.1,0,0.2,0,0.2-0.1
			c0,0,0.1-0.1,0.1-0.3c0-0.1,0-0.3,0-0.6v0c0-0.3,0-0.6-0.1-0.7c0-0.1-0.2-0.1-0.4-0.1h-0.3L392.4,199.7L392.4,199.7z"/>
		<path class="st167" d="M396.1,203.4c-0.4,0-0.7-0.2-0.9-0.5c-0.2-0.3-0.3-0.8-0.3-1.4v-2.6c0-0.5,0.1-1,0.3-1.3s0.6-0.4,1-0.4
			c0.6,0,1,0.2,1.1,0.6c0.1,0.3,0.1,0.6,0.1,1.1v0.4h-0.8v-0.6c0-0.3,0-0.5-0.1-0.6s-0.2-0.2-0.3-0.2c-0.1,0-0.3,0.1-0.3,0.2
			c-0.1,0.1-0.1,0.4-0.1,0.7v2.6c0,0.4,0,0.7,0.1,0.8c0.1,0.2,0.2,0.2,0.3,0.2c0.2,0,0.3-0.1,0.4-0.2c0.1-0.2,0.1-0.4,0.1-0.8v-0.8
			h-0.5v-0.7h1.3v3.3h-0.4l-0.1-0.6c0,0.2-0.1,0.4-0.3,0.5C396.5,203.3,396.3,203.4,396.1,203.4z"/>
	</g>
	<g>
		<path class="st167" d="M386.7,174.9c-0.7-0.4-1.4-0.8-2-1.2c-0.5-0.3-0.7,0-0.7,0.5c0,2.3,0,5.2,0,7.5c0,1.8,0-0.9,0,0.8
			c0,0.4-0.1,0.7-0.3,0.7c-1.5-0.8-7.9-4.2-9.4-11.6c-0.1-0.5-0.7-0.2-1.2,0.1c-0.4,0.2-0.9,0.5-1.2,0.7c-0.2,0.1-0.6,0.4-0.4,1.6
			c0.3,1.1,2.9,9.5,12,12.8c0.6,0.2,1.3,0.5,2,0.6c0,0,0.1,0,0.1,0l0,0c0.3,0,0.5,0.1,0.8,0.1c0.7,0.1,0.9-0.1,0.9-0.8
			c0-4.9,0.1-6,0.1-10.9C387.2,175.5,387.1,175.1,386.7,174.9z"/>
		<path class="st167" d="M373.3,170.5c0.6-0.3,0.9-0.8,0.9-1.5c0-4,0-3.5-0.1-7.5c0-1.1,0.2-1.7,1.3-2.1c1.3-0.5,1.4-0.5,1.4,0.8
			c0,3.9,0,7.8,0,11.6c0,0.9,0.2,1,1,0.6c0.4-0.2,0.9-0.5,1.4-0.8c0.6-0.3,0.9-0.8,0.9-1.6c0-2.3,0-4.6,0-6.9c0-2.4,0-4.8,0-7.2
			c0-0.5-0.1-1-0.8-0.9c-2.1,0.3-4.1,0.8-6,1.8c-7.7,4.1-11,13.1-7.8,21.2c0.4,1,0.5,1.1,1.5,0.6c0.4-0.2,0.8-0.5,1.2-0.7
			c0.6-0.2,0.6-0.6,0.4-1.1c-0.9-2-1.1-4.1-1-6.2c0.2-2.6,1.1-4.9,2.6-7c0.1-0.2,0.2-0.4,0.5-0.3c0.3,0.1,0.2,0.3,0.2,0.5
			c0,0.6,0,1.3,0,1.9c0,3.2,0,1.8,0,5c0,0.9,0.2,1.1,0.9,0.6C372.3,171,372.8,170.7,373.3,170.5z"/>
		<path class="st167" d="M397.8,170.1c0-0.6-0.3-1-0.9-1.4c-3.2-1.8-6.9-4-10.2-5.8c-1.6-0.9-1.7-1.2-1.7-2.9c0-1.2,0.6-1.2,1.4-0.9
			c0.7,0.3,6.8,4.1,9.2,5.5c0.2,0.1,0.5,0.4,0.7,0.2c0.2-0.2,0-0.5-0.1-0.7c-1.3-2.6-3.2-4.8-5.7-6.4c-2.2-1.5-4.6-2.4-7.3-2.7
			c-0.9-0.1-1.1,0-1.1,0.8c0,2.4,0,4.8,0,7.2c0,0.6,0.2,1,0.8,1.3c3.5,2,6.8,4.1,10.3,5.9c1.1,0.6,1.7,1.3,1.4,2.6
			c0,0.1,0,0.2,0,0.2c0,1.1-0.3,1.2-1.2,0.7c-1.3-0.8-2.6-1.5-3.9-2.3c-1.3-0.8-2.6-1.5-4-2.3c-0.5-0.3-1-0.6-1.6-0.9
			c-0.5-0.3-1-0.9-1.5-0.6c-0.2,0.1-0.3,0.3-0.3,0.5c0,0.4,0,1.6,0,1.7c0,0.9,0.5,1.5,1.5,1.9c1,0.5,2,1.1,2.9,1.6
			c0.3,0.2,0.6,0.4,0.9,0.5c0.8,0.5,1.6,0.9,2.4,1.4c1.9,1.1,3.8,2.1,5.6,3.2c0.6,0.3,0.9,0.2,1.1-0.4c0.1-0.4,0.3-0.8,0.4-1.2
			C397.7,174.9,398,172.5,397.8,170.1z"/>
	</g>
</g>
</svg>
