<?xml version="1.0" encoding="utf-8"?>
<!-- Generator: Adobe Illustrator 17.0.0, SVG Export Plug-In . SVG Version: 6.00 Build 0)  -->
<!DOCTYPE svg PUBLIC "-//W3C//DTD SVG 1.1//EN" "http://www.w3.org/Graphics/SVG/1.1/DTD/svg11.dtd" [
	<!ENTITY ns_flows "http://ns.adobe.com/Flows/1.0/">
	<!ENTITY ns_extend "http://ns.adobe.com/Extensibility/1.0/">
	<!ENTITY ns_ai "http://ns.adobe.com/AdobeIllustrator/10.0/">
	<!ENTITY ns_graphs "http://ns.adobe.com/Graphs/1.0/">
]>
<svg version="1.1" id="Layer_1" xmlns:x="&ns_extend;" xmlns:i="&ns_ai;" xmlns:graph="&ns_graphs;"
	 xmlns="http://www.w3.org/2000/svg" xmlns:xlink="http://www.w3.org/1999/xlink" xmlns:a="http://ns.adobe.com/AdobeSVGViewerExtensions/3.0/"
	 x="0px" y="0px" width="600px" height="600px" viewBox="0 0 600 600" style="enable-background:new 0 0 600 600;"
	 xml:space="preserve">
<style type="text/css">
	.st0{fill:#000100;}
	.st1{fill:#E80040;stroke:#000000;stroke-miterlimit:10;}
	.st2{fill:#FCE200;stroke:#000000;stroke-miterlimit:10;}
	.st3{fill:#FEA63F;stroke:#000000;stroke-miterlimit:10;}
	.st4{fill:#FFFFFF;stroke:#000000;stroke-miterlimit:10;}
	.st5{fill:#FFFFFF;}
	.st6{fill:#7C0014;}
	.st7{fill:#75C255;stroke:#000000;stroke-miterlimit:10;}
	.st8{fill:#52B329;}
	.st9{fill:#52BCE0;stroke:#000000;stroke-miterlimit:10;}
	.st10{fill:#48ACD0;}
	.st11{fill:#028CBE;}
	.st12{fill:#52BCE0;}
	.st13{fill:#EFF0F9;stroke:#4E3B64;stroke-miterlimit:10;}
	.st14{fill:#1D5662;stroke:#000000;stroke-miterlimit:10;}
	.st15{fill:#1D5662;}
	.st16{fill:#054049;}
	.st17{fill:#037FC7;}
	.st18{fill:#9158B6;stroke:#000000;stroke-miterlimit:10;}
	.st19{fill:#752EA5;}
	.st20{fill:#2678C7;}
	.st21{fill:#FABFB6;stroke:#000000;stroke-miterlimit:10;}
	.st22{fill:#FABFB6;}
	.st23{fill:#FC8038;stroke:#FABFB6;stroke-miterlimit:10;}
	.st24{fill:#00A39B;}
	.st25{fill:#E53A3E;stroke:#000000;stroke-miterlimit:10;}
	.st26{fill:#E53A3E;}
	.st27{fill:#242424;stroke:#5C377E;stroke-miterlimit:10;}
	.st28{fill:#525252;stroke:#000000;stroke-miterlimit:10;}
	.st29{fill:#4998BB;}
	.st30{fill:#1A7F9E;}
	.st31{fill:#E58000;stroke:#000000;stroke-miterlimit:10;}
	.st32{fill:#BA7500;stroke:#000000;stroke-miterlimit:10;}
	.st33{fill:#DF961C;stroke:#000000;stroke-miterlimit:10;}
	.st34{fill:#DF961C;}
	.st35{fill:#EDF3F8;stroke:#000000;stroke-miterlimit:10;}
	.st36{fill:#DA7600;}
	.st37{fill:#C2BEC8;}
	.st38{fill:#000100;stroke:#FFFFFF;stroke-miterlimit:10;}
	.st39{fill:#A8F001;stroke:#000000;stroke-miterlimit:10;}
	.st40{fill:#0578CD;}
	.st41{fill:#1A58A5;}
	.st42{stroke:#625616;stroke-miterlimit:10;}
	.st43{adobe-knockout:true;}
	.st44{fill:none;stroke:#FFFFFF;stroke-width:3;stroke-miterlimit:10;adobe-knockout:false;}
	.st45{fill:#D71F26;stroke:#000000;stroke-miterlimit:10;}
	.st46{fill:#008183;}
	.st47{fill:#6FC266;}
	.st48{fill:#C4373C;}
	.st49{fill:#00CAB0;}
	.st50{fill:#FAAE1E;}
	.st51{fill:#EC153B;}
	.st52{fill:#00B296;}
	.st53{fill:#F2C958;stroke:#00CAB0;stroke-miterlimit:10;}
	.st54{fill:#FF354F;stroke:#000000;stroke-miterlimit:10;}
	.st55{fill:#0D36A7;stroke:#000000;stroke-miterlimit:10;}
	.st56{fill:#D2D7E2;stroke:#000000;stroke-miterlimit:10;}
	.st57{fill:#CA2B9D;stroke:#000000;stroke-miterlimit:10;}
	.st58{fill:#58006C;stroke:#000000;stroke-miterlimit:10;}
	.st59{fill:#C60021;}
	.st60{fill:#A30F81;}
	.st61{fill:#0159C0;stroke:#A0A0A0;stroke-miterlimit:10;}
	.st62{fill:#013390;}
	.st63{fill:#F08900;}
	.st64{fill:#D20129;}
	.st65{fill:#AD0000;}
	.st66{fill:#131E25;}
	.st67{fill:#DAD2D8;stroke:#000000;stroke-miterlimit:10;}
	.st68{fill:#0066B3;}
	.st69{fill:#969796;}
	.st70{fill:#E86271;}
	.st71{fill:url(#SVGID_1_);stroke:#000000;stroke-miterlimit:10;}
	.st72{fill:#5AB4D2;stroke:#000000;stroke-miterlimit:10;}
	.st73{fill:#5AB4D2;}
	.st74{fill:#FFFFFF;stroke:#5AB4D2;stroke-miterlimit:10;}
	.st75{fill:#073F98;stroke:#0453BC;stroke-miterlimit:10;}
	.st76{fill:#2762C9;stroke:#000000;stroke-miterlimit:10;}
	.st77{fill:#C252FF;}
	.st78{fill:url(#SVGID_2_);}
	.st79{fill:url(#SVGID_3_);}
	.st80{fill:#DAD2D8;}
	.st81{stroke:#000000;stroke-miterlimit:10;}
	.st82{fill:#05297D;stroke:#000000;stroke-miterlimit:10;}
	.st83{fill:#05297D;stroke:#FFFFFF;stroke-miterlimit:10;}
	.st84{fill:#A8A8B4;}
	.st85{fill:url(#SVGID_4_);stroke:#000000;stroke-miterlimit:10;}
	.st86{fill:#53536A;}
	.st87{fill:#073F98;}
	.st88{fill:#098FBC;}
	.st89{fill:url(#SVGID_5_);}
	.st90{fill:#F7A161;}
	.st91{fill:#FF0000;stroke:#000000;stroke-miterlimit:10;}
	.st92{fill:#F54849;stroke:#000000;stroke-miterlimit:10;}
	.st93{fill:url(#SVGID_6_);}
	.st94{fill:url(#SVGID_7_);}
	.st95{fill:#3A72B7;stroke:#000000;stroke-miterlimit:10;}
	.st96{fill:#96C4F0;stroke:#000000;stroke-miterlimit:10;}
	.st97{fill:#C50040;}
	.st98{fill:#D11E24;}
	.st99{fill:#E3E3E7;}
	.st100{stroke:#FFCF2B;stroke-miterlimit:10;}
	.st101{fill:none;stroke:#F9E42A;stroke-miterlimit:10;}
	.st102{fill:#F08900;stroke:#000000;stroke-miterlimit:10;}
	.st103{fill:#F28330;}
	.st104{fill:#FC8038;}
	.st105{fill:#5AB633;}
	.st106{fill:#553658;stroke:#75C255;stroke-miterlimit:10;}
	.st107{fill:#1853A6;}
	.st108{fill:#CB0000;}
	.st109{fill:#0F0D0E;}
	.st110{fill:#636363;}
	.st111{fill:#FFFFFF;stroke:#00A39B;stroke-miterlimit:10;}
	.st112{fill:#D71F26;}
	.st113{fill:#020000;}
	.st114{fill:none;stroke:#000000;stroke-width:0.5;stroke-miterlimit:10;}
	.st115{clip-path:url(#SVGID_9_);}
	.st116{clip-path:url(#SVGID_11_);}
	.st117{clip-path:url(#SVGID_13_);}
	.st118{clip-path:url(#SVGID_15_);}
	.st119{fill:#7A4A00;}
	.st120{fill:none;stroke:#1A7F9E;stroke-width:7;stroke-miterlimit:10;}
	.st121{fill:#E20227;stroke:#4998BB;stroke-miterlimit:10;}
	.st122{fill:#1F2427;}
	.st123{fill:#BA7500;}
	.st124{fill:none;stroke:#BA7500;stroke-width:7;stroke-miterlimit:10;}
	.st125{fill:#843D00;stroke:#000000;stroke-width:0.25;stroke-miterlimit:10;}
	.st126{stroke:#000000;stroke-width:0.25;stroke-miterlimit:10;}
	.st127{fill:#ECEEF3;stroke:#1A58A5;stroke-miterlimit:10;}
	.st128{fill:#233194;}
	.st129{fill:#E0DFE3;}
	.st130{fill:#C2BEC8;stroke:#000000;stroke-miterlimit:10;}
	.st131{fill:#233194;stroke:#000000;stroke-miterlimit:10;}
	.st132{fill:#A40100;}
	.st133{adobe-knockout:false;}
	.st134{fill:#A0AAC1;}
	.st135{fill:#A40100;stroke:#000000;stroke-miterlimit:10;}
	.st136{fill:#92F0D6;}
	.st137{fill:#F2C958;}
	.st138{fill:#CA2B9D;stroke:#CA2B9D;stroke-miterlimit:10;}
	.st139{fill:#A30F81;stroke:#000000;stroke-miterlimit:10;}
	.st140{fill:#7E2B42;}
	.st141{fill:#0D36A7;}
	.st142{fill:#EE1C24;}
	.st143{fill:#0159C0;}
	.st144{stroke:#A0A0A0;stroke-miterlimit:10;}
	.st145{stroke:#4E3B64;stroke-miterlimit:10;}
	.st146{fill:#FDEA00;stroke:#000000;stroke-width:0.217;}
	.st147{fill:#FDEA00;stroke:#000000;stroke-width:0.2326;}
	.st148{fill:#1D1D1B;}
	.st149{fill:#FF0000;}
	.st150{fill:none;stroke:#0453BC;stroke-width:25.435;stroke-miterlimit:10;adobe-knockout:false;}
	.st151{fill:none;stroke:#0453BC;stroke-width:25.4353;stroke-linecap:round;stroke-miterlimit:10;adobe-knockout:false;}
	.st152{fill:#CAC5C0;}
	.st153{fill:#2762C9;}
	.st154{fill:#C252FF;stroke:#000000;stroke-miterlimit:10;}
	.st155{fill:#A54B2D;stroke:#000000;stroke-miterlimit:10;}
	.st156{fill:#A54B2D;}
	.st157{stroke:#A54B2D;stroke-miterlimit:10;}
	.st158{fill:#823311;}
	.st159{fill:none;}
	.st160{fill:#05297D;}
	.st161{fill:none;stroke:#FF7F35;stroke-width:6;stroke-miterlimit:10;}
	.st162{fill:#031DFF;stroke:#000000;stroke-miterlimit:10;}
	.st163{fill:#0370FF;stroke:#000000;stroke-miterlimit:10;}
	.st164{fill:#031DC4;}
	.st165{fill:none;stroke:#0080CA;stroke-width:6;stroke-miterlimit:10;}
	.st166{fill:#031DFF;stroke:#FFFFFF;stroke-miterlimit:10;}
	.st167{fill:#0263B0;}
	.st168{fill:none;stroke:#FFFFFF;stroke-width:2;stroke-miterlimit:10;}
	.st169{fill:url(#SVGID_16_);stroke:#FFFFFF;stroke-miterlimit:10;}
	.st170{fill:url(#SVGID_17_);}
	.st171{fill:url(#SVGID_18_);}
	.st172{fill:url(#SVGID_19_);}
	.st173{fill:#693B0F;stroke:#000000;stroke-miterlimit:10;}
	.st174{fill:#3E4E70;}
	.st175{fill:#F7CE02;}
	.st176{fill:#0551E1;stroke:#000000;stroke-miterlimit:10;}
	.st177{fill:#EC153B;stroke:#000000;stroke-miterlimit:10;}
	.st178{fill:#0831FD;}
	.st179{fill:#0870FD;}
	.st180{fill:none;stroke:#9F3D44;stroke-width:3;stroke-miterlimit:10;}
</style>
<path class="st81" d="M6.1,342.8C40.7,232.2,21.2,187.2,67.7,94.2c10.5-21,71.9-57.8,135.8-73.2c0,0,109.7-25.5,180.5-3.5
	s140.3,53.3,151.9,80c35.7,82.1,31.2,191.6,59.7,243.7c-12.5,1.2-81.3,14.4-109.3,19.7c-2.4-7.3-13.4-60-13.4-60s3.2,248,3.2,270
	c-0.2,19-92.8,24-180.8,24s-167.5-10-167.5-26.9c0-16.8,1.1-262.1,1.1-262.1s-3.3,23.3-8.3,56.1C91.3,361.9,16.4,344,6.1,342.8z"/>
<path class="st82" d="M229,43.9c0,0-75.9,11.1-114.8,50C173.5,75.4,262.3,68,262.3,68L229,43.9z"/>
<path class="st82" d="M377.5,42.9c0,0,79.2,12.1,118.1,51C436.4,75.4,347.5,68,347.5,68L377.5,42.9z"/>
<g>
	<g>
		<path d="M231.5,28.7C244.3,46,266,62.5,302.1,62.5c36.2,0,56.3-16.8,67.4-34.5C339.2,31.1,263.9,30.8,231.5,28.7z"/>
		<path class="st83" d="M372.1,1c-17.6,5.3-142.2,2.9-148.6,0.6c-0.1,0.3-0.3,0.7-0.5,1.1c2.2,7.1,6.3,17.5,13.7,27.5
			c29.5,1.9,97.9,2.2,125.6-0.6c6.2-9.9,9.4-20.2,10.9-27.3C372.8,1.8,372.4,1.4,372.1,1z"/>
	</g>
	<path class="st83" d="M373.2,2.3c-4.1,18.7-19,58.7-72.2,58.7c-53.9,0-72.4-40.1-78-58.3c-2.9,5.3-15.1,16-15.1,16
		s15.6,61.7,91.1,61.7c76.5,0,86.6-58.7,87.7-63.1C384.6,16.4,377.4,6.9,373.2,2.3z"/>
</g>
<g>
	<path class="st84" d="M75.1,86.2c-0.9-0.2-1.4-0.3-1.4-0.3C74.2,86,74.7,86.1,75.1,86.2z"/>
	<path class="st84" d="M475.7,564.5c0,0.4,0,0.5,0,0.5C475.7,564.4,475.7,564.3,475.7,564.5z"/>
	<path class="st84" d="M528.8,89.1c0.5,0,0.9-0.1,1.4-0.1C530.2,89,529.7,89,528.8,89.1z"/>
</g>
<g class="st43">
	<line class="st44" x1="127" y1="144.5" x2="475" y2="144.5"/>
	<line class="st44" x1="132" y1="170.5" x2="470" y2="170.5"/>
	<line class="st44" x1="133" y1="195.5" x2="468" y2="195.5"/>
	<line class="st44" x1="135.9" y1="221.5" x2="464.8" y2="223.2"/>
	<line class="st44" x1="135" y1="246.5" x2="466" y2="246.5"/>
	<line class="st44" x1="137" y1="272.5" x2="470" y2="272.5"/>
	<line class="st44" x1="135" y1="297.5" x2="469" y2="297.5"/>
	<line class="st44" x1="131" y1="323.5" x2="469" y2="323.5"/>
	<line class="st44" x1="131" y1="348.5" x2="473" y2="348.5"/>
	<line class="st44" x1="132" y1="374.5" x2="472" y2="374.5"/>
	<line class="st44" x1="132" y1="399.5" x2="470" y2="399.5"/>
	<line class="st44" x1="133" y1="425.5" x2="470" y2="425.5"/>
	<line class="st44" x1="135" y1="450.5" x2="470" y2="450.5"/>
	<line class="st44" x1="132" y1="476.5" x2="470" y2="476.5"/>
	<line class="st44" x1="132" y1="502.5" x2="470" y2="502.5"/>
	<line class="st44" x1="132" y1="528.5" x2="470" y2="528.5"/>
	<line class="st44" x1="132" y1="554.5" x2="470" y2="554.5"/>
	<line class="st44" x1="132" y1="580.5" x2="470" y2="580.5"/>
</g>
<path class="st84" d="M75.1,86.2c6.5,1.6,34.1,11.4,48.8,66.7c1.2-1.4,2.5-2.7,3.8-3.9C118.6,116.2,102.9,91.8,75.1,86.2z"/>
<path class="st84" d="M130,306.2c0,0-0.2,1.3-0.5,3.8c-0.9,163.3-1,249.7-1.1,251.8c0,3.2-0.6,7.5,0.8,9.2c0.7,1.1,1.7,2.3,3.4,3.5
	c4.7,3.4,13.4,6.6,25.2,9.1c-14.2-11.6-10.9-42.8-9.8-72.1c0.2-5.9-0.6-13.2-1.9-22c-6.4-4.1-12-8.2-16.9-12.1
	C129.6,401.5,130,306.2,130,306.2z"/>
<path class="st84" d="M145,312c6.8-33.6-5.5-74.9-6-84c-1.7-28-4.8-55.7-11.3-79.1c-1.3,1.3-2.5,2.6-3.8,3.9
	c8.7,32.6,12.9,81.1,5.5,153.1c0,1.4,0,2.7,0,4.1c0.4-2.4,0.5-3.8,0.5-3.8s-0.4,95.2-0.8,171.1c4.9,3.9,10.5,8,16.9,12.1
	C140.9,454.2,128.2,395.3,145,312z"/>
<path class="st84" d="M456,514.5c1.1,29.4,4.2,59.5-10,71.2c11.8-2.4,20.4-4.9,25.1-8.2c1.7-1.2,2.9-2.3,3.6-3.4
	c0.3-0.3,0.9-1.6,0.9-2.9c0-2.8,0-6.1,0-6.7c-0.1-6.1-0.8-67-2.1-171.9c-1.8,3.7-3.9,7.6-6.3,11.8
	C466.4,458.1,455.2,494.7,456,514.5z"/>
<path class="st84" d="M528.8,89.1c-25.3,2.3-42.1,22.6-52.8,51.6c1.3,1.5,2.6,3,3.9,4.6C495.4,96.3,522.3,89.9,528.8,89.1z"/>
<path class="st84" d="M479.9,145.3c-1.3-1.6-2.7-3.2-3.9-4.6c-8.6,23.3-13.2,52.2-15,82c-0.5,9.1-8.8,58.8-2,92.4
	c6.8,33.7,8.8,63.5,8.3,89.3c2.4-4.1,4.5-8.1,6.3-11.8c-0.3-27.7-0.7-58.5-1.1-92.1C464.8,225.1,470.1,176.5,479.9,145.3z"/>
<g>
	<g>
		<g>
			<path class="st5" d="M381.1,211.3c-16.8,0-30.4-13.6-30.4-30.3s13.6-30.4,30.4-30.4s30.4,13.6,30.4,30.4S397.8,211.3,381.1,211.3
				z"/>
			<path class="st167" d="M381.1,151.7c7.8,0,15.1,3.1,20.6,8.6s8.5,12.9,8.5,20.7s-3,15.1-8.5,20.6s-12.9,8.6-20.6,8.6
				c-7.8,0-15.1-3.1-20.6-8.6s-8.6-12.8-8.6-20.6s3-15.1,8.5-20.6S373.3,151.7,381.1,151.7 M381.1,149.4
				c-17.4,0-31.5,14.1-31.5,31.5s14.1,31.5,31.5,31.5s31.5-14.1,31.5-31.5S398.5,149.4,381.1,149.4L381.1,149.4z"/>
		</g>
	</g>
	<g>
		<path class="st167" d="M360.5,195.5v-6h1.1l0.9,4.4l0.8-4.4h1.1v6h-0.8v-2.2l0-2.1l-0.8,4.3h-0.7l-0.8-4.3l0,2.1v2.2L360.5,195.5
			L360.5,195.5z"/>
		<path class="st167" d="M365.4,195.5v-6h2v0.8h-1.1v1.8h1v0.8h-1v1.9h1.1v0.8L365.4,195.5L365.4,195.5z"/>
		<path class="st167" d="M368.2,195.5v-6h0.9v6H368.2z"/>
		<path class="st167" d="M370.1,195.5v-6h1.4c0.4,0,0.8,0.1,1,0.4c0.2,0.2,0.3,0.7,0.3,1.2v2.7c0,0.6-0.1,1.1-0.3,1.4
			c-0.2,0.3-0.5,0.4-1,0.4L370.1,195.5L370.1,195.5z M371,194.8h0.3c0.2,0,0.3-0.1,0.4-0.2c0.1-0.1,0.1-0.3,0.1-0.6v-3
			c0-0.3-0.1-0.5-0.1-0.7c-0.1-0.1-0.2-0.2-0.4-0.2H371V194.8z"/>
		<path class="st167" d="M373.5,195.5v-6h2v0.8h-1.1v1.8h1v0.8h-1v1.9h1.1v0.8L373.5,195.5L373.5,195.5z"/>
		<path class="st167" d="M377.5,192.7l-0.3,0v2.8h-0.9v-6h1.5c0.3,0,0.5,0.1,0.7,0.2c0.1,0.1,0.2,0.3,0.3,0.5c0,0.2,0.1,0.5,0.1,0.9
			s-0.1,0.7-0.1,0.9c-0.1,0.2-0.2,0.3-0.4,0.4c0.2,0,0.4,0.2,0.4,0.4c0.1,0.2,0.1,0.8,0.1,1.5c0,0.8,0,1.2,0,1.2h-0.9
			c0-0.1,0-0.8,0-2.2c0-0.3,0-0.4-0.1-0.5C377.9,192.8,377.7,192.7,377.5,192.7z M377.3,192h0.4c0.1,0,0.2,0,0.2-0.1
			c0.1,0,0.1-0.1,0.1-0.3c0-0.1,0-0.3,0-0.6v0c0-0.3,0-0.6-0.1-0.7c0-0.1-0.2-0.1-0.4-0.1h-0.3L377.3,192L377.3,192z"/>
		<path class="st167" d="M379.8,195.5v-6h0.9v6H379.8z"/>
		<path class="st167" d="M383.9,195.2c-0.2,0.3-0.5,0.4-1,0.4c-0.4,0-0.8-0.2-1-0.5c-0.2-0.3-0.3-0.7-0.3-1.3v-2.6
			c0-0.9,0.2-1.5,0.7-1.7c0.2-0.1,0.4-0.1,0.6-0.1c0.9,0,1.3,0.5,1.3,1.6v0.8h-0.9v-0.8c0-0.3,0-0.5-0.1-0.7c0-0.1-0.1-0.2-0.3-0.2
			s-0.2,0.1-0.3,0.2c-0.1,0.1-0.1,0.3-0.1,0.6v2.8c0,0.3,0,0.6,0.1,0.7c0.1,0.1,0.2,0.2,0.3,0.2s0.2-0.1,0.3-0.2
			c0-0.2,0.1-0.4,0.1-0.7V193h0.9v0.9C384.2,194.5,384.1,194.9,383.9,195.2z"/>
		<path class="st167" d="M385,195.5v-6h0.9v2.4h0.8v-2.4h0.9v6h-0.9v-2.8h-0.8v2.8H385z"/>
		<path class="st167" d="M388.6,195.5v-6h2v0.8h-1.1v1.8h1.1v0.8h-1.1v1.9h1.2v0.8L388.6,195.5L388.6,195.5z"/>
		<path class="st167" d="M392.6,192.7l-0.3,0v2.8h-0.9v-6h1.5c0.3,0,0.6,0.1,0.7,0.2s0.2,0.3,0.3,0.5c0.1,0.2,0.1,0.5,0.1,0.9
			s0,0.7-0.1,0.9s-0.2,0.3-0.4,0.4c0.2,0,0.3,0.2,0.4,0.4s0.1,0.8,0.1,1.5c0,0.8,0,1.2,0,1.2H393c0-0.1,0-0.8,0-2.2
			c0-0.3,0-0.4-0.1-0.5C392.9,192.8,392.8,192.7,392.6,192.7z M392.3,192h0.4c0.1,0,0.2,0,0.2-0.1c0,0,0.1-0.1,0.1-0.3
			c0-0.1,0-0.3,0-0.6v0c0-0.3,0-0.6-0.1-0.7c0-0.1-0.2-0.1-0.4-0.1h-0.3L392.3,192L392.3,192z"/>
		<path class="st167" d="M396,193.8v-0.6h0.9v0.6c0,0.3,0,0.6,0.1,0.7c0,0.1,0.2,0.2,0.3,0.2c0.2,0,0.2-0.1,0.3-0.2
			c0-0.1,0.1-0.3,0.1-0.6s-0.1-0.5-0.1-0.7c-0.1-0.2-0.2-0.4-0.4-0.6l-0.4-0.4c-0.2-0.2-0.4-0.5-0.5-0.7c-0.1-0.2-0.2-0.5-0.2-0.8
			c0-0.5,0.1-0.9,0.3-1.1c0.2-0.2,0.5-0.4,1-0.4s0.8,0.1,0.9,0.4c0.2,0.3,0.2,0.7,0.2,1.2v0.4h-0.8V191c0-0.3,0-0.5-0.1-0.6
			s-0.1-0.2-0.3-0.2c-0.2,0-0.2,0.1-0.3,0.2c-0.1,0.1-0.1,0.2-0.1,0.4c0,0.2,0,0.4,0.1,0.5c0.1,0.1,0.2,0.2,0.4,0.4l0.5,0.6
			c0.2,0.3,0.4,0.5,0.6,0.8c0.1,0.3,0.2,0.6,0.2,0.9c0,0.6-0.1,1-0.3,1.2c-0.2,0.3-0.5,0.4-1,0.4s-0.8-0.2-1-0.5
			C396.1,194.9,396,194.4,396,193.8z"/>
		<path class="st167" d="M399.9,195.5l-0.9-6h0.9l0.4,2.7l0.2,1.9h0l0.2-1.9l0.3-2.7h0.8l-0.8,6H399.9z"/>
		<path class="st167" d="M367,202.9c-0.2,0.3-0.6,0.4-1,0.4c-0.5,0-0.8-0.2-1.1-0.4c-0.2-0.3-0.3-0.7-0.3-1.3v-2.9
			c0-0.5,0.1-0.9,0.3-1.2c0.2-0.3,0.6-0.4,1.1-0.4c0.5,0,0.8,0.1,1,0.4c0.2,0.3,0.3,0.7,0.3,1.2v2.9
			C367.3,202.2,367.2,202.6,367,202.9z M365.9,202.6c0.1,0,0.2-0.1,0.3-0.2c0.1-0.1,0.1-0.3,0.1-0.7v-2.9c0-0.5-0.1-0.7-0.3-0.8
			c-0.1,0-0.1,0-0.2,0s-0.2,0.1-0.2,0.1c-0.1,0.1-0.1,0.3-0.1,0.6v3c0,0.4,0,0.6,0.1,0.7C365.6,202.5,365.8,202.6,365.9,202.6z"/>
		<path class="st167" d="M368.2,203.3v-0.3c0-0.3,0-0.6,0.1-0.9c0.1-0.3,0.3-0.6,0.5-1c0,0,0.1-0.2,0.2-0.4c0.1-0.3,0.3-0.4,0.4-0.6
			c0.2-0.3,0.3-0.7,0.3-1.2c0-0.5-0.1-0.8-0.3-0.8c-0.2,0-0.3,0.1-0.4,0.4c0,0.1,0,0.3,0,0.5v0.8h-0.9v-0.4c0-0.8,0.1-1.2,0.2-1.5
			c0.1-0.3,0.3-0.4,0.6-0.5c0.1,0,0.3,0,0.5,0c0.2,0,0.4,0,0.5,0.1c0.1,0.1,0.3,0.2,0.4,0.4c0.2,0.3,0.3,0.7,0.3,1.2
			s-0.1,0.9-0.3,1.3c-0.2,0.4-0.4,0.7-0.6,1c-0.3,0.5-0.5,1-0.6,1.4h1.4v0.7L368.2,203.3L368.2,203.3z"/>
		<path class="st167" d="M372.6,203.3v-6h1.4c0.5,0,0.8,0.1,1,0.4c0.2,0.2,0.3,0.7,0.3,1.2v2.7c0,0.6-0.1,1.1-0.3,1.4
			c-0.2,0.3-0.5,0.4-1,0.4L372.6,203.3L372.6,203.3z M373.5,202.6h0.3c0.2,0,0.3-0.1,0.4-0.2c0.1-0.1,0.1-0.3,0.1-0.6v-3
			c0-0.3,0-0.5-0.1-0.7c-0.1-0.1-0.2-0.2-0.4-0.2h-0.3V202.6z"/>
		<path class="st167" d="M378.4,203c-0.2,0.2-0.5,0.4-1,0.4s-0.8-0.1-1-0.4c-0.2-0.3-0.3-0.7-0.3-1.2v-4.5h0.9v4.5
			c0,0.3,0,0.5,0,0.6s0.1,0.1,0.1,0.2c0,0,0.1,0.1,0.2,0.1s0.2-0.1,0.3-0.1c0.1-0.1,0.1-0.2,0.1-0.3c0-0.1,0-0.3,0-0.4v-4.5h0.9v4.5
			C378.7,202.3,378.6,202.7,378.4,203z"/>
		<path class="st167" d="M379.6,203.3v-6h0.9v6H379.6z"/>
		<path class="st167" d="M381.4,201.6V201h0.9v0.6c0,0.3,0,0.6,0.1,0.7c0,0.1,0.2,0.2,0.3,0.2c0.2,0,0.2-0.1,0.3-0.2
			c0-0.1,0.1-0.3,0.1-0.6s-0.1-0.5-0.1-0.7c-0.1-0.2-0.2-0.4-0.4-0.6l-0.4-0.4c-0.2-0.2-0.4-0.5-0.5-0.7c-0.1-0.2-0.2-0.5-0.2-0.8
			c0-0.5,0.1-0.9,0.3-1.1c0.2-0.2,0.5-0.4,1-0.4s0.8,0.1,1,0.4c0.2,0.3,0.2,0.7,0.2,1.2v0.4H383v-0.4c0-0.3,0-0.5-0.1-0.6
			c0-0.1-0.1-0.2-0.3-0.2s-0.2,0.1-0.3,0.2c-0.1,0.1-0.1,0.2-0.1,0.4c0,0.2,0,0.4,0.1,0.5c0.1,0.1,0.2,0.2,0.4,0.4l0.5,0.6
			c0.2,0.3,0.4,0.5,0.6,0.8c0.1,0.3,0.2,0.6,0.2,0.9c0,0.6-0.1,1-0.3,1.2c-0.2,0.3-0.5,0.4-1,0.4s-0.8-0.2-1-0.5
			C381.4,202.6,381.4,202.2,381.4,201.6z"/>
		<path class="st167" d="M387.2,198.8c0,0.7-0.2,1.1-0.5,1.2c0.4,0.2,0.7,0.6,0.7,1.4v0.2c0,0.6-0.1,1-0.3,1.3
			c-0.2,0.3-0.5,0.4-1,0.4h-1.3v-6h1.3c0.5,0,0.8,0.1,1,0.3c0.2,0.2,0.3,0.5,0.3,1L387.2,198.8L387.2,198.8z M385.5,199.7h0.3
			c0.2,0,0.2-0.1,0.3-0.2c0-0.1,0.1-0.3,0.1-0.6v-0.4c0-0.2,0-0.4-0.1-0.5c-0.1-0.1-0.2-0.1-0.3-0.1h-0.3V199.7z M385.5,202.6h0.3
			c0.2,0,0.3-0.1,0.4-0.2c0.1-0.1,0.1-0.3,0.1-0.7v-0.5c0-0.3,0-0.5-0.1-0.6c0-0.1-0.2-0.2-0.4-0.2h-0.4L385.5,202.6L385.5,202.6z"
			/>
		<path class="st167" d="M390.3,203c-0.2,0.2-0.6,0.4-1,0.4c-0.5,0-0.8-0.1-1-0.4c-0.2-0.3-0.3-0.7-0.3-1.2v-4.5h0.9v4.5
			c0,0.3,0,0.5,0,0.6c0,0.1,0.1,0.1,0.1,0.2c0.1,0,0.1,0.1,0.2,0.1s0.2-0.1,0.3-0.1c0.1-0.1,0.1-0.2,0.1-0.3c0-0.1,0-0.3,0-0.4v-4.5
			h0.9v4.5C390.6,202.3,390.5,202.7,390.3,203z"/>
		<path class="st167" d="M392.7,200.5l-0.3,0v2.8h-0.9v-6h1.5c0.3,0,0.5,0.1,0.7,0.2s0.2,0.3,0.3,0.5c0,0.2,0.1,0.5,0.1,0.9
			s0,0.7-0.1,0.9c-0.1,0.2-0.2,0.3-0.4,0.4c0.2,0,0.4,0.2,0.4,0.4c0.1,0.2,0.1,0.8,0.1,1.5c0,0.8,0,1.2,0,1.2h-0.9
			c0-0.1,0-0.8,0-2.2c0-0.3,0-0.4-0.1-0.5C393,200.5,392.9,200.5,392.7,200.5z M392.4,199.7h0.4c0.1,0,0.2,0,0.2-0.1
			c0,0,0.1-0.1,0.1-0.3c0-0.1,0-0.3,0-0.6v0c0-0.3,0-0.6-0.1-0.7c0-0.1-0.2-0.1-0.4-0.1h-0.3L392.4,199.7L392.4,199.7z"/>
		<path class="st167" d="M396.1,203.4c-0.4,0-0.7-0.2-0.9-0.5c-0.2-0.3-0.3-0.8-0.3-1.4v-2.6c0-0.5,0.1-1,0.3-1.3s0.6-0.4,1-0.4
			c0.6,0,1,0.2,1.1,0.6c0.1,0.3,0.1,0.6,0.1,1.1v0.4h-0.8v-0.6c0-0.3,0-0.5-0.1-0.6s-0.2-0.2-0.3-0.2c-0.1,0-0.3,0.1-0.3,0.2
			c-0.1,0.1-0.1,0.4-0.1,0.7v2.6c0,0.4,0,0.7,0.1,0.8c0.1,0.2,0.2,0.2,0.3,0.2c0.2,0,0.3-0.1,0.4-0.2c0.1-0.2,0.1-0.4,0.1-0.8v-0.8
			h-0.5v-0.7h1.3v3.3h-0.4l-0.1-0.6c0,0.2-0.1,0.4-0.3,0.5C396.5,203.3,396.3,203.4,396.1,203.4z"/>
	</g>
	<g>
		<path class="st167" d="M386.7,174.9c-0.7-0.4-1.4-0.8-2-1.2c-0.5-0.3-0.7,0-0.7,0.5c0,2.3,0,5.2,0,7.5c0,1.8,0-0.9,0,0.8
			c0,0.4-0.1,0.7-0.3,0.7c-1.5-0.8-7.9-4.2-9.4-11.6c-0.1-0.5-0.7-0.2-1.2,0.1c-0.4,0.2-0.9,0.5-1.2,0.7c-0.2,0.1-0.6,0.4-0.4,1.6
			c0.3,1.1,2.9,9.5,12,12.8c0.6,0.2,1.3,0.5,2,0.6c0,0,0.1,0,0.1,0l0,0c0.3,0,0.5,0.1,0.8,0.1c0.7,0.1,0.9-0.1,0.9-0.8
			c0-4.9,0.1-6,0.1-10.9C387.2,175.5,387.1,175.1,386.7,174.9z"/>
		<path class="st167" d="M373.3,170.5c0.6-0.3,0.9-0.8,0.9-1.5c0-4,0-3.5-0.1-7.5c0-1.1,0.2-1.7,1.3-2.1c1.3-0.5,1.4-0.5,1.4,0.8
			c0,3.9,0,7.8,0,11.6c0,0.9,0.2,1,1,0.6c0.4-0.2,0.9-0.5,1.4-0.8c0.6-0.3,0.9-0.8,0.9-1.6c0-2.3,0-4.6,0-6.9c0-2.4,0-4.8,0-7.2
			c0-0.5-0.1-1-0.8-0.9c-2.1,0.3-4.1,0.8-6,1.8c-7.7,4.1-11,13.1-7.8,21.2c0.4,1,0.5,1.1,1.5,0.6c0.4-0.2,0.8-0.5,1.2-0.7
			c0.6-0.2,0.6-0.6,0.4-1.1c-0.9-2-1.1-4.1-1-6.2c0.2-2.6,1.1-4.9,2.6-7c0.1-0.2,0.2-0.4,0.5-0.3c0.3,0.1,0.2,0.3,0.2,0.5
			c0,0.6,0,1.3,0,1.9c0,3.2,0,1.8,0,5c0,0.9,0.2,1.1,0.9,0.6C372.3,171,372.8,170.7,373.3,170.5z"/>
		<path class="st167" d="M397.8,170.1c0-0.6-0.3-1-0.9-1.4c-3.2-1.8-6.9-4-10.2-5.8c-1.6-0.9-1.7-1.2-1.7-2.9c0-1.2,0.6-1.2,1.4-0.9
			c0.7,0.3,6.8,4.1,9.2,5.5c0.2,0.1,0.5,0.4,0.7,0.2c0.2-0.2,0-0.5-0.1-0.7c-1.3-2.6-3.2-4.8-5.7-6.4c-2.2-1.5-4.6-2.4-7.3-2.7
			c-0.9-0.1-1.1,0-1.1,0.8c0,2.4,0,4.8,0,7.2c0,0.6,0.2,1,0.8,1.3c3.5,2,6.8,4.1,10.3,5.9c1.1,0.6,1.7,1.3,1.4,2.6
			c0,0.1,0,0.2,0,0.2c0,1.1-0.3,1.2-1.2,0.7c-1.3-0.8-2.6-1.5-3.9-2.3c-1.3-0.8-2.6-1.5-4-2.3c-0.5-0.3-1-0.6-1.6-0.9
			c-0.5-0.3-1-0.9-1.5-0.6c-0.2,0.1-0.3,0.3-0.3,0.5c0,0.4,0,1.6,0,1.7c0,0.9,0.5,1.5,1.5,1.9c1,0.5,2,1.1,2.9,1.6
			c0.3,0.2,0.6,0.4,0.9,0.5c0.8,0.5,1.6,0.9,2.4,1.4c1.9,1.1,3.8,2.1,5.6,3.2c0.6,0.3,0.9,0.2,1.1-0.4c0.1-0.4,0.3-0.8,0.4-1.2
			C397.7,174.9,398,172.5,397.8,170.1z"/>
	</g>
</g>
</svg>
