<?xml version="1.0" encoding="utf-8"?>
<!-- Generator: Adobe Illustrator 17.0.0, SVG Export Plug-In . SVG Version: 6.00 Build 0)  -->
<!DOCTYPE svg PUBLIC "-//W3C//DTD SVG 1.1//EN" "http://www.w3.org/Graphics/SVG/1.1/DTD/svg11.dtd" [
	<!ENTITY ns_flows "http://ns.adobe.com/Flows/1.0/">
	<!ENTITY ns_extend "http://ns.adobe.com/Extensibility/1.0/">
	<!ENTITY ns_ai "http://ns.adobe.com/AdobeIllustrator/10.0/">
	<!ENTITY ns_graphs "http://ns.adobe.com/Graphs/1.0/">
]>
<svg version="1.1" id="Layer_1" xmlns:x="&ns_extend;" xmlns:i="&ns_ai;" xmlns:graph="&ns_graphs;"
	 xmlns="http://www.w3.org/2000/svg" xmlns:xlink="http://www.w3.org/1999/xlink" xmlns:a="http://ns.adobe.com/AdobeSVGViewerExtensions/3.0/"
	 x="0px" y="0px" width="600px" height="600px" viewBox="0 0 600 600" style="enable-background:new 0 0 600 600;"
	 xml:space="preserve">
<style type="text/css">
	.st0{fill:#000100;}
	.st1{fill:#E80040;stroke:#000000;stroke-miterlimit:10;}
	.st2{fill:#FCE200;stroke:#000000;stroke-miterlimit:10;}
	.st3{fill:#FEA63F;stroke:#000000;stroke-miterlimit:10;}
	.st4{fill:#FFFFFF;stroke:#000000;stroke-miterlimit:10;}
	.st5{fill:#FFFFFF;}
	.st6{fill:#7C0014;}
	.st7{fill:#75C255;stroke:#000000;stroke-miterlimit:10;}
	.st8{fill:#52B329;}
	.st9{fill:#52BCE0;stroke:#000000;stroke-miterlimit:10;}
	.st10{fill:#48ACD0;}
	.st11{fill:#028CBE;}
	.st12{fill:#52BCE0;}
	.st13{fill:#EFF0F9;stroke:#4E3B64;stroke-miterlimit:10;}
	.st14{fill:#1D5662;stroke:#000000;stroke-miterlimit:10;}
	.st15{fill:#1D5662;}
	.st16{fill:#054049;}
	.st17{fill:#037FC7;}
	.st18{fill:#9158B6;stroke:#000000;stroke-miterlimit:10;}
	.st19{fill:#752EA5;}
	.st20{fill:#2678C7;}
	.st21{fill:#FABFB6;stroke:#000000;stroke-miterlimit:10;}
	.st22{fill:#FABFB6;}
	.st23{fill:#FC8038;stroke:#FABFB6;stroke-miterlimit:10;}
	.st24{fill:#00A39B;}
	.st25{fill:#E53A3E;stroke:#000000;stroke-miterlimit:10;}
	.st26{fill:#E53A3E;}
	.st27{fill:#242424;stroke:#5C377E;stroke-miterlimit:10;}
	.st28{fill:#525252;stroke:#000000;stroke-miterlimit:10;}
	.st29{fill:#4998BB;}
	.st30{fill:#1A7F9E;}
	.st31{fill:#E58000;stroke:#000000;stroke-miterlimit:10;}
	.st32{fill:#BA7500;stroke:#000000;stroke-miterlimit:10;}
	.st33{fill:#DF961C;stroke:#000000;stroke-miterlimit:10;}
	.st34{fill:#DF961C;}
	.st35{fill:#EDF3F8;stroke:#000000;stroke-miterlimit:10;}
	.st36{fill:#DA7600;}
	.st37{fill:#C2BEC8;}
	.st38{fill:#000100;stroke:#FFFFFF;stroke-miterlimit:10;}
	.st39{fill:#A8F001;stroke:#000000;stroke-miterlimit:10;}
	.st40{fill:#0578CD;}
	.st41{fill:#1A58A5;}
	.st42{stroke:#625616;stroke-miterlimit:10;}
	.st43{adobe-knockout:true;}
	.st44{fill:none;stroke:#FFFFFF;stroke-width:3;stroke-miterlimit:10;adobe-knockout:false;}
	.st45{fill:#D71F26;stroke:#000000;stroke-miterlimit:10;}
	.st46{fill:#008183;}
	.st47{fill:#6FC266;}
	.st48{fill:#C4373C;}
	.st49{fill:#00CAB0;}
	.st50{fill:#FAAE1E;}
	.st51{fill:#EC153B;}
	.st52{fill:#00B296;}
	.st53{fill:#F2C958;stroke:#00CAB0;stroke-miterlimit:10;}
	.st54{fill:#FF354F;stroke:#000000;stroke-miterlimit:10;}
	.st55{fill:#0D36A7;stroke:#000000;stroke-miterlimit:10;}
	.st56{fill:#D2D7E2;stroke:#000000;stroke-miterlimit:10;}
	.st57{fill:#CA2B9D;stroke:#000000;stroke-miterlimit:10;}
	.st58{fill:#58006C;stroke:#000000;stroke-miterlimit:10;}
	.st59{fill:#C60021;}
	.st60{fill:#A30F81;}
	.st61{fill:#0159C0;stroke:#A0A0A0;stroke-miterlimit:10;}
	.st62{fill:#013390;}
	.st63{fill:#F08900;}
	.st64{fill:#D20129;}
	.st65{fill:#AD0000;}
	.st66{fill:#131E25;}
	.st67{fill:#DAD2D8;stroke:#000000;stroke-miterlimit:10;}
	.st68{fill:#0066B3;}
	.st69{fill:#969796;}
	.st70{fill:#E86271;}
	.st71{fill:url(#SVGID_1_);stroke:#000000;stroke-miterlimit:10;}
	.st72{fill:#5AB4D2;stroke:#000000;stroke-miterlimit:10;}
	.st73{fill:#5AB4D2;}
	.st74{fill:#FFFFFF;stroke:#5AB4D2;stroke-miterlimit:10;}
	.st75{fill:#073F98;stroke:#0453BC;stroke-miterlimit:10;}
	.st76{fill:#2762C9;stroke:#000000;stroke-miterlimit:10;}
	.st77{fill:#C252FF;}
	.st78{fill:url(#SVGID_2_);}
	.st79{fill:url(#SVGID_3_);}
	.st80{fill:#DAD2D8;}
	.st81{stroke:#000000;stroke-miterlimit:10;}
	.st82{fill:#05297D;stroke:#000000;stroke-miterlimit:10;}
	.st83{fill:#05297D;stroke:#FFFFFF;stroke-miterlimit:10;}
	.st84{fill:#A8A8B4;}
	.st85{fill:url(#SVGID_4_);stroke:#000000;stroke-miterlimit:10;}
	.st86{fill:#53536A;}
	.st87{fill:#073F98;}
	.st88{fill:#098FBC;}
	.st89{fill:url(#SVGID_5_);}
	.st90{fill:#F7A161;}
	.st91{fill:#FF0000;stroke:#000000;stroke-miterlimit:10;}
	.st92{fill:#F54849;stroke:#000000;stroke-miterlimit:10;}
	.st93{fill:url(#SVGID_6_);}
	.st94{fill:url(#SVGID_7_);}
	.st95{fill:#3A72B7;stroke:#000000;stroke-miterlimit:10;}
	.st96{fill:#96C4F0;stroke:#000000;stroke-miterlimit:10;}
	.st97{fill:#C50040;}
	.st98{fill:#D11E24;}
	.st99{fill:#E3E3E7;}
	.st100{stroke:#FFCF2B;stroke-miterlimit:10;}
	.st101{fill:none;stroke:#F9E42A;stroke-miterlimit:10;}
	.st102{fill:#F08900;stroke:#000000;stroke-miterlimit:10;}
	.st103{fill:#F28330;}
	.st104{fill:#FC8038;}
	.st105{fill:#5AB633;}
	.st106{fill:#553658;stroke:#75C255;stroke-miterlimit:10;}
	.st107{fill:#1853A6;}
	.st108{fill:#CB0000;}
	.st109{fill:#0F0D0E;}
	.st110{fill:#636363;}
	.st111{fill:#FFFFFF;stroke:#00A39B;stroke-miterlimit:10;}
	.st112{fill:#D71F26;}
	.st113{fill:#020000;}
	.st114{fill:none;stroke:#000000;stroke-width:0.5;stroke-miterlimit:10;}
	.st115{clip-path:url(#SVGID_9_);}
	.st116{clip-path:url(#SVGID_11_);}
	.st117{clip-path:url(#SVGID_13_);}
	.st118{clip-path:url(#SVGID_15_);}
	.st119{fill:#7A4A00;}
	.st120{fill:none;stroke:#1A7F9E;stroke-width:7;stroke-miterlimit:10;}
	.st121{fill:#E20227;stroke:#4998BB;stroke-miterlimit:10;}
	.st122{fill:#1F2427;}
	.st123{fill:#BA7500;}
	.st124{fill:none;stroke:#BA7500;stroke-width:7;stroke-miterlimit:10;}
	.st125{fill:#843D00;stroke:#000000;stroke-width:0.25;stroke-miterlimit:10;}
	.st126{stroke:#000000;stroke-width:0.25;stroke-miterlimit:10;}
	.st127{fill:#ECEEF3;stroke:#1A58A5;stroke-miterlimit:10;}
	.st128{fill:#233194;}
	.st129{fill:#E0DFE3;}
	.st130{fill:#C2BEC8;stroke:#000000;stroke-miterlimit:10;}
	.st131{fill:#233194;stroke:#000000;stroke-miterlimit:10;}
	.st132{fill:#A40100;}
	.st133{adobe-knockout:false;}
	.st134{fill:#A0AAC1;}
	.st135{fill:#A40100;stroke:#000000;stroke-miterlimit:10;}
	.st136{fill:#92F0D6;}
	.st137{fill:#F2C958;}
	.st138{fill:#CA2B9D;stroke:#CA2B9D;stroke-miterlimit:10;}
	.st139{fill:#A30F81;stroke:#000000;stroke-miterlimit:10;}
	.st140{fill:#7E2B42;}
	.st141{fill:#0D36A7;}
	.st142{fill:#EE1C24;}
	.st143{fill:#0159C0;}
	.st144{stroke:#A0A0A0;stroke-miterlimit:10;}
	.st145{stroke:#4E3B64;stroke-miterlimit:10;}
	.st146{fill:#FDEA00;stroke:#000000;stroke-width:0.217;}
	.st147{fill:#FDEA00;stroke:#000000;stroke-width:0.2326;}
	.st148{fill:#1D1D1B;}
	.st149{fill:#FF0000;}
	.st150{fill:none;stroke:#0453BC;stroke-width:25.435;stroke-miterlimit:10;adobe-knockout:false;}
	.st151{fill:none;stroke:#0453BC;stroke-width:25.4353;stroke-linecap:round;stroke-miterlimit:10;adobe-knockout:false;}
	.st152{fill:#CAC5C0;}
	.st153{fill:#2762C9;}
	.st154{fill:#C252FF;stroke:#000000;stroke-miterlimit:10;}
	.st155{fill:#A54B2D;stroke:#000000;stroke-miterlimit:10;}
	.st156{fill:#A54B2D;}
	.st157{stroke:#A54B2D;stroke-miterlimit:10;}
	.st158{fill:#823311;}
	.st159{fill:none;}
	.st160{fill:#05297D;}
	.st161{fill:none;stroke:#FF7F35;stroke-width:6;stroke-miterlimit:10;}
	.st162{fill:#031DFF;stroke:#000000;stroke-miterlimit:10;}
	.st163{fill:#0370FF;stroke:#000000;stroke-miterlimit:10;}
	.st164{fill:#031DC4;}
	.st165{fill:none;stroke:#0080CA;stroke-width:6;stroke-miterlimit:10;}
	.st166{fill:#031DFF;stroke:#FFFFFF;stroke-miterlimit:10;}
	.st167{fill:#0263B0;}
	.st168{fill:none;stroke:#FFFFFF;stroke-width:2;stroke-miterlimit:10;}
	.st169{fill:url(#SVGID_16_);stroke:#FFFFFF;stroke-miterlimit:10;}
	.st170{fill:url(#SVGID_17_);}
	.st171{fill:url(#SVGID_18_);}
	.st172{fill:url(#SVGID_19_);}
	.st173{fill:#693B0F;stroke:#000000;stroke-miterlimit:10;}
	.st174{fill:#3E4E70;}
	.st175{fill:#F7CE02;}
	.st176{fill:#0551E1;stroke:#000000;stroke-miterlimit:10;}
	.st177{fill:#EC153B;stroke:#000000;stroke-miterlimit:10;}
	.st178{fill:#0831FD;}
	.st179{fill:#0870FD;}
	.st180{fill:none;stroke:#9F3D44;stroke-width:3;stroke-miterlimit:10;}
</style>
<g>
	<path class="st2" d="M509.5,97.5c10.8-7.2,18.5-8.4,23.6-7.6C512.6,65,446.6,37.4,382.5,17.5c-24.8-7.7-54.1-9.9-81.7-9.4
		c-27.8-0.6-61.4,1.3-86.4,9.1C151,36.9,89,64.3,68.4,89c4.5-0.5,11.3,1,21.4,7.7c22.6,15.4,44,74.8,42.9,150.2
		c-0.4,52.2-4.3,45.8-6.9,57.9c-0.5,31.6-4.6,245.7-4.6,266.1c0.2,18.6,87.2,23.8,173.2,24v0c1,0,2.5,0,3.5,0c1,0,2.5,0,3.5,0v0
		c86-0.2,175.5-5.4,175.7-24c0-21.6-2.6-260.5-2.7-269.7c-3.1-12-8.1-1.8-8.5-55C466.2,158,486.9,112.9,509.5,97.5z"/>
	<path class="st3" d="M89.8,96.8c-10.1-6.7-16.9-8.2-21.4-7.7c-2.4,2.9-4.2,5.7-5.5,8.5C27.2,179.7,6.5,482.7,6.5,576.2
		c8.8,6.4,17.7,7.6,67.5,9.8c10-134,52-285,52-285s0,1.4-0.1,3.9c2.6-12.1,6.5-5.7,6.9-57.9C133.8,171.6,112.4,112.2,89.8,96.8z"/>
	<path class="st3" d="M527,586c49.7-2.2,58.7-3.3,67.5-9.8c0-93.6-20.8-396.5-56.5-478.7c-1.1-2.5-2.7-5.1-4.8-7.6
		c-5.1-0.8-12.8,0.4-23.6,7.6c-22.6,15.4-43,60.5-43.2,148.8c0.4,53.2,5.6,43,8.7,55c0-0.2,0-0.3,0-0.3S517,452,527,586z"/>
</g>
<path class="st63" d="M532.2,89c0,0-79.2,0.7-57.7,211.5c2.1,168.9,3.2,265.3,3.2,264.5c0-2.3,0,2.4,0,6.2c0,1.3-0.7,2.6-0.9,2.9
	c-0.7,1.1-2,2.2-3.6,3.4c-4.7,3.4-13.3,5.9-25.1,8.2c14.2-11.6,11.1-41.8,10-71.2c-1.1-29.4,24-95.4,3-199.4
	c-6.8-33.6,1.5-83.4,2-92.4C467,155.1,485.7,92,532.2,89z"/>
<g>
	<g>
		<path class="st2" d="M227.5,28.7C240.3,46,262,62.5,298.1,62.5c36.2,0,56.3-16.8,67.4-34.5C335.2,31.1,259.9,30.8,227.5,28.7z"/>
		<path class="st102" d="M368.1,1c-17.6,5.3-142.2,2.9-148.6,0.6c-0.1,0.3-0.3,0.7-0.5,1.1c2.2,7.1,6.3,17.5,13.7,27.5
			c29.5,1.9,97.9,2.2,125.6-0.6c6.2-9.9,9.4-20.2,10.9-27.3C368.8,1.8,368.4,1.4,368.1,1z"/>
	</g>
	<path class="st102" d="M369.2,2.3c-4.1,18.7-19,58.7-72.2,58.7c-53.9,0-72.4-40.1-78-58.3c-2.9,5.3-13.9,16.7-13.9,16.7
		s14.4,61,89.9,61c76.5,0,86.6-58.7,87.7-63.1C380.6,16.4,373.4,6.9,369.2,2.3z"/>
</g>
<path class="st63" d="M70.4,88.6c0,0,77.1,9.2,55.7,220c-0.4,79.7-1.8,141.7-2.4,184.6c-0.7,46.5-0.8,70.5-0.8,71.6
	c0,3.2-0.6,7.5,0.8,9.2c0.7,1.1,1.7,2.3,3.4,3.5c4.7,3.4,15.3,6.5,27.3,8.8c-14.2-11.6-10.9-42.8-9.8-72.1c1.1-29.4-24-95.4-3-199.4
	c6.8-33.6-5.5-74.9-6-84C131.6,163.1,119.2,97.3,70.4,88.6z"/>
<g>
	<path class="st161" d="M301,586.3c0,0-0.1-2-0.2-5.5c-0.1-1.8-0.1-3.9-0.2-6.4C302,556,284,547,281,533c-4-16,28-19,34-36
		c0.9-2.9,1.6-5.8,2-8.8c3-15.2-1-30.2-5.6-44.4c-1-2.9-2-5.9-3.1-8.8c-3.2-8.7-6.9-17.3-10.1-25.5c-1.4-2.7-2.7-5.4-3.4-8.3
		c1.3,2.8,2.9,5.6,4.6,8.4c2.9,5.3,6.1,10.8,9.3,16.5c1.6,2.9,3.1,5.8,4.7,8.7C325,454,333,476,325,498c-0.7,2.3-1.9,4.4-3.6,6.2
		c-8.3,9.1-25.9,13-23.4,23.8c2,11,12,23,11.7,36.3c0.1,3.4,0.1,6.6,0.2,9.4c0.1,5.6,0.1,9.7,0.1,11.9"/>
	<path class="st161" d="M292.3,585.9c0,0-0.1-2.2-0.3-6c1-15.9-10-26.9-21-36.9c-5-6-6-18,0-20c19.2-7.9,30.5-21.2,35.7-36.7
		c1-3.1,1.8-6.3,2.4-9.5c1.9-9.7,0.9-20.7-0.8-30.3c-0.7-3.4-1.6-6.8-2.7-10.2c-2.2-6.7-5-13.3-8.5-19.5c-1.9-3.1-3.9-6.2-6-9
		C282,397,272,385,275,370c8,11,20,19,28.5,30.5c2.2,2.9,4.3,5.9,6.4,8.8c1.6,2.7,3.2,5.4,4.7,8.2c1.5,2.8,3.1,5.6,4.5,8.4
		C334,447,344,472,338.1,498c-0.1,3.4-3,6.2-6.8,9.1c-7.6,5.8-19,11.6-18.3,20.9c2,9,5,18,4.9,28c0,3.5,0,6.7,0,9.7
		c0,9.1-0.1,16-0.3,19.8"/>
	<path class="st161" d="M283.6,585.6C285,567,267,557,263,541c-4-14-3-34,11-38c32-8,32-38,28-64c-2-8-5-16-10.2-23.1
		c-1.6-2-3.4-3.9-5.3-5.6c-7.6-7.1-16.5-12.9-20.5-22.2c-5-12-7-35,6-38c22-6,26,25,35.8,40.9c1.2,3.2,2.5,6.4,3.8,9.5
		c1.2,2.8,2.4,5.6,3.6,8.4c1,3,2,6,2.9,9c1,3,2,5.9,3.1,8.8c9.7,27.5,62.7,62.5,20,82.5c-2.8,2.1-5.5,4.3-7.9,6.7
		c-7.1,7-11.3,15.2-7.2,27.2c0,3.2,0,6.3,0,9.3c-0.1,14.9-0.5,26.7-0.9,32.9"/>
	<path class="st161" d="M274.9,585.8C275,569,259,558,257,542c-3-20,3-39,13-57c5-9,16-2,21-7c14-13,8-37,1.1-54.1
		c-1.6-3-3.3-5.8-5.2-8.4C282,408,271,405,264,399c-15-15-14-47-2-61c4-3,13-2,20.4,0.9c2.9,0.7,5.6,1.6,8.3,2.7
		c7.9,3.4,14.4,8.9,17.4,17.4c5.5,13,10.2,26,14.1,39.3c1,3.3,1.9,6.6,2.7,10c0.5,3.5,1.2,6.9,1.9,10.3C329,424,330,430,333,435
		c16,20,52,50,23.8,73.1c-2.2,1.6-4.6,3.1-6.9,4.7c-2.3,1.6-4.6,3.1-6.7,4.9c-7.2,5.3-10.2,13.3-9.4,21.5c0,3.4-0.1,6.7-0.2,9.9
		c-0.4,15.9-1,28.7-1.6,36.1"/>
	<path class="st161" d="M266.1,585C246,548,242,500,270,472c14-13,31-25,19.3-46.6c-1-3-2.5-5.3-4.4-7.3
		c-9.2-9.9-26.1-10.4-31.9-22.1c-9-17-8-46,3-63c2.1-1.1,4.1-2,6.1-2.8c41.8-16.8,64.1,26,72.9,69.2c0.8,3.9,1.5,7.9,2.1,11.8
		c-1,22.8,22,32.8,32,49.8c8,13,4,29,3,43c-1,2.5-2.5,4.6-4.2,6.5c-8.8,9.3-24.9,12.4-25.5,27c-0.3,3.3-0.5,6.7-0.6,10
		c-0.6,16.3-1.4,29.7-2.2,38"/>
	<path class="st161" d="M257.4,585.2C241,549,247,512,254,474.7c-0.3-3.5,0-6.3,0.8-8.8c0.8-2.4,2.2-4.4,3.9-6.2
		c1.7-1.7,3.8-3.1,6.1-4.3C280,452,294,445,284.5,428.2c-0.9-2.4-2.1-4.4-3.5-6.2c-6.9-8.8-18.9-11.2-28-17
		c-18.4-14-6.9-40.2-8.4-62c-0.2-3.1-0.7-6.1-1.6-9c0-6.9-2-19.9,9.1-18.1c2.3-0.1,4.8,0.1,7.1,0.3c2.3,0.2,4.6,0.4,6.5,0.3
		c2.6,0.1,5.2,0.3,7.7,0.4c7.7,0.4,15.4,1,23.2,1.4c3.1,0.2,6.3,0.3,9.3,0.2c2.8,1.2,5.3,2.7,7.6,4.4c2.3,1.7,4.4,3.6,6.3,5.7
		c4.1,3.5,6.1,9.5,9.6,14.5c1.3,2.7,2.5,5.4,3.6,8.3c3.2,8.5,5.5,17.4,7.7,25.6c0.6,2.9,1.2,5.8,1.7,8.7c1,5.8,1.9,11.6,2.7,17.5
		c0.4,2.9,0.8,5.8,1.3,8.7C349,430,367,437,377,450c12,14-1,31,1.4,46.9c0.6,3.6,0.8,7.1,0.2,10.4s-2.1,6.2-4.6,8.8
		c-10,8-22,16-23.1,29.2c-0.2,3.3-0.4,6.5-0.5,9.6c-0.6,12.4-1.4,22.7-2.2,30"/>
	<path class="st161" d="M248.9,585.5c-10.9-32.5-9.9-65.5-4-99.7c0-2.9,0-5.7,0-8.6c0-2.4,0-4.8,0.1-7.3c0-3.9-1-8.9,1-12.9
		c5-6,16.8-12.2,24.6-18c2.6-1.9,4.8-3.8,6.2-5.6c1.4-1.8,1.9-3.5,1.2-5.1c-0.7-1.6-2.6-3.1-6.1-4.4c-33.6-13.6-31.4-41.3-32.9-68.8
		c-0.2-3.4-0.4-6.9-0.9-10.3C237,332,227,315,239,305c4-3,10-6,15.8-3.3c4.1,0.8,8,2.4,11.9,2.5c2.5,0.3,5,0.5,7.5,0.5
		c2.5,0,5-0.1,7.4-0.6c2.9-0.6,5.8-1.6,8.4-3.3c4-0.4,8.2-2.6,12.2-3.9s7.7-1.5,10.7,2c15,13,24,31,29.8,49.9c1.1,3.1,2,6.3,3,9.5
		c2.8,9.5,5,19.3,7.1,29.1c0.6,2.9,1.2,5.7,1.7,8.6s0.8,5.7,0.8,8.6C358,426,382,433,389,451c7,17-10,33-7.7,50.9
		c0,2.8-0.2,5.5-0.7,8.2c-1.9,10.9-7.7,21.3-18.5,30.9c-3,2-3,8-3.7,12.5c-0.2,3.1-0.4,6.1-0.6,9c-0.6,8.6-1.3,16-2,21.8"/>
	<path class="st161" d="M240.3,584.6c-6.3-29.6-7.3-60.6-4.3-90.8c0-2.7-0.1-5.4-0.1-8.1c0-2.5,0-5,0-7.5C226,456,243,442,264,433
		c3-1,7-6,3-10c-9-9-29-4-31-18c-1.5-18,1.5-35.4-0.2-52.6c-0.3-2.9-0.7-5.7-1.3-8.6C233,325,208,302,230,288c11-6,22-2,31.7,1.8
		c2.2,0.6,4.4,0.9,6.6,0.9c2.2,0,4.3-0.3,6.4-1.3c2.2-0.9,4.4-2.1,6.4-3.8C292,282,304,261,312,271c2.4,2.9,4.7,5.9,6.9,9
		c17.1,20,28.1,43,33.1,69.5c1,3.5,2,7,3,10.6c2.8,10.6,5.2,21.3,7.2,32c0.6,3.3,1.2,6.6,1.8,9.8c1,21.1,26,27.1,31,46.1
		c4,18-11,33-7,50.8c0.4,2.1,0.7,4.1,0.8,6.2c0.2,6.2-1.2,12.5-5.8,18c-9,10-18,21-18.1,34.6c-0.3,3.5-0.6,6.9-0.8,10
		c-0.6,6.3-1.1,12-1.7,16.7"/>
	<path class="st161" d="M231.6,583.7c-4.6-24.7-5.6-50.7-4.4-75.8c0-3-0.1-6-0.1-9c-0.1-2.5-0.1-5.1-0.1-7.7
		C227,483,226,475,223,468c-1-2-4-4-5-5c-10-18,30-21,32-35c1-9-21-4-20-17c0-15.6,3.5-31.2,3.5-46.6c0-3.1-0.2-6.1-0.5-9.2
		C229,329,205,309,208,282c1-11,18-23,31.5-16.7c2.5,1.1,5,2.6,7.6,4c7.9,4.2,16.3,8.2,24.8,2.7c2.4-1.5,4.5-3.1,6.5-4.8
		c10-8.7,16.4-20.1,25.6-30.1c7.2,6.8,13.4,14.6,18.9,23.1c1.8,2.8,3.6,5.7,5.3,8.7C352,290,352,320,357.7,349.2
		c0.9,3.6,1.8,7.1,2.7,10.7c2.8,10.6,5.5,21.1,8.3,31.4c0.9,3.4,1.9,6.8,2.9,10.1c1.3,1.6,1.3,4.6,2.3,6.6c24,22,36,46,19,77
		c-2,3-1,8-1,11.8c0.5,2.8,0.8,5.6,0.9,8.4s-0.2,5.8-0.8,8.8c-3,16-18,27-18.3,44.2c-0.3,3.5-0.6,6.8-0.9,9.9
		c-0.6,6.3-1.2,12-1.8,16.9"/>
	<path class="st161" d="M222.9,582.9c-1.9-21.9-4.9-42.9-4.2-65c-0.1-2.6-0.2-5.2-0.3-7.9c-0.1-2.5-0.2-5-0.2-7.6
		C221,484,202,475,198,463c-3-12,22-18,32-31c3-4-7-6-7-11c0-20.2,8.4-40.5,7.5-60.2c-0.1-3.3-0.6-6.5-1.3-9.8
		c-9.2-33-51.2-64-19.2-98c1-2,1-6,2-9c0.5-2.5,2.5-3.5,4.9-3.6s5.1,0.6,7.1,1.6c14,7,31,24,45.9,11c2.1-1.7,4-3.5,5.8-5.6
		c5.3-6.1,9.2-13.7,12.1-21.3c0.8-2,1.5-4.1,2.2-6.1c6-9,19-7,25.3,0.7c2,1.7,3.8,3.6,5.5,5.6c1.6,1.9,3.1,3.9,4.3,5.8
		c3,5,5,9,8.1,13.6c1.3,2.3,2.5,4.7,3.7,7.1C341,264,350,272,353,282c8,24,4,50,13.1,72.7c1.2,3.3,2.3,6.7,3.5,10
		c3.4,10,6.6,20.1,9.2,30.3c0.8,3,1.6,6.1,2.7,9C388,420,408,429,407,447c0,17-14,33-10.1,50.6c0.5,2.7,0.9,5.5,1.1,8.4
		c0,22-19,39-17.5,61.6c-0.3,3.1-0.6,6.2-1,9c-0.3,2.8-0.6,5.5-1,8"/>
	<path class="st161" d="M214.1,582.1C213,564,212,547,210.4,529c-0.2-4-0.4-8.2-0.6-12.5C209,506,210,492,200,486c-14-8-22-24-11-37
		c8-8,22-8,25-19c4.8-24.8,15.4-47.7,12.2-71c-0.4-2.9-1-5.8-1.9-8.8C215,328,202,310,190,289c-12-20,4-38,12-56.3
		c1.8-2.5,4.1-4.8,7-6.7c13-8,31,20,51,14.2c2.3-1.4,4.3-3,5.9-4.9c4-4.7,6.1-10.8,8.1-16.9c0.6-2,1.3-4.1,2-6.1
		C278,199,289,190,303,193c7,1,12,5,16,10c3,5,7,9,10.7,14c2.1,2.8,4.1,5.6,6,8.5c1.9,2.9,3.7,5.8,5.4,8.7c1.7,2.9,3.3,5.7,4.7,8.4
		C352,256,374,254,375,264c5,28-12,56-4.5,83.7c0.9,3.3,2,6.6,3.1,9.8c3.3,9.7,6.9,19.3,10.1,29.1c1.2,3.6,2.3,7.3,3.3,10.9
		c3,13.5,14,21.5,21,32.5c14,23-10,44-6.3,66.9c0.3,2.6,0.5,5.2,0.6,7.9c0.1,5.3-0.5,10.7-2.3,16.2c-4,16-11,30-11.7,46.1
		c-0.3,3.1-0.7,6.1-1,9c-0.3,2.9-0.7,5.6-1,8.1"/>
	<path class="st161" d="M205.4,581.4c0,0-0.4-4.1-1.1-11.5c-0.2-2.5-0.4-5.3-0.7-8.4c-0.2-3.2-0.5-6.6-0.8-10.4
		c-0.3-3.8-0.5-7.9-0.8-12.2c-0.2-3.7-0.4-7.6-0.7-11.7C204,508,187,498,179,484c-11-19,3-45,17-63c3-3,9-1,10-3
		c12.8-15,18.2-35.6,15.6-55.1c-0.4-3.2-1.1-6.4-2-9.6C198,310,163,269,195.4,220.6c1.5-3,3.3-5.8,5.6-8.6c9-11,28,13,46.7,12.9
		c3.1-0.4,6-1.3,8.5-3.3c3.9-4.2,6-10.2,7.4-16.4c0.7-3.1,1.2-6.2,1.8-9.1C269,168,311,173,330,184c7,4,11,12,15,20
		c1.3,2,2.4,4.1,3.3,6.3c1.2,2.7,2.1,5.6,2.9,8.5c0.8,2.9,1.6,5.9,2.4,8.9C359,252,392,241,401,256c11,17-12,39-22,57
		c-7,13-6,27-2.1,39.9c0.7,2.3,1.4,4.6,2.1,6.8c3,9,6.4,17.8,9.7,26.5c1.2,3.3,2.4,6.5,3.6,9.8c27.7,29,25.7,64,14,100.4
		c0,3.3,0,6.7-0.2,10c-1,20-5.4,40-10.2,60.1c-0.4,3.1-0.7,6.2-1.1,9s-0.7,5.6-1,8.2"/>
	<path class="st161" d="M196.8,580.8c0,0-1.5-13.4-3-35.3c-0.2-3.6-0.5-7.5-0.8-11.6c1-16.9-16-26.9-20-39.9c-11-33,6-78,35-103
		c8-7,8-20,5.3-31.3c-0.6-3.4-1.4-6.6-2.4-9.7C201,321,171,298,175,266c3-17,9-35,13-53.4c1-2.9,2.2-5.8,3.7-8.6
		c1.5-2.8,3.3-5.4,5.3-8c8-10,28,7,44.5,10.7c3.4-0.7,6-2.4,7.9-4.6c6.4-7.4,5.9-21.2,7.8-30.3c1-4.5,2.5-7.9,5.9-8.8
		c35-9.9,79-10.9,93,30.1c1.3,2,2.4,4.1,3.2,6.2c2.1,5.4,2.8,11.1,3.9,16.7c0.5,2.8,1.1,5.6,2.1,8.3C375,243,401,235,417,246
		c2,1,1,6,1,9c-5,19-16,35-19,55c-3,13-13,23-16.4,35.7c0.2,2.8,0.9,5.8,1.4,8.3c3,10.8,7,21.2,11,31.6c1.3,3.5,2.7,6.9,4,10.4
		c27,30,22,65,13.5,100.6c0.2,3.2,0.3,6.5,0.3,9.7c0,6.5-0.4,13.1-1.8,19.7c-3,14-6,26-7.3,40.1c-0.4,3.1-0.7,6.2-1.1,9.1
		c-0.4,2.9-0.7,5.7-1.1,8.3"/>
	<path class="st161" d="M188.1,580.1c0,0-1.1-9.6-2.3-25.9c-0.3-3.3-0.5-6.8-0.8-10.5C185,528,171,516,167,503c-14-41,11-89,30-128
		c1.6-3.1,2.7-6.3,3.4-9.6c0.5-2.1,0.7-4.3,0.9-6.5c0.1-2.2,0.1-4.4,0-6.7C196,324,175,302,168,273c-2-8,3-15,7-21
		c7-13,4-28,6.6-41.8c0.4-3.5,1.1-6.9,1.9-10.3c1.6-6.8,4.1-13.4,7.5-19.9c3-6,15,0,24,0c7,1,14,8,21.6,4.8c2.8-1.3,4.7-3.5,6.1-6.3
		c5.6-11.3,2.7-31.5,11.3-33.5c2.3-0.5,4.5-0.7,6.7-0.8c2.2-0.1,4.5,0,6.7,0.3C291,151,316,136,338,146c12,6,16,25,31.9,26.2
		c3,0.8,6.1,1.6,9.1,2.8c3,1,1,9,1,14c-1,4.3-2,8.8-2.6,13.2c-0.3,2.2-0.5,4.4-0.6,6.6C376,233,407,228,422,236c9,5,5,17,1,25
		c-11,20-13,41-12.2,63.4c-0.6,2.8-1.8,5.3-3.8,7.6c-15.5,16.5-12.8,33.8-6,51.2c1.4,3.5,2.9,7,4.4,10.5C416,412,430,430,426,453
		c-3,14-7,28-7,42c-0.1,3.4-0.2,6.8-0.4,10.2c-1,17-3.2,33.9-6,50.7c-0.4,3.3-0.8,6.6-1.1,9.7c-0.7,6.3-1.5,12.1-2.2,17.5"/>
	<path class="st161" d="M179.4,579.4c0,0-0.9-7.8-2-21.4c-0.2-2.7-0.5-5.6-0.7-8.7C177,530,161,518,156,501c-2-7-2-14,0-21
		c7-27,16-52,17.3-79.1c0.8-3,1.6-6,2.3-8.9c3.1-11.6,6.1-22.8,8.1-34.2c0.5-2.9,0.9-5.7,1.3-8.6C185,345,186,341,185,337
		c-6-24-25-45-19-70c4-18,12-35,9.9-54.7c0-3.5,0.1-7,0.4-10.4c1.3-13.6,5.7-25.9,15.7-35.9c7-7,28,3,37.3-8.1
		c1.6-2,2.9-4.3,4.1-6.5c3.6-6.9,6.1-14.4,10.6-19.4c6.6-7.3,15-6.6,24.4-2.4c3.1,1.4,6.3,3.2,9.9,5C298,144,318,134,339,130
		c4,0,8-2,11,1c10,13,17,30,36,26c3,0,7,1,7,3c6,14-1.3,27.1-3.8,40.1c-0.6,3.3-0.9,6.5-0.5,9.7c0.3,4.2,3.3,6.2,5.3,8.2
		c14,10,44,4,40,28c-4,22-20,40-14.3,62.7c0.4,2.2,0.7,4.3,1.1,6.5C425,331,419,346,408,359c-2,2-3,6-2,10c0.8,3.2,1.7,6.4,2.7,9.5
		c1,3.1,2,6.2,3.1,9.3C431,420,436,455,425.7,490.9c-0.2,3-0.4,6-0.6,9c-1,18.1-1.3,36.1-4.8,54c-0.4,3.5-0.8,6.9-1.2,10.2
		c-0.8,6.6-1.6,12.8-2.4,18.5"/>
	<path class="st161" d="M170.7,578.7c0,0-0.6-5.3-1.5-14.7c-0.2-2.4-0.4-5-0.7-7.8C169,535,152,520,149,499c-1-7,1-14,3-21
		c5-24,12-46,11.8-70.4c0.1-3,0.2-5.9,0.3-8.9c0.1-2.7,0.2-5.5,0.3-8.2c3-13.8,4.7-27.8,5.9-42c0.3-3.5,0.6-7.1,0.7-10.7
		c0-25.8-21-50.8-10-74.8c8-19,16-38,12.9-58c-0.2-3.8-0.5-7.5-0.6-11.3c-0.6-11.3-0.8-22.5-0.3-33.8c1-4,1-9,5-9c17-5,38-2,43.2-23
		c1.8-3.2,3.6-6.3,5.6-8.8c4-5.1,8.8-8.5,15.2-8.1c12.5,1,24.2,7,36.3,13.3c3,1.6,6.1,3.1,9.6,4.1c21,4.7,39-9.3,59-13.3
		c4-1,10-1,13,2c10,15,15,35,36,31c4.3,0.3,7.3,1.5,9.2,3.3c7.9,7.4-2.2,25.7-5.4,39.2c-0.6,2.7-1,5.2-0.8,7.5c1,6,3,12,9,15
		c14,5,36,10,33,30c-3,18-14,32-13.5,50.1c0.3,4.1,0.9,7.9,1.5,11.7c1.2,7.6,2.3,15.4,3.2,23.2c0.3,2.2,0.5,4.5,0.6,6.6
		C433,340,433,345,432,349c-4,11-14,21-11,34c1,3.1,2,6.2,3,9.3c12,28.7,17,58.7,10.6,90c-0.2,2.2-0.3,4.4-0.5,6.5
		c-1.1,18.2-2.1,36.2-4.8,54c-0.4,3.7-0.8,7.2-1.2,10.7c-1.2,10.5-2.5,20.1-3.7,28.8"/>
	<path class="st161" d="M162,578c0,0-0.6-4.7-1.4-13.2c-0.2-2.1-0.4-4.5-0.6-7c0-17.8-10-31.8-15-48.8c-2-7-2-14-1-21
		c4-23,11-44,10.5-66.9c0-2.8,0.1-5.6,0.1-8.4c0.2-11.2,0.5-22.7,1.1-34.2c0.1-2.7,0.3-5.3,0.5-7.9c1.5-10,2.5-20,3.4-30.1
		c0.3-3.3,0.6-6.7,0.7-10.2C156,297,145,265,167,232c4-6,2-16,2.3-23.6c-0.1-3.7-0.3-7.5-0.4-11.2c-0.6-18.7-0.8-37.4,2.1-56.2
		c0-1,2-3,4-4c15-2,34-2,35.8-20.9c0.7-2.6,1.3-5.3,2-8c0.7-2.7,1.4-5.4,2.2-8.1c2-6,8-9,13-8c21,3.8,38.1,16.5,57,23
		c3.2,1.1,6.4,2,9.7,2.6C327,116,368,85,383,132c2,7,14,6,23,6c3,0.2,6,0.5,9,1c5,0,6,7,5,12c-2,12.7-7.6,24.4-9.2,36.4
		c-0.4,3-0.5,6-0.2,8.9C410,199,413,203,414,203c34,14,37,46,24,75c-2,4-1,9-0.9,14.5c0.6,3.4,1.1,6.9,1.6,10.4
		c1.5,10.4,2.7,21,3.6,31.7c0.2,2.2,0.4,4.4,0.5,6.5c0.1,4,1.1,8,0.1,12c-3.3,13.3-8.1,25.3-7.2,38.1c0.2,2.6,0.6,5.2,1.2,7.9
		c8,26,9,54,5.7,81.4c-0.2,2.5-0.3,5.1-0.5,7.6c-0.2,2.5-0.4,5-0.6,7.5c-0.3,4.2-0.7,8.3-1,12.3c-1.5,8.2-0.5,15.2-2.3,23.6
		c-0.4,3.8-0.8,7.5-1.2,11.1c-1.6,14.6-3.4,27.8-5,39.5"/>
</g>
<g>
	<g>
		<g>
			<path class="st5" d="M381.1,211.3c-16.8,0-30.4-13.6-30.4-30.3s13.6-30.4,30.4-30.4s30.4,13.6,30.4,30.4S397.8,211.3,381.1,211.3
				z"/>
			<path class="st167" d="M381.1,151.7c7.8,0,15.1,3.1,20.6,8.6s8.5,12.9,8.5,20.7s-3,15.1-8.5,20.6s-12.9,8.6-20.6,8.6
				c-7.8,0-15.1-3.1-20.6-8.6s-8.6-12.8-8.6-20.6s3-15.1,8.5-20.6S373.3,151.7,381.1,151.7 M381.1,149.4
				c-17.4,0-31.5,14.1-31.5,31.5s14.1,31.5,31.5,31.5s31.5-14.1,31.5-31.5S398.5,149.4,381.1,149.4L381.1,149.4z"/>
		</g>
	</g>
	<g>
		<path class="st167" d="M360.5,195.5v-6h1.1l0.9,4.4l0.8-4.4h1.1v6h-0.8v-2.2l0-2.1l-0.8,4.3h-0.7l-0.8-4.3l0,2.1v2.2L360.5,195.5
			L360.5,195.5z"/>
		<path class="st167" d="M365.4,195.5v-6h2v0.8h-1.1v1.8h1v0.8h-1v1.9h1.1v0.8L365.4,195.5L365.4,195.5z"/>
		<path class="st167" d="M368.2,195.5v-6h0.9v6H368.2z"/>
		<path class="st167" d="M370.1,195.5v-6h1.4c0.4,0,0.8,0.1,1,0.4c0.2,0.2,0.3,0.7,0.3,1.2v2.7c0,0.6-0.1,1.1-0.3,1.4
			c-0.2,0.3-0.5,0.4-1,0.4L370.1,195.5L370.1,195.5z M371,194.8h0.3c0.2,0,0.3-0.1,0.4-0.2c0.1-0.1,0.1-0.3,0.1-0.6v-3
			c0-0.3-0.1-0.5-0.1-0.7c-0.1-0.1-0.2-0.2-0.4-0.2H371V194.8z"/>
		<path class="st167" d="M373.5,195.5v-6h2v0.8h-1.1v1.8h1v0.8h-1v1.9h1.1v0.8L373.5,195.5L373.5,195.5z"/>
		<path class="st167" d="M377.5,192.7l-0.3,0v2.8h-0.9v-6h1.5c0.3,0,0.5,0.1,0.7,0.2c0.1,0.1,0.2,0.3,0.3,0.5c0,0.2,0.1,0.5,0.1,0.9
			s-0.1,0.7-0.1,0.9c-0.1,0.2-0.2,0.3-0.4,0.4c0.2,0,0.4,0.2,0.4,0.4c0.1,0.2,0.1,0.8,0.1,1.5c0,0.8,0,1.2,0,1.2h-0.9
			c0-0.1,0-0.8,0-2.2c0-0.3,0-0.4-0.1-0.5C377.9,192.8,377.7,192.7,377.5,192.7z M377.3,192h0.4c0.1,0,0.2,0,0.2-0.1
			c0.1,0,0.1-0.1,0.1-0.3c0-0.1,0-0.3,0-0.6v0c0-0.3,0-0.6-0.1-0.7c0-0.1-0.2-0.1-0.4-0.1h-0.3L377.3,192L377.3,192z"/>
		<path class="st167" d="M379.8,195.5v-6h0.9v6H379.8z"/>
		<path class="st167" d="M383.9,195.2c-0.2,0.3-0.5,0.4-1,0.4c-0.4,0-0.8-0.2-1-0.5c-0.2-0.3-0.3-0.7-0.3-1.3v-2.6
			c0-0.9,0.2-1.5,0.7-1.7c0.2-0.1,0.4-0.1,0.6-0.1c0.9,0,1.3,0.5,1.3,1.6v0.8h-0.9v-0.8c0-0.3,0-0.5-0.1-0.7c0-0.1-0.1-0.2-0.3-0.2
			s-0.2,0.1-0.3,0.2c-0.1,0.1-0.1,0.3-0.1,0.6v2.8c0,0.3,0,0.6,0.1,0.7c0.1,0.1,0.2,0.2,0.3,0.2s0.2-0.1,0.3-0.2
			c0-0.2,0.1-0.4,0.1-0.7V193h0.9v0.9C384.2,194.5,384.1,194.9,383.9,195.2z"/>
		<path class="st167" d="M385,195.5v-6h0.9v2.4h0.8v-2.4h0.9v6h-0.9v-2.8h-0.8v2.8H385z"/>
		<path class="st167" d="M388.6,195.5v-6h2v0.8h-1.1v1.8h1.1v0.8h-1.1v1.9h1.2v0.8L388.6,195.5L388.6,195.5z"/>
		<path class="st167" d="M392.6,192.7l-0.3,0v2.8h-0.9v-6h1.5c0.3,0,0.6,0.1,0.7,0.2s0.2,0.3,0.3,0.5c0.1,0.2,0.1,0.5,0.1,0.9
			s0,0.7-0.1,0.9s-0.2,0.3-0.4,0.4c0.2,0,0.3,0.2,0.4,0.4s0.1,0.8,0.1,1.5c0,0.8,0,1.2,0,1.2H393c0-0.1,0-0.8,0-2.2
			c0-0.3,0-0.4-0.1-0.5C392.9,192.8,392.8,192.7,392.6,192.7z M392.3,192h0.4c0.1,0,0.2,0,0.2-0.1c0,0,0.1-0.1,0.1-0.3
			c0-0.1,0-0.3,0-0.6v0c0-0.3,0-0.6-0.1-0.7c0-0.1-0.2-0.1-0.4-0.1h-0.3L392.3,192L392.3,192z"/>
		<path class="st167" d="M396,193.8v-0.6h0.9v0.6c0,0.3,0,0.6,0.1,0.7c0,0.1,0.2,0.2,0.3,0.2c0.2,0,0.2-0.1,0.3-0.2
			c0-0.1,0.1-0.3,0.1-0.6s-0.1-0.5-0.1-0.7c-0.1-0.2-0.2-0.4-0.4-0.6l-0.4-0.4c-0.2-0.2-0.4-0.5-0.5-0.7c-0.1-0.2-0.2-0.5-0.2-0.8
			c0-0.5,0.1-0.9,0.3-1.1c0.2-0.2,0.5-0.4,1-0.4s0.8,0.1,0.9,0.4c0.2,0.3,0.2,0.7,0.2,1.2v0.4h-0.8V191c0-0.3,0-0.5-0.1-0.6
			s-0.1-0.2-0.3-0.2c-0.2,0-0.2,0.1-0.3,0.2c-0.1,0.1-0.1,0.2-0.1,0.4c0,0.2,0,0.4,0.1,0.5c0.1,0.1,0.2,0.2,0.4,0.4l0.5,0.6
			c0.2,0.3,0.4,0.5,0.6,0.8c0.1,0.3,0.2,0.6,0.2,0.9c0,0.6-0.1,1-0.3,1.2c-0.2,0.3-0.5,0.4-1,0.4s-0.8-0.2-1-0.5
			C396.1,194.9,396,194.4,396,193.8z"/>
		<path class="st167" d="M399.9,195.5l-0.9-6h0.9l0.4,2.7l0.2,1.9h0l0.2-1.9l0.3-2.7h0.8l-0.8,6H399.9z"/>
		<path class="st167" d="M367,202.9c-0.2,0.3-0.6,0.4-1,0.4c-0.5,0-0.8-0.2-1.1-0.4c-0.2-0.3-0.3-0.7-0.3-1.3v-2.9
			c0-0.5,0.1-0.9,0.3-1.2c0.2-0.3,0.6-0.4,1.1-0.4c0.5,0,0.8,0.1,1,0.4c0.2,0.3,0.3,0.7,0.3,1.2v2.9
			C367.3,202.2,367.2,202.6,367,202.9z M365.9,202.6c0.1,0,0.2-0.1,0.3-0.2c0.1-0.1,0.1-0.3,0.1-0.7v-2.9c0-0.5-0.1-0.7-0.3-0.8
			c-0.1,0-0.1,0-0.2,0s-0.2,0.1-0.2,0.1c-0.1,0.1-0.1,0.3-0.1,0.6v3c0,0.4,0,0.6,0.1,0.7C365.6,202.5,365.8,202.6,365.9,202.6z"/>
		<path class="st167" d="M368.2,203.3v-0.3c0-0.3,0-0.6,0.1-0.9c0.1-0.3,0.3-0.6,0.5-1c0,0,0.1-0.2,0.2-0.4c0.1-0.3,0.3-0.4,0.4-0.6
			c0.2-0.3,0.3-0.7,0.3-1.2c0-0.5-0.1-0.8-0.3-0.8c-0.2,0-0.3,0.1-0.4,0.4c0,0.1,0,0.3,0,0.5v0.8h-0.9v-0.4c0-0.8,0.1-1.2,0.2-1.5
			c0.1-0.3,0.3-0.4,0.6-0.5c0.1,0,0.3,0,0.5,0c0.2,0,0.4,0,0.5,0.1c0.1,0.1,0.3,0.2,0.4,0.4c0.2,0.3,0.3,0.7,0.3,1.2
			s-0.1,0.9-0.3,1.3c-0.2,0.4-0.4,0.7-0.6,1c-0.3,0.5-0.5,1-0.6,1.4h1.4v0.7L368.2,203.3L368.2,203.3z"/>
		<path class="st167" d="M372.6,203.3v-6h1.4c0.5,0,0.8,0.1,1,0.4c0.2,0.2,0.3,0.7,0.3,1.2v2.7c0,0.6-0.1,1.1-0.3,1.4
			c-0.2,0.3-0.5,0.4-1,0.4L372.6,203.3L372.6,203.3z M373.5,202.6h0.3c0.2,0,0.3-0.1,0.4-0.2c0.1-0.1,0.1-0.3,0.1-0.6v-3
			c0-0.3,0-0.5-0.1-0.7c-0.1-0.1-0.2-0.2-0.4-0.2h-0.3V202.6z"/>
		<path class="st167" d="M378.4,203c-0.2,0.2-0.5,0.4-1,0.4s-0.8-0.1-1-0.4c-0.2-0.3-0.3-0.7-0.3-1.2v-4.5h0.9v4.5
			c0,0.3,0,0.5,0,0.6s0.1,0.1,0.1,0.2c0,0,0.1,0.1,0.2,0.1s0.2-0.1,0.3-0.1c0.1-0.1,0.1-0.2,0.1-0.3c0-0.1,0-0.3,0-0.4v-4.5h0.9v4.5
			C378.7,202.3,378.6,202.7,378.4,203z"/>
		<path class="st167" d="M379.6,203.3v-6h0.9v6H379.6z"/>
		<path class="st167" d="M381.4,201.6V201h0.9v0.6c0,0.3,0,0.6,0.1,0.7c0,0.1,0.2,0.2,0.3,0.2c0.2,0,0.2-0.1,0.3-0.2
			c0-0.1,0.1-0.3,0.1-0.6s-0.1-0.5-0.1-0.7c-0.1-0.2-0.2-0.4-0.4-0.6l-0.4-0.4c-0.2-0.2-0.4-0.5-0.5-0.7c-0.1-0.2-0.2-0.5-0.2-0.8
			c0-0.5,0.1-0.9,0.3-1.1c0.2-0.2,0.5-0.4,1-0.4s0.8,0.1,1,0.4c0.2,0.3,0.2,0.7,0.2,1.2v0.4H383v-0.4c0-0.3,0-0.5-0.1-0.6
			c0-0.1-0.1-0.2-0.3-0.2s-0.2,0.1-0.3,0.2c-0.1,0.1-0.1,0.2-0.1,0.4c0,0.2,0,0.4,0.1,0.5c0.1,0.1,0.2,0.2,0.4,0.4l0.5,0.6
			c0.2,0.3,0.4,0.5,0.6,0.8c0.1,0.3,0.2,0.6,0.2,0.9c0,0.6-0.1,1-0.3,1.2c-0.2,0.3-0.5,0.4-1,0.4s-0.8-0.2-1-0.5
			C381.4,202.6,381.4,202.2,381.4,201.6z"/>
		<path class="st167" d="M387.2,198.8c0,0.7-0.2,1.1-0.5,1.2c0.4,0.2,0.7,0.6,0.7,1.4v0.2c0,0.6-0.1,1-0.3,1.3
			c-0.2,0.3-0.5,0.4-1,0.4h-1.3v-6h1.3c0.5,0,0.8,0.1,1,0.3c0.2,0.2,0.3,0.5,0.3,1L387.2,198.8L387.2,198.8z M385.5,199.7h0.3
			c0.2,0,0.2-0.1,0.3-0.2c0-0.1,0.1-0.3,0.1-0.6v-0.4c0-0.2,0-0.4-0.1-0.5c-0.1-0.1-0.2-0.1-0.3-0.1h-0.3V199.7z M385.5,202.6h0.3
			c0.2,0,0.3-0.1,0.4-0.2c0.1-0.1,0.1-0.3,0.1-0.7v-0.5c0-0.3,0-0.5-0.1-0.6c0-0.1-0.2-0.2-0.4-0.2h-0.4L385.5,202.6L385.5,202.6z"
			/>
		<path class="st167" d="M390.3,203c-0.2,0.2-0.6,0.4-1,0.4c-0.5,0-0.8-0.1-1-0.4c-0.2-0.3-0.3-0.7-0.3-1.2v-4.5h0.9v4.5
			c0,0.3,0,0.5,0,0.6c0,0.1,0.1,0.1,0.1,0.2c0.1,0,0.1,0.1,0.2,0.1s0.2-0.1,0.3-0.1c0.1-0.1,0.1-0.2,0.1-0.3c0-0.1,0-0.3,0-0.4v-4.5
			h0.9v4.5C390.6,202.3,390.5,202.7,390.3,203z"/>
		<path class="st167" d="M392.7,200.5l-0.3,0v2.8h-0.9v-6h1.5c0.3,0,0.5,0.1,0.7,0.2s0.2,0.3,0.3,0.5c0,0.2,0.1,0.5,0.1,0.9
			s0,0.7-0.1,0.9c-0.1,0.2-0.2,0.3-0.4,0.4c0.2,0,0.4,0.2,0.4,0.4c0.1,0.2,0.1,0.8,0.1,1.5c0,0.8,0,1.2,0,1.2h-0.9
			c0-0.1,0-0.8,0-2.2c0-0.3,0-0.4-0.1-0.5C393,200.5,392.9,200.5,392.7,200.5z M392.4,199.7h0.4c0.1,0,0.2,0,0.2-0.1
			c0,0,0.1-0.1,0.1-0.3c0-0.1,0-0.3,0-0.6v0c0-0.3,0-0.6-0.1-0.7c0-0.1-0.2-0.1-0.4-0.1h-0.3L392.4,199.7L392.4,199.7z"/>
		<path class="st167" d="M396.1,203.4c-0.4,0-0.7-0.2-0.9-0.5c-0.2-0.3-0.3-0.8-0.3-1.4v-2.6c0-0.5,0.1-1,0.3-1.3s0.6-0.4,1-0.4
			c0.6,0,1,0.2,1.1,0.6c0.1,0.3,0.1,0.6,0.1,1.1v0.4h-0.8v-0.6c0-0.3,0-0.5-0.1-0.6s-0.2-0.2-0.3-0.2c-0.1,0-0.3,0.1-0.3,0.2
			c-0.1,0.1-0.1,0.4-0.1,0.7v2.6c0,0.4,0,0.7,0.1,0.8c0.1,0.2,0.2,0.2,0.3,0.2c0.2,0,0.3-0.1,0.4-0.2c0.1-0.2,0.1-0.4,0.1-0.8v-0.8
			h-0.5v-0.7h1.3v3.3h-0.4l-0.1-0.6c0,0.2-0.1,0.4-0.3,0.5C396.5,203.3,396.3,203.4,396.1,203.4z"/>
	</g>
	<g>
		<path class="st167" d="M386.7,174.9c-0.7-0.4-1.4-0.8-2-1.2c-0.5-0.3-0.7,0-0.7,0.5c0,2.3,0,5.2,0,7.5c0,1.8,0-0.9,0,0.8
			c0,0.4-0.1,0.7-0.3,0.7c-1.5-0.8-7.9-4.2-9.4-11.6c-0.1-0.5-0.7-0.2-1.2,0.1c-0.4,0.2-0.9,0.5-1.2,0.7c-0.2,0.1-0.6,0.4-0.4,1.6
			c0.3,1.1,2.9,9.5,12,12.8c0.6,0.2,1.3,0.5,2,0.6c0,0,0.1,0,0.1,0l0,0c0.3,0,0.5,0.1,0.8,0.1c0.7,0.1,0.9-0.1,0.9-0.8
			c0-4.9,0.1-6,0.1-10.9C387.2,175.5,387.1,175.1,386.7,174.9z"/>
		<path class="st167" d="M373.3,170.5c0.6-0.3,0.9-0.8,0.9-1.5c0-4,0-3.5-0.1-7.5c0-1.1,0.2-1.7,1.3-2.1c1.3-0.5,1.4-0.5,1.4,0.8
			c0,3.9,0,7.8,0,11.6c0,0.9,0.2,1,1,0.6c0.4-0.2,0.9-0.5,1.4-0.8c0.6-0.3,0.9-0.8,0.9-1.6c0-2.3,0-4.6,0-6.9c0-2.4,0-4.8,0-7.2
			c0-0.5-0.1-1-0.8-0.9c-2.1,0.3-4.1,0.8-6,1.8c-7.7,4.1-11,13.1-7.8,21.2c0.4,1,0.5,1.1,1.5,0.6c0.4-0.2,0.8-0.5,1.2-0.7
			c0.6-0.2,0.6-0.6,0.4-1.1c-0.9-2-1.1-4.1-1-6.2c0.2-2.6,1.1-4.9,2.6-7c0.1-0.2,0.2-0.4,0.5-0.3c0.3,0.1,0.2,0.3,0.2,0.5
			c0,0.6,0,1.3,0,1.9c0,3.2,0,1.8,0,5c0,0.9,0.2,1.1,0.9,0.6C372.3,171,372.8,170.7,373.3,170.5z"/>
		<path class="st167" d="M397.8,170.1c0-0.6-0.3-1-0.9-1.4c-3.2-1.8-6.9-4-10.2-5.8c-1.6-0.9-1.7-1.2-1.7-2.9c0-1.2,0.6-1.2,1.4-0.9
			c0.7,0.3,6.8,4.1,9.2,5.5c0.2,0.1,0.5,0.4,0.7,0.2c0.2-0.2,0-0.5-0.1-0.7c-1.3-2.6-3.2-4.8-5.7-6.4c-2.2-1.5-4.6-2.4-7.3-2.7
			c-0.9-0.1-1.1,0-1.1,0.8c0,2.4,0,4.8,0,7.2c0,0.6,0.2,1,0.8,1.3c3.5,2,6.8,4.1,10.3,5.9c1.1,0.6,1.7,1.3,1.4,2.6
			c0,0.1,0,0.2,0,0.2c0,1.1-0.3,1.2-1.2,0.7c-1.3-0.8-2.6-1.5-3.9-2.3c-1.3-0.8-2.6-1.5-4-2.3c-0.5-0.3-1-0.6-1.6-0.9
			c-0.5-0.3-1-0.9-1.5-0.6c-0.2,0.1-0.3,0.3-0.3,0.5c0,0.4,0,1.6,0,1.7c0,0.9,0.5,1.5,1.5,1.9c1,0.5,2,1.1,2.9,1.6
			c0.3,0.2,0.6,0.4,0.9,0.5c0.8,0.5,1.6,0.9,2.4,1.4c1.9,1.1,3.8,2.1,5.6,3.2c0.6,0.3,0.9,0.2,1.1-0.4c0.1-0.4,0.3-0.8,0.4-1.2
			C397.7,174.9,398,172.5,397.8,170.1z"/>
	</g>
</g>
</svg>
