<?xml version="1.0" encoding="utf-8"?>
<!-- Generator: Adobe Illustrator 17.0.0, SVG Export Plug-In . SVG Version: 6.00 Build 0)  -->
<!DOCTYPE svg PUBLIC "-//W3C//DTD SVG 1.1//EN" "http://www.w3.org/Graphics/SVG/1.1/DTD/svg11.dtd" [
	<!ENTITY ns_flows "http://ns.adobe.com/Flows/1.0/">
	<!ENTITY ns_extend "http://ns.adobe.com/Extensibility/1.0/">
	<!ENTITY ns_ai "http://ns.adobe.com/AdobeIllustrator/10.0/">
	<!ENTITY ns_graphs "http://ns.adobe.com/Graphs/1.0/">
]>
<svg version="1.1" id="Layer_1" xmlns:x="&ns_extend;" xmlns:i="&ns_ai;" xmlns:graph="&ns_graphs;"
	 xmlns="http://www.w3.org/2000/svg" xmlns:xlink="http://www.w3.org/1999/xlink" xmlns:a="http://ns.adobe.com/AdobeSVGViewerExtensions/3.0/"
	 x="0px" y="0px" width="600px" height="600px" viewBox="0 0 600 600" style="enable-background:new 0 0 600 600;"
	 xml:space="preserve">
<style type="text/css">
	.st0{fill:#0068B4;}
	.st1{fill:#9400A6;}
	.st2{fill:#FFFFFF;}
	.st3{fill:#D2D705;}
	.st4{fill:#7A9E04;}
	.st5{fill:#C272D7;stroke:#000000;stroke-miterlimit:10;}
	.st6{fill:#FFFFFF;stroke:#000000;stroke-miterlimit:10;}
	.st7{fill:#7C0014;}
	.st8{fill:#E0DE71;stroke:#000000;stroke-miterlimit:10;}
	.st9{fill:#CC5C9B;}
	.st10{fill:#B91F75;}
	.st11{fill:#C8218D;stroke:#000000;stroke-miterlimit:10;}
	.st12{fill:#EBA79C;stroke:#000000;stroke-miterlimit:10;}
	.st13{fill:#FF7D6F;}
	.st14{fill:#FE5561;}
	.st15{stroke:#000000;stroke-miterlimit:10;}
	.st16{fill:#10792E;}
	.st17{fill:#5F546E;}
	.st18{fill:#10792E;stroke:#000000;stroke-miterlimit:10;}
	.st19{fill:#C8218D;}
	.st20{fill:#C7CCC4;}
	.st21{fill:#A7DCF3;stroke:#000000;stroke-miterlimit:10;}
	.st22{fill:#49B7E7;}
	.st23{fill:#CB5E22;stroke:#000000;stroke-miterlimit:10;}
	.st24{fill:url(#SVGID_1_);}
	.st25{fill:url(#SVGID_2_);}
	.st26{fill:url(#SVGID_3_);}
	.st27{fill:url(#SVGID_4_);}
	.st28{fill:url(#SVGID_5_);}
	.st29{fill:#242424;stroke:#CB5E22;stroke-miterlimit:10;}
	.st30{fill:#2A2A2A;stroke:#000000;stroke-miterlimit:10;}
	.st31{fill:#5F5F5F;}
	.st32{fill:#2A2A2A;stroke:#FFFFFF;stroke-miterlimit:10;}
	.st33{fill:#C82321;}
	.st34{fill:#FF8075;stroke:#000000;stroke-miterlimit:10;}
	.st35{fill:#FF5A4A;}
	.st36{fill:#FF056D;stroke:#FF8075;stroke-miterlimit:10;}
	.st37{fill:#0075FA;stroke:#000000;stroke-miterlimit:10;}
	.st38{fill:#FF056D;}
	.st39{fill:#0066AE;}
	.st40{fill:#FF056D;stroke:#0075FA;stroke-miterlimit:10;}
	.st41{fill:#EDF3F8;stroke:#000000;stroke-miterlimit:10;}
	.st42{fill:#1D1D1B;stroke:#EDF3F8;stroke-miterlimit:10;}
	.st43{fill:#CFB114;}
	.st44{fill:#22A2A9;}
	.st45{fill:#C2BEC8;}
	.st46{fill:#10792E;stroke:#FFFFFF;stroke-miterlimit:10;}
	.st47{fill:#F6FF14;stroke:#000000;stroke-miterlimit:10;}
	.st48{fill:none;stroke:#87C000;stroke-width:8;stroke-linecap:round;stroke-miterlimit:10;}
	.st49{fill:#DEE200;}
	.st50{fill:#008290;}
	.st51{fill:#FFB7B1;}
	.st52{fill:#9400A6;stroke:#000000;stroke-miterlimit:10;}
	.st53{fill:#DF6B54;stroke:#000000;stroke-miterlimit:10;}
	.st54{fill:#C13323;}
	.st55{fill:#5E0089;}
	.st56{fill:#FDB05F;stroke:#000000;stroke-miterlimit:10;}
	.st57{fill:none;stroke:#000000;stroke-miterlimit:10;}
	.st58{fill:#435338;}
	.st59{fill:#580088;}
	.st60{fill:#EBA79C;}
	.st61{fill:#FE5561;stroke:#EBA79C;stroke-miterlimit:10;}
	.st62{fill:#F78100;}
	.st63{fill:#FDB05F;}
	.st64{fill:#8E48D8;stroke:#000000;stroke-miterlimit:10;}
	.st65{fill:#5D22A5;}
	.st66{fill:#87D971;stroke:#000000;stroke-miterlimit:10;}
	.st67{fill:#B8EDA4;}
	.st68{fill:#4EC23A;}
	.st69{fill:#2F2428;}
	.st70{fill:#CD0A36;}
	.st71{fill:#4C4C4C;}
	.st72{fill:#146EE4;stroke:#000000;stroke-miterlimit:10;}
	.st73{fill:#79B2FF;}
	.st74{fill:none;stroke:#79B2FF;stroke-width:11;stroke-miterlimit:10;}
	.st75{fill:#0055B8;}
	.st76{fill:#307DDB;}
	.st77{fill:#4F435F;}
	.st78{fill:#212025;}
	.st79{fill:none;stroke:#67D700;stroke-width:8;stroke-miterlimit:10;}
	.st80{fill:#B1BBBE;stroke:#000000;stroke-miterlimit:10;}
	.st81{fill:#8A8B97;}
	.st82{fill:#505C66;stroke:#747785;stroke-miterlimit:10;}
	.st83{fill:#06D0CC;stroke:#000000;stroke-miterlimit:10;}
	.st84{fill:#0299AF;stroke:#000000;stroke-miterlimit:10;}
	.st85{fill:#019DBA;}
	.st86{fill:#CAC5C0;}
	.st87{fill:#0453BC;}
	.st88{fill:#535353;}
	.st89{fill:#EA772F;stroke:#000000;stroke-miterlimit:10;}
	.st90{fill:#1F2427;}
	.st91{fill:#E05900;}
	.st92{fill:#A8A8B4;}
	.st93{fill:#005898;}
	.st94{fill:#79B2FF;stroke:#000000;stroke-miterlimit:10;}
	.st95{fill:#1D3F89;}
	.st96{fill:#E87140;stroke:#000000;stroke-miterlimit:10;}
	.st97{fill:#002F55;}
	.st98{fill:#59504E;stroke:#000000;stroke-miterlimit:10;}
	.st99{fill:#505C66;}
	.st100{fill:#4D99E4;}
	.st101{fill:#F7A161;}
	.st102{fill:#C13323;stroke:#F7A161;stroke-miterlimit:10;}
	.st103{fill:#D24D91;stroke:#000000;stroke-miterlimit:10;}
	.st104{fill:#923EB9;}
	.st105{fill:#D24D91;}
	.st106{fill:#1C232F;stroke:#D24D91;stroke-miterlimit:10;}
	.st107{fill:#0E7B95;stroke:#000000;stroke-miterlimit:10;}
	.st108{fill:#005E8F;}
	.st109{fill:#E2187D;stroke:#000000;stroke-miterlimit:10;}
	.st110{fill:#00A0EB;stroke:#000000;stroke-miterlimit:10;}
	.st111{fill:#C51971;}
	.st112{fill:#E2187D;}
	.st113{fill:#67D700;stroke:#000000;stroke-miterlimit:10;}
	.st114{fill:#48A333;}
	.st115{fill:#67D700;}
	.st116{fill:#8E48D8;}
	.st117{stroke:#A0A0A0;stroke-miterlimit:10;}
	.st118{fill:#87D971;}
	.st119{fill:#4EC23A;stroke:#000000;stroke-miterlimit:10;}
	.st120{fill:#C72365;}
	.st121{fill:#9712C5;}
	.st122{fill:#307DDB;stroke:#000000;stroke-miterlimit:10;}
	.st123{fill:#D53D1F;}
	.st124{fill:#A9007C;}
	.st125{fill:#CDCB20;}
	.st126{fill:#48A333;stroke:#B1C49B;stroke-miterlimit:10;}
	.st127{fill:none;stroke:#48A333;stroke-width:4;stroke-miterlimit:10;}
	.st128{fill:#5A1F8E;}
	.st129{fill:none;stroke:#5A1F8E;stroke-width:3;stroke-miterlimit:10;}
	.st130{fill:#5A1F8E;stroke:#CC5C9B;stroke-miterlimit:10;}
	.st131{fill:#E81C2F;}
	.st132{fill:#FFEE34;}
	.st133{fill:none;stroke:#024598;stroke-width:8;stroke-linecap:round;stroke-miterlimit:10;}
	.st134{fill:none;stroke:#1D1D1B;stroke-width:4;stroke-miterlimit:10;}
	.st135{fill:none;stroke:#FF056D;stroke-width:6;stroke-linecap:round;stroke-miterlimit:10;}
	.st136{fill:#7A8504;}
	.st137{fill:#121617;stroke:#7A8504;stroke-miterlimit:10;}
	.st138{fill:none;stroke:#00268A;stroke-width:6;stroke-linecap:round;stroke-miterlimit:10;}
	.st139{fill:#145863;}
	.st140{fill:#145863;stroke:#22A2A9;stroke-miterlimit:10;}
	.st141{fill:#54B948;}
	.st142{fill:#6F00A6;stroke:#000000;stroke-miterlimit:10;}
	.st143{fill:none;stroke:#FFFFFF;stroke-width:6;stroke-miterlimit:10;}
	.st144{fill:#14DEAC;}
	.st145{fill:#1466AC;}
	.st146{fill:#757575;}
	.st147{fill:none;stroke:#CD0A36;stroke-width:8;stroke-miterlimit:10;}
	.st148{fill:none;stroke:#67D700;stroke-width:40;stroke-miterlimit:10;}
	.st149{fill:#CD0A36;stroke:#000000;stroke-miterlimit:10;}
	.st150{fill:#ED1C24;}
	.st151{fill:none;stroke:#505C66;stroke-width:3;stroke-miterlimit:10;}
	.st152{fill:none;stroke:#06D0CC;stroke-width:3;stroke-miterlimit:10;}
	.st153{fill:#007AC2;}
	.st154{fill:#EF3D1F;}
	.st155{stroke:#EA772F;stroke-miterlimit:10;}
	.st156{fill:#0068B4;stroke:#000000;stroke-miterlimit:10;}
	.st157{fill:#9712C5;stroke:#000000;stroke-miterlimit:10;}
	.st158{fill:#3D8D28;stroke:#000000;stroke-miterlimit:10;}
	.st159{fill:#68ED3A;}
	.st160{fill:#3D8D28;stroke:#FFFFFF;stroke-miterlimit:10;}
	.st161{fill:#68ED3A;stroke:#000000;stroke-miterlimit:10;}
	.st162{fill:#68ED3A;stroke:#FFFFFF;stroke-miterlimit:10;}
	.st163{fill:#00317D;}
	.st164{fill:#00737D;}
	.st165{fill:#146EE4;}
	.st166{fill:#4D99E4;stroke:#000000;stroke-miterlimit:10;}
	.st167{fill:none;stroke:#FFFFFF;stroke-width:11;stroke-miterlimit:10;}
	.st168{fill:#224754;}
	.st169{fill:#0E7B95;}
	.st170{fill:#FF8400;stroke:#000000;stroke-miterlimit:10;}
	.st171{fill:#00A0EB;}
	.st172{fill:#B9187D;}
	.st173{fill:#015297;}
	.st174{fill:#B0B0B0;}
	.st175{fill:#E1062F;}
	.st176{fill:#005BAB;}
</style>
<path class="st80" d="M436.2,587.9c24.6-3.7,40.5-9.1,40.6-16.9c0-22-2.5-270-2.5-270s42.3,151,52.3,285c49.7-2.2,59-3.3,67.8-9.8
	c0-93.6-20.8-396.5-56.5-478.7c-11.6-26.7-84.7-58.1-155.5-80.1c-24.8-7.7-54.1-9.9-81.7-9.4c-27.8-0.6-61.4,1.3-86.4,9.1
	C143.6,39.2,74.6,70.8,63,97.5C27.2,179.7,6.5,482.7,6.5,576.2c8.8,6.4,17.7,7.6,67.5,9.8c10-134,52-285,52-285s-5.1,248-5.1,270
	c0.2,18.6,86.7,23.8,172.7,24v0c1,0,2.5,0,3.5,0c1,0,2.5,0,3.5,0v0C350.5,594.9,402,593,436.2,587.9"/>
<g>
	<g>
		<path class="st81" d="M227.5,28.7C240.3,46,262,62.5,298.1,62.5c36.2,0,56.3-16.8,67.4-34.5C335.2,31.1,259.9,30.8,227.5,28.7z"/>
		<path class="st82" d="M368.1,1c-17.6,5.3-142.2,2.9-148.6,0.6c-0.1,0.3-0.3,0.7-0.5,1.1c2.2,7.1,6.3,17.5,13.7,27.5
			c29.5,1.9,97.9,2.2,125.6-0.6c6.2-9.9,9.4-20.2,10.9-27.3C368.8,1.8,368.4,1.4,368.1,1z"/>
	</g>
	<path class="st82" d="M369.2,2.3c-4.1,18.7-19,58.7-72.2,58.7c-53.9,0-72.4-40.1-78-58.3c-2.9,5.3-13.9,16.7-13.9,16.7
		s14.4,61,89.9,61c76.5,0,86.6-58.7,87.7-63.1C380.6,16.4,373.4,6.9,369.2,2.3z"/>
</g>
<path class="st99" d="M68.9,88.6c0,0,77.1,9.2,55.7,220c-0.4,79.7-1.8,141.7-2.4,184.6c-0.7,46.5-0.8,70.5-0.8,71.6
	c0,3.2-0.6,7.5,0.8,9.2c0.7,1.1,1.7,2.3,3.4,3.5c4.7,3.4,15.3,6.5,27.3,8.8c-14.2-11.6-10.9-42.8-9.8-72.1s-24-95.4-3-199.4
	c6.8-33.6-5.5-74.9-6-84C130.1,163.2,117.7,97.3,68.9,88.6z"/>
<path class="st99" d="M531.8,89.2c0,0-79.2,0.7-57.7,211.5c2.1,168.9,3.2,265.3,3.2,264.5c0-2.3,0,2.4,0,6.2c0,1.3-0.7,2.6-0.9,2.9
	c-0.7,1.1-2,2.2-3.6,3.4c-4.7,3.4-13.3,5.9-25.1,8.2c14.2-11.6,11.1-41.8,10-71.2c-1.1-29.4,24-95.4,3-199.4
	c-6.8-33.6,1.5-83.4,2-92.4C466.5,155.3,485.2,92.2,531.8,89.2z"/>
<path class="st99" d="M527.4,585.4l-1.3-17.8c14.2-0.6,24.7-0.4,37.9-1.9c14.4-1.6,30-7.3,30-7.3v17.5c0,0-3,2.5-9,4.4
	c-5.2,1.6-21.7,3.6-31.3,3.9C536.5,584.9,527.4,585.4,527.4,585.4z"/>
<path class="st99" d="M73.9,585.4l1.3-17.8c-14.2-0.6-31.4-1-43.5-2.6c-14.4-2-25.2-7-25.2-7l0.1,18.3c0,0,3.4,2.4,9.4,4.3
	c5.2,1.6,21.8,3.4,31.4,3.7C64.8,584.9,73.9,585.4,73.9,585.4z"/>
<line class="st151" x1="159" y1="586.9" x2="130.9" y2="548.7"/>
<line class="st151" x1="232.5" y1="593.5" x2="133.5" y2="459.3"/>
<line class="st151" x1="300.6" y1="592.9" x2="130.9" y2="362.7"/>
<line class="st151" x1="369" y1="592.7" x2="139.3" y2="281.1"/>
<line class="st151" x1="433.1" y1="586.6" x2="126.5" y2="170.9"/>
<line class="st151" x1="464.9" y1="536.7" x2="112" y2="58.1"/>
<line class="st151" x1="469.3" y1="449.6" x2="164.3" y2="36"/>
<line class="st151" x1="254.3" y1="65" x2="219.2" y2="17.5"/>
<line class="st151" x1="472.8" y1="361.4" x2="254.3" y2="65"/>
<line class="st151" x1="466.7" y1="260.2" x2="328.4" y2="72.6"/>
<line class="st151" x1="472.5" y1="175" x2="371.9" y2="38.6"/>
<line class="st151" x1="494.8" y1="111.4" x2="441.7" y2="40.2"/>
<line class="st151" x1="133.9" y1="48.8" x2="95" y2="101.8"/>
<line class="st151" x1="213.7" y1="33.6" x2="122.9" y2="156.8"/>
<line class="st151" x1="256.4" y1="68.8" x2="132.7" y2="236.5"/>
<line class="st151" x1="321.7" y1="73.2" x2="134" y2="327.7"/>
<line class="st151" x1="420.8" y1="31.9" x2="129.7" y2="426.5"/>
<line class="st151" x1="473.6" y1="53.2" x2="137.9" y2="508.4"/>
<line class="st151" x1="480.3" y1="136" x2="150.7" y2="584.7"/>
<line class="st151" x1="466.2" y1="249.2" x2="214.2" y2="591"/>
<line class="st151" x1="472.1" y1="334.2" x2="281.3" y2="592.9"/>
<line class="st151" x1="474.6" y1="423.9" x2="350" y2="592.8"/>
<line class="st151" x1="466.6" y1="527.7" x2="422.5" y2="587.5"/>
<g>
	<g>
		<path class="st2" d="M372.6,229.9c-16.8,0-30.3-13.6-30.3-30.4s13.6-30.4,30.3-30.4s30.4,13.6,30.4,30.4S389.4,229.9,372.6,229.9z
			"/>
		<path class="st153" d="M371.9,170.3c7.8,0,15.2,3.1,20.7,8.6s8.5,12.9,8.5,20.7c0,7.8-3,15.1-8.5,20.6s-12.9,8.6-20.7,8.6
			c-7.8,0-15.1-3.1-20.6-8.6s-8.6-12.8-8.6-20.6s3-15.1,8.5-20.6S364.1,170.3,371.9,170.3 M371.9,168c-17.4,0-31.5,14.1-31.5,31.5
			s14.1,31.5,31.5,31.5c17.4,0,31.5-14.1,31.5-31.5S389.3,168,371.9,168L371.9,168z"/>
	</g>
	<path class="st154" d="M382.6,209.7l-0.5,3.6c0,0-5.8,0-10.5,0v-33.6h0.7l1.7-5.2h-2.3V173h-1.5v1.5h-2l1.3,5.2h0.7v33.5
		c-1.7,0-3.1,0-3.8,0c-2.7,0-2.2-2.8-2.2-2.8l-17.4-3.4l0.6,1.8c0,0,6.8,2.3,8.8,3c-4,1.8,4.1,11.3,4.1,11.3l26.9,0.1l1.8-10.2
		l6.1-0.4l0.6-3.9L382.6,209.7z"/>
	<path class="st153" d="M394.3,207.9c-13-7.4-28.6-7.5-42.4-2.1c-5.4-3.6-9-18.4,0.3-23.5c14.1,0,28.1,0,42.1,0
		C385,188.6,385.5,197.3,394.3,207.9z"/>
	<g>
		<path class="st2" d="M370.1,195.3c0.9,0.3,1.7,0.6,2.6,1c1.9,0.7,3.8,1.4,5.6,1.8c0.6,0.1,1.2,0.2,1.6,0c0.7-0.4,0.4-1.5-0.7-2.4
			c-0.6-0.5-1.3-0.9-1.9-1.3c-0.2-0.2-0.5-0.4-0.7-0.6c-0.2-0.2-0.2-0.5-0.1-0.7s0.4,0,0.5,0c1.2,0.4,2.4,0.6,3.5,0.6
			c0.3,0,0.6-0.1,0.8-0.2c0.2-0.1,0.4-0.2,0.3-0.5c-0.1-0.1-0.2,0-0.3,0c-0.8,0.2-1.5,0.1-2.2-0.5c-0.6-0.5-1.3-0.8-2.1-0.9
			c-0.4,0-0.8,0.1-0.9,0.4c0,0.1-0.1,0.2-0.2,0.2c-0.6,0.4-0.8,0.9-0.3,1.6c0.3,0.5,0.8,0.8,1.3,1.2c0.3,0.2,0.7,0.4,1.1,0.7
			c0.8,0.7,1,1.3,0.3,1.5c-0.9,0.3-2-0.2-3.3-0.8c-0.9-0.5-1.7-1.1-2.4-1.6c-1.5-1.1-2.7-2.3-3.9-3.2c-0.3-0.2-0.6-0.3-0.9-0.5
			c-0.5-0.2-1.1-0.3-1.8,0.1c-0.8,0.4-1.6,0.6-2.4,0.8c0.2-0.1,0.3-0.2,0.4-0.2c1-0.5,2.1-1,3.1-1.6c0.2-0.1,0.4-0.1,0.6-0.1
			c1.6,0,3.2,0,4.9,0c0.8,0,1.4-0.3,1.7-0.9c0.1-0.2,0-0.3-0.2-0.3c-0.9-0.1-1.8-0.1-2.8-0.2c1.5-0.1,3,0,4.5,0.1
			c0.6,0,1.3-0.3,1.7-0.7c0.2-0.2,0.3-0.4-0.1-0.4c-0.6,0-1.1-0.1-1.7-0.1c-0.5-0.1-1.1-0.1-1.6-0.2c0.4,0,0.8,0,1.2,0
			c1.2,0,2.4,0.1,3.6,0.1c0.6,0,1.2-0.1,1.9-0.6c0.4-0.3,0.4-0.4,0-0.4c-1.8-0.1-3.5-0.2-5.2-0.4c2.4,0,4.8,0.1,7.2,0.2
			c0.5,0,1-0.1,1.6-0.3c0.1-0.1,0.2-0.1,0.4-0.2c0.5-0.3,0.5-0.4,0.1-0.4c-2.9-0.1-5.8-0.1-8.7-0.2c-1.6,0-3.3,0-4.9-0.1
			c-0.3,0-0.5,0.1-0.9,0.2c-1.6,0.8-3.1,1.5-4.6,2.2c0.1-0.1,0.3-0.2,0.5-0.3c1.2-0.8,2.6-1.5,4-2.1c0.4-0.2,0.8-0.3,1.1-0.3
			c5.2,0,10.4,0.1,15.6,0.2c0.6,0,1.2-0.1,2-0.4c0.2-0.1,0.4-0.2,0.5-0.2c0.9-0.4,1-0.6,0.4-0.6c-5.9,0-11.8,0-17.6,0
			c-1.7,0-3.3,0.3-5.3,1.3c-2.3,1.2-4.1,2.7-5.9,4.2c-0.1,0.1-0.3,0.3-0.5,0.4c-0.9,0.8-1.2,0.8-1.5,0c0.3-0.1,0.5,0.1,0.7,0.1
			c0.1,0,0.2,0.1,0.3,0c0.1-0.1,0.1-0.2,0.1-0.3c0-0.4-0.1-0.7-0.3-1c0-0.1-0.1-0.1,0-0.2c0.4,0,0.6,0.2,1,0.2
			c0.2,0.1,0.3,0,0.4-0.2c0.7-2.5,0.8-3.7-2.7-3.5c-0.3,0-0.4,0,0-0.2c0.1-0.1,0.2-0.1,0.4-0.2c0.2-0.1,0.2-0.2,0-0.1
			c-1.3,0.2-2.4,0.3-3.7,0.5c-0.8,0.1-1.5,0.3-2.4,0.8c-0.2,0.1-0.4,0.2-0.5,0.4c-0.3,0.2-0.3,0.3,0,0.2c0.5-0.1,1-0.2,1.5-0.3
			c0.2-0.1,0.5-0.1,0.5,0.1c-0.9,0.1-1.6,0.3-2.4,0.4c-0.9,0.1-2,0.6-3,1.2c-0.4,0.3-0.5,0.5-0.3,0.6c0.1,0.1,0.1,0.1,0,0.4
			c-0.5,0.8-0.1,1.1-0.1,1.7c0.3-0.5,0.5-0.9,0.8-1.2c0.6-0.6,1.1-0.7,1.4-0.5c0.4,0.3,0.3,0.8-0.2,1.4c-0.6,0.8-0.9,1-1.6,1
			c-0.2,0-0.3,0-0.4,0.3c-0.3,1,0.3,1.9,1.1,1.8c0.2-0.1,0.2-0.2,0.3-0.3c0.2-0.4,0.5-0.9,0.8-1.2c0.1-0.1,0.2-0.3,0.3-0.2
			c0.1,0,0.1,0.2,0.1,0.3c-0.1,0.4,0,0.4,0.3,0.2c0.6-0.4,1.2-0.8,1.8-1.3c-0.5,0.8-1.2,1.4-1.9,1.9c-0.7,0.5-1.4,1.1-1.9,1.9
			c-0.4,0.6-0.7,1.1-0.8,1.9c0.4-0.5,0.6-1,1-1.2c0.1,0.2,0,0.4-0.1,0.5c-0.2,0.8-0.4,1.6-0.3,2.4c0.1,0.5,0.3,0.9,0.8,1.2
			c0.2,0.1,0.4,0.1,0.3-0.2c0-0.1,0-0.1,0-0.2c0-0.2,0.1-0.6,0.3-0.7c0.2-0.1,0.3,0.2,0.4,0.4c0.3,0.3,0.6,0.5,1,0.6
			c0.2,0.1,0.3,0.1,0.4,0.4c0.3,1.3,0.8,2.3,1.7,3.1c0.1,0.1,0.1,0.2-0.2,0.2c-0.4,0.1-0.7,0.2-1,0.4c-0.5,0.4-0.4,0.9,0.4,1.1
			c0.2,0.1,0.3,0,0.5-0.1c1.1-0.4,2.2-0.9,3.3-1.2c0.2-0.1,0.2-0.2,0.1-0.2c-0.4-0.3-0.8-0.8-1-1.2c-0.1-0.1-0.1-0.2,0-0.3
			c0.6-0.6,1-1.3,1.2-2.2c0,0,0-0.1,0.1-0.1c0.1,0.3,0.1,0.6,0.1,0.9c-0.1,0.2,0.1,0.3,0.4,0.5c0.5,0.2,1,0.4,1.5,0.6
			c0.6,0.2,0.6,0.2,0.2,0.4c-0.8,0.2-0.9,0.6-0.4,0.8c0.2,0.1,0.4,0.2,0.8,0.1c1.1-0.3,2.2-0.5,3.4-0.7c0.3-0.1,0.2-0.1-0.1-0.2
			c-2.2-0.8-3.1-2-3.9-3.5c-0.1-0.2,0-0.3,0.2-0.3c1-0.1,1.9-0.2,2.8-0.5c0.2-0.1,0.3,0,0.4,0.1c1,1,2.4,1.9,4,2.8
			c0.2,0.1,0.4,0.2,0,0.2c-0.4,0-0.8,0-1.1,0.1c-0.7,0.2-0.7,0.5,0.1,0.9c0.2,0.1,0.4,0.1,0.6,0.1c0.9-0.1,1.8-0.1,2.7-0.1
			c0.2,0,0.2,0,0.2-0.1c0.1-0.2,0.1-0.4,0.2-0.6c0-0.1-0.1-0.2-0.4-0.3c-0.5-0.2-0.9-0.5-1.3-0.8c-0.4-0.2-0.4-0.3-0.2-0.4
			c0.3-0.1,0.5-0.3,0.9-0.5c0.1-0.1,0.1-0.1-0.2-0.3c-0.8-0.3-1.6-0.6-2.4-1.1c0.2,0,0.4,0.1,0.5,0.1c2.5,0.9,5.1,1.6,7.5,2
			c0.2,0,0.4,0.1,0.6,0.2c0.6,0.4,1.1,0.8,1.7,1.2c0.3,0.2,0.3,0.3,0,0.2c-0.3-0.1-0.6-0.1-0.9-0.1c-0.3,0.1-0.2,0.3,0.2,0.7
			c0.2,0.2,0.4,0.2,0.6,0.3c1.4,0.2,2.8,0.6,4.2,1c0.2,0.1,0.1,0-0.1-0.2c-2-1.5-3.8-2.8-5.3-4.1c-0.2-0.2-0.4-0.3-0.6-0.3
			c-0.7-0.2-1.4-0.4-2.1-0.5c-0.2-0.1-0.4-0.1-0.5-0.2C371.6,196.5,370.9,195.9,370.1,195.3z"/>
	</g>
	<g>
		<path class="st2" d="M361.2,221.1v-6h2.1v0.8h-1.1v1.6h1.1v0.8h-1.1v2.8H361.2L361.2,221.1z"/>
		<path class="st2" d="M366.1,220.8c-0.2,0.3-0.5,0.4-1,0.4c-0.5,0-0.8-0.1-1-0.4c-0.2-0.3-0.3-0.7-0.3-1.3v-2.6
			c0-0.9,0.2-1.4,0.7-1.7c0.2-0.1,0.4-0.1,0.6-0.1c0.8,0,1.3,0.5,1.3,1.6v0.8h-0.9v-0.8c0-0.3,0-0.5-0.1-0.7s-0.1-0.2-0.3-0.2
			c-0.2,0-0.2,0.1-0.3,0.2c-0.1,0.2-0.1,0.4-0.1,0.7v2.8c0,0.3,0,0.6,0.1,0.7c0,0.2,0.1,0.2,0.3,0.2s0.2-0.1,0.3-0.2
			c0-0.1,0.1-0.4,0.1-0.7v-0.9h0.9v0.8C366.5,220.1,366.4,220.5,366.1,220.8z"/>
		<path class="st2" d="M368.5,221.1v-6h0.9v2.4h0.8v-2.4h0.9v6h-0.9v-2.8h-0.8v2.8H368.5z"/>
		<path class="st2" d="M371.8,221.1l0.9-6h1.2l0.9,6h-0.9l-0.1-1.1h-1l-0.1,1.1H371.8z M373.7,219.3l-0.4-3h0l-0.4,3H373.7z"/>
		<path class="st2" d="M375.4,221.1v-6h0.7l1.3,3.6l-0.1-1.7v-2h0.8v6h-0.6l-1.3-3.8l0,1.6v2.2H375.4z"/>
		<path class="st2" d="M378.9,219.4v-0.6h0.9v0.6c0,0.3,0,0.6,0.1,0.7c0.1,0.1,0.2,0.2,0.3,0.2s0.2-0.1,0.3-0.2
			c0-0.1,0.1-0.3,0.1-0.5s0-0.5-0.1-0.7c-0.1-0.2-0.2-0.4-0.4-0.6l-0.5-0.5c-0.2-0.2-0.4-0.4-0.5-0.7c-0.1-0.2-0.2-0.5-0.2-0.8
			c0-0.5,0.1-0.9,0.3-1.1c0.2-0.2,0.5-0.4,1-0.4c0.5,0,0.8,0.2,0.9,0.4c0.2,0.3,0.2,0.7,0.2,1.2v0.4h-0.8v-0.4c0-0.3,0-0.5-0.1-0.6
			s-0.1-0.2-0.3-0.2c-0.2,0-0.2,0-0.3,0.1c-0.1,0.1-0.1,0.2-0.1,0.4s0,0.3,0.1,0.4c0.1,0.1,0.2,0.2,0.4,0.4l0.5,0.6
			c0.2,0.3,0.4,0.6,0.6,0.8c0.1,0.3,0.2,0.6,0.2,0.9c0,0.6-0.1,1-0.3,1.2c-0.2,0.3-0.5,0.4-1,0.4s-0.8-0.1-1-0.4
			C379,220.4,378.9,220,378.9,219.4z"/>
		<path class="st2" d="M381.9,221.1l0.9-6h1.2l0.9,6H384l-0.2-1.1h-1l-0.1,1.1H381.9z M383.8,219.3l-0.4-3h0l-0.4,3H383.8z"/>
	</g>
</g>
</svg>
