<?xml version="1.0" encoding="utf-8"?>
<!-- Generator: Adobe Illustrator 17.0.0, SVG Export Plug-In . SVG Version: 6.00 Build 0)  -->
<!DOCTYPE svg PUBLIC "-//W3C//DTD SVG 1.1//EN" "http://www.w3.org/Graphics/SVG/1.1/DTD/svg11.dtd" [
	<!ENTITY ns_flows "http://ns.adobe.com/Flows/1.0/">
	<!ENTITY ns_extend "http://ns.adobe.com/Extensibility/1.0/">
	<!ENTITY ns_ai "http://ns.adobe.com/AdobeIllustrator/10.0/">
	<!ENTITY ns_graphs "http://ns.adobe.com/Graphs/1.0/">
]>
<svg version="1.1" id="Layer_1" xmlns:x="&ns_extend;" xmlns:i="&ns_ai;" xmlns:graph="&ns_graphs;"
	 xmlns="http://www.w3.org/2000/svg" xmlns:xlink="http://www.w3.org/1999/xlink" xmlns:a="http://ns.adobe.com/AdobeSVGViewerExtensions/3.0/"
	 x="0px" y="0px" width="600px" height="600px" viewBox="0 0 600 600" style="enable-background:new 0 0 600 600;"
	 xml:space="preserve">
<style type="text/css">
	.st0{fill:#000100;}
	.st1{fill:#E80040;stroke:#000000;stroke-miterlimit:10;}
	.st2{fill:#FCE200;stroke:#000000;stroke-miterlimit:10;}
	.st3{fill:#FEA63F;stroke:#000000;stroke-miterlimit:10;}
	.st4{fill:#FFFFFF;stroke:#000000;stroke-miterlimit:10;}
	.st5{fill:#FFFFFF;}
	.st6{fill:#7C0014;}
	.st7{fill:#75C255;stroke:#000000;stroke-miterlimit:10;}
	.st8{fill:#52B329;}
	.st9{fill:#52BCE0;stroke:#000000;stroke-miterlimit:10;}
	.st10{fill:#48ACD0;}
	.st11{fill:#028CBE;}
	.st12{fill:#52BCE0;}
	.st13{fill:#EFF0F9;stroke:#4E3B64;stroke-miterlimit:10;}
	.st14{fill:#1D5662;stroke:#000000;stroke-miterlimit:10;}
	.st15{fill:#1D5662;}
	.st16{fill:#054049;}
	.st17{fill:#037FC7;}
	.st18{fill:#9158B6;stroke:#000000;stroke-miterlimit:10;}
	.st19{fill:#752EA5;}
	.st20{fill:#2678C7;}
	.st21{fill:#FABFB6;stroke:#000000;stroke-miterlimit:10;}
	.st22{fill:#FABFB6;}
	.st23{fill:#FC8038;stroke:#FABFB6;stroke-miterlimit:10;}
	.st24{fill:#00A39B;}
	.st25{fill:#E53A3E;stroke:#000000;stroke-miterlimit:10;}
	.st26{fill:#E53A3E;}
	.st27{fill:#242424;stroke:#5C377E;stroke-miterlimit:10;}
	.st28{fill:#525252;stroke:#000000;stroke-miterlimit:10;}
	.st29{fill:#4998BB;}
	.st30{fill:#1A7F9E;}
	.st31{fill:#E58000;stroke:#000000;stroke-miterlimit:10;}
	.st32{fill:#BA7500;stroke:#000000;stroke-miterlimit:10;}
	.st33{fill:#DF961C;stroke:#000000;stroke-miterlimit:10;}
	.st34{fill:#DF961C;}
	.st35{fill:#EDF3F8;stroke:#000000;stroke-miterlimit:10;}
	.st36{fill:#DA7600;}
	.st37{fill:#C2BEC8;}
	.st38{fill:#000100;stroke:#FFFFFF;stroke-miterlimit:10;}
	.st39{fill:#A8F001;stroke:#000000;stroke-miterlimit:10;}
	.st40{fill:#0578CD;}
	.st41{fill:#1A58A5;}
	.st42{stroke:#625616;stroke-miterlimit:10;}
	.st43{adobe-knockout:true;}
	.st44{fill:none;stroke:#FFFFFF;stroke-width:3;stroke-miterlimit:10;adobe-knockout:false;}
	.st45{fill:#D71F26;stroke:#000000;stroke-miterlimit:10;}
	.st46{fill:#008183;}
	.st47{fill:#6FC266;}
	.st48{fill:#C4373C;}
	.st49{fill:#00CAB0;}
	.st50{fill:#FAAE1E;}
	.st51{fill:#EC153B;}
	.st52{fill:#00B296;}
	.st53{fill:#F2C958;stroke:#00CAB0;stroke-miterlimit:10;}
	.st54{fill:#FF354F;stroke:#000000;stroke-miterlimit:10;}
	.st55{fill:#0D36A7;stroke:#000000;stroke-miterlimit:10;}
	.st56{fill:#D2D7E2;stroke:#000000;stroke-miterlimit:10;}
	.st57{fill:#CA2B9D;stroke:#000000;stroke-miterlimit:10;}
	.st58{fill:#58006C;stroke:#000000;stroke-miterlimit:10;}
	.st59{fill:#C60021;}
	.st60{fill:#A30F81;}
	.st61{fill:#0159C0;stroke:#A0A0A0;stroke-miterlimit:10;}
	.st62{fill:#013390;}
	.st63{fill:#F08900;}
	.st64{fill:#D20129;}
	.st65{fill:#AD0000;}
	.st66{fill:#131E25;}
	.st67{fill:#DAD2D8;stroke:#000000;stroke-miterlimit:10;}
	.st68{fill:#0066B3;}
	.st69{fill:#969796;}
	.st70{fill:#E86271;}
	.st71{fill:url(#SVGID_1_);stroke:#000000;stroke-miterlimit:10;}
	.st72{fill:#5AB4D2;stroke:#000000;stroke-miterlimit:10;}
	.st73{fill:#5AB4D2;}
	.st74{fill:#FFFFFF;stroke:#5AB4D2;stroke-miterlimit:10;}
	.st75{fill:#073F98;stroke:#0453BC;stroke-miterlimit:10;}
	.st76{fill:#2762C9;stroke:#000000;stroke-miterlimit:10;}
	.st77{fill:#C252FF;}
	.st78{fill:url(#SVGID_2_);}
	.st79{fill:url(#SVGID_3_);}
	.st80{fill:#DAD2D8;}
	.st81{stroke:#000000;stroke-miterlimit:10;}
	.st82{fill:#05297D;stroke:#000000;stroke-miterlimit:10;}
	.st83{fill:#05297D;stroke:#FFFFFF;stroke-miterlimit:10;}
	.st84{fill:#A8A8B4;}
	.st85{fill:url(#SVGID_4_);stroke:#000000;stroke-miterlimit:10;}
	.st86{fill:#53536A;}
	.st87{fill:#073F98;}
	.st88{fill:#098FBC;}
	.st89{fill:url(#SVGID_5_);}
	.st90{fill:#F7A161;}
	.st91{fill:#FF0000;stroke:#000000;stroke-miterlimit:10;}
	.st92{fill:#F54849;stroke:#000000;stroke-miterlimit:10;}
	.st93{fill:url(#SVGID_6_);}
	.st94{fill:url(#SVGID_7_);}
	.st95{fill:#3A72B7;stroke:#000000;stroke-miterlimit:10;}
	.st96{fill:#96C4F0;stroke:#000000;stroke-miterlimit:10;}
	.st97{fill:#C50040;}
	.st98{fill:#D11E24;}
	.st99{fill:#E3E3E7;}
	.st100{stroke:#FFCF2B;stroke-miterlimit:10;}
	.st101{fill:none;stroke:#F9E42A;stroke-miterlimit:10;}
	.st102{fill:#F08900;stroke:#000000;stroke-miterlimit:10;}
	.st103{fill:#F28330;}
	.st104{fill:#FC8038;}
	.st105{fill:#5AB633;}
	.st106{fill:#553658;stroke:#75C255;stroke-miterlimit:10;}
	.st107{fill:#1853A6;}
	.st108{fill:#CB0000;}
	.st109{fill:#0F0D0E;}
	.st110{fill:#636363;}
	.st111{fill:#FFFFFF;stroke:#00A39B;stroke-miterlimit:10;}
	.st112{fill:#D71F26;}
	.st113{fill:#020000;}
	.st114{fill:none;stroke:#000000;stroke-width:0.5;stroke-miterlimit:10;}
	.st115{clip-path:url(#SVGID_9_);}
	.st116{clip-path:url(#SVGID_11_);}
	.st117{clip-path:url(#SVGID_13_);}
	.st118{clip-path:url(#SVGID_15_);}
	.st119{fill:#7A4A00;}
	.st120{fill:none;stroke:#1A7F9E;stroke-width:7;stroke-miterlimit:10;}
	.st121{fill:#E20227;stroke:#4998BB;stroke-miterlimit:10;}
	.st122{fill:#1F2427;}
	.st123{fill:#BA7500;}
	.st124{fill:none;stroke:#BA7500;stroke-width:7;stroke-miterlimit:10;}
	.st125{fill:#843D00;stroke:#000000;stroke-width:0.25;stroke-miterlimit:10;}
	.st126{stroke:#000000;stroke-width:0.25;stroke-miterlimit:10;}
	.st127{fill:#ECEEF3;stroke:#1A58A5;stroke-miterlimit:10;}
	.st128{fill:#233194;}
	.st129{fill:#E0DFE3;}
	.st130{fill:#C2BEC8;stroke:#000000;stroke-miterlimit:10;}
	.st131{fill:#233194;stroke:#000000;stroke-miterlimit:10;}
	.st132{fill:#A40100;}
	.st133{adobe-knockout:false;}
	.st134{fill:#A0AAC1;}
	.st135{fill:#A40100;stroke:#000000;stroke-miterlimit:10;}
	.st136{fill:#92F0D6;}
	.st137{fill:#F2C958;}
	.st138{fill:#CA2B9D;stroke:#CA2B9D;stroke-miterlimit:10;}
	.st139{fill:#A30F81;stroke:#000000;stroke-miterlimit:10;}
	.st140{fill:#7E2B42;}
	.st141{fill:#0D36A7;}
	.st142{fill:#EE1C24;}
	.st143{fill:#0159C0;}
	.st144{stroke:#A0A0A0;stroke-miterlimit:10;}
	.st145{stroke:#4E3B64;stroke-miterlimit:10;}
	.st146{fill:#FDEA00;stroke:#000000;stroke-width:0.217;}
	.st147{fill:#FDEA00;stroke:#000000;stroke-width:0.2326;}
	.st148{fill:#1D1D1B;}
	.st149{fill:#FF0000;}
	.st150{fill:none;stroke:#0453BC;stroke-width:25.435;stroke-miterlimit:10;adobe-knockout:false;}
	.st151{fill:none;stroke:#0453BC;stroke-width:25.4353;stroke-linecap:round;stroke-miterlimit:10;adobe-knockout:false;}
	.st152{fill:#CAC5C0;}
	.st153{fill:#2762C9;}
	.st154{fill:#C252FF;stroke:#000000;stroke-miterlimit:10;}
	.st155{fill:#A54B2D;stroke:#000000;stroke-miterlimit:10;}
	.st156{fill:#A54B2D;}
	.st157{stroke:#A54B2D;stroke-miterlimit:10;}
	.st158{fill:#823311;}
	.st159{fill:none;}
	.st160{fill:#05297D;}
	.st161{fill:none;stroke:#FF7F35;stroke-width:6;stroke-miterlimit:10;}
	.st162{fill:#031DFF;stroke:#000000;stroke-miterlimit:10;}
	.st163{fill:#0370FF;stroke:#000000;stroke-miterlimit:10;}
	.st164{fill:#031DC4;}
	.st165{fill:none;stroke:#0080CA;stroke-width:6;stroke-miterlimit:10;}
	.st166{fill:#031DFF;stroke:#FFFFFF;stroke-miterlimit:10;}
	.st167{fill:#0263B0;}
	.st168{fill:none;stroke:#FFFFFF;stroke-width:2;stroke-miterlimit:10;}
	.st169{fill:url(#SVGID_16_);stroke:#FFFFFF;stroke-miterlimit:10;}
	.st170{fill:url(#SVGID_17_);}
	.st171{fill:url(#SVGID_18_);}
	.st172{fill:url(#SVGID_19_);}
	.st173{fill:#693B0F;stroke:#000000;stroke-miterlimit:10;}
	.st174{fill:#3E4E70;}
	.st175{fill:#F7CE02;}
	.st176{fill:#0551E1;stroke:#000000;stroke-miterlimit:10;}
	.st177{fill:#EC153B;stroke:#000000;stroke-miterlimit:10;}
	.st178{fill:#0831FD;}
	.st179{fill:#0870FD;}
	.st180{fill:none;stroke:#9F3D44;stroke-width:3;stroke-miterlimit:10;}
</style>
<path class="st54" d="M594.5,576.2c0-93.6-20.8-396.5-56.5-478.7c-11.6-26.7-84.7-58.1-155.5-80.1c-24.8-7.7-54.1-9.9-81.7-9.4
	c-27.8-0.6-61.4,1.3-86.4,9.1C143.6,39.2,74.6,70.8,63,97.5C27.2,179.7,6.5,482.7,6.5,576.2c8.8,6.4,17.7,7.6,67.5,9.8
	c10-134,52-285,52-285s-4.1,248-4.1,270c0.2,18.6,87.7,23.8,173.7,24v0c1,0,2.5,0,3.5,0c1,0,2.5,0,3.5,0v0c86-0.2,175-5.4,175.2-24
	c0-22-2.9-270-2.9-270s42.1,151,52.1,285C576.6,583.8,585.7,582.7,594.5,576.2z"/>
<g>
	<g>
		<path class="st54" d="M227.5,28.7C240.3,46,262,62.5,298.1,62.5c36.2,0,56.3-16.8,67.4-34.5C335.2,31.1,259.9,30.8,227.5,28.7z"/>
		<path class="st55" d="M368.1,1c-17.6,5.3-142.2,2.9-148.6,0.6c-0.1,0.3-0.3,0.7-0.5,1.1c2.2,7.1,6.3,17.5,13.7,27.5
			c29.5,1.9,97.9,2.2,125.6-0.6c6.2-9.9,9.4-20.2,10.9-27.3C368.8,1.8,368.4,1.4,368.1,1z"/>
	</g>
	<path class="st55" d="M369.2,2.3c-4.1,18.7-19,58.7-72.2,58.7c-53.9,0-72.4-40.1-78-58.3c-2.9,5.3-13.9,16.7-13.9,16.7
		s14.4,61,89.9,61c76.5,0,86.6-58.7,87.7-63.1C380.6,16.4,373.4,6.9,369.2,2.3z"/>
</g>
<path class="st59" d="M70.4,88.6c0,0,77.1,9.2,55.7,220c-0.4,79.7-1.8,141.7-2.4,184.6c-0.7,46.5-0.8,70.5-0.8,71.6
	c0,3.2-0.6,7.5,0.8,9.2c0.7,1.1,1.7,2.3,3.4,3.5c4.7,3.4,15.3,6.5,27.3,8.8c-14.2-11.6-10.9-42.8-9.8-72.1c1.1-29.4-24-95.4-3-199.4
	c6.8-33.6-5.5-74.9-6-84C131.6,163.1,119.2,97.3,70.4,88.6z"/>
<path class="st59" d="M532.2,89c0,0-79.2,0.7-57.7,211.5c2.1,168.9,3.2,265.3,3.2,264.5c0-2.3,0,2.4,0,6.2c0,1.3-0.7,2.6-0.9,2.9
	c-0.7,1.1-2,2.2-3.6,3.4c-4.7,3.4-13.3,5.9-25.1,8.2c14.2-11.6,11.1-41.8,10-71.2c-1.1-29.4,24-95.4,3-199.4
	c-6.8-33.6,1.5-83.4,2-92.4C467,155.1,485.7,92,532.2,89z"/>
<g>
	<rect x="170" y="112" class="st59" width="21" height="59"/>
	<rect x="219" y="185" class="st59" width="21" height="59"/>
	<rect x="276" y="119" class="st59" width="21" height="59"/>
	<rect x="327" y="177" class="st59" width="21" height="59"/>
	<rect x="380" y="110" class="st59" width="21" height="59"/>
	<rect x="424" y="179" class="st59" width="21" height="59"/>
	<rect x="196" y="117" class="st140" width="12" height="34"/>
	<rect x="150" y="151" class="st140" width="16" height="41"/>
	<rect x="231" y="145" class="st59" width="12" height="34"/>
	<rect x="185" y="179" class="st59" width="16" height="41"/>
	<rect x="301" y="142" class="st140" width="12" height="34"/>
	<rect x="255" y="176" class="st140" width="16" height="41"/>
	<rect x="352" y="149" class="st59" width="12" height="34"/>
	<rect x="306" y="183" class="st140" width="16" height="41"/>
	<rect x="413" y="148" class="st141" width="12" height="34"/>
	<rect x="367" y="182" class="st140" width="16" height="41"/>
	<rect x="434" y="142" class="st140" width="12" height="34"/>
	<rect x="388" y="176" class="st59" width="16" height="41"/>
	<rect x="156" y="107" class="st141" width="8" height="24"/>
	<rect x="170" y="202" class="st141" width="5" height="26"/>
	<rect x="150" y="206" class="st59" width="7" height="24"/>
	<rect x="134" y="141" class="st59" width="10" height="28"/>
	<rect x="216" y="140" class="st140" width="9" height="27"/>
	<rect x="207" y="178" class="st141" width="5" height="30"/>
	<rect x="280" y="191" class="st59" width="10" height="35"/>
	<rect x="255" y="139" class="st141" width="12" height="30"/>
	<rect x="322" y="129" class="st59" width="8" height="34"/>
	<rect x="339" y="146" class="st141" width="4" height="27"/>
	<rect x="354" y="195" class="st140" width="7" height="18"/>
	<rect x="368" y="141" class="st140" width="6" height="30"/>
	<rect x="410" y="191" class="st140" width="4" height="28"/>
	<rect x="453" y="125" class="st59" width="8" height="54"/>
	<rect x="448" y="193" class="st141" width="5" height="19"/>
	<rect x="136" y="122" class="st140" width="8" height="16"/>
</g>
<path class="st141" d="M528.2,585.5l-1.4-17.6c14.2-0.6,23-0.7,36.2-2.2c15.7-1.8,18.3-2.2,31.7-7.4L595,576c0,0-3.5,2.6-9.5,4.5
	c-5.2,1.6-22.7,3.4-32.3,3.8C536.9,584.9,537.7,584.9,528.2,585.5z"/>
<path class="st141" d="M73.9,585.4l1.3-17.8c-14.2-0.6-31.4-1-43.5-2.6c-14.4-2-25.2-7-25.2-7l0.1,18.3c0,0,3.4,2.4,9.4,4.3
	c5.2,1.6,21.8,3.4,31.4,3.7C64.8,584.9,73.9,585.4,73.9,585.4z"/>
<g>
	<g>
		<path class="st5" d="M297.4,224.7c-16.8,0-30.4-13.6-30.4-30.3s13.6-30.4,30.4-30.4s30.4,13.6,30.4,30.4S314.2,224.7,297.4,224.7z
			"/>
		<path class="st142" d="M297.4,165.2c7.8,0,15.1,3.1,20.6,8.6s8.6,12.9,8.6,20.7s-3.1,15.1-8.6,20.6s-12.9,8.6-20.6,8.6
			s-15.1-3.1-20.6-8.6s-8.6-12.8-8.6-20.6s3.1-15.1,8.6-20.6S289.6,165.2,297.4,165.2 M297.4,162.9c-17.4,0-31.5,14.1-31.5,31.5
			s14.1,31.5,31.5,31.5s31.5-14.1,31.5-31.5S314.8,162.9,297.4,162.9L297.4,162.9z"/>
	</g>
	<g>
		<circle class="st5" cx="297.4" cy="194.4" r="26.8"/>
		<path class="st142" d="M297.4,221.8c-15.1,0-27.4-12.3-27.4-27.4s12.3-27.4,27.4-27.4s27.4,12.3,27.4,27.4
			S312.6,221.8,297.4,221.8z M297.4,168.2c-14.4,0-26.1,11.7-26.1,26.1s11.7,26.2,26.1,26.2s26.1-11.7,26.1-26.2
			S311.9,168.2,297.4,168.2z"/>
	</g>
	<circle class="st142" cx="306" cy="200.2" r="14.1"/>
	<path d="M287,198.4c0,1.8-1.1,2.7-2.6,3.2c-0.6,0.2-1.4,0.2-1.7-0.1c-0.8-0.9-0.9-0.1-1.1,0.3c-0.6,1.4-0.2,3,0.9,3.9
		c0.2,0.1,0.3,0.3,0.5,0.4c0.1,0.1,0.1,0.3,0.3,0.6c-0.5,0.1-1,0.3-1.5,0.3c-0.8,0-1.8,0.1-1.2-1.3c0.1-0.2,0-0.6-0.1-0.8
		c-0.9-1.3-0.6-2.9-1.4-4.2c-0.3-0.5,0.1-0.6,0.4-0.8c0.3-0.2,0.7-0.3,1.1-0.6c1.1-0.8,1.4-1.8,0.6-3c-0.1-0.2-0.3-0.4-0.3-0.7
		c-0.1-1.3-0.7-2.1-2.2-2.2c-1,0-1.2-1-1.2-1.9c-0.1-1.2,0.5-2.4-0.1-3.6c1-0.5,1.6,0.5,2.4,0.6c0.2,0.1,0.1,0.2,0.1,0.4
		c-0.4,1,0,1.9,0,2.9c0,0.4,0.2,0.7,0.6,0.9c0.4,0.2,0.5-0.2,0.8-0.5c0.8-0.9,0.8-2.3,1.8-3.1c0.2-0.2,0.3-0.6,0.6-0.1
		c0.1,0.2,0.3,0.1,0.4,0c0.1-0.7,0.3-0.8,1.1-0.8c0.8,0,1.6-2.3,1.3-3c-0.1-0.4-0.6-0.8,0.3-0.8c0.1,0,0.2-0.2,0.2-0.2
		c-0.7-0.8,0.1-1.5,0.1-2.3c-0.1-1.6-0.3-1.8-1.9-2c-0.3,0-0.7,0-1-0.1c-0.2,0-0.5-0.1-0.6-0.4c-0.1-0.3,0.2-0.4,0.5-0.5
		c0.5-0.2,1.1-0.5,1.6-0.7c0.5-0.2,1.1-0.3,1.7-0.4c-0.3-0.3-0.6-0.6-0.2-1c0.5-0.8,0-1.1-0.6-1.3c-1.1-0.4-2,0-2.8,0.8
		c-0.2,0.3-0.4,0.6-0.7,0.9c-0.2-0.8,0.4-1.2,0.6-1.9c-1.4,0.2-1.6,1.4-2.3,2.2c0.1-2.8,2.3-4.3,5-3.6c1.2,0.3,2.2,1.2,3.6,1
		c0.5-0.1,0.8,0.6,1.2,1c1.1,1,2.5,1.3,3.8,2c0.9,0.5,1.3,2.1,0.7,3c-0.2,0.3-0.6,0.6-1,0.4c-1.5-0.6-3.2,0.3-4.9-0.6
		c0.2,0.6,0.5,0.6,0.7,0.7c0.8,0.1,1.3,0.5,1.4,1.4c0,0.6,0.6,1.1,1.1,1.4c0.9,0.8,1.9,1.4,2.4,2.7c0.1-0.6,0.1-1.3,1-0.9
		c0.1,0.1,0.4,0,0.4-0.1c0.8-1.2,1.9-2.3,1.9-3.8c0-0.7,0.2-1.1,1-1.1c0.8,0,1.5,0,2.2-0.7c0.5-0.5,0.9-0.1,1,0.5
		c0.2,1.1-0.8,2-1.9,1.7c-0.5-0.1-0.7,0.2-0.9,0.5c-0.7,1-0.9,2.1-1.4,3.2c-0.3,0.7-0.5,1.3-1.4,1.4c-0.3,0-0.6,0.2-0.9,0.4
		c-1.7,1.2-1.7,1.2-3.5,0.1c0.8,1.5,2.2,2,3.7,1.1c0.7-0.4,1.4-0.9,2.2-1.1c0.9-0.1,1.5,0.4,1.2,1.2c-0.5,1.1,0,2,0.5,2.9
		c0.4,0.7,0.6,1.3,0.1,2c-0.5,0.8-0.1,1.8-0.6,2.5c-1-0.2-1.5-0.8-1.6-1.7c-0.1-0.4-0.1-0.9,0.3-1c1-0.3,0.7-0.9,0.6-1.6
		c0-0.2-0.1-0.5-0.2-0.7c-0.2-0.6-0.2-1.4-0.9-1.6c-0.7-0.2-0.9,0.6-1.2,1c-0.6,0.6-1.2,1.1-2,1c-2-0.2-3.5,1.1-5.3,1.5
		c0,0-0.1,0.1-0.3,0.4c1.2-0.5,1.8,0,2.2,1c0.3,0.9,0.9,1.7,1.2,2.6c0.3,0.9-0.1,1.4-0.9,1.6c-0.8,0.2-1.6,0.4-2.4,0.6
		c-0.9,0.2-1.2,0.8-1,1.7c0.3,1.4,1,2.4,2.3,3.1c0.5,0.3,1,0.6,1.1,1.3c-0.6,0.1-1.1,0.3-1.7,0.4c-0.6,0.1-1.2,0-1.3-0.9
		c0-0.5-0.5-0.8-0.8-1.1c-0.5-0.4-0.9-0.9-1.2-1.4c-0.7-0.9-1.3-1.8,0.2-2.6C287.3,200.4,287.4,199.3,287,198.4z"/>
	<g>
		<path d="M295.2,197.9L295.2,197.9l-1.6,1.1l-0.4-1.7l2.3-1.5l1.8-0.4l0,8.6l-2.1,0.4V197.9z"/>
		<path d="M300.2,203.4c-0.7,0.1-1.3-0.3-1.4-1c-0.2-0.8,0.3-1.6,1.1-1.8c0.7-0.1,1.3,0.3,1.4,1C301.5,202.5,301,203.2,300.2,203.4
			L300.2,203.4z"/>
		<path d="M303.8,193.8l5.3-1v1.9l-3.1,0.6v1.7l3-0.6v1.9l-3,0.6l0,3.4l-2.2,0.4L303.8,193.8z"/>
		<path d="M317,199.9c-0.4,0.3-1.1,0.6-2.2,0.8c-2.3,0.5-4.2-0.6-4.6-2.9c-0.4-2.1,0.3-3.7,1.5-4.8c0.8-0.7,1.8-1.2,3-1.4
			c0.9-0.2,1.7-0.1,2,0l-0.2,1.9c-0.2-0.1-0.8-0.1-1.6,0c-0.7,0.1-1.2,0.4-1.6,0.9c-0.6,0.7-0.9,1.6-0.6,2.8
			c0.2,1.3,1.2,1.9,2.6,1.7c0.6-0.1,1.1-0.3,1.5-0.6L317,199.9z"/>
		<path class="st5" d="M299.2,206.2l1.1-0.2l0,2.1h0c0.1-0.2,0.2-0.4,0.3-0.6l0.9-1.7l1.5-0.3l-1.5,2.4l1.5,2.4l-1.3,0.2l-1-1.8
			l-0.4,0.5v1.5l-1.1,0.2L299.2,206.2z"/>
		<path class="st5" d="M305.3,209.9c-1.2,0.2-2.1-0.5-2.3-1.6c-0.2-0.8,0-1.7,0.4-2.3c0.4-0.5,0.9-0.9,1.6-1
			c1.2-0.2,2.1,0.4,2.3,1.6c0.2,0.8,0,1.7-0.4,2.3C306.6,209.4,306,209.8,305.3,209.9L305.3,209.9z M304.4,205
			c-0.2,0.1-0.5-0.1-0.6-0.4c-0.1-0.3,0.1-0.6,0.5-0.7c0.3-0.1,0.5,0.1,0.6,0.4C304.9,204.6,304.7,204.9,304.4,205L304.4,205z
			 M305.3,208.9c0.2-0.1,0.4-0.2,0.6-0.4c0.3-0.4,0.3-1.2,0.2-1.7c-0.1-0.5-0.4-1-1-0.8c-0.3,0.1-0.5,0.2-0.6,0.4
			c-0.3,0.4-0.3,1.1-0.2,1.6C304.4,208.7,304.7,209,305.3,208.9L305.3,208.9z M305.9,204.7c-0.2,0-0.5-0.1-0.6-0.4
			c-0.1-0.4,0.1-0.6,0.5-0.7c0.3-0.1,0.5,0.1,0.6,0.4C306.4,204.3,306.2,204.6,305.9,204.7L305.9,204.7z"/>
		<path class="st5" d="M308.1,204.5l1.2-0.2l0,3.8l1.8-0.3v1.1l-2.9,0.6L308.1,204.5z"/>
		<path class="st5" d="M311.6,208.6l0-4.8l1.4-0.3l0.7,1.3c0.3,0.6,0.5,1.1,0.8,1.6h0c-0.1-0.5-0.1-1.1-0.1-1.8v-1.4l1.1-0.2l0,4.8
			l-1.2,0.2l-0.8-1.4c-0.3-0.6-0.5-1-0.8-1.6h0c0,0.5,0.1,1.2,0.1,2v1.3L311.6,208.6z"/>
	</g>
</g>
</svg>
