<?xml version="1.0" encoding="utf-8"?>
<!-- Generator: Adobe Illustrator 17.0.0, SVG Export Plug-In . SVG Version: 6.00 Build 0)  -->
<!DOCTYPE svg PUBLIC "-//W3C//DTD SVG 1.1//EN" "http://www.w3.org/Graphics/SVG/1.1/DTD/svg11.dtd" [
	<!ENTITY ns_flows "http://ns.adobe.com/Flows/1.0/">
	<!ENTITY ns_extend "http://ns.adobe.com/Extensibility/1.0/">
	<!ENTITY ns_ai "http://ns.adobe.com/AdobeIllustrator/10.0/">
	<!ENTITY ns_graphs "http://ns.adobe.com/Graphs/1.0/">
]>
<svg version="1.1" id="Layer_1" xmlns:x="&ns_extend;" xmlns:i="&ns_ai;" xmlns:graph="&ns_graphs;"
	 xmlns="http://www.w3.org/2000/svg" xmlns:xlink="http://www.w3.org/1999/xlink" xmlns:a="http://ns.adobe.com/AdobeSVGViewerExtensions/3.0/"
	 x="0px" y="0px" width="600px" height="600px" viewBox="0 0 600 600" style="enable-background:new 0 0 600 600;"
	 xml:space="preserve">
<style type="text/css">
	.st0{fill:#FE0000;stroke:#000000;stroke-miterlimit:10;}
	.st1{fill:#FFFFFF;stroke:#000000;stroke-miterlimit:10;}
	.st2{fill:#FFFFFF;}
	.st3{fill:#7C0014;}
	.st4{fill:#F959FF;stroke:#000000;stroke-miterlimit:10;}
	.st5{fill:#EA24AE;}
	.st6{fill:#0563E1;}
	.st7{fill:#0B0A11;}
	.st8{fill:#004D9B;}
	.st9{fill:#C20000;}
	.st10{fill:#0563E1;stroke:#000000;stroke-miterlimit:10;}
	.st11{fill:url(#SVGID_1_);stroke:#000000;stroke-miterlimit:10;}
	.st12{fill:url(#SVGID_2_);}
	.st13{fill:#8ADAC9;stroke:#000000;stroke-miterlimit:10;}
	.st14{fill:#23495B;stroke:#000000;stroke-miterlimit:10;}
	.st15{fill:#CAC5C0;}
	.st16{fill:#23495B;}
	.st17{fill:#1976C9;stroke:#000000;stroke-miterlimit:10;}
	.st18{fill:#02619F;}
	.st19{fill:#1976C9;}
	.st20{fill:#02619F;stroke:#1976C9;stroke-miterlimit:10;}
	.st21{fill:#77A4CB;stroke:#000000;stroke-miterlimit:10;}
	.st22{stroke:#EDF3F8;stroke-miterlimit:10;}
	.st23{fill:#77A4CB;}
	.st24{fill:#C7CCC4;}
	.st25{fill:#FFFA5B;stroke:#000000;stroke-miterlimit:10;}
	.st26{fill:#1E2A24;}
	.st27{fill:#EBF0F5;stroke:#000000;stroke-miterlimit:10;}
	.st28{fill:url(#SVGID_3_);}
	.st29{fill:url(#SVGID_4_);}
	.st30{fill:#FFB05B;}
	.st31{fill:#4FAFBF;stroke:#000000;stroke-miterlimit:10;}
	.st32{fill:#43DA98;stroke:#000000;stroke-miterlimit:10;}
	.st33{fill:#00B273;}
	.st34{fill:#43DA98;}
	.st35{fill:#00B273;stroke:#000000;stroke-miterlimit:10;}
	.st36{fill:#BC2567;stroke:#FFFFFF;stroke-miterlimit:10;}
	.st37{fill:#8B004D;stroke:#000000;stroke-miterlimit:10;}
	.st38{fill:#5B5B4F;stroke:#000000;stroke-miterlimit:10;}
	.st39{fill:#3A3F40;}
	.st40{fill:#E7C993;}
	.st41{fill:#8B004D;}
	.st42{fill:#5B5B4F;}
	.st43{fill:#F02233;stroke:#000000;stroke-miterlimit:10;}
	.st44{fill:#4E2664;stroke:#000000;stroke-miterlimit:10;}
	.st45{fill:#04829F;}
	.st46{adobe-knockout:true;}
	.st47{fill:none;stroke:#FFFFFF;stroke-width:3;stroke-miterlimit:10;adobe-knockout:false;}
	.st48{fill:#006F8C;}
	.st49{fill:#F32CBB;stroke:#000000;stroke-miterlimit:10;}
	.st50{fill:#C000AD;stroke:#000000;stroke-miterlimit:10;}
	.st51{fill:#6BBA4F;}
	.st52{fill:#03850D;}
	.st53{fill:#97C0DA;stroke:#000000;stroke-miterlimit:10;}
	.st54{fill:#83A5CB;}
	.st55{fill:#0453BC;}
	.st56{fill:#A79F96;}
	.st57{fill:#0CD3CA;stroke:#000000;stroke-miterlimit:10;}
	.st58{fill:#299AB8;}
	.st59{fill:#299AB8;stroke:#000000;stroke-miterlimit:10;}
	.st60{fill:#C000AD;}
	.st61{fill:#0099C7;}
	.st62{fill:#6E4D7F;stroke:#000000;stroke-miterlimit:10;}
	.st63{fill:#04829F;stroke:#000000;stroke-miterlimit:10;}
	.st64{fill:none;stroke:#EA24AE;stroke-width:8;stroke-miterlimit:10;}
	.st65{fill:#F959FF;}
	.st66{fill:#06A600;stroke:#000000;stroke-miterlimit:10;}
	.st67{fill:none;stroke:#15DB51;stroke-width:8;stroke-miterlimit:10;}
	.st68{fill:#06A600;}
	.st69{fill:#15DB51;stroke:#000000;stroke-miterlimit:10;}
	.st70{fill:#069400;}
	.st71{fill:#0066B3;}
	.st72{fill:#003644;}
	.st73{fill:#567481;}
	.st74{fill:none;stroke:#FFFFFF;stroke-width:3;stroke-miterlimit:10;}
	.st75{fill:url(#SVGID_5_);stroke:#FFFFFF;stroke-miterlimit:10;}
	.st76{fill:#B05040;}
	.st77{fill:#5C2633;}
	.st78{fill:none;stroke:#A7747F;stroke-width:3;stroke-miterlimit:10;}
	.st79{fill:#46A0BE;}
	.st80{fill:#005FA5;}
	.st81{fill:#FE9C14;}
	.st82{fill:#FED539;}
	.st83{fill:#3AC919;stroke:#000000;stroke-miterlimit:10;}
	.st84{fill:#2A9F02;}
	.st85{fill:#3AC919;}
	.st86{fill:#2A9F02;stroke:#000000;stroke-miterlimit:10;}
	.st87{fill:#FE144C;}
	.st88{fill:#FE5F39;}
	.st89{fill:#E91B00;}
	.st90{fill:#FE0000;}
	.st91{fill:#0005A4;stroke:#000000;stroke-miterlimit:10;}
	.st92{fill:#000578;}
	.st93{fill:#004FA4;}
	.st94{fill:#0005A4;stroke:#FFFFFF;stroke-miterlimit:10;}
	.st95{fill:#FFE60B;stroke:#000000;stroke-width:1.5;stroke-miterlimit:10;}
	.st96{fill:#ED1C24;}
	.st97{fill:#FFEE34;}
	.st98{fill:#FF4A49;}
	.st99{fill:none;stroke:#000000;stroke-miterlimit:10;}
	.st100{fill:#F97F7A;}
	.st101{fill:#6E4D7F;}
	.st102{fill:#CA0014;}
	.st103{fill:#382351;}
	.st104{fill:#01A663;}
	.st105{fill:#8ABE23;}
	.st106{fill:#1D1D1B;}
	.st107{fill:#FEFEFE;}
</style>
<linearGradient id="SVGID_1_" gradientUnits="userSpaceOnUse" x1="300.4529" y1="7.9582" x2="300.4529" y2="595">
	<stop  offset="6.015625e-03" style="stop-color:#4FAFBF"/>
	<stop  offset="1" style="stop-color:#8ADAC9"/>
	<a:midPointStop  offset="6.015625e-03" style="stop-color:#4FAFBF"/>
	<a:midPointStop  offset="0.5" style="stop-color:#4FAFBF"/>
	<a:midPointStop  offset="1" style="stop-color:#8ADAC9"/>
</linearGradient>
<path class="st11" d="M594.5,576.2c0-93.6-20.8-396.5-56.5-478.7c-11.6-26.7-84.7-58.1-155.5-80.1c-24.8-7.7-54.1-9.9-81.7-9.4
	c-27.8-0.6-61.4,1.3-86.4,9.1C143.6,39.2,74.6,70.8,63,97.5C27.2,179.7,6.5,482.7,6.5,576.2c8.8,6.4,17.7,7.6,67.5,9.8
	c10-134,52-285,52-285s-4.1,248-4.1,270c0.2,18.6,87.7,23.8,173.7,24v0c1,0,2.5,0,3.5,0c1,0,2.5,0,3.5,0v0c86-0.2,175-5.4,175.2-24
	c0-22-2.9-270-2.9-270s42.1,151,52.1,285C576.6,583.8,585.7,582.7,594.5,576.2z"/>
<g>
	<g>
		<linearGradient id="SVGID_2_" gradientUnits="userSpaceOnUse" x1="227.4779" y1="45.2641" x2="365.5922" y2="45.2641">
			<stop  offset="6.015625e-03" style="stop-color:#4FAFBF"/>
			<stop  offset="0.9968" style="stop-color:#EDFFD8"/>
			<a:midPointStop  offset="6.015625e-03" style="stop-color:#4FAFBF"/>
			<a:midPointStop  offset="0.5" style="stop-color:#4FAFBF"/>
			<a:midPointStop  offset="0.9968" style="stop-color:#EDFFD8"/>
		</linearGradient>
		<path class="st12" d="M227.5,28.7C240.3,46,262,62.5,298.1,62.5c36.2,0,56.3-16.8,67.4-34.5C335.2,31.1,259.9,30.8,227.5,28.7z"/>
		<path class="st13" d="M368.1,1c-17.6,5.3-142.2,2.9-148.6,0.6c-0.1,0.3-0.3,0.7-0.5,1.1c2.2,7.1,6.3,17.5,13.7,27.5
			c29.5,1.9,97.9,2.2,125.6-0.6c6.2-9.9,9.4-20.2,10.9-27.3C368.8,1.8,368.4,1.4,368.1,1z"/>
	</g>
	<path class="st13" d="M369.2,2.3c-4.1,18.7-19,58.7-72.2,58.7c-53.9,0-72.4-40.1-78-58.3c-2.9,5.3-13.9,16.7-13.9,16.7
		s14.4,61,89.9,61c76.5,0,86.6-58.7,87.7-63.1C380.6,16.4,373.4,6.9,369.2,2.3z"/>
</g>
<linearGradient id="SVGID_3_" gradientUnits="userSpaceOnUse" x1="111.9189" y1="88.759" x2="111.9189" y2="586.4028">
	<stop  offset="3.242187e-03" style="stop-color:#EDFFD8"/>
	<stop  offset="0.994" style="stop-color:#4FAFBF"/>
	<a:midPointStop  offset="3.242187e-03" style="stop-color:#EDFFD8"/>
	<a:midPointStop  offset="0.5" style="stop-color:#EDFFD8"/>
	<a:midPointStop  offset="0.994" style="stop-color:#4FAFBF"/>
</linearGradient>
<path class="st28" d="M69.9,88.8c0,0,77.1,9.2,55.7,220c-0.4,79.7-1.8,141.7-2.4,184.6c-0.7,46.5-0.8,70.5-0.8,71.6
	c0,3.2-0.6,7.5,0.8,9.2c0.7,1.1,1.7,2.3,3.4,3.5c4.7,3.4,15.3,6.5,27.3,8.8c-14.2-11.6-10.9-42.8-9.8-72.1c1.1-29.4-24-95.4-3-199.4
	c6.8-33.6-5.5-74.9-6-84C131.1,163.3,118.7,97.5,69.9,88.8z"/>
<linearGradient id="SVGID_4_" gradientUnits="userSpaceOnUse" x1="489.6544" y1="89.2033" x2="489.6544" y2="585.89">
	<stop  offset="3.242187e-03" style="stop-color:#EDFFD8"/>
	<stop  offset="0.994" style="stop-color:#4FAFBF"/>
	<a:midPointStop  offset="3.242187e-03" style="stop-color:#EDFFD8"/>
	<a:midPointStop  offset="0.5" style="stop-color:#EDFFD8"/>
	<a:midPointStop  offset="0.994" style="stop-color:#4FAFBF"/>
</linearGradient>
<path class="st29" d="M531.8,89.2c0,0-79.2,0.7-57.7,211.5c2.1,168.9,3.2,265.3,3.2,264.5c0-2.3,0,2.4,0,6.2c0,1.3-0.7,2.6-0.9,2.9
	c-0.7,1.1-2,2.2-3.6,3.4c-4.7,3.4-13.3,5.9-25.1,8.2c14.2-11.6,11.1-41.8,10-71.2c-1.1-29.4,24-95.4,3-199.4
	c-6.8-33.6,1.5-83.4,2-92.4C466.5,155.3,485.2,92.2,531.8,89.2z"/>
<path class="st31" d="M527.4,585.4l-1.6-17.8c14.2-0.6,24.5-0.4,37.6-1.9c14.4-1.6,30.4-7.5,30.4-7.5l0.3,17.5c0,0-3.2,2.7-9.2,4.6
	c-5.2,1.6-21.9,3.5-31.5,3.9C536.2,584.9,527.4,585.4,527.4,585.4z"/>
<path class="st31" d="M73.9,585.4l1.3-17.8c-14.2-0.6-31.4-1-43.5-2.6c-14.4-2-25.2-7-25.2-7l0.1,18.3c0,0,3.4,2.4,9.4,4.3
	c5.2,1.6,21.8,3.4,31.4,3.7C64.8,584.9,73.9,585.4,73.9,585.4z"/>
<g>
	<path class="st74" d="M301,586.3c0,0-6.6-170.9,0.3-177.8c5.4-5.4,8.7,158,8.7,177"/>
	<path class="st74" d="M292.3,585.9c0,0-9.8-190,8.5-195.6c16.6-5,18,169.4,16.8,195.2"/>
	<path class="st74" d="M283.6,585.5c0,0-12.7-208.8,16.7-213.3c27.9-4.3,27.2,180.3,25,213"/>
	<path class="st74" d="M274.9,585.5c0,0-15.7-227.9,24.8-231.5c39.2-3.5,35.7,191.7,32.3,231.1"/>
	<path class="st74" d="M266.2,584.4c0,0-18.7-245.9,33-248.5c50.5-2.6,44.7,203.3,40.2,249.6"/>
	<path class="st74" d="M257.6,584.4c0,0-21.7-264.9,41.2-266.7c61.8-1.7,55,214,49.4,267"/>
	<path class="st74" d="M248.9,584.9c0,0-24.8-284.5,49.3-285.3c73.1-0.9,64.3,224.9,57.6,284.8"/>
	<path class="st74" d="M240.2,584.2c0,0-27.8-303.7,57.5-302.8c84.4,0.9,72.6,236.3,64.7,303"/>
	<path class="st74" d="M231.5,583.5c0,0-10.5-109.3-0.1-200.2c0.3-2.6,0.6-5.2,0.9-7.7c0.6-4.6,0.6-10.6,2.2-15.1
		c0.4-2.5,0.8-4.9,1.3-7.4c9.4-51,27.5-90.1,61.3-89.8c35.1,0.3,55.6,33.8,67,79.7c0.5,2.1,1,4.2,1.5,6.3
		c2.3,15.7,7.3,31.7,7.7,47.6c0.3,2.4,0.5,4.8,0.7,7.1c6.5,69.3,1.3,145.4-3.1,181"/>
	<path class="st74" d="M222.8,582.8c0,0-9-90.3-2.9-177.5c0.2-2.6,0.4-5.3,0.6-7.9c2.5-20.4,2.5-40.4,8.2-60.9
		c0.5-2.4,1-4.7,1.5-7.1c11.1-48.9,31.1-85,66.5-84.4c40.1,0.7,63.1,37.3,75.6,87c0.5,2.1,1,4.2,1.5,6.3c4.2,22.6,6.2,45.6,9.8,68.2
		c0.2,2.4,0.3,4.8,0.5,7.1c4.4,66.7-1,135.7-5.4,170.9"/>
	<path class="st74" d="M214.1,582.1c0,0-8.6-84-4.1-170.3c0.1-2.8,0.3-5.6,0.5-8.4c0.4-24.5,5.4-48.5,8.8-73.1
		c0.5-2.6,1-5.1,1.6-7.6c11.9-55.1,34.3-96.8,75.2-95.9c45.2,1,70.7,40.8,84.3,94.3c0.5,2.1,1,4.1,1.5,6.2
		c3.1,27.5,6.1,54.5,10.9,81.4c0.2,2.4,0.3,4.7,0.4,7.1c3.3,66-2.3,132.4-6.9,168.3"/>
	<path class="st74" d="M205.4,581.4c0,0-8.3-78.1-5-162.9c0.1-2.7,0.2-5.5,0.4-8.2c3.2-30.4,6.2-59.4,9.8-89c0.5-2.6,1-5.1,1.5-7.6
		c12.8-60.1,37.5-106.2,83.4-105c52.2,1.5,80.3,47.4,94.4,107.9c0.5,2.1,1,4.2,1.4,6.3c-0.4,30,3.6,59,10.4,88
		c0.2,2.3,0.3,4.7,0.3,7c2.3,65.1-3.5,129.4-8.3,165.9"/>
	<path class="st74" d="M196.8,580.8c0,0-8.5-77.9-5.5-164.1c0.1-2.7,0.2-5.4,0.3-8.1c5.4-29.6,9.4-58.6,8.9-88.7
		c0.5-2.6,0.9-5.1,1.4-7.7c5.8-30.1,14.2-57.4,26.3-78.5c1.7-3,3.5-5.9,5.4-8.7c5.5-12,16.5-19,26.5-25.8c2.6-1.5,5.2-2.8,8-3.9
		c8.2-3.4,17.2-5,27.1-4.7c3.7,0.1,7.3,0.4,10.8,0.9s6.9,1.2,10.1,2.1c20,4.4,37,16.4,48.1,33.1c2.1,2.7,4.1,5.5,6.1,8.5
		c13.6,20.7,23,47.2,29.4,76.6c0.5,2.1,0.9,4.2,1.3,6.4c-4.9,32.8-0.9,63.8,9.8,94.5c0.1,2.3,0.2,4.6,0.3,6.9
		c1.5,64.3-4.5,126.8-9.5,163.9"/>
	<path class="st74" d="M188.1,580.1c0,0-8.1-73.2-6.2-157.5c0.1-2.6,0.1-5.3,0.2-7.9c9.9-34.6,10.9-67.6,9.7-104
		c0.4-2.6,0.9-5.1,1.4-7.7c4.4-23,10.2-44.6,18-63.3c1.5-3.8,3.2-7.4,4.9-10.9c9-26.8,29-48.8,58.1-54.3c3.2-0.8,6.5-1.3,9.9-1.7
		c3.4-0.3,6.9-0.5,10.6-0.3c3.7,0.1,7.3,0.4,10.8,0.9c3.5,0.5,6.9,1.1,10.2,1.8C344,178,367,194,377.1,221.3c1.9,2.9,3.7,5.9,5.4,9
		c12.2,21.6,20.7,48,26.5,76.7c0.4,2.1,0.8,4.2,1.2,6.4C411,317,412,321,411,324c-14,32-1,60,8.5,90.2c0.1,2.3,0.1,4.5,0.1,6.8
		c0.7,63.5-5.4,124.5-10.6,162.1"/>
	<path class="st74" d="M179.4,579.4c0,0-8.3-73.4-6.6-159.2c0.1-2.6,0.1-5.2,0.2-7.8C174,400,179,389,184,378c10-21-3-40-3.3-61.2
		c0.2-2.6,0.6-5.2,1-7.8c4.1-26.1,9.9-50.9,17.9-72.7c0.7-2,1.5-3.9,2.2-5.9C210,214,211,197,217,181c8-17,31-15,46.2-22.1
		c3.1-1.1,6.4-2,9.7-2.8c6.6-1.5,13.7-2.1,21.2-1.8c4.1,0.2,8.1,0.5,11.9,1c3.9,0.5,7.6,1.2,11.2,2.1C336,164,361,155,374,172
		c10,13,7,32,16.2,45.6c1.9,3.4,3.7,6.9,5.4,10.4c10.2,21.4,17.5,46.2,22.6,72.8c0.4,2.2,0.8,4.4,1.2,6.7C424,327,408,344,409,363
		c0,15,12,26,18,39c2,4,1,7,1.2,10.8c0,2.4,0.1,4.7,0.1,7.1c0.2,63.6-6.2,124.3-11.5,162.9"/>
	<path class="st74" d="M170.7,578.7c0,0-8.5-73.7-7.1-160.9c0-2.6,0.1-5.1,0.2-7.7C164,406,164,402,166,399c16-24,20-50,6-75
		c-2-5-2-11-0.2-16.6c0.4-2.6,0.8-5.2,1.2-7.8c3.6-22.5,8.3-44.2,14.6-63.9c1.3-4,2.6-7.8,4-11.6c8.5-19,5.5-40,7.5-60
		c2-18,25-12,39-15c6-1,11-3,16.4-5.6c2.9-1.3,5.9-2.4,9-3.4c9.2-2.9,19.3-4.2,30.2-3.8c8.3,0.3,16.2,1.4,23.6,3.1
		c3.7,0.8,7.3,1.9,10.9,2.9c16,5.9,34,1.9,51,4.9c10,2,14,10,15,19c1,13-2,28,4.9,40.4c1.7,3.5,3.5,7,5.2,10.6
		c11.7,25.1,19.6,54.6,24.7,85.9c0.4,2.2,0.7,4.5,1,6.7C431,319,428,328,423,335c-20,28,3,49,13.6,72.4c0.1,2.3,0.2,4.7,0.2,7
		c0,65.3-6.8,127.6-12.4,168"/>
	<path class="st74" d="M162,578c0,0-8.7-74-7.5-162.7c0-2.5,0.1-5.1,0.2-7.6C171,378,182,351,163,318c-2-3-1-8-1-12.3
		c0.3-2.6,0.6-5.2,1-7.8c3.9-26.7,9.4-52.5,16.9-75.8c1.3-3.9,2.5-7.7,3.8-11.6C186,206,186,202,187,198c4-20-13-50,11-58
		c16-6,32-3,46.9-11.5c2.8-1.5,5.6-2.8,8.6-4c11.8-4.8,24.9-7.1,39.5-6.5c12.4,0.5,23.8,2.5,34.4,5.7c3.5,1.1,6.9,2.3,10.3,3.6
		C351,135,367,133,382,135c14,2,23,13,23,26c0,14-1,29,5.9,41.7c1.6,3.5,3.2,7,4.7,10.7c10.5,25.4,17.7,54.4,22.4,85
		c0.3,2.2,0.7,4.5,1,6.7c-1,3,2,7,1,10c-12,27-28,56,1,81c5,4,5,13,4.2,19.8c0,2.3-0.1,4.6-0.1,6.9c-1.1,61.9-7.6,120-13.1,159.3"/>
</g>
<g>
	<g>
		<g>
			<path class="st2" d="M399.6,232.1c-16.8,0-30.4-13.6-30.4-30.4s13.6-30.3,30.4-30.3S430,185,430,201.7S416.4,232.1,399.6,232.1z"
				/>
			<path class="st79" d="M399.6,172.5c7.8,0,15.1,3.1,20.6,8.6s8.5,12.8,8.5,20.6s-3,15.1-8.5,20.6s-12.9,8.6-20.6,8.6
				c-7.8,0-15.1-3.1-20.6-8.6s-8.6-12.8-8.6-20.6c0-7.8,3-15.1,8.5-20.6S391.8,172.5,399.6,172.5 M399.6,170.2
				c-17.4,0-31.5,14.1-31.5,31.5s14.1,31.5,31.5,31.5s31.5-14.1,31.5-31.5S417,170.2,399.6,170.2L399.6,170.2z"/>
		</g>
		<g>
			<circle class="st2" cx="399.6" cy="201.7" r="26.8"/>
			<path class="st80" d="M399.6,229.1c-15.1,0-27.4-12.3-27.4-27.4c0-15.1,12.3-27.4,27.4-27.4s27.4,12.3,27.4,27.4
				S414.8,229.1,399.6,229.1z"/>
		</g>
	</g>
	<g>
		<g>
			<path class="st2" d="M380.3,217.5c0.3,0.2,0.9,0.4,1.4,0.4c0.5,0,0.8-0.2,0.8-0.5c0-0.3-0.2-0.4-0.9-0.6
				c-0.9-0.3-1.5-0.8-1.5-1.6c0-1,0.8-1.7,2.2-1.7c0.6,0,1.1,0.1,1.5,0.3l-0.3,1.2c-0.2-0.1-0.7-0.2-1.2-0.2c-0.4,0-0.7,0.1-0.7,0.4
				c0,0.3,0.3,0.4,1,0.7c1,0.4,1.4,0.9,1.4,1.6c0,0.9-0.7,1.8-2.3,1.8c-0.6,0-1.3-0.2-1.6-0.3L380.3,217.5z"/>
			<path class="st2" d="M387.8,218.8c-0.2,0.1-0.6,0.2-1.1,0.2c-1.3,0-2.2-0.8-2.2-2.1c0-1.1,0.8-2.1,2.4-2.1c0.3,0,0.6,0.1,0.9,0.2
				l-0.2,1.1c-0.1,0-0.3-0.1-0.6-0.1c-0.5,0-0.9,0.4-0.9,0.9c0,0.6,0.4,0.9,1,0.9c0.2,0,0.5,0,0.7-0.1L387.8,218.8z"/>
			<path class="st2" d="M388.4,213.2h1.5v2.2h0c0.1-0.1,0.3-0.3,0.5-0.4c0.2-0.1,0.4-0.1,0.6-0.1c0.9,0,1.4,0.6,1.4,1.8v2.3h-1.5
				v-2.1c0-0.5-0.1-0.8-0.5-0.8c-0.3,0-0.4,0.1-0.5,0.3c0,0.1,0,0.2,0,0.2v2.3h-1.5V213.2z"/>
			<path class="st2" d="M396.8,218c0,0.4,0,0.8,0.1,1h-1.3l-0.1-0.4h0c-0.3,0.3-0.7,0.4-1.1,0.4c-0.8,0-1.3-0.6-1.3-1.2
				c0-1.1,1-1.6,2.3-1.6v0c0-0.2-0.1-0.4-0.6-0.4c-0.4,0-0.9,0.1-1.1,0.3l-0.2-0.9c0.2-0.1,0.8-0.4,1.6-0.4c1.4,0,1.9,0.8,1.9,1.8
				L396.8,218L396.8,218z M395.4,217.1c-0.6,0-0.9,0.2-0.9,0.5c0,0.2,0.1,0.4,0.4,0.4c0.2,0,0.4-0.2,0.5-0.4c0-0.1,0-0.2,0-0.2
				L395.4,217.1L395.4,217.1z"/>
			<path class="st2" d="M397.7,213.2h1.5v5.8h-1.5V213.2z"/>
			<path class="st2" d="M401.6,216.6L401.6,216.6c0.1-0.2,0.2-0.4,0.3-0.5l0.7-1.1h1.8l-1.4,1.6l1.6,2.4h-1.8l-0.8-1.5l-0.3,0.4v1.1
				h-1.5v-5.8h1.5V216.6z"/>
			<path class="st2" d="M405.8,217.4c0,0.3,0.5,0.5,1,0.5c0.4,0,0.7-0.1,1.1-0.2l0.2,1c-0.5,0.2-1,0.2-1.5,0.2c-1.4,0-2.2-0.8-2.2-2
				c0-0.9,0.6-2.1,2.1-2.1c1.3,0,1.8,1,1.8,2.1c0,0.2,0,0.4,0,0.6L405.8,217.4L405.8,217.4z M407,216.5c0-0.2-0.1-0.6-0.6-0.6
				c-0.4,0-0.6,0.4-0.6,0.6H407z"/>
			<path class="st2" d="M412.4,219c-1.5,0-2.1-1.3-2.1-2.7c0-1.4,0.6-2.7,2.1-2.7c1.5,0,2.1,1.4,2.1,2.7
				C414.5,217.8,413.8,219,412.4,219L412.4,219z M412.4,217.9c0.4,0,0.6-0.5,0.6-1.6c0-1.1-0.2-1.6-0.6-1.6s-0.6,0.5-0.6,1.6
				C411.8,217.4,412.1,217.9,412.4,217.9L412.4,217.9z"/>
			<path class="st2" d="M417.2,218.9v-1.2H415v-0.9l1.8-3.1h1.8v3h0.6v1.1h-0.5v1.2H417.2z M417.2,216.7v-0.9c0-0.4,0-0.7,0-1.1h0
				c-0.2,0.4-0.3,0.7-0.5,1.1l-0.5,0.9v0H417.2z"/>
		</g>
		<g>
			<path class="st2" d="M380,184.9h16.9v5.8H387v4.8h9.2v5.7H387v10H380V184.9z"/>
			<path class="st2" d="M418.9,210.4c-1,0.5-3.5,1.1-6.6,1.1c-9.8,0-14.1-6.1-14.1-13.1c0-9.2,6.8-13.9,14.6-13.9
				c3,0,5.5,0.6,6.5,1.1l-1.4,5.6c-1.1-0.5-2.8-0.9-4.9-0.9c-4,0-7.5,2.4-7.5,7.7c0,4.8,2.9,7.7,7.7,7.7c1.7,0,3.6-0.3,4.7-0.8
				L418.9,210.4z"/>
		</g>
	</g>
</g>
</svg>
