<?xml version="1.0" encoding="utf-8"?>
<!-- Generator: Adobe Illustrator 17.0.0, SVG Export Plug-In . SVG Version: 6.00 Build 0)  -->
<!DOCTYPE svg PUBLIC "-//W3C//DTD SVG 1.1//EN" "http://www.w3.org/Graphics/SVG/1.1/DTD/svg11.dtd" [
	<!ENTITY ns_flows "http://ns.adobe.com/Flows/1.0/">
	<!ENTITY ns_extend "http://ns.adobe.com/Extensibility/1.0/">
	<!ENTITY ns_ai "http://ns.adobe.com/AdobeIllustrator/10.0/">
	<!ENTITY ns_graphs "http://ns.adobe.com/Graphs/1.0/">
]>
<svg version="1.1" id="Layer_1" xmlns:x="&ns_extend;" xmlns:i="&ns_ai;" xmlns:graph="&ns_graphs;"
	 xmlns="http://www.w3.org/2000/svg" xmlns:xlink="http://www.w3.org/1999/xlink" xmlns:a="http://ns.adobe.com/AdobeSVGViewerExtensions/3.0/"
	 x="0px" y="0px" width="600px" height="600px" viewBox="0 0 600 600" style="enable-background:new 0 0 600 600;"
	 xml:space="preserve">
<style type="text/css">
	.st0{fill:#FE0000;stroke:#000000;stroke-miterlimit:10;}
	.st1{fill:#FFFFFF;stroke:#000000;stroke-miterlimit:10;}
	.st2{fill:#FFFFFF;}
	.st3{fill:#7C0014;}
	.st4{fill:#F959FF;stroke:#000000;stroke-miterlimit:10;}
	.st5{fill:#EA24AE;}
	.st6{fill:#0563E1;}
	.st7{fill:#0B0A11;}
	.st8{fill:#004D9B;}
	.st9{fill:#C20000;}
	.st10{fill:#0563E1;stroke:#000000;stroke-miterlimit:10;}
	.st11{fill:url(#SVGID_1_);stroke:#000000;stroke-miterlimit:10;}
	.st12{fill:url(#SVGID_2_);}
	.st13{fill:#8ADAC9;stroke:#000000;stroke-miterlimit:10;}
	.st14{fill:#23495B;stroke:#000000;stroke-miterlimit:10;}
	.st15{fill:#CAC5C0;}
	.st16{fill:#23495B;}
	.st17{fill:#1976C9;stroke:#000000;stroke-miterlimit:10;}
	.st18{fill:#02619F;}
	.st19{fill:#1976C9;}
	.st20{fill:#02619F;stroke:#1976C9;stroke-miterlimit:10;}
	.st21{fill:#77A4CB;stroke:#000000;stroke-miterlimit:10;}
	.st22{stroke:#EDF3F8;stroke-miterlimit:10;}
	.st23{fill:#77A4CB;}
	.st24{fill:#C7CCC4;}
	.st25{fill:#FFFA5B;stroke:#000000;stroke-miterlimit:10;}
	.st26{fill:#1E2A24;}
	.st27{fill:#EBF0F5;stroke:#000000;stroke-miterlimit:10;}
	.st28{fill:url(#SVGID_3_);}
	.st29{fill:url(#SVGID_4_);}
	.st30{fill:#FFB05B;}
	.st31{fill:#4FAFBF;stroke:#000000;stroke-miterlimit:10;}
	.st32{fill:#43DA98;stroke:#000000;stroke-miterlimit:10;}
	.st33{fill:#00B273;}
	.st34{fill:#43DA98;}
	.st35{fill:#00B273;stroke:#000000;stroke-miterlimit:10;}
	.st36{fill:#BC2567;stroke:#FFFFFF;stroke-miterlimit:10;}
	.st37{fill:#8B004D;stroke:#000000;stroke-miterlimit:10;}
	.st38{fill:#5B5B4F;stroke:#000000;stroke-miterlimit:10;}
	.st39{fill:#3A3F40;}
	.st40{fill:#E7C993;}
	.st41{fill:#8B004D;}
	.st42{fill:#5B5B4F;}
	.st43{fill:#F02233;stroke:#000000;stroke-miterlimit:10;}
	.st44{fill:#4E2664;stroke:#000000;stroke-miterlimit:10;}
	.st45{fill:#04829F;}
	.st46{adobe-knockout:true;}
	.st47{fill:none;stroke:#FFFFFF;stroke-width:3;stroke-miterlimit:10;adobe-knockout:false;}
	.st48{fill:#006F8C;}
	.st49{fill:#F32CBB;stroke:#000000;stroke-miterlimit:10;}
	.st50{fill:#C000AD;stroke:#000000;stroke-miterlimit:10;}
	.st51{fill:#6BBA4F;}
	.st52{fill:#03850D;}
	.st53{fill:#97C0DA;stroke:#000000;stroke-miterlimit:10;}
	.st54{fill:#83A5CB;}
	.st55{fill:#0453BC;}
	.st56{fill:#A79F96;}
	.st57{fill:#0CD3CA;stroke:#000000;stroke-miterlimit:10;}
	.st58{fill:#299AB8;}
	.st59{fill:#299AB8;stroke:#000000;stroke-miterlimit:10;}
	.st60{fill:#C000AD;}
	.st61{fill:#0099C7;}
	.st62{fill:#6E4D7F;stroke:#000000;stroke-miterlimit:10;}
	.st63{fill:#04829F;stroke:#000000;stroke-miterlimit:10;}
	.st64{fill:none;stroke:#EA24AE;stroke-width:8;stroke-miterlimit:10;}
	.st65{fill:#F959FF;}
	.st66{fill:#06A600;stroke:#000000;stroke-miterlimit:10;}
	.st67{fill:none;stroke:#15DB51;stroke-width:8;stroke-miterlimit:10;}
	.st68{fill:#06A600;}
	.st69{fill:#15DB51;stroke:#000000;stroke-miterlimit:10;}
	.st70{fill:#069400;}
	.st71{fill:#0066B3;}
	.st72{fill:#003644;}
	.st73{fill:#567481;}
	.st74{fill:none;stroke:#FFFFFF;stroke-width:3;stroke-miterlimit:10;}
	.st75{fill:url(#SVGID_5_);stroke:#FFFFFF;stroke-miterlimit:10;}
	.st76{fill:#B05040;}
	.st77{fill:#5C2633;}
	.st78{fill:none;stroke:#A7747F;stroke-width:3;stroke-miterlimit:10;}
	.st79{fill:#46A0BE;}
	.st80{fill:#005FA5;}
	.st81{fill:#FE9C14;}
	.st82{fill:#FED539;}
	.st83{fill:#3AC919;stroke:#000000;stroke-miterlimit:10;}
	.st84{fill:#2A9F02;}
	.st85{fill:#3AC919;}
	.st86{fill:#2A9F02;stroke:#000000;stroke-miterlimit:10;}
	.st87{fill:#FE144C;}
	.st88{fill:#FE5F39;}
	.st89{fill:#E91B00;}
	.st90{fill:#FE0000;}
	.st91{fill:#0005A4;stroke:#000000;stroke-miterlimit:10;}
	.st92{fill:#000578;}
	.st93{fill:#004FA4;}
	.st94{fill:#0005A4;stroke:#FFFFFF;stroke-miterlimit:10;}
	.st95{fill:#FFE60B;stroke:#000000;stroke-width:1.5;stroke-miterlimit:10;}
	.st96{fill:#ED1C24;}
	.st97{fill:#FFEE34;}
	.st98{fill:#FF4A49;}
	.st99{fill:none;stroke:#000000;stroke-miterlimit:10;}
	.st100{fill:#F97F7A;}
	.st101{fill:#6E4D7F;}
	.st102{fill:#CA0014;}
	.st103{fill:#382351;}
	.st104{fill:#01A663;}
	.st105{fill:#8ABE23;}
	.st106{fill:#1D1D1B;}
	.st107{fill:#FEFEFE;}
</style>
<path class="st1" d="M6.1,342.8C40.7,232.2,21.2,187.2,67.7,94.2c10.5-21,71.9-57.8,135.8-73.2c0,0,109.7-25.5,180.5-3.5
	s140.3,53.3,151.9,80c35.7,82.1,31.2,191.6,59.7,243.7c-12.5,1.2-81.3,14.4-109.3,19.7c-2.4-7.3-13.4-60-13.4-60s3.2,248,3.2,270
	c-0.2,19-92.8,24-180.8,24s-167.5-10-167.5-26.9c0-16.8,1.1-262.1,1.1-262.1s-3.3,23.3-8.3,56.1C91.3,361.9,16.4,344,6.1,342.8z"/>
<g>
	<g>
		<path class="st2" d="M234.5,28.7C247.3,46,269,62.5,305.1,62.5c36.2,0,56.3-16.8,67.4-34.5C342.2,31.1,266.9,30.8,234.5,28.7z"/>
	</g>
</g>
<path class="st1" d="M6.1,342.8C40.7,232.2,21.2,187.2,67.7,94.2c10.5-21,71.9-57.8,135.8-73.2c0,0,109.7-25.5,180.5-3.5
	s140.3,53.3,151.9,80c35.7,82.1,31.2,191.6,59.7,243.7c-12.5,1.2-81.3,14.4-109.3,19.7c-2.4-7.3-13.4-60-13.4-60s3.2,248,3.2,270
	c-0.2,19-92.8,24-180.8,24s-167.5-10-167.5-26.9c0-16.8,1.1-262.1,1.1-262.1s-3.3,23.3-8.3,56.1C91.3,361.9,16.4,344,6.1,342.8z"/>
<g>
	<g>
		<path class="st2" d="M234.5,28.7C247.3,46,269,62.5,305.1,62.5c36.2,0,56.3-16.8,67.4-34.5C342.2,31.1,266.9,30.8,234.5,28.7z"/>
	</g>
</g>
<path class="st14" d="M6.1,342.8C40.7,232.2,21.2,187.2,67.7,94.2c10.5-21,71.9-57.8,135.8-73.2c0,0,109.7-25.5,180.5-3.5
	s140.3,53.3,151.9,80c35.7,82.1,31.2,191.6,59.7,243.7c-12.5,1.2-81.3,14.4-109.3,19.7c-2.4-7.3-13.4-60-13.4-60s3.2,248,3.2,270
	c-0.2,19-92.8,24-180.8,24s-167.5-10-167.5-26.9c0-16.8,1.1-262.1,1.1-262.1s-3.3,23.3-8.3,56.1C91.3,361.9,16.4,344,6.1,342.8z"/>
<path class="st72" d="M73.8,85.9c0,0,77.1,9.2,55.7,220c-0.9,166-1.1,253.8-1.1,255.9c0,3.2-0.6,7.5,0.8,9.2
	c0.7,1.1,1.7,2.3,3.4,3.5c4.7,3.4,13.4,6.6,25.2,9.1c-14.2-11.6-10.9-42.8-9.8-72.1c1.1-29.4-24-95.4-3-199.4
	c6.8-33.6-5.5-74.9-6-84C135,160.4,122.6,94.6,73.8,85.9z"/>
<path class="st72" d="M530.2,89c0,0-79.2,0.7-57.7,211.5c2.1,168.9,3.2,265.3,3.2,264.5c0-2.3,0,2.4,0,6.2c0,1.3-0.7,2.6-0.9,2.9
	c-0.7,1.1-2,2.2-3.6,3.4c-4.7,3.4-13.3,5.9-25.1,8.2c14.2-11.6,11.1-41.8,10-71.2c-1.1-29.4,24-95.4,3-199.4
	c-6.8-33.6,1.5-83.4,2-92.4C465,155.1,483.7,92,530.2,89z"/>
<g>
	<g>
		<path class="st14" d="M231.5,28.7C244.3,46,266,62.5,302.1,62.5c36.2,0,56.3-16.8,67.4-34.5C339.2,31.1,263.9,30.8,231.5,28.7z"/>
		<path class="st1" d="M372.1,1c-17.6,5.3-142.2,2.9-148.6,0.6c-0.1,0.3-0.3,0.7-0.5,1.1c2.2,7.1,6.3,17.5,13.7,27.5
			c29.5,1.9,97.9,2.2,125.6-0.6c6.2-9.9,9.4-20.2,10.9-27.3C372.8,1.8,372.4,1.4,372.1,1z"/>
	</g>
	<path class="st1" d="M373.2,2.3c-4.1,18.7-19,58.7-72.2,58.7c-53.9,0-72.4-40.1-78-58.3c-2.9,5.3-15.1,16-15.1,16
		s15.6,61.7,91.1,61.7c76.5,0,86.6-58.7,87.7-63.1C384.6,16.4,377.4,6.9,373.2,2.3z"/>
</g>
<path class="st1" d="M123.5,345.1l-2.8,17c0,0-18.3-0.2-54.3-7.2c-18-3.5-53.4-11.4-60.3-12.1c3.2-10.1,5.8-20.6,5.8-20.6
	c13.4,2.5,37.1,9.2,60.5,14.2C97.6,341.9,123.5,345.1,123.5,345.1z"/>
<path class="st1" d="M482.2,342.3l4.1,18.6c0,0,8.8-1.5,44.8-8.5c18-3.5,57.7-10,64.7-10.7c-4.7-9.1-8.7-20.9-8.7-20.9
	c-14,2.7-40.1,7.3-63,12.2C498.7,338.3,482.2,342.3,482.2,342.3z"/>
<g>
	<g>
		<g>
			<path class="st73" d="M168.3,71.1c-1.4,1.2-2.9,2.6-4.4,4.2c-1.5,1.5-3.2,3.2-4.9,5c-0.8,0.9-1.7,1.8-2.6,2.8c-0.8,1-1.7,2-2.6,3
				c-1.7,2.1-3.5,4.3-5.2,6.5c-1.8,2.3-3.4,4.7-5.1,7.2c-1.7,2.5-3.3,5-4.8,7.7c-3,5.3-5.9,10.8-8.2,16.5c-2.4,6-4.3,12.1-5.4,18.1
				c0.6,4.7,1.2,9.4,1.8,14.1c11.2-7.8,19.7-17.1,26.1-26.7c7-10.4,11.7-21.1,15.3-30.8c0.9-2.4,1.7-4.8,2.4-7.1
				c0.7-2.3,1.4-4.5,2-6.6c0.6-2.1,1.1-4.1,1.6-6c0.4-1.9,0.9-3.6,1.3-5.2c1.5-6.4,2-10.5,2-10.5S173.9,66.2,168.3,71.1z"/>
		</g>
		<g>
			<path class="st73" d="M225.2,42.5c0,0,0.8,2.8,1.1,7.4c0.2,2.4,0.1,5.1-0.1,8.1c-0.2,1.5-0.3,3.1-0.7,4.8
				c-0.3,1.6-0.7,3.3-1.2,4.9c-1,3.4-2.4,6.7-4.2,10c-0.9,1.7-1.9,3.2-3,4.7c-1.1,1.5-2.4,3-3.8,4.4c-5.6,5.7-12.8,10.2-23.7,14.4
				c-0.5-2-0.8-4-1-6c-0.1-2-0.1-4.1,0.2-6c0.6-3.9,1.7-7.9,3.5-11.4c0.8-1.8,1.8-3.6,2.8-5.2c1-1.6,2.1-3.2,3.3-4.8
				c2.3-3,4.8-5.8,7.3-8.3c4.9-5,9.8-9.1,13.5-12.2C222.7,44.4,225.2,42.5,225.2,42.5z"/>
		</g>
		<g>
			<path class="st73" d="M174.5,138.5c0,0-3.2,2.5-7.9,6.8c-2.3,2.1-5.1,4.7-8,7.7c-0.7,0.7-1.5,1.5-2.2,2.3
				c-0.8,0.8-1.6,1.6-2.4,2.4c-1.6,1.6-3.2,3.3-4.8,5.1s-3.2,3.6-4.8,5.5c-1.6,1.9-3.1,3.9-4.7,5.9c-3.1,4-6.1,8.2-8.6,12.6
				c-0.1,0.2-0.3,0.5-0.4,0.7c0.9,7.6,1.7,15.2,2.4,22.8c1.9-1,3.8-2,5.6-3.1c2.6-1.6,5-3.2,7.2-5.1c2.2-1.8,4.2-3.8,6.1-5.8
				c1.9-2,3.7-4.1,5.3-6.2c1.6-2.1,3.2-4.2,4.4-6.5c2.6-4.4,4.7-8.9,6.4-13.2c0.9-2.1,1.6-4.2,2.3-6.3c0.6-2.1,1.1-4.1,1.5-6
				c0.9-3.8,1.4-7.3,1.8-10.2C174.6,142.1,174.5,138.5,174.5,138.5z"/>
		</g>
		<g>
			<path class="st73" d="M255.1,78.5c0,0-0.1,1.2-0.4,3.5c-0.3,2.3-0.8,5.6-1.8,9.7c-1.9,8.2-5.6,19.5-11.7,31.7
				c-6.1,12.2-14.6,25.2-25.2,37.2c-5.3,6-11,11.8-17.4,17.4c-6.3,5.6-13.1,10.9-20.7,16.1c1.4-13.8,7.8-28.3,16-41.5
				c8.2-13.3,18.3-25.4,27.5-36.1c9.3-10.6,17.8-19.9,23.8-26.8c1.5-1.7,2.9-3.3,4.1-4.6c1.2-1.4,2.2-2.6,3.1-3.5
				C254.1,79.6,255.1,78.5,255.1,78.5z"/>
		</g>
		<g>
			<path class="st73" d="M204.4,210.5c0,0-0.7,4.3-2.6,11.1c-0.4,1.7-1,3.5-1.6,5.5c-0.5,2-1.1,4.1-1.8,6.4c-0.7,2.2-1.5,4.6-2.3,7
				c-0.8,2.5-1.7,5-2.7,7.6c-4,10.3-9.2,21.9-16.9,33c-7.6,11.2-17.9,22.1-31.5,30.1c0.1-5.9,1.2-11.8,2.7-17.8c1.5-6,3.7-12,6.3-18
				c2.6-5.9,5.7-11.8,9-17.4c1.6-2.8,3.4-5.5,5.2-8.2c1.8-2.6,3.5-5.2,5.4-7.7c7.4-9.9,15.1-17.9,20.9-23.3
				C200.6,213.4,204.4,210.5,204.4,210.5z"/>
		</g>
		<g>
			<path class="st73" d="M267,114.5c0,0-0.5,4.7-2.2,12.4c-0.8,3.8-2,8.4-3.5,13.6c-0.8,2.6-1.6,5.3-2.6,8.1
				c-1.1,2.7-2.2,5.6-3.5,8.5c-2.6,5.8-5.6,12-9.2,18.1c-1.8,3.1-3.8,6.1-5.9,9.1c-2.1,3-4.4,6-6.9,9s-5,5.8-7.8,8.6
				c-2.7,2.8-5.7,5.5-8.8,8.1c-6.2,5.2-13.1,9.9-20.7,13.9c1.1-6.4,3-12.8,5.7-19.3c2.6-6.4,5.9-12.8,9.5-19
				c3.6-6.2,7.6-12.3,11.8-18.1c2.1-2.9,4.1-5.8,6.2-8.6c2.1-2.8,4.2-5.5,6.3-8.1c2.1-2.6,4.2-5.1,6.2-7.5c1-1.2,2-2.4,3-3.5
				c1-1.2,1.9-2.3,2.8-3.4c3.7-4.4,7.1-8.3,10-11.5C263.2,118.3,267,114.5,267,114.5z"/>
		</g>
		<g>
			<path class="st73" d="M350.6,69.4c0,0-2.1,5.7-6.3,14.9c-2.1,4.5-4.6,10.1-7.7,16.2c-1.5,3.1-3.2,6.3-5,9.6
				c-1.7,3.4-3.6,6.9-5.6,10.5c-8.1,14.3-18.1,30.3-30.7,45.8c-12.5,15.5-27.7,30.5-45.7,42.3c2.2-7.9,5.4-16,9.3-24.2
				c3.9-8.2,8.4-16.4,13.4-24.6c5-8.1,10.5-16.1,16.1-23.8c2.8-3.8,5.7-7.6,8.6-11.2c2.9-3.6,5.8-7.2,8.6-10.6
				c2.9-3.4,5.8-6.6,8.6-9.7c1.4-1.5,2.8-3.1,4.1-4.5c1.4-1.5,2.7-2.9,4.1-4.2c2.7-2.7,5.2-5.3,7.6-7.7c2.4-2.4,4.6-4.6,6.8-6.5
				C345.3,73.9,350.6,69.4,350.6,69.4z"/>
		</g>
		<g>
			<path class="st73" d="M407.3,42.5c0,0-1.4,5.7-4.6,14.9c-1.6,4.6-3.5,10.1-5.8,16.3c-1.2,3.1-2.5,6.3-3.8,9.7
				c-1.4,3.4-2.9,6.9-4.5,10.6c-3.2,7.2-7,15-11.3,22.8c-2.2,3.9-4.5,7.9-7,11.8c-2.5,4-5.1,7.9-8,11.8
				c-11.3,15.7-26.2,30.6-43.9,41.3c1.1-3.8,2.4-7.7,3.9-11.5c0.7-1.9,1.5-3.8,2.4-5.8c0.4-1,0.9-1.9,1.3-2.9c0.4-1,0.8-2,1.3-3
				c3.4-7.9,7.7-15.7,12-23.7c2.2-4,4.5-7.9,6.8-11.8c2.3-3.9,4.7-7.8,7.2-11.7c4.9-7.6,9.9-15.1,14.9-22c2.5-3.5,5-6.8,7.4-10
				c2.4-3.2,4.8-6.3,7.1-9.1c2.3-2.9,4.5-5.5,6.6-8c2.1-2.5,4-4.8,5.9-6.8C402.5,47.2,407.3,42.5,407.3,42.5z"/>
		</g>
		<g>
			<path class="st73" d="M401.3,123.5c0,0-1.4,5.6-4.7,14.6c-1.6,4.5-3.7,9.9-6.3,16c-1.3,3-2.7,6.2-4.2,9.5
				c-1.5,3.3-3.1,6.7-4.9,10.2c-3.5,7-7.6,14.3-12.2,21.8c-4.6,7.5-9.6,15.1-15.3,22.6c-2.9,3.7-5.9,7.4-9,11.1
				c-1.6,1.8-3.2,3.6-4.8,5.5c-1.6,1.8-3.3,3.6-5,5.4c-6.8,7.1-14.4,13.8-22.7,20c1.4-7.7,3.9-15.7,7-23.7
				c3.2-8.1,6.9-16.3,11.5-24.1c4.5-7.9,9.4-15.7,14.5-23.2c2.5-3.8,5.2-7.3,7.8-10.8c2.7-3.5,5.3-6.9,7.9-10.2
				c5.3-6.6,10.3-12.7,15.2-18c4.8-5.4,9.2-10.1,12.9-14C396.5,128.1,401.3,123.5,401.3,123.5z"/>
		</g>
		<g>
			<path class="st73" d="M470,96.5c0,0-1.1,5.6-3.9,14.7c-2.7,9.1-7,21.7-13.5,35.9c-3.2,7.1-7.1,14.5-11.5,22
				c-2.2,3.8-4.7,7.5-7.2,11.3c-2.6,3.8-5.2,7.5-8.3,11.2c-11.7,14.8-26.7,28.4-44.5,38.1c1.1-3.7,2.5-7.4,4.1-11.1
				c0.8-1.8,1.6-3.7,2.5-5.5c0.4-0.9,0.9-1.8,1.3-2.8c0.4-0.9,0.9-1.9,1.3-2.8c3.6-7.5,8-15,12.5-22.5c9.2-14.9,19.4-29.8,29.3-42.9
				c9.8-13.2,19.3-24.6,26.3-32.6C465.4,101.2,470,96.5,470,96.5z"/>
		</g>
		<g>
			<path class="st73" d="M452,189.5c0,0-2,7.4-6.3,19.7c-0.5,1.5-1.1,3.2-1.7,4.9c-0.3,0.8-0.6,1.7-0.9,2.6
				c-0.3,0.9-0.7,1.8-1.1,2.7c-1.4,3.6-3,7.5-4.8,11.6c-1.8,4.1-3.6,8.5-5.8,13c-2.2,4.5-4.5,9.1-7,13.9
				c-4.9,9.6-10.9,19.6-17.4,29.9c-0.8,1.3-1.6,2.6-2.5,3.9c-0.9,1.3-1.7,2.5-2.6,3.8c-1.8,2.6-3.6,5.1-5.4,7.7
				c-1.8,2.6-3.7,5.1-5.7,7.7c-1,1.3-1.9,2.6-2.9,3.8c-1,1.3-2,2.5-3,3.8c-4.1,5-8.4,10-12.8,15c-4.4,4.9-9.1,9.7-13.9,14.4
				c-9.6,9.4-20,18.1-31,26c7.8-19.3,20.1-40,33.6-60.5c3.4-5.1,6.9-10.2,10.4-15.3c3.5-5.1,7-10.1,10.6-15
				c3.6-4.9,7.1-9.8,10.6-14.6c3.5-4.8,7.1-9.4,10.4-14c3.4-4.6,6.7-9,9.9-13.2c1.6-2.1,3.2-4.2,4.8-6.2c1.5-2,3-4,4.5-6
				c2.9-3.9,5.7-7.6,8.3-11c1.3-1.7,2.6-3.4,3.8-4.9c1.2-1.6,2.3-3.1,3.5-4.6C446.4,196.6,452,189.5,452,189.5z"/>
		</g>
		<g>
			<path class="st73" d="M450.3,261.7c-1.1,1.5-2.2,3-3.3,4.6c-1.2,1.6-2.3,3.2-3.6,4.8c-2.4,3.3-4.9,6.7-7.3,10.2
				c-2.5,3.5-5.1,7.1-7.6,10.8c-2.6,3.7-5.1,7.5-7.7,11.4c-5.1,7.8-10,15.8-14.6,24c-4.6,8.2-8.6,16.6-12,24.9
				c-1.7,4.1-3.1,8.3-4.4,12.4c-1.2,4.1-2.3,8.2-3,12.2c16.9-13.1,30.9-28.2,42.6-44c11.6-15.8,20.8-32.3,27.4-47.4
				c1.7-3.8,3.2-7.4,4.6-11c0.6-1.5,1.1-3,1.6-4.5c-0.4-7.9-0.8-16-1-24.1c-1.6,2.2-3.4,4.6-5.4,7.2
				C454.6,255.9,452.5,258.7,450.3,261.7z"/>
		</g>
		<g>
			<path class="st73" d="M290.9,201.5c0,0-0.3,1.2-0.9,3.4c-0.6,2.2-1.7,5.3-2.9,9.2c-2.5,7.8-6.1,18.5-10.9,30.7
				c-4.9,12.2-11.3,25.9-20.3,39.3c-4.5,6.7-9.7,13.3-15.7,19.4c-6,6.1-12.8,11.7-20.5,16.4c2-13.3,6.9-27.2,13.3-41.1
				c6.4-13.8,14.5-27.5,22.9-39.2c8.4-11.8,17.1-21.6,23.7-28.1c1.7-1.6,3.2-3.1,4.5-4.4c1.4-1.2,2.6-2.3,3.6-3.1
				C289.8,202.3,290.9,201.5,290.9,201.5z"/>
		</g>
		<g>
			<path class="st73" d="M204.4,276.5c0,0,0.1,3.9-0.6,10.2c-0.4,3.2-0.9,7-1.8,11.2c-0.4,2.1-0.9,4.3-1.6,6.6
				c-0.7,2.3-1.4,4.6-2.3,7c-1.7,4.8-3.8,9.8-6.4,14.8c-2.7,5-5.9,9.9-9.7,14.6c-7.6,9.5-17.7,17.9-30.9,24.1
				c0.3-10.7,4-21.5,9.1-31.7c2.6-5.1,5.5-10,8.7-14.7c3.2-4.7,6.4-9.2,9.7-13.4c1.6-2.1,3.3-4.1,4.9-6c1.6-1.9,3.2-3.7,4.7-5.5
				c3-3.5,5.8-6.5,8.2-9.1C201.1,279.5,204.4,276.5,204.4,276.5z"/>
		</g>
		<g>
			<path class="st73" d="M204.5,360.4c0,0-0.3,0.9-1,2.6c-0.7,1.6-1.8,4-3.1,6.9c-2.8,5.7-6.8,13.4-11.9,21.7c-0.6,1-1.3,2.1-2,3.1
				c-0.7,1-1.3,2.1-2.1,3.2c-1.5,2.1-2.9,4.3-4.5,6.4c-0.8,1.1-1.6,2.1-2.4,3.2c-0.8,1.1-1.7,2.1-2.5,3.2c-0.8,1.1-1.7,2.2-2.6,3.2
				c-0.5,0.5-0.9,1.1-1.4,1.6c-0.5,0.5-0.9,1.1-1.4,1.6c-3.8,4.3-7.8,8.5-12.5,12.9c-4.6,4.4-9.5,8.8-15.3,13.8
				c-0.5-2.7-0.9-5.6-0.9-8.4c0.1-2.9,0.2-5.9,0.8-8.8c0.3-1.5,0.6-3,1-4.5c0.4-1.5,0.9-2.9,1.4-4.4l0.8-2.2
				c0.3-0.7,0.6-1.4,0.9-2.1c0.6-1.4,1.3-2.8,2-4.2c5.8-11.1,14.3-20.7,22.8-28c8.6-7.3,17.1-12.5,23.4-15.9c1.6-0.8,3-1.6,4.3-2.2
				c1.3-0.6,2.4-1.1,3.3-1.5C203.4,360.8,204.5,360.4,204.5,360.4z"/>
		</g>
		<g>
			<path class="st73" d="M293.9,270.5c0,0-0.3,1.5-0.9,4.4c-0.7,2.8-1.6,7-3.3,12.1c-1.6,5.2-3.9,11.2-6.8,18
				c-1.5,3.3-3.1,6.9-5,10.5c-1.9,3.6-3.9,7.4-6,11.2c-4.4,7.6-9.4,15.6-15,23.6c-5.6,8-11.7,16-18.3,23.9
				c-6.6,7.9-13.4,15.9-20.6,23.8c-7.2,8-14.5,16-22.4,24.5c0.2-2.2,0.5-4.4,0.8-6.6c0.4-2.2,0.7-4.6,1.3-6.8
				c1.1-4.5,2.4-9.3,4.2-13.8c0.9-2.3,1.8-4.6,2.8-6.9c1-2.3,2.1-4.5,3.2-6.8c1.1-2.3,2.3-4.5,3.6-6.8c1.3-2.2,2.5-4.5,3.9-6.7
				c10.8-17.5,24-33.4,36-47.4c3-3.5,6-6.8,8.8-10.1c1.4-1.6,2.8-3.2,4.2-4.7c1.3-1.6,2.7-3.1,3.9-4.6c1.3-1.5,2.6-2.9,3.8-4.3
				c1.2-1.4,2.4-2.8,3.5-4.1c1.1-1.3,2.2-2.6,3.3-3.8c1.1-1.2,2-2.4,3-3.6c1.9-2.3,3.6-4.4,5.1-6.2c1.5-1.9,2.7-3.4,3.7-4.7
				C292.7,272,293.9,270.5,293.9,270.5z"/>
		</g>
		<g>
			<path class="st73" d="M347.6,270.5c0,0-0.2,3.7-1.5,9.6c-0.6,3-1.6,6.4-2.9,10.2c-0.7,1.9-1.4,3.9-2.3,6c-0.9,2-1.9,4.1-3,6.2
				c-4.4,8.5-10.7,17.3-19.3,24.7c-8.6,7.4-19.5,13.3-32.9,16.3c1.8-10,6.7-19.4,13-27.9c6.3-8.5,13.8-16.1,21.1-22.6
				c7.2-6.6,14.2-12.1,19.3-16.1C344.2,272.8,347.6,270.5,347.6,270.5z"/>
		</g>
		<g>
			<path class="st73" d="M180.6,447.4c0,0-0.1,0.7-0.2,1.8c-0.2,1.1-0.5,2.7-0.9,4.6c-0.9,3.7-2.3,8.5-4.5,13.1
				c-1.1,2.3-2.4,4.5-3.9,6.5c-0.8,1-1.6,2-2.5,2.9c-0.9,0.9-2,1.8-3,2.7c-4.5,3.4-10.8,6.2-20.7,9.8c-3.4-6.5-2.7-14,0.4-20.3
				c3.2-6.3,8.6-11.2,14-14.3c5.4-3.1,10.8-4.7,14.8-5.6c2-0.4,3.6-0.7,4.8-0.8C180,447.4,180.6,447.4,180.6,447.4z"/>
		</g>
		<g>
			<path class="st73" d="M285,381.4c0,0-2.5,5.5-7.5,14.3c-5,8.8-12.4,20.8-21.8,34.2c-2.3,3.3-4.9,6.7-7.4,10.2
				c-1.3,1.7-2.6,3.5-4,5.2c-1.3,1.8-2.7,3.5-4.1,5.3c-2.9,3.5-5.7,7.2-8.8,10.8c-1.5,1.8-3,3.6-4.6,5.4c-1.6,1.8-3.2,3.6-4.8,5.4
				c-6.5,7.2-13.3,14.5-20.7,21.6c-7.4,7.1-15,14.3-23.4,21.2c2.7-16.3,10.7-34,21.4-50.2c10.8-16.2,24.1-31.1,36.9-43.3
				c12.8-12.3,25.1-22.2,34.1-29.2C279.3,385.4,285,381.4,285,381.4z"/>
		</g>
		<g>
			<path class="st73" d="M302.9,414.4c0,0-0.6,3.1-2.1,7.5c-0.8,2.1-1.6,4.8-2.7,7.6c-0.5,1.4-1.2,2.8-1.8,4.3
				c-0.7,1.5-1.4,3-2.2,4.5c-3.2,6-7.6,12.3-14.2,17.6c-6.6,5.3-15.4,9.6-27.1,10.7c0-4.2,0.8-8.1,2.1-11.9
				c1.3-3.8,3.1-7.3,5.4-10.7c2.2-3.4,4.9-6.5,7.8-9.4c1.4-1.5,3-2.8,4.5-4.1c1.6-1.3,3.1-2.5,4.7-3.7c1.6-1.1,3.2-2.2,4.8-3.2
				c1.6-1,3.1-1.9,4.6-2.7c1.5-0.8,3-1.5,4.4-2.2c1.4-0.6,2.6-1.2,3.9-1.7C299.9,415.2,302.9,414.4,302.9,414.4z"/>
		</g>
		<g>
			<path class="st73" d="M189.6,534.4c0,0-0.4,2.5-1.3,5.8c-0.2,0.8-0.5,1.7-0.7,2.6c-0.2,1-0.5,1.9-0.8,2.9c-0.3,1-0.6,2-1,2.9
				c-0.4,1-0.7,2-1.1,3c-0.4,1-0.9,1.9-1.4,2.8c-0.5,0.9-1,1.8-1.7,2.7c-0.7,0.8-1.3,1.7-2.1,2.5c-0.4,0.4-0.8,0.8-1.3,1.1
				c-0.5,0.4-1,0.7-1.4,1.1c-1,0.7-2.1,1.4-3.5,2.1c-0.7,0.3-1.3,0.6-2.1,1c-0.7,0.3-1.5,0.7-2.3,1c-0.8,0.3-1.7,0.6-2.6,0.9
				c-0.9,0.3-1.8,0.6-2.8,0.9c-2,0.6-4.2,1.2-6.7,1.7c-0.8-1.5-1.3-3.1-1.7-4.6c-0.4-1.5-0.7-3.1-0.6-4.6c0-1.5,0.2-3.1,0.5-4.6
				c0.1-0.4,0.2-0.7,0.3-1.1c0.1-0.4,0.2-0.7,0.4-1.1c0.3-0.7,0.6-1.4,0.9-2.1c0.3-0.7,0.7-1.4,1.1-2.1c0.4-0.7,0.8-1.3,1.3-1.9
				c0.9-1.2,2-2.4,3-3.5c0.5-0.6,1.1-1.1,1.7-1.6c0.6-0.5,1.2-1,1.8-1.4c1.2-0.9,2.4-1.8,3.8-2.4c2.6-1.3,5.1-2.4,7.6-3
				c1.2-0.3,2.4-0.6,3.5-0.8c0.5-0.1,1.1-0.2,1.6-0.3c0.5,0,1-0.1,1.5-0.1C187.3,534.1,189.6,534.4,189.6,534.4z"/>
		</g>
		<g>
			<path class="st73" d="M282,471.5c0,0-0.2,1-0.7,2.7c-0.5,1.7-1.2,4.3-2.3,7.4c-2.2,6.2-6.1,14.6-12,23.3
				c-5.8,8.7-13.5,17.5-22.7,25.2c-4.6,3.8-9.6,7.5-15.2,10.9c-5.5,3.4-11.5,6.7-18.4,10c0.6-11.2,6-22.7,13.4-32.4
				c7.5-9.8,16.7-17.9,25.4-24.6c8.7-6.7,16.8-12.1,22.7-16.1c3-2,5.4-3.6,7.1-4.7C281,472.1,282,471.5,282,471.5z"/>
		</g>
		<g>
			<path class="st73" d="M365.5,384.5c0,0-0.7,3.9-2.7,10c-1,3.1-2.4,6.7-4.1,10.6c-0.9,2-1.9,4.1-3,6.1c-1.1,2.1-2.4,4.2-3.7,6.4
				c-5.4,8.7-12.7,17.7-22.2,25.4c-9.5,7.6-21,13.9-35.2,17.4c1.2-5.3,3.2-10.4,5.9-15.4c2.7-4.9,5.9-9.7,9.6-14.2
				c7.3-9,15.9-16.9,24.2-23.7c4.1-3.4,8.1-6.4,11.8-9.2c3.7-2.8,7.1-5.1,10-7.2C361.8,386.8,365.5,384.5,365.5,384.5z"/>
		</g>
		<g>
			<path class="st73" d="M443.1,354.5c0,0-1.2,5.1-4.2,13.6c-0.4,1.1-0.8,2.2-1.2,3.3c-0.2,0.6-0.4,1.2-0.7,1.8
				c-0.3,0.6-0.5,1.2-0.8,1.8c-1.1,2.4-2.2,5-3.6,7.8c-1.3,2.7-2.7,5.7-4.4,8.6c-1.7,2.9-3.5,5.9-5.4,9
				c-7.8,12.4-18.4,25.4-31.4,37.1c-13,11.6-28.4,21.7-46.1,28.9c2.6-6.7,6.3-13.5,10.5-20.1c4.3-6.6,9.2-13.1,14.5-19.4
				c5.3-6.3,10.8-12.4,16.5-18.2c2.9-2.9,5.6-5.8,8.4-8.6c2.8-2.8,5.6-5.4,8.3-8.1c2.7-2.6,5.3-5.2,7.9-7.6c1.3-1.2,2.6-2.4,3.8-3.6
				c1.2-1.2,2.4-2.3,3.6-3.5c2.3-2.3,4.6-4.4,6.7-6.4c1.1-1,2.1-1.9,3.1-2.9c1-0.9,1.9-1.8,2.8-2.7
				C438.5,358.6,443.1,354.5,443.1,354.5z"/>
		</g>
		<g>
			<path class="st73" d="M308.9,498.4c0,0-0.5,1-1.4,2.7c-0.9,1.7-2.3,4.2-4.1,7.3c-3.6,6.1-8.9,14.3-15.6,23.1
				c-6.7,8.8-14.8,18.2-24.4,27.1c-4.9,4.4-10,8.8-15.8,13c-5.7,4.2-11.9,8.4-18.9,12.5c0.6-12.1,6-24.7,13.8-35.9
				c7.9-11.1,18-20.7,28-28.1c10-7.5,19.6-12.9,26.8-16.4c1.8-0.9,3.4-1.7,4.8-2.3c1.4-0.6,2.7-1.2,3.7-1.6
				C307.8,498.9,308.9,498.4,308.9,498.4z"/>
		</g>
		<g>
			<path class="st73" d="M383.5,468.4c0,0-1.6,3.7-4.8,9.1c-1.6,2.7-3.6,6-5.9,9.5c-1.2,1.8-2.5,3.5-3.9,5.4
				c-1.4,1.9-2.8,3.8-4.4,5.7c-3.2,3.8-6.6,7.8-10.5,11.6c-2,1.9-3.9,3.9-6.1,5.7c-1.1,0.9-2.2,1.8-3.3,2.7
				c-1.1,0.9-2.3,1.8-3.5,2.7c-2.3,1.8-4.8,3.5-7.4,5.1c-1.3,0.8-2.6,1.6-4,2.4c-1.4,0.8-2.7,1.6-4.2,2.3c-1.4,0.7-2.9,1.5-4.4,2.1
				c-1.5,0.7-3,1.4-4.6,2.1c-3.1,1.3-6.5,2.6-10,3.7c0.5-2.7,1.2-5.3,2.1-8c0.9-2.6,1.9-5.3,3.3-7.8c1.3-2.5,2.8-5,4.5-7.5l1.2-1.8
				c0.4-0.6,0.9-1.2,1.3-1.8c0.9-1.2,1.9-2.3,2.8-3.4c7.7-9.2,17.3-16.7,26.5-22.7c2.3-1.5,4.6-2.8,6.8-4.1c2.2-1.3,4.4-2.5,6.5-3.6
				c4.2-2.1,8-4,11.3-5.3C379.4,469.8,383.5,468.4,383.5,468.4z"/>
		</g>
		<g>
			<path class="st73" d="M449.1,411.5c0,0,0.3,2.9-0.1,7.5c-0.2,2.3-0.6,5-1.2,7.9c-0.6,3-1.6,6.1-3,9.2c-1.4,3.2-3.1,6.4-5.3,9.5
				c-2.2,3-4.9,5.9-8.1,8.4c-3.2,2.5-6.9,4.7-11.3,6.4c-4.4,1.6-9.4,2.8-15,3.2c-0.1-8.1,2.8-15.3,6.9-21.6c2.1-3.1,4.5-6,7.1-8.7
				c1.3-1.3,2.6-2.6,4-3.8c1.3-1.2,2.7-2.4,4.1-3.5c2.7-2.2,5.6-4.2,8.1-5.9c2.5-1.8,4.9-3.3,6.9-4.6
				C446.3,412.9,449.1,411.5,449.1,411.5z"/>
		</g>
		<g>
			<path class="st73" d="M428.2,480.5c0,0-0.2,1-0.5,2.8c-0.4,1.8-1,4.5-2.2,7.7c-1.1,3.2-2.7,7-4.9,11.1c-1.1,2-2.3,4.1-3.7,6.3
				c-1.4,2.1-2.8,4.3-4.5,6.4c-3.2,4.3-7,8.6-11.1,12.7c-2.1,2.1-4.2,4-6.5,6c-2.2,2-4.6,3.8-7,5.7c-4.9,3.6-9.9,7.1-15.6,10.5
				c-1.4,0.9-2.8,1.7-4.3,2.5c-1.5,0.9-2.9,1.7-4.5,2.6c-0.8,0.4-1.6,0.9-2.4,1.3c-0.8,0.5-1.6,0.9-2.3,1.4c-1.6,0.9-3.2,1.8-5,2.7
				c0.1-2.8,0.5-5.8,1.2-8.7c0.4-1.4,0.8-2.9,1.3-4.3c0.2-0.7,0.5-1.5,0.8-2.2c0.3-0.7,0.6-1.4,0.9-2.1c0.6-1.4,1.3-2.8,2.1-4.2
				c0.8-1.4,1.6-2.7,2.4-4.1c1.7-2.7,3.6-5.2,5.6-7.7c8.2-9.8,18.2-17.5,27.2-23.8c9.1-6.3,17.3-11.5,23.2-15.7c1.5-1,2.8-2,4-2.8
				c1.2-0.9,2.1-1.6,3-2.2C427.3,481.2,428.2,480.5,428.2,480.5z"/>
		</g>
		<g>
			<path class="st73" d="M443.1,528.5c0,0,0.1,2.7-0.5,7c-0.3,2.2-1,4.6-2,7.3c-0.9,2.7-2.3,5.4-4,8.1c-0.4,0.7-0.9,1.4-1.3,2
				c-0.5,0.6-1,1.3-1.5,1.9c-1,1.3-2.2,2.5-3.4,3.7c-2.4,2.3-5.3,4.4-8.6,5.9c-6.6,3.2-14.5,4.6-25.5,3.8c0.2-3.8,1.2-7.5,2.7-10.7
				c1.5-3.2,3.6-6.2,6-8.7c4.8-5.1,10.7-8.7,16.4-11.5c2.7-1.4,5.6-2.6,8.1-3.7c2.5-1.1,4.9-2,6.9-2.8
				C440.4,529.4,443.1,528.5,443.1,528.5z"/>
		</g>
		<g>
			<path class="st73" d="M303.1,555.3c0,0-0.2,0.5-0.5,1.4c-0.3,0.9-0.8,2.1-1.2,3.5c-1,2.8-1.9,6.2-2.9,8.9
				c-0.2,0.7-0.5,1.3-0.8,1.9c-0.1,0.3-0.3,0.6-0.5,0.8c-0.2,0.3-0.3,0.5-0.5,0.8c-0.4,0.4-0.8,0.9-1.4,1.2c-0.5,0.4-1.2,0.7-1.9,1
				c-3.1,1.2-8.3,1.7-17.4,4.1c-4.2-4.7-4.6-10.7-2.2-15.7c2.3-4.9,7.2-8.5,12-9.9c4.9-1.5,9.5-1,12.5-0.1c0.8,0.2,1.5,0.5,2,0.7
				c0.6,0.3,1.1,0.5,1.5,0.7C302.7,555.1,303.1,555.3,303.1,555.3z"/>
		</g>
		<g>
			<path class="st73" d="M443.2,51.4c0,0-0.1,0.7-0.2,2c-0.2,1.3-0.4,3-0.7,5.2c-0.7,4.3-1.5,9.8-3.2,15.7c-1.7,5.8-4.3,12-9.1,17.9
				c-4.8,5.8-11.8,11.4-22.4,15.3c-2.5-7.6-1.9-15.2,0.7-22.4c2.5-7.2,7.2-13.9,12.3-19.3c5.2-5.4,11-9.2,15.3-11.4
				c1.1-0.5,2.1-1,3-1.4c0.9-0.4,1.7-0.7,2.3-0.9C442.5,51.6,443.2,51.4,443.2,51.4z"/>
		</g>
		<g>
			<path class="st73" d="M497.5,105.4c-5,2.2-11.8,6.1-18.2,11.5c-6.4,5.4-12.6,12.1-16.9,19.6c-4.4,7.5-7,15.6-6.8,24.3
				c6.7-1.4,12.4-3.7,17.2-6.5c1.5-4.2,3.2-8.3,5.1-12.4c4.2-13.3,11.9-25.6,20.8-36.9C498.3,105,497.9,105.2,497.5,105.4z"/>
		</g>
	</g>
	<g>
		<g>
			<path d="M209.7,153.8c0,0-4.6,13.6-14.4,31.2c-2.4,4.4-5.2,9-8.3,13.7c-3.1,4.7-6.6,9.5-10.4,14.2c-7.6,9.4-16.6,18.5-26.8,26.1
				c3.2-9.3,8.6-19.2,14.9-28.8c3.1-4.8,6.5-9.6,9.9-14.2c3.4-4.6,6.8-9.1,10.1-13.3C197.9,166,209.7,153.8,209.7,153.8z"/>
		</g>
		<g>
			<path d="M293.8,102.9c0,0-0.3,0.7-0.9,1.9c-0.6,1.2-1.5,2.9-2.6,5c-2.2,4.3-5.2,10.2-8.7,17.2c-3.5,6.9-7.6,14.8-12.8,22.8
				c-5.1,8-11.4,16.1-19.4,22.9c1-7.9,3.7-16.4,7.6-24.9c3.9-8.4,8.9-16.7,14.3-23.6c5.4-6.9,11-12.4,15.3-16
				c1.1-0.9,2.1-1.7,2.9-2.3c0.9-0.6,1.7-1.2,2.3-1.6C293.1,103.4,293.8,102.9,293.8,102.9z"/>
		</g>
		<g>
			<path d="M241,224.2c0,0-1.6,2.8-4.4,7.2c-1.5,2.1-3,4.9-5,7.9c-0.5,0.7-1,1.5-1.5,2.3c-0.5,0.8-1.1,1.6-1.6,2.4
				c-1,1.7-2.1,3.4-3.3,5.2c-0.6,0.9-1.2,1.8-1.8,2.7c-0.6,0.9-1.2,1.9-1.8,2.8c-1.2,1.9-2.5,3.9-3.8,5.8c-0.7,1-1.3,2-2,3
				c-0.7,1-1.3,2-2.1,3.1s-1.4,2-2.2,3.1c-0.4,0.5-0.7,1-1.1,1.5c-0.4,0.5-0.7,1.1-1.1,1.6c-1.5,2.1-3,4.2-4.7,6.3
				c-0.8,1-1.6,2.1-2.4,3.2c-0.8,1.1-1.7,2.1-2.5,3.2c-0.9,1-1.8,2.1-2.7,3.1c-0.9,1-1.8,2.1-2.7,3.1c-1.8,2.1-3.8,4.1-5.8,6.2
				c0.3-2.1,0.6-4.3,1.1-6.6c0.5-2.2,1-4.6,1.9-6.9c1.6-4.6,3.5-9.3,6-13.8c4.7-9.2,11.2-17.7,17.4-24.8c1.7-1.7,3.3-3.4,4.8-5
				c1.6-1.6,3.1-3.1,4.7-4.4c1.5-1.3,3-2.6,4.4-3.7c1.4-1.1,2.6-2.2,3.9-3.1C237.9,226.2,241,224.2,241,224.2z"/>
		</g>
		<g>
			<path d="M332.9,177.3c0,0-0.1,0.8-0.5,2.2c-0.3,1.4-0.8,3.5-1.7,6.1c-1.6,5.2-4.6,12.3-9.3,20c-4.6,7.7-10.8,15.8-18,23.4
				c-3.6,3.8-7.5,7.6-11.6,11.2c-4.1,3.6-8.4,7.1-13,10.6c2.1-8.5,7.2-17.5,13.2-25.7c6-8.2,13-15.9,19.2-22.7
				c6.2-6.8,11.7-12.9,15.6-17.6c1-1.1,1.8-2.2,2.6-3.1c0.7-0.9,1.4-1.7,1.9-2.4C332.3,178.1,332.9,177.3,332.9,177.3z"/>
		</g>
		<g>
			<path d="M415.1,122.6c0,0,0,0.9-0.1,2.5c0,0.8-0.1,1.8-0.2,3c-0.1,1.2-0.4,2.5-0.6,4c-0.3,1.5-0.6,3.2-1.1,4.9
				c-0.3,0.9-0.5,1.8-0.8,2.7c-0.3,1-0.6,1.9-0.9,2.9c-0.7,2-1.5,4.1-2.5,6.2c-0.5,1.1-1,2.1-1.5,3.2c-0.5,1.1-1.1,2.2-1.7,3.3
				c-4.8,8.9-11.7,18.4-20,26.9c-4.2,4.3-8.7,8.4-13.4,12.3c-4.8,3.9-9.8,7.5-15.1,11c3.5-9.1,9.9-18.4,16.9-27.2
				c7-8.9,14.6-17.4,21-25.3c6.4-7.9,11.7-15.4,15-21.1c0.8-1.4,1.6-2.7,2.2-3.9c0.6-1.2,1.1-2.2,1.5-3
				C414.6,123.5,415.1,122.6,415.1,122.6z"/>
		</g>
		<g>
			<path d="M405.4,224.2c0,0-0.6,0.6-1.7,1.8c-0.5,0.6-1.2,1.2-2,2c-0.8,0.8-1.6,1.8-2.6,2.8c-3.8,4.1-8.9,10.1-14.4,17.4
				c-5.6,7.3-11.7,15.7-18.8,24.4c-7,8.7-15,17.6-24.5,25.2c2.4-8.9,6.9-18.7,12.7-28.1c5.8-9.4,13-18.4,20.6-25.6
				c7.5-7.2,15.2-12.5,21-15.6c1.5-0.7,2.8-1.4,4-2c1.2-0.5,2.2-0.9,3.1-1.3C404.5,224.6,405.4,224.2,405.4,224.2z"/>
		</g>
		<g>
			<path d="M301.7,296.6c0,0-0.6,0.8-1.6,2.2c-0.5,0.7-1.2,1.5-2,2.5c-0.8,1-1.6,2.2-2.6,3.4c-3.8,5-8.9,12.3-14.7,20.8
				c-5.8,8.6-12.3,18.4-19.7,28.6c-3.7,5.1-7.6,10.2-11.8,15.3c-4.2,5.1-8.7,10-13.5,14.7c2.4-10,7.1-21.1,13.1-31.8
				c6.1-10.7,13.6-21.1,21.3-29.6c7.7-8.6,15.6-15.3,21.5-19.6c1.5-1,2.9-2,4.1-2.8c1.2-0.8,2.3-1.4,3.2-1.9
				C300.7,297.2,301.7,296.6,301.7,296.6z"/>
		</g>
		<g>
			<path d="M221.5,331.8c0,0-1.3,2.4-3.8,6.1c-1.3,1.8-2.6,4.1-4.3,6.6c-0.8,1.2-1.7,2.5-2.6,3.9c-0.9,1.4-1.8,2.8-2.8,4.3
				c-2.1,2.8-4.1,6.1-6.5,9.2c-1.2,1.6-2.4,3.3-3.7,4.9c-1.3,1.6-2.7,3.2-4.1,4.9c-5.6,6.5-12.3,13-20.6,18.2
				c1.5-7.2,4.8-14.7,9.3-21.9c1.1-1.8,2.3-3.6,3.5-5.3c1.3-1.7,2.6-3.4,3.9-5.1c1.3-1.7,2.7-3.2,4.2-4.8c1.4-1.5,2.8-3,4.2-4.4
				c1.5-1.4,2.9-2.7,4.3-3.9c0.7-0.6,1.4-1.2,2.1-1.8c0.7-0.6,1.4-1.1,2.1-1.6c1.4-1,2.7-2,3.9-2.8c1.2-0.9,2.4-1.7,3.5-2.3
				C218.7,333.2,221.5,331.8,221.5,331.8z"/>
		</g>
		<g>
			<path d="M199.9,433.6c0,0,0.1,2.3-0.3,6.3c-0.1,1-0.2,2.1-0.4,3.2c-0.2,1.1-0.5,2.4-0.8,3.7c-0.3,1.3-0.6,2.7-1.1,4.1
				c-0.4,1.4-1,2.9-1.5,4.4c-0.6,1.5-1.2,3.1-1.9,4.6c-0.7,1.5-1.5,3.1-2.4,4.6c-1.7,3.1-3.9,6.2-6.2,9.2
				c-4.8,5.9-10.7,11.2-18,15.8c0.4-3.2,1.1-6.6,2.3-9.8c1.2-3.3,2.8-6.5,4.5-9.7c1.8-3.2,3.7-6.2,5.7-9.1c1-1.5,2-2.9,3-4.3
				c1-1.4,2-2.7,3-4.1c1.9-2.7,3.9-5.1,5.5-7.4c0.8-1.1,1.6-2.2,2.4-3.2c0.4-0.5,0.8-1,1.1-1.5c0.3-0.5,0.6-0.9,1-1.4
				C198.2,435.8,199.9,433.6,199.9,433.6z"/>
		</g>
		<g>
			<path d="M295.8,382.7c0,0-0.4,0.7-1.1,2c-0.7,1.3-1.8,3.2-3.2,5.6c-2.9,4.7-7.2,11.1-12.9,18c-5.6,7-12.5,14.4-20,21.8
				c-3.8,3.7-7.7,7.4-11.8,11.1c-4.1,3.7-8.4,7.4-12.9,11.1c1.9-8.7,7-18.1,13.4-26.5c6.5-8.4,14.3-15.9,21.6-22.1
				c7.3-6.3,14.1-11.4,19-15.2c2.4-1.8,4.4-3.3,5.8-4.4C295,383.2,295.8,382.7,295.8,382.7z"/>
		</g>
		<g>
			<path d="M385.8,318.1c0,0-1.3,2.8-3.9,7.4c-2.6,4.6-6.4,10.8-11.4,17.7c-2.5,3.4-5.2,7.1-8.3,10.8c-1.5,1.8-3.1,3.7-4.7,5.5
				c-1.6,1.9-3.4,3.7-5.1,5.5c-7.2,7.3-15.1,14.5-24.5,20.7c1.3-4,3-8.3,5.3-12.4c2.3-4.1,4.9-8.3,7.9-12.3
				c5.9-8.1,13-15.5,19.6-21.9c6.7-6.3,13-11.6,17.6-15.2C382.8,320.2,385.8,318.1,385.8,318.1z"/>
		</g>
		<g>
			<path d="M462.1,226.2c0,0-0.2,0.5-0.6,1.5c-0.4,1-1.1,2.4-1.9,4.1c-1.7,3.4-4.2,8.1-7.3,13.3c-3.1,5.2-6.9,10.7-11.2,16.3
				c-2.2,2.8-4.5,5.6-7.1,8.5c-2.6,2.9-5.3,5.8-8.5,8.8c-0.8-6.4,1-13.9,4.3-20.6c3.4-6.7,8.2-12.7,13.1-17.5
				c4.9-4.8,9.7-8.4,13.3-10.8c1.8-1.2,3.3-2.1,4.3-2.7C461.5,226.5,462.1,226.2,462.1,226.2z"/>
		</g>
		<g>
			<path d="M452.3,318.1c0,0-1.1,2.5-3.4,6.6c-1.1,2-2.6,4.5-4.3,7.2c-0.9,1.3-1.8,2.8-2.8,4.2c-1,1.4-2.1,2.9-3.3,4.4
				c-2.4,3-5,6.1-8,9.2c-3,3.1-6.2,6.1-9.7,9c-1.8,1.5-3.6,2.9-5.5,4.2c-1.9,1.4-3.8,2.7-5.8,4c-4,2.6-8.4,4.9-13.1,6.9
				c1.5-3.5,3.5-7,5.8-10.5c2.4-3.5,5-7,8-10.2c3-3.2,6.1-6.4,9.3-9.3c3.2-3,6.4-5.7,9.6-8.3c1.6-1.3,3.1-2.5,4.6-3.7
				c1.5-1.2,3-2.3,4.3-3.4c2.7-2.1,5.2-4,7.3-5.6C449.6,319.9,452.3,318.1,452.3,318.1z"/>
		</g>
		<g>
			<path d="M376,404.2c0,0-0.3,0.7-0.9,2c-0.6,1.3-1.5,3.1-2.7,5.4c-2.5,4.5-6.4,10.7-11.5,17.3c-2.6,3.3-5.4,6.7-8.4,10.2
				c-1.5,1.7-3,3.5-4.7,5.2c-0.8,0.9-1.6,1.8-2.4,2.7c-0.4,0.4-0.8,0.9-1.2,1.3c-0.4,0.4-0.8,0.9-1.2,1.3
				c-3.4,3.5-6.7,7.2-10.3,10.8c-3.6,3.7-7.1,7.6-10.8,11.7c0.1-2.1,0.3-4.3,0.8-6.5c0.5-2.2,1.1-4.5,2-6.7c0.4-1.1,0.9-2.3,1.4-3.4
				c0.5-1.1,1.1-2.2,1.7-3.3l0.9-1.7c0.3-0.5,0.6-1.1,1-1.6c0.7-1.1,1.3-2.1,2-3.2c5.7-8.3,13-15.5,19.7-21.4
				c6.8-5.9,13.1-10.8,17.5-14.4C373.2,406.4,376,404.2,376,404.2z"/>
		</g>
		<g>
			<path d="M233.3,494.1c0,0-0.5,0.5-1.3,1.3c-0.8,0.8-2,2-3.4,3.5c-2.8,3-6.5,7.2-10.5,12.2c-4,5-8.3,10.8-13.3,16.9
				c-5,6.1-10.8,12.5-18,18.3c0.3-7,2.7-14.6,6.7-21.8c4-7.2,9.6-13.8,15.5-18.7c6-5,12.2-8.1,16.8-9.7c1.2-0.4,2.2-0.8,3.1-1
				c0.9-0.2,1.7-0.4,2.4-0.6C232.5,494.3,233.3,494.1,233.3,494.1z"/>
		</g>
		<g>
			<path d="M458.2,388.5c0,0-1,2-3,5.1c-1,1.5-2.1,3.4-3.4,5.4c-0.7,1-1.4,2.1-2.1,3.1c-0.7,1.1-1.5,2.3-2.4,3.4
				c-3.4,4.6-7.4,9.8-12.6,14.5c-5.1,4.8-11.2,9.3-18.8,12.5c1.2-6,4.3-12,8.3-17.6c2-2.8,4.3-5.5,6.7-7.9c1.2-1.3,2.4-2.4,3.7-3.6
				c1.3-1.1,2.5-2.2,3.7-3.3c1.3-1,2.5-2,3.8-2.9c1.2-0.9,2.4-1.8,3.6-2.5c1.2-0.7,2.3-1.4,3.4-2c1.1-0.6,2-1.2,3-1.6
				C455.8,389.4,458.2,388.5,458.2,388.5z"/>
		</g>
		<g>
			<path d="M399.5,472.6c0,0-1.6,2.8-4.7,7.1c-3.1,4.4-7.7,10.4-13.4,17c-2.9,3.3-6,6.8-9.5,10.2c-1.7,1.7-3.5,3.5-5.4,5.2
				c-1.9,1.7-3.8,3.4-5.8,5.2c-8,6.8-16.8,13.4-26.9,18.9c1.7-4,3.9-8.1,6.7-12.1c2.8-4,5.8-8,9.3-11.8c6.8-7.7,14.7-14.6,22.1-20.5
				c7.4-5.8,14.3-10.6,19.4-14C396.3,474.5,399.5,472.6,399.5,472.6z"/>
		</g>
		<g>
			<path d="M462.1,458.9c0,0-0.6,0.7-1.7,1.9c-1.1,1.2-2.8,2.9-4.8,5.1c-4.1,4.3-9.6,10.5-16.3,17.6c-6.7,7.1-14.5,15.1-23.6,22.8
				c-9,7.7-19.4,15-31,20.1c5-8.2,12-16.7,19.8-25c7.8-8.3,16.6-16.2,25-22.7c8.4-6.5,16.6-11.6,22.6-14.9c1.5-0.8,2.9-1.5,4.1-2.1
				c1.2-0.6,2.3-1.1,3.1-1.5C461.2,459.4,462.1,458.9,462.1,458.9z"/>
		</g>
		<g>
			<path d="M430.8,529.4c0,0-0.2,0.5-0.6,1.5c-0.4,1-1,2.5-2,4.2c-1.9,3.5-5.1,8.1-9.8,12.5c-4.6,4.5-10.5,8.7-17.1,12.1
				c-3.3,1.7-6.8,3.2-10.5,4.4c-3.7,1.3-7.6,2.3-11.9,3.3c2.7-5.9,7.9-11.2,13.7-15.5c5.8-4.3,12.1-7.8,17.8-10.9
				c5.7-3.1,10.8-5.8,14.4-7.9c0.9-0.5,1.7-1,2.5-1.5c0.7-0.5,1.3-0.8,1.8-1.2C430.2,529.8,430.8,529.4,430.8,529.4z"/>
		</g>
		<g>
			<path d="M176.5,48.2c0,0-1,2.7-3.3,7c-1.1,2.2-2.6,4.7-4.3,7.5c-0.9,1.4-1.8,2.9-2.9,4.4c-1,1.5-2.2,3-3.4,4.6
				c-2.4,3.2-5.1,6.4-8,9.7c-1.5,1.6-3,3.3-4.5,4.9c-1.6,1.6-3.3,3.2-4.9,4.9c-1.7,1.6-3.4,3.2-5.2,4.8c-1.8,1.6-3.5,3.2-5.5,4.8
				c-1,0.8-1.9,1.5-2.9,2.3c-0.9,0.8-1.9,1.6-2.9,2.4c-2,1.6-4.1,3.1-6.3,4.5c0.5-1.9,1.1-3.9,1.8-5.8c0.4-1,0.8-2,1.2-3
				c0.4-1,0.8-2,1.4-3c1-1.9,2.2-3.9,3.4-5.8c0.6-1,1.2-2,1.9-2.9c0.7-0.9,1.4-1.9,2.1-2.8c1.4-1.8,2.9-3.7,4.4-5.4
				c1.6-1.7,3.2-3.4,4.8-5c3.2-3.3,6.5-6.2,9.7-9c6.4-5.5,12.3-10.1,16.5-13.5C173.7,50.2,176.5,48.2,176.5,48.2z"/>
		</g>
		<g>
			<path d="M475.8,61.9c0,0-1.1,2.5-3.2,6.5c-1.1,1.9-2.3,4.4-3.8,7c-0.8,1.3-1.5,2.7-2.4,4.2c-0.8,1.5-1.7,3-2.6,4.6
				c-3.8,6.2-8.3,13.2-14.3,19.9c-5.9,6.7-13.2,13.1-21.9,17.5c1.1-3.6,2.6-7.1,4.4-10.7c1.8-3.6,3.9-7.2,6.2-10.7
				c2.3-3.5,4.9-7,7.5-10.4c2.6-3.3,5.4-6.5,8.1-9.5c1.4-1.5,2.8-2.8,4.1-4.2c1.3-1.3,2.6-2.6,3.9-3.7c1.3-1.1,2.5-2.2,3.7-3.2
				c1.2-1,2.2-1.9,3.3-2.6C473.1,63.6,475.8,61.9,475.8,61.9z"/>
		</g>
	</g>
</g>
<g>
	<g>
		<g>
			<path class="st2" d="M399.6,232.1c-16.8,0-30.4-13.6-30.4-30.4s13.6-30.3,30.4-30.3S430,185,430,201.7S416.4,232.1,399.6,232.1z"
				/>
			<path class="st79" d="M399.6,172.5c7.8,0,15.1,3.1,20.6,8.6s8.5,12.8,8.5,20.6s-3,15.1-8.5,20.6s-12.9,8.6-20.6,8.6
				c-7.8,0-15.1-3.1-20.6-8.6s-8.6-12.8-8.6-20.6c0-7.8,3-15.1,8.5-20.6S391.8,172.5,399.6,172.5 M399.6,170.2
				c-17.4,0-31.5,14.1-31.5,31.5s14.1,31.5,31.5,31.5s31.5-14.1,31.5-31.5S417,170.2,399.6,170.2L399.6,170.2z"/>
		</g>
		<g>
			<circle class="st2" cx="399.6" cy="201.7" r="26.8"/>
			<path class="st80" d="M399.6,229.1c-15.1,0-27.4-12.3-27.4-27.4c0-15.1,12.3-27.4,27.4-27.4s27.4,12.3,27.4,27.4
				S414.8,229.1,399.6,229.1z"/>
		</g>
	</g>
	<g>
		<g>
			<path class="st2" d="M380.3,217.5c0.3,0.2,0.9,0.4,1.4,0.4c0.5,0,0.8-0.2,0.8-0.5c0-0.3-0.2-0.4-0.9-0.6
				c-0.9-0.3-1.5-0.8-1.5-1.6c0-1,0.8-1.7,2.2-1.7c0.6,0,1.1,0.1,1.5,0.3l-0.3,1.2c-0.2-0.1-0.7-0.2-1.2-0.2c-0.4,0-0.7,0.1-0.7,0.4
				c0,0.3,0.3,0.4,1,0.7c1,0.4,1.4,0.9,1.4,1.6c0,0.9-0.7,1.8-2.3,1.8c-0.6,0-1.3-0.2-1.6-0.3L380.3,217.5z"/>
			<path class="st2" d="M387.8,218.8c-0.2,0.1-0.6,0.2-1.1,0.2c-1.3,0-2.2-0.8-2.2-2.1c0-1.1,0.8-2.1,2.4-2.1c0.3,0,0.6,0.1,0.9,0.2
				l-0.2,1.1c-0.1,0-0.3-0.1-0.6-0.1c-0.5,0-0.9,0.4-0.9,0.9c0,0.6,0.4,0.9,1,0.9c0.2,0,0.5,0,0.7-0.1L387.8,218.8z"/>
			<path class="st2" d="M388.4,213.2h1.5v2.2h0c0.1-0.1,0.3-0.3,0.5-0.4c0.2-0.1,0.4-0.1,0.6-0.1c0.9,0,1.4,0.6,1.4,1.8v2.3h-1.5
				v-2.1c0-0.5-0.1-0.8-0.5-0.8c-0.3,0-0.4,0.1-0.5,0.3c0,0.1,0,0.2,0,0.2v2.3h-1.5V213.2z"/>
			<path class="st2" d="M396.8,218c0,0.4,0,0.8,0.1,1h-1.3l-0.1-0.4h0c-0.3,0.3-0.7,0.4-1.1,0.4c-0.8,0-1.3-0.6-1.3-1.2
				c0-1.1,1-1.6,2.3-1.6v0c0-0.2-0.1-0.4-0.6-0.4c-0.4,0-0.9,0.1-1.1,0.3l-0.2-0.9c0.2-0.1,0.8-0.4,1.6-0.4c1.4,0,1.9,0.8,1.9,1.8
				L396.8,218L396.8,218z M395.4,217.1c-0.6,0-0.9,0.2-0.9,0.5c0,0.2,0.1,0.4,0.4,0.4c0.2,0,0.4-0.2,0.5-0.4c0-0.1,0-0.2,0-0.2
				L395.4,217.1L395.4,217.1z"/>
			<path class="st2" d="M397.7,213.2h1.5v5.8h-1.5V213.2z"/>
			<path class="st2" d="M401.6,216.6L401.6,216.6c0.1-0.2,0.2-0.4,0.3-0.5l0.7-1.1h1.8l-1.4,1.6l1.6,2.4h-1.8l-0.8-1.5l-0.3,0.4v1.1
				h-1.5v-5.8h1.5V216.6z"/>
			<path class="st2" d="M405.8,217.4c0,0.3,0.5,0.5,1,0.5c0.4,0,0.7-0.1,1.1-0.2l0.2,1c-0.5,0.2-1,0.2-1.5,0.2c-1.4,0-2.2-0.8-2.2-2
				c0-0.9,0.6-2.1,2.1-2.1c1.3,0,1.8,1,1.8,2.1c0,0.2,0,0.4,0,0.6L405.8,217.4L405.8,217.4z M407,216.5c0-0.2-0.1-0.6-0.6-0.6
				c-0.4,0-0.6,0.4-0.6,0.6H407z"/>
			<path class="st2" d="M412.4,219c-1.5,0-2.1-1.3-2.1-2.7c0-1.4,0.6-2.7,2.1-2.7c1.5,0,2.1,1.4,2.1,2.7
				C414.5,217.8,413.8,219,412.4,219L412.4,219z M412.4,217.9c0.4,0,0.6-0.5,0.6-1.6c0-1.1-0.2-1.6-0.6-1.6s-0.6,0.5-0.6,1.6
				C411.8,217.4,412.1,217.9,412.4,217.9L412.4,217.9z"/>
			<path class="st2" d="M417.2,218.9v-1.2H415v-0.9l1.8-3.1h1.8v3h0.6v1.1h-0.5v1.2H417.2z M417.2,216.7v-0.9c0-0.4,0-0.7,0-1.1h0
				c-0.2,0.4-0.3,0.7-0.5,1.1l-0.5,0.9v0H417.2z"/>
		</g>
		<g>
			<path class="st2" d="M380,184.9h16.9v5.8H387v4.8h9.2v5.7H387v10H380V184.9z"/>
			<path class="st2" d="M418.9,210.4c-1,0.5-3.5,1.1-6.6,1.1c-9.8,0-14.1-6.1-14.1-13.1c0-9.2,6.8-13.9,14.6-13.9
				c3,0,5.5,0.6,6.5,1.1l-1.4,5.6c-1.1-0.5-2.8-0.9-4.9-0.9c-4,0-7.5,2.4-7.5,7.7c0,4.8,2.9,7.7,7.7,7.7c1.7,0,3.6-0.3,4.7-0.8
				L418.9,210.4z"/>
		</g>
	</g>
</g>
</svg>
