<?xml version="1.0" encoding="utf-8"?>
<!-- Generator: Adobe Illustrator 17.0.0, SVG Export Plug-In . SVG Version: 6.00 Build 0)  -->
<!DOCTYPE svg PUBLIC "-//W3C//DTD SVG 1.1//EN" "http://www.w3.org/Graphics/SVG/1.1/DTD/svg11.dtd" [
	<!ENTITY ns_flows "http://ns.adobe.com/Flows/1.0/">
	<!ENTITY ns_extend "http://ns.adobe.com/Extensibility/1.0/">
	<!ENTITY ns_ai "http://ns.adobe.com/AdobeIllustrator/10.0/">
	<!ENTITY ns_graphs "http://ns.adobe.com/Graphs/1.0/">
]>
<svg version="1.1" id="Layer_1" xmlns:x="&ns_extend;" xmlns:i="&ns_ai;" xmlns:graph="&ns_graphs;"
	 xmlns="http://www.w3.org/2000/svg" xmlns:xlink="http://www.w3.org/1999/xlink" xmlns:a="http://ns.adobe.com/AdobeSVGViewerExtensions/3.0/"
	 x="0px" y="0px" width="600px" height="600px" viewBox="0 0 600 600" style="enable-background:new 0 0 600 600;"
	 xml:space="preserve">
<style type="text/css">
	.st0{fill:#FE0000;stroke:#000000;stroke-miterlimit:10;}
	.st1{fill:#FFFFFF;stroke:#000000;stroke-miterlimit:10;}
	.st2{fill:#FFFFFF;}
	.st3{fill:#7C0014;}
	.st4{fill:#F959FF;stroke:#000000;stroke-miterlimit:10;}
	.st5{fill:#EA24AE;}
	.st6{fill:#0563E1;}
	.st7{fill:#0B0A11;}
	.st8{fill:#004D9B;}
	.st9{fill:#C20000;}
	.st10{fill:#0563E1;stroke:#000000;stroke-miterlimit:10;}
	.st11{fill:url(#SVGID_1_);stroke:#000000;stroke-miterlimit:10;}
	.st12{fill:url(#SVGID_2_);}
	.st13{fill:#8ADAC9;stroke:#000000;stroke-miterlimit:10;}
	.st14{fill:#23495B;stroke:#000000;stroke-miterlimit:10;}
	.st15{fill:#CAC5C0;}
	.st16{fill:#23495B;}
	.st17{fill:#1976C9;stroke:#000000;stroke-miterlimit:10;}
	.st18{fill:#02619F;}
	.st19{fill:#1976C9;}
	.st20{fill:#02619F;stroke:#1976C9;stroke-miterlimit:10;}
	.st21{fill:#77A4CB;stroke:#000000;stroke-miterlimit:10;}
	.st22{stroke:#EDF3F8;stroke-miterlimit:10;}
	.st23{fill:#77A4CB;}
	.st24{fill:#C7CCC4;}
	.st25{fill:#FFFA5B;stroke:#000000;stroke-miterlimit:10;}
	.st26{fill:#1E2A24;}
	.st27{fill:#EBF0F5;stroke:#000000;stroke-miterlimit:10;}
	.st28{fill:url(#SVGID_3_);}
	.st29{fill:url(#SVGID_4_);}
	.st30{fill:#FFB05B;}
	.st31{fill:#4FAFBF;stroke:#000000;stroke-miterlimit:10;}
	.st32{fill:#43DA98;stroke:#000000;stroke-miterlimit:10;}
	.st33{fill:#00B273;}
	.st34{fill:#43DA98;}
	.st35{fill:#00B273;stroke:#000000;stroke-miterlimit:10;}
	.st36{fill:#BC2567;stroke:#FFFFFF;stroke-miterlimit:10;}
	.st37{fill:#8B004D;stroke:#000000;stroke-miterlimit:10;}
	.st38{fill:#5B5B4F;stroke:#000000;stroke-miterlimit:10;}
	.st39{fill:#3A3F40;}
	.st40{fill:#E7C993;}
	.st41{fill:#8B004D;}
	.st42{fill:#5B5B4F;}
	.st43{fill:#F02233;stroke:#000000;stroke-miterlimit:10;}
	.st44{fill:#4E2664;stroke:#000000;stroke-miterlimit:10;}
	.st45{fill:#04829F;}
	.st46{adobe-knockout:true;}
	.st47{fill:none;stroke:#FFFFFF;stroke-width:3;stroke-miterlimit:10;adobe-knockout:false;}
	.st48{fill:#006F8C;}
	.st49{fill:#F32CBB;stroke:#000000;stroke-miterlimit:10;}
	.st50{fill:#C000AD;stroke:#000000;stroke-miterlimit:10;}
	.st51{fill:#6BBA4F;}
	.st52{fill:#03850D;}
	.st53{fill:#97C0DA;stroke:#000000;stroke-miterlimit:10;}
	.st54{fill:#83A5CB;}
	.st55{fill:#0453BC;}
	.st56{fill:#A79F96;}
	.st57{fill:#0CD3CA;stroke:#000000;stroke-miterlimit:10;}
	.st58{fill:#299AB8;}
	.st59{fill:#299AB8;stroke:#000000;stroke-miterlimit:10;}
	.st60{fill:#C000AD;}
	.st61{fill:#0099C7;}
	.st62{fill:#6E4D7F;stroke:#000000;stroke-miterlimit:10;}
	.st63{fill:#04829F;stroke:#000000;stroke-miterlimit:10;}
	.st64{fill:none;stroke:#EA24AE;stroke-width:8;stroke-miterlimit:10;}
	.st65{fill:#F959FF;}
	.st66{fill:#06A600;stroke:#000000;stroke-miterlimit:10;}
	.st67{fill:none;stroke:#15DB51;stroke-width:8;stroke-miterlimit:10;}
	.st68{fill:#06A600;}
	.st69{fill:#15DB51;stroke:#000000;stroke-miterlimit:10;}
	.st70{fill:#069400;}
	.st71{fill:#0066B3;}
	.st72{fill:#003644;}
	.st73{fill:#567481;}
	.st74{fill:none;stroke:#FFFFFF;stroke-width:3;stroke-miterlimit:10;}
	.st75{fill:url(#SVGID_5_);stroke:#FFFFFF;stroke-miterlimit:10;}
	.st76{fill:#B05040;}
	.st77{fill:#5C2633;}
	.st78{fill:none;stroke:#A7747F;stroke-width:3;stroke-miterlimit:10;}
	.st79{fill:#46A0BE;}
	.st80{fill:#005FA5;}
	.st81{fill:#FE9C14;}
	.st82{fill:#FED539;}
	.st83{fill:#3AC919;stroke:#000000;stroke-miterlimit:10;}
	.st84{fill:#2A9F02;}
	.st85{fill:#3AC919;}
	.st86{fill:#2A9F02;stroke:#000000;stroke-miterlimit:10;}
	.st87{fill:#FE144C;}
	.st88{fill:#FE5F39;}
	.st89{fill:#E91B00;}
	.st90{fill:#FE0000;}
	.st91{fill:#0005A4;stroke:#000000;stroke-miterlimit:10;}
	.st92{fill:#000578;}
	.st93{fill:#004FA4;}
	.st94{fill:#0005A4;stroke:#FFFFFF;stroke-miterlimit:10;}
	.st95{fill:#FFE60B;stroke:#000000;stroke-width:1.5;stroke-miterlimit:10;}
	.st96{fill:#ED1C24;}
	.st97{fill:#FFEE34;}
	.st98{fill:#FF4A49;}
	.st99{fill:none;stroke:#000000;stroke-miterlimit:10;}
	.st100{fill:#F97F7A;}
	.st101{fill:#6E4D7F;}
	.st102{fill:#CA0014;}
	.st103{fill:#382351;}
	.st104{fill:#01A663;}
	.st105{fill:#8ABE23;}
	.st106{fill:#1D1D1B;}
	.st107{fill:#FEFEFE;}
</style>
<path class="st1" d="M6.1,342.8C40.7,232.2,21.2,187.2,67.7,94.2c10.5-21,71.9-57.8,135.8-73.2c0,0,109.7-25.5,180.5-3.5
	s140.3,53.3,151.9,80c35.7,82.1,31.2,191.6,59.7,243.7c-12.5,1.2-81.3,14.4-109.3,19.7c-2.4-7.3-13.4-60-13.4-60s3.2,248,3.2,270
	c-0.2,19-92.8,24-180.8,24s-167.5-10-167.5-26.9c0-16.8,1.1-262.1,1.1-262.1s-3.3,23.3-8.3,56.1C91.3,361.9,16.4,344,6.1,342.8z"/>
<path class="st15" d="M73.8,85.9c0,0,77.1,9.2,55.7,220c-0.9,166-1.1,253.8-1.1,255.9c0,3.2-0.6,7.5,0.8,9.2
	c0.7,1.1,1.7,2.3,3.4,3.5c4.7,3.4,13.4,6.6,25.2,9.1c-14.2-11.6-10.9-42.8-9.8-72.1c1.1-29.4-24-95.4-3-199.4
	c6.8-33.6-5.5-74.9-6-84C135,160.4,122.6,94.6,73.8,85.9z"/>
<path class="st15" d="M530.2,89c0,0-79.2,0.7-57.7,211.5c2.1,168.9,3.2,265.3,3.2,264.5c0-2.3,0,2.4,0,6.2c0,1.3-0.7,2.6-0.9,2.9
	c-0.7,1.1-2,2.2-3.6,3.4c-4.7,3.4-13.3,5.9-25.1,8.2c14.2-11.6,11.1-41.8,10-71.2c-1.1-29.4,24-95.4,3-199.4
	c-6.8-33.6,1.5-83.4,2-92.4C465,155.1,483.7,92,530.2,89z"/>
<g>
	<g>
		<path class="st15" d="M234.5,28.7C247.3,46,269,62.5,305.1,62.5c36.2,0,56.3-16.8,67.4-34.5C342.2,31.1,266.9,30.8,234.5,28.7z"/>
		<path class="st16" d="M375.1,1c-17.6,5.3-142.2,2.9-148.6,0.6c-0.1,0.3-0.3,0.7-0.5,1.1c2.2,7.1,6.3,17.5,13.7,27.5
			c29.5,1.9,97.9,2.2,125.6-0.6c6.2-9.9,9.4-20.2,10.9-27.3C375.8,1.8,375.4,1.4,375.1,1z"/>
	</g>
	<path class="st16" d="M376.2,2.3c-4.1,18.7-19,58.7-72.2,58.7c-53.9,0-72.4-40.1-78-58.3c-2.9,5.3-15.1,16-15.1,16
		s15.6,61.7,91.1,61.7c76.5,0,86.6-58.7,87.7-63.1C387.6,16.4,380.4,6.9,376.2,2.3z"/>
</g>
<path class="st16" d="M123.5,345.1l-2.8,17c0,0-18.3-0.2-54.3-7.2c-18-3.5-53.4-11.4-60.3-12.1c3.2-10.1,5.8-20.6,5.8-20.6
	c13.4,2.5,37.1,9.2,60.5,14.2C97.6,341.9,123.5,345.1,123.5,345.1z"/>
<path class="st16" d="M482.2,342.3l4.1,18.6c0,0,8.8-1.5,44.8-8.5c18-3.5,57.7-10,64.7-10.7c-4.7-9.1-8.7-20.9-8.7-20.9
	c-14,2.7-40.1,7.3-63,12.2C498.7,338.3,482.2,342.3,482.2,342.3z"/>
<g>
	<path class="st16" d="M350,593.6l-4-296.8l0.1-0.8c0.2-2.2,4.5-54.1,14.9-114.1c12.8-73.8,29-125.9,48.1-155.3
		c18.6,5.9,35.3,13,35.3,13c-36.9,44.2-57.5,200.9-62.3,258.6l4,293.8L350,593.6z"/>
</g>
<g>
	<g>
		<g>
			<path class="st2" d="M375.6,232.1c-16.8,0-30.3-13.6-30.3-30.4s13.6-30.3,30.3-30.3s30.4,13.6,30.4,30.3S392.3,232.1,375.6,232.1
				z"/>
			<path class="st79" d="M375.6,172.5c7.8,0,15.2,3.1,20.7,8.6s8.5,12.8,8.5,20.6s-3,15.1-8.5,20.6s-12.9,8.6-20.7,8.6
				c-7.8,0-15.1-3.1-20.6-8.6s-8.6-12.8-8.6-20.6c0-7.8,3-15.1,8.5-20.6S367.8,172.5,375.6,172.5 M375.6,170.2
				c-17.4,0-31.5,14.1-31.5,31.5s14.1,31.5,31.5,31.5c17.4,0,31.5-14.1,31.5-31.5S393,170.2,375.6,170.2L375.6,170.2z"/>
		</g>
		<g>
			<circle class="st2" cx="375.6" cy="201.7" r="26.8"/>
			<path class="st80" d="M375.6,229.1c-15.1,0-27.4-12.3-27.4-27.4c0-15.1,12.3-27.4,27.4-27.4s27.4,12.3,27.4,27.4
				S390.7,229.1,375.6,229.1z"/>
		</g>
	</g>
	<g>
		<g>
			<path class="st2" d="M356.3,217.5c0.3,0.2,0.9,0.4,1.4,0.4c0.5,0,0.8-0.2,0.8-0.5c0-0.3-0.2-0.4-0.8-0.6
				c-0.9-0.3-1.6-0.8-1.6-1.6c0-1,0.8-1.7,2.2-1.7c0.6,0,1.1,0.1,1.5,0.3l-0.3,1.2c-0.2-0.1-0.6-0.2-1.2-0.2c-0.5,0-0.7,0.1-0.7,0.4
				c0,0.3,0.3,0.4,1,0.7c1,0.4,1.4,0.9,1.4,1.6c0,0.9-0.7,1.8-2.3,1.8c-0.6,0-1.3-0.2-1.6-0.3L356.3,217.5z"/>
			<path class="st2" d="M363.8,218.8c-0.2,0.1-0.6,0.2-1.1,0.2c-1.3,0-2.1-0.8-2.1-2.1c0-1.1,0.8-2.1,2.4-2.1c0.3,0,0.6,0.1,0.9,0.2
				l-0.2,1.1c-0.2,0-0.3-0.1-0.6-0.1c-0.6,0-0.9,0.4-0.9,0.9c0,0.6,0.5,0.9,1,0.9c0.2,0,0.5,0,0.6-0.1L363.8,218.8z"/>
			<path class="st2" d="M364.4,213.2h1.5v2.2h0c0.1-0.1,0.3-0.3,0.5-0.4c0.2-0.1,0.4-0.1,0.6-0.1c0.9,0,1.4,0.6,1.4,1.8v2.3h-1.5
				v-2.1c0-0.5-0.1-0.8-0.5-0.8c-0.3,0-0.4,0.1-0.5,0.3c0,0.1,0,0.2,0,0.2v2.3h-1.5V213.2z"/>
			<path class="st2" d="M372.8,218c0,0.4,0,0.8,0.1,1h-1.3l-0.1-0.4h0c-0.3,0.3-0.7,0.4-1.1,0.4c-0.8,0-1.3-0.6-1.3-1.2
				c0-1.1,1-1.6,2.3-1.6v0c0-0.2-0.1-0.4-0.6-0.4c-0.4,0-0.9,0.1-1.1,0.3l-0.2-0.9c0.2-0.1,0.8-0.4,1.6-0.4c1.4,0,1.9,0.8,1.9,1.8
				L372.8,218L372.8,218z M371.3,217.1c-0.6,0-0.9,0.2-0.9,0.5c0,0.2,0.1,0.4,0.4,0.4c0.2,0,0.4-0.2,0.5-0.4c0-0.1,0-0.2,0-0.2
				L371.3,217.1L371.3,217.1z"/>
			<path class="st2" d="M373.7,213.2h1.5v5.8h-1.5V213.2z"/>
			<path class="st2" d="M377.5,216.6L377.5,216.6c0.1-0.2,0.2-0.4,0.3-0.5l0.6-1.1h1.8l-1.4,1.6l1.6,2.4h-1.8l-0.8-1.5l-0.3,0.4v1.1
				H376v-5.8h1.5V216.6z"/>
			<path class="st2" d="M381.7,217.4c0,0.3,0.5,0.5,1,0.5c0.4,0,0.7-0.1,1.1-0.2l0.2,1c-0.5,0.2-1,0.2-1.5,0.2c-1.4,0-2.2-0.8-2.2-2
				c0-0.9,0.6-2.1,2.1-2.1c1.3,0,1.8,1,1.8,2.1c0,0.2,0,0.4,0,0.6L381.7,217.4L381.7,217.4z M382.9,216.5c0-0.2-0.1-0.6-0.6-0.6
				c-0.4,0-0.6,0.4-0.6,0.6H382.9z"/>
			<path class="st2" d="M388.3,219c-1.5,0-2.1-1.3-2.1-2.7c0-1.4,0.6-2.7,2.1-2.7c1.5,0,2.1,1.4,2.1,2.7
				C390.4,217.8,389.8,219,388.3,219L388.3,219z M388.4,217.9c0.4,0,0.6-0.5,0.6-1.6c0-1.1-0.2-1.6-0.6-1.6s-0.6,0.5-0.6,1.6
				C387.7,217.4,388,217.9,388.4,217.9L388.4,217.9z"/>
			<path class="st2" d="M393.2,218.9v-1.2h-2.3v-0.9l1.8-3.1h1.8v3h0.6v1.1h-0.6v1.2H393.2z M393.2,216.7v-0.9c0-0.4,0-0.7,0-1.1h0
				c-0.2,0.4-0.3,0.7-0.5,1.1l-0.4,0.9v0H393.2z"/>
		</g>
		<g>
			<path class="st2" d="M355.9,184.9h16.9v5.8h-9.8v4.8h9.2v5.7h-9.2v10h-7V184.9z"/>
			<path class="st2" d="M394.8,210.4c-1,0.5-3.5,1.1-6.6,1.1c-9.8,0-14.1-6.1-14.1-13.1c0-9.2,6.8-13.9,14.6-13.9
				c3,0,5.4,0.6,6.5,1.1l-1.4,5.6c-1.1-0.5-2.8-0.9-4.9-0.9c-4,0-7.5,2.4-7.5,7.7c0,4.8,2.8,7.7,7.7,7.7c1.7,0,3.6-0.3,4.7-0.8
				L394.8,210.4z"/>
		</g>
	</g>
</g>
</svg>
