<?xml version="1.0" encoding="utf-8"?>
<!-- Generator: Adobe Illustrator 17.0.0, SVG Export Plug-In . SVG Version: 6.00 Build 0)  -->
<!DOCTYPE svg PUBLIC "-//W3C//DTD SVG 1.1//EN" "http://www.w3.org/Graphics/SVG/1.1/DTD/svg11.dtd" [
	<!ENTITY ns_flows "http://ns.adobe.com/Flows/1.0/">
	<!ENTITY ns_extend "http://ns.adobe.com/Extensibility/1.0/">
	<!ENTITY ns_ai "http://ns.adobe.com/AdobeIllustrator/10.0/">
	<!ENTITY ns_graphs "http://ns.adobe.com/Graphs/1.0/">
]>
<svg version="1.1" id="Layer_1" xmlns:x="&ns_extend;" xmlns:i="&ns_ai;" xmlns:graph="&ns_graphs;"
	 xmlns="http://www.w3.org/2000/svg" xmlns:xlink="http://www.w3.org/1999/xlink" xmlns:a="http://ns.adobe.com/AdobeSVGViewerExtensions/3.0/"
	 x="0px" y="0px" width="600px" height="600px" viewBox="0 0 600 600" style="enable-background:new 0 0 600 600;"
	 xml:space="preserve">
<style type="text/css">
	.st0{fill:#000100;}
	.st1{fill:#E80040;stroke:#000000;stroke-miterlimit:10;}
	.st2{fill:#FCE200;stroke:#000000;stroke-miterlimit:10;}
	.st3{fill:#FEA63F;stroke:#000000;stroke-miterlimit:10;}
	.st4{fill:#FFFFFF;stroke:#000000;stroke-miterlimit:10;}
	.st5{fill:#FFFFFF;}
	.st6{fill:#7C0014;}
	.st7{fill:#75C255;stroke:#000000;stroke-miterlimit:10;}
	.st8{fill:#52B329;}
	.st9{fill:#52BCE0;stroke:#000000;stroke-miterlimit:10;}
	.st10{fill:#48ACD0;}
	.st11{fill:#028CBE;}
	.st12{fill:#52BCE0;}
	.st13{fill:#EFF0F9;stroke:#4E3B64;stroke-miterlimit:10;}
	.st14{fill:#1D5662;stroke:#000000;stroke-miterlimit:10;}
	.st15{fill:#1D5662;}
	.st16{fill:#054049;}
	.st17{fill:#037FC7;}
	.st18{fill:#9158B6;stroke:#000000;stroke-miterlimit:10;}
	.st19{fill:#752EA5;}
	.st20{fill:#2678C7;}
	.st21{fill:#FABFB6;stroke:#000000;stroke-miterlimit:10;}
	.st22{fill:#FABFB6;}
	.st23{fill:#FC8038;stroke:#FABFB6;stroke-miterlimit:10;}
	.st24{fill:#00A39B;}
	.st25{fill:#E53A3E;stroke:#000000;stroke-miterlimit:10;}
	.st26{fill:#E53A3E;}
	.st27{fill:#242424;stroke:#5C377E;stroke-miterlimit:10;}
	.st28{fill:#525252;stroke:#000000;stroke-miterlimit:10;}
	.st29{fill:#4998BB;}
	.st30{fill:#1A7F9E;}
	.st31{fill:#E58000;stroke:#000000;stroke-miterlimit:10;}
	.st32{fill:#BA7500;stroke:#000000;stroke-miterlimit:10;}
	.st33{fill:#DF961C;stroke:#000000;stroke-miterlimit:10;}
	.st34{fill:#DF961C;}
	.st35{fill:#EDF3F8;stroke:#000000;stroke-miterlimit:10;}
	.st36{fill:#DA7600;}
	.st37{fill:#C2BEC8;}
	.st38{fill:#000100;stroke:#FFFFFF;stroke-miterlimit:10;}
	.st39{fill:#A8F001;stroke:#000000;stroke-miterlimit:10;}
	.st40{fill:#0578CD;}
	.st41{fill:#1A58A5;}
	.st42{stroke:#625616;stroke-miterlimit:10;}
	.st43{adobe-knockout:true;}
	.st44{fill:none;stroke:#FFFFFF;stroke-width:3;stroke-miterlimit:10;adobe-knockout:false;}
	.st45{fill:#D71F26;stroke:#000000;stroke-miterlimit:10;}
	.st46{fill:#008183;}
	.st47{fill:#6FC266;}
	.st48{fill:#C4373C;}
	.st49{fill:#00CAB0;}
	.st50{fill:#FAAE1E;}
	.st51{fill:#EC153B;}
	.st52{fill:#00B296;}
	.st53{fill:#F2C958;stroke:#00CAB0;stroke-miterlimit:10;}
	.st54{fill:#FF354F;stroke:#000000;stroke-miterlimit:10;}
	.st55{fill:#0D36A7;stroke:#000000;stroke-miterlimit:10;}
	.st56{fill:#D2D7E2;stroke:#000000;stroke-miterlimit:10;}
	.st57{fill:#CA2B9D;stroke:#000000;stroke-miterlimit:10;}
	.st58{fill:#58006C;stroke:#000000;stroke-miterlimit:10;}
	.st59{fill:#C60021;}
	.st60{fill:#A30F81;}
	.st61{fill:#0159C0;stroke:#A0A0A0;stroke-miterlimit:10;}
	.st62{fill:#013390;}
	.st63{fill:#F08900;}
	.st64{fill:#D20129;}
	.st65{fill:#AD0000;}
	.st66{fill:#131E25;}
	.st67{fill:#DAD2D8;stroke:#000000;stroke-miterlimit:10;}
	.st68{fill:#0066B3;}
	.st69{fill:#969796;}
	.st70{fill:#E86271;}
	.st71{fill:url(#SVGID_1_);stroke:#000000;stroke-miterlimit:10;}
	.st72{fill:#5AB4D2;stroke:#000000;stroke-miterlimit:10;}
	.st73{fill:#5AB4D2;}
	.st74{fill:#FFFFFF;stroke:#5AB4D2;stroke-miterlimit:10;}
	.st75{fill:#073F98;stroke:#0453BC;stroke-miterlimit:10;}
	.st76{fill:#2762C9;stroke:#000000;stroke-miterlimit:10;}
	.st77{fill:#C252FF;}
	.st78{fill:url(#SVGID_2_);}
	.st79{fill:url(#SVGID_3_);}
	.st80{fill:#DAD2D8;}
	.st81{stroke:#000000;stroke-miterlimit:10;}
	.st82{fill:#05297D;stroke:#000000;stroke-miterlimit:10;}
	.st83{fill:#05297D;stroke:#FFFFFF;stroke-miterlimit:10;}
	.st84{fill:#A8A8B4;}
	.st85{fill:url(#SVGID_4_);stroke:#000000;stroke-miterlimit:10;}
	.st86{fill:#53536A;}
	.st87{fill:#073F98;}
	.st88{fill:#098FBC;}
	.st89{fill:url(#SVGID_5_);}
	.st90{fill:#F7A161;}
	.st91{fill:#FF0000;stroke:#000000;stroke-miterlimit:10;}
	.st92{fill:#F54849;stroke:#000000;stroke-miterlimit:10;}
	.st93{fill:url(#SVGID_6_);}
	.st94{fill:url(#SVGID_7_);}
	.st95{fill:#3A72B7;stroke:#000000;stroke-miterlimit:10;}
	.st96{fill:#96C4F0;stroke:#000000;stroke-miterlimit:10;}
	.st97{fill:#C50040;}
	.st98{fill:#D11E24;}
	.st99{fill:#E3E3E7;}
	.st100{stroke:#FFCF2B;stroke-miterlimit:10;}
	.st101{fill:none;stroke:#F9E42A;stroke-miterlimit:10;}
	.st102{fill:#F08900;stroke:#000000;stroke-miterlimit:10;}
	.st103{fill:#F28330;}
	.st104{fill:#FC8038;}
	.st105{fill:#5AB633;}
	.st106{fill:#553658;stroke:#75C255;stroke-miterlimit:10;}
	.st107{fill:#1853A6;}
	.st108{fill:#CB0000;}
	.st109{fill:#0F0D0E;}
	.st110{fill:#636363;}
	.st111{fill:#FFFFFF;stroke:#00A39B;stroke-miterlimit:10;}
	.st112{fill:#D71F26;}
	.st113{fill:#020000;}
	.st114{fill:none;stroke:#000000;stroke-width:0.5;stroke-miterlimit:10;}
	.st115{clip-path:url(#SVGID_9_);}
	.st116{clip-path:url(#SVGID_11_);}
	.st117{clip-path:url(#SVGID_13_);}
	.st118{clip-path:url(#SVGID_15_);}
	.st119{fill:#7A4A00;}
	.st120{fill:none;stroke:#1A7F9E;stroke-width:7;stroke-miterlimit:10;}
	.st121{fill:#E20227;stroke:#4998BB;stroke-miterlimit:10;}
	.st122{fill:#1F2427;}
	.st123{fill:#BA7500;}
	.st124{fill:none;stroke:#BA7500;stroke-width:7;stroke-miterlimit:10;}
	.st125{fill:#843D00;stroke:#000000;stroke-width:0.25;stroke-miterlimit:10;}
	.st126{stroke:#000000;stroke-width:0.25;stroke-miterlimit:10;}
	.st127{fill:#ECEEF3;stroke:#1A58A5;stroke-miterlimit:10;}
	.st128{fill:#233194;}
	.st129{fill:#E0DFE3;}
	.st130{fill:#C2BEC8;stroke:#000000;stroke-miterlimit:10;}
	.st131{fill:#233194;stroke:#000000;stroke-miterlimit:10;}
	.st132{fill:#A40100;}
	.st133{adobe-knockout:false;}
	.st134{fill:#A0AAC1;}
	.st135{fill:#A40100;stroke:#000000;stroke-miterlimit:10;}
	.st136{fill:#92F0D6;}
	.st137{fill:#F2C958;}
	.st138{fill:#CA2B9D;stroke:#CA2B9D;stroke-miterlimit:10;}
	.st139{fill:#A30F81;stroke:#000000;stroke-miterlimit:10;}
	.st140{fill:#7E2B42;}
	.st141{fill:#0D36A7;}
	.st142{fill:#EE1C24;}
	.st143{fill:#0159C0;}
	.st144{stroke:#A0A0A0;stroke-miterlimit:10;}
	.st145{stroke:#4E3B64;stroke-miterlimit:10;}
	.st146{fill:#FDEA00;stroke:#000000;stroke-width:0.217;}
	.st147{fill:#FDEA00;stroke:#000000;stroke-width:0.2326;}
	.st148{fill:#1D1D1B;}
	.st149{fill:#FF0000;}
	.st150{fill:none;stroke:#0453BC;stroke-width:25.435;stroke-miterlimit:10;adobe-knockout:false;}
	.st151{fill:none;stroke:#0453BC;stroke-width:25.4353;stroke-linecap:round;stroke-miterlimit:10;adobe-knockout:false;}
	.st152{fill:#CAC5C0;}
	.st153{fill:#2762C9;}
	.st154{fill:#C252FF;stroke:#000000;stroke-miterlimit:10;}
	.st155{fill:#A54B2D;stroke:#000000;stroke-miterlimit:10;}
	.st156{fill:#A54B2D;}
	.st157{stroke:#A54B2D;stroke-miterlimit:10;}
	.st158{fill:#823311;}
	.st159{fill:none;}
	.st160{fill:#05297D;}
	.st161{fill:none;stroke:#FF7F35;stroke-width:6;stroke-miterlimit:10;}
	.st162{fill:#031DFF;stroke:#000000;stroke-miterlimit:10;}
	.st163{fill:#0370FF;stroke:#000000;stroke-miterlimit:10;}
	.st164{fill:#031DC4;}
	.st165{fill:none;stroke:#0080CA;stroke-width:6;stroke-miterlimit:10;}
	.st166{fill:#031DFF;stroke:#FFFFFF;stroke-miterlimit:10;}
	.st167{fill:#0263B0;}
	.st168{fill:none;stroke:#FFFFFF;stroke-width:2;stroke-miterlimit:10;}
	.st169{fill:url(#SVGID_16_);stroke:#FFFFFF;stroke-miterlimit:10;}
	.st170{fill:url(#SVGID_17_);}
	.st171{fill:url(#SVGID_18_);}
	.st172{fill:url(#SVGID_19_);}
	.st173{fill:#693B0F;stroke:#000000;stroke-miterlimit:10;}
	.st174{fill:#3E4E70;}
	.st175{fill:#F7CE02;}
	.st176{fill:#0551E1;stroke:#000000;stroke-miterlimit:10;}
	.st177{fill:#EC153B;stroke:#000000;stroke-miterlimit:10;}
	.st178{fill:#0831FD;}
	.st179{fill:#0870FD;}
	.st180{fill:none;stroke:#9F3D44;stroke-width:3;stroke-miterlimit:10;}
</style>
<path class="st61" d="M594.5,576.2c0-93.6-20.8-396.5-56.5-478.7c-11.6-26.7-84.7-58.1-155.5-80.1c-24.8-7.7-54.1-9.9-81.7-9.4
	c-27.8-0.6-61.4,1.3-86.4,9.1C143.6,39.2,74.6,70.8,63,97.5C27.2,179.7,6.5,482.7,6.5,576.2c8.8,6.4,17.7,7.6,67.5,9.8
	c10-134,52-285,52-285s-4.1,248-4.1,270c0.2,18.6,87.7,23.8,173.7,24v0c1,0,2.5,0,3.5,0c1,0,2.5,0,3.5,0v0c86-0.2,175-5.4,175.2-24
	c0-22-2.9-270-2.9-270s42.1,151,52.1,285C576.6,583.8,585.7,582.7,594.5,576.2z"/>
<path class="st62" d="M70.4,88.6c0,0,77.1,9.2,55.7,220c-0.4,79.7-1.8,141.7-2.4,184.6c-0.7,46.5-0.8,70.5-0.8,71.6
	c0,3.2-0.6,7.5,0.8,9.2c0.7,1.1,1.7,2.3,3.4,3.5c4.7,3.4,15.3,6.5,27.3,8.8c-14.2-11.6-10.9-42.8-9.8-72.1c1.1-29.4-24-95.4-3-199.4
	c6.8-33.6-5.5-74.9-6-84C131.6,163.1,119.2,97.3,70.4,88.6z"/>
<path class="st62" d="M532.2,89c0,0-79.2,0.7-57.7,211.5c2.1,168.9,3.2,265.3,3.2,264.5c0-2.3,0,2.4,0,6.2c0,1.3-0.7,2.6-0.9,2.9
	c-0.7,1.1-2,2.2-3.6,3.4c-4.7,3.4-13.3,5.9-25.1,8.2c14.2-11.6,11.1-41.8,10-71.2c-1.1-29.4,24-95.4,3-199.4
	c-6.8-33.6,1.5-83.4,2-92.4C467,155.1,485.7,92,532.2,89z"/>
<g>
	<path class="st64" d="M390.9,22.3c-7.1-3.4-11.4-4.8-11.4-4.8l-82.7,139.3L212.2,17.8c0,0-5.4,2.3-11.2,5.2s-10.5,5.6-10.5,5.6
		l106.6,175l104.6-176C401.6,27.7,398,25.6,390.9,22.3z"/>
</g>
<g>
	<g>
		<path class="st143" d="M227.5,28.7C240.3,46,262,62.5,298.1,62.5c36.2,0,56.3-16.8,67.4-34.5C335.2,31.1,259.9,30.8,227.5,28.7z"
			/>
		<path class="st144" d="M368.1,1c-17.6,5.3-142.2,2.9-148.6,0.6c-0.1,0.3-0.3,0.7-0.5,1.1c2.2,7.1,6.3,17.5,13.7,27.5
			c29.5,1.9,97.9,2.2,125.6-0.6c6.2-9.9,9.4-20.2,10.9-27.3C368.8,1.8,368.4,1.4,368.1,1z"/>
	</g>
	<path class="st144" d="M369.2,2.3c-4.1,18.7-19,58.7-72.2,58.7c-53.9,0-72.4-40.1-78-58.3c-2.9,5.3-13.9,16.7-13.9,16.7
		s14.4,61,89.9,61c76.5,0,86.6-58.7,87.7-63.1C380.6,16.4,373.4,6.9,369.2,2.3z"/>
</g>
<g>
	<ellipse cx="374.9" cy="200" rx="19" ry="19.4"/>
	<g>
		<path class="st146" d="M394.3,181.9c-12.6-3.9-26.1-3.9-38.7,0c0-5,0-9.9,0-14.9c12.6-3.9,26.1-3.9,38.7,0
			C394.3,172,394.3,177,394.3,181.9z"/>
		<g>
			<path d="M364.1,170.7C364,170.7,364,170.7,364.1,170.7c-0.5,0.3-1,0.6-1.5,0.9c-0.1-0.5-0.2-1-0.3-1.5c0.7-0.4,1.4-0.9,2.1-1.3
				c0.5-0.1,1.1-0.2,1.6-0.2c0,2.5,0,4.9,0,7.4c-0.7,0.1-1.3,0.2-2,0.3C364.1,174.4,364.1,172.5,364.1,170.7z"/>
			<path d="M368.8,174.2c0.2,0,0.4,0,0.7-0.1c0.5-0.1,1-0.2,1.4-0.4c0.5-0.3,0.8-0.7,0.9-1.2c0,0,0,0,0,0c-0.3,0.3-0.7,0.5-1.4,0.5
				c-1.2,0.1-2.3-0.6-2.3-2.1c0-1.5,1.2-2.8,2.9-2.9c2.1-0.1,2.9,1.5,2.9,3.1c0,1.5-0.5,2.6-1.3,3.4c-0.8,0.7-1.8,1.1-3.1,1.2
				c-0.3,0-0.5,0-0.7,0C368.8,175.2,368.8,174.7,368.8,174.2z M371,169.4c-0.5,0-0.8,0.5-0.8,1.1c0,0.5,0.3,1,0.9,1
				c0.4,0,0.6-0.2,0.7-0.4c0.1-0.1,0.1-0.2,0.1-0.5C371.9,170.1,371.6,169.4,371,169.4L371,169.4z"/>
			<path d="M377.5,175.5c-2.1-0.1-2.9-1.9-2.9-3.9c0-2,0.8-3.9,2.9-3.8c2.1,0.1,2.9,2.1,2.9,4C380.4,174.1,379.5,175.6,377.5,175.5
				C377.6,175.5,377.5,175.5,377.5,175.5z M377.6,174c0.5,0,0.8-0.7,0.8-2.2c0-1.6-0.3-2.3-0.8-2.3c-0.5,0-0.9,0.7-0.9,2.2
				C376.7,173.3,377,174,377.6,174L377.6,174z"/>
			<path d="M384.3,176c0-0.6,0-1.1,0-1.7c-1.1-0.2-2.1-0.3-3.2-0.4c0-0.4,0-0.9,0-1.3c0.8-1.4,1.7-2.8,2.5-4.1
				c0.8,0.1,1.7,0.2,2.5,0.4c0,1.4,0,2.8,0,4.2c0.3,0,0.5,0.1,0.8,0.1c0,0.5,0,1,0,1.5c-0.3-0.1-0.5-0.1-0.8-0.1c0,0.6,0,1.1,0,1.7
				C385.5,176.2,384.9,176.1,384.3,176z M384.3,172.8c0-0.4,0-0.8,0-1.3c0-0.5,0-1,0.1-1.5h0c-0.2,0.5-0.4,0.9-0.7,1.4
				c-0.2,0.4-0.4,0.8-0.6,1.1c0,0,0,0,0,0C383.4,172.7,383.8,172.8,384.3,172.8z"/>
		</g>
	</g>
	<g>
		<path class="st147" d="M414.6,229.8c-25.5,8.4-52.9,8.4-78.4,0c0-5.3,0-10.6,0-16c25.5,8.4,52.9,8.4,78.4,0
			C414.6,219.2,414.6,224.5,414.6,229.8z"/>
		<g>
			<path d="M339.7,218.8c0.7,0.2,1.4,0.4,2.1,0.6c0,2.1,0,4.3,0,6.4c1,0.3,2,0.6,3.1,0.8c0,0.6,0,1.2,0,1.8
				c-1.7-0.4-3.5-0.9-5.2-1.4C339.7,224.3,339.7,221.5,339.7,218.8z"/>
			<path d="M351,226.5c-1-0.2-1.9-0.4-2.9-0.6c0,0.5,0,1,0,1.5c1.1,0.2,2.2,0.5,3.2,0.7c0,0.6,0,1.2,0,1.8c-1.8-0.4-3.6-0.7-5.4-1.2
				c0-2.7,0-5.5,0-8.2c1.7,0.4,3.5,0.8,5.2,1.2c0,0.6,0,1.2,0,1.8c-1-0.2-2-0.4-3.1-0.6c0,0.4,0,0.9,0,1.3c1,0.2,1.9,0.4,2.9,0.6
				C351,225.3,351,225.9,351,226.5z"/>
			<path d="M354.5,230.5c-0.9-2.9-1.7-5.8-2.6-8.7c0.8,0.2,1.6,0.3,2.4,0.4c0.3,1.1,0.6,2.3,0.9,3.4c0.3,1,0.5,1.9,0.7,3
				c0,0,0,0,0,0c0.2-1,0.4-1.9,0.7-2.7c0.3-1,0.6-2.1,0.9-3.1c0.8,0.1,1.5,0.2,2.3,0.3c-0.9,2.6-1.8,5.3-2.7,7.9
				C356.3,230.7,355.4,230.6,354.5,230.5z"/>
			<path d="M365.8,228.5c-1-0.1-2-0.2-2.9-0.3c0,0.5,0,1,0,1.5c1.1,0.1,2.2,0.2,3.3,0.3c0,0.6,0,1.2,0,1.8c-1.8-0.1-3.6-0.3-5.5-0.5
				c0-2.7,0-5.5,0-8.2c1.8,0.2,3.5,0.4,5.3,0.5c0,0.6,0,1.2,0,1.8c-1-0.1-2.1-0.2-3.1-0.3c0,0.4,0,0.9,0,1.3c1,0.1,2,0.2,2.9,0.3
				C365.8,227.3,365.8,227.9,365.8,228.5z"/>
			<path d="M367.3,223.9c0.6-0.1,1.6-0.1,2.6,0c1.2,0.1,2.1,0.2,2.8,0.7c0.5,0.4,0.8,1,0.8,1.8c0,1-0.8,1.7-1.4,2v0
				c0.5,0.3,0.8,0.8,1,1.5c0.2,0.8,0.5,2,0.7,2.4c-0.7,0-1.5,0-2.2,0c-0.1-0.2-0.3-0.9-0.6-1.9c-0.2-1-0.5-1.2-1.2-1.2
				c-0.1,0-0.2,0-0.4,0c0,1,0,2.1,0,3.1c-0.7,0-1.4-0.1-2.2-0.1C367.3,229.3,367.3,226.6,367.3,223.9z M369.5,227.4
				c0.2,0,0.4,0,0.6,0c0.8,0,1.3-0.4,1.3-1s-0.4-1-1.1-1c-0.4,0-0.6,0-0.7,0C369.5,226.1,369.5,226.8,369.5,227.4z"/>
			<path d="M374.8,224c0.7,0,1.4,0,2.2,0c0,1.2,0,2.3,0,3.5c0,0,0,0,0,0c0.2-0.3,0.4-0.6,0.5-0.9c0.5-0.9,1.1-1.7,1.6-2.6
				c0.9,0,1.8-0.1,2.7-0.1c-0.9,1.2-1.7,2.4-2.6,3.6c0.9,1.5,1.8,3.1,2.7,4.6c-0.8,0-1.7,0.1-2.5,0.1c-0.6-1.1-1.1-2.2-1.7-3.3
				c-0.2,0.3-0.4,0.6-0.7,0.9c0,0.8,0,1.7,0,2.5c-0.7,0-1.4,0-2.2,0C374.8,229.5,374.8,226.7,374.8,224z"/>
			<path d="M384.8,223.6c0,1.6,0,3.1,0,4.7c0,1.2,0.4,1.9,1.3,1.8s1.3-0.8,1.3-2.1c0-1.6,0-3.1,0-4.7c0.7-0.1,1.5-0.1,2.2-0.2
				c0,1.5,0,3,0,4.5c0,2.5-1.3,4-3.5,4.2c-2.2,0.2-3.4-1-3.4-3.6c0-1.5,0-3,0-4.5C383.4,223.7,384.1,223.7,384.8,223.6z"/>
			<path d="M391.2,229c0.5,0.2,1.3,0.3,2.1,0.2c0.7-0.1,1.1-0.4,1.1-0.8c0-0.4-0.4-0.6-1.3-0.7c-1.4-0.3-2.3-1-2.3-2.2
				c0-1.5,1.2-2.7,3.3-3c1-0.1,1.7-0.1,2.2,0.1c-0.2,0.6-0.3,1.2-0.5,1.8c-0.3-0.1-0.9-0.2-1.8-0.1c-0.7,0.1-1,0.4-1,0.8
				c0,0.4,0.4,0.5,1.5,0.7c1.5,0.3,2.1,1,2.1,2.1c0,1.4-1.1,2.8-3.5,3.2c-1,0.1-1.9,0-2.4-0.2C391,230.3,391.1,229.6,391.2,229z"/>
			<path d="M402.9,225.8c-1,0.2-1.9,0.4-2.9,0.6c0,0.5,0,1,0,1.5c1.1-0.2,2.2-0.4,3.2-0.7c0,0.6,0,1.2,0,1.8
				c-1.8,0.4-3.6,0.8-5.4,1.1c0-2.7,0-5.5,0-8.2c1.8-0.3,3.5-0.7,5.2-1.1c0,0.6,0,1.2,0,1.8c-1,0.2-2,0.4-3.1,0.7c0,0.4,0,0.9,0,1.3
				c1-0.2,1.9-0.4,2.9-0.6C402.9,224.7,402.9,225.2,402.9,225.8z"/>
			<path d="M404.4,228.8c0-2.7,0-5.5,0-8.2c0.8-0.2,1.7-0.4,2.5-0.6c0.4,0.7,0.8,1.5,1.3,2.2c0.4,0.7,0.9,1.7,1.3,2.5h0
				c-0.1-1.1-0.2-2.2-0.2-3.4c0-0.7,0-1.3,0-2c0.6-0.2,1.3-0.4,1.9-0.6c0,2.7,0,5.5,0,8.2c-0.7,0.2-1.5,0.4-2.2,0.6
				c-0.5-0.8-0.9-1.6-1.4-2.4c-0.4-0.7-1-1.7-1.3-2.6h0c0.1,1.1,0.1,2.3,0.1,3.7c0,0.7,0,1.4,0,2
				C405.8,228.5,405.1,228.7,404.4,228.8z"/>
		</g>
	</g>
	<g>
		<g>
			<g>
				<path class="st148" d="M343.8,219.6c-0.2,0-0.4-0.1-0.5-0.4v0c-0.1-0.1-0.2-0.3-0.3-0.5l-0.2-0.1c-1-0.6-1.5-1.6-1.4-2.7
					c0.1-1.2,0.1-2.3-0.1-3.3c-0.1-0.8,0.2-1.3,0.6-1.8c0.6-0.6,0.9-1.4,1.2-2.2l0.1-0.3c0,0,0-0.1,0-0.1c-0.3-1.2-0.4-2.5-0.2-3.7
					c-1,0.7-2.2,1-3.4,1.1c-3.3,0.2-6.2-2-6.7-5c-0.5-3.1,0.3-5.9,2.3-8.1c1.1-1.2,2.5-1.6,4-1c0.2,0.1,0.4,0.2,0.6,0.3h0.3
					c0.7,0,1.4,0.6,1.8,1.3c0,0.1,0.1,0.1,0.1,0.2c0.1,0.2,0.2,0.4,0.3,0.6c0.1,0.1,0.2,0.2,0.2,0.2s0.1-0.1,0.2-0.2l0.3-0.6
					l0.3,0.6c0.3,0.5,0.2,1.1-0.3,1.4c0,0,0,0-0.1,0v0c0.2,0.4,0,0.7,0,0.8c-0.1,0.1-0.3,0.3-0.6,0.3l0,0c0.1,0.1,0.3,0.2,0.4,0.4
					l0.1,0.3l-0.3,0.2c-0.2,0.1-0.3,0.1-0.5,0.1c0,0.2,0,0.3-0.1,0.5c-0.1,0.3-0.3,0.5-0.5,0.6c-0.1,0.1-0.2,0.1-0.3,0.2
					c-0.3,0.5-0.7,0.8-1.1,1.2c-0.1,0.1-0.2,0.2-0.2,0.2c0.6,0.1,0.8,0.6,0.9,0.8c0.1,0.4,0,0.8-0.2,1c0,0.2-0.2,0.4-0.3,0.4
					c-0.1,0.1-0.2,0.1-0.4,0.1c-0.3,0-0.5-0.2-0.7-0.3c-0.6-0.5-0.9-1.3-0.8-2c0-0.4,0.2-0.8,0.4-1.1c-0.1,0-0.1-0.1-0.2-0.1
					c-0.3-0.2-0.5-0.5-0.6-0.8c-0.2-0.4-0.2-0.8,0-1.1c0.2-0.3,0.6-0.5,1-0.5h0c0.1,0,0.2,0,0.3,0.1c0-0.2,0-0.4,0-0.6
					c0-0.1,0.1-0.3,0.2-0.4c-0.5-0.3-0.6-0.8-0.6-1.2l-0.1-1l0.7,0.6c0.1,0.1,0.2,0.2,0.3,0.2c0-0.1,0.1-0.2,0.2-0.4l0.1-0.2
					c-0.2-0.3-0.5-0.6-0.8-0.8c-1.2-0.6-2.1-0.4-3,0.6c-1.8,2-2.4,4.5-1.8,7.2c0.4,1.9,2.3,3.3,4.3,3.3c0.7,0,1.3-0.2,1.8-0.5
					c1.1-0.6,1.8-1.6,2.2-3c0.4-1.5,1.1-2.6,2.1-3.5c0.2-0.2,0.4-0.4,0.7-0.6c0.3-0.2,0.5-0.5,0.8-0.7c0.6-0.5,1-1.2,1-2.2
					c0-0.2,0-0.4,0-0.6c0-0.1,0-0.1,0-0.2c-0.1,0-0.1,0.1-0.2,0.1l-0.7,0.2l0.3-0.8c0-0.1,0-0.1,0.1-0.2l0-0.1
					c0-0.1,0.1-0.2,0.1-0.3c0,0,0,0,0-0.1c-0.3,0-0.5,0-0.7-0.2c-0.4-0.4-0.2-1-0.2-1.2l0,0c-0.2,0-0.3,0-0.4,0
					c-0.2,0-0.4,0-0.6-0.1l-1-0.4l1-0.3c0.7-0.3,0.9-0.7,0.9-1.6l-0.1,0.1c-0.3,0.4-0.6,0.5-0.8,0.5c-0.3,0-0.5-0.1-0.7-0.3
					c-0.5-0.4-0.6-1-0.4-1.7c0.1-0.3,0.2-0.5,0.3-0.7h-0.5l0.3-0.6c0.2-0.4,0.3-0.7,0.4-1c0,0,0,0-0.1,0c0,0-0.1,0-0.1,0
					c-0.2,0-0.5-0.1-0.6-0.4c-0.1-0.3,0-0.5,0.3-0.7c0,0,0,0,0.1,0c0.2-0.1,0.3-0.3,0.3-0.4c-0.3-0.1-0.4-0.4-0.5-0.5l0,0
					c-0.2-0.4-0.2-0.9-0.1-1.5c0.3-1,0.7-1.8,1.4-2.3l-0.1,0l0.3-0.4c0.5-0.7,1.2-1.1,2-1.1c0.4,0,0.7,0.1,1.1,0.2l0,0
					c0.3-0.2,0.6-0.3,1-0.3c0.4,0,0.7,0,1,0.1v-0.1l0.4,0.1c0.3,0.1,0.7,0.2,0.9,0.5c0.2,0.3,0,0.7,0,0.9l0,0c0.3,0.1,0.5,0.1,0.7,0
					c0.3-0.1,0.6,0,0.9,0.3c0.1,0.1,0.3,0.2,0.5,0.2c0.9,0.1,1.6,0.3,2.2,0.6c0.3,0.1,0.4,0.3,0.5,0.5l0.3-0.1l-0.2,0.5
					c0,0.1,0,0.1-0.1,0.2c0,0,0,0,0,0l0,0c0.1,0.2,0.1,0.4,0.1,0.6l0.2,0.1l-0.2,0c0,0.1-0.1,0.2-0.1,0.4c-0.2,0.3-0.5,0.6-0.9,0.7
					c-0.3,0.1-0.5,0.1-0.8,0.1c-0.1,0-0.2,0-0.3,0h0c0,0-0.1,0-0.1,0s0,0-0.1,0l-0.3,0.3c0,0.1-0.1,0.2-0.1,0.4v0c0,0.1,0,0.2,0,0.3
					c0,0.1,0,0.2,0,0.3c0,0,0.1-0.1,0.1-0.1c0.1-0.1,0.2-0.1,0.3-0.2l0.1,0c0.1,0,0.3-0.1,0.4-0.1c0,0,0.1,0,0.1,0
					c0.1,0,0.2,0,0.3,0c0.3,0,0.6,0.2,0.7,0.5c0.1,0.3,0.1,0.6-0.1,0.9c-0.1,0.3-0.4,0.4-0.7,0.5c0,0,0,0,0,0
					c-0.1,0-0.2,0.1-0.4,0.1l0,0.1c0,0,0,0.1,0,0.1c0.4,0.2,0.8,0.2,1.1-0.2l0.3-0.3l0.3,0.3c0.2,0.2,0.2,0.3,0.1,0.4
					c0,0.1,0,0.2,0,0.2c0,0,0.1,0,0.1,0.1c0.3,0.1,0.6,0.4,0.7,0.7s0.2,0.8,0,1.1c0,0,0.1,0.1,0.1,0.1c0.5-0.5,1.2-0.6,1.8-0.8
					c0.3-0.1,0.6-0.3,0.8-0.6c0.4-0.4,0.8-0.8,1.3-1.1c0.5-0.3,0.8-0.5,1-0.8c0.3-0.4,0.6-0.6,1-0.6c0.2,0,0.4-0.1,0.7-0.2
					c0.1,0,0.1-0.1,0.2-0.1c0,0,0,0,0.1,0c0.1-0.1,0.3-0.2,0.5-0.2c0.1,0,0.3,0,0.5,0.2c1,0.1,1.3,0.5,1.4,1.6l0.1,1.1l-0.2-0.2
					c0,0.1,0,0.2,0,0.3l0,0l0.1,0.1l-0.1,0l-0.1,0.8l-0.4-0.5l0,0c0,0.1,0.2,0.4,0,0.7c-0.1,0.1-0.2,0.2-0.5,0.2c-0.1,0-0.1,0-0.2,0
					c-0.3,0-0.6-0.1-0.7-0.1l-0.1,0.1c-0.2,0.2-0.5,0.3-0.7,0.3l-0.2,0.1c-0.3,0.2-0.5,0.3-0.6,0.5c-0.2,0.3-0.4,0.3-0.6,0.3
					c-0.2,0-0.3-0.1-0.4-0.2c-0.7,1.1-1.4,1.7-2.4,2.2c-0.3,0.1-0.6,0.3-0.9,0.4c0,0-0.1,0-0.1,0c0,0.1,0,0.2,0,0.3c0,0,0,0,0,0.1
					c0.1,1.2,0.1,2.9-1.4,4.1c-0.4,0.3-0.7,0.7-0.8,1.2c-0.4,1.1-1.2,2-2.4,2.9c-0.4,0.3-0.9,0.6-1.3,0.9c-0.9,0.6-1.5,1.4-1.9,2.5
					c-0.2,0.7-0.3,1.3-0.4,1.9c0,0.2-0.1,0.5-0.2,0.7c-0.5,0.9-0.9,1.8-1.3,2.8c-0.4,1-1.1,1.9-2,2.7l-0.2,0.2
					c-0.6,0.5-1.2,1-1.8,1.4c0,0.4,0,0.8-0.1,1.2c0,0.7-0.1,1.3,0,1.9c0,0.2,0,0.4,0.1,0.5c0,0,0,0,0,0s0,0,0.1,0
					c0.6,0.1,1.1,0.3,1.6,0.7c0.2,0.1,0.3,0.3,0.4,0.6c0.1,0.3,0,0.7-0.2,1l-0.4,0.6l-0.1-0.2c-0.1,0-0.1,0-0.1,0
					c-0.2,0-0.3-0.1-0.4-0.2l0,0c-0.1,0-0.2,0-0.3,0c-0.1,0.1-0.3,0.2-0.6,0.2c-0.1,0-0.2,0-0.3-0.1c0,0.1,0,0.2,0,0.4
					c0,0,0,0,0,0.1c0,0.1-0.1,0.5-0.4,0.6C343.9,219.6,343.9,219.6,343.8,219.6z M343.6,217.5l0,0.3c0,0.1,0,0.3,0,0.4
					c0-0.1,0-0.1,0-0.2C343.7,217.8,343.7,217.6,343.6,217.5L343.6,217.5z M345.4,217v0.5c0,0.1,0,0.2,0,0.2c0,0,0,0,0.1,0
					c0.1,0,0.2,0,0.2,0c0-0.1-0.1-0.2-0.1-0.2l0.2-0.2C345.7,217.1,345.5,217.1,345.4,217z M343.3,216.3c0.6,0.1,1,0.6,1.2,1.3
					c0-0.1,0.1-0.2,0.2-0.3l0.3-0.4c-0.1,0-0.2,0-0.3-0.1c-0.2,0-0.6-0.1-0.7-0.5c-0.1-0.2-0.1-0.5-0.1-0.7c0-0.7,0-1.4,0-2
					c0-0.4,0.1-0.8,0.1-1.1c0-0.3,0.1-0.5,0.4-0.6c0.6-0.4,1.2-0.8,1.8-1.3l0.2-0.2c0.8-0.7,1.4-1.5,1.8-2.4c0.4-1,0.8-2,1.3-2.9
					c0.1-0.1,0.1-0.3,0.1-0.4c0.1-0.6,0.2-1.3,0.4-2c0.4-1.3,1.1-2.3,2.2-2.9c0.4-0.3,0.9-0.6,1.3-0.8c1.1-0.8,1.8-1.6,2.1-2.5
					c0.2-0.7,0.6-1.2,1.1-1.6c0.9-0.7,1.3-1.7,1.1-3.2c0,0-0.1,0.1-0.1,0.1c-0.2,0.2-0.6,0.5-1.2,0.5h-0.8l0.4-0.4
					c-0.2,0-0.4-0.1-0.6-0.1c-0.7,0-1.3,0-2.3,0.2c-0.7,0.1-1.4,0-1.9-0.4l0.3-0.7c0.4,0.1,0.7,0.2,1.2,0.1l-0.3-0.5
					c-0.3-0.2-0.4-0.5-0.5-0.7l-0.4,0.4c-0.3,0.3-0.6,0.4-1,0.4l-0.4,0l0.1-0.4c0,0,0-0.1,0-0.1c-0.4,0.2-0.8,0.5-1,0.9l-0.1,0.2
					l0.2,0l-0.2,0.4c-0.2,0.3-0.4,0.5-0.8,0.5c-0.3,0-0.4,0.1-0.4,0.4c0,0.1,0,0.3,0,0.4c0,0.2,0,0.4,0,0.6c0,1.2-0.5,2.2-1.3,2.8
					c-0.3,0.2-0.5,0.4-0.8,0.7c-0.2,0.2-0.5,0.4-0.7,0.6c-0.9,0.8-1.5,1.8-1.9,3.1c-0.4,1.5-1.3,2.7-2.5,3.4
					c-0.7,0.4-1.4,0.6-2.2,0.6c-0.7,0-1.5-0.2-2.1-0.5c0.9,0.4,1.9,0.6,2.9,0.5s2.1-0.4,3-0.9l-0.2-0.2l0.3-0.3
					c0.3-0.4,0.5-0.8,0.8-1.2c0.3-0.6,0.6-1.2,1.2-1.7l0.6,0.5c-0.1,0.1-0.1,0.3-0.2,0.4c0,0.1-0.1,0.1-0.1,0.2
					c-0.1,0.2-0.2,0.3-0.3,0.5c-0.9,2-1.1,4-0.6,6c0.1,0.3,0.2,0.7,0.2,1.1l0,0v0.1c0,0.2,0,0.4,0,0.6h-0.1l-0.1,0.6
					c0,0.4-0.2,0.6-0.4,0.8l-0.1,0.1c-0.2,0.2-0.3,0.4-0.3,0.7c-0.1,0.5-0.6,0.9-1.2,0.9c0.1,1,0.2,2.1,0.1,3.2
					c-0.1,0.7,0.1,1.2,0.6,1.7c0-0.1,0.1-0.1,0.2-0.2l0.2-0.1c-0.2-0.1-0.6-0.2-0.7-0.8l-0.1-1.2l0.8,0.9
					C343.3,216.2,343.3,216.2,343.3,216.3C343.3,216.2,343.3,216.3,343.3,216.3z M342.6,211.2C342.6,211.2,342.6,211.2,342.6,211.2
					c-0.3,0.3-0.4,0.5-0.5,0.7c0.2,0,0.3-0.2,0.3-0.4C342.5,211.3,342.6,211.3,342.6,211.2z M343.5,209.7c0,0.1-0.1,0.2-0.1,0.2
					l0.2-0.3L343.5,209.7z M339.5,201.2c0,0,0.1,0.1,0.1,0.1l0,0c0,0,0-0.1,0.1-0.1C339.6,201.2,339.6,201.2,339.5,201.2z
					 M339.9,198.8L339.9,198.8c-0.2,0.1-0.3,0.2-0.4,0.3c0.1-0.1,0.1-0.1,0.2-0.1C339.7,198.9,339.8,198.9,339.9,198.8z
					 M341.2,197.5C341.2,197.5,341.2,197.5,341.2,197.5c0.1,0,0.1-0.1,0.1-0.2c0,0,0-0.1,0-0.1L341.2,197.5z M339.7,196.9
					c0,0.2,0,0.3,0,0.4l0,0.1c0.1,0,0.2-0.1,0.2-0.1c0.1-0.1,0.1-0.1,0.2-0.2l-0.1,0C339.9,197,339.8,197,339.7,196.9z M340.4,195.8
					c0.2,0,0.4,0.1,0.5,0.4c0.1,0.3,0.1,0.7-0.1,1l0.5-0.2c0-0.1-0.1-0.2-0.2-0.3l0.3-0.4c-0.1-0.1-0.1-0.3-0.2-0.4
					c-0.1-0.4,0-0.7,0.3-0.9c0.1-0.1,0.2-0.2,0.4-0.2c0.1,0,0.1,0,0.2,0c0-0.2,0.1-0.3,0.2-0.4c-0.2,0-0.5-0.2-0.7-0.4
					c-0.2-0.2-0.3-0.5-0.4-0.8c0-0.1,0-0.1-0.1-0.2c0-0.1-0.1-0.2-0.1-0.3l-0.4,0.1c0.3,0.5,0.5,1,0.5,1.4l0,1.1l-0.7-0.9
					c0,0,0-0.1-0.1-0.1c-0.1,0.1-0.2,0.2-0.3,0.3c0.1,0.1,0.3,0.2,0.3,0.3C340.5,195.4,340.4,195.6,340.4,195.8L340.4,195.8
					L340.4,195.8L340.4,195.8z M355,190.5c0.6,0,1.1,0.1,1.6,0.1l0.4,0l0.1,0c0,0,0,0,0.1,0c0,0,0,0,0,0c0.1-0.1,0.3-0.3,0.5-0.4
					c0.2-0.1,0.4-0.2,0.6-0.3c0.3-0.2,0.6-0.3,1-0.5c0.9-0.4,1.6-1.1,2.3-2.3l0.3-0.6l0.3,0.6c0.1,0.1,0.1,0.2,0.1,0.2
					c0.1-0.1,0.3-0.3,0.4-0.4c-0.1-0.1-0.1-0.3,0-0.5l0.2-0.4l0.4,0.3c0.2,0.1,0.2,0.1,0.2,0.1c-0.1-0.1-0.1-0.3,0-0.5l0.1-0.4
					l-0.7-0.5l0.9-0.2c0.2,0,0.3-0.1,0.4,0c0-0.1,0.1-0.1,0.1-0.2c-0.1,0-0.2-0.1-0.4-0.2l-0.6-0.6l0.8-0.1l0,0c0-0.1,0-0.1,0-0.2
					c0,0,0,0-0.1,0c-0.3,0.1-0.6,0.3-0.9,0.3c-0.2,0-0.3,0.1-0.4,0.2c-0.4,0.5-0.9,0.9-1.3,1.1c-0.4,0.2-0.8,0.5-1.1,0.9
					c-0.3,0.3-0.6,0.7-1.2,0.9c-0.7,0.2-1.3,0.4-1.7,0.9l0,0v0.1c0,0,0,0,0,0.1l0.3,0.1l-0.5,0.2c-0.3,0.4-1,0.5-1.4,0.5
					c-0.2,0-0.4,0-0.6-0.1c0.1,0.2,0,0.5-0.1,0.7L355,190.5z M352.9,190.5l0,0.3c0.2,0,0.5-0.1,0.7-0.1c0.2,0,0.4-0.1,0.6-0.1
					c0.2,0,0.4,0,0.6,0l-0.1-1.1c0-0.6-0.2-0.7-0.9-0.7c0,0-0.1,0-0.2,0c-0.2,0-0.3,0.1-0.3,0.1c-0.1,0.1-0.1,0.5-0.1,1.2l0,0.7
					L352.9,190.5z M348.5,190.2l0.2,0.1c0,0.1,0,0.2,0.1,0.3l-0.2-1.3l0.5,0.1c0.1,0,0.1,0,0.2,0.1c0.4-0.4,0.9-0.7,1.6-0.8
					c0,0,0,0,0.1,0c0.1,0,0.2,0,0.3,0c0.2,0,0.3,0.1,0.5,0.2c0.1,0.1,0.1,0.3,0.1,0.4l0.2,0v0h0l-0.1-0.7c0.1,0,0.2-0.1,0.3-0.1
					c0.2,0,0.3,0,0.4,0.1c0.1-0.2,0.3-0.4,0.6-0.6c0.5-0.2,1-0.2,1.7,0.1c0.2,0.1,0.3,0.2,0.4,0.3c-0.1-0.3-0.4-0.5-0.9-0.6
					c-0.2-0.1-0.6-0.2-0.7-0.7l-0.2-1.1l0.8,0.8c0.1,0.1,0.3,0.2,0.4,0.2c0.1,0,0.2,0,0.2,0.1c0.2,0.1,0.4,0.2,0.6,0.4v0
					c0-0.8,0.5-1,0.7-1c0.1,0,0.2,0,0.3,0c0-0.1-0.1-0.1-0.2-0.2c-0.3-0.1-0.5-0.3-0.6-0.4c-0.5,0.2-1,0.2-1.5-0.1
					c-0.2-0.2-0.3-0.4-0.3-0.5c-0.1,0-0.2-0.2-0.3-0.4c0,0,0-0.1,0-0.1c0,0-0.1,0-0.2,0c-0.1,0-0.1,0-0.2,0c-0.5-0.1-1-0.4-1.3-0.8
					l-0.1,0.4c0,0.1,0,0.2-0.1,0.3c-0.3,0.3-0.4,0.4-0.4,0.5c0,0,0,0.1,0.4,0.4c0.6,0.5,1,1,1.1,1.6c0,0.2,0.1,0.6-0.2,1l-0.7-0.3
					c0.1-0.5-0.1-0.9-0.7-1.4c-0.3-0.2-0.5-0.4-0.6-0.7c-0.2-0.3-0.2-0.6-0.1-1c0.1-0.4,0.4-0.7,0.8-0.9l0.4-0.2
					c-0.2-0.3-0.3-0.7-0.3-1.1l0.7-0.2l0,0.1c0,0.1,0,0.1,0.1,0.1c0.3,0.7,0.6,1,1.1,1.2c-0.2-0.3-0.2-0.6-0.2-0.9
					c0-0.1,0-0.1,0-0.2c0-0.1,0-0.3,0.1-0.5c0,0,0-0.1,0-0.2s0-0.1,0-0.2c-0.1,0.1-0.2,0.1-0.2,0.2l-0.7-0.1c0-0.4,0.2-0.8,0.5-0.9
					c0.1-0.1,0.2-0.2,0.3-0.3c-0.1,0.2-0.3,0.3-0.5,0.4l-0.5,0.3l-0.1-0.6c0-0.1,0-0.2,0-0.2c-0.1-0.1-0.3-0.2-0.4-0.4l-0.2-0.4
					l0.3-0.2c0.1-0.1,0.2-0.1,0.3-0.2c0,0,0,0,0,0l-0.6-0.6c-0.2,0-0.4-0.1-0.5-0.1l-0.1,0c-0.4-0.1-0.7-0.3-1-0.6l-0.6-0.6l0.6,0
					c-0.2-0.1-0.5-0.2-0.8-0.2c-0.4,0-0.7,0.1-0.9,0.3c-0.3,0.2-0.7,0.5-1,0.8l-0.2,0.2l-0.6-0.5c0.2-0.3,0.4-0.6,0.7-0.8
					c-0.4,0-0.8,0.1-1.2,0.3l0.3,0.2l-0.4,0.3c0,0-0.1,0.1-0.1,0.1c-0.8,0.5-1.3,1.3-1.6,2.4c-0.1,0.3-0.1,0.5,0,0.7
					c0.1-0.1,0.1-0.1,0.2-0.1l0.4-0.2l0.1,0.5c0.1,0.6,0,1.2-0.4,1.6c0.2,0,0.4,0.1,0.4,0.2c0.1,0.1,0.1,0.1,0.1,0.2l0.4-0.7
					l0.2,0.7c0.1,0,0.2,0.1,0.3,0.2c0.1,0.1,0.2,0.2,0.3,0.2c0,0,0.1-0.1,0.2-0.3c0.2-0.4,0.1-0.9,0.1-1.4v0c0-0.5,0.1-0.9,0.4-1.3
					l0,0c0.1-0.1,0.2-0.3,0.5-0.4l0,0h0.1c0,0,0,0,0,0s0,0-0.1-0.1c-0.1-0.2-0.1-0.4-0.1-0.6c0.1-0.2,0.2-0.4,0.4-0.5
					c0.4-0.3,0.9-0.5,1.4-0.7l0.1,0c0.1-0.1,0.2-0.1,0.4-0.1c0.2,0,0.4,0.1,0.5,0.2l0.6,0.6l-0.8,0c-0.1,0-0.3,0.1-0.4,0.1l0,0
					c0,0,0.1,0.1,0.1,0.1c0.2,0.1,0.3,0.2,0.4,0.3c0.1,0.2,0.1,0.4,0,0.6c0,0,0,0,0,0.1l0.1,0.5l0.5,0.5l-0.8,0
					c-0.1,0-0.2,0-0.4,0.1c-0.3,0.1-0.6,0.1-0.9,0l-0.1,0.3c-0.1,0.3-0.1,0.7-0.1,1c0,0.1,0,0.2,0,0.3c0,0.4-0.1,1.1-0.4,1.7
					c-0.2,0.5-0.8,0.8-1.4,0.8l0,0c-0.3,0-0.5,0-0.8-0.1c-0.3-0.1-0.5-0.2-0.7-0.4l-0.1,0.2c-0.1,0.1-0.1,0.2-0.2,0.3
					c-0.2,0.3-0.4,0.6-0.4,0.9c-0.1,0.4-0.1,0.7,0.1,0.9c0-0.1-0.1-0.3,0-0.5c0.1-0.3,0.5-0.6,0.9-0.6c0.2,0,0.3,0,0.5,0.1
					c0.4,0.2,0.6,0.6,0.6,1.1c0,0.2,0,0.5,0,0.9c0.3-0.5,0.5-1,0.4-1.6l0.7-0.2c0.3,0.8,0.3,1.5-0.1,2.2c-0.3,0.6-0.7,1.1-0.8,1.7
					c-0.1,0.3-0.1,0.4,0,0.4c0.1,0,0.2,0,0.3,0c0.1,0,0.1,0,0.2,0l0.1,0l-0.1-0.7l0.5,0.6l0.1,0c0-0.1,0.1-0.2,0.1-0.3L348.5,190.2
					l0.2-0.1L348.5,190.2z M345.6,186.8c-0.1,0-0.2,0-0.2,0.1c0,0,0,0.1,0.2,0.1l0.3,0.1c0-0.2-0.1-0.2-0.2-0.3
					C345.7,186.8,345.6,186.8,345.6,186.8z M365.2,184.9c0,0.2,0,0.2,0.3,0.2C365.4,185,365.3,185,365.2,184.9z M344.8,184.4
					c0,0,0.1,0,0.1,0l0.2,0c-0.1-0.1-0.1-0.3-0.1-0.4C344.9,184.2,344.8,184.3,344.8,184.4z M347.8,180.9c-0.3,0.3-0.4,0.8-0.4,1.4
					c0,0.6,0,1.1-0.3,1.6c0,0.1-0.1,0.2-0.2,0.4c0.2-0.1,0.3-0.3,0.4-0.6c0.1-0.3,0.1-0.7,0.1-1c0-0.2,0-0.4,0-0.6v0
					c0-0.2,0.1-0.6,0.4-0.9l0.2-0.1C348.1,180.9,348,180.9,347.8,180.9L347.8,180.9z M365.2,183.7c0.1,0,0.2,0,0.2,0
					c-0.1,0-0.2,0-0.3,0L365.2,183.7C365.2,183.7,365.2,183.7,365.2,183.7z M354.5,183.5c0.1,0,0.2,0.1,0.3,0.1
					c0.1,0,0.1-0.1,0.2-0.1c0.1,0,0.1-0.1,0.2-0.1c0-0.1,0.1-0.2,0-0.2c0,0-0.1,0-0.1,0c-0.1,0-0.1,0-0.2,0c0,0-0.1,0-0.2,0.1
					l-0.1,0C354.7,183.3,354.6,183.4,354.5,183.5c-0.1,0-0.2,0.1-0.3,0.1c0,0,0,0,0,0l0,0C354.3,183.5,354.4,183.5,354.5,183.5z
					 M348.4,179.7C348.4,179.7,348.4,179.7,348.4,179.7c0.1,0.3,0.4,0.6,0.7,0.6h0c0.1,0,0.3,0,0.4,0c0,0,0-0.1,0-0.1
					c-0.1-0.1-0.2-0.2-0.3-0.3c-0.1-0.1-0.2-0.2-0.4-0.3C348.7,179.6,348.5,179.7,348.4,179.7z M353.2,179.6
					C353.2,179.6,353.3,179.6,353.2,179.6c0.1,0.1,0.2,0.2,0.2,0.3c0,0,0,0,0-0.1v0c0-0.2,0.1-0.4,0.4-0.6l0.5-0.3
					c-0.2,0-0.4-0.1-0.6-0.1c-0.1,0-0.2,0-0.4-0.1c0.1,0.2,0,0.3,0,0.5C353.3,179.4,353.3,179.5,353.2,179.6
					C353.3,179.6,353.2,179.6,353.2,179.6z M354.5,179.5c0.1,0,0.1,0,0.2,0c0-0.1,0-0.1,0-0.2c0-0.1,0.1-0.2,0.1-0.3
					c-0.1,0-0.3-0.1-0.4-0.1v0.5C354.4,179.5,354.4,179.5,354.5,179.5z M352.4,178.4h0.3c0,0,0.1,0,0.1,0l0,0c0,0-0.1-0.1-0.1-0.1
					C352.5,178.4,352.5,178.4,352.4,178.4z"/>
			</g>
			<g>
				<path class="st148" d="M359,210.1c-0.2,0-0.5-0.1-0.7-0.3c0,0-0.2,0-0.3,0c-0.9,0-1.7,0.1-2.6,0.2c-0.3,0.1-0.6,0.1-0.8,0.1
					c-0.3,0-0.5-0.1-0.7-0.3c-0.1,0.1-0.3,0.1-0.6,0.1c-0.4-0.1-0.8-0.3-1-0.6c-0.2-0.3-0.3-0.7-0.2-1.1c0-0.2,0.1-0.5,0.1-0.7
					c0.1-0.2,0.1-0.5,0.1-0.7c0.1-0.6,0-0.9-0.4-1.4l-0.1-0.1c-0.4,0-0.8-0.1-1.1-0.3c-0.1,0-0.2-0.1-0.3-0.1
					c-0.8-0.2-0.9-0.4-0.7-1.2c0.1-0.4,0.2-0.8,0.3-1.1c0.3-0.7,0.6-1.2,1.4-1.2v0c-0.1-0.4-0.1-0.8,0.1-1.1
					c0.2-0.3,0.4-0.5,0.7-0.6l0.3-0.1c0.6-0.1,1.2-0.3,1.9-0.4c1.4-0.1,2.3,0.7,2.4,2.1c0.1,1-0.1,1.9-0.3,2.8
					c-0.1,0.6-0.3,1.3-0.5,1.9l-0.1,0.3c0,0,0,0.1,0,0.1h0l0.2,0.1c0.3,0.1,0.5,0.1,0.9,0.1c0.2,0,0.4,0,0.6,0c0.2,0,0.4,0,0.6,0
					c0.3,0,0.5-0.1,0.6-0.3c0.3-0.5,0.8-0.7,1.4-0.6c0.5,0.1,0.9-0.1,1.5-0.4c0.2-0.1,0.4-0.2,0.6-0.2c0.6,0,1.1,0.4,1.3,1l0.2,0.5
					h-0.5c-0.1,0-0.2,0-0.2,0c0,0,0,0,0,0.2c0,0.4-0.2,0.6-0.6,0.7c0,0.1,0,0.2-0.1,0.3c-0.1,0.3-0.4,0.3-0.4,0.3c0,0,0,0-0.1,0
					c-0.2,0.5-0.6,0.6-0.8,0.6c-0.2,0-0.3,0-0.5-0.1l0,0c0,0,0,0,0,0.1c-0.3,0.3-0.6,0.6-0.9,0.8l-0.1,0.1
					C359.5,210,359.2,210.1,359,210.1z M358.7,209.1C358.8,209.2,358.8,209.2,358.7,209.1c0.1,0.1,0.2,0.2,0.2,0.2
					c0,0,0.1,0,0.2-0.1l0.1-0.1c0.3-0.3,0.6-0.5,0.8-0.8c0.1-0.1,0.2-0.3,0.4-0.3l0.5-0.4c0.1,0.1,0.1,0.1,0.1,0.1s0,0,0.1-0.1
					c0.1-0.1,0.1-0.1,0.2-0.1c-0.2-0.1-0.4-0.2-0.6-0.2l-0.1-0.3v0.1c-0.1,0-0.3,0-0.4,0c-0.6,0.1-1,0.1-1.2,0.5l-0.6-0.3
					c-0.1,0-0.3,0.1-0.4,0.1c-0.2,0-0.4,0-0.5,0c-0.2,0-0.4,0-0.7,0c-0.5,0-0.8-0.1-1.2-0.2l-0.1-0.1c-0.6-0.2-0.6-0.5-0.4-1.1
					l0.1-0.4c0.2-0.6,0.4-1.2,0.5-1.8c0.2-0.9,0.4-1.7,0.3-2.6c-0.1-1-0.6-1.5-1.6-1.4c-0.6,0-1.2,0.2-1.8,0.3l-0.3,0.1
					c-0.1,0-0.2,0.2-0.3,0.2c-0.1,0.1-0.1,0.3-0.1,0.5c0,0.1,0.1,0.2,0.1,0.3c0,0.1,0.1,0.1,0.1,0.2l0.3,0.7l-0.7-0.1
					c-0.2,0-0.3,0-0.4,0c-0.3,0-0.5,0.1-0.8,0.7c-0.1,0.3-0.2,0.6-0.3,1c0,0.1,0,0.2,0,0.2c0.1,0,0.2,0,0.2,0.1
					c0.1,0,0.3,0.1,0.4,0.1c0.3,0.1,0.6,0.2,1,0.2c0.3,0,0.5-0.1,0.7-0.2l0.5-0.2l0.3-0.9l0.2,0.7l0.2-0.1l-0.1,0.2l0.1,0.4
					c0.2,0.7,0.2,1.4-0.1,2c-0.1,0.2-0.2,0.3-0.2,0.5c-0.2,0.3-0.3,0.6-0.4,0.9h-0.3c0,0.1-0.1,0.2-0.1,0.4c0,0.2,0,0.4,0.1,0.5
					s0.3,0.2,0.4,0.2c0-0.3,0.1-0.5,0.1-0.6l0.4-0.6l0.2,0.7c0.2,0.7,0.3,0.7,0.4,0.7l0,0c0.1,0,0.4,0,0.6-0.1
					c0.1,0,0.3-0.1,0.4-0.1c-0.2-0.1-0.4-0.2-0.6-0.4c0,0-0.1-0.1-0.1-0.1c-0.1,0-0.1-0.1-0.2-0.1l-0.9-0.7l1.1,0
					c0.4,0,0.8,0.2,1,0.5c0,0,0,0,0,0c0,0,0.1,0,0.1,0c0.3-0.1,0.5-0.1,0.8-0.1h0.1c0.3-0.1,0.6,0,0.9,0.3L358.7,209.1L358.7,209.1z
					 M361.4,206.5c0.3,0,0.5,0.3,0.6,0.4c0.1,0.1,0.2,0.1,0.2,0.1s0,0,0,0s0,0,0,0c0-0.4,0.2-0.6,0.3-0.7c-0.2-0.1-0.4-0.1-0.6-0.1
					C361.9,206.2,361.7,206.4,361.4,206.5z M353,205.4c0.1,0.2,0.2,0.4,0.3,0.6c0.1-0.3,0.1-0.5,0.1-0.9
					C353.2,205.3,353.1,205.3,353,205.4z"/>
			</g>
			<g>
				<path class="st148" d="M360.9,198c-0.4,0-0.7-0.2-1-0.5l0,0c-0.2-0.2-0.2-0.2-0.3-0.2c-0.3,0-0.4-0.2-0.6-0.3l0,0
					c-0.4-0.3-0.9-0.7-1.4-1h0c-0.1,0-0.3-0.2-0.3-0.4c0-0.1,0-0.3,0.2-0.5c0.5-0.5,0.6-1.1,0.6-2c0-0.1,0-0.1,0-0.2l0.1-0.7
					l1.1,0.7c0.4,0.3,0.8,0.5,1.1,0.7c0.3,0.2,0.6,0.4,1,0.4c-0.1-0.7,0.5-1.4,1.1-1.7c0.1,0,0.1-0.1,0.1-0.2
					c0.1-0.6,0.6-1.1,1.2-1.1c0.1,0,0.3,0,0.4,0.1c0.1,0,0.4,0.1,0.5,0.4c0,0.1,0,0.3-0.1,0.4c0.1,0.1,0.2,0.3,0.3,0.5
					c0.1,0.4,0,0.8-0.3,1.2c0.1,0,0.1,0.1,0.2,0.2l0.4,0.4l-0.6,0.2c-0.4,0.1-0.3,0.2-0.3,0.4c0,0.1,0.1,0.3-0.1,0.5
					c-0.1,0.2-0.2,0.4-0.2,0.7c0,0.2-0.1,0.3-0.1,0.5c-0.1,0.4-0.4,0.7-0.7,1c-0.1,0.1-0.2,0.3-0.3,0.4c-0.2,0.3-0.6,0.3-0.8,0.1
					c-0.1-0.1-0.1-0.1-0.1-0.1c-0.1,0-0.2,0-0.3,0.1C361.3,197.9,361.2,198,360.9,198L360.9,198z M360.3,196.8c0,0,0.1,0.1,0.1,0.1
					l0,0c0.1,0.1,0.3,0.3,0.4,0.3v0.4v-0.4c0.1,0,0.2,0,0.3-0.1c0.2-0.1,0.3-0.1,0.5-0.1c0.2,0,0.3,0,0.4,0.1
					c0.1-0.1,0.2-0.2,0.3-0.3c0.2-0.2,0.4-0.4,0.5-0.7c0-0.1,0.1-0.2,0.1-0.4c0.1-0.3,0.1-0.6,0.3-1c0-0.2,0-0.4,0.1-0.7
					c-0.1,0-0.2,0-0.3,0c0,0-0.1,0-0.1,0c-0.2,0.1-0.2,0.2-0.2,0.4c0,0.3,0,0.6,0,0.8c0,0.3-0.2,0.6-0.6,0.7l-0.9,0.3l0.5-0.8
					c0.1-0.2,0.1-0.4,0.1-0.7c0-0.1,0-0.2,0-0.2s0-0.1,0-0.2c0,0,0,0,0,0c-0.2,0.2-0.4,0.2-0.5,0.2h-0.1c-0.6,0-1.1-0.3-1.5-0.5
					c-0.4-0.2-0.8-0.5-1.1-0.7c0,0.7-0.2,1.4-0.7,1.9c0.5,0.3,0.9,0.6,1.3,0.9l0,0c0,0,0.1,0.1,0.1,0.1c-0.3-0.2-0.5-0.5-0.7-0.8
					l-0.1-0.1l0.5-0.6c0.2,0.1,0.4,0.3,0.6,0.5c0,0,0.1,0.1,0.1,0.1l0-0.7h0.4c0.4,0,0.8,0.1,1.3,0.4l-0.3,0.7l-1.2-0.2
					c0.3,0.3,0.6,0.4,1,0.4l0.1,0.8C360.8,196.8,360.6,196.8,360.3,196.8z M363.6,191.7c-0.1,0.1-0.3,0.2-0.3,0.4
					c0,0.4-0.2,0.6-0.6,0.8c-0.5,0.2-0.7,0.7-0.7,0.9c0,0,0,0.1,0,0.1c0.1-0.2,0.1-0.3,0.3-0.4c0.3-0.3,0.8-0.4,1.4-0.2
					c0.1-0.1,0.1-0.2,0.2-0.3c-0.2,0.1-0.4,0.1-0.6,0v-0.7c0.2-0.1,0.2-0.1,0.2-0.3C363.5,191.9,363.5,191.8,363.6,191.7z"/>
			</g>
			<g>
				<path class="st148" d="M354.4,183.1L354.4,183.1c-0.1,0-0.1,0-0.2,0s-0.1,0-0.1,0c-0.1,0-0.1,0-0.2,0c-0.3,0-0.4-0.1-0.5-0.2
					c-0.1-0.1-0.2-0.3-0.1-0.6c0,0,0-0.1,0-0.1c0-0.2,0-0.7,0.6-0.8h0.1c0.3,0,1.1,0.5,1.2,1c0,0.4-0.2,0.6-0.7,0.7L354.4,183.1z"/>
			</g>
			<g>
				<path class="st148" d="M355.8,183.1c-0.2,0-0.4-0.1-0.5-0.3c-0.1-0.1-0.1-0.3,0-0.4c0.1-0.3,0.4-0.4,0.5-0.5
					c0.1,0,0.1-0.1,0.2-0.1c0.2-0.1,0.4-0.1,0.6,0.1c0.1,0.1,0.1,0.3,0.1,0.4C356.5,182.7,356.3,183,355.8,183.1L355.8,183.1z"/>
			</g>
			<g>
				<path class="st148" d="M354.7,181.9c-0.3,0-0.5-0.1-0.7-0.2l-0.7-0.1l0.3-0.3l-0.4-0.4l0.8,0.1h0.3v0c0.1,0,0.1,0,0.2,0
					c0.3,0,0.6,0,0.8,0.1l0.8,0.3l-0.7,0.4C355.2,181.8,355,181.9,354.7,181.9z"/>
			</g>
			<g>
				<path class="st148" d="M363.1,208.4l-0.4-0.3c-0.2-0.1-0.4-0.3-0.4-0.6c0-0.3,0.2-0.5,0.3-0.7l0.4-0.4l0.2,0.5
					c0.2,0.4,0.2,0.7,0,1L363.1,208.4z"/>
			</g>
			<g>
				<path class="st148" d="M355.7,182.7l-0.5-0.8c-0.1-0.2-0.3-0.5-0.2-0.7c0.1-0.3,0.4-0.3,0.9-0.4l1.1-0.2l-0.7,0.8
					c-0.1,0.1-0.1,0.1-0.2,0.2c-0.1,0.1-0.1,0.1-0.1,0.2L355.7,182.7z"/>
			</g>
			<g>
				<path class="st148" d="M354,183.4c-0.3,0-0.5-0.2-0.5-0.5c0-0.2,0.1-0.3,0.1-0.4c0.1-0.1,0.3-0.2,0.4-0.2l0,0h0.1
					c0.1,0,0.3,0,0.5,0.2c0.1,0.1,0.1,0.2,0.1,0.4c0,0.2-0.1,0.5-0.5,0.5h0C354.1,183.4,354,183.4,354,183.4z M354,182.7
					c-0.1,0-0.1,0.1-0.1,0.2c0,0.1,0.1,0.2,0.1,0.3l0,0v-0.4l0.1,0.2c0,0,0-0.1,0-0.1C354.2,182.8,354.1,182.7,354,182.7z"/>
			</g>
		</g>
		<g>
			<g>
				<path class="st149" d="M356.1,179.6c-0.1,0.1,0,0.2,0.1,0.3c0.2,0.5,0,1.1-0.6,1.2c-0.3,0.1-0.6,0-1,0.1c-0.1,0-0.3,0-0.4,0.1
					l0,0c0-0.1-0.1-0.1-0.1-0.2c0.2-0.4,0.6-0.2,0.9-0.3c-0.2,0-0.3-0.1-0.4-0.1c-0.3-0.1-0.4-0.3-0.3-0.5c0.1-0.3,0.3-0.2,0.5-0.1
					c0.2,0.1,0.4,0.2,0.6,0.1c-0.3-0.1-0.6-0.2-0.8-0.3c-0.2-0.1-0.2-0.1-0.3,0c-0.1,0.1-0.1,0.3-0.1,0.4c0,0.3,0,0.5-0.1,0.8
					c-0.5,0.1-0.2,0.6-0.4,0.9c0,0.1,0,0.2,0,0.2c0,0.3-0.1,0.7,0.1,0.9s0.5-0.2,0.8-0.3c0.1,0,0.2-0.1,0.4-0.1
					c0.3,0,0.6-0.2,0.7,0.2c0.1,0.4-0.1,0.8-0.5,0.9c-0.2,0-0.4,0.3-0.6,0c0,0-0.1,0-0.1,0c-0.2,0.3-0.3,0.1-0.5,0
					c-0.1-0.1-0.3-0.1-0.4-0.1c-0.9-0.1-1.3-0.7-1.6-1.4c0-0.1-0.1-0.1-0.1-0.2c0,0.8,0.8,1.7,1.5,1.8c0.3,0,0.6,0,0.7,0.4
					c0,0.2,0.2-0.1,0.4,0c-0.1,0.2-0.2,0.5,0.1,0.6c0.5,0.3,1.1,0.2,1.6-0.2c0,0,0,0,0,0.1c-0.1,0.3-0.1,0.6,0.3,0.7
					c0.5,0.2,0.7,0.9,0.5,1.4c0,0-0.1,0-0.1,0c-0.1-0.3-0.2-0.5-0.6-0.4c-0.3,0.1-0.4,0.4-0.4,0.7c0,0.4,0.2,0.8,0.6,1
					c0.1,0.1,0.2,0.1,0.4,0.2c-0.4,0.2-0.8,0.1-1.1,0c-0.1,0-0.2-0.1-0.2-0.2c-0.1-0.5-0.4-0.8-0.9-0.9c-0.3-0.1-0.5-0.1-0.8-0.4
					c0.1,0.3,0.2,0.4,0.4,0.4c0.6,0.2,1.1,0.4,1.2,1.1c0,0,0,0.1,0.1,0.1c0.3,0.2,1.4,0,1.6-0.3c0,0,0-0.1,0-0.1
					c-0.2,0-0.4-0.1-0.5-0.1c-0.4-0.1-0.7-0.7-0.6-1.1c0.1-0.2,0.1-0.3,0.3-0.3c0.2,0,0.2,0.2,0.2,0.3c0,0.2,0,0.3,0,0.5
					c0.4-0.4,0.5,0,0.6,0.3c0.5-0.7,1.2-0.9,1.9-1.1c0.4-0.1,0.7-0.4,1-0.7c0.3-0.4,0.7-0.7,1.2-1c0.4-0.2,0.8-0.5,1.1-1
					c0.2-0.2,0.4-0.4,0.7-0.4c0.4,0,0.7-0.2,1-0.3c0.2-0.1,0.5-0.5,0.7,0c0,0,0.1,0,0.1,0c0.8,0,1.1,0.3,1.1,1.3
					c-0.3-0.4-0.7-0.5-1.1-0.5c-0.2,0-0.3-0.2-0.4-0.3c-0.1,0.3,0.1,0.4,0.3,0.5c-0.3,0.1-0.4-0.1-0.7,0c0.1,0.1,0.3,0.2,0.5,0.2
					c0.7,0,1.3,0.6,1.3,1.3c-0.4-0.4-1.2,0.1-1.3-0.8c-0.2,0.4-0.2,0.5,0.6,0.8c-0.2,0.1-0.7-0.1-0.8-0.2c-0.2-0.2-0.2-0.2-0.6-0.1
					c0.2,0.1,0.6,0.2,0.1,0.5c0.5-0.1,0.8-0.1,1.2,0.1c0.1,0.1,0.2,0.1,0.3,0.3c0.1,0.3,0,0.4-0.3,0.4c-1-0.1-1-0.1-1.3-0.4
					c-0.1,0.3,0.2,0.3,0.2,0.4c-0.5,0.3-0.7,0.4-1.1,0c-0.1,0.2,0.1,0.3,0.2,0.4c-0.3,0.2-0.5,0.4-0.7,0.6c-0.2,0.3-0.5,0.2-0.7-0.3
					c-0.6,1.1-1.3,2-2.5,2.5c-0.5,0.2-1,0.5-1.6,0.8c-0.4,0.2-0.5,0.6-0.9,0.7c-0.1-0.1,0.1-0.3,0-0.3c-0.9-0.1-1.8-0.2-2.6-0.1
					c-0.9,0.1-1.8,0.4-2.7,0c0.4,0.3,1,0.4,1.6,0.3c0.8-0.1,1.6-0.2,2.4-0.2c0.3,0,0.6,0.1,0.9,0.1c0.3,0,0.4,0.1,0.1,0.4
					c0.4,0,0.7-0.2,1-0.4c0.1-0.1,0.1-0.1,0.2-0.2c0.1-0.1,0.3-0.2,0.4-0.2c0.2,0,0.1,0.2,0.1,0.4c0.1,1.4-0.1,2.8-1.3,3.8
					c-0.4,0.4-0.8,0.8-1,1.4c-0.4,1.2-1.3,2-2.3,2.7c-0.4,0.3-0.9,0.6-1.3,0.9c-1,0.6-1.7,1.5-2,2.7c-0.2,0.6-0.3,1.3-0.4,2
					c0,0.2-0.1,0.4-0.2,0.6c-0.5,0.9-0.9,1.9-1.3,2.8c-0.4,1-1,1.9-1.9,2.5c-0.7,0.6-1.3,1.1-2.1,1.6c-0.1,0.1-0.2,0.2-0.2,0.3
					c0,1-0.2,2.1-0.1,3.1c0,0.2,0,0.4,0.1,0.6c0.1,0.2,0.2,0.3,0.4,0.3c0.5,0.1,1,0.3,1.5,0.6c0.3,0.2,0.3,0.6,0.1,1
					c-0.1-0.3-0.1-0.6-0.4-0.8c0.2,0.3,0.2,0.6,0.2,0.9c0,0.2-0.1,0.3-0.2,0.1c-0.1-0.1-0.2-0.2-0.3-0.1c-0.5,0.2-0.6-0.2-0.6-0.6
					c-0.2,0.2-0.1,0.4,0,0.5c0.1,0.3,0,0.3-0.2,0.3c-0.3,0-0.5-0.2-0.5-0.4c-0.1-0.6-0.3-1.1-1-1.2c-0.1,0-0.2-0.1-0.3-0.3
					c0,0.4,0.2,0.4,0.4,0.5c0.6,0.2,0.8,0.6,0.7,1.2c-0.1,0.3,0.1,0.5,0,0.8c0,0.1,0,0.3-0.2,0.3c-0.2,0-0.2-0.2-0.2-0.2
					c-0.3-0.4-0.5-0.7-0.4-1.3c-0.3,0.2-0.1,0.4-0.2,0.6c-0.9-0.6-1.3-1.3-1.2-2.4c0.1-1.1,0.1-2.3-0.1-3.4c-0.1-0.7,0.1-1,0.5-1.5
					c0.6-0.6,1-1.5,1.3-2.4c0.2,0.3,0.2,0.6,0.3,0.9c0-0.6-0.1-1.1-0.2-1.6c-0.6-2.2-0.4-4.3,0.6-6.3c0.1-0.2,0.2-0.4,0.3-0.6
					c0.1-0.2,0.2-0.3,0.3-0.5c-0.9,0.8-1.2,2-1.9,2.9c0.2,0.1,0.2-0.1,0.3-0.1c0,0.2-0.1,0.4-0.3,0.5c-1,0.7-2.1,1.1-3.4,1.1
					c-3.1,0.2-5.8-1.7-6.3-4.7c-0.5-2.9,0.2-5.6,2.2-7.8c1-1,2.2-1.4,3.6-0.9c0.7,0.2,1.3,0.6,1.7,1.3c0-0.3-0.1-0.4-0.8-1
					c0.6,0,1.2,0.5,1.5,1.1c0.1,0.3,0.2,0.6,0.5,0.8c0.4,0.4,0.7,0.4,1-0.1c0.2,0.3,0.2,0.7-0.2,0.9c-0.2,0.1-0.3,0.2-0.2,0.5
					c0.2,0.4-0.1,0.6-0.5,0.6c0-0.1,0.3-0.3,0.1-0.4c-0.1-0.1-0.2,0-0.3,0c-0.2,0.1-0.2,0.3-0.2,0.5c0.1,0.2,0.2,0.4,0.4,0.6
					c0.1,0.1,0.3,0.1,0.3,0.3c-0.4,0.2-0.7,0-1-0.2c0.3,0.3,0.4,0.7,0.2,1.1c-0.1,0.2-0.2,0.4-0.4,0.5c-0.1,0-0.1,0.1-0.2,0
					c-0.1-0.1-0.1-0.3-0.1,0c-0.2,0.6-0.6,1-1.1,1.3c-0.3,0.2-0.6,0.5-0.5,1c0,0.2,0,0.4,0.3,0.5c0.1,0,0.2,0,0.2-0.1
					c0.1-0.2,0-0.3-0.1-0.5c0.4,0,0.6,0.3,0.7,0.6c0.1,0.3,0,0.5-0.3,0.7c0,0-0.3,0,0,0.1c0.1,0,0,0.1-0.1,0.1
					c-0.2,0.1-0.4,0-0.6-0.1c-1-0.9-0.9-2.5,0.4-3.2c0.3-0.2,0.7-0.4,0.9-0.7c-0.6,0.2-1,0.7-1.7,0.2c0,0.2,0.3,0.2,0.4,0.4
					c-0.1,0.2-0.3,0.2-0.5,0.1c-0.2-0.2-0.4-0.4-0.5-0.6c-0.3-0.6,0.1-1.1,0.7-1.1c0.3,0,0.4,0.2,0.3,0.5c-0.2-0.1-0.3-0.4-0.5-0.1
					c-0.2,0.3,0,0.5,0.2,0.6c0.3,0.2,0.8,0.2,1.1-0.1c0.4-0.3,0.6-0.9,0.4-1.3c0-0.1-0.1-0.2-0.2-0.2c-0.1,0-0.2,0.1-0.2,0.3
					c0,0.1,0.1,0.2,0,0.3c-0.3-0.1-0.5-0.4-0.4-0.8c0-0.2,0.1-0.3,0.2-0.4c0.1-0.2,0.1-0.2-0.1-0.3c-0.4-0.2-0.5-0.5-0.6-1
					c0.6,0.5,0.8,0.4,1-0.4c0.2,0.2,0.3,0.5,0.4,0.7c0-0.7-0.7-1.8-1.4-2.2c-1.3-0.7-2.4-0.5-3.4,0.6c-1.8,2.3-2.4,4.9-1.7,7.7
					c0.7,2.9,4.2,4.5,6.7,3.1c1.2-0.7,2-1.8,2.4-3.2c0.4-1.3,1-2.4,2-3.3c0.5-0.4,1-0.9,1.5-1.3c0.8-0.7,1.1-1.5,1.1-2.5
					c0-0.3,0-0.7,0-1c0-0.5,0.2-0.7,0.7-0.8c0.2,0,0.4-0.1,0.5-0.3c-0.4-0.1-0.7-0.3-0.6-0.8c-0.3,0.5,0,0.7,0.3,0.9
					c-0.3,0.1-0.5,0-0.7-0.2c0.1,0.5-0.3,1-0.8,1.2c0-0.1,0.1-0.2,0.1-0.3c0.1-0.2,0.1-0.4,0.1-0.5s-0.3-0.2,0-0.5
					c-0.3,0.1-0.6,0.2-0.8,0c-0.2-0.3-0.2-0.5-0.1-0.8c0.2-0.6,0.5-1.2,0.9-1.7c0.4-0.6,0.3-1.2,0.1-1.8c0.3,1.2-0.6,1.9-0.9,2.9
					c-0.1,0.2-0.9,0.3-1.3,0.1c1.1-0.4,1.2-1.3,1.1-2.2c0-0.3-0.1-0.6-0.4-0.7c-0.3-0.2-0.7,0-0.9,0.2c-0.1,0.3,0,0.5,0.4,0.6
					c-0.3,0.4-0.7,0.4-1,0.1c-0.4-0.4-0.4-0.9-0.3-1.4c0.1-0.5,0.4-0.9,0.6-1.3c-0.2-0.1-0.4,0.1-0.6,0.1c0.2-0.4,0.4-0.9,0.5-1.3
					c0.1-0.2,0.2-0.5-0.2-0.3c0,0-0.1,0-0.2,0c-0.2,0-0.4,0-0.4-0.2c-0.1-0.1,0.2-0.2,0.3-0.3c0.5-0.4,0.7-0.9,0.5-1.5
					c-0.1,0-0.1,0-0.1,0c-0.1,0.1,0,0.4-0.1,0.4c-0.2,0-0.3-0.2-0.4-0.4c-0.2-0.4-0.1-0.8,0-1.2c0.3-1,0.8-2,1.8-2.6
					c0,0,0.1-0.1,0.1-0.1c-0.2-0.1-0.3,0-0.4,0c0.6-0.9,1.6-1.2,2.7-0.7c-0.4,0.4-0.8,0.7-1.1,1.2c0.4-0.4,0.8-0.7,1.2-1
					c0.3-0.2,0.7-0.4,1.1-0.4c0.6-0.1,1,0.1,1.4,0.6c0.2-0.2,0-0.3,0-0.5c0.6,0.1,0.8,0.4,0.6,0.8c-0.1-0.1,0-0.3-0.1-0.4
					c-0.1,0.2-0.1,0.4-0.2,0.5c-0.2,0.1-0.3-0.2-0.6-0.1c0.2,0.3,0.5,0.4,0.8,0.5c0.4,0.1,0.8,0.2,1.3,0.1c0.2-0.1,0.4,0,0.5,0.2
					c0.2,0.2,0.5,0.3,0.7,0.3c0.7,0.1,1.5,0.2,2.1,0.5C356.2,179.1,356.3,179.3,356.1,179.6c-0.2-0.1-0.4-0.2-0.6-0.1
					c-0.1,0-0.3,0-0.3-0.2c0-0.1,0.2-0.1,0.2-0.2c-0.2,0-0.4,0-0.4,0.2c0,0.1,0,0.2,0.1,0.2C355.5,179.7,355.8,179.7,356.1,179.6z
					 M347.6,180.6c0.3-0.1,0.6-0.1,0.9,0.1c0.4,0.3,0.9,0,1.4,0c-0.1-0.1-0.2-0.1-0.3-0.1c-0.2,0-0.4,0-0.5,0c-0.5,0-1-0.3-1.1-0.8
					c-0.1-0.2,0-0.4,0.2-0.5c0.6-0.2,1.1-0.7,1.8-0.8c-0.2-0.2-0.4-0.1-0.5-0.1c-0.5,0.2-1,0.5-1.4,0.7c-0.2,0.1-0.4,0.4-0.2,0.6
					C348.1,180.2,348,180.4,347.6,180.6c-0.2,0-0.3,0.2-0.4,0.3c-0.2,0.3-0.3,0.7-0.3,1c0,0.5,0,1.1-0.2,1.6
					c-0.2,0.7-0.7,0.7-1.1,0.2c0,0,0-0.1-0.1,0c0.1,0.3,0.4,0.5,0.7,0.5c0.3,0,0.5-0.2,0.6-0.5c0.2-0.4,0.3-0.9,0.2-1.4
					C347,181.6,347.1,181,347.6,180.6z M348.2,181.4c-0.3,0.2-0.3,0.4-0.3,0.6c-0.1,0.6,0,1.1-0.2,1.7c-0.2,0.7-0.6,1-1.2,1
					c-0.8,0-1.1-0.3-1.2-1.1c0,0,0,0,0,0.1c-0.1,0.5,0.2,0.9,0.8,1.1c0.8,0.3,1.4,0.1,1.7-0.4c0.2-0.5,0.3-1,0.3-1.6
					C348.1,182.4,348,181.9,348.2,181.4z M355.1,189.4c0.2-0.4,0-0.9-0.5-1.1c-0.4-0.2-0.9-0.3-1.4-0.1c-0.5,0.2-0.5,0.7-0.6,1.3
					c-0.4-0.9-0.4-0.9-0.7-0.8c0.4,0,0.3,0.4,0.4,0.6c0.1,0.2,0.3,0.5,0.5,0.6c-0.1-1.2,0.1-1.6,0.7-1.7
					C354.5,188.3,355,188.4,355.1,189.4z M352.4,187.4c0.2-0.2,0.1-0.5,0.1-0.7c-0.1-0.6-0.4-1-0.9-1.4c-0.7-0.5-0.7-0.9-0.1-1.5
					c0,0,0,0,0-0.1c-0.6,0.3-0.8,0.8-0.5,1.3c0.1,0.2,0.3,0.4,0.5,0.6C352.1,186.1,352.6,186.6,352.4,187.4z M349.1,190.5
					c0.4-0.7,1-1.1,1.7-1.2c0.1,0,0.3-0.1,0.3,0c0.1,0.1-0.1,0.2-0.1,0.3c-0.1,0.1-0.2,0.2-0.3,0.4c0.2,0,0.4,0,0.7-0.3
					c-0.2,0-0.4,0.2-0.2-0.1c0.1-0.1,0.2-0.3,0.1-0.5c-0.1-0.1-0.3,0-0.4,0c-0.7,0.1-1.2,0.4-1.6,1c-0.1-0.1,0-0.3-0.2-0.3
					C349,190,349,190.2,349.1,190.5z M352.6,180.3c0.2-0.1,0.5-0.3,0.4-0.4c-0.3-0.3-0.1-0.5,0-0.7c0-0.3,0-0.4-0.3-0.4
					c0.3,0.4,0.4,0.3-0.4,0.8c0.1,0.2,0.4,0.3,0.6,0.4C352.8,180.1,352.6,180.1,352.6,180.3z M341.9,212.2c0.5,0.2,0.9-0.1,1-0.5
					c0.1-0.3,0.2-0.6,0.4-0.8s0.3-0.4,0.4-0.7c-0.3,0.5-0.7,0.9-0.9,1.4C342.7,212,342.5,212.2,341.9,212.2z M352.9,181.5
					c0.2-0.4,0.6-0.5,0.8-0.8c0.2-0.3,0.3-0.7,0.3-1.1c-0.2,0.1-0.2,0.3-0.2,0.4c-0.1,0.4-0.2,0.8-0.6,1
					C353,181,352.9,181.2,352.9,181.5z M349.9,180.1c-0.1-0.1,0.3-0.5-0.2-0.6c-0.2-0.1-0.4-0.4-0.7-0.3
					C349.4,179.5,349.9,179.7,349.9,180.1z"/>
			</g>
			<g>
				<path class="st149" d="M363.3,206.4c-0.3,0-0.5,0.1-0.6,0.5c0,0.5-0.6,0.5-0.9,0.2c-0.2-0.2-0.5-0.4-0.9-0.1
					c0.6,0,0.9,0.2,1.2,0.5c0.1,0.1,0.1,0.2,0.1,0.3c-0.1,0.2-0.2,0-0.3,0c-0.1,0-0.2,0-0.3,0.1c-0.3,0.2-0.5,0.2-0.7-0.1
					c0.2,0.3,0.4,0.4,0.8,0.2c-0.1,0.4-0.4,0.5-0.7,0.3c-0.2-0.1-0.3-0.1-0.5,0.1c-0.3,0.3-0.7,0.6-1,0.9c-0.3,0.2-0.6,0.3-0.9,0
					c-0.1-0.1-0.3-0.2-0.5-0.2c-0.9,0-1.8,0-2.7,0.2c-1,0.2-1.1,0.2-1.5-0.8c-0.1,0.1-0.1,0.3-0.1,0.4c0.1,0.4-0.1,0.4-0.4,0.4
					c-0.6-0.1-1-0.6-0.9-1.2c0.1-0.5,0.2-0.9,0.3-1.4c0.1-0.7,0-1.1-0.5-1.7c0.2-0.1,0.5-0.1,0.7-0.4c-0.7,0.3-1.4,0.2-2,0
					c-0.1,0-0.2-0.1-0.4-0.1c-0.6-0.1-0.6-0.1-0.5-0.7c0.1-0.4,0.2-0.7,0.3-1.1c0.4-0.9,0.7-1.1,1.6-0.9c-0.1-0.2-0.2-0.4-0.2-0.6
					c-0.1-0.5,0.1-1.1,0.6-1.2c0.7-0.2,1.4-0.4,2.1-0.4c1.2-0.1,1.9,0.5,2,1.7c0.1,0.9-0.1,1.8-0.3,2.7c-0.2,0.7-0.4,1.5-0.7,2.2
					c-0.2,0.6-0.1,0.5,0.4,0.7c0.7,0.3,1.5,0.1,2.2,0.1c0.4,0,0.7-0.2,1-0.5c0.3-0.4,0.6-0.5,1-0.4c0.6,0.1,1.2-0.2,1.7-0.4
					C362.5,205.5,363.1,205.8,363.3,206.4z M357.7,208.7c-0.2-0.2-0.4-0.2-0.6-0.2c-0.3,0-0.6,0.1-0.9,0.2c-0.2,0-0.4,0-0.5-0.2
					c-0.2-0.2-0.4-0.3-0.7-0.3c0.2,0.1,0.4,0.2,0.4,0.3c0.1,0.3,0.4,0.3,0.6,0.3C356.6,208.7,357.1,208.6,357.7,208.7z M353,207.9
					c0.1-0.6,0.4-1,0.6-1.5c0.3-0.6,0.2-1.2,0.1-1.8c0,0.1,0,0.2,0,0.2c0.1,0.7,0,1.4-0.4,2C353.1,207.2,352.9,207.5,353,207.9z
					 M360.8,206.8c-1-0.2-1.6,0-1.9,0.8C359.3,206.8,360.1,206.9,360.8,206.8z"/>
			</g>
			<g>
				<path class="st149" d="M358.4,192.7c0.6,0.4,1.1,0.7,1.7,1.1c0.4,0.2,0.8,0.4,1.2,0.4c0.2,0,0.4,0,0.3-0.4
					c-0.1-0.4,0.3-1.1,0.9-1.3c0.2-0.1,0.3-0.2,0.3-0.5c0.1-0.6,0.6-0.9,1.1-0.7c0.2,0.1,0.3,0.1,0.1,0.3c-0.1,0.1-0.2,0.2-0.2,0.4
					c0,0.3-0.2,0.6-0.5,0.6c0.4,0.1,0.6-0.1,0.7-0.6c0.5,0.2,0.4,1-0.2,1.7c0.1,0.1,0.4,0.1,0.5,0.2c-0.4,0.1-0.7,0.4-0.6,0.8
					c0,0.1,0,0.2,0,0.2c-0.3,0.4-0.3,0.9-0.4,1.3c-0.2,0.5-0.7,0.8-1,1.3c-0.1,0.1-0.2,0.1-0.2,0.1c-0.4-0.4-0.8,0-1.2,0
					c-0.3,0-0.6-0.2-0.7-0.4c-0.2-0.2-0.3-0.4-0.7-0.4c-0.1,0-0.3-0.1-0.4-0.2c-0.5-0.4-1-0.7-1.5-1c-0.1-0.1-0.3-0.1-0.1-0.3
					c0.6-0.6,0.7-1.4,0.8-2.2C358.4,192.9,358.4,192.8,358.4,192.7z M363.6,193.6c-0.8-0.3-1.3,0.1-1.3,0.9c0,0.4,0.1,0.7-0.1,1.1
					c0.2-0.1,0.3-0.2,0.3-0.3c0-0.3,0-0.5,0-0.8c0-0.4,0.2-0.7,0.5-0.8C363.1,193.7,363.4,193.8,363.6,193.6z M361,196.4
					c-0.9,0.1-1.4-0.7-2-1.2C359.5,195.9,360,196.6,361,196.4z M360.3,195.1C360.3,195.2,360.3,195.2,360.3,195.1
					c0.3,0.2,0.7,0.2,1,0.3C361,195.2,360.6,195.1,360.3,195.1z"/>
			</g>
			<g>
				<path class="st149" d="M354.4,182.7c-0.2,0-0.3,0-0.4,0c-0.2,0-0.3-0.1-0.3-0.3c0.1-0.2,0-0.5,0.3-0.6c0.2,0,0.8,0.4,0.8,0.6
					C354.8,182.7,354.6,182.7,354.4,182.7z"/>
			</g>
			<g>
				<path class="st149" d="M355.8,182.8c-0.1,0-0.2-0.1-0.2-0.1c0.1-0.2,0.4-0.3,0.6-0.4c0.1,0,0.1,0,0.1,0.1
					C356.2,182.6,356,182.7,355.8,182.8z"/>
			</g>
			<g>
				<path class="st149" d="M354.2,181.3c0.3,0,0.7-0.1,1.1,0.1C354.9,181.6,354.3,181.5,354.2,181.3L354.2,181.3z"/>
			</g>
			<g>
				<path class="st149" d="M362.9,207.1c0.1,0.3,0.1,0.5,0,0.7C362.6,207.6,362.6,207.4,362.9,207.1z"/>
			</g>
			<g>
				<path class="st149" d="M355.5,181.7c-0.2-0.4-0.2-0.4,0.4-0.5C355.8,181.4,355.6,181.5,355.5,181.7z"/>
			</g>
			<g>
				<path class="st149" d="M354.1,182.8c0.1,0,0.3,0,0.2,0.1c0,0.2-0.2,0.1-0.3,0.1c-0.1,0-0.2,0-0.2-0.1
					C353.8,182.7,354,182.8,354.1,182.8z"/>
			</g>
		</g>
	</g>
	<g>
		<g>
			<g>
				<path class="st148" d="M405.7,219.6c0,0-0.1,0-0.1,0c-0.4-0.1-0.4-0.4-0.4-0.6c0,0,0,0,0-0.1c0-0.1,0-0.3,0-0.4
					c-0.1,0-0.2,0.1-0.3,0.1c-0.3,0-0.5-0.1-0.5-0.2c-0.1,0-0.2,0-0.3,0c0,0,0,0,0,0c-0.1,0.1-0.2,0.2-0.4,0.2c0,0-0.1,0-0.1,0
					l-0.1,0.2l-0.4-0.6c-0.2-0.3-0.3-0.7-0.2-1c0.1-0.2,0.2-0.4,0.4-0.6c0.5-0.3,1-0.6,1.6-0.7c0,0,0.1,0,0.1,0s0,0,0,0
					c0.1-0.1,0.1-0.3,0.1-0.5c0-0.7,0-1.3,0-1.9c0-0.4-0.1-0.8-0.1-1.2c-0.7-0.4-1.3-0.9-1.8-1.4l-0.2-0.2c-0.9-0.8-1.6-1.7-2-2.7
					c-0.4-0.9-0.8-1.9-1.3-2.8c-0.1-0.2-0.2-0.5-0.2-0.7c-0.1-0.6-0.2-1.2-0.4-1.9c-0.3-1.1-0.9-1.9-1.9-2.5
					c-0.5-0.3-0.9-0.6-1.3-0.9c-1.3-0.9-2.1-1.8-2.4-2.9c-0.2-0.5-0.5-0.9-0.8-1.2c-1.5-1.2-1.5-2.9-1.4-4.1c0,0,0,0,0-0.1
					c0-0.1,0-0.2,0-0.3c0,0-0.1,0-0.1,0c-0.3-0.2-0.6-0.3-0.9-0.4c-0.9-0.4-1.7-1.1-2.4-2.2c-0.1,0.1-0.3,0.2-0.4,0.2
					c-0.1,0-0.4-0.1-0.6-0.3c-0.2-0.2-0.3-0.4-0.6-0.5l-0.2-0.1c-0.2,0-0.4-0.2-0.7-0.3l-0.1-0.1c-0.2,0-0.4,0.1-0.7,0.1
					c-0.1,0-0.1,0-0.2,0c-0.3,0-0.4-0.1-0.5-0.2c-0.2-0.3-0.1-0.6,0-0.7l0,0l-0.4,0.5l-0.1-0.8l-0.1,0l0.1-0.1l0,0
					c0-0.1,0-0.2,0-0.3l-0.2,0.2l0.1-1.1c0.1-1.1,0.4-1.6,1.4-1.6c0.2-0.2,0.3-0.2,0.5-0.2c0.2,0,0.4,0.1,0.5,0.2c0,0,0.1,0,0.1,0.1
					c0.1,0,0.1,0.1,0.2,0.1c0.2,0.1,0.4,0.2,0.7,0.2c0.4,0,0.8,0.2,1,0.6c0.2,0.3,0.5,0.6,1,0.8c0.5,0.3,0.9,0.6,1.3,1.1
					c0.2,0.3,0.5,0.5,0.8,0.6c0.6,0.2,1.2,0.3,1.8,0.8c0,0,0.1-0.1,0.1-0.1c-0.1-0.3-0.1-0.8,0-1.1c0.1-0.4,0.4-0.6,0.7-0.7
					c0.1,0,0.1,0,0.1-0.1c0,0,0-0.1,0-0.2c0-0.1,0-0.3,0.1-0.4l0.3-0.3l0.3,0.3c0.3,0.3,0.7,0.4,1.1,0.2c0,0,0-0.1,0-0.1l-0.1-0.1
					c-0.2,0-0.3-0.1-0.4-0.1c0,0,0,0-0.1,0c-0.3-0.1-0.5-0.2-0.7-0.5c-0.2-0.3-0.2-0.6-0.1-0.9c0.1-0.3,0.3-0.5,0.7-0.5
					c0.1,0,0.2,0,0.3,0c0,0,0.1,0,0.1,0c0.2,0,0.3,0.1,0.4,0.1l0.1,0c0.1,0,0.2,0.1,0.3,0.2c0,0,0.1,0,0.1,0.1c0-0.1,0-0.2,0-0.3
					c0-0.1,0-0.2,0-0.3v0c-0.1-0.1-0.1-0.2-0.1-0.4l-0.3-0.3c0,0,0,0-0.1,0s-0.1,0-0.1,0h0c-0.1,0-0.2,0-0.3,0c-0.2,0-0.5,0-0.8-0.1
					c-0.4-0.1-0.7-0.3-0.9-0.7c-0.1-0.1-0.1-0.2-0.1-0.4l-0.2,0l0.2-0.1c0-0.2,0-0.4,0.1-0.6l0,0c0,0,0,0,0,0c0-0.1,0-0.1-0.1-0.2
					l-0.2-0.5l0.2,0.1c0.1-0.2,0.3-0.3,0.5-0.5c0.6-0.3,1.3-0.4,2.2-0.6c0.3,0,0.4-0.1,0.5-0.2c0.2-0.2,0.6-0.3,0.9-0.3
					c0.2,0.1,0.5,0,0.7,0l0,0c0-0.1-0.2-0.5,0-0.9c0.2-0.3,0.6-0.5,0.9-0.5l0.4-0.1v0.1c0.3-0.1,0.6-0.2,1-0.1c0.4,0,0.7,0.1,1,0.3
					l0,0c0.4-0.2,0.7-0.2,1.1-0.2c0.8,0,1.5,0.4,2,1.1l0.3,0.4l-0.1,0c0.6,0.6,1.1,1.4,1.4,2.3c0.2,0.6,0.1,1-0.1,1.5l0,0
					c-0.1,0.1-0.2,0.4-0.5,0.5c0.1,0.2,0.2,0.3,0.3,0.4c0,0,0,0,0.1,0c0.3,0.2,0.4,0.4,0.3,0.7c-0.1,0.3-0.5,0.4-0.6,0.4
					c0,0-0.1,0-0.1,0c0,0,0,0-0.1,0c0.1,0.3,0.3,0.7,0.4,1l0.3,0.6h-0.5c0.1,0.2,0.2,0.5,0.3,0.7c0.2,0.7,0,1.3-0.4,1.7
					c-0.2,0.2-0.5,0.3-0.7,0.3c-0.2,0-0.5-0.1-0.8-0.5l-0.1-0.2c0,0.9,0.1,1.4,0.9,1.6l1,0.3l-1,0.4c-0.2,0.1-0.4,0.1-0.6,0.1
					c-0.1,0-0.2,0-0.4,0l0,0c0.1,0.3,0.3,0.8-0.2,1.2c-0.2,0.2-0.4,0.3-0.7,0.2c0,0,0,0,0,0.1c0,0.1,0,0.2,0.1,0.3l0,0.1
					c0,0.1,0,0.1,0.1,0.2l0.3,0.8l-0.7-0.2c-0.1,0-0.1,0-0.2-0.1c0,0.1,0,0.1,0,0.2c0,0.2,0,0.4,0,0.6c0,1,0.4,1.7,1,2.2
					c0.3,0.2,0.6,0.5,0.8,0.7c0.2,0.2,0.4,0.4,0.7,0.6c1,0.9,1.7,2,2.1,3.5c0.4,1.3,1.1,2.3,2.2,3c0.5,0.3,1.2,0.5,1.8,0.5
					c2,0,3.8-1.4,4.3-3.3c0.6-2.7,0-5.2-1.8-7.2c-0.9-1-1.8-1.1-3-0.6c-0.3,0.1-0.6,0.4-0.8,0.8l0.1,0.2c0.1,0.3,0.1,0.4,0.2,0.4
					c0,0,0.1-0.1,0.3-0.2l0.7-0.6l-0.1,1c0,0.4-0.2,0.9-0.6,1.2c0.1,0.1,0.1,0.2,0.2,0.4c0.1,0.2,0.1,0.4,0,0.6
					c0.1,0,0.2-0.1,0.3-0.1h0c0.4,0,0.8,0.2,1,0.5c0.2,0.3,0.2,0.7,0,1.1c-0.1,0.3-0.3,0.5-0.6,0.8c-0.1,0-0.1,0.1-0.2,0.1
					c0.2,0.3,0.4,0.7,0.4,1.1c0.1,0.8-0.2,1.5-0.8,2c-0.1,0.1-0.4,0.3-0.7,0.3c-0.1,0-0.2,0-0.4-0.1c-0.1,0-0.3-0.2-0.3-0.4
					c-0.3-0.2-0.4-0.6-0.2-1c0.1-0.2,0.2-0.8,0.9-0.8c-0.1-0.1-0.1-0.1-0.2-0.2c-0.4-0.3-0.9-0.7-1.1-1.2c-0.2,0-0.3-0.1-0.3-0.1
					c-0.2-0.2-0.4-0.4-0.5-0.6c-0.1-0.2-0.1-0.3-0.1-0.5c-0.2,0-0.3-0.1-0.5-0.1l-0.3-0.2l0.1-0.3c0.1-0.2,0.3-0.3,0.4-0.4l0,0
					c-0.4,0-0.5-0.2-0.6-0.3c-0.1-0.1-0.2-0.4,0-0.8v0c0,0,0,0-0.1,0c-0.5-0.3-0.6-0.9-0.3-1.4l0.3-0.6l0.3,0.6
					c0.1,0.2,0.2,0.2,0.2,0.2c0,0,0.1,0,0.2-0.2c0.1-0.1,0.2-0.3,0.3-0.6c0-0.1,0.1-0.1,0.1-0.2c0.3-0.8,1.1-1.3,1.8-1.3h0.3
					c0.2-0.1,0.4-0.2,0.6-0.3c1.5-0.5,2.9-0.2,4,1c2,2.2,2.8,5,2.3,8.1c-0.5,2.9-3.1,5-6.3,5l0,0c-0.1,0-0.3,0-0.4,0
					c-1.2-0.1-2.4-0.4-3.4-1.1c0.2,1.2,0.1,2.5-0.2,3.7c0,0,0,0.1,0,0.1l0.1,0.3c0.3,0.8,0.6,1.6,1.2,2.2c0.5,0.5,0.8,1,0.6,1.8
					c-0.2,1.1-0.2,2.2-0.1,3.3c0.1,1.2-0.4,2.1-1.4,2.7l-0.2,0.1c-0.1,0.2-0.2,0.4-0.3,0.5l0,0C406.1,219.5,405.9,219.6,405.7,219.6
					z M405.9,217.5L405.9,217.5c-0.1,0.2-0.1,0.4,0,0.5c0,0.1,0,0.1,0,0.2c0-0.1,0.1-0.3,0-0.4L405.9,217.5z M403.9,217.7
					c0.1,0,0.1,0,0.2,0c0,0,0.1,0,0.1,0c0,0,0-0.1,0-0.2V217c-0.1,0.1-0.3,0.1-0.4,0.2l0.2,0.2C403.9,217.5,403.8,217.6,403.9,217.7
					C403.8,217.7,403.9,217.7,403.9,217.7z M404.5,216.9l0.3,0.4c0.1,0.1,0.2,0.2,0.2,0.3c0.2-0.7,0.6-1.2,1.2-1.3l0,0
					c0,0,0.1-0.1,0.1-0.1l0.8-0.9l-0.1,1.2c-0.1,0.6-0.5,0.8-0.7,0.8l0.2,0.1c0.1,0.1,0.2,0.1,0.2,0.2c0.4-0.4,0.6-1,0.6-1.7
					c-0.1-1.1-0.1-2.2,0.1-3.2c-0.6,0-1-0.3-1.2-0.9c-0.1-0.2-0.2-0.4-0.3-0.7l-0.1-0.1c-0.2-0.2-0.3-0.5-0.4-0.8l-0.1-0.6h-0.1
					c0-0.2,0-0.4,0-0.6v-0.1l0,0c0-0.4,0.1-0.8,0.2-1.1c0.6-2.1,0.4-4-0.6-6c-0.1-0.2-0.2-0.4-0.3-0.5c0-0.1-0.1-0.1-0.1-0.2
					c-0.1-0.1-0.1-0.2-0.2-0.4l0.6-0.5c0.6,0.5,0.9,1.1,1.2,1.7c0.2,0.5,0.5,0.9,0.8,1.2l0.3,0.3l-0.2,0.2c0.9,0.6,1.9,0.9,3,0.9
					c0.1,0,0.2,0,0.4,0l0,0c0.9,0,1.8-0.2,2.6-0.5c-0.7,0.3-1.4,0.5-2.1,0.5c-0.8,0-1.6-0.2-2.2-0.6c-1.3-0.7-2.1-1.9-2.5-3.4
					c-0.4-1.4-1-2.4-1.9-3.1c-0.2-0.2-0.5-0.4-0.7-0.6c-0.3-0.2-0.5-0.5-0.8-0.7c-0.8-0.7-1.2-1.6-1.3-2.8c0-0.2,0-0.4,0-0.6
					c0-0.1,0-0.3,0-0.4c0-0.3-0.1-0.4-0.4-0.4c-0.3-0.1-0.6-0.2-0.8-0.5l-0.2-0.4l0.2,0l-0.1-0.2c-0.2-0.4-0.6-0.7-1-0.9
					c0,0,0,0.1,0,0.1l0.1,0.4l-0.4,0c-0.4,0-0.7-0.1-1-0.4l-0.4-0.4c-0.1,0.2-0.2,0.4-0.5,0.7l-0.3,0.5c0.4,0,0.8,0,1.2-0.1l0.3,0.7
					c-0.5,0.4-1.2,0.5-1.9,0.4c-0.9-0.2-1.6-0.2-2.3-0.2c-0.2,0-0.4,0-0.6,0.1l0.4,0.4H393c-0.6,0-1-0.3-1.2-0.5
					c0,0-0.1-0.1-0.1-0.1c-0.1,1.5,0.2,2.5,1.1,3.2c0.5,0.4,0.9,0.9,1.1,1.6c0.3,0.9,1,1.8,2.1,2.5c0.4,0.3,0.9,0.6,1.3,0.8
					c1.1,0.7,1.8,1.6,2.2,2.9c0.2,0.7,0.3,1.4,0.4,2c0,0.2,0.1,0.3,0.1,0.4c0.5,0.9,0.9,1.9,1.3,2.9c0.4,0.9,1,1.7,1.8,2.4l0.2,0.2
					c0.6,0.5,1.1,1,1.8,1.3c0.2,0.1,0.3,0.3,0.4,0.6c0,0.4,0,0.8,0.1,1.1c0,0.7,0.1,1.3,0,2c0,0.2,0,0.5-0.1,0.7
					c-0.2,0.4-0.5,0.5-0.7,0.5C404.7,216.8,404.6,216.9,404.5,216.9z M406.9,211.2c0,0.1,0.1,0.2,0.1,0.3c0.1,0.2,0.2,0.3,0.3,0.4
					C407.3,211.6,407.2,211.5,406.9,211.2C407,211.2,406.9,211.2,406.9,211.2z M405.9,209.7l0.2,0.3
					C406.1,209.9,406,209.8,405.9,209.7L405.9,209.7z M409.8,201.2c0,0,0.1,0.1,0.1,0.1l0,0c0,0,0.1-0.1,0.1-0.1
					C410,201.2,409.9,201.2,409.8,201.2z M409.6,198.8c0.1,0.1,0.2,0.1,0.3,0.2c0,0,0.1,0.1,0.2,0.1
					C409.9,199,409.8,198.9,409.6,198.8L409.6,198.8z M408.2,197.2c0,0,0,0.1,0,0.1c0,0.1,0.1,0.1,0.1,0.2h0L408.2,197.2z
					 M409.5,197.1c0,0.1,0.1,0.1,0.2,0.2c0.1,0.1,0.1,0.1,0.2,0.1l0-0.1c0-0.1-0.1-0.2,0-0.4C409.7,197,409.6,197.1,409.5,197.1
					L409.5,197.1z M408.2,197l0.5,0.2c-0.1-0.3-0.2-0.7-0.1-1c0.1-0.3,0.3-0.4,0.5-0.4h0.1l0,0l0,0c-0.1-0.1-0.2-0.3-0.1-0.5
					c0.1-0.2,0.2-0.3,0.3-0.3c-0.1-0.1-0.2-0.1-0.3-0.3c0,0,0,0.1-0.1,0.1l-0.7,0.9l0-1.1c0-0.4,0.2-1,0.5-1.4l-0.4-0.1
					c-0.1,0.1-0.1,0.2-0.1,0.3c0,0.1,0,0.1-0.1,0.2c-0.1,0.2-0.2,0.5-0.4,0.8c-0.2,0.2-0.4,0.4-0.7,0.4c0.1,0.1,0.1,0.2,0.2,0.4
					c0.1,0,0.1,0,0.2,0c0.2,0,0.3,0.1,0.4,0.2c0.3,0.2,0.4,0.5,0.3,0.9c0,0.1-0.1,0.3-0.2,0.4l0.3,0.4
					C408.3,196.8,408.2,196.9,408.2,197z M387.6,186.6l0.3,0.6c0.7,1.2,1.4,1.9,2.3,2.3c0.3,0.1,0.6,0.3,1,0.5
					c0.2,0.1,0.4,0.2,0.6,0.3c0.2,0.1,0.4,0.3,0.5,0.4c0,0,0,0,0,0c0,0,0.1,0,0.1,0l0.1,0l0.4,0c0.5-0.1,1.1-0.1,1.6-0.1l-0.5-1
					c-0.1-0.2-0.1-0.5-0.1-0.7c-0.1,0.1-0.3,0.1-0.6,0.1c-0.4,0-1.1-0.1-1.4-0.5l-0.4-0.2l0.3-0.1c0,0,0-0.1,0-0.1V188
					c-0.4-0.6-1.1-0.7-1.7-0.9c-0.5-0.1-0.9-0.5-1.2-0.9s-0.7-0.7-1.1-0.9c-0.4-0.2-0.9-0.5-1.3-1.1c-0.1-0.2-0.3-0.2-0.4-0.2
					c-0.4,0-0.7-0.1-0.9-0.3c0,0,0,0-0.1,0c0,0.1,0,0.1,0,0.2l0,0l0.8,0.1l-0.6,0.6c-0.1,0.1-0.2,0.2-0.4,0.2c0,0.1,0.1,0.1,0.1,0.2
					c0.1,0,0.2,0,0.4,0l0.9,0.2l-0.7,0.5l0.1,0.4c0.1,0.2,0,0.3,0,0.5c0,0,0.1,0,0.2-0.1l0.4-0.3l0.2,0.4c0.1,0.2,0.1,0.4,0,0.5
					c0.2,0.1,0.3,0.3,0.4,0.4c0,0,0.1-0.1,0.1-0.2L387.6,186.6z M394.7,190.5c0.2,0,0.4,0,0.6,0c0.2,0,0.4,0.1,0.6,0.1
					c0.2,0,0.5,0.1,0.7,0.1l0-0.3l-0.4,0.2l0-0.7c0-0.7,0-1.1-0.1-1.2c0,0-0.1-0.1-0.3-0.1c-0.1,0-0.1,0-0.2,0
					c-0.7,0-0.9,0.1-0.9,0.7L394.7,190.5z M401,189.4l-0.2,1.3c0.1-0.1,0.1-0.2,0.1-0.3l0.2-0.1l-0.1-0.1l0.2,0l0.4-0.1
					c0.1,0.1,0.1,0.2,0.1,0.3l0.1,0l0.5-0.6l-0.1,0.7l0.1,0c0.1,0,0.1,0,0.2,0c0.1,0,0.2,0.1,0.2,0.1c0.1-0.1,0.1-0.1,0-0.5
					c-0.2-0.6-0.5-1.1-0.8-1.6c-0.4-0.7-0.4-1.4-0.1-2.2l0.7,0.2c-0.2,0.6,0.1,1.1,0.4,1.6c0-0.3,0-0.6,0-0.9c0-0.5,0.2-0.9,0.6-1.1
					c0.1-0.1,0.3-0.1,0.5-0.1c0.4,0,0.8,0.2,0.9,0.6c0.1,0.2,0.1,0.4,0,0.5c0.2-0.2,0.2-0.5,0.1-0.9c-0.1-0.3-0.2-0.6-0.4-0.9
					c-0.1-0.1-0.1-0.2-0.2-0.3l-0.1-0.2c-0.2,0.2-0.4,0.3-0.7,0.4c-0.3,0.1-0.5,0.1-0.8,0.1l0,0c-0.6,0-1.1-0.3-1.4-0.8
					c-0.3-0.6-0.4-1.3-0.4-1.7c0-0.1,0-0.2,0-0.3c0-0.3,0-0.7-0.1-1l-0.1-0.3c-0.3,0.1-0.6,0-0.9,0c-0.1,0-0.3-0.1-0.4-0.1l-0.9-0.1
					l0.5-0.5l0.1-0.5c0,0,0,0,0-0.1c0-0.1-0.1-0.3,0-0.6c0.1-0.2,0.2-0.3,0.4-0.3c0,0,0.1-0.1,0.1-0.1l0,0c-0.1-0.1-0.3-0.1-0.4-0.1
					l-0.8-0.1l0.6-0.6c0.2-0.2,0.3-0.2,0.5-0.2c0.2,0,0.3,0.1,0.4,0.1l0.1,0c0.4,0.2,0.9,0.5,1.4,0.7c0.2,0.1,0.4,0.3,0.4,0.5
					c0.1,0.2,0,0.4-0.1,0.6c0,0.1-0.1,0.1-0.1,0.1s0,0,0,0h0l0,0c0.3,0.1,0.4,0.3,0.5,0.4l0,0c0.3,0.4,0.4,0.8,0.4,1.3v0
					c0,0.5,0,1,0.1,1.4c0.1,0.2,0.2,0.3,0.2,0.3c0,0,0.2,0,0.3-0.2c0.1-0.1,0.2-0.2,0.3-0.2l0.2-0.9l0.4,0.8c0-0.1,0-0.1,0.1-0.2
					c0.1-0.1,0.2-0.2,0.4-0.2c-0.4-0.5-0.5-1-0.4-1.6l0.1-0.5l0.4,0.2c0.1,0,0.1,0,0.2,0.1c0.1-0.2,0-0.4,0-0.7
					c-0.3-1.1-0.8-1.9-1.6-2.4c-0.1,0-0.1-0.1-0.1-0.1l-0.4-0.3l0.3-0.2c-0.3-0.3-0.7-0.4-1.2-0.3c0.2,0.2,0.5,0.5,0.7,0.8l-0.6,0.5
					L402,178c-0.3-0.3-0.7-0.6-1-0.8c-0.3-0.2-0.6-0.3-0.9-0.3c-0.3,0-0.6,0-0.8,0.2l0.6,0l-0.6,0.6c-0.3,0.3-0.6,0.5-1,0.6l-0.1,0
					c-0.2,0-0.3,0.1-0.5,0.1l-0.6,0.6c0,0,0,0,0,0c0.1,0.1,0.2,0.1,0.3,0.2l0.3,0.2l-0.2,0.3c-0.1,0.2-0.2,0.3-0.4,0.4
					c0,0.1,0,0.1,0,0.2l-0.1,0.6l-0.5-0.3c-0.2-0.1-0.4-0.2-0.5-0.4c0.1,0.2,0.2,0.3,0.3,0.3c0.4,0.2,0.5,0.5,0.5,0.9l-0.7,0.1
					c0-0.1-0.1-0.1-0.2-0.2c0,0.1,0,0.2,0,0.2c0,0.1,0,0.2,0,0.2c0.1,0.2,0.1,0.4,0.1,0.5c0,0.1,0,0.1,0,0.2c0,0.2,0.1,0.6-0.2,0.9
					c0.5-0.1,0.8-0.5,1.1-1.2c0,0,0-0.1,0.1-0.1l0-0.1l0.7,0.2c0,0.4-0.1,0.8-0.3,1.1l0.4,0.2c0.4,0.2,0.7,0.5,0.8,0.9
					c0.1,0.3,0.1,0.7-0.1,1c-0.1,0.2-0.3,0.5-0.6,0.7c-0.6,0.5-0.8,0.8-0.7,1.4l-0.7,0.3c-0.3-0.4-0.2-0.8-0.2-1
					c0.1-0.6,0.4-1.2,1.1-1.6c0.4-0.3,0.4-0.4,0.4-0.4s0-0.1-0.4-0.4c-0.1-0.1-0.1-0.2-0.1-0.3l-0.1-0.4c-0.3,0.4-0.8,0.7-1.3,0.8
					c0,0-0.1,0-0.2,0c-0.1,0-0.2,0-0.2,0c0,0,0,0,0,0.1c0,0.2-0.2,0.3-0.3,0.4c0,0.2-0.1,0.4-0.3,0.5c-0.5,0.3-1,0.3-1.5,0.1
					c-0.1,0.2-0.3,0.3-0.6,0.4c-0.1,0-0.2,0.1-0.2,0.2c0.1,0,0.2,0,0.3,0c0.2,0.1,0.7,0.3,0.7,1v0c0.2-0.2,0.5-0.3,0.6-0.4
					c0.1,0,0.1-0.1,0.2-0.1c0.2-0.1,0.3-0.1,0.4-0.2l0.8-0.8l-0.2,1.1c-0.1,0.6-0.5,0.7-0.7,0.7c-0.5,0.2-0.8,0.3-0.9,0.6
					c0.1-0.1,0.3-0.2,0.4-0.3c0.6-0.2,1.2-0.3,1.7-0.1c0.3,0.1,0.5,0.3,0.6,0.6c0.1-0.1,0.2-0.1,0.4-0.1c0.1,0,0.2,0,0.3,0.1
					l-0.1,0.7h0v0l0.2,0c0-0.1,0-0.2,0.1-0.4s0.3-0.2,0.5-0.2c0.1,0,0.2,0,0.3,0c0,0,0,0,0.1,0c0.6,0.1,1.1,0.4,1.6,0.8
					c0.1,0,0.1-0.1,0.2-0.1L401,189.4z M404,186.8c-0.1,0-0.1,0-0.1,0c-0.1,0-0.1,0.1-0.2,0.3l0.3-0.1c0.2-0.1,0.2-0.1,0.2-0.1
					C404.1,186.8,404.1,186.8,404,186.8z M384.3,184.9c-0.1,0.1-0.2,0.1-0.3,0.2C384.3,185.1,384.3,185.1,384.3,184.9z M404.6,184.1
					c0,0.1-0.1,0.3-0.1,0.4l0.2,0c0,0,0.1,0,0.1,0C404.7,184.3,404.7,184.2,404.6,184.1z M401.3,180.9l0.2,0.1
					c0.4,0.3,0.4,0.6,0.4,0.9v0c0,0.2,0,0.4,0,0.6c0,0.4,0,0.7,0.1,1c0.1,0.4,0.3,0.6,0.4,0.6c-0.1-0.1-0.2-0.3-0.2-0.4
					c-0.2-0.5-0.3-1-0.3-1.6c0-0.6-0.1-1-0.4-1.4l0,0C401.6,180.9,401.5,180.9,401.3,180.9z M384.4,183.7c-0.1,0-0.2,0-0.3,0
					C384.2,183.7,384.3,183.7,384.4,183.7C384.4,183.7,384.4,183.7,384.4,183.7z M394.3,183.2c0,0.1,0,0.2,0,0.2
					c0,0.1,0.1,0.1,0.2,0.1c0.1,0,0.2,0.1,0.2,0.1c0.2-0.2,0.4-0.2,0.6,0l0,0c0,0,0,0,0,0c-0.1,0-0.2-0.1-0.3-0.2
					c-0.1,0-0.1-0.1-0.2-0.1l-0.1,0c-0.1,0-0.2-0.1-0.2-0.1c-0.1,0-0.1,0-0.2,0C394.3,183.2,394.3,183.2,394.3,183.2z M400,180.2
					c0.1,0,0.3,0,0.4,0h0.1c0.3,0,0.6-0.2,0.7-0.5c0,0,0,0,0-0.1c-0.1-0.1-0.3-0.1-0.4-0.2c-0.1,0.1-0.2,0.2-0.4,0.3
					c-0.2,0.1-0.3,0.2-0.3,0.3C400,180.2,400,180.2,400,180.2z M395.3,178.9l0.5,0.3c0.3,0.2,0.3,0.5,0.4,0.6v0c0,0,0,0,0,0.1
					c0-0.1,0.1-0.2,0.1-0.3c0,0,0,0,0,0s0-0.1,0-0.1c0-0.1-0.1-0.2-0.1-0.3c0-0.2,0-0.3,0-0.5c-0.1,0-0.3,0.1-0.4,0.1
					C395.6,178.9,395.4,178.9,395.3,178.9z M394.7,179c0,0.1,0.1,0.2,0.1,0.3c0,0.1,0,0.1,0,0.2c0.1,0,0.2-0.1,0.3,0v-0.5
					C395,179,394.9,179,394.7,179z M396.9,178.4c-0.1,0-0.1,0-0.1,0.1l0,0C396.8,178.4,396.9,178.4,396.9,178.4l0.2,0.1
					C397.1,178.4,397,178.4,396.9,178.4L396.9,178.4z"/>
			</g>
			<g>
				<path class="st148" d="M390.6,210.1c-0.2,0-0.5-0.1-0.7-0.3l-0.1-0.1c-0.3-0.3-0.6-0.5-0.9-0.8c0,0,0,0-0.1-0.1l0,0
					c-0.2,0.1-0.3,0.1-0.5,0.1c-0.2,0-0.6-0.1-0.8-0.6c0,0,0,0-0.1,0c-0.1,0-0.3,0-0.4-0.3c0-0.1-0.1-0.2-0.1-0.3
					c-0.3-0.1-0.5-0.4-0.6-0.7c0-0.1,0-0.2,0-0.2s0,0-0.2,0h-0.5l0.2-0.5c0.2-0.6,0.7-1,1.3-1c0.2,0,0.4,0.1,0.6,0.2
					c0.6,0.3,1,0.5,1.5,0.4c0.6-0.1,1.1,0.1,1.4,0.6c0.2,0.2,0.4,0.3,0.6,0.3c0.2,0,0.4,0,0.6,0c0.2,0,0.4,0,0.6,0
					c0.4,0,0.6,0,0.9-0.1l0.2-0.1h0c0,0,0-0.1,0-0.1l-0.1-0.3c-0.2-0.6-0.4-1.2-0.5-1.9c-0.2-0.9-0.4-1.8-0.3-2.8
					c0.1-1.4,1-2.2,2.4-2.1c0.7,0,1.3,0.2,1.9,0.4l0.3,0.1c0.3,0.1,0.6,0.3,0.7,0.6c0.2,0.3,0.2,0.7,0.1,1.1v0
					c0.7,0,1.1,0.5,1.4,1.2c0.1,0.3,0.2,0.7,0.3,1.1c0.2,0.8,0,1-0.7,1.2c-0.1,0-0.2,0.1-0.3,0.1c-0.3,0.1-0.7,0.2-1.1,0.3l-0.1,0.1
					c-0.4,0.5-0.5,0.8-0.4,1.4c0,0.2,0.1,0.5,0.1,0.7c0.1,0.2,0.1,0.4,0.1,0.7c0.1,0.4,0,0.8-0.2,1.1c-0.2,0.3-0.6,0.5-1,0.6
					c-0.3,0-0.5,0-0.6-0.1c-0.2,0.2-0.4,0.3-0.7,0.3c-0.2,0-0.5-0.1-0.8-0.1c-0.8-0.2-1.7-0.3-2.6-0.2c-0.1,0-0.2,0-0.3,0.1
					C391,210,390.8,210.1,390.6,210.1z M388.9,208c0.2,0,0.4,0.2,0.4,0.3c0.3,0.3,0.5,0.5,0.8,0.8l0.1,0.1c0.1,0.1,0.2,0.1,0.2,0.1
					c0.1,0,0.1-0.1,0.2-0.1c0,0,0.1,0,0.1-0.1h-0.1l0.8-0.8c0.3-0.3,0.6-0.3,0.9-0.3h0.1c0.3,0,0.5,0.1,0.8,0.1c0,0,0.1,0,0.1,0
					c0,0,0,0,0.1,0c0.2-0.3,0.6-0.5,1-0.5h0.1l1.1,0l-0.9,0.7c-0.1,0.1-0.1,0.1-0.2,0.1c-0.1,0-0.1,0.1-0.1,0.1
					c-0.1,0.2-0.3,0.4-0.6,0.4c0.1,0,0.3,0,0.4,0.1c0.3,0.1,0.5,0.1,0.6,0.1c0.1,0,0.2,0,0.4-0.7l0.2-0.7l0.4,0.6
					c0.1,0.1,0.2,0.3,0.1,0.6c0.1,0,0.3-0.1,0.4-0.2c0.1-0.2,0.1-0.4,0.1-0.5c0-0.1,0-0.2-0.1-0.4h-0.3c-0.1-0.3-0.2-0.6-0.4-0.9
					c-0.1-0.2-0.2-0.3-0.2-0.5c-0.3-0.6-0.3-1.3-0.1-2l0.1-0.4l-0.1-0.2l0.2,0.1l0.2-0.7l0.3,0.9l0.5,0.2c0.2,0.1,0.5,0.2,0.7,0.2
					c0.4,0,0.7-0.1,1-0.2c0.1,0,0.3-0.1,0.4-0.1c0.1,0,0.2,0,0.2-0.1c0-0.1,0-0.2,0-0.2c-0.1-0.4-0.2-0.7-0.3-1
					c-0.3-0.7-0.5-0.7-0.8-0.7c-0.1,0-0.3,0-0.4,0l-0.7,0.1l0.3-0.7c0-0.1,0.1-0.1,0.1-0.2c0.1-0.1,0.1-0.2,0.1-0.3
					c0-0.2,0-0.3-0.1-0.5c0-0.1-0.1-0.2-0.3-0.2l-0.3-0.1c-0.6-0.1-1.2-0.3-1.8-0.3c-1-0.1-1.5,0.4-1.6,1.4
					c-0.1,0.9,0.1,1.7,0.3,2.6c0.1,0.6,0.3,1.2,0.5,1.8l0.1,0.4c0.2,0.6,0.2,0.9-0.4,1.1l-0.1,0.1c-0.3,0.1-0.7,0.2-1.2,0.2
					c-0.2,0-0.4,0-0.7,0c-0.2,0-0.4,0-0.5,0c-0.1,0-0.3,0-0.4-0.1l-0.6,0.3c-0.2-0.4-0.6-0.5-1.2-0.5c-0.1,0-0.3,0-0.4,0V207
					l-0.1,0.3c-0.3,0-0.4,0-0.6,0.2c0.1,0,0.1,0.1,0.2,0.1c0.1,0.1,0.1,0.1,0.1,0.1s0,0,0.1-0.1L388.9,208z M386.8,206.2
					c0.2,0.1,0.3,0.3,0.3,0.7c0,0,0,0,0,0s0,0,0,0s0.1,0,0.2-0.1c0.1-0.1,0.3-0.3,0.6-0.4c-0.3-0.1-0.5-0.2-0.7-0.3
					C387.2,206,387,206,386.8,206.2z M396.2,205.2c0,0.3,0,0.6,0.1,0.9c0-0.2,0.1-0.4,0.3-0.6C396.4,205.3,396.3,205.3,396.2,205.2z
					"/>
			</g>
			<g>
				<path class="st148" d="M388.6,198L388.6,198c-0.2,0-0.4-0.1-0.5-0.1c-0.1,0-0.2-0.1-0.3-0.1c0,0-0.1,0-0.1,0.1
					c-0.2,0.2-0.6,0.1-0.8-0.1c-0.1-0.1-0.2-0.3-0.3-0.4c-0.3-0.3-0.5-0.5-0.7-1c-0.1-0.2-0.1-0.3-0.1-0.5c0-0.3-0.1-0.5-0.2-0.7
					c-0.2-0.2-0.1-0.5-0.1-0.5c0-0.1,0.1-0.3-0.3-0.4l-0.6-0.2l0.4-0.4c0.1-0.1,0.1-0.1,0.2-0.2c-0.2-0.4-0.3-0.8-0.3-1.2
					c0-0.2,0.1-0.4,0.3-0.5c-0.1-0.1-0.2-0.3-0.1-0.4c0-0.3,0.3-0.4,0.5-0.4c0.1,0,0.3-0.1,0.4-0.1c0.6,0,1.2,0.5,1.2,1.1
					c0,0.1,0,0.1,0.1,0.2c0.6,0.3,1.2,1,1.1,1.7c0.4,0,0.7-0.2,1-0.4c0.4-0.2,0.7-0.5,1.1-0.7l1.1-0.7l0.1,0.7c0,0.1,0,0.1,0,0.2
					c0,0.9,0.2,1.5,0.6,2c0.2,0.2,0.2,0.4,0.2,0.5c0,0.2-0.2,0.4-0.3,0.4h0c-0.5,0.3-1,0.6-1.4,1l0,0c-0.1,0.1-0.3,0.3-0.6,0.3
					c-0.1,0-0.2,0.1-0.3,0.2l0,0C389.3,197.8,389,198,388.6,198z M387.8,197c0.2,0,0.4,0.1,0.5,0.1c0.1,0,0.2,0.1,0.3,0.1v0.4v-0.4
					c0.2,0,0.3-0.1,0.4-0.3l0,0c0,0,0.1-0.1,0.1-0.1c-0.1,0-0.2,0-0.4,0l0,0c-0.1,0-0.3,0-0.4,0l0.1-0.8c0.4,0,0.7-0.1,1-0.4
					l-1.2,0.2l-0.3-0.7c0.4-0.3,0.9-0.4,1.3-0.4h0.4l0,0.7c0,0,0.1-0.1,0.1-0.1c0.2-0.2,0.4-0.3,0.6-0.5l0.5,0.6l-0.1,0.1
					c-0.2,0.3-0.5,0.6-0.7,0.8l0,0c0,0,0.1-0.1,0.1-0.1l0,0c0.4-0.3,0.8-0.6,1.3-0.9c-0.5-0.6-0.6-1.3-0.7-1.9
					c-0.4,0.3-0.8,0.5-1.1,0.7c-0.4,0.2-0.9,0.5-1.4,0.5h-0.1c-0.1,0-0.4,0-0.5-0.2c0,0,0,0,0,0c0,0.1,0,0.1,0,0.2
					c0,0.1,0,0.2,0,0.2c0,0.3,0,0.5,0.1,0.7l0.5,0.8l-0.9-0.3c-0.3-0.1-0.5-0.4-0.6-0.7c0-0.3,0-0.5,0-0.8c0-0.2,0-0.3-0.2-0.4
					c0,0-0.1,0-0.1,0c-0.1,0-0.2,0-0.3,0c0.1,0.2,0.1,0.5,0.1,0.7c0.2,0.3,0.3,0.7,0.3,1c0,0.1,0,0.3,0.1,0.4
					c0.1,0.3,0.3,0.4,0.5,0.7c0.1,0.1,0.2,0.2,0.3,0.3C387.5,197,387.6,197,387.8,197z M386.4,193.2c0.3,0,0.6,0.1,0.8,0.3
					c0.1,0.1,0.2,0.3,0.3,0.4c0-0.1,0-0.1,0-0.1c0.1-0.2-0.2-0.7-0.7-0.9c-0.3-0.2-0.5-0.4-0.6-0.8c0-0.2-0.1-0.3-0.3-0.4
					c0,0.1,0.1,0.2,0.1,0.3c0,0.1,0,0.2,0.2,0.3v0.7c-0.3,0.1-0.5,0-0.6,0c0,0.1,0.1,0.2,0.2,0.3C386,193.2,386.3,193.2,386.4,193.2
					z"/>
			</g>
			<g>
				<path class="st148" d="M395.1,183.1L395.1,183.1c-0.5-0.1-0.7-0.3-0.7-0.7c0-0.5,0.8-1,1.2-1h0.1c0.5,0.1,0.6,0.6,0.6,0.8
					c0,0,0,0.1,0,0.1c0.1,0.3,0,0.5-0.1,0.6c-0.1,0.1-0.2,0.3-0.6,0.2c-0.1,0-0.1,0-0.2,0C395.3,183,395.2,183,395.1,183.1
					L395.1,183.1z"/>
			</g>
			<g>
				<path class="st148" d="M393.8,183.1h-0.1c-0.4-0.1-0.7-0.4-0.7-0.8c0-0.1,0-0.3,0.1-0.4c0.1-0.2,0.4-0.2,0.6-0.1
					c0,0,0.1,0.1,0.2,0.1c0.2,0.1,0.4,0.2,0.5,0.5c0.1,0.1,0.1,0.3,0,0.4C394.2,183,394,183.1,393.8,183.1z"/>
			</g>
			<g>
				<path class="st148" d="M394.8,181.9c-0.3,0-0.5-0.1-0.7-0.2l-0.8-0.4l0.8-0.3c0.2-0.1,0.5-0.1,0.8-0.1c0.1,0,0.1,0,0.2,0v0h0.3
					l0.7-0.1l-0.4,0.4l0.3,0.3l-0.7,0.1C395.3,181.8,395.1,181.9,394.8,181.9z"/>
			</g>
			<g>
				<path class="st148" d="M386.4,208.4l-0.2-0.5c-0.1-0.3-0.1-0.7,0-1l0.2-0.5l0.4,0.4c0.2,0.2,0.4,0.4,0.3,0.7
					c0,0.3-0.2,0.5-0.4,0.6L386.4,208.4z"/>
			</g>
			<g>
				<path class="st148" d="M393.8,182.7l-0.2-0.9c0,0-0.1-0.1-0.1-0.2c-0.1-0.1-0.1-0.1-0.2-0.2l-0.7-0.8l1.1,0.2
					c0.5,0.1,0.7,0.1,0.9,0.4c0.1,0.3,0,0.5-0.2,0.7L393.8,182.7z"/>
			</g>
			<g>
				<path class="st148" d="M395.6,183.4L395.6,183.4c-0.1,0-0.1,0-0.1,0h0c-0.4,0-0.5-0.3-0.5-0.5c0-0.1,0-0.3,0.1-0.4
					c0.2-0.2,0.4-0.2,0.5-0.2h0.1l0,0c0.1,0,0.3,0,0.4,0.2c0.1,0.1,0.1,0.2,0.1,0.4C396.1,183.2,395.9,183.4,395.6,183.4z
					 M395.5,183.1L395.5,183.1c0.1,0,0.1-0.1,0.1-0.3c0-0.1-0.1-0.2-0.1-0.2c-0.1,0-0.1,0.1-0.2,0.2c0,0,0,0.1,0,0.1l0.1-0.2
					L395.5,183.1z"/>
			</g>
		</g>
		<g>
			<g>
				<path class="st149" d="M394.4,179.6c0.1,0,0.1-0.1,0.1-0.2c0-0.2-0.2-0.3-0.4-0.2c0.1,0.1,0.3,0.1,0.2,0.2
					c0,0.1-0.2,0.2-0.3,0.2c-0.2-0.1-0.4,0-0.6,0.1c-0.2-0.3,0-0.5,0.2-0.6c0.7-0.3,1.4-0.4,2.1-0.5c0.3,0,0.5-0.1,0.7-0.3
					c0.1-0.1,0.3-0.2,0.5-0.2c0.4,0.1,0.9,0,1.3-0.1c0.3-0.1,0.6-0.2,0.8-0.5c-0.2,0-0.3,0.3-0.6,0.1c-0.2-0.1-0.1-0.3-0.2-0.5
					c-0.2,0.1-0.1,0.3-0.1,0.4c-0.2-0.5,0-0.7,0.6-0.8c0,0.2-0.2,0.3,0,0.5c0.4-0.5,0.8-0.6,1.4-0.6c0.4,0,0.8,0.2,1.1,0.4
					c0.4,0.3,0.8,0.7,1.2,1c-0.3-0.5-0.7-0.8-1.1-1.2c1.1-0.4,2.1-0.1,2.7,0.7c-0.1,0-0.3-0.1-0.4,0c0,0,0.1,0.1,0.1,0.1
					c0.9,0.6,1.4,1.5,1.8,2.6c0.1,0.4,0.2,0.8,0,1.2c-0.1,0.2-0.2,0.4-0.4,0.4c-0.2,0-0.1-0.3-0.1-0.4c0,0,0,0-0.1,0
					c-0.1,0.6,0.1,1.1,0.5,1.5c0.1,0.1,0.3,0.2,0.3,0.3c-0.1,0.1-0.3,0.1-0.4,0.2c-0.1,0-0.1,0-0.2,0c-0.4-0.1-0.3,0.1-0.2,0.3
					c0.1,0.4,0.3,0.9,0.5,1.3c-0.2,0-0.4-0.2-0.6-0.1c0.2,0.4,0.5,0.8,0.6,1.3c0.1,0.5,0.1,1-0.3,1.4c-0.3,0.3-0.7,0.3-1-0.1
					c0.4-0.1,0.6-0.4,0.4-0.6c-0.1-0.3-0.5-0.4-0.9-0.2c-0.3,0.2-0.4,0.4-0.4,0.7c0,0.9,0,1.8,1.1,2.2c-0.4,0.1-1.2,0-1.3-0.1
					c-0.4-0.9-1.3-1.7-0.9-2.9c-0.2,0.6-0.3,1.3,0.1,1.8c0.3,0.6,0.7,1.1,0.9,1.7c0.1,0.3,0.2,0.6-0.1,0.8c-0.2,0.2-0.5,0.1-0.8,0
					c0.3,0.3-0.1,0.3,0,0.5c0,0.2,0.1,0.4,0.1,0.5c0,0.1,0.1,0.2,0.1,0.3c-0.5-0.2-0.9-0.7-0.8-1.2c-0.2,0.2-0.4,0.3-0.7,0.2
					c0.3-0.2,0.6-0.5,0.3-0.9c0.1,0.5-0.2,0.7-0.6,0.8c0.1,0.2,0.3,0.3,0.5,0.3c0.5,0.1,0.7,0.3,0.7,0.8c0,0.3,0,0.7,0,1
					c0,1,0.3,1.9,1.1,2.5c0.5,0.4,1,0.9,1.5,1.3c1,0.9,1.6,2,2,3.3c0.4,1.3,1.1,2.5,2.4,3.2c2.5,1.4,6-0.2,6.7-3.1
					c0.6-2.8,0-5.4-1.9-7.6c-1-1.1-2.1-1.3-3.4-0.6c-0.7,0.4-1.4,1.4-1.4,2.2c0.2-0.2,0.2-0.5,0.4-0.7c0.2,0.8,0.5,1,1,0.4
					c0,0.5-0.2,0.8-0.6,1c-0.2,0.1-0.2,0.2-0.1,0.3c0.1,0.1,0.2,0.3,0.2,0.4c0.1,0.3,0,0.6-0.4,0.8c-0.1-0.1,0-0.2,0-0.3
					c0-0.1-0.1-0.2-0.2-0.3c-0.1,0-0.2,0.1-0.2,0.2c-0.1,0.3,0.1,1,0.4,1.3c0.3,0.3,0.8,0.3,1.1,0.1c0.2-0.1,0.4-0.3,0.2-0.6
					c-0.2-0.3-0.3,0-0.5,0.1c-0.1-0.3,0-0.5,0.3-0.5c0.6,0,1,0.5,0.7,1.1c-0.1,0.3-0.3,0.4-0.5,0.6c-0.2,0.1-0.3,0.1-0.5-0.1
					c0.1-0.1,0.3-0.1,0.4-0.4c-0.6,0.5-1.1,0-1.7-0.2c0.2,0.4,0.6,0.6,0.9,0.7c1.2,0.6,1.4,2.3,0.4,3.2c-0.2,0.2-0.4,0.3-0.6,0.1
					c-0.1,0-0.1-0.1-0.1-0.1c0.3-0.1,0-0.1,0-0.1c-0.3-0.1-0.3-0.4-0.3-0.7c0.1-0.3,0.2-0.6,0.7-0.6c-0.1,0.2-0.2,0.4-0.1,0.5
					c0.1,0.1,0.1,0.1,0.2,0.1c0.2-0.1,0.2-0.3,0.3-0.5c0.1-0.5-0.2-0.8-0.5-1c-0.5-0.3-0.9-0.7-1.1-1.3c-0.1-0.2-0.1-0.1-0.1,0
					c-0.1,0.1-0.1,0-0.2,0c-0.2-0.1-0.3-0.3-0.4-0.5c-0.2-0.4-0.1-0.7,0.2-1.1c-0.3,0.2-0.6,0.4-1,0.2c0.1-0.2,0.2-0.2,0.3-0.3
					c0.2-0.1,0.3-0.3,0.4-0.6c0.1-0.2,0-0.4-0.2-0.5c-0.1-0.1-0.2-0.1-0.3,0c-0.2,0.2,0.1,0.3,0.1,0.4c-0.5,0.1-0.7-0.2-0.5-0.6
					c0.1-0.3,0-0.4-0.2-0.5c-0.3-0.2-0.3-0.5-0.2-0.9c0.3,0.5,0.6,0.5,1,0.1c0.2-0.2,0.3-0.5,0.5-0.8c0.3-0.6,0.9-1.1,1.5-1.1
					c-0.7,0.6-0.7,0.7-0.8,1c0.4-0.7,1.1-1,1.7-1.3c1.4-0.5,2.6-0.1,3.6,0.9c2,2.2,2.7,4.9,2.2,7.8c-0.5,2.9-3.2,4.9-6.3,4.7
					c-1.2-0.1-2.3-0.4-3.4-1.1c-0.2-0.1-0.3-0.3-0.3-0.5c0.1,0,0.2,0.2,0.3,0.1c-0.8-0.9-1-2.1-1.9-2.9c0.1,0.2,0.2,0.3,0.3,0.5
					c0.1,0.2,0.2,0.4,0.3,0.6c1,2,1.2,4.1,0.6,6.3c-0.1,0.5-0.2,1-0.2,1.6c0.1-0.3,0.1-0.6,0.3-0.9c0.3,0.9,0.7,1.7,1.3,2.4
					c0.4,0.4,0.6,0.8,0.5,1.5c-0.2,1.1-0.2,2.3-0.1,3.4c0.1,1.1-0.3,1.8-1.2,2.4c-0.1-0.2,0.1-0.4-0.2-0.6c0.1,0.5-0.2,0.9-0.4,1.3
					c-0.1,0.1-0.1,0.3-0.2,0.2c-0.1,0-0.1-0.2-0.2-0.3c-0.1-0.3,0.1-0.5,0-0.8c-0.2-0.6,0.1-1.1,0.7-1.2c0.2-0.1,0.4-0.1,0.4-0.5
					c-0.1,0.2-0.2,0.3-0.3,0.3c-0.7,0.1-0.9,0.6-1,1.2c0,0.3-0.3,0.4-0.5,0.4c-0.2,0-0.3,0-0.2-0.3c0.1-0.2,0.1-0.3,0-0.5
					c0,0.4-0.1,0.7-0.6,0.6c-0.1,0-0.2,0.1-0.3,0.1c-0.2,0.2-0.2,0.1-0.2-0.1c0-0.3,0-0.6,0.2-0.9c-0.3,0.2-0.3,0.5-0.4,0.8
					c-0.2-0.4-0.2-0.8,0.1-1c0.5-0.3,0.9-0.5,1.5-0.6c0.2,0,0.3-0.1,0.4-0.3c0.1-0.2,0.1-0.4,0.1-0.6c0.1-1-0.1-2.1-0.1-3.1
					c0-0.1,0-0.2-0.2-0.3c-0.8-0.4-1.4-1-2.1-1.6c-0.8-0.7-1.5-1.5-1.9-2.5c-0.4-1-0.8-1.9-1.3-2.8c-0.1-0.2-0.1-0.4-0.2-0.6
					c-0.1-0.7-0.2-1.3-0.4-2c-0.3-1.2-1-2.1-2-2.7c-0.5-0.3-0.9-0.6-1.3-0.9c-1-0.7-1.9-1.5-2.3-2.7c-0.2-0.6-0.5-1.1-1-1.4
					c-1.2-1-1.4-2.3-1.3-3.8c0-0.1,0-0.3,0.1-0.4c0.1,0,0.3,0.1,0.4,0.2c0.1,0.1,0.1,0.1,0.2,0.2c0.2,0.2,0.5,0.4,1,0.4
					c-0.2-0.3-0.1-0.3,0.1-0.4c0.3-0.1,0.6-0.1,0.9-0.1c0.8,0,1.6,0,2.4,0.2c0.6,0.1,1.2,0,1.6-0.3c-1,0.4-1.9,0.1-2.7,0
					c-0.9-0.1-1.8,0-2.6,0.1c-0.1,0.1,0.1,0.2,0,0.3c-0.4-0.1-0.5-0.6-0.9-0.7c-0.5-0.2-1-0.5-1.6-0.8c-1.1-0.5-1.9-1.4-2.5-2.5
					c-0.3,0.5-0.5,0.6-0.7,0.3c-0.2-0.3-0.4-0.4-0.7-0.6c0.1-0.1,0.3-0.2,0.2-0.4c-0.4,0.3-0.6,0.3-1.1,0c0.1-0.2,0.3-0.2,0.2-0.4
					c-0.3,0.3-0.3,0.3-1.3,0.4c-0.3,0-0.4-0.1-0.3-0.4c0.1-0.1,0.2-0.2,0.3-0.3c0.4-0.2,0.7-0.3,1.2-0.1c-0.5-0.3,0-0.4,0.1-0.5
					c-0.4-0.1-0.4-0.1-0.6,0.1c-0.1,0.1-0.6,0.3-0.8,0.2c0.8-0.4,0.8-0.4,0.6-0.8c-0.1,0.9-0.9,0.4-1.3,0.8
					c-0.1-0.7,0.6-1.3,1.3-1.3c0.2,0,0.3-0.1,0.5-0.2c-0.2,0-0.4,0.1-0.7,0c0.2-0.1,0.4-0.2,0.3-0.5c-0.1,0.2-0.2,0.3-0.4,0.3
					c-0.4,0-0.8,0.1-1.1,0.5c0-0.9,0.3-1.2,1.1-1.3c0,0,0.1,0,0.1,0c0.2-0.5,0.5-0.1,0.7,0c0.3,0.1,0.6,0.3,1,0.3
					c0.3,0,0.6,0.2,0.7,0.4c0.3,0.4,0.7,0.7,1.1,1c0.5,0.3,0.8,0.6,1.2,1c0.3,0.3,0.6,0.6,1,0.7c0.7,0.2,1.4,0.4,1.9,1.1
					c0.2-0.3,0.2-0.7,0.6-0.3c0-0.2,0-0.4,0-0.5c0-0.1,0.1-0.3,0.2-0.3c0.2,0,0.3,0.1,0.3,0.3c0.1,0.4-0.2,0.9-0.6,1.1
					c-0.2,0.1-0.4,0.1-0.5,0.1c0,0,0,0.1,0,0.1c0.2,0.3,1.3,0.5,1.6,0.3c0,0,0.1-0.1,0.1-0.1c0.1-0.7,0.6-0.9,1.2-1.1
					c0.2-0.1,0.4-0.1,0.4-0.4c-0.3,0.2-0.5,0.3-0.8,0.4c-0.4,0.2-0.8,0.4-0.9,0.9c0,0.1-0.1,0.2-0.2,0.2c-0.3,0.1-0.7,0.1-1.1,0
					c0.2-0.1,0.3-0.1,0.4-0.2c0.4-0.2,0.6-0.5,0.6-1c0-0.3-0.1-0.6-0.4-0.7c-0.3-0.1-0.5,0.2-0.6,0.4c0,0,0,0-0.1,0
					c-0.2-0.5,0-1.2,0.5-1.4c0.4-0.2,0.4-0.4,0.3-0.7c0,0,0,0,0-0.1c0.5,0.5,1,0.6,1.6,0.2c0.3-0.2,0.1-0.4,0.1-0.6
					c0.1-0.1,0.3,0.2,0.4,0c0.1-0.4,0.4-0.4,0.7-0.4c0.8-0.1,1.5-0.9,1.5-1.8c0,0.1-0.1,0.2-0.1,0.2c-0.3,0.8-0.8,1.3-1.6,1.4
					c-0.1,0-0.3,0.1-0.4,0.1c-0.2,0.1-0.3,0.3-0.5,0c0,0-0.1-0.1-0.1,0c-0.2,0.3-0.4,0-0.6,0c-0.4-0.1-0.6-0.5-0.5-0.9
					c0.1-0.4,0.4-0.2,0.7-0.2c0.1,0,0.3,0.1,0.4,0.1c0.3,0.1,0.5,0.5,0.8,0.3s0.1-0.6,0.1-0.9c0-0.1,0-0.2,0-0.2
					c-0.2-0.3,0-0.8-0.4-0.9c-0.1-0.3-0.1-0.5-0.1-0.8c0-0.2,0-0.3-0.1-0.4c-0.1-0.1-0.1-0.2-0.3,0c-0.2,0.2-0.5,0.2-0.8,0.3
					c0.2,0,0.4-0.1,0.6-0.1c0.2-0.1,0.4-0.1,0.5,0.1c0.1,0.3,0,0.4-0.3,0.5c-0.1,0-0.2,0.1-0.4,0.1c0.3,0.1,0.7-0.2,0.9,0.3
					c0,0.1-0.1,0.1-0.1,0.2l0,0c-0.1-0.1-0.3-0.1-0.4-0.1c-0.3,0-0.6,0-1-0.1c-0.6-0.1-0.9-0.7-0.6-1.2c0.1-0.1,0.1-0.2,0.1-0.3
					C393.7,179.7,394,179.7,394.4,179.6z M402.5,182.3c0,0.5,0,1,0.2,1.4c0.1,0.2,0.3,0.5,0.6,0.5c0.3,0,0.6-0.1,0.7-0.5
					c-0.1-0.1-0.1,0-0.1,0c-0.5,0.5-0.9,0.4-1.1-0.2c-0.2-0.5-0.2-1.1-0.2-1.6c0-0.4-0.1-0.7-0.3-1c-0.1-0.1-0.2-0.3-0.4-0.3
					c-0.3-0.2-0.4-0.4-0.2-0.7c0.1-0.2,0-0.5-0.2-0.6c-0.5-0.3-1-0.5-1.4-0.7c-0.2-0.1-0.3-0.1-0.5,0.1c0.7,0.1,1.2,0.6,1.8,0.8
					c0.2,0.1,0.3,0.3,0.2,0.5c-0.1,0.5-0.6,0.8-1.1,0.8c-0.2,0-0.4,0-0.5,0c-0.1,0-0.2,0-0.3,0.1c0.5,0,1,0.3,1.4,0
					c0.3-0.2,0.6-0.3,0.9-0.1C402.4,181,402.5,181.6,402.5,182.3z M401.5,182.8c0,0.5,0.1,1.1,0.3,1.6c0.3,0.5,0.9,0.7,1.7,0.4
					c0.5-0.2,0.8-0.6,0.8-1.1c0,0,0,0,0-0.1c-0.1,0.8-0.4,1-1.2,1.1c-0.6,0-1-0.3-1.2-1c-0.2-0.6-0.1-1.1-0.2-1.7
					c0-0.2,0-0.4-0.3-0.6C401.5,181.9,401.5,182.4,401.5,182.8z M395.9,188.3c0.7,0,0.8,0.4,0.7,1.7c0.3-0.2,0.4-0.4,0.5-0.6
					c0.1-0.2,0-0.6,0.4-0.6c-0.3-0.1-0.3-0.1-0.7,0.8c-0.1-0.5-0.1-1.1-0.6-1.3c-0.5-0.2-0.9-0.1-1.4,0.1c-0.5,0.2-0.7,0.6-0.5,1.1
					C394.5,188.4,395.1,188.3,395.9,188.3z M398,185.7c0.2-0.2,0.4-0.3,0.5-0.6c0.3-0.5,0.1-1-0.5-1.3c0,0,0,0.1,0,0.1
					c0.6,0.6,0.6,0.9-0.1,1.5c-0.5,0.4-0.8,0.8-0.9,1.4c0,0.2-0.1,0.5,0.1,0.7C397,186.6,397.4,186.1,398,185.7z M400.5,189.8
					c-0.2,0-0.1,0.2-0.2,0.3c-0.4-0.6-1-0.9-1.6-1c-0.1,0-0.3-0.1-0.4,0c-0.1,0.2,0,0.3,0.1,0.5c0.2,0.3-0.1,0.1-0.2,0.1
					c0.2,0.2,0.4,0.3,0.7,0.3c0-0.2-0.2-0.2-0.3-0.4c-0.1-0.1-0.2-0.2-0.1-0.3c0.1-0.1,0.2,0,0.3,0c0.7,0.1,1.3,0.5,1.7,1.2
					C400.5,190.2,400.5,190,400.5,189.8z M396.7,180c0.2-0.1,0.4-0.2,0.6-0.4c-0.8-0.5-0.7-0.4-0.4-0.8c-0.4,0-0.4,0.1-0.3,0.4
					c0,0.2,0.3,0.5,0,0.7c-0.1,0.1,0.2,0.3,0.4,0.4C396.9,180.1,396.7,180.1,396.7,180z M406.7,211.6c-0.2-0.5-0.6-1-0.9-1.4
					c0,0.3,0.2,0.5,0.4,0.7c0.2,0.3,0.3,0.5,0.4,0.8c0.1,0.4,0.6,0.7,1,0.5C407.1,212.2,406.8,212,406.7,211.6z M396.4,180.9
					c-0.4-0.2-0.5-0.6-0.6-1c0-0.2,0-0.3-0.2-0.4c0,0.4,0.1,0.8,0.3,1.1c0.2,0.4,0.7,0.4,0.8,0.8C396.7,181.2,396.6,181,396.4,180.9
					z M400.5,179.2c-0.3-0.1-0.4,0.2-0.7,0.3c-0.5,0.1-0.1,0.5-0.2,0.6C399.7,179.7,400.2,179.5,400.5,179.2z"/>
			</g>
			<g>
				<path class="st149" d="M387.6,205.8c0.5,0.3,1.1,0.5,1.7,0.4c0.4,0,0.8,0.1,1,0.4c0.2,0.3,0.6,0.5,1,0.5c0.7,0,1.5,0.2,2.2-0.1
					c0.5-0.2,0.5-0.1,0.4-0.7c-0.2-0.7-0.5-1.4-0.7-2.2c-0.2-0.9-0.4-1.8-0.3-2.7c0.1-1.2,0.8-1.8,2-1.7c0.7,0.1,1.4,0.2,2.1,0.4
					c0.5,0.1,0.8,0.7,0.6,1.2c-0.1,0.2-0.2,0.4-0.2,0.6c0.9-0.2,1.3,0,1.6,0.9c0.1,0.3,0.2,0.7,0.3,1.1c0.1,0.6,0.1,0.6-0.5,0.7
					c-0.1,0-0.3,0.1-0.4,0.1c-0.6,0.2-1.3,0.4-2,0c0.2,0.3,0.5,0.3,0.7,0.4c-0.4,0.5-0.6,1-0.5,1.7c0.1,0.5,0.2,0.9,0.3,1.4
					c0.1,0.7-0.2,1.1-0.9,1.2c-0.3,0-0.5,0-0.4-0.4c0-0.1,0-0.3-0.1-0.4c-0.4,1-0.4,1-1.5,0.8c-0.9-0.2-1.8-0.3-2.7-0.2
					c-0.2,0-0.4,0-0.5,0.2c-0.3,0.3-0.6,0.2-0.9,0c-0.3-0.3-0.7-0.6-1-0.9c-0.2-0.2-0.3-0.3-0.5-0.1c-0.4,0.2-0.6,0.1-0.7-0.3
					c0.3,0.2,0.6,0.1,0.8-0.2c-0.2,0.3-0.5,0.3-0.7,0.1c-0.1-0.1-0.2-0.1-0.3-0.1c-0.1,0-0.2,0.2-0.3,0c-0.1-0.1,0-0.2,0.1-0.3
					c0.3-0.4,0.6-0.6,1.2-0.5c-0.4-0.3-0.6-0.1-0.9,0.1c-0.4,0.4-0.9,0.3-0.9-0.2c0-0.4-0.2-0.5-0.6-0.5
					C386.4,205.8,387.1,205.5,387.6,205.8z M393.5,208.8c0.2,0,0.5,0,0.6-0.3c0.1-0.1,0.3-0.2,0.4-0.3c-0.3,0-0.6,0.1-0.7,0.3
					c-0.1,0.2-0.3,0.2-0.5,0.2c-0.3-0.1-0.6-0.1-0.9-0.2c-0.2,0-0.4,0-0.6,0.2C392.4,208.6,393,208.7,393.5,208.8z M396.3,206.9
					c-0.4-0.6-0.5-1.3-0.4-2c0-0.1,0-0.2,0-0.2c-0.2,0.6-0.2,1.2,0.1,1.8c0.2,0.5,0.5,0.9,0.6,1.5
					C396.6,207.5,396.5,207.2,396.3,206.9z M390.6,207.6c-0.3-0.7-0.9-1-1.9-0.8C389.5,206.9,390.2,206.8,390.6,207.6z"/>
			</g>
			<g>
				<path class="st149" d="M391.2,193c0,0.8,0.1,1.6,0.8,2.2c0.2,0.2,0,0.2-0.1,0.3c-0.5,0.3-1,0.6-1.5,1c-0.1,0.1-0.3,0.2-0.4,0.2
					c-0.3,0-0.5,0.2-0.7,0.4c-0.2,0.2-0.4,0.4-0.7,0.4c-0.4,0-0.8-0.4-1.2,0c-0.1,0.1-0.2,0-0.2-0.1c-0.3-0.4-0.8-0.7-1-1.3
					c-0.1-0.4-0.1-0.9-0.4-1.3c0,0,0-0.1,0-0.2c0.1-0.5-0.2-0.7-0.6-0.8c0.1-0.2,0.4-0.1,0.5-0.2c-0.6-0.7-0.7-1.5-0.2-1.7
					c0.1,0.6,0.3,0.7,0.7,0.6c-0.4-0.1-0.5-0.3-0.5-0.6c0-0.2-0.1-0.3-0.2-0.4c-0.2-0.2-0.1-0.2,0.1-0.3c0.5-0.2,1.1,0.2,1.1,0.7
					c0,0.2,0.1,0.4,0.3,0.5c0.6,0.3,1,0.9,0.9,1.3c-0.1,0.4,0.1,0.4,0.3,0.4c0.5,0,0.9-0.2,1.2-0.4c0.5-0.3,1.1-0.7,1.7-1.1
					C391.2,192.8,391.2,192.9,391.2,193z M386.6,193.8c0.3,0.1,0.5,0.4,0.5,0.8c0,0.2,0,0.5,0,0.8c0,0.2,0.1,0.3,0.3,0.3
					c-0.2-0.4-0.1-0.8-0.1-1.1c0-0.8-0.5-1.2-1.3-0.9C386.2,193.8,386.4,193.7,386.6,193.8z M390.5,195.2c-0.6,0.4-1.1,1.3-2,1.2
					C389.5,196.6,390,195.9,390.5,195.2z M388.2,195.4c0.3-0.1,0.7-0.1,1-0.2c0,0,0-0.1,0-0.1C388.9,195.1,388.5,195.2,388.2,195.4z
					"/>
			</g>
			<g>
				<path class="st149" d="M395.1,182.7c0.2,0,0.3,0,0.4,0c0.2,0,0.3-0.1,0.3-0.3c-0.1-0.2,0-0.5-0.3-0.6c-0.2,0-0.8,0.4-0.8,0.6
					C394.7,182.7,394.9,182.7,395.1,182.7z"/>
			</g>
			<g>
				<path class="st149" d="M393.8,182.8c0.1,0,0.2-0.1,0.2-0.1c-0.1-0.2-0.4-0.3-0.6-0.4c-0.1,0-0.1,0-0.1,0.1
					C393.3,182.6,393.6,182.7,393.8,182.8z"/>
			</g>
			<g>
				<path class="st149" d="M395.4,181.3c-0.3,0-0.7-0.1-1.1,0.1C394.6,181.6,395.2,181.5,395.4,181.3L395.4,181.3z"/>
			</g>
			<g>
				<path class="st149" d="M386.6,207.1c-0.1,0.3-0.1,0.5,0,0.7C386.9,207.6,386.9,207.4,386.6,207.1z"/>
			</g>
			<g>
				<path class="st149" d="M394,181.7c0.2-0.4,0.2-0.4-0.4-0.5C393.7,181.4,393.9,181.5,394,181.7z"/>
			</g>
			<g>
				<path class="st149" d="M395.5,182.8c-0.1,0-0.3,0-0.2,0.1c0,0.2,0.2,0.1,0.3,0.1c0.1,0,0.2,0,0.2-0.1
					C395.7,182.7,395.6,182.8,395.5,182.8z"/>
			</g>
		</g>
	</g>
	<g>
		<g>
			<g>
				<path class="st148" d="M360.7,205.7h-3v-11.5h2.9c1,0,1.7,0.3,2.1,0.8c0.4,0.5,0.7,1.2,0.7,2.3v0.3c0,0.8-0.1,1.4-0.4,1.9
					c0.4,0.5,0.6,1.3,0.6,2.4v0.3c0,1.2-0.2,2.1-0.7,2.6C362.4,205.3,361.7,205.7,360.7,205.7z"/>
			</g>
			<g>
				<path class="st148" d="M371.5,205.7h-3l-0.2-1.8h-0.1l-0.2,1.8h-3.1l1.6-11.5h3.4L371.5,205.7z M367.8,196.1h0.6l0-0.3h-0.5
					L367.8,196.1z"/>
			</g>
			<g>
				<path class="st148" d="M376.9,205.7h-3.1V201l-1.9-6.9h3.1l0.3,1.1l0.3-1.1h3.1l-1.8,6.9L376.9,205.7L376.9,205.7z M375,199.5
					l0.3,1l0.3-1C375.6,199.5,375,199.5,375,199.5z"/>
			</g>
			<g>
				<polygon class="st148" points="384.8,205.7 379.8,205.7 379.8,194.2 384.7,194.2 384.7,197.1 382.9,197.1 382.9,198.3 
					384.6,198.3 384.6,201.2 382.9,201.2 382.9,202.7 384.8,202.7 				"/>
			</g>
			<g>
				<path class="st148" d="M392.8,205.7h-6.3v-11.5h3.3c0.7,0,1.3,0.2,1.7,0.5c0.4,0.3,0.7,0.8,0.8,1.3c0.1,0.4,0.1,1,0.1,1.6
					c0,0.7-0.1,1.3-0.2,1.7c0,0.1-0.1,0.2-0.2,0.3c0.1,0.1,0.1,0.3,0.2,0.4c0.1,0.3,0.2,0.9,0.2,2.8c0,1.3,0,1.7,0,1.8L392.8,205.7z
					 M390.3,199.6c0.1,0.1,0.2,0.1,0.2,0.2l0-0.4c0,0,0,0,0,0C390.4,199.6,390.3,199.6,390.3,199.6z"/>
			</g>
		</g>
		<g>
			<g>
				<path class="st5" d="M362.6,197.5c0,1.1-0.3,1.7-0.8,2c0.7,0.2,1,1,1,2.3v0.3c0,1-0.2,1.7-0.5,2.1c-0.3,0.4-0.9,0.7-1.6,0.7
					h-2.1v-9.8h2.1c0.7,0,1.2,0.2,1.5,0.5c0.3,0.3,0.5,0.9,0.5,1.7L362.6,197.5L362.6,197.5z M360,199h0.5c0.3,0,0.4-0.1,0.5-0.2
					s0.1-0.5,0.1-1v-0.6c0-0.4-0.1-0.6-0.2-0.8s-0.3-0.2-0.5-0.2H360V199z M360,203.7h0.5c0.3,0,0.5-0.1,0.6-0.3
					c0.1-0.2,0.2-0.6,0.2-1.1v-0.8c0-0.5,0-0.9-0.1-1.1s-0.3-0.3-0.5-0.3H360V203.7z"/>
			</g>
			<g>
				<path class="st5" d="M365.8,204.8l1.4-9.8h1.9l1.5,9.8h-1.4l-0.2-1.8h-1.6l-0.2,1.8H365.8z M368.8,201.9l-0.6-4.9h0l-0.6,4.9
					H368.8z"/>
			</g>
			<g>
				<path class="st5" d="M374.6,204.8v-3.9l-1.6-5.9h1.4l1,3.7h0l0.9-3.7h1.4l-1.5,5.9v3.9H374.6z"/>
			</g>
			<g>
				<path class="st5" d="M380.6,204.8V195h3.2v1.3h-1.8v2.9h1.7v1.3h-1.7v3.1h1.8v1.3L380.6,204.8L380.6,204.8z"/>
			</g>
			<g>
				<path class="st5" d="M389.3,200.2l-0.5,0v4.7h-1.5V195h2.4c0.5,0,0.9,0.1,1.1,0.3c0.2,0.2,0.4,0.5,0.5,0.9
					c0.1,0.4,0.1,0.9,0.1,1.5c0,0.6-0.1,1.1-0.2,1.4c-0.1,0.3-0.4,0.5-0.7,0.6c0.3,0.1,0.6,0.3,0.7,0.7c0.1,0.4,0.2,1.2,0.2,2.5
					c0,1.3,0,1.9,0.1,2h-1.5c0-0.1-0.1-1.3-0.1-3.5c0-0.4-0.1-0.7-0.2-0.9C389.8,200.3,389.6,200.2,389.3,200.2z M388.8,199h0.6
					c0.2,0,0.3,0,0.4-0.1c0.1-0.1,0.2-0.2,0.2-0.4s0.1-0.5,0.1-1v-0.1c0-0.5,0-0.9-0.1-1c-0.1-0.2-0.3-0.2-0.6-0.2h-0.5L388.8,199
					L388.8,199z"/>
			</g>
		</g>
	</g>
</g>
</svg>
