<?xml version="1.0" encoding="utf-8"?>
<!-- Generator: Adobe Illustrator 17.0.0, SVG Export Plug-In . SVG Version: 6.00 Build 0)  -->
<!DOCTYPE svg PUBLIC "-//W3C//DTD SVG 1.1//EN" "http://www.w3.org/Graphics/SVG/1.1/DTD/svg11.dtd" [
	<!ENTITY ns_flows "http://ns.adobe.com/Flows/1.0/">
	<!ENTITY ns_extend "http://ns.adobe.com/Extensibility/1.0/">
	<!ENTITY ns_ai "http://ns.adobe.com/AdobeIllustrator/10.0/">
	<!ENTITY ns_graphs "http://ns.adobe.com/Graphs/1.0/">
]>
<svg version="1.1" id="Layer_1" xmlns:x="&ns_extend;" xmlns:i="&ns_ai;" xmlns:graph="&ns_graphs;"
	 xmlns="http://www.w3.org/2000/svg" xmlns:xlink="http://www.w3.org/1999/xlink" xmlns:a="http://ns.adobe.com/AdobeSVGViewerExtensions/3.0/"
	 x="0px" y="0px" width="600px" height="600px" viewBox="0 0 600 600" style="enable-background:new 0 0 600 600;"
	 xml:space="preserve">
<style type="text/css">
	.st0{fill:#FE0000;stroke:#000000;stroke-miterlimit:10;}
	.st1{fill:#FFFFFF;stroke:#000000;stroke-miterlimit:10;}
	.st2{fill:#FFFFFF;}
	.st3{fill:#7C0014;}
	.st4{fill:#F959FF;stroke:#000000;stroke-miterlimit:10;}
	.st5{fill:#EA24AE;}
	.st6{fill:#0563E1;}
	.st7{fill:#0B0A11;}
	.st8{fill:#004D9B;}
	.st9{fill:#C20000;}
	.st10{fill:#0563E1;stroke:#000000;stroke-miterlimit:10;}
	.st11{fill:url(#SVGID_1_);stroke:#000000;stroke-miterlimit:10;}
	.st12{fill:url(#SVGID_2_);}
	.st13{fill:#8ADAC9;stroke:#000000;stroke-miterlimit:10;}
	.st14{fill:#23495B;stroke:#000000;stroke-miterlimit:10;}
	.st15{fill:#CAC5C0;}
	.st16{fill:#23495B;}
	.st17{fill:#1976C9;stroke:#000000;stroke-miterlimit:10;}
	.st18{fill:#02619F;}
	.st19{fill:#1976C9;}
	.st20{fill:#02619F;stroke:#1976C9;stroke-miterlimit:10;}
	.st21{fill:#77A4CB;stroke:#000000;stroke-miterlimit:10;}
	.st22{stroke:#EDF3F8;stroke-miterlimit:10;}
	.st23{fill:#77A4CB;}
	.st24{fill:#C7CCC4;}
	.st25{fill:#FFFA5B;stroke:#000000;stroke-miterlimit:10;}
	.st26{fill:#1E2A24;}
	.st27{fill:#EBF0F5;stroke:#000000;stroke-miterlimit:10;}
	.st28{fill:url(#SVGID_3_);}
	.st29{fill:url(#SVGID_4_);}
	.st30{fill:#FFB05B;}
	.st31{fill:#4FAFBF;stroke:#000000;stroke-miterlimit:10;}
	.st32{fill:#43DA98;stroke:#000000;stroke-miterlimit:10;}
	.st33{fill:#00B273;}
	.st34{fill:#43DA98;}
	.st35{fill:#00B273;stroke:#000000;stroke-miterlimit:10;}
	.st36{fill:#BC2567;stroke:#FFFFFF;stroke-miterlimit:10;}
	.st37{fill:#8B004D;stroke:#000000;stroke-miterlimit:10;}
	.st38{fill:#5B5B4F;stroke:#000000;stroke-miterlimit:10;}
	.st39{fill:#3A3F40;}
	.st40{fill:#E7C993;}
	.st41{fill:#8B004D;}
	.st42{fill:#5B5B4F;}
	.st43{fill:#F02233;stroke:#000000;stroke-miterlimit:10;}
	.st44{fill:#4E2664;stroke:#000000;stroke-miterlimit:10;}
	.st45{fill:#04829F;}
	.st46{adobe-knockout:true;}
	.st47{fill:none;stroke:#FFFFFF;stroke-width:3;stroke-miterlimit:10;adobe-knockout:false;}
	.st48{fill:#006F8C;}
	.st49{fill:#F32CBB;stroke:#000000;stroke-miterlimit:10;}
	.st50{fill:#C000AD;stroke:#000000;stroke-miterlimit:10;}
	.st51{fill:#6BBA4F;}
	.st52{fill:#03850D;}
	.st53{fill:#97C0DA;stroke:#000000;stroke-miterlimit:10;}
	.st54{fill:#83A5CB;}
	.st55{fill:#0453BC;}
	.st56{fill:#A79F96;}
	.st57{fill:#0CD3CA;stroke:#000000;stroke-miterlimit:10;}
	.st58{fill:#299AB8;}
	.st59{fill:#299AB8;stroke:#000000;stroke-miterlimit:10;}
	.st60{fill:#C000AD;}
	.st61{fill:#0099C7;}
	.st62{fill:#6E4D7F;stroke:#000000;stroke-miterlimit:10;}
	.st63{fill:#04829F;stroke:#000000;stroke-miterlimit:10;}
	.st64{fill:none;stroke:#EA24AE;stroke-width:8;stroke-miterlimit:10;}
	.st65{fill:#F959FF;}
	.st66{fill:#06A600;stroke:#000000;stroke-miterlimit:10;}
	.st67{fill:none;stroke:#15DB51;stroke-width:8;stroke-miterlimit:10;}
	.st68{fill:#06A600;}
	.st69{fill:#15DB51;stroke:#000000;stroke-miterlimit:10;}
	.st70{fill:#069400;}
	.st71{fill:#0066B3;}
	.st72{fill:#003644;}
	.st73{fill:#567481;}
	.st74{fill:none;stroke:#FFFFFF;stroke-width:3;stroke-miterlimit:10;}
	.st75{fill:url(#SVGID_5_);stroke:#FFFFFF;stroke-miterlimit:10;}
	.st76{fill:#B05040;}
	.st77{fill:#5C2633;}
	.st78{fill:none;stroke:#A7747F;stroke-width:3;stroke-miterlimit:10;}
	.st79{fill:#46A0BE;}
	.st80{fill:#005FA5;}
	.st81{fill:#FE9C14;}
	.st82{fill:#FED539;}
	.st83{fill:#3AC919;stroke:#000000;stroke-miterlimit:10;}
	.st84{fill:#2A9F02;}
	.st85{fill:#3AC919;}
	.st86{fill:#2A9F02;stroke:#000000;stroke-miterlimit:10;}
	.st87{fill:#FE144C;}
	.st88{fill:#FE5F39;}
	.st89{fill:#E91B00;}
	.st90{fill:#FE0000;}
	.st91{fill:#0005A4;stroke:#000000;stroke-miterlimit:10;}
	.st92{fill:#000578;}
	.st93{fill:#004FA4;}
	.st94{fill:#0005A4;stroke:#FFFFFF;stroke-miterlimit:10;}
	.st95{fill:#FFE60B;stroke:#000000;stroke-width:1.5;stroke-miterlimit:10;}
	.st96{fill:#ED1C24;}
	.st97{fill:#FFEE34;}
	.st98{fill:#FF4A49;}
	.st99{fill:none;stroke:#000000;stroke-miterlimit:10;}
	.st100{fill:#F97F7A;}
	.st101{fill:#6E4D7F;}
	.st102{fill:#CA0014;}
	.st103{fill:#382351;}
	.st104{fill:#01A663;}
	.st105{fill:#8ABE23;}
	.st106{fill:#1D1D1B;}
	.st107{fill:#FEFEFE;}
</style>
<path class="st66" d="M594.5,576.2c0-93.6-20.8-396.5-56.5-478.7c-11.6-26.7-84.7-58.1-155.5-80.1c-24.8-7.7-54.1-9.9-81.7-9.4
	c-27.8-0.6-61.4,1.3-86.4,9.1C143.6,39.2,74.6,70.8,63,97.5C27.2,179.7,6.5,482.7,6.5,576.2c8.8,6.4,17.7,7.6,67.5,9.8
	c10-134,52-285,52-285s-4.1,248-4.1,270c0.2,18.6,87.7,23.8,173.7,24v0c1,0,2.5,0,3.5,0c1,0,2.5,0,3.5,0v0c86-0.2,175-5.4,175.2-24
	c0-22-2.9-270-2.9-270s42.1,151,52.1,285C576.6,583.8,585.7,582.7,594.5,576.2z"/>
<line class="st67" x1="504.3" y1="103.1" x2="202.1" y2="24.7"/>
<line class="st67" x1="479.9" y1="144.7" x2="130" y2="54"/>
<line class="st67" x1="469.8" y1="190.1" x2="77" y2="88"/>
<line class="st67" x1="465.6" y1="237" x2="121.1" y2="147.7"/>
<line class="st67" x1="463.1" y1="284.4" x2="130" y2="198"/>
<line class="st67" x1="471.5" y1="334.6" x2="134.7" y2="247.3"/>
<line class="st67" x1="472.7" y1="382.9" x2="136.1" y2="295.6"/>
<line class="st67" x1="470.3" y1="430.3" x2="131.4" y2="342.4"/>
<line class="st67" x1="468.9" y1="477.9" x2="129.3" y2="389.9"/>
<line class="st67" x1="469.8" y1="526.1" x2="129.1" y2="437.8"/>
<line class="st67" x1="464.7" y1="572.8" x2="134" y2="487.1"/>
<line class="st67" x1="351.9" y1="591.5" x2="133.5" y2="535"/>
<g>
	<g>
		<path class="st68" d="M227.5,28.7C240.3,46,262,62.5,298.1,62.5c36.2,0,56.3-16.8,67.4-34.5C335.2,31.1,259.9,30.8,227.5,28.7z"/>
		<path class="st69" d="M368.1,1c-17.6,5.3-142.2,2.9-148.6,0.6c-0.1,0.3-0.3,0.7-0.5,1.1c2.2,7.1,6.3,17.5,13.7,27.5
			c29.5,1.9,97.9,2.2,125.6-0.6c6.2-9.9,9.4-20.2,10.9-27.3C368.8,1.8,368.4,1.4,368.1,1z"/>
	</g>
	<path class="st69" d="M369.2,2.3c-4.1,18.7-19,58.7-72.2,58.7c-53.9,0-72.4-40.1-78-58.3c-2.9,5.3-13.9,16.7-13.9,16.7
		s14.4,61,89.9,61c76.5,0,86.6-58.7,87.7-63.1C380.6,16.4,373.4,6.9,369.2,2.3z"/>
</g>
<path class="st69" d="M89.8,96.8c-10.1-6.7-16.9-8.2-21.4-7.7c-2.4,2.9-4.2,5.7-5.5,8.5C27.2,179.7,6.5,482.7,6.5,576.2
	c8.8,6.4,17.7,7.6,67.5,9.8c10-134,52-285,52-285s0,1.4-0.1,3.9c2.6-12.1,6.5-5.7,6.9-57.9C133.8,171.6,112.4,112.2,89.8,96.8z"/>
<path class="st69" d="M527,586c49.7-2.2,58.7-3.3,67.5-9.8c0-93.6-20.8-396.5-56.5-478.7c-1.1-2.5-2.7-5.1-4.8-7.6
	c-5.1-0.8-12.8,0.4-23.6,7.6c-22.6,15.4-43,60.5-43.2,148.8c0.4,53.2,5.6,43,8.7,55c0-0.2,0-0.3,0-0.3S517,452,527,586z"/>
<path class="st70" d="M70.4,88.6c0,0,77.1,9.2,55.7,220c-0.4,79.7-1.8,141.7-2.4,184.6c-0.7,46.5-0.8,70.5-0.8,71.6
	c0,3.2-0.6,7.5,0.8,9.2c0.7,1.1,1.7,2.3,3.4,3.5c4.7,3.4,15.3,6.5,27.3,8.8c-14.2-11.6-10.9-42.8-9.8-72.1c1.1-29.4-24-95.4-3-199.4
	c6.8-33.6-5.5-74.9-6-84C131.6,163.1,119.2,97.3,70.4,88.6z"/>
<path class="st70" d="M532.2,89c0,0-79.2,0.7-57.7,211.5c2.1,168.9,3.2,265.3,3.2,264.5c0-2.3,0,2.4,0,6.2c0,1.3-0.7,2.6-0.9,2.9
	c-0.7,1.1-2,2.2-3.6,3.4c-4.7,3.4-13.3,5.9-25.1,8.2c14.2-11.6,11.1-41.8,10-71.2c-1.1-29.4,24-95.4,3-199.4
	c-6.8-33.6,1.5-83.4,2-92.4C467,155.1,485.7,92,532.2,89z"/>
<g>
	<path class="st2" d="M378,230.4c-16.8,0-30.4-13.6-30.4-30.4s13.6-30.4,30.4-30.4s30.4,13.6,30.4,30.4S394.8,230.4,378,230.4z"/>
	<g>
		<path d="M373,184.2c0.4,0.2,0.9,0.4,1.4,0.4c0.4,0,0.8-0.2,0.8-0.5c0-0.3-0.2-0.4-0.8-0.7c-0.5-0.3-1.2-0.7-1.2-1.5
			c0-1.2,1.1-1.9,2.4-1.9c0.8,0,1.2,0.1,1.4,0.3l-0.5,1.2c-0.2-0.1-0.6-0.2-1.1-0.2c-0.5,0-0.8,0.2-0.8,0.4c0,0.3,0.4,0.4,0.8,0.7
			c0.7,0.4,1.1,0.8,1.1,1.5c0,1.4-1.2,2-2.4,2c-0.9,0-1.5-0.2-1.8-0.4L373,184.2z"/>
		<path d="M381.5,185.6c-0.3,0.1-0.8,0.2-1.5,0.2c-1.6,0-2.6-0.9-2.6-2.4c0-1.4,0.6-2.3,1.5-2.9c0.6-0.4,1.3-0.5,2.1-0.5
			c0.6,0,1.1,0.1,1.2,0.2l-0.4,1.2c-0.1-0.1-0.5-0.1-1-0.1c-0.5,0-0.9,0.1-1.2,0.3c-0.5,0.4-0.8,0.9-0.8,1.7c0,0.9,0.5,1.4,1.4,1.4
			c0.4,0,0.8-0.1,1-0.2L381.5,185.6z"/>
		<path d="M354.6,187.9c0.4-0.1,1-0.2,1.6-0.2c0.5,0,1.1,0.1,1.6,0.4c0.4,0.2,0.7,0.7,0.7,1.3c0,0.8-0.3,1.3-0.8,1.6
			c-0.5,0.4-1.1,0.5-1.9,0.5c-0.2,0-0.4,0-0.5,0l-0.4,1.9h-1.4L354.6,187.9z M355.6,190.4c0.1,0,0.2,0,0.4,0c0.6,0,1-0.4,1-0.9
			c0-0.5-0.3-0.6-0.8-0.6c-0.2,0-0.3,0-0.4,0L355.6,190.4z"/>
		<path d="M359.8,192.2l-0.6,1.3h-1.6l2.7-5.7h1.9l0.6,5.7h-1.5l-0.1-1.3H359.8z M361.2,191.1l-0.1-1.1c0-0.3,0-0.8-0.1-1.1h0
			c-0.2,0.4-0.3,0.8-0.5,1.1l-0.5,1.1H361.2z"/>
		<path d="M364.5,187.9c0.5-0.1,1.1-0.1,1.6-0.1c0.9,0,1.6,0.2,2.1,0.6c0.5,0.4,0.9,1,0.9,1.9c0,1.1-0.5,2.1-1.2,2.6
			c-0.7,0.5-1.5,0.8-2.8,0.8c-0.8,0-1.4-0.1-1.6-0.1L364.5,187.9z M365.1,192.4c0.1,0,0.2,0,0.5,0c0.5,0,1.1-0.2,1.4-0.6
			s0.5-0.9,0.5-1.6c0-0.8-0.5-1.3-1.3-1.3c-0.2,0-0.3,0-0.4,0L365.1,192.4z"/>
		<path d="M373.2,191.2h-2l-0.2,1.1h2.2l-0.2,1.2h-3.7l1.1-5.7h3.6l-0.2,1.2h-2.1l-0.2,0.9h2L373.2,191.2z"/>
		<path d="M375,187.9c0.4-0.1,1-0.2,1.6-0.2c0.5,0,1.1,0.1,1.5,0.3c0.4,0.2,0.7,0.6,0.7,1.2c0,0.9-0.5,1.3-1.2,1.6v0
			c0.3,0.1,0.5,0.5,0.5,1c0.1,0.6,0.1,1.4,0.2,1.6h-1.5c0-0.2-0.1-0.6-0.2-1.3c-0.1-0.6-0.3-0.8-0.7-0.8h-0.2l-0.4,2.2h-1.4
			L375,187.9z M375.9,190.3h0.5c0.6,0,1-0.3,1-0.8c0-0.4-0.4-0.6-0.8-0.6c-0.2,0-0.4,0-0.4,0L375.9,190.3z"/>
		<path d="M380.1,187.9c0.4-0.1,1-0.1,1.6-0.1c0.6,0,1,0.1,1.4,0.2c0.4,0.2,0.8,0.6,0.8,1.1c0,0.7-0.5,1.1-1.1,1.3v0
			c0.5,0.2,0.9,0.7,0.9,1.2c0,0.6-0.4,1.1-0.8,1.4c-0.5,0.3-1.2,0.5-2.3,0.5c-0.7,0-1.2,0-1.5-0.1L380.1,187.9z M380.6,192.4
			c0.1,0,0.2,0,0.4,0c0.6,0,1.1-0.2,1.1-0.8c0-0.5-0.4-0.6-1-0.6h-0.3L380.6,192.4z M381.1,190h0.4c0.6,0,1-0.2,1-0.6
			c0-0.4-0.3-0.5-0.7-0.5c-0.2,0-0.4,0-0.4,0L381.1,190z"/>
		<path d="M386.9,193.6c-1.5,0-2.4-1-2.4-2.4c0-1.1,0.4-2,1-2.6c0.6-0.5,1.3-0.8,2.1-0.8c1.5,0,2.4,1,2.4,2.4c0,1.1-0.4,2-1,2.6
			C388.5,193.3,387.7,193.6,386.9,193.6L386.9,193.6z M387,192.4c0.3,0,0.6-0.1,0.8-0.3c0.4-0.4,0.6-1.3,0.6-1.9
			c0-0.7-0.2-1.2-1-1.2c-0.3,0-0.6,0.1-0.9,0.4c-0.4,0.4-0.6,1.2-0.6,1.9C386,191.9,386.4,192.4,387,192.4L387,192.4z"/>
		<path d="M391.4,187.9c0.4-0.1,1-0.2,1.6-0.2c0.5,0,1.1,0.1,1.5,0.3c0.4,0.2,0.7,0.6,0.7,1.2c0,0.9-0.5,1.3-1.2,1.6v0
			c0.3,0.1,0.5,0.5,0.5,1c0.1,0.6,0.1,1.4,0.2,1.6h-1.5c0-0.2-0.1-0.6-0.2-1.3c-0.1-0.6-0.3-0.8-0.7-0.8h-0.2l-0.4,2.2h-1.4
			L391.4,187.9z M392.3,190.3h0.4c0.6,0,1-0.3,1-0.8c0-0.4-0.3-0.6-0.8-0.6c-0.2,0-0.4,0-0.4,0L392.3,190.3z"/>
		<path d="M395.4,193.5l1.1-5.7h1.7l0.5,1.7c0.2,0.8,0.4,1.4,0.5,2.1h0c0-0.6,0.1-1.3,0.3-2.1l0.3-1.7h1.4l-1.1,5.7h-1.5l-0.6-1.9
			c-0.2-0.8-0.4-1.4-0.6-2.1h0c-0.1,0.6-0.2,1.5-0.4,2.4l-0.3,1.6L395.4,193.5L395.4,193.5z"/>
	</g>
	<g>
		<g>
			<path d="M368.1,219.1c-1.2,0-1.7-0.9-1.7-2c0-1.7,0.8-3.7,2.6-3.7c1.2,0,1.7,0.9,1.7,1.9C370.8,217.1,370,219.1,368.1,219.1
				L368.1,219.1z M368.3,218c0.8,0,1-2,1-2.6c0-0.4,0-0.8-0.4-0.8c-0.8,0-1.1,2-1.1,2.6C367.9,217.5,367.9,218,368.3,218L368.3,218z
				"/>
			<path d="M375.8,213.6l-0.2,0.9c-1,1.5-2,3-3,4.6H371c1-1.4,2-2.8,2.9-4.2v0h-2.3l0.2-1.2H375.8z"/>
			<path d="M379.4,218.8c-0.5,0.3-1.2,0.3-1.6,0.3c-1.2,0-1.9-0.6-1.9-1.8c0-1.3,0.9-2.6,2.5-2.6c0.9,0,1.5,0.5,1.5,1.3
				c0,1-1,1.5-2.6,1.4c0,0.1,0.1,0.2,0.1,0.3c0.1,0.2,0.4,0.2,0.8,0.2c0.4,0,0.8-0.1,1.2-0.2L379.4,218.8z M378.5,216.1
				c0-0.2-0.1-0.3-0.4-0.3c-0.5,0-0.8,0.4-0.8,0.7C378.2,216.5,378.5,216.4,378.5,216.1L378.5,216.1z"/>
			<path d="M380.9,219.1c-0.5,0-0.8-0.3-0.8-0.8c0-0.5,0.4-1,1-1c0.5,0,0.8,0.3,0.8,0.8C381.9,218.7,381.5,219.1,380.9,219.1
				L380.9,219.1z"/>
			<path d="M383.2,219.1l-0.7-5.7h1.5l0.2,2.3c0,0.6,0.1,1.3,0.1,2h0c0.2-0.7,0.5-1.3,0.8-1.9l1.1-2.3h1.6l-2.9,5.7H383.2z"/>
			<path d="M387.6,219.1c-0.5,0-0.8-0.3-0.8-0.8c0-0.5,0.4-1,1-1c0.5,0,0.8,0.3,0.8,0.8C388.6,218.7,388.2,219.1,387.6,219.1
				L387.6,219.1z"/>
		</g>
	</g>
	<path class="st71" d="M378,168.5c-17.4,0-31.5,14.1-31.5,31.5s14.1,31.5,31.5,31.5s31.5-14.1,31.5-31.5S395.4,168.5,378,168.5z
		 M398.6,220.6c-5.5,5.5-12.8,8.6-20.6,8.6c-7.8,0-15.1-3.1-20.6-8.6c-2.6-2.6-4.7-5.6-6.1-8.9h47.5l1.5-7.5h-51.1
		c-0.2-1.4-0.3-2.8-0.3-4.2c0-7.8,3.1-15.1,8.6-20.6c5.5-5.5,12.9-8.6,20.6-8.6s15.1,3.1,20.6,8.6c5.5,5.5,8.6,12.9,8.6,20.7
		C407.2,207.8,404.2,215.1,398.6,220.6z"/>
	<g>
		<path d="M407.2,199.1c0-1.4-0.2-2.7-0.4-3.8h-53.7l-1.4,7.5h55.4C407.1,201.8,407.2,200.6,407.2,199.1z"/>
	</g>
</g>
</svg>
