<svg xmlns="http://www.w3.org/2000/svg" width="600" height="600" viewBox="0 0 600 600" xml:space="preserve">
    <path d="M6.1 342.8C40.7 232.2 21.2 187.2 67.7 94.2c10.5-21 71.9-57.8 135.8-73.2 0 0 109.7-25.5 180.5-3.5s140.3 53.3 151.9 80c35.7 82.1 31.2 191.6 59.7 243.7-12.5 1.2-81.3 14.4-109.3 19.7-2.4-7.3-13.4-60-13.4-60s3.2 248 3.2 270c-.2 19-92.8 24-180.8 24s-167.5-10-167.5-26.9c0-16.8 1.1-262.1 1.1-262.1s-3.3 23.3-8.3 56.1c-29.3-.1-104.2-18-114.5-19.2z" style="stroke:#ddd;stroke-miterlimit:10;fill:#fff"/>
    <path d="M375.1 1c-17.6 5.3-142.2 2.9-148.6.6-.1.3-.3.7-.5 1.1 2.2 7.1 6.3 17.5 13.7 27.5 29.5 1.9 97.9 2.2 125.6-.6 6.2-9.9 9.4-20.2 10.9-27.3-.4-.5-.8-.9-1.1-1.3" style="fill:#999"/>
    <path d="M376.2 2.3C372.1 21 357.2 61 304 61c-53.9 0-72.4-40.1-78-58.3-2.9 5.3-15.1 16-15.1 16s15.6 61.7 91.1 61.7c76.5 0 86.6-58.7 87.7-63.1-2.1-.9-9.3-10.4-13.5-15" style="fill:#bbb"/>
</svg>