<?xml version="1.0" encoding="utf-8"?>
<!-- Generator: Adobe Illustrator 17.0.0, SVG Export Plug-In . SVG Version: 6.00 Build 0)  -->
<!DOCTYPE svg PUBLIC "-//W3C//DTD SVG 1.1//EN" "http://www.w3.org/Graphics/SVG/1.1/DTD/svg11.dtd" [
	<!ENTITY ns_flows "http://ns.adobe.com/Flows/1.0/">
	<!ENTITY ns_extend "http://ns.adobe.com/Extensibility/1.0/">
	<!ENTITY ns_ai "http://ns.adobe.com/AdobeIllustrator/10.0/">
	<!ENTITY ns_graphs "http://ns.adobe.com/Graphs/1.0/">
]>
<svg version="1.1" xmlns:x="&ns_extend;" xmlns:i="&ns_ai;" xmlns:graph="&ns_graphs;"
	 xmlns="http://www.w3.org/2000/svg" xmlns:xlink="http://www.w3.org/1999/xlink" xmlns:a="http://ns.adobe.com/AdobeSVGViewerExtensions/3.0/"
	 x="0px" y="0px" width="600px" height="600px" viewBox="0 0 600 600" style="enable-background:new 0 0 600 600;"
	 xml:space="preserve">
<style type="text/css">
	.st0{fill:#4EC928;}
	.st1{fill:#12B3FF;}
	.st2{fill:#687CFF;}
	.st3{fill:#6536FF;}
	.st4{fill:#C06AFF;}
	.st5{fill:#C90FAA;}
	.st6{fill:#FF5A79;}
	.st7{fill:#FF6A14;}
	.st8{fill:#FFFFFF;}
	.st9{fill:none;}
	.st10{adobe-knockout:true;}
	.st11{fill:#C90FAA;stroke:#FFFFFF;stroke-width:10;stroke-linecap:round;stroke-miterlimit:10;adobe-knockout:false;}
</style>
<g id="Layer_2">
	<rect class="st6" width="600" height="600"/>
</g>
<g id="Layer_1">
	<g>
		<g>
			<g>
				<path class="st8" d="M218.3,415.6l-49.8-49.8l3.7-6.6c73.3-131.8,156-142,179.6-142c4,0,6.3,0.3,6.7,0.3l9.5,1.3l-0.9,9.6
					c-4.7,52.1-30.9,100.6-75.8,140.2c-33.6,29.6-65.4,43.8-66.8,44.3L218.3,415.6z M193.3,362.4l29.2,29.2
					c10.5-5.4,33-18.1,56-38.5c38-33.7,60.7-72.6,67.3-115.7c-11.2,0.9-31.4,4.7-55.7,18.9C254.4,277.2,221.9,312.9,193.3,362.4z"/>
			</g>
			<g>
				<path class="st8" d="M251.4,448.7l-18.5-52.4l18.9-6.7l7.2,20.5c7.8-11.4,17.4-29.2,18.5-49.7l20,1.1
					c-2.4,43-33.5,74.6-34.9,75.9L251.4,448.7z"/>
			</g>
			<g>
				<path class="st8" d="M188.4,351.7l-52.4-18.5l11.2-11.2c1.3-1.3,32.9-32.5,75.9-34.9l1.1,20c-20.5,1.1-38.3,10.7-49.7,18.5
					l20.5,7.2L188.4,351.7z"/>
			</g>
			<g>
				<path class="st8" d="M97.4,483.9l8.2-20.2c0.3-0.7,6.9-16.8,15.7-33.6c17.4-33.1,27.5-38.6,35.1-39.7c9.9-1.4,20.1,2.6,27.9,11
					c7.5,8,12.1,19.1,11.6,27.7c-0.8,11.2-12.9,21-41.8,33.8c-17.9,7.9-35.3,13.8-36,14L97.4,483.9z M159.5,410.2
					c-1,0.5-7.7,4.6-21.4,30.9c-1.5,2.9-3,5.8-4.3,8.6c3-1.2,6.1-2.5,9.3-3.9c25.5-11,31.5-17.2,32.8-18.9
					c-0.3-2.4-2.1-7.6-6.2-11.9C167.4,412.7,163.7,409.8,159.5,410.2z"/>
			</g>
			<g>
				
					<rect x="273.6" y="193.5" transform="matrix(0.7071 0.7072 -0.7072 0.7071 297.4923 -107.157)" class="st8" width="9" height="224"/>
			</g>
		</g>
		<g>
			<g>
				<g>
					<path class="st8" d="M348.3,181.1c-3.3-14.5-1.9-29.5,4.1-43.2c15.3-35,56.3-51,91.3-35.6c20,8.8,34.9,26.8,39.7,48.1
						c3.3,14.5,1.9,29.5-4.1,43.2c-7.4,16.9-21,30-38.3,36.7c-17.2,6.7-36.1,6.3-53-1.1C368,220.4,353.1,202.5,348.3,181.1z
						 M473.3,152.7c-4.1-18.1-16.8-33.4-33.8-40.9c-29.7-13-64.5,0.5-77.5,30.3c-5.1,11.6-6.3,24.3-3.5,36.7
						c4.1,18.1,16.8,33.4,33.8,40.9c14.4,6.3,30.4,6.6,45,0.9c14.6-5.7,26.2-16.8,32.5-31.2C474.9,177.8,476.1,165.1,473.3,152.7z"
						/>
				</g>
			</g>
			<g>
				<g>
					<polygon class="st8" points="472.6,136.5 445.2,131.2 436.1,104.6 					"/>
				</g>
			</g>
			<g>
				<g>
					<polygon class="st8" points="363,201.8 371.5,175.1 352.5,154.4 					"/>
				</g>
			</g>
			<g>
				<g>
					<polygon class="st8" points="459.9,212.5 456.9,184.7 479.5,168.2 					"/>
				</g>
			</g>
			<g>
				<g>
					<polygon class="st8" points="363.6,127.9 391.6,127.4 405.1,102.9 					"/>
				</g>
			</g>
			<g>
				<g>
					<polygon class="st8" points="434.3,227.1 411.6,210.8 386.1,222.5 					"/>
				</g>
			</g>
			<g>
				<g>
					<polygon class="st8" points="400.5,141.1 433.1,144.3 440.1,176.4 411.8,193 387.3,171.2 					"/>
				</g>
			</g>
			<g>
				<g>
					
						<rect x="445.4" y="160" transform="matrix(-0.4211 0.907 -0.907 -0.4211 800.3236 -150.0119)" class="st8" width="5.2" height="40.9"/>
				</g>
			</g>
			<g>
				<g>
					
						<rect x="418" y="136.1" transform="matrix(-0.6492 0.7606 -0.7606 -0.6492 828.5579 -104.6867)" class="st8" width="40.9" height="5.2"/>
				</g>
			</g>
			<g>
				<g>
					
						<rect x="394.7" y="115" transform="matrix(-0.8509 0.5254 -0.5254 -0.8509 806.4156 41.9146)" class="st8" width="5.2" height="40.9"/>
				</g>
			</g>
			<g>
				<g>
					
						<rect x="360.3" y="169.9" transform="matrix(-0.9721 0.2344 -0.2344 -0.9721 791.2667 250.8891)" class="st8" width="40.9" height="5.2"/>
				</g>
			</g>
			<g>
				<g>
					
						<rect x="391.4" y="198.2" transform="matrix(-4.004175e-02 0.9992 -0.9992 -4.004175e-02 629.0168 -202.6404)" class="st8" width="40.9" height="5.2"/>
				</g>
			</g>
		</g>
	</g>
</g>
</svg>
