<?xml version="1.0" encoding="utf-8"?>
<!-- Generator: Adobe Illustrator 17.0.0, SVG Export Plug-In . SVG Version: 6.00 Build 0)  -->
<!DOCTYPE svg PUBLIC "-//W3C//DTD SVG 1.1//EN" "http://www.w3.org/Graphics/SVG/1.1/DTD/svg11.dtd" [
	<!ENTITY ns_flows "http://ns.adobe.com/Flows/1.0/">
	<!ENTITY ns_extend "http://ns.adobe.com/Extensibility/1.0/">
	<!ENTITY ns_ai "http://ns.adobe.com/AdobeIllustrator/10.0/">
	<!ENTITY ns_graphs "http://ns.adobe.com/Graphs/1.0/">
]>
<svg version="1.1" xmlns:x="&ns_extend;" xmlns:i="&ns_ai;" xmlns:graph="&ns_graphs;"
	 xmlns="http://www.w3.org/2000/svg" xmlns:xlink="http://www.w3.org/1999/xlink" xmlns:a="http://ns.adobe.com/AdobeSVGViewerExtensions/3.0/"
	 x="0px" y="0px" width="600px" height="600px" viewBox="0 0 600 600" style="enable-background:new 0 0 600 600;"
	 xml:space="preserve">
<style type="text/css">
	.st0{fill:#4EC928;}
	.st1{fill:#12B3FF;}
	.st2{fill:#687CFF;}
	.st3{fill:#6536FF;}
	.st4{fill:#C06AFF;}
	.st5{fill:#C90FAA;}
	.st6{fill:#FF5A79;}
	.st7{fill:#FF6A14;}
	.st8{fill:#FFFFFF;}
	.st9{fill:none;}
	.st10{adobe-knockout:true;}
	.st11{fill:#C90FAA;stroke:#FFFFFF;stroke-width:10;stroke-linecap:round;stroke-miterlimit:10;adobe-knockout:false;}
</style>
<g id="Layer_2">
	<rect class="st3" width="600" height="600"/>
</g>
<g id="Layer_1">
	<g>
		<g>
			<path class="st8" d="M489.5,294.9c-5.5,0-10-4.5-10-10c0-99-80.5-179.5-179.5-179.5S120.5,186,120.5,284.9c0,5.5-4.5,10-10,10
				s-10-4.5-10-10c0-110,89.5-199.5,199.5-199.5s199.5,89.5,199.5,199.5C499.5,290.5,495,294.9,489.5,294.9z"/>
		</g>
		<g>
			<path class="st8" d="M241.7,412.7c-1.4,0-2.7-0.5-3.7-1.6l-89.6-98.2c-41.9-15.9-42.5-24-42.7-27.5c-0.1-1.6,0.1-5.6,5-8.3
				c13.4-7.3,61.3-1.2,97.5,15.7c-0.2-2.1,0.2-4.2,1.1-6.2c2.8-6.2,10.5-10.3,22.3-11.8c9.9-1.3,21.9-0.7,33.1,1.6
				c16.5,3.5,28.6,10,35,18.4c6-8.2,17.4-14.6,32.9-18.2c22.9-5.2,50.1-2.9,56.1,9.9c1,2.1,1.4,4.2,1.2,6.4
				c13.3-6.3,29.1-11.5,46-14.9c18.3-3.7,43.3-6.2,53.3-0.8c5,2.7,5.3,6.8,5.2,8.4c-0.3,4.6-4.1,8.8-12.3,13.7
				c-7.4,4.4-18.4,9.4-32.8,14.7c0,0,0,0,0,0l-90.6,90.7c-2,2-5.1,2-7.1,0c-2-2-2-5.1,0-7.1l90.8-90.9c0.6-0.8,1.5-1.5,2.7-1.9
				c0.1,0,0.3-0.1,0.4-0.1c0.2-0.1,0.4-0.1,0.6-0.2c28.2-10.5,35.8-16.7,37.8-18.9c-4.4-1.8-19.5-2.9-43.2,1.6
				c-26.7,5.1-50.6,14.6-65.7,26.1c-2.2,1.7-5.3,1.3-7-0.9c-0.7-0.9-1-2-1-3c0-1.5,0.7-3,2-4c9.6-7.3,11.9-12.4,10.8-14.6
				c-2.8-5.9-23.3-9.2-44.7-4.3c-28,6.4-29.9,19.1-29.9,22.9c0,0,0,0,0,0c0,2.7-2.4,4.7-5.1,4.7c0,0,0,0,0,0c-2.7,0-5-2.1-5-4.8
				c-0.1-12.2-16.7-19.9-32.2-23.2c-21.4-4.5-41.7-1.1-44.2,4.6c-1,2.2,1.4,7.3,11.3,14.6c2.2,1.6,2.7,4.8,1,7c-1.6,2.2-4.8,2.7-7,1
				c-15.4-11.4-39.2-20.9-65.3-26c-23.2-4.5-37.6-3.6-42.1-1.9c2.1,2.3,9.7,8.3,36.7,18.5c0.7,0.3,1.4,0.7,1.9,1.3l90.4,99.1
				c1.9,2,1.7,5.2-0.3,7.1C244.1,412.2,242.9,412.7,241.7,412.7z"/>
		</g>
		<g>
			<g>
				<g>
					<path class="st8" d="M232.4,450.1c-3.3-14.5-1.9-29.5,4.1-43.2c15.3-35,56.3-51,91.3-35.6c20,8.8,34.9,26.8,39.7,48.1
						c3.3,14.5,1.9,29.5-4.1,43.2c-7.4,16.9-21,30-38.3,36.7c-17.2,6.7-36.1,6.3-53-1.1C252.2,489.4,237.3,471.4,232.4,450.1z
						 M357.4,421.7c-4.1-18.1-16.8-33.4-33.8-40.9c-29.7-13-64.5,0.5-77.5,30.3c-5.1,11.6-6.3,24.3-3.5,36.7
						c4.1,18.1,16.8,33.4,33.8,40.9c14.4,6.3,30.4,6.6,45,0.9c14.6-5.7,26.2-16.8,32.5-31.2C359,446.7,360.2,434.1,357.4,421.7z"/>
				</g>
			</g>
			<g>
				<g>
					<polygon class="st8" points="356.8,405.5 329.3,400.1 320.2,373.6 					"/>
				</g>
			</g>
			<g>
				<g>
					<polygon class="st8" points="247.1,470.8 255.6,444.1 236.7,423.4 					"/>
				</g>
			</g>
			<g>
				<g>
					<polygon class="st8" points="344.1,481.5 341,453.7 363.6,437.1 					"/>
				</g>
			</g>
			<g>
				<g>
					<polygon class="st8" points="247.8,396.9 275.7,396.4 289.3,371.8 					"/>
				</g>
			</g>
			<g>
				<g>
					<polygon class="st8" points="318.5,496.1 295.7,479.8 270.3,491.5 					"/>
				</g>
			</g>
			<g>
				<g>
					<polygon class="st8" points="284.7,410.1 317.3,413.3 324.2,445.4 295.9,462 271.5,440.2 					"/>
				</g>
			</g>
			<g>
				<g>
					
						<rect x="329.6" y="428.9" transform="matrix(-0.4211 0.907 -0.907 -0.4211 879.6666 337.3219)" class="st8" width="5.2" height="40.9"/>
				</g>
			</g>
			<g>
				<g>
					
						<rect x="302.1" y="405.1" transform="matrix(-0.6492 0.7606 -0.7606 -0.6492 842.1016 427.0403)" class="st8" width="40.9" height="5.2"/>
				</g>
			</g>
			<g>
				<g>
					
						<rect x="278.8" y="384" transform="matrix(-0.8509 0.5254 -0.5254 -0.8509 733.3133 600.6372)" class="st8" width="5.2" height="40.9"/>
				</g>
			</g>
			<g>
				<g>
					
						<rect x="244.4" y="438.9" transform="matrix(-0.9721 0.2344 -0.2344 -0.9721 625.8672 808.5248)" class="st8" width="40.9" height="5.2"/>
				</g>
			</g>
			<g>
				<g>
					
						<rect x="275.5" y="467.2" transform="matrix(-4.004175e-02 0.9992 -0.9992 -4.004175e-02 777.3037 192.8697)" class="st8" width="40.9" height="5.2"/>
				</g>
			</g>
		</g>
		<g>
			<path class="st8" d="M298.4,375C298.4,375,298.4,375,298.4,375c-2.8,0-5-2.1-5-4.8l1.4-272.5c0-2.8,2.3-4.6,5-4.6c0,0,0,0,0,0
				c2.8,0,5,2,5,4.8l-1.4,272.5C303.4,373.1,301.1,375,298.4,375z"/>
		</g>
		<g>
			<path class="st8" d="M274.1,381.9c-1.6,0-3.1-0.7-4.1-2.1l-47.3-67.6c-1.6-2.3-1-5.4,1.2-7s5.4-1,7,1.2l47.3,67.6
				c1.6,2.3,1,5.4-1.2,7C276.1,381.6,275.1,381.9,274.1,381.9z"/>
		</g>
		<g>
			<path class="st8" d="M327.5,381.9c-0.9,0-1.9-0.3-2.7-0.8c-2.3-1.5-3-4.6-1.4-6.9l44.3-67.6c1.5-2.3,4.6-3,6.9-1.4
				c2.3,1.5,3,4.6,1.4,6.9l-44.3,67.6C330.8,381.1,329.2,381.9,327.5,381.9z"/>
		</g>
		<g>
			<path class="st8" d="M385.9,296.9c-0.1,0-0.2,0-0.2,0c-2.8-0.1-4.9-2.5-4.8-5.2c0-0.4,1.7-40.3-8.1-83.9
				c-5.7-25.4-14.1-47-25-64.3c-13-20.6-29.6-35.1-49.3-43c-0.4,0.1-0.9,0.3-1.4,0.5c-7.1,2.5-25.8,9-43.3,34.6
				c-22.5,33-34.8,84.8-36.7,154.1c-0.1,2.8-2.4,5-5.1,4.9c-2.8-0.1-4.9-2.4-4.9-5.1c1.9-71.2,14.8-124.8,38.4-159.4
				c19.3-28.3,40.3-35.6,48.2-38.4c0.8-0.3,1.8-0.6,2.1-0.8c1.3-0.7,2.9-0.9,4.3-0.3c22.7,8.5,41.5,24.6,56.1,47.9
				c11.5,18.3,20.3,41,26.3,67.5c10.1,44.9,8.4,84.7,8.3,86.3C390.8,294.8,388.6,296.9,385.9,296.9z"/>
		</g>
	</g>
</g>
</svg>
