<?xml version="1.0" encoding="utf-8"?>
<!-- Generator: Adobe Illustrator 17.0.0, SVG Export Plug-In . SVG Version: 6.00 Build 0)  -->
<!DOCTYPE svg PUBLIC "-//W3C//DTD SVG 1.1//EN" "http://www.w3.org/Graphics/SVG/1.1/DTD/svg11.dtd" [
	<!ENTITY ns_flows "http://ns.adobe.com/Flows/1.0/">
	<!ENTITY ns_extend "http://ns.adobe.com/Extensibility/1.0/">
	<!ENTITY ns_ai "http://ns.adobe.com/AdobeIllustrator/10.0/">
	<!ENTITY ns_graphs "http://ns.adobe.com/Graphs/1.0/">
]>
<svg version="1.1" xmlns:x="&ns_extend;" xmlns:i="&ns_ai;" xmlns:graph="&ns_graphs;"
	 xmlns="http://www.w3.org/2000/svg" xmlns:xlink="http://www.w3.org/1999/xlink" xmlns:a="http://ns.adobe.com/AdobeSVGViewerExtensions/3.0/"
	 x="0px" y="0px" width="600px" height="600px" viewBox="0 0 600 600" style="enable-background:new 0 0 600 600;"
	 xml:space="preserve">
<style type="text/css">
	.st0{fill:#4EC928;}
	.st1{fill:#12B3FF;}
	.st2{fill:#687CFF;}
	.st3{fill:#6536FF;}
	.st4{fill:#C06AFF;}
	.st5{fill:#C90FAA;}
	.st6{fill:#FF5A79;}
	.st7{fill:#FF6A14;}
	.st8{fill:#FFFFFF;}
	.st9{fill:none;}
	.st10{adobe-knockout:true;}
	.st11{fill:#C90FAA;stroke:#FFFFFF;stroke-width:10;stroke-linecap:round;stroke-miterlimit:10;adobe-knockout:false;}
</style>
<g id="Layer_2">
	<rect class="st3" width="600" height="600"/>
</g>
<g id="Layer_1">
	<g>
		<g>
			<g>
				<path class="st8" d="M299.9,433c-28.6,0-56-9-79.1-26.1c-58.9-43.6-71.4-127.1-27.7-186.1c25-33.7,65-53.9,107-53.9
					c28.6,0,56,9,79.1,26.1c28.6,21.1,47.2,52.1,52.4,87.3c5.2,35.1-3.5,70.2-24.7,98.8C381.9,412.9,341.9,433,299.9,433z
					 M300.1,187c-35.7,0-69.7,17.1-90.9,45.8c-37.1,50.1-26.5,121,23.6,158.1c19.6,14.5,42.8,22.2,67.2,22.2
					c35.7,0,69.7-17.1,90.9-45.8c18-24.3,25.4-54.1,21-83.9c-4.5-29.9-20.3-56.2-44.5-74.2C347.6,194.7,324.4,187,300.1,187z"/>
			</g>
		</g>
		<g>
			<g>
				<polygon class="st8" points="269.4,181.3 247.7,230.3 194.2,236 				"/>
			</g>
		</g>
		<g>
			<g>
				<polygon class="st8" points="344.8,414.3 298.6,387.1 251.8,413.7 				"/>
			</g>
		</g>
		<g>
			<g>
				<polygon class="st8" points="406.3,237.4 353,231.3 331.6,181.9 				"/>
			</g>
		</g>
		<g>
			<g>
				<polygon class="st8" points="206.8,381.6 217.8,329.1 177.6,293.2 				"/>
			</g>
		</g>
		<g>
			<g>
				<polygon class="st8" points="422.6,291.5 382.5,327.2 393.5,379.9 				"/>
			</g>
		</g>
		<g>
			<g>
				<polygon class="st8" points="247.2,318.2 267.1,258.5 330.2,259.2 349.2,319.2 297.9,355.7 				"/>
			</g>
		</g>
		<g>
			<g>
				
					<rect x="336.1" y="206.8" transform="matrix(0.7907 0.6122 -0.6122 0.7907 221.9917 -157.3255)" class="st8" width="10" height="78.5"/>
			</g>
		</g>
		<g>
			<g>
				
					<rect x="219.7" y="241.2" transform="matrix(0.5973 0.802 -0.802 0.5973 301.7674 -108.5576)" class="st8" width="78.5" height="10"/>
			</g>
		</g>
		<g>
			<g>
				
					<rect x="230.2" y="282.6" transform="matrix(0.323 0.9464 -0.9464 0.323 463.7928 -4.7201)" class="st8" width="10" height="78.5"/>
			</g>
		</g>
		<g>
			<g>
				
					<rect x="258.3" y="363.6" transform="matrix(1.245915e-02 0.9999 -0.9999 1.245915e-02 662.4102 66.5113)" class="st8" width="78.5" height="10"/>
			</g>
		</g>
		<g>
			<g>
				
					<rect x="324.6" y="317.4" transform="matrix(0.9653 0.2612 -0.2612 0.9653 96.8463 -83.8514)" class="st8" width="78.6" height="10"/>
			</g>
		</g>
	</g>
	<g>
		<g>
			<path class="st8" d="M218.1,386.6c-2-2-5.1-2-7.1,0L1.3,596.3c-0.7,0.7-1.2,1.6-1.3,2.5v1.2h11.8l206.3-206.3
				C220.1,391.7,220.1,388.6,218.1,386.6z"/>
		</g>
		<g>
			<path class="st8" d="M263.6,408.1c-2-2-5.1-2-7.1,0L64.7,600h14.1l184.8-184.8C265.6,413.2,265.6,410.1,263.6,408.1z"/>
		</g>
		<g>
			<path class="st8" d="M197.4,341.4c2-2,2-5.1,0-7.1c-2-2-5.1-2-7.1,0L0,524.7v13.7c0.5-0.2,1-0.6,1.4-1L197.4,341.4z"/>
		</g>
		<g>
			<path class="st8" d="M183.6,274.1c-2-2-5.1-2-7.1,0L0,450.7v14.1l183.6-183.6C185.6,279.2,185.6,276.1,183.6,274.1z"/>
		</g>
		<g>
			<path class="st8" d="M324.9,416.9c-2-2-5.1-2-7.1,0L134.7,600h14.1l176.1-176.1C326.8,422,326.8,418.8,324.9,416.9z"/>
		</g>
	</g>
</g>
</svg>
