<?xml version="1.0" encoding="utf-8"?>
<!-- Generator: Adobe Illustrator 17.0.0, SVG Export Plug-In . SVG Version: 6.00 Build 0)  -->
<!DOCTYPE svg PUBLIC "-//W3C//DTD SVG 1.1//EN" "http://www.w3.org/Graphics/SVG/1.1/DTD/svg11.dtd" [
	<!ENTITY ns_flows "http://ns.adobe.com/Flows/1.0/">
	<!ENTITY ns_extend "http://ns.adobe.com/Extensibility/1.0/">
	<!ENTITY ns_ai "http://ns.adobe.com/AdobeIllustrator/10.0/">
	<!ENTITY ns_graphs "http://ns.adobe.com/Graphs/1.0/">
]>
<svg version="1.1" xmlns:x="&ns_extend;" xmlns:i="&ns_ai;" xmlns:graph="&ns_graphs;"
	 xmlns="http://www.w3.org/2000/svg" xmlns:xlink="http://www.w3.org/1999/xlink" xmlns:a="http://ns.adobe.com/AdobeSVGViewerExtensions/3.0/"
	 x="0px" y="0px" width="600px" height="600px" viewBox="0 0 600 600" style="enable-background:new 0 0 600 600;"
	 xml:space="preserve">
<style type="text/css">
	.st0{fill:#4EC928;}
	.st1{fill:#12B3FF;}
	.st2{fill:#687CFF;}
	.st3{fill:#6536FF;}
	.st4{fill:#C06AFF;}
	.st5{fill:#C90FAA;}
	.st6{fill:#FF5A79;}
	.st7{fill:#FF6A14;}
	.st8{fill:#FFFFFF;}
	.st9{fill:none;}
	.st10{adobe-knockout:true;}
	.st11{fill:#C90FAA;stroke:#FFFFFF;stroke-width:10;stroke-linecap:round;stroke-miterlimit:10;adobe-knockout:false;}
</style>
<g id="Layer_2">
	<rect class="st6" width="600" height="600"/>
</g>
<g id="Layer_1">
	<g>
		<g>
			<path class="st8" d="M252,198H66c-5.5,0-10-4.5-10-10s4.5-10,10-10h186c5.5,0,10,4.5,10,10S257.5,198,252,198z"/>
		</g>
		<g>
			<path class="st8" d="M413.3,393.2c-2.5,0-5.3-0.3-8.3-1c-7.2-1.6-12.9-4.6-13.5-4.9c-0.8-0.4-1.5-0.9-2.1-1.6l-63.1-60
				c-4-3.8-4.2-10.1-0.4-14.1c3.8-4,10.1-4.2,14.1-0.4l62,59c5.2,2.4,13,4.2,15.1,1.8c0.5-0.6,1-1.1,1.6-1.5c3.2-2.4,3.8-4.6,3.9-6
				c0.6-5.1-3.6-11.5-5.2-13.6c-8.1-7.3-83.1-74.5-107.9-98.8c-9.5,5.7-22.3,10.6-27.3,12.3c-42.8,29.5-62.5,12.7-67.5,6.8
				c-7.4-8.6-9.3-21.3-5.4-35.7c3.7-13.6,12.3-27.7,24.8-40.7c47.5-56.7,106.3-26.6,134.6-12.2c1.7,0.9,3.3,1.7,4.8,2.4
				c23.7,11.8,60.8,15.5,65,15.9H541c5.5,0,10,4.5,10,10s-4.5,10-10,10H438.2c-0.3,0-0.5,0-0.8,0c-1.8-0.1-44.2-3.8-72.6-18
				c-1.6-0.8-3.2-1.6-5-2.5c-13.7-7-32.5-16.6-52.4-18.5c-22.6-2.1-41.6,6.4-57.9,26c-0.2,0.2-0.3,0.4-0.5,0.6
				c-22.2,23-24.4,43.3-18.8,49.8c6.7,7.9,26.5-0.1,41.9-11c0.7-0.5,1.6-0.9,2.4-1.2c11.2-4,25.6-10.5,29.3-14.1
				c1.9-1.9,4.6-3,7.3-2.9c2.7,0.1,5.3,1.3,7.2,3.3c10.4,11.5,78.6,73.2,113.2,104.2c0.3,0.3,0.6,0.6,0.9,0.9
				c1.2,1.4,11.9,14.3,10.2,29.2c-0.8,7.5-4.6,14.1-11,19.2C428.4,389.1,422.7,393.2,413.3,393.2z"/>
		</g>
		<g>
			<path class="st8" d="M434.9,360c-2.9,0-5.7-1.2-7.7-3.6c-3.5-4.2-2.9-10.5,1.3-14.1c3.2-2.7,32.3-26.3,56.3-26.3H538
				c5.5,0,10,4.5,10,10s-4.5,10-10,10h-53.3c-12.6,0-33.4,13.3-43.5,21.7C439.4,359.2,437.1,360,434.9,360z"/>
		</g>
		<g>
			<path class="st8" d="M294.6,438.4c-6.5,0-13.4-1.2-20.7-3.7c-11.9-4.1-23.7-11.4-29.4-18.2c-5.5-6.4-70.8-59.9-112.7-93.8
				l-72.7,2.9c-5.5,0.2-10.2-4.1-10.4-9.6c-0.2-5.5,4.1-10.2,9.6-10.4l76.5-3c2.4-0.1,4.8,0.7,6.7,2.2
				c18.4,14.9,110.7,89.6,118.4,98.9c5.4,6.5,31.5,21.4,46.9,11.5c4.6-3,10.8-1.6,13.8,3s1.6,10.8-3,13.8
				C311,436.2,303.2,438.4,294.6,438.4z"/>
		</g>
		<g>
			<path class="st8" d="M332.3,433.1c-6.4,0-10.8-1.4-11.3-1.6c-1.4-0.5-2.7-1.3-3.8-2.3l-55.5-54c-4-3.9-4-10.2-0.2-14.1
				s10.2-4,14.1-0.2l53.5,52c1.4,0.2,3.4,0.3,5.8,0.1c5.6-0.7,10.6-3.4,14.9-8.1c3.7-4.1,10-4.4,14.1-0.7c4.1,3.7,4.4,10,0.7,14.1
				C353.6,430.4,341.1,433.1,332.3,433.1z"/>
		</g>
		<g>
			<path class="st8" d="M372.3,415.1c-6.4,0-10.8-1.4-11.3-1.6c-1.4-0.5-2.7-1.3-3.8-2.3l-55.5-54c-4-3.9-4-10.2-0.2-14.1
				c3.9-4,10.2-4,14.1-0.2l53.5,52c1.4,0.2,3.4,0.3,5.8,0.1c5.6-0.7,10.6-3.4,14.9-8.1c3.7-4.1,10-4.4,14.1-0.7
				c4.1,3.7,4.4,10,0.7,14.1C393.6,412.4,381.1,415.1,372.3,415.1z"/>
		</g>
	</g>
</g>
</svg>
