<?xml version="1.0" encoding="utf-8"?>
<!-- Generator: Adobe Illustrator 17.0.0, SVG Export Plug-In . SVG Version: 6.00 Build 0)  -->
<!DOCTYPE svg PUBLIC "-//W3C//DTD SVG 1.1//EN" "http://www.w3.org/Graphics/SVG/1.1/DTD/svg11.dtd" [
	<!ENTITY ns_flows "http://ns.adobe.com/Flows/1.0/">
	<!ENTITY ns_extend "http://ns.adobe.com/Extensibility/1.0/">
	<!ENTITY ns_ai "http://ns.adobe.com/AdobeIllustrator/10.0/">
	<!ENTITY ns_graphs "http://ns.adobe.com/Graphs/1.0/">
]>
<svg version="1.1" xmlns:x="&ns_extend;" xmlns:i="&ns_ai;" xmlns:graph="&ns_graphs;"
	 xmlns="http://www.w3.org/2000/svg" xmlns:xlink="http://www.w3.org/1999/xlink" xmlns:a="http://ns.adobe.com/AdobeSVGViewerExtensions/3.0/"
	 x="0px" y="0px" width="600px" height="600px" viewBox="0 0 600 600" style="enable-background:new 0 0 600 600;"
	 xml:space="preserve">
<style type="text/css">
	.st0{fill:#4EC928;}
	.st1{fill:#12B3FF;}
	.st2{fill:#687CFF;}
	.st3{fill:#6536FF;}
	.st4{fill:#C06AFF;}
	.st5{fill:#C90FAA;}
	.st6{fill:#FF5A79;}
	.st7{fill:#FF6A14;}
	.st8{fill:#FFFFFF;}
	.st9{fill:none;}
	.st10{adobe-knockout:true;}
	.st11{fill:#C90FAA;stroke:#FFFFFF;stroke-width:10;stroke-linecap:round;stroke-miterlimit:10;adobe-knockout:false;}
</style>
<g id="Layer_2">
	<rect class="st6" width="600" height="600"/>
</g>
<g id="Layer_1">
	<g>
		<g>
			<path class="st8" d="M420.8,493.2c-4.5,0-8.5-3-9.7-7.6l-34.8-138.4c-0.9-3.7,0.3-7.7,3.3-10.1l90.4-75.5l-117.5-8
				c-3.8-0.3-7.2-2.7-8.6-6.3L300,138l-43.9,109.3c-1.4,3.6-4.8,6-8.6,6.3l-117.5,8l90.4,75.5c2.9,2.5,4.2,6.4,3.3,10.1l-34.8,138.4
				c-1.3,5.4-6.8,8.6-12.1,7.3c-5.4-1.3-8.6-6.8-7.3-12.1l33.3-132.3L98,261c-3.1-2.6-4.4-6.9-3.1-10.8c1.3-3.9,4.8-6.6,8.8-6.9
				l136.1-9.2l50.8-126.6c1.5-3.8,5.2-6.3,9.3-6.3s7.8,2.5,9.3,6.3l50.8,126.6l136.1,9.2c4.1,0.3,7.6,3,8.8,6.9
				c1.3,3.9,0,8.1-3.1,10.8l-104.7,87.5l33.3,132.3c1.3,5.4-1.9,10.8-7.3,12.1C422.5,493.1,421.7,493.2,420.8,493.2z"/>
		</g>
		<g>
			<path class="st8" d="M420.9,499C420.9,499,420.9,499,420.9,499l-240.4-1.2c-3.1,0-6.1-1.5-8-4.1c-1.9-2.5-2.5-5.8-1.6-8.8
				c0.3-1.1,7.7-26.5,27.2-52.1c26.2-34.5,61.7-52.8,102.6-52.8c39.1,0,74,18.4,100.9,53.2c19.9,25.7,28.4,51.3,28.7,52.3
				c1,3.1,0.5,6.5-1.4,9.1C427.1,497.4,424.1,499,420.9,499z M195,477.8l211,0.9c-4.2-9-10.9-21.4-20.5-33.6
				c-23.3-29.9-51.8-45-84.8-45c-34.7,0-63.8,14.9-86.3,44.4C205.1,456.6,198.8,468.9,195,477.8z"/>
		</g>
		<g>
			<path class="st8" d="M299.7,368.5c-26.2,0-47.6-21.3-47.6-47.6s21.3-47.6,47.6-47.6s47.6,21.3,47.6,47.6S325.9,368.5,299.7,368.5
				z M299.7,293.4c-15.2,0-27.6,12.4-27.6,27.6s12.4,27.6,27.6,27.6s27.6-12.4,27.6-27.6S314.9,293.4,299.7,293.4z"/>
		</g>
	</g>
</g>
</svg>
