<?xml version="1.0" encoding="utf-8"?>
<!-- Generator: Adobe Illustrator 17.0.0, SVG Export Plug-In . SVG Version: 6.00 Build 0)  -->
<!DOCTYPE svg PUBLIC "-//W3C//DTD SVG 1.1//EN" "http://www.w3.org/Graphics/SVG/1.1/DTD/svg11.dtd" [
	<!ENTITY ns_flows "http://ns.adobe.com/Flows/1.0/">
	<!ENTITY ns_extend "http://ns.adobe.com/Extensibility/1.0/">
	<!ENTITY ns_ai "http://ns.adobe.com/AdobeIllustrator/10.0/">
	<!ENTITY ns_graphs "http://ns.adobe.com/Graphs/1.0/">
]>
<svg version="1.1" xmlns:x="&ns_extend;" xmlns:i="&ns_ai;" xmlns:graph="&ns_graphs;"
	 xmlns="http://www.w3.org/2000/svg" xmlns:xlink="http://www.w3.org/1999/xlink" xmlns:a="http://ns.adobe.com/AdobeSVGViewerExtensions/3.0/"
	 x="0px" y="0px" width="600px" height="600px" viewBox="0 0 600 600" style="enable-background:new 0 0 600 600;"
	 xml:space="preserve">
<style type="text/css">
	.st0{fill:#4EC928;}
	.st1{fill:#12B3FF;}
	.st2{fill:#687CFF;}
	.st3{fill:#6536FF;}
	.st4{fill:#C06AFF;}
	.st5{fill:#C90FAA;}
	.st6{fill:#FF5A79;}
	.st7{fill:#FF6A14;}
	.st8{fill:#FFFFFF;}
	.st9{fill:none;}
	.st10{adobe-knockout:true;}
	.st11{fill:#C90FAA;stroke:#FFFFFF;stroke-width:10;stroke-linecap:round;stroke-miterlimit:10;adobe-knockout:false;}
</style>
<g id="Layer_2">
	<rect class="st0" width="600" height="600"/>
</g>
<g id="Layer_1">
	<g>
		<path class="st8" d="M392.4,339c-3.2,0-6.3-1.6-8.2-4.2l-25.5-36.1c-4.2,1.7-7.7,2.5-10.9,2.5c-5.1,0-8.4-2.1-10.3-3.8
			c-4.4-4.1-4.7-9.9-3.2-16.2L294.6,268c-3.2-1.1-5.7-3.7-6.5-7c-0.9-3.3,0-6.8,2.3-9.3l15-16.4c1.8-2,4.4-3.2,7.2-3.3l46.3-1
			c6.8-11.4,14.6-23.6,22.9-35.9l-91-40c-2.9-1.3-5-3.8-5.7-6.9s0.1-6.3,2.2-8.7l18-21c2.1-2.4,5.2-3.7,8.3-3.5l56.7,4.2l12.6-11.9
			c3.6-3.4,8.4-5.3,13.4-5.3c5.3,0,10.5,2.2,14.2,6.1c3.9,4.1,5.6,9.4,5.3,14.6l19.4,1.5c14.8-17.4,28.4-31.4,40.5-41.5
			c16.2-13.6,29.6-20.3,40.8-20.3c5.9,0,11.3,1.9,15.6,5.4c5.1,4.2,8.2,10.1,8.9,17.2c1.9,19.2-13.8,49.4-46.6,89.9l5.9,21.1
			c1.9-0.6,3.9-0.9,6-0.9c5.3,0,10.5,2.2,14.2,6.1c7.4,7.8,7.1,20.2-0.7,27.6l-8.1,7.6l14.8,52.5c0.8,2.9,0.3,5.9-1.4,8.4
			l-16.5,24.2c-1.8,2.7-4.9,4.5-8.2,4.5c0,0-0.1,0-0.1,0c-3.2,0-6.3-1.8-8.1-4.4l-58-81.4c-10.2,9.8-20.2,18.9-29.7,26.9l9.6,41.7
			c0.6,2.7,0.1,5.5-1.4,7.7l-11.9,17.9c-1.8,2.8-4.9,4.5-8.2,4.5C392.5,339,392.4,339,392.4,339z M361.9,276c3.2,0,6.2,1.5,8.2,4.2
			l22,31.1l1.4-2.2l-10-43.6c-0.8-3.7,0.5-7.5,3.4-9.9c12.8-10.6,27.2-23.7,41.5-37.9c2.1-2.1,5-3.1,7.9-2.9
			c2.9,0.2,5.6,1.8,7.3,4.2l56.5,79.2l5.8-8.4L490.7,236c-1-3.6,0.1-7.4,2.7-10l4.1-3.9c-1.8,0.6-3.8,0.6-5.7,0.1
			c-3.4-0.9-6-3.6-7-6.9l-11.3-40c-0.9-3.2-0.2-6.6,1.9-9.1c44.2-53.5,46-74.2,45.5-79.3c-0.3-2.6-1.2-3.3-1.6-3.7
			c-0.6-0.5-1.4-0.9-3-0.9c-4.8,0-23.9,4.2-69.2,58.6c-2.1,2.5-5.2,3.8-8.4,3.6l-40-3c-3.9-0.3-7.3-2.9-8.7-6.6
			c-0.8-2.3-0.8-4.7,0.1-6.9l-9.4,8.9c-2,1.9-4.8,2.9-7.6,2.7l-56.1-4.2l-5.9,6.9l89.7,39.4c2.7,1.2,4.8,3.6,5.6,6.4
			c0.8,2.9,0.3,6-1.4,8.4c-11.8,17-22.8,34.1-31.8,49.4c-1.8,3-4.9,4.9-8.4,4.9l-47.6,1l-1.7,1.9l34.7,11.6c2.6,0.9,4.8,2.8,5.9,5.3
			c1,2.1,1.2,4.4,0.6,6.6c0.1-0.1,0.2-0.1,0.3-0.2C358.5,276.4,360.2,276,361.9,276z"/>
	</g>
	<g>
		<path class="st8" d="M62.8,533c-9.3,0-16.7-2.5-22.2-7.5c-17-15.5-18.3-42.9-3.8-81.4c10-26.5,23.9-48.8,24.5-49.8
			c2.9-4.7,9.1-6.1,13.8-3.2c4.7,2.9,6.1,9.1,3.2,13.8C65,426,32.1,490.8,54,510.7c2.2,2,6.8,2.7,12.9,2.1
			c51-5.5,177.4-99.3,246.8-197c3.2-4.5,9.4-5.6,13.9-2.4c4.5,3.2,5.6,9.4,2.4,13.9c-32.9,46.4-81.9,96.4-134.2,137.2
			C144.2,504.7,98,529.5,69,532.6C66.8,532.9,64.7,533,62.8,533z"/>
	</g>
</g>
</svg>
