<?xml version="1.0" encoding="utf-8"?>
<!-- Generator: Adobe Illustrator 17.0.0, SVG Export Plug-In . SVG Version: 6.00 Build 0)  -->
<!DOCTYPE svg PUBLIC "-//W3C//DTD SVG 1.1//EN" "http://www.w3.org/Graphics/SVG/1.1/DTD/svg11.dtd" [
	<!ENTITY ns_flows "http://ns.adobe.com/Flows/1.0/">
	<!ENTITY ns_extend "http://ns.adobe.com/Extensibility/1.0/">
	<!ENTITY ns_ai "http://ns.adobe.com/AdobeIllustrator/10.0/">
	<!ENTITY ns_graphs "http://ns.adobe.com/Graphs/1.0/">
]>
<svg version="1.1" xmlns:x="&ns_extend;" xmlns:i="&ns_ai;" xmlns:graph="&ns_graphs;"
	 xmlns="http://www.w3.org/2000/svg" xmlns:xlink="http://www.w3.org/1999/xlink" xmlns:a="http://ns.adobe.com/AdobeSVGViewerExtensions/3.0/"
	 x="0px" y="0px" width="600px" height="600px" viewBox="0 0 600 600" style="enable-background:new 0 0 600 600;"
	 xml:space="preserve">
<style type="text/css">
	.st0{fill:#4EC928;}
	.st1{fill:#12B3FF;}
	.st2{fill:#687CFF;}
	.st3{fill:#6536FF;}
	.st4{fill:#C06AFF;}
	.st5{fill:#C90FAA;}
	.st6{fill:#FF5A79;}
	.st7{fill:#FF6A14;}
	.st8{fill:#FFFFFF;}
	.st9{fill:none;}
	.st10{adobe-knockout:true;}
	.st11{fill:#C90FAA;stroke:#FFFFFF;stroke-width:10;stroke-linecap:round;stroke-miterlimit:10;adobe-knockout:false;}
</style>
<g id="Layer_2">
	<rect class="st5" width="600" height="600"/>
</g>
<g id="Layer_1">
	<g>
		<g>
			<g>
				<path class="st8" d="M299.9,481.7c-89.3,0-129.4-30.8-147.2-56.6c-19.5-28.1-22.3-64.6-7.9-102.7c18.9-50.1,62-100.8,110-129.6
					c8.3-12.8,0.8-29.4-9.8-49.5c-3.6-6.9-7.1-13.4-8.9-19.2c-3.7-11.9,0.5-18.5,4.6-22c3-2.5,6.7-3.9,10.7-3.9
					c10.3,0,20.1,8.8,29.6,18.4c-0.1-5.5,1-9.5,3.5-12.6c2.6-3.2,6.2-4.9,10.4-4.9c6.5,0,13.5,4.2,23.4,14.1c1.8,1.8,3.5,3.6,5,5.2
					c10.2-6.2,27.7-15.5,39.7-15.5c8.2,0,14.4,4.2,16.7,11.1c1.2,3.5,0.3,7.3-2.2,10c-21.3,23-27.5,55.1-29.3,70.7
					c44.1,27.9,87.4,79.3,106.6,127.4c14.7,36.7,12.2,72.5-7,100.9C422.4,460.9,369.8,481.7,299.9,481.7z M256.4,121.3
					c1.7,3.9,4.3,8.9,6.3,12.7c10.1,19.2,25.5,48.2,7,72.4c-0.8,1-1.8,1.9-2.9,2.6c-45.1,26.5-85.6,73.8-103.3,120.5
					c-12,31.7-10,61.7,5.6,84.2c10.1,14.6,25.6,26.1,46.1,34.3c22.9,9.1,51.4,13.7,84.7,13.7c63,0,109.7-17.7,131.4-49.8
					c15.4-22.7,17.2-51.9,5-82.3c-18.5-46.3-61.1-96-103.6-120.9c-3.3-1.9-5.2-5.5-4.9-9.3c0.9-13.8,5-44.9,22.6-72.6
					c-8,3.6-17.3,8.9-23.5,13c-4.3,2.9-10.1,2-13.3-2c-3.5-4.3-7.5-8.6-11.1-12c1.7,8.5,2,14.4-1.7,19c-2.2,2.7-5.5,4.1-9,4.1
					c0,0,0,0,0,0c-6.9,0-12.3-5.3-21.2-14.4C267.5,131.2,261.2,125,256.4,121.3z"/>
			</g>
			<g>
				<path class="st8" d="M352,202h-96c-6.1,0-11-4.9-11-11s4.9-11,11-11h96c6.1,0,11,4.9,11,11S358.1,202,352,202z"/>
			</g>
		</g>
		<g>
			<g>
				<path class="st8" d="M309.1,395.4c-25.9,0-50.4-5.4-69-15.2c-20.8-11-32.3-26.4-32.3-43.4c0-17,11.5-32.4,32.3-43.4
					c18.6-9.8,43.1-15.2,69-15.2c17.1,0,34,2.4,48.8,7c5.7,1.8,9,7.9,7.2,13.6c-1.8,5.7-7.9,9-13.6,7.2c-12.7-3.9-27.4-6-42.3-6
					c-46.9,0-79.6,19.4-79.6,36.9s32.7,36.9,79.6,36.9c17.4,0,33.9-2.7,48-7.9c5.6-2.1,11.9,0.8,14,6.5c2.1,5.6-0.8,11.9-6.5,14
					C348.2,392.2,329,395.4,309.1,395.4z"/>
			</g>
			<g>
				<path class="st8" d="M319,346h-95c-6.1,0-11-4.9-11-11s4.9-11,11-11h95c6.1,0,11,4.9,11,11S325.1,346,319,346z"/>
			</g>
			<g>
				<path class="st8" d="M276,431c-6.1,0-11-4.9-11-11v-39c0-6.1,4.9-11,11-11s11,4.9,11,11v39C287,426.1,282.1,431,276,431z"/>
			</g>
			<g>
				<path class="st8" d="M276,304c-6.1,0-11-4.9-11-11v-35c0-6.1,4.9-11,11-11s11,4.9,11,11v35C287,299.1,282.1,304,276,304z"/>
			</g>
			<g>
				<path class="st8" d="M310,431c-6.1,0-11-4.9-11-11v-31c0-6.1,4.9-11,11-11s11,4.9,11,11v31C321,426.1,316.1,431,310,431z"/>
			</g>
			<g>
				<path class="st8" d="M310,300c-6.1,0-11-4.9-11-11v-31c0-6.1,4.9-11,11-11s11,4.9,11,11v31C321,295.1,316.1,300,310,300z"/>
			</g>
		</g>
	</g>
</g>
</svg>
