<?xml version="1.0" encoding="utf-8"?>
<!-- Generator: Adobe Illustrator 17.0.0, SVG Export Plug-In . SVG Version: 6.00 Build 0)  -->
<!DOCTYPE svg PUBLIC "-//W3C//DTD SVG 1.1//EN" "http://www.w3.org/Graphics/SVG/1.1/DTD/svg11.dtd" [
	<!ENTITY ns_flows "http://ns.adobe.com/Flows/1.0/">
	<!ENTITY ns_extend "http://ns.adobe.com/Extensibility/1.0/">
	<!ENTITY ns_ai "http://ns.adobe.com/AdobeIllustrator/10.0/">
	<!ENTITY ns_graphs "http://ns.adobe.com/Graphs/1.0/">
]>
<svg version="1.1" xmlns:x="&ns_extend;" xmlns:i="&ns_ai;" xmlns:graph="&ns_graphs;"
	 xmlns="http://www.w3.org/2000/svg" xmlns:xlink="http://www.w3.org/1999/xlink" xmlns:a="http://ns.adobe.com/AdobeSVGViewerExtensions/3.0/"
	 x="0px" y="0px" width="600px" height="600px" viewBox="0 0 600 600" style="enable-background:new 0 0 600 600;"
	 xml:space="preserve">
<style type="text/css">
	.st0{fill:#4EC928;}
	.st1{fill:#12B3FF;}
	.st2{fill:#687CFF;}
	.st3{fill:#6536FF;}
	.st4{fill:#C06AFF;}
	.st5{fill:#C90FAA;}
	.st6{fill:#FF5A79;}
	.st7{fill:#FF6A14;}
	.st8{fill:#FFFFFF;}
	.st9{fill:none;}
	.st10{adobe-knockout:true;}
	.st11{fill:#C90FAA;stroke:#FFFFFF;stroke-width:10;stroke-linecap:round;stroke-miterlimit:10;adobe-knockout:false;}
</style>
<g id="Layer_2">
	<rect class="st6" width="600" height="600"/>
</g>
<g id="Layer_1">
	<g>
		<g>
			<path class="st8" d="M301,500.2c-111.7,0-202.5-90.8-202.5-202.5S189.3,95.2,301,95.2c111.7,0,202.5,90.9,202.5,202.5
				S412.7,500.2,301,500.2z M301,116.2c-100.1,0-181.5,81.4-181.5,181.5c0,100.1,81.4,181.5,181.5,181.5s181.5-81.4,181.5-181.5
				C482.5,197.6,401.1,116.2,301,116.2z"/>
		</g>
		<g>
			<path class="st8" d="M298,418.7c-66.7,0-121-54.3-121-121s54.3-121,121-121s121,54.3,121,121S364.7,418.7,298,418.7z M298,196.7
				c-55.7,0-101,45.3-101,101s45.3,101,101,101s101-45.3,101-101S353.7,196.7,298,196.7z"/>
		</g>
		<g>
			<g>
				<path class="st8" d="M417.4,459.6l-71-71c17.6-9.1,33.1-27.1,42.4-42.4l71.5,71.5L417.4,459.6z"/>
			</g>
		</g>
		<g>
			<g>
				<path class="st8" d="M207.2,249.3l-68-68l41.7-43.2l68.7,68.7C230.5,220,214,238,207.2,249.3z"/>
			</g>
		</g>
		<g>
			<g>
				<path class="st8" d="M143.9,421.4l68.3-68.3c11.4,20.9,25.9,29.9,42.4,42.4l-67,67L143.9,421.4z"/>
			</g>
		</g>
		<g>
			<g>
				<path class="st8" d="M353.1,212.1l71.5-71.5L466,184l-71.5,71.5C379.5,228,353.1,212.1,353.1,212.1z"/>
			</g>
		</g>
	</g>
</g>
</svg>
