<?xml version="1.0" encoding="utf-8"?>
<!-- Generator: Adobe Illustrator 17.0.0, SVG Export Plug-In . SVG Version: 6.00 Build 0)  -->
<!DOCTYPE svg PUBLIC "-//W3C//DTD SVG 1.1//EN" "http://www.w3.org/Graphics/SVG/1.1/DTD/svg11.dtd" [
	<!ENTITY ns_flows "http://ns.adobe.com/Flows/1.0/">
	<!ENTITY ns_extend "http://ns.adobe.com/Extensibility/1.0/">
	<!ENTITY ns_ai "http://ns.adobe.com/AdobeIllustrator/10.0/">
	<!ENTITY ns_graphs "http://ns.adobe.com/Graphs/1.0/">
]>
<svg version="1.1" xmlns:x="&ns_extend;" xmlns:i="&ns_ai;" xmlns:graph="&ns_graphs;"
	 xmlns="http://www.w3.org/2000/svg" xmlns:xlink="http://www.w3.org/1999/xlink" xmlns:a="http://ns.adobe.com/AdobeSVGViewerExtensions/3.0/"
	 x="0px" y="0px" width="600px" height="600px" viewBox="0 0 600 600" style="enable-background:new 0 0 600 600;"
	 xml:space="preserve">
<style type="text/css">
	.st0{fill:#4EC928;}
	.st1{fill:#12B3FF;}
	.st2{fill:#687CFF;}
	.st3{fill:#6536FF;}
	.st4{fill:#C06AFF;}
	.st5{fill:#C90FAA;}
	.st6{fill:#FF5A79;}
	.st7{fill:#FF6A14;}
	.st8{fill:#FFFFFF;}
	.st9{fill:none;}
	.st10{adobe-knockout:true;}
	.st11{fill:#C90FAA;stroke:#FFFFFF;stroke-width:10;stroke-linecap:round;stroke-miterlimit:10;adobe-knockout:false;}
</style>
<g id="Layer_2">
	<rect class="st1" width="600" height="600"/>
</g>
<g id="Layer_1">
	<g>
		<g>
			<path class="st8" d="M458.4,279.7c-3.5,0-7.1-0.9-10.3-2.9c-38-23.1-55.7-19.8-87.9-14c-13.7,2.5-29.3,5.4-48.8,6.6
				c-63.3,5.9-106.3-13.6-131.2-31.1c-27.3-19-39.4-39.5-40.7-41.8l34.4-19.6l-0.1-0.1c0.1,0.2,9.6,15.9,30.7,30.2
				c28.2,19.1,63,26.8,103.5,23l0.6,0c17.3-1.1,31.1-3.6,44.5-6.1c34.7-6.4,64.7-11.8,115.6,19.1c9.3,5.7,12.3,17.9,6.6,27.2
				C471.6,276.3,465.1,279.7,458.4,279.7z"/>
		</g>
		<g>
			<path class="st8" d="M383.4,375.7c-1.2-0.9-29-21.9-58.6-60.6c-17.3-22.6-26.6-47.5-27.7-50.3l29.6-10.8l29.6-10.9
				c0.1,0.2,7,18.5,18.5,33.7c24,31.3,46.2,48.4,46.4,48.6l-0.1-0.1L383.4,375.7z"/>
		</g>
		<g>
			<path class="st8" d="M494.9,526.8c-5.1,0-10.2-1.9-14.1-5.8c-1.5-1.5-37.8-37.5-61.9-72.1c-24.3-34.8-55.4-107.5-56.7-110.6
				c-2.3-5.4-2.1-11.6,0.5-16.8s7.5-9.1,13.2-10.5l102.2-24.3c5.9-1.4,12.1-0.1,16.9,3.7c4.8,3.7,7.6,9.4,7.7,15.5L504,380
				c0.2,11-8.6,20.1-19.7,20.3c-0.1,0-0.2,0-0.3,0c-10.9,0-19.8-8.7-20-19.7l-0.8-49.3l-54.5,13c10.8,23.8,28.8,61.2,43.1,81.7
				c22.1,31.6,56.9,66.2,57.3,66.6c7.9,7.8,7.9,20.4,0.1,28.3C505.2,524.8,500.1,526.8,494.9,526.8z"/>
		</g>
		<g>
			<circle class="st8" cx="305.8" cy="163.5" r="52.5"/>
		</g>
		<g>
			<circle class="st8" cx="94.8" cy="103.1" r="43"/>
		</g>
	</g>
</g>
</svg>
