<?xml version="1.0" encoding="utf-8"?>
<!-- Generator: Adobe Illustrator 17.0.0, SVG Export Plug-In . SVG Version: 6.00 Build 0)  -->
<!DOCTYPE svg PUBLIC "-//W3C//DTD SVG 1.1//EN" "http://www.w3.org/Graphics/SVG/1.1/DTD/svg11.dtd" [
	<!ENTITY ns_flows "http://ns.adobe.com/Flows/1.0/">
	<!ENTITY ns_extend "http://ns.adobe.com/Extensibility/1.0/">
	<!ENTITY ns_ai "http://ns.adobe.com/AdobeIllustrator/10.0/">
	<!ENTITY ns_graphs "http://ns.adobe.com/Graphs/1.0/">
]>
<svg version="1.1" xmlns:x="&ns_extend;" xmlns:i="&ns_ai;" xmlns:graph="&ns_graphs;"
	 xmlns="http://www.w3.org/2000/svg" xmlns:xlink="http://www.w3.org/1999/xlink" xmlns:a="http://ns.adobe.com/AdobeSVGViewerExtensions/3.0/"
	 x="0px" y="0px" width="600px" height="600px" viewBox="0 0 600 600" style="enable-background:new 0 0 600 600;"
	 xml:space="preserve">
<style type="text/css">
	.st0{fill:#4EC928;}
	.st1{fill:#12B3FF;}
	.st2{fill:#687CFF;}
	.st3{fill:#6536FF;}
	.st4{fill:#C06AFF;}
	.st5{fill:#C90FAA;}
	.st6{fill:#FF5A79;}
	.st7{fill:#FF6A14;}
	.st8{fill:#FFFFFF;}
	.st9{fill:none;}
	.st10{adobe-knockout:true;}
	.st11{fill:#C90FAA;stroke:#FFFFFF;stroke-width:10;stroke-linecap:round;stroke-miterlimit:10;adobe-knockout:false;}
</style>
<g id="Layer_2">
	<rect class="st4" width="600" height="600"/>
</g>
<g id="Layer_1">
	<g>
		<g>
			<g>
				<path class="st8" d="M224,540h-96c-5.5,0-10-4.5-10-10V428c0-5.5,4.5-10,10-10h96c5.5,0,10,4.5,10,10v102
					C234,535.5,229.5,540,224,540z M138,520h76v-82h-76V520z"/>
			</g>
			<g>
				<path class="st8" d="M348,540h-96c-5.5,0-10-4.5-10-10V295c0-5.5,4.5-10,10-10h96c5.5,0,10,4.5,10,10v235
					C358,535.5,353.5,540,348,540z M262,520h76V305h-76V520z"/>
			</g>
			<g>
				<path class="st8" d="M472,540h-96c-5.5,0-10-4.5-10-10V365c0-5.5,4.5-10,10-10h96c5.5,0,10,4.5,10,10v165
					C482,535.5,477.5,540,472,540z M386,520h76V375h-76V520z"/>
			</g>
		</g>
		<g>
			<g>
				<path class="st8" d="M336.9,274h-72.7c-8.3,0-12-6.8-12.5-11.3l0-0.3l0.1-42.3l12.8-0.6c0.1-3.2,0.3-7.2,0.8-9.6l0.3-1.3l0.9-1
					c24.5-28.2,18.9-50.7,17.5-55c-3.8-4.2-22.9-25.3-36.3-41.4c-16.1-19.4-14-53.1-13.9-54.5L234,52h133.2l0.3,4.7
					c0.1,1.4,2.2,35.2-13.9,54.5c-13.5,16.2-32.6,37.3-36.4,41.5c-1.4,4.3-7,26.7,17.5,55l0.9,1l0.3,1.3c0.5,2.4,0.6,6.3,0.6,9.5
					l12.7,0.3l0.3,42.6l0,0.3C348.9,267.2,345.2,274,336.9,274z M261.7,261.8c0.3,1.4,1.1,2.2,2.5,2.2h72.7c1.4,0,2.2-0.8,2.5-2.2
					l-0.2-32.2l-13-0.4l0.1-5c0.1-3,0.1-8.2-0.2-11.1c-29.8-35.3-18.4-63.8-17.9-65l0.3-0.8l0.6-0.6c0.2-0.2,21.9-24.1,36.7-41.9
					c10.4-12.5,11.7-33.5,11.7-42.8h-114c0,9.3,1.4,30.3,11.7,42.8c14.8,17.8,36.5,41.6,36.7,41.8l0.6,0.6l0.3,0.8
					c0.5,1.2,11.9,29.7-17.9,65c-0.3,2.9-0.4,8.2-0.4,11.2l0,4.8l-12.8,0.6L261.7,261.8z"/>
			</g>
			<g>
				<path class="st8" d="M339.5,126.2c-2.4,0-4.5-1.8-4.9-4.2c-0.4-2.7,1.5-5.2,4.2-5.6c21-3.1,34.2-19.3,37-26.2
					c3.2-7.8,3.5-18.9,0.6-23.2c-0.8-1.2-1.5-1.4-2.1-1.4c-1.2,0-2.8,0.1-3.6,1c-0.9,1-1,2.8-1,3.4c0.3,2.7-1.7,5.1-4.5,5.3
					c-2.7,0.2-5.1-1.8-5.4-4.5c-0.1-0.7-0.5-6.6,3.6-11c1.8-2,5.3-4.2,11.1-4.1c4.1,0.1,7.7,2.2,10.1,5.9c5.1,7.9,4.2,22.6,0.3,32.3
					c-4.6,11.4-21.5,28.9-44.7,32.3C339.9,126.2,339.7,126.2,339.5,126.2z"/>
			</g>
			<g>
				<path class="st8" d="M260.4,126.2c-0.2,0-0.5,0-0.7-0.1c-23.1-3.5-40-21-44.6-32.3c-3.9-9.7-4.9-24.4,0.3-32.3
					c2.4-3.6,6-5.7,10.1-5.9c5.9-0.2,9.3,2.1,11.1,4.1c4.1,4.4,3.7,10.3,3.6,11c-0.3,2.7-2.7,4.7-5.4,4.5c-2.7-0.3-4.7-2.6-4.5-5.3
					c0-0.6-0.1-2.5-1-3.4c-0.8-0.9-2.4-1-3.6-1c-0.6,0-1.3,0.1-2.1,1.4c-2.8,4.3-2.5,15.4,0.6,23.2c2.8,6.9,16,23.1,36.9,26.2
					c2.7,0.4,4.5,2.9,4.1,5.6C264.9,124.4,262.8,126.2,260.4,126.2z"/>
			</g>
			<g>
				<path class="st8" d="M344,230h-88c-2.8,0-5-2.2-5-5s2.2-5,5-5h88c2.8,0,5,2.2,5,5S346.8,230,344,230z"/>
			</g>
		</g>
	</g>
</g>
</svg>
