<?xml version="1.0" encoding="utf-8"?>
<!-- Generator: Adobe Illustrator 17.0.0, SVG Export Plug-In . SVG Version: 6.00 Build 0)  -->
<!DOCTYPE svg PUBLIC "-//W3C//DTD SVG 1.1//EN" "http://www.w3.org/Graphics/SVG/1.1/DTD/svg11.dtd" [
	<!ENTITY ns_flows "http://ns.adobe.com/Flows/1.0/">
	<!ENTITY ns_extend "http://ns.adobe.com/Extensibility/1.0/">
	<!ENTITY ns_ai "http://ns.adobe.com/AdobeIllustrator/10.0/">
	<!ENTITY ns_graphs "http://ns.adobe.com/Graphs/1.0/">
]>
<svg version="1.1" xmlns:x="&ns_extend;" xmlns:i="&ns_ai;" xmlns:graph="&ns_graphs;"
	 xmlns="http://www.w3.org/2000/svg" xmlns:xlink="http://www.w3.org/1999/xlink" xmlns:a="http://ns.adobe.com/AdobeSVGViewerExtensions/3.0/"
	 x="0px" y="0px" width="600px" height="600px" viewBox="0 0 600 600" style="enable-background:new 0 0 600 600;"
	 xml:space="preserve">
<style type="text/css">
	.st0{fill:#4EC928;}
	.st1{fill:#12B3FF;}
	.st2{fill:#687CFF;}
	.st3{fill:#6536FF;}
	.st4{fill:#C06AFF;}
	.st5{fill:#C90FAA;}
	.st6{fill:#FF5A79;}
	.st7{fill:#FF6A14;}
	.st8{fill:#FFFFFF;}
	.st9{fill:none;}
	.st10{adobe-knockout:true;}
	.st11{fill:#C90FAA;stroke:#FFFFFF;stroke-width:10;stroke-linecap:round;stroke-miterlimit:10;adobe-knockout:false;}
</style>
<g id="Layer_2">
	<rect class="st1" width="600" height="600"/>
</g>
<g id="Layer_1">
	<g>
		<g>
			<g>
				<path class="st8" d="M370,284h-23v-33.2c0-25.6-20.9-46.4-46.5-46.4S254,225.2,254,250.9V284h-24c-5.5,0-10,4.5-10,10v120
					c0,5.5,4.5,10,10,10h140c5.5,0,10-4.5,10-10V294C380,288.5,375.5,284,370,284z M274,250.9c0-14.7,11.9-26.6,26.5-26.6
					s26.5,11.9,26.5,26.4V284h-53V250.9z M360,404H240V304h120V404z"/>
			</g>
			<g>
				<path class="st8" d="M290,357.6V374c0,5.5,4.5,10,10,10s10-4.5,10-10v-16.4c3.4-2.9,5.6-7.1,5.6-11.9c0-8.6-7-15.5-15.5-15.5
					c-8.6,0-15.5,7-15.5,15.5C284.5,350.4,286.6,354.7,290,357.6z"/>
			</g>
		</g>
		<g>
			<g>
				<path class="st8" d="M101,432c-5.5,0-10-4.5-10-10V176c0-5.5,4.5-10,10-10h399c5.5,0,10,4.5,10,10v244c0,5.5-4.5,10-10,10
					s-10-4.5-10-10V186H111v236C111,427.5,106.5,432,101,432z"/>
			</g>
			<g>
				<polygon class="st8" points="417.5,377 367,377 367,367 409.5,367 437.9,238.2 491.6,176.9 499.1,183.5 447.1,242.9 				"/>
			</g>
			<g>
				<polygon class="st8" points="230,377 186.2,377 150.8,237.4 104.1,190.9 111.2,183.8 159.8,232.3 194,367 230,367 				"/>
			</g>
			<g>
				
					<rect x="408.4" y="388.5" transform="matrix(0.8923 0.4514 -0.4514 0.8923 226.7321 -163.469)" class="st8" width="95.3" height="10"/>
			</g>
			<g>
				
					<rect x="139.8" y="343.1" transform="matrix(0.4206 0.9072 -0.9072 0.4206 440.4406 96.3317)" class="st8" width="10" height="99.9"/>
			</g>
		</g>
	</g>
</g>
</svg>
