<?xml version="1.0" encoding="utf-8"?>
<!-- Generator: Adobe Illustrator 17.0.0, SVG Export Plug-In . SVG Version: 6.00 Build 0)  -->
<!DOCTYPE svg PUBLIC "-//W3C//DTD SVG 1.1//EN" "http://www.w3.org/Graphics/SVG/1.1/DTD/svg11.dtd" [
	<!ENTITY ns_flows "http://ns.adobe.com/Flows/1.0/">
	<!ENTITY ns_extend "http://ns.adobe.com/Extensibility/1.0/">
	<!ENTITY ns_ai "http://ns.adobe.com/AdobeIllustrator/10.0/">
	<!ENTITY ns_graphs "http://ns.adobe.com/Graphs/1.0/">
]>
<svg version="1.1" xmlns:x="&ns_extend;" xmlns:i="&ns_ai;" xmlns:graph="&ns_graphs;"
	 xmlns="http://www.w3.org/2000/svg" xmlns:xlink="http://www.w3.org/1999/xlink" xmlns:a="http://ns.adobe.com/AdobeSVGViewerExtensions/3.0/"
	 x="0px" y="0px" width="600px" height="600px" viewBox="0 0 600 600" style="enable-background:new 0 0 600 600;"
	 xml:space="preserve">
<style type="text/css">
	.st0{fill:#4EC928;}
	.st1{fill:#12B3FF;}
	.st2{fill:#687CFF;}
	.st3{fill:#6536FF;}
	.st4{fill:#C06AFF;}
	.st5{fill:#C90FAA;}
	.st6{fill:#FF5A79;}
	.st7{fill:#FF6A14;}
	.st8{fill:#FFFFFF;}
	.st9{fill:none;}
	.st10{adobe-knockout:true;}
	.st11{fill:#C90FAA;stroke:#FFFFFF;stroke-width:10;stroke-linecap:round;stroke-miterlimit:10;adobe-knockout:false;}
</style>
<g id="Layer_2">
	<rect class="st3" width="600" height="600"/>
</g>
<g id="Layer_1">
	<g>
		<g>
			<g>
				<g>
					<path class="st8" d="M83,529V389c0-8.3,6.7-15,15-15s15,6.7,15,15v140C113,537.3,83,537.3,83,529z"/>
				</g>
			</g>
			<g>
				<g>
					<path class="st8" d="M187,528V283c0-8.3,6.7-15,15-15s15,6.7,15,15v245C217,536.3,187,536.3,187,528z"/>
				</g>
			</g>
			<g>
				<g>
					<path class="st8" d="M291,528V223c0-8.3,6.7-15,15-15s15,6.7,15,15v305C321,536.3,291,536.3,291,528z"/>
				</g>
			</g>
			<g>
				<g>
					<path class="st8" d="M395,530.4V440c0-8.3,6.7-15,15-15s15,6.7,15,15l-0.2,89.9C424.8,538.2,395,538.6,395,530.4z"/>
				</g>
			</g>
			<g>
				<g>
					<path class="st8" d="M499,530.8V334c0-8.3,6.7-15,15-15s15,6.7,15,15v195.9C529,538.2,499,539.1,499,530.8z"/>
				</g>
			</g>
		</g>
		<g>
			<g>
				<g>
					<path class="st8" d="M262.3,94.9c8.3-9.1,19.1-15.2,31.3-17.5c31-6,61.1,14.3,67.2,45.3c3.5,17.7-1.8,36.3-14,49.7
						c-8.3,9.1-19.1,15.2-31.3,17.5c-15,2.9-30.3-0.2-43-8.7c-12.7-8.6-21.3-21.5-24.2-36.6C244.9,126.8,250.1,108.2,262.3,94.9z
						 M340.4,166.5c10.4-11.3,14.8-27.1,11.9-42.2c-5.1-26.3-30.7-43.6-57.1-38.5c-10.3,2-19.5,7.2-26.6,14.9
						c-10.4,11.3-14.8,27.1-11.9,42.2c2.5,12.8,9.8,23.8,20.6,31.1c10.8,7.3,23.7,9.9,36.5,7.4C324.2,179.3,333.4,174.2,340.4,166.5
						z"/>
				</g>
			</g>
			<g>
				<g>
					<polygon class="st8" points="351.2,158.4 341.9,137.2 355.7,118.6 					"/>
				</g>
			</g>
			<g>
				<g>
					<polygon class="st8" points="255.2,114.6 277.3,107.8 282.5,85.2 					"/>
				</g>
			</g>
			<g>
				<g>
					<polygon class="st8" points="293.5,185.5 311,170.4 332.9,178 					"/>
				</g>
			</g>
			<g>
				<g>
					<polygon class="st8" points="305.8,80.3 319.2,99 342.3,96.7 					"/>
				</g>
			</g>
			<g>
				<g>
					<polygon class="st8" points="271.6,175 271.9,151.9 252,140 					"/>
				</g>
			</g>
			<g>
				<g>
					<polygon class="st8" points="314.1,111.5 327.3,135.2 308.7,155 284.1,143.6 287.5,116.7 					"/>
				</g>
			</g>
			<g>
				<g>
					
						<rect x="307.6" y="145.4" transform="matrix(-0.9855 0.1698 -0.1698 -0.9855 642.6171 269.694)" class="st8" width="4.3" height="33.8"/>
				</g>
			</g>
			<g>
				<g>
					
						<rect x="316.7" y="134" transform="matrix(-0.9949 -0.101 0.101 -0.9949 651.6956 305.3839)" class="st8" width="33.8" height="4.3"/>
				</g>
			</g>
			<g>
				<g>
					
						<rect x="314.3" y="89.8" transform="matrix(-0.9162 -0.4007 0.4007 -0.9162 563.6833 331.1747)" class="st8" width="4.3" height="33.8"/>
				</g>
			</g>
			<g>
				<g>
					
						<rect x="266.6" y="110.7" transform="matrix(-0.746 -0.666 0.666 -0.746 419.8041 385.817)" class="st8" width="33.8" height="4.3"/>
				</g>
			</g>
			<g>
				<g>
					
						<rect x="261.9" y="145.2" transform="matrix(-0.8444 0.5357 -0.5357 -0.8444 593.2472 122.4105)" class="st8" width="33.8" height="4.3"/>
				</g>
			</g>
		</g>
		<g>
			<path class="st8" d="M561,537H45c-2.8,0-5-2.2-5-5s2.2-5,5-5h516c2.8,0,5,2.2,5,5S563.8,537,561,537z"/>
		</g>
	</g>
</g>
</svg>
