<?xml version="1.0" encoding="utf-8"?>
<!-- Generator: Adobe Illustrator 17.0.0, SVG Export Plug-In . SVG Version: 6.00 Build 0)  -->
<!DOCTYPE svg PUBLIC "-//W3C//DTD SVG 1.1//EN" "http://www.w3.org/Graphics/SVG/1.1/DTD/svg11.dtd" [
	<!ENTITY ns_flows "http://ns.adobe.com/Flows/1.0/">
	<!ENTITY ns_extend "http://ns.adobe.com/Extensibility/1.0/">
	<!ENTITY ns_ai "http://ns.adobe.com/AdobeIllustrator/10.0/">
	<!ENTITY ns_graphs "http://ns.adobe.com/Graphs/1.0/">
]>
<svg version="1.1" xmlns:x="&ns_extend;" xmlns:i="&ns_ai;" xmlns:graph="&ns_graphs;"
	 xmlns="http://www.w3.org/2000/svg" xmlns:xlink="http://www.w3.org/1999/xlink" xmlns:a="http://ns.adobe.com/AdobeSVGViewerExtensions/3.0/"
	 x="0px" y="0px" width="600px" height="600px" viewBox="0 0 600 600" style="enable-background:new 0 0 600 600;"
	 xml:space="preserve">
<style type="text/css">
	.st0{fill:#4EC928;}
	.st1{fill:#12B3FF;}
	.st2{fill:#687CFF;}
	.st3{fill:#6536FF;}
	.st4{fill:#C06AFF;}
	.st5{fill:#C90FAA;}
	.st6{fill:#FF5A79;}
	.st7{fill:#FF6A14;}
	.st8{fill:#FFFFFF;}
	.st9{fill:none;}
	.st10{adobe-knockout:true;}
	.st11{fill:#C90FAA;stroke:#FFFFFF;stroke-width:10;stroke-linecap:round;stroke-miterlimit:10;adobe-knockout:false;}
</style>
<g id="Layer_2">
	<rect class="st2" width="600" height="600"/>
</g>
<g id="Layer_1">
	<g>
		<g>
			<path class="st8" d="M508.5,423.3c-0.2,0-0.4,0-0.6,0c-25.2-2.2-87.7-35.8-113.4-50.2c-40.1-22.4-86.7-51.3-97.9-63.3
				c-8.6-9.1-21.6-19-35.4-29.5c-15.8-12-33.7-25.5-47.8-40.3c-10.8-11.3-13.3-23.7-7.5-36.8c4.7-10.5,14-20,23.8-30
				c5.5-5.7,11.3-11.5,15.9-17.4c13.8-17.7,27.6-20.3,34.6-20.3c6.7,0,13.9,2.2,13.9,8.5c0,2.7-1.6,5.2-4.2,6.3
				c-0.9,0.4-1.9,0.6-3,0.6c-1.2,0-4.7,0-8.1,4.9c-4.7,6.6-5.8,16.9-5.1,19.9c2.8,3.1,18.1,10.4,30.1,10.4c1.2,0,2.4-0.1,3.4-0.2
				c3.2-0.5,8.9-1.5,15.4-2.7c21.5-4,53.9-9.9,70.8-9.9c3.8,0,14.7,0,16.5,7.7c0.8,1.6,1.8,3.9,3.2,6.8
				c32.7,70.1,51.8,109.1,57,115.8c3.8,4.9,14.7,15.7,26.2,27.1c16,15.8,32.5,32.1,39.1,41.5c5.9,8.2,6,19.2,0.4,30.1
				C528.7,416,516.7,423.3,508.5,423.3z M263.2,156.7c-2.2,2-4.6,4.4-7,7.5c-5,6.4-11,12.6-16.8,18.5c-21.9,22.4-30,33.7-16.2,48
				c13.4,14,30.1,26.6,46.2,38.8c14.3,10.8,27.7,21,37.1,30.9c8.8,9.3,50.4,36,94.7,60.8c50.8,28.4,91.9,46.9,107.6,48.5
				c3.5-0.2,10.9-5.5,15.1-13.7c1.9-3.7,4.5-10.6,0.6-16.1c-6-8.4-22.8-25-37.6-39.7c-12.4-12.2-23.1-22.8-27.4-28.4
				c-7.7-10-35.4-68.5-58.6-118.3c-1.2-2.6-2.2-4.8-3-6.4c-0.9-0.1-2.3-0.2-4.5-0.2c-15.7,0-48.6,6.1-68.3,9.7
				c-6.9,1.3-12.3,2.3-15.8,2.8c-1.7,0.3-3.6,0.4-5.5,0.4c-15,0-36.9-8.9-41.8-17.1C258.8,177.4,259.5,166.2,263.2,156.7z"/>
		</g>
		<g>
			<path class="st8" d="M308.2,192.7c-3.4,0-6.3-2.6-6.7-6c-2.9-26-9.4-32.3-12-33.8c-2.1-1.2-3.7-0.5-4-0.4
				c0.1-0.1,0.2-0.1,0.2-0.1l-6.6-11.8c0.8-0.4,8-4.2,16.4,0.1c10.4,5.4,16.8,19.9,19.5,44.4c0.4,3.7-2.3,7-6,7.5
				C308.7,192.7,308.5,192.7,308.2,192.7z"/>
		</g>
		<g>
			<path class="st8" d="M212.3,269.2c-2.1,0-4.2-0.7-6.1-2.1c-4.4-3.4-5.2-9.6-1.9-14l8.8-11.6c3.4-4.4,9.6-5.2,14-1.9
				c4.4,3.4,5.2,9.6,1.9,14l-8.8,11.6C218.3,267.8,215.3,269.2,212.3,269.2z"/>
		</g>
		<g>
			<path class="st8" d="M363.2,379.3c-1.7,0-3.5-0.5-5.1-1.4c-4.7-2.8-6.3-9-3.5-13.7l7.5-12.6c2.8-4.7,9-6.3,13.7-3.5
				c4.7,2.8,6.3,9,3.5,13.7l-7.5,12.6C369.9,377.5,366.6,379.3,363.2,379.3z"/>
		</g>
		<g>
			<path class="st8" d="M424.2,412.5c-1.6,0-3.3-0.4-4.8-1.2c-4.8-2.7-6.6-8.7-3.9-13.6l7.4-13.5c2.7-4.8,8.7-6.6,13.6-3.9
				c4.8,2.7,6.6,8.7,3.9,13.6l-7.4,13.5C431.2,410.6,427.8,412.5,424.2,412.5z"/>
		</g>
		<g>
			<path class="st8" d="M476.4,434.5c-1.2,0-2.5-0.2-3.7-0.7c-5.1-2.1-7.6-7.9-5.6-13l4.4-11.1c2.1-5.1,7.9-7.6,13-5.6
				c5.1,2.1,7.6,7.9,5.6,13l-4.4,11.1C484.2,432.2,480.4,434.5,476.4,434.5z"/>
		</g>
		<g>
			<path class="st8" d="M260.3,308.2c-2,0-4-0.6-5.7-1.8c-4.5-3.2-5.6-9.4-2.5-13.9l9.8-14.1c3.2-4.5,9.4-5.6,13.9-2.5
				c4.5,3.2,5.6,9.4,2.5,13.9l-9.8,14.1C266.6,306.7,263.5,308.2,260.3,308.2z"/>
		</g>
		<g>
			<path class="st8" d="M420.7,226.4c-0.3,0-0.5,0-0.8,0l-57.4-6.8c-3.7-0.4-6.4-3.8-5.9-7.5c0.4-3.7,3.8-6.3,7.5-5.9l57.4,6.8
				c3.7,0.4,6.4,3.8,5.9,7.5C427,223.9,424.1,226.4,420.7,226.4z"/>
		</g>
		<g>
			<path class="st8" d="M427.5,253.4c-0.3,0-0.5,0-0.8,0l-57.4-6.8c-3.7-0.4-6.4-3.8-5.9-7.5c0.4-3.7,3.8-6.3,7.5-5.9l57.4,6.8
				c3.7,0.4,6.4,3.8,5.9,7.5C433.8,250.9,430.9,253.4,427.5,253.4z"/>
		</g>
		<g>
			<path class="st8" d="M446.6,282.7c-0.2,0-0.5,0-0.7,0l-61.3-6.7c-3.7-0.4-6.4-3.7-6-7.4s3.7-6.4,7.4-6l61.3,6.7
				c3.7,0.4,6.4,3.7,6,7.4C452.9,280.1,450,282.7,446.6,282.7z"/>
		</g>
		<g>
			<path class="st8" d="M462.4,310.4c-0.3,0-0.6,0-0.9-0.1l-57.5-7.5c-3.7-0.5-6.3-3.9-5.8-7.6c0.5-3.7,3.9-6.3,7.6-5.8l57.5,7.5
				c3.7,0.5,6.3,3.9,5.8,7.6C468.6,307.9,465.7,310.4,462.4,310.4z"/>
		</g>
		<g>
			<path class="st8" d="M157.2,408.7c-24.5,0-51.1-4-70.6-17.7c-14.8-10.4-23.4-24.9-25.8-43.3c-2.5-20,1.9-37.3,13.2-51.6
				c23.6-29.7,68.7-35.3,73.7-35.8c20.8-2.2,58.6-9.9,59-10c3.7-0.7,7.2,1.6,8,5.2c0.8,3.7-1.6,7.2-5.2,8c-1.6,0.3-38.8,8-60.3,10.2
				c-4.5,0.5-44.5,5.3-64.6,30.8c-9,11.3-12.5,25.3-10.4,41.5c1.9,14.6,8.5,25.7,20.1,33.9c28.4,19.9,80.7,17.6,120.2,8.7
				c56.2-12.6,109.9-17.1,133.6-11.2c14.4,3.6,37.4-0.7,52.7-6.3c3.5-1.3,7.4,0.5,8.7,4c1.3,3.5-0.5,7.4-4,8.7
				c-26.3,9.6-49.1,9.6-60.6,6.7c-21.5-5.4-73.9-0.7-127.4,11.3C206.9,404.1,183.2,408.7,157.2,408.7z"/>
		</g>
		<g>
			<path class="st8" d="M191.2,382.8c-0.6,0-1.1-0.1-1.7-0.2c-3.6-0.9-5.8-4.6-4.8-8.2l23.6-90c0.9-3.6,4.6-5.8,8.2-4.8
				c3.6,0.9,5.8,4.6,4.8,8.2l-23.6,90C197,380.8,194.2,382.8,191.2,382.8z"/>
		</g>
		<g>
			<g>
				<path class="st8" d="M125,375.4c-0.5,0-1-0.1-1.5-0.2c-15.7-3.6-26.3-7.3-26.7-7.5c-3.5-1.2-5.4-5.1-4.1-8.6s5.1-5.4,8.6-4.1
					c0.2,0.1,10.4,3.6,25.3,7.1c3.6,0.8,5.9,4.5,5.1,8.1C130.8,373.3,128.1,375.4,125,375.4z"/>
			</g>
			<g>
				<path class="st8" d="M180.1,382.4c-9.8,0-20.4-0.8-31.5-2.4c-3.7-0.5-6.2-4-5.7-7.6c0.5-3.7,4-6.3,7.6-5.7c18,2.6,34.3,3,48,1.1
					c3.7-0.5,7.1,2.1,7.6,5.8c0.5,3.7-2.1,7.1-5.8,7.6C194,382,187.2,382.4,180.1,382.4z M223.6,375.1c-2.9,0-5.5-1.8-6.4-4.7
					c-1.1-3.6,0.9-7.3,4.4-8.5c17.4-5.5,34.1-9.4,49.7-11.5c3.7-0.5,7.1,2,7.6,5.7c0.5,3.7-2.1,7.1-5.7,7.6
					c-14.9,2.1-30.9,5.8-47.6,11.1C224.9,375,224.2,375.1,223.6,375.1z"/>
			</g>
			<g>
				<path class="st8" d="M324,363.8c-0.4,0-0.8,0-1.3-0.1c-7.6-1.4-16.1-2.1-25.5-1.9c-3.7,0.1-6.8-2.9-6.9-6.6
					c-0.1-3.7,2.9-6.8,6.6-6.9c10.3-0.2,19.8,0.5,28.3,2.2c3.7,0.7,6.1,4.2,5.4,7.9C330,361.5,327.2,363.8,324,363.8z"/>
			</g>
		</g>
		<g>
			<path class="st8" d="M96.7,332.2c-1.5,0-3.1-0.5-4.3-1.6c-2.9-2.4-3.2-6.7-0.8-9.5c0.8-1,20.4-23.9,48.5-30.8
				c3.6-0.9,7.3,1.3,8.2,4.9c0.9,3.6-1.3,7.3-4.9,8.2c-23.9,5.9-41.2,26.2-41.4,26.4C100.6,331.3,98.7,332.2,96.7,332.2z
				 M168.5,300.2c-3.4,0-6.3-2.5-6.7-5.9c-0.5-3.7,2.2-7.1,5.9-7.5c19.9-2.5,41.6-6.7,52.8-8.9c3.7-0.7,7.2,1.6,7.9,5.3
				s-1.6,7.2-5.3,7.9c-11.4,2.3-33.5,6.5-53.8,9.1C169.1,300.2,168.8,300.2,168.5,300.2z"/>
		</g>
	</g>
</g>
</svg>
