<?xml version="1.0" encoding="utf-8"?>
<!-- Generator: Adobe Illustrator 17.0.0, SVG Export Plug-In . SVG Version: 6.00 Build 0)  -->
<!DOCTYPE svg PUBLIC "-//W3C//DTD SVG 1.1//EN" "http://www.w3.org/Graphics/SVG/1.1/DTD/svg11.dtd" [
	<!ENTITY ns_flows "http://ns.adobe.com/Flows/1.0/">
	<!ENTITY ns_extend "http://ns.adobe.com/Extensibility/1.0/">
	<!ENTITY ns_ai "http://ns.adobe.com/AdobeIllustrator/10.0/">
	<!ENTITY ns_graphs "http://ns.adobe.com/Graphs/1.0/">
]>
<svg version="1.1" xmlns:x="&ns_extend;" xmlns:i="&ns_ai;" xmlns:graph="&ns_graphs;"
	 xmlns="http://www.w3.org/2000/svg" xmlns:xlink="http://www.w3.org/1999/xlink" xmlns:a="http://ns.adobe.com/AdobeSVGViewerExtensions/3.0/"
	 x="0px" y="0px" width="600px" height="600px" viewBox="0 0 600 600" style="enable-background:new 0 0 600 600;"
	 xml:space="preserve">
<style type="text/css">
	.st0{fill:#4EC928;}
	.st1{fill:#12B3FF;}
	.st2{fill:#687CFF;}
	.st3{fill:#6536FF;}
	.st4{fill:#C06AFF;}
	.st5{fill:#C90FAA;}
	.st6{fill:#FF5A79;}
	.st7{fill:#FF6A14;}
	.st8{fill:#FFFFFF;}
	.st9{fill:none;}
	.st10{adobe-knockout:true;}
	.st11{fill:#C90FAA;stroke:#FFFFFF;stroke-width:10;stroke-linecap:round;stroke-miterlimit:10;adobe-knockout:false;}
</style>
<g id="Layer_2">
	<rect class="st7" width="600" height="600"/>
</g>
<g id="Layer_1">
	<g>
		<g>
			<g>
				<path class="st8" d="M295.5,318.9c-27.1,0-53-8.6-74.9-24.7C164.8,252.9,153,173.8,194.3,118c23.7-31.9,61.5-51,101.3-51
					c27.1,0,53,8.6,74.9,24.7c27,20,44.7,49.4,49.6,82.7c5,33.3-3.3,66.5-23.4,93.5C373.2,299.9,335.3,318.9,295.5,318.9z
					 M295.7,85.9c-33.8,0-66,16.2-86.1,43.3c-35.1,47.4-25.1,114.6,22.3,149.7c18.6,13.8,40.6,21,63.6,21c33.8,0,66-16.2,86.1-43.3
					c17-23,24.1-51.2,19.8-79.5c-4.2-28.3-19.2-53.2-42.2-70.2C340.7,93.2,318.7,85.9,295.7,85.9z"/>
			</g>
		</g>
		<g>
			<g>
				<polygon class="st8" points="266.6,80.5 246.1,127 195.4,132.4 				"/>
			</g>
		</g>
		<g>
			<g>
				<polygon class="st8" points="338,301.3 294.3,275.5 249.9,300.6 				"/>
			</g>
		</g>
		<g>
			<g>
				<polygon class="st8" points="396.3,133.7 345.8,127.9 325.5,81.1 				"/>
			</g>
		</g>
		<g>
			<g>
				<polygon class="st8" points="207.3,270.2 217.8,220.5 179.7,186.5 				"/>
			</g>
		</g>
		<g>
			<g>
				<polygon class="st8" points="411.7,185 373.8,218.7 384.2,268.6 				"/>
			</g>
		</g>
		<g>
			<g>
				<polygon class="st8" points="245.6,210.2 264.5,153.7 324.2,154.3 342.2,211.2 293.7,245.8 				"/>
			</g>
		</g>
		<g>
			<g>
				
					<rect x="329.8" y="104.7" transform="matrix(0.7907 0.6122 -0.6122 0.7907 156.8445 -175.1088)" class="st8" width="9.5" height="74.3"/>
			</g>
		</g>
		<g>
			<g>
				
					<rect x="219.6" y="137.3" transform="matrix(0.5973 0.802 -0.802 0.5973 217.3194 -148.7374)" class="st8" width="74.3" height="9.5"/>
			</g>
		</g>
		<g>
			<g>
				
					<rect x="229.5" y="176.5" transform="matrix(0.323 0.9464 -0.9464 0.323 360.7612 -77.0523)" class="st8" width="9.5" height="74.3"/>
			</g>
		</g>
		<g>
			<g>
				
					<rect x="256.1" y="253.2" transform="matrix(1.245915e-02 0.9999 -0.9999 1.245915e-02 547.549 -38.516)" class="st8" width="74.3" height="9.5"/>
			</g>
		</g>
		<g>
			<g>
				
					<rect x="318.9" y="209.5" transform="matrix(0.9653 0.2612 -0.2612 0.9653 68.3125 -85.5766)" class="st8" width="74.4" height="9.5"/>
			</g>
		</g>
	</g>
	<g>
		<path class="st7" d="M229.6,280.6c-1.1,3.3-17.6,152.6-19.1,166.4c-1.3,11.7,7.7,19.3,32.1,22.1c26.7,3.1,55.1,13,63.8,5.3
			c0,0,12.5-11.4,14-20.6s7.6-171,7.6-171"/>
		<path class="st8" d="M295.5,482.3c-7.7,0-17.3-1.9-28.3-4c-8.3-1.6-16.8-3.3-25.2-4.2c-9.7-1.1-39-4.5-36.5-27.7l0.7-6.3
			c17.4-157.6,18.2-159.9,18.6-161.2l9.5,3.2c0-0.1,0.1-0.2,0.1-0.3c-0.5,2.2-3.5,25.9-18.3,159.4l-0.7,6.3
			c-0.4,3.6-1.5,13.3,27.7,16.6c8.8,1,17.5,2.7,26,4.3c14,2.7,29.8,5.8,33.9,2.2c4.3-4,11.5-12.3,12.4-17.7
			c1.1-6.5,5.1-105.4,7.6-170.3l10,0.4c-0.6,16.6-6.2,162.4-7.7,171.6c-1.8,10.6-14.2,22.2-15.6,23.5l-0.1,0.1
			C306.3,481.2,301.5,482.3,295.5,482.3z"/>
	</g>
	<g>
		<path class="st7" d="M284.7,222.9c0,0-100.8-18.3-107.4-22.6c-6.6-4.4-27.8-6.6-27.8,27s8.8,46,31.4,54.1s97.2,16.8,109.6,13.9"/>
		<path class="st8" d="M282.2,300.8c-25.3,0-83.6-7.9-102.8-14.7c-25.7-9.1-34.7-24.5-34.7-58.8c0-20.4,7.5-28.7,13.8-32
			c7.4-4,16.5-2.6,21.7,0.8c5.6,2.8,58.5,13.4,105.6,21.9l-1.8,9.8c-30.6-5.5-102.6-18.9-109.3-23.4c-2.2-1.5-7.3-2.6-11.5-0.3
			c-5.5,3-8.5,11-8.5,23.2c0,33.5,9.1,42.6,28.1,49.4c23.5,8.3,96.3,16.2,106.8,13.7l2.3,9.7C289.7,300.6,286.4,300.8,282.2,300.8z"
			/>
	</g>
	<g>
		<path class="st7" d="M373.9,222.1c0,0,20.5-5.8,33.6-12.4c13.2-6.6,23.4-1.5,24.1,16.1c0.7,17.5,0.7,30,1.5,39.5
			c-2.9,13.9-4.4,24.8-44.6,30"/>
		<path class="st8" d="M389.1,300.2l-1.3-9.9c35.8-4.6,37.5-12.8,40.1-25.2l0-0.2c-0.4-5.4-0.6-11.6-0.8-19.4
			c-0.2-5.7-0.3-12.2-0.6-19.5c-0.3-6.7-2.1-11.3-5.1-13.1c-2.7-1.6-6.9-1.1-11.7,1.3c-13.4,6.7-33.6,12.5-34.5,12.8l-2.7-9.6
			c0.2-0.1,20.2-5.8,32.7-12.1c8-4,15.6-4.3,21.3-1c4.3,2.5,9.5,8.3,10,21.3c0.3,7.4,0.5,13.9,0.6,19.7c0.2,8,0.4,14.2,0.8,19.6
			l0.1,0.7l-0.3,1.6C434.8,281.3,432,294.7,389.1,300.2z"/>
	</g>
	<g>
		<path class="st7" d="M286.2,237.5L311,497.6c0,0-1.9,24,36.1,18.1c38-5.8,39.1-3.1,50.1-5c11-1.9,16.1-7.3,13.2-32.1
			c-2.9-24.8-31.6-242.3-33.7-252.9c-2.1-10.6-7.2-13-45.2-15.9C300.9,207.4,283.3,212.6,286.2,237.5z"/>
		<path class="st8" d="M336.1,521.6C336.1,521.6,336.1,521.6,336.1,521.6c-10.8,0-19-2.9-24.3-8.6c-5.7-6.1-5.9-13.3-5.9-15.3
			L281.2,238c-1.2-10.1,0.8-18.1,5.7-23.7c6.1-6.9,16.5-10.1,32.5-10.1c3.8,0,7.8,0.2,12.4,0.5c37,2.8,46.8,5.2,49.7,19.9
			c2.2,11,31,230.3,33.7,253.3c2.9,24.8-1.8,35-17.3,37.7c-4.4,0.7-7.3,0.8-11.1,0.9c-6.1,0.2-15.3,0.4-39.1,4.1
			C343.7,521.3,339.7,521.6,336.1,521.6z M319.5,214.2c-12.8,0-21,2.2-25,6.8c-3.1,3.4-4.1,8.6-3.3,15.9l0,0.1L316,497.5l0,0.4
			c0,0.1-0.2,4.7,3.3,8.4c3.3,3.5,9,5.3,16.8,5.3h0c3.1,0,6.6-0.3,10.3-0.9c24.4-3.8,34-4,40.4-4.2c3.6-0.1,6-0.2,9.6-0.8
			c6.4-1.1,11.9-2,9-26.6c-3.5-30.1-31.7-242.8-33.6-252.5c-1.3-6.3-1.8-9-40.7-11.9C326.8,214.4,323,214.2,319.5,214.2z"/>
	</g>
	<g class="st10">
		<line class="st11" x1="403.6" y1="510.4" x2="411.3" y2="535.5"/>
		<line class="st11" x1="390.1" y1="511.6" x2="396.4" y2="536.6"/>
		<line class="st11" x1="376.7" y1="512.9" x2="381.5" y2="537.6"/>
		<line class="st11" x1="363.2" y1="514.2" x2="366.6" y2="538.6"/>
		<line class="st11" x1="349.7" y1="515.5" x2="351.7" y2="539.6"/>
		<line class="st11" x1="336.2" y1="516.7" x2="336.9" y2="540.6"/>
		<line class="st11" x1="322.7" y1="518" x2="322" y2="541.7"/>
	</g>
	<g class="st10">
		<line class="st11" x1="298.3" y1="479.5" x2="298.8" y2="505.8"/>
		<line class="st11" x1="285" y1="477.1" x2="284.2" y2="502.7"/>
		<line class="st11" x1="271.7" y1="474.6" x2="269.6" y2="499.6"/>
		<line class="st11" x1="258.4" y1="472.1" x2="255" y2="496.5"/>
		<line class="st11" x1="245.1" y1="469.6" x2="240.4" y2="493.4"/>
		<line class="st11" x1="231.8" y1="467.1" x2="225.8" y2="490.3"/>
		<line class="st11" x1="218.5" y1="464.6" x2="211.2" y2="487.2"/>
	</g>
</g>
</svg>
