<?xml version="1.0" encoding="utf-8"?>
<!-- Generator: Adobe Illustrator 17.0.0, SVG Export Plug-In . SVG Version: 6.00 Build 0)  -->
<!DOCTYPE svg PUBLIC "-//W3C//DTD SVG 1.1//EN" "http://www.w3.org/Graphics/SVG/1.1/DTD/svg11.dtd" [
	<!ENTITY ns_flows "http://ns.adobe.com/Flows/1.0/">
	<!ENTITY ns_extend "http://ns.adobe.com/Extensibility/1.0/">
	<!ENTITY ns_ai "http://ns.adobe.com/AdobeIllustrator/10.0/">
	<!ENTITY ns_graphs "http://ns.adobe.com/Graphs/1.0/">
]>
<svg version="1.1" xmlns:x="&ns_extend;" xmlns:i="&ns_ai;" xmlns:graph="&ns_graphs;"
	 xmlns="http://www.w3.org/2000/svg" xmlns:xlink="http://www.w3.org/1999/xlink" xmlns:a="http://ns.adobe.com/AdobeSVGViewerExtensions/3.0/"
	 x="0px" y="0px" width="600px" height="600px" viewBox="0 0 600 600" style="enable-background:new 0 0 600 600;"
	 xml:space="preserve">
<style type="text/css">
	.st0{fill:#4EC928;}
	.st1{fill:#12B3FF;}
	.st2{fill:#687CFF;}
	.st3{fill:#6536FF;}
	.st4{fill:#C06AFF;}
	.st5{fill:#C90FAA;}
	.st6{fill:#FF5A79;}
	.st7{fill:#FF6A14;}
	.st8{fill:#FFFFFF;}
	.st9{fill:none;}
	.st10{adobe-knockout:true;}
	.st11{fill:#C90FAA;stroke:#FFFFFF;stroke-width:10;stroke-linecap:round;stroke-miterlimit:10;adobe-knockout:false;}
</style>
<g id="Layer_2">
	<rect class="st2" width="600" height="600"/>
</g>
<g id="Layer_1">
	<g>
		<g>
			<path class="st8" d="M147.6,446.3c-30.8,0-52.2-10.1-60-16.1c-2.4-1.8-3.9-4.7-3.9-7.7c-0.5-22.8-2.9-62.9-7.2-75.1
				C71.9,338.7,33.2,262,49,158.2c0.1-0.7,0.3-1.4,0.6-2.1c5-12.9,15.9-20.9,28.4-20.9c0.6,0,1.3,0,1.9,0.1
				c4.5-15,17.9-26,30.7-27.7c0.9-0.1,1.8-0.2,2.7-0.2c7.2,0,13.6,3.7,18.6,8.1c5.7-7.7,14.1-14.7,25.6-15.3
				c9.1-0.5,16.3,2.1,21.6,7.5c4.6,4.8,7.4,11.3,8.5,20.2c4.1-11.2,14.7-18.7,27.5-18.7c8.9,0,17.1,3.7,22.1,10
				c4.6,5.8,6.1,13.4,4.3,21.4c-5.2,22-17.1,112-17.2,112.9c0,0.1,0,0.2,0,0.2c-0.3,2.2-0.1,5.2,0.3,6.6c0.7,0,2.2-0.3,4.7-1.3
				c19.2-7.9,25.2-11.7,26-12.2c0.3-0.3,0.5-0.3,0.9-0.6c1.2-0.7,7.8-4.3,15.7-4.3c9.4,0,17.1,5.2,21.2,14.2
				c0.5,1.2,1.1,2.3,1.6,3.4c5.5,11.9,11.8,25.5-8.2,37.5c-10.7,6.4-50.6,36-64,45.9l4.5,62.7c0.1,1.7-0.2,3.4-0.9,5
				c-0.6,1.2-15.1,30.7-64.4,35.2C156.9,446,152.2,446.3,147.6,446.3z M103.5,416.6c7.8,4.2,23.2,9.6,44.1,9.6c4,0,8-0.2,12.1-0.6
				c30.7-2.8,43.4-16.9,47-22l-4.7-65c-0.2-3.4,1.3-6.7,4-8.7c2.3-1.7,56.4-42.1,70.1-50.3c2.5-1.5,3.6-2.5,4-2.9
				c-0.3-1.7-2.1-5.7-3.7-9c-0.5-1.1-1.1-2.3-1.6-3.5c-1.1-2.4-2-2.4-3-2.4c-2.1,0-4.6,1.1-5.4,1.5c-2.4,1.6-9.9,6-29.6,14.1
				c-4.6,1.9-8.7,2.8-12.6,2.8c-6,0-11.1-2.3-14.7-6.5c-6.9-8.1-5.5-20.3-5.1-23.1c0.7-5.1,12.2-91.9,17.6-114.7
				c0.7-2.9-0.2-4-0.5-4.4c-1.1-1.4-3.7-2.4-6.4-2.4c-1.9,0-8.1,0.5-9.2,7.3c-2.5,16-18.1,86.1-18.7,89.1c-1.1,5-5.8,8.3-10.9,7.8
				c-5.1-0.6-8.9-4.8-8.9-9.9c0-2.4,0-59.4,0.7-82.8c0.4-13.6-2.3-17.9-3.4-19.1c-0.4-0.4-1.4-1.5-5.1-1.5c-0.4,0-0.7,0-1.1,0
				c-9.7,0.5-15,15.8-15.1,15.9c-1.2,3.7-4.4,6.3-8.2,6.8c-3.8,0.5-7.6-1.3-9.7-4.5c-3.6-5.5-9.7-11-12.3-11
				c-6.4,0.8-15.5,9.5-14.9,19.7c0.2,3.5-1.5,6.8-4.3,8.8s-6.6,2.3-9.8,0.8c-2.3-1-4.3-1.5-6.2-1.5c-5.3,0-8.2,4.5-9.4,7.2
				C53.7,263.1,94,337.6,94.4,338.4c0.2,0.4,0.4,0.8,0.6,1.2C101.1,355.6,103,400.4,103.5,416.6z"/>
		</g>
		<g>
			<path class="st8" d="M94.9,240.6c-5.2,0-9.6-4.1-10-9.4l-5.4-87.5c-0.3-5.5,3.9-10.3,9.4-10.6c5.5-0.3,10.3,3.9,10.6,9.4
				l5.4,87.5c0.3,5.5-3.9,10.3-9.4,10.6C95.3,240.6,95.1,240.6,94.9,240.6z"/>
		</g>
		<g>
			<path class="st8" d="M133.3,231C133.3,231,133.3,231,133.3,231c-5.6,0-10-4.7-10-10.2l0.6-87.9c0-5.5,4.6-10,10.1-10
				c5.5,0,10,4.5,9.9,10.1l-0.6,87.9C143.3,226.5,138.8,231,133.3,231z"/>
		</g>
		<g>
			<path class="st8" d="M162.5,352c-32,0-66.4-5.1-72.4-6.1c-2-0.3-3.8-1.7-4.6-3.6c-0.8-1.9-0.6-4.1,0.6-5.8
				c2.6-3.8,26.2-37.2,44.8-42.1c1.9-0.5,4-1,6.1-1.5c15.3-3.8,38.5-9.4,38.5-23c0-3.2-0.9-5.6-2.9-7.4c-5-4.6-15.3-4.8-19-4.5
				l-89.2,11.6c-3.3,0.4-6.3-1.9-6.7-5.2s1.9-6.3,5.2-6.7l89.3-11.6c0.1,0,0.1,0,0.2,0c1.9-0.2,18.4-1.4,28.3,7.5
				c4.5,4.1,6.9,9.7,6.9,16.3c0,23-28.7,30-47.7,34.7c-2.1,0.5-4.1,1-5.9,1.5c-8.8,2.3-22.5,17-32.1,29.4c9.4,1.2,24.3,2.9,40.1,3.8
				c44.7,2.6,59.7-2.9,64.7-6.4c2.7-1.9,6.5-1.3,8.4,1.5c1.9,2.7,1.3,6.5-1.5,8.4C203.5,349.8,183.6,352,162.5,352z"/>
		</g>
		<g>
			<path class="st8" d="M157.6,417.4c-33.1,0-62.1-6.3-64-6.8c-3.2-0.7-5.3-3.9-4.5-7.2s3.9-5.3,7.2-4.5c0.2,0,19,4.2,43,5.8
				c31.4,2.1,57.5-1,75.6-9c3-1.3,6.6,0,7.9,3.1s0,6.6-3.1,7.9C201.2,414.9,178.6,417.4,157.6,417.4z"/>
		</g>
		<g>
			<circle class="st8" cx="161.5" cy="378.4" r="14.3"/>
		</g>
		<g>
			<path class="st8" d="M161.5,417c-3.3,0-6-2.7-6-6s2.7-6,6-6c14.7,0,26.6-11.9,26.6-26.6c0-14.7-11.9-26.6-26.6-26.6
				c-3.3,0-6-2.7-6-6s2.7-6,6-6c21.3,0,38.6,17.3,38.6,38.6S182.7,417,161.5,417z"/>
		</g>
		<g>
			<path class="st8" d="M477.1,446C477.1,446,477.1,446,477.1,446c-4.6,0-9.2-0.1-13.9-0.5c-49.3-4.5-63.8-33.8-64.4-35.1
				c-0.7-1.5-1-3.1-0.9-4.8l3.7-66.7c-13.5-9.2-52.4-35.6-63.2-42.1c-20-12-13.7-25.5-8.2-37.5c0.5-1.1,1-2.2,1.6-3.4
				c4.1-9,11.8-14.2,21.2-14.2c7.9,0,14.5,3.6,15.7,4.3c0.4,0.2,0.5,0.3,0.9,0.6c0.8,0.6,6.9,4.3,26,12.2c2.5,1,4,1.3,4.7,1.3
				c0.5-1.5,0.6-4.7,0.3-6.6c0-0.1,0-0.2,0-0.2c-0.1-0.9-12.1-90.9-17.2-112.9c-2-8.3-0.3-16.4,4.7-22.7c5.4-6.9,14.2-11,23.4-11
				c12.8,0,22.8,7.9,25.8,19.9c2-13.1,8.8-25.5,28.8-26.6c0.6,0,1.2-0.1,1.8-0.1c10.6,0,19.7,5.3,26,15.1c5.1-3.9,11.8-7.2,19.5-7.2
				c0.8,0,1.6,0,2.3,0.1c12.9,1.1,25,14.3,29.4,29.9c10.6,0.1,22.7,6.7,27.5,12.8c2.5,3.2,3.1,6.2,3.2,8.5
				c15.3,103.3-23.1,179.5-27.7,188.1c-4.3,12.2-6.7,52.3-7.2,75.1c-0.1,3-1.5,5.7-3.9,7.6C529.3,436,507.9,446,477.1,446z
				 M417.9,403.7c3.6,5.2,16.1,19.2,47,22c4.1,0.4,8.2,0.6,12.1,0.6c22.8,0,37.6-6.2,44.1-9.7c0.5-16.3,2.4-61,8.6-77
				c0.2-0.4,0.4-0.8,0.6-1.2c0.4-0.7,40.7-75.7,25.8-176.1c-2.3-1.8-7.6-4.3-11.1-4.3c-2.4,3.3-6.7,4.8-10.7,3.7
				c-4.5-1.3-7.6-5.5-7.3-10.2c0.6-11.7-8.4-23.1-12.9-23.5c-0.2,0-0.4,0-0.6,0c-5.7,0-12.2,7.2-14.4,10.5
				c-2.2,3.4-6.3,5.1-10.3,4.4c-4-0.8-7.1-3.9-7.9-7.9c0-0.1-3.3-14.8-13-14.8c-0.2,0-0.5,0-0.7,0c-6.3,0.4-11.3,0.6-10.7,20.5
				c0.7,23.5,0.7,80.4,0.7,82.8c0,5.1-3.8,9.4-8.9,9.9c-5.1,0.5-9.7-2.8-10.8-7.8c-0.7-3.1-17-77.1-19.5-93.1
				c-0.2-1.6-0.9-5.7-6.6-5.7c-3,0-6.2,1.4-7.8,3.4c-0.8,1-1.7,2.6-1,5.7c5.4,22.8,16.9,109.7,17.6,114.7c0.4,2.7,1.8,15-5.1,23.1
				c-3.6,4.3-8.7,6.5-14.7,6.5c-3.9,0-8-0.9-12.6-2.8c-19.7-8.1-27.2-12.5-29.6-14.1c-0.9-0.5-3.3-1.5-5.4-1.5c-1,0-1.9,0-3,2.4
				c-0.6,1.2-1.1,2.4-1.6,3.5c-1.5,3.3-3.4,7.3-3.7,9c0.4,0.4,1.5,1.4,4,2.9c13.5,8.1,66.6,44.3,68.8,45.9c2.9,2,4.5,5.3,4.3,8.8
				L417.9,403.7z"/>
		</g>
		<g>
			<path class="st8" d="M529.8,240.6c-0.2,0-0.4,0-0.6,0c-5.5-0.3-9.7-5.1-9.4-10.6l5.4-87.5c0.3-5.5,5.1-9.7,10.6-9.4
				c5.5,0.3,9.7,5.1,9.4,10.6l-5.4,87.5C539.5,236.5,535.1,240.6,529.8,240.6z"/>
		</g>
		<g>
			<path class="st8" d="M491.4,231c-5.5,0-10-4.5-10-10l-0.6-87.9c0-5.5,4.4-10.1,9.9-10.1c0,0,0,0,0.1,0c5.5,0,10,4.4,10,9.9
				l0.6,87.9C501.4,226.4,497,231,491.4,231C491.5,231,491.4,231,491.4,231z"/>
		</g>
		<g>
			<path class="st8" d="M465.4,349c-22.1,0-43.5-2.1-54.6-8.9c-2.8-1.7-3.7-5.4-2-8.3s5.4-3.7,8.3-2c17.5,10.8,75.2,7,106.2,3.5
				c-2.2-2.6-4.9-5.5-7.8-8.5c-13.8-14.3-21.5-17.9-24.8-18.8c-1.8-0.5-3.8-1-5.9-1.5c-19-4.6-47.7-11.7-47.7-34.7
				c0-6.6,2.4-12.2,6.9-16.3c9.8-9,26.4-7.7,28.3-7.5c0.1,0,0.1,0,0.2,0l89.3,11.6c3.3,0.4,5.6,3.4,5.2,6.7s-3.4,5.6-6.7,5.2
				L471.1,258c-3.7-0.3-14-0.1-19,4.5c-2,1.8-2.9,4.2-2.9,7.4c0,13.6,23.2,19.3,38.5,23c2.2,0.5,4.3,1,6.1,1.5
				c18.4,4.8,43.2,36.3,45.9,39.9c1.3,1.7,1.6,4,0.8,5.9s-2.6,3.4-4.7,3.7C530,344.7,497,349,465.4,349z"/>
		</g>
		<g>
			<path class="st8" d="M467.1,417.4c-21,0-43.6-2.5-62.1-10.7c-3-1.3-4.4-4.9-3.1-7.9s4.9-4.4,7.9-3.1
				c44.1,19.5,117.9,3.4,118.6,3.2c3.2-0.7,6.4,1.3,7.2,4.5c0.7,3.2-1.3,6.4-4.5,7.2C529.2,411.1,500.2,417.4,467.1,417.4z"/>
		</g>
		<g>
			<circle class="st8" cx="463.3" cy="378.4" r="14.3"/>
		</g>
		<g>
			<path class="st8" d="M463.3,417c-21.3,0-38.6-17.3-38.6-38.6c0-22.1,18-41.4,38.6-41.4c3.3,0,6,2.7,6,6s-2.7,6-6,6
				c-13.9,0-26.6,14-26.6,29.4c0,14.7,11.9,26.6,26.6,26.6c3.3,0,6,2.7,6,6S466.6,417,463.3,417z"/>
		</g>
	</g>
</g>
</svg>
