<?xml version="1.0" encoding="utf-8"?>
<!-- Generator: Adobe Illustrator 17.0.0, SVG Export Plug-In . SVG Version: 6.00 Build 0)  -->
<!DOCTYPE svg PUBLIC "-//W3C//DTD SVG 1.1//EN" "http://www.w3.org/Graphics/SVG/1.1/DTD/svg11.dtd" [
	<!ENTITY ns_flows "http://ns.adobe.com/Flows/1.0/">
	<!ENTITY ns_extend "http://ns.adobe.com/Extensibility/1.0/">
	<!ENTITY ns_ai "http://ns.adobe.com/AdobeIllustrator/10.0/">
	<!ENTITY ns_graphs "http://ns.adobe.com/Graphs/1.0/">
]>
<svg version="1.1" xmlns:x="&ns_extend;" xmlns:i="&ns_ai;" xmlns:graph="&ns_graphs;"
	 xmlns="http://www.w3.org/2000/svg" xmlns:xlink="http://www.w3.org/1999/xlink" xmlns:a="http://ns.adobe.com/AdobeSVGViewerExtensions/3.0/"
	 x="0px" y="0px" width="600px" height="600px" viewBox="0 0 600 600" style="enable-background:new 0 0 600 600;"
	 xml:space="preserve">
<style type="text/css">
	.st0{fill:#4EC928;}
	.st1{fill:#12B3FF;}
	.st2{fill:#687CFF;}
	.st3{fill:#6536FF;}
	.st4{fill:#C06AFF;}
	.st5{fill:#C90FAA;}
	.st6{fill:#FF5A79;}
	.st7{fill:#FF6A14;}
	.st8{fill:#FFFFFF;}
	.st9{fill:none;}
	.st10{adobe-knockout:true;}
	.st11{fill:#C90FAA;stroke:#FFFFFF;stroke-width:10;stroke-linecap:round;stroke-miterlimit:10;adobe-knockout:false;}
</style>
<g id="Layer_2">
	<rect class="st3" width="600" height="600"/>
</g>
<g id="Layer_1">
	<g>
		<g>
			<g>
				<g>
					<g>
						<polygon class="st8" points="271.4,229.7 251.1,275.6 201,280.9 						"/>
					</g>
				</g>
				<g>
					<g>
						<polygon class="st8" points="399.4,282.2 349.5,276.5 329.6,230.3 						"/>
					</g>
				</g>
				<g>
					<g>
						
							<rect x="333.7" y="253.5" transform="matrix(0.7907 0.6122 -0.6122 0.7907 248.5082 -146.4393)" class="st8" width="9.4" height="73.4"/>
					</g>
				</g>
				<g>
					<g>
						
							<rect x="224.9" y="285.7" transform="matrix(0.5973 0.802 -0.802 0.5973 338.2958 -92.8853)" class="st8" width="73.4" height="9.4"/>
					</g>
				</g>
				<g>
					<g>
						
							<rect x="234.7" y="324.5" transform="matrix(0.323 0.9464 -0.9464 0.323 503.8356 17.9142)" class="st8" width="9.4" height="73.4"/>
					</g>
				</g>
				<g>
					<g>
						
							<rect x="323" y="357" transform="matrix(0.9653 0.2612 -0.2612 0.9653 106.9582 -81.4068)" class="st8" width="73.5" height="9.4"/>
					</g>
				</g>
			</g>
			<g>
				<g>
					<path class="st9" d="M404.5,325.1c-4.2-27.9-19-52.6-41.6-69.4c-18.3-13.6-40.1-20.8-62.8-20.8c-33.4,0-65.2,16-85,42.8
						c-22.6,30.5-26.3,69.3-13.1,102.2h196.2C405,362.8,407.3,344,404.5,325.1z"/>
				</g>
				<g>
					<path class="st8" d="M215,277.8c19.8-26.8,51.6-42.8,85-42.8c22.7,0,44.5,7.2,62.8,20.8c22.7,16.8,37.5,41.4,41.6,69.4
						c2.8,18.8,0.5,37.6-6.4,54.9h19.9c6.1-18.3,7.9-38,4.9-57.6c-4.9-32.9-22.3-61.9-49-81.6c-21.6-16-47.1-24.4-73.9-24.4
						c-39.3,0-76.7,18.8-100.1,50.4c-25,33.8-30.3,76.2-18,113.3h19.9C188.8,347.1,192.4,308.3,215,277.8z"/>
				</g>
			</g>
			<g>
				<g>
					<polygon class="st8" points="185.6,334.4 200.6,380 220.6,380 223.1,367.9 					"/>
				</g>
				<g>
					<polygon class="st8" points="414.7,332.8 377.2,366.2 380.1,380 399.1,380 					"/>
				</g>
				<g>
					<polygon class="st8" points="302.1,380 316.1,380 346,358.7 328.2,302.6 269.3,301.9 250.7,357.7 280.7,380 292.7,380 					"/>
				</g>
			</g>
		</g>
		<g>
			<path class="st8" d="M489,394H117c-4.1,0-7.5-3.4-7.5-7.5s3.4-7.5,7.5-7.5h372c4.1,0,7.5,3.4,7.5,7.5S493.1,394,489,394z"/>
		</g>
		<g>
			<path class="st8" d="M154.5,358C154.5,358,154.5,358,154.5,358l-82.6-0.6c-3.1,0-5.6-2.6-5.6-5.7c0-3.1,2.5-5.7,5.6-5.7
				c0,0,0,0,0,0l82.6,0.4c3.1,0,5.6,2.7,5.6,5.8C160.1,355.3,157.6,358,154.5,358z"/>
		</g>
		<g>
			<path class="st8" d="M298.6,198C298.6,198,298.6,198,298.6,198c-3.1,0-5.7-2.5-5.6-5.6l0.4-90.6c0-3.1,2.5-5.8,5.6-5.8
				c0,0,0,0,0,0c3.1,0,5.6,2.7,5.6,5.8l-0.4,90.5C304.2,195.5,301.7,198,298.6,198z"/>
		</g>
		<g>
			<path class="st8" d="M403.7,237.7c-1.3,0-2.6-0.5-3.7-1.4c-2.4-2-2.6-5.6-0.6-8l43.3-49.9c2-2.4,5.6-2.6,8-0.6
				c2.4,2,2.6,5.6,0.6,8l-43.3,49.9C406.8,237.1,405.2,237.7,403.7,237.7z"/>
		</g>
		<g>
			<path class="st8" d="M526.6,360C526.6,360,526.6,360,526.6,360l-77.1-0.3c-3.1,0-5.6-2.7-5.6-5.9c0-3.1,2.5-5.8,5.6-5.8
				c0,0,0,0,0,0l77.1,0.6c3.1,0,5.6,2.6,5.6,5.7C532.2,357.4,529.7,360,526.6,360z"/>
		</g>
		<g>
			<path class="st8" d="M439.3,289.2c-2.1,0-4.1-1.2-5.1-3.1c-1.4-2.8-0.2-6.2,2.6-7.6l51.7-25.6c2.8-1.4,6.2-0.2,7.6,2.6
				c1.4,2.8,0.2,6.2-2.6,7.6l-51.7,25.6C441,289,440.1,289.2,439.3,289.2z"/>
		</g>
		<g>
			<path class="st8" d="M189.8,250.4c-1.4,0-2.9-0.6-4-1.7l-41.6-41.6c-2.2-2.2-2.2-5.8,0-8c2.2-2.2,5.8-2.2,8,0l41.6,41.6
				c2.2,2.2,2.2,5.8,0,8C192.7,249.8,191.2,250.4,189.8,250.4z"/>
		</g>
		<g>
			<path class="st8" d="M240.3,211.7c-2.3,0-4.4-1.4-5.3-3.6l-19.2-48.7c-1.1-2.9,0.3-6.2,3.2-7.3c2.9-1.1,6.2,0.3,7.3,3.2
				l19.2,48.7c1.1,2.9-0.3,6.2-3.2,7.3C241.7,211.6,241,211.7,240.3,211.7z"/>
		</g>
		<g>
			<path class="st8" d="M160.2,303.3c-0.7,0-1.4-0.1-2.1-0.4L78.9,271c-2.9-1.2-4.3-4.5-3.1-7.3c1.2-2.9,4.5-4.3,7.3-3.1l79.3,31.9
				c2.9,1.2,4.3,4.5,3.1,7.3C164.6,302,162.5,303.3,160.2,303.3z"/>
		</g>
		<g>
			<path class="st8" d="M449.1,324.5c-2.6,0-5-1.8-5.5-4.5c-0.6-3.1,1.3-6,4.4-6.7l48.7-10.2c3.1-0.6,6,1.3,6.7,4.4
				c0.6,3.1-1.3,6-4.4,6.7l-48.7,10.2C449.8,324.5,449.5,324.5,449.1,324.5z"/>
		</g>
		<g>
			<path class="st8" d="M358.3,208.3c-0.7,0-1.4-0.1-2.1-0.4c-2.9-1.2-4.3-4.5-3.1-7.4l25.4-62.2c1.2-2.9,4.5-4.3,7.4-3.1
				c2.9,1.2,4.3,4.5,3.1,7.4l-25.4,62.2C362.6,206.9,360.5,208.3,358.3,208.3z"/>
		</g>
		<g>
			<path class="st8" d="M423.5,260.3c-1.7,0-3.4-0.8-4.5-2.2c-1.9-2.5-1.4-6,1.1-7.9l31.3-23.9c2.5-1.9,6-1.4,7.9,1.1
				c1.9,2.5,1.4,6-1.1,7.9l-31.3,23.9C425.9,259.9,424.7,260.3,423.5,260.3z"/>
		</g>
		<g>
			<path class="st8" d="M171.7,274.3c-1.1,0-2.1-0.3-3.1-0.9L143.4,257c-2.6-1.7-3.4-5.2-1.7-7.8c1.7-2.6,5.2-3.4,7.8-1.7l25.3,16.4
				c2.6,1.7,3.4,5.2,1.7,7.8C175.4,273.4,173.6,274.3,171.7,274.3z"/>
		</g>
		<g>
			<path class="st8" d="M330.3,201.1c-0.4,0-0.7,0-1.1-0.1c-3.1-0.6-5.1-3.6-4.5-6.6l9.3-48.3c0.6-3.1,3.6-5.1,6.6-4.5
				c3.1,0.6,5.1,3.6,4.5,6.6l-9.3,48.3C335.3,199.2,333,201.1,330.3,201.1z"/>
		</g>
		<g>
			<path class="st8" d="M270.3,200.6c-2.7,0-5-1.9-5.5-4.6l-9.7-51.2c-0.6-3.1,1.4-6,4.5-6.6c3.1-0.6,6,1.4,6.6,4.5l9.7,51.2
				c0.6,3.1-1.4,6-4.5,6.6C271,200.6,270.6,200.6,270.3,200.6z"/>
		</g>
		<g>
			<path class="st8" d="M212.2,228.5c-1.8,0-3.6-0.9-4.7-2.5l-23.9-35c-1.8-2.6-1.1-6.1,1.5-7.8c2.6-1.8,6.1-1.1,7.8,1.5l23.9,35
				c1.8,2.6,1.1,6.1-1.5,7.8C214.4,228.2,213.3,228.5,212.2,228.5z"/>
		</g>
		<g>
			<path class="st8" d="M380.7,220.8c-1,0-2-0.3-2.9-0.8c-2.7-1.6-3.6-5-2-7.7l22.1-37.5c1.6-2.7,5.1-3.6,7.7-2c2.7,1.6,3.6,5,2,7.7
				L385.6,218C384.6,219.8,382.7,220.8,380.7,220.8z"/>
		</g>
		<g>
			<path class="st8" d="M153.9,333.2c-0.3,0-0.6,0-0.9-0.1l-52.6-8.7c-3.1-0.5-5.2-3.4-4.7-6.5c0.5-3.1,3.4-5.2,6.5-4.7l52.6,8.7
				c3.1,0.5,5.2,3.4,4.7,6.5C159,331.2,156.6,333.2,153.9,333.2z"/>
		</g>
	</g>
</g>
</svg>
