<?xml version="1.0" encoding="utf-8"?>
<!-- Generator: Adobe Illustrator 17.0.0, SVG Export Plug-In . SVG Version: 6.00 Build 0)  -->
<!DOCTYPE svg PUBLIC "-//W3C//DTD SVG 1.1//EN" "http://www.w3.org/Graphics/SVG/1.1/DTD/svg11.dtd" [
	<!ENTITY ns_flows "http://ns.adobe.com/Flows/1.0/">
	<!ENTITY ns_extend "http://ns.adobe.com/Extensibility/1.0/">
	<!ENTITY ns_ai "http://ns.adobe.com/AdobeIllustrator/10.0/">
	<!ENTITY ns_graphs "http://ns.adobe.com/Graphs/1.0/">
]>
<svg version="1.1" xmlns:x="&ns_extend;" xmlns:i="&ns_ai;" xmlns:graph="&ns_graphs;"
	 xmlns="http://www.w3.org/2000/svg" xmlns:xlink="http://www.w3.org/1999/xlink" xmlns:a="http://ns.adobe.com/AdobeSVGViewerExtensions/3.0/"
	 x="0px" y="0px" width="600px" height="600px" viewBox="0 0 600 600" style="enable-background:new 0 0 600 600;"
	 xml:space="preserve">
<style type="text/css">
	.st0{fill:#4EC928;}
	.st1{fill:#12B3FF;}
	.st2{fill:#687CFF;}
	.st3{fill:#6536FF;}
	.st4{fill:#C06AFF;}
	.st5{fill:#C90FAA;}
	.st6{fill:#FF5A79;}
	.st7{fill:#FF6A14;}
	.st8{fill:#FFFFFF;}
	.st9{fill:none;}
	.st10{adobe-knockout:true;}
	.st11{fill:#C90FAA;stroke:#FFFFFF;stroke-width:10;stroke-linecap:round;stroke-miterlimit:10;adobe-knockout:false;}
</style>
<g id="Layer_2">
	<rect class="st2" width="600" height="600"/>
</g>
<g id="Layer_1">
	<g>
		<circle class="st8" cx="327.8" cy="100.5" r="52.5"/>
	</g>
	<g>
		<path class="st8" d="M185.1,255.6c-4.4,0-8.8-1.5-12.5-4.4c-8.5-6.9-9.8-19.4-2.9-27.9c17.5-21.5,37.7-37.5,60-47.5
			c28.7-12.9,60.3-15.7,94-8.3l1,0.2l1,0.3c27.5,9.2,98-13.2,136-29.4c10.1-4.3,21.7,0.4,26,10.4c4.3,10-0.4,21.7-10.4,26
			c-1.1,0.5-27.7,11.8-60.3,21.4c-46.2,13.6-79.7,16.7-102.6,9.5c-45-9.6-83.3,4.7-113.9,42.3C196.6,253.1,190.9,255.6,185.1,255.6z
			"/>
	</g>
	<g>
		<path class="st8" d="M457.6,524.7c-7.8,0-15.2-4.6-18.3-12.3l-49.6-120.8l-81.7-59.3l-83.1,75.4L96.4,358.4
			C86.2,354.4,81.1,343,85,332.8c3.9-10.2,15.4-15.3,25.6-11.4L216.3,362l88.9-80.6L422,366.2l53.9,131.2
			c4.2,10.1-0.7,21.7-10.8,25.8C462.6,524.2,460.1,524.7,457.6,524.7z"/>
	</g>
	<g>
		<circle class="st8" cx="307.8" cy="490.1" r="43"/>
	</g>
	<g>
		<path class="st8" d="M335.4,334l-57.7-25.3c6.5-14.9,9.5-39.7,8.4-69.6c-0.9-24.9-4.3-44.7-4.4-44.9l62.1-10.8
			C345.5,192.9,359.5,278.9,335.4,334z"/>
	</g>
</g>
</svg>
