<?xml version="1.0" encoding="utf-8"?>
<!-- Generator: Adobe Illustrator 17.0.0, SVG Export Plug-In . SVG Version: 6.00 Build 0)  -->
<!DOCTYPE svg PUBLIC "-//W3C//DTD SVG 1.1//EN" "http://www.w3.org/Graphics/SVG/1.1/DTD/svg11.dtd" [
	<!ENTITY ns_flows "http://ns.adobe.com/Flows/1.0/">
	<!ENTITY ns_extend "http://ns.adobe.com/Extensibility/1.0/">
	<!ENTITY ns_ai "http://ns.adobe.com/AdobeIllustrator/10.0/">
	<!ENTITY ns_graphs "http://ns.adobe.com/Graphs/1.0/">
]>
<svg version="1.1" xmlns:x="&ns_extend;" xmlns:i="&ns_ai;" xmlns:graph="&ns_graphs;"
	 xmlns="http://www.w3.org/2000/svg" xmlns:xlink="http://www.w3.org/1999/xlink" xmlns:a="http://ns.adobe.com/AdobeSVGViewerExtensions/3.0/"
	 x="0px" y="0px" width="600px" height="600px" viewBox="0 0 600 600" style="enable-background:new 0 0 600 600;"
	 xml:space="preserve">
<style type="text/css">
	.st0{fill:#4EC928;}
	.st1{fill:#12B3FF;}
	.st2{fill:#687CFF;}
	.st3{fill:#6536FF;}
	.st4{fill:#C06AFF;}
	.st5{fill:#C90FAA;}
	.st6{fill:#FF5A79;}
	.st7{fill:#FF6A14;}
	.st8{fill:#FFFFFF;}
	.st9{fill:none;}
	.st10{adobe-knockout:true;}
	.st11{fill:#C90FAA;stroke:#FFFFFF;stroke-width:10;stroke-linecap:round;stroke-miterlimit:10;adobe-knockout:false;}
</style>
<g id="Layer_2">
	<rect class="st4" width="600" height="600"/>
</g>
<g id="Layer_1">
	<g>
		<g>
			<g>
				<g>
					<path class="st8" d="M534.3,432.7c-1.8,0-3.5-0.7-4.9-2c-8.9-8.7-14.7-15.7-17.3-19.2c-28.3-37-38.8-145.9-39.2-150.5
						c0-0.5-0.1-0.3-0.1-0.6c-0.4-1.6-3.4-10.6-24.2-23.2c-12-7.3-23.3-16.4-33.3-24.3c-13.1-10.5-25.5-20.4-35-22.7l-3.6-0.9
						c-35.2-8.6-76.7-18.7-84.7-21.3c-0.4-0.1-2.2,0.6-4.1,3.1c-2.3,3.2-3.6,7.9-1.6,10.9c3.9,5.7,19.2,12.2,28.8,15.1
						c3.7,1.1,5.8,5,4.7,8.7c-1.1,3.7-5,5.8-8.7,4.7c-2.8-0.8-28.1-8.5-36.4-20.5c-6.1-8.8-3.5-20,1.8-27.2
						c5.3-7.1,12.7-10.2,19.5-8.1c8.6,2.7,63.3,16,83.8,21l3.6,0.9c12.5,3,25.4,13.4,40.4,25.4c10.1,8.1,20.6,16.5,31.8,23.3
						c28,17.1,30.7,30.8,30.9,34.7c0.6,5.6,11.1,110,36.4,143.1c2.4,3.1,7.7,9.6,15.9,17.6c2.8,2.7,2.8,7.1,0.2,9.9
						C538,432,536.2,432.7,534.3,432.7z"/>
				</g>
				<g>
					<path class="st8" d="M436.2,505.9c-2.5,0-4.9-1.3-6.2-3.7c-8.3-15.5-22.1-39.2-26.9-43.4c-9.1-8-51.5-63.6-52.1-112.4
						c-3.1-2.1-6-5.5-8.8-9.1c-1.6,7.6-4.3,13.6-8.3,17.9c-4.5,4.9-10.5,7.6-17.4,7.6c0,0,0,0,0,0c-6.5,0-12-2.5-16-7.4
						c-5.2-6.2-7.7-16.3-7.5-29.8c0.2-9.4,1.6-17.1,1.7-17.5c0.7-3.8,4.4-6.3,8.2-5.6c3.8,0.7,6.3,4.4,5.6,8.2
						c-1.9,10.2-2.8,29,2.8,35.8c1.3,1.6,2.9,2.3,5.2,2.3c0,0,0,0,0,0c3,0,5.2-1,7.1-3c6.4-7,6.4-24,5.9-29.3
						c-0.3-3.3,1.7-6.3,4.9-7.3c3.1-1,6.5,0.3,8.2,3.2c5.6,9.7,12.5,19.5,15.7,22.1c1.3,0,2.6,0.4,3.8,1.2c2,1.4,3.2,3.7,3.1,6.2
						c-2.5,44,40,100.1,47.2,106.5c8.4,7.4,26.5,40.7,30,47.3c1.8,3.4,0.5,7.7-2.9,9.5C438.4,505.7,437.3,505.9,436.2,505.9z"/>
				</g>
				<g>
					<path class="st8" d="M281.3,322.8c-4.9,0-9.3-1.6-12.8-4.8c-3.6-3.2-5.7-7.8-5.9-13.1c-0.5-10.4,5.7-24.3,18.9-42.5
						c9.2-12.7,18.4-22.7,18.8-23.1c2.6-2.8,7.1-3,9.9-0.4c2.8,2.6,3,7.1,0.4,9.9c-13.5,14.6-34.6,42.5-34,55.4
						c0.1,2,0.7,2.8,1.3,3.3c0.8,0.7,1.9,1.4,4.2,1.2c11.5-1,31.5-20.9,41.3-33.3c2.4-3,6.8-3.5,9.8-1.1c3,2.4,3.5,6.8,1.1,9.8
						c-3,3.8-29.8,36.7-51.1,38.5C282.5,322.7,281.9,322.8,281.3,322.8z"/>
				</g>
				<g>
					<path class="st8" d="M272.1,251.3c-17.7,0-28.2-5-31.2-14.9c-7.2-23.8,32.9-41,37.5-42.9c3.6-1.5,7.7,0.2,9.1,3.8
						c1.5,3.6-0.2,7.7-3.8,9.1c-11.6,4.8-32.1,17.2-29.5,25.9c0.9,2.9,7.6,5.8,23.9,4.8c13-0.8,25.5-3.9,25.7-3.9
						c3.8-0.9,7.5,1.4,8.5,5.1c0.9,3.8-1.4,7.5-5.1,8.5c-0.6,0.1-13.8,3.3-28.1,4.3C276.7,251.3,274.4,251.3,272.1,251.3z"/>
				</g>
				<g>
					<path class="st8" d="M369.4,400.3c-2.7,0-5.3-1.6-6.4-4.2c-12.3-28.3-13.5-73.4-13.6-84.6c-4.4-5.5-17.5-21.9-31.8-40.3
						c-17.7-22.9-25.2-40.3-22.9-53.4c1.2-6.6,4.9-12.2,10.8-15.9c25.4-16.3,39.5-3.7,44.4,2.5c0.9,1.1,2.3,3,4.2,5.5
						c0.3,0.4,0.6,0.8,0.9,1.2c0.5,0.1,1,0.4,1.4,0.6c0.5,0.3,45.8,26.2,60.1,33.2c8.8,4.3,12.2,12.9,8.4,21.4c-2,4.6-6,8.6-10.8,11
						c-5.5,2.7-11.4,3.1-16.7,0.9c-9.1-3.6-24.9-21-54.5-59.9c-1.8-2.4-3.2-4.2-4.1-5.3c-5.5-7-14.2-6.8-25.8,0.6
						c-2.6,1.7-4.1,3.7-4.5,6.5c-0.9,5,0.6,17.1,20.2,42.4c17.3,22.4,33,41.8,33.2,42c1,1.3,1.6,2.8,1.6,4.5
						c0,0.5-0.2,52.4,12.5,81.5c1.5,3.5-0.1,7.7-3.6,9.2C371.2,400.1,370.3,400.3,369.4,400.3z M377.5,239.8
						c15.2,18.4,22,24.3,25,25.4c3.7,1.5,8.2-1.7,9.5-4.6c0.5-1.1,0.9-1.9-1.7-3.2C403.4,254.1,390,246.7,377.5,239.8z"/>
				</g>
				<g>
					<path class="st8" d="M297,214.4c0,0-217.5-98.8-226.9-103.8s-2.2-22.4,7.6-17c5.8,3.2,196.1,88.8,196.1,88.8l36.5,19.4
						c0,0-11.1,2.6-12.8,14.6"/>
				</g>
			</g>
			<g>
				<path class="st8" d="M357.5,222.1c0,0,57.8,26.6,59.4,35.4c1.6,8.9-5.7,14.1-10.9,13.5S357.5,222.1,357.5,222.1z"/>
			</g>
		</g>
		<g>
			<path class="st4" d="M101.7,148.2c-7.8-37.3,19.5-47.5,19.7-47.6l1.3,3.8l-0.7-1.9l0.7,1.9c-1,0.4-24.2,9.2-17.2,43L101.7,148.2z
				"/>
		</g>
		<g>
			<g>
				<g>
					<polygon class="st8" points="190.6,353.9 181.3,375.8 194.2,395.9 170.5,393.9 155.4,412.3 150,389.1 127.8,380.5 148.2,368.1 
						149.5,344.4 167.5,359.9 					"/>
				</g>
			</g>
			<g>
				<g>
					<polygon class="st8" points="131.1,293.6 118.2,310.1 124.5,330 104.8,322.9 87.8,335 88.5,314.1 71.7,301.7 91.8,295.9 
						98.5,276 110.2,293.4 					"/>
				</g>
			</g>
			<g>
				<g>
					<polygon class="st8" points="102.2,226.5 92.9,234.3 94,246.4 83.7,239.9 72.5,244.7 75.5,233 67.5,223.8 79.6,223 85.8,212.6 
						90.3,223.9 					"/>
				</g>
			</g>
			<g>
				<g>
					<polygon class="st8" points="109.7,161.7 97.8,167 95.4,179.8 86.7,170.1 73.8,171.8 80.3,160.5 74.8,148.8 87.5,151.5 
						96.9,142.6 98.3,155.5 					"/>
				</g>
			</g>
		</g>
	</g>
</g>
</svg>
