<?xml version="1.0" encoding="utf-8"?>
<!-- Generator: Adobe Illustrator 17.0.0, SVG Export Plug-In . SVG Version: 6.00 Build 0)  -->
<!DOCTYPE svg PUBLIC "-//W3C//DTD SVG 1.1//EN" "http://www.w3.org/Graphics/SVG/1.1/DTD/svg11.dtd" [
	<!ENTITY ns_flows "http://ns.adobe.com/Flows/1.0/">
	<!ENTITY ns_extend "http://ns.adobe.com/Extensibility/1.0/">
	<!ENTITY ns_ai "http://ns.adobe.com/AdobeIllustrator/10.0/">
	<!ENTITY ns_graphs "http://ns.adobe.com/Graphs/1.0/">
]>
<svg version="1.1" xmlns:x="&ns_extend;" xmlns:i="&ns_ai;" xmlns:graph="&ns_graphs;"
	 xmlns="http://www.w3.org/2000/svg" xmlns:xlink="http://www.w3.org/1999/xlink" xmlns:a="http://ns.adobe.com/AdobeSVGViewerExtensions/3.0/"
	 x="0px" y="0px" width="600px" height="600px" viewBox="0 0 600 600" style="enable-background:new 0 0 600 600;"
	 xml:space="preserve">
<style type="text/css">
	.st0{fill:#4EC928;}
	.st1{fill:#12B3FF;}
	.st2{fill:#687CFF;}
	.st3{fill:#6536FF;}
	.st4{fill:#C06AFF;}
	.st5{fill:#C90FAA;}
	.st6{fill:#FF5A79;}
	.st7{fill:#FF6A14;}
	.st8{fill:#FFFFFF;}
	.st9{fill:none;}
	.st10{adobe-knockout:true;}
	.st11{fill:#C90FAA;stroke:#FFFFFF;stroke-width:10;stroke-linecap:round;stroke-miterlimit:10;adobe-knockout:false;}
</style>
<g id="Layer_2">
	<rect class="st2" width="600" height="600"/>
</g>
<g id="Layer_1">
	<g>
		<g>
			<g>
				<g>
					<path class="st8" d="M299.9,430c-28.6,0-56-9-79.1-26.1c-58.9-43.6-71.4-127.1-27.7-186.1c25-33.7,65-53.9,107-53.9
						c28.6,0,56,9,79.1,26.1c28.6,21.1,47.2,52.1,52.4,87.3c5.2,35.1-3.5,70.2-24.7,98.8C381.9,409.9,341.9,430,299.9,430z
						 M300.1,184c-35.7,0-69.7,17.1-90.9,45.8c-37.1,50.1-26.5,121,23.6,158.1c19.6,14.5,42.8,22.2,67.2,22.2
						c35.7,0,69.7-17.1,90.9-45.8c18-24.3,25.4-54.1,21-83.9c-4.5-29.9-20.3-56.2-44.5-74.2C347.6,191.7,324.4,184,300.1,184z"/>
				</g>
			</g>
			<g>
				<g>
					<polygon class="st8" points="269.4,178.3 247.7,227.3 194.2,233 					"/>
				</g>
			</g>
			<g>
				<g>
					<polygon class="st8" points="344.8,411.4 298.6,384.1 251.8,410.7 					"/>
				</g>
			</g>
			<g>
				<g>
					<polygon class="st8" points="406.3,234.4 353,228.3 331.6,178.9 					"/>
				</g>
			</g>
			<g>
				<g>
					<polygon class="st8" points="206.8,378.6 217.8,326.1 177.6,290.2 					"/>
				</g>
			</g>
			<g>
				<g>
					<polygon class="st8" points="422.6,288.6 382.5,324.2 393.5,376.9 					"/>
				</g>
			</g>
		</g>
		<g>
			<g>
				<g>
					<path class="st8" d="M503.5,440.5c-2.5,0-4.5-2-4.5-4.5v-34c0-2.5,2-4.5,4.5-4.5s4.5,2,4.5,4.5v34
						C508,438.5,506,440.5,503.5,440.5z"/>
				</g>
			</g>
			<g>
				<g>
					<path class="st8" d="M486,439c-1.5,0-2.8-1.1-3-2.6l-3.3-26c-0.2-1.6,1-3.1,2.6-3.4c1.6-0.2,3.1,1,3.4,2.6l3.3,26
						c0.2,1.6-1,3.1-2.6,3.4C486.3,439,486.1,439,486,439z"/>
				</g>
			</g>
			<g>
				<g>
					<path class="st8" d="M468.5,439.5c-1.7,0-3.2-1.3-3.5-3l-4.5-31c-0.3-1.9,1-3.7,3-4c1.9-0.3,3.7,1,4,3l4.5,31
						c0.3,1.9-1,3.7-3,4C468.8,439.5,468.7,439.5,468.5,439.5z"/>
				</g>
			</g>
			<g>
				<g>
					<path class="st8" d="M451.5,439.5c-1.8,0-3.3-1.3-3.5-3.1l-2.8-28c-0.2-1.9,1.2-3.6,3.1-3.8c1.9-0.2,3.6,1.2,3.8,3.1l2.8,28
						c0.2,1.9-1.2,3.6-3.1,3.8C451.7,439.5,451.6,439.5,451.5,439.5z"/>
				</g>
			</g>
			<g>
				<g>
					<path class="st8" d="M434,439c-0.1,0-0.2,0-0.3,0c-1.7-0.1-2.9-1.6-2.7-3.3l2-22.3c0.1-1.7,1.6-2.9,3.3-2.7
						c1.7,0.1,2.9,1.6,2.7,3.3l-2,22.3C436.8,437.8,435.5,439,434,439z"/>
				</g>
			</g>
			<g>
				<g>
					<path class="st8" d="M416.5,441.5c-0.3,0-0.6,0-0.9-0.1c-3-0.5-5-3.3-4.5-6.3l5.5-33c0.5-3,3.3-5,6.3-4.5c3,0.5,5,3.3,4.5,6.3
						l-5.5,33C421.5,439.6,419.1,441.5,416.5,441.5z"/>
				</g>
			</g>
			<g>
				<g>
					<path class="st8" d="M399,440c-0.2,0-0.4,0-0.6-0.1c-2.2-0.4-3.7-2.4-3.3-4.6l5-31c0.4-2.2,2.4-3.7,4.6-3.3
						c2.2,0.4,3.7,2.4,3.3,4.6l-5,31C402.6,438.6,400.9,440,399,440z"/>
				</g>
			</g>
			<g>
				<g>
					<path class="st8" d="M381.5,439.5c-0.2,0-0.4,0-0.7-0.1c-1.9-0.4-3.1-2.2-2.8-4.1l5.8-31c0.4-1.9,2.2-3.2,4.1-2.8
						c1.9,0.4,3.1,2.2,2.8,4.1l-5.8,31C384.6,438.3,383.2,439.5,381.5,439.5z"/>
				</g>
			</g>
			<g>
				<g>
					<path class="st8" d="M364,439c-0.2,0-0.3,0-0.5,0c-1.6-0.3-2.7-1.8-2.5-3.5l3.5-20.5c0.3-1.6,1.8-2.7,3.5-2.5
						c1.6,0.3,2.7,1.8,2.5,3.5l-3.5,20.5C366.7,438,365.4,439,364,439z"/>
				</g>
			</g>
			<g>
				<g>
					<path class="st8" d="M347,441c-0.4,0-0.8,0-1.2-0.1c-2.7-0.6-4.4-3.3-3.7-6l5.7-24c0.6-2.7,3.3-4.4,6-3.7
						c2.7,0.6,4.4,3.3,3.7,6l-5.7,24C351.3,439.5,349.3,441,347,441z"/>
				</g>
			</g>
			<g>
				<g>
					<path class="st8" d="M329.5,440.5c-2.5,0-4.5-2-4.5-4.5v-21c0-2.5,2-4.5,4.5-4.5s4.5,2,4.5,4.5v21
						C334,438.5,332,440.5,329.5,440.5z"/>
				</g>
			</g>
			<g>
				<g>
					<path class="st8" d="M312.5,441.5c-3,0-5.5-2.5-5.5-5.5v-31c0-3,2.5-5.5,5.5-5.5s5.5,2.5,5.5,5.5v31
						C318,439,315.5,441.5,312.5,441.5z"/>
				</g>
			</g>
			<g>
				<g>
					<path class="st8" d="M295,439c-1.7,0-3-1.3-3-3v-26c0-1.7,1.3-3,3-3s3,1.3,3,3v26C298,437.7,296.7,439,295,439z"/>
				</g>
			</g>
			<g>
				<g>
					<path class="st8" d="M277.5,440.5c-2.5,0-4.5-2-4.5-4.5v-29c0-2.5,2-4.5,4.5-4.5s4.5,2,4.5,4.5v29
						C282,438.5,280,440.5,277.5,440.5z"/>
				</g>
			</g>
			<g>
				<g>
					<path class="st8" d="M260.5,440.5c-2.1,0-4-1.5-4.4-3.7l-4.5-26c-0.4-2.4,1.2-4.8,3.7-5.2c2.4-0.4,4.8,1.2,5.2,3.7l4.5,26
						c0.4,2.4-1.2,4.8-3.7,5.2C261,440.5,260.7,440.5,260.5,440.5z"/>
				</g>
			</g>
			<g>
				<g>
					<path class="st8" d="M242.5,440.5c-2.2,0-4.1-1.6-4.4-3.8l-4.5-29c-0.4-2.5,1.3-4.8,3.8-5.1c2.5-0.4,4.8,1.3,5.1,3.8l4.5,29
						c0.4,2.5-1.3,4.8-3.8,5.1C243,440.5,242.7,440.5,242.5,440.5z"/>
				</g>
			</g>
			<g>
				<g>
					<path class="st8" d="M225.5,440.5c-2.1,0-4-1.5-4.4-3.7l-5.5-30c-0.4-2.4,1.2-4.8,3.6-5.2c2.4-0.4,4.8,1.2,5.2,3.6l5.5,30
						c0.4,2.4-1.2,4.8-3.6,5.2C226,440.5,225.8,440.5,225.5,440.5z"/>
				</g>
			</g>
			<g>
				<g>
					<path class="st8" d="M208.5,439.5c-1.7,0-3.1-1.2-3.4-2.9l-4.5-26c-0.3-1.9,0.9-3.7,2.9-4c1.9-0.3,3.7,0.9,4,2.9l4.5,26
						c0.3,1.9-0.9,3.7-2.9,4C208.9,439.5,208.7,439.5,208.5,439.5z"/>
				</g>
			</g>
			<g>
				<g>
					<path class="st8" d="M191,440c-2,0-3.8-1.5-4-3.6l-3.7-35c-0.2-2.2,1.4-4.2,3.6-4.4c2.2-0.2,4.2,1.4,4.4,3.6l3.7,35
						c0.2,2.2-1.4,4.2-3.6,4.4C191.3,440,191.1,440,191,440z"/>
				</g>
			</g>
			<g>
				<g>
					<path class="st8" d="M173,440c-0.1,0-0.2,0-0.3,0c-2.2-0.2-3.9-2.1-3.7-4.3l2.3-31c0.2-2.2,2.1-3.9,4.3-3.7
						c2.2,0.2,3.9,2.1,3.7,4.3l-2.3,31C176.8,438.4,175.1,440,173,440z"/>
				</g>
			</g>
			<g>
				<g>
					<path class="st8" d="M156.5,440.5c-2.3,0-4.2-1.7-4.5-4l-3.2-31c-0.3-2.5,1.5-4.7,4-4.9c2.5-0.3,4.7,1.5,4.9,4l3.2,31
						c0.3,2.5-1.5,4.7-4,4.9C156.8,440.5,156.6,440.5,156.5,440.5z"/>
				</g>
			</g>
			<g>
				<g>
					<path class="st8" d="M139,440c-0.2,0-0.4,0-0.6,0c-2.2-0.3-3.7-2.4-3.4-4.6l3.7-24c0.3-2.2,2.4-3.7,4.6-3.4
						c2.2,0.3,3.7,2.4,3.4,4.6l-3.7,24C142.7,438.6,140.9,440,139,440z"/>
				</g>
			</g>
			<g>
				<g>
					<path class="st8" d="M121,440c-2,0-3.8-1.6-4-3.6l-2.3-26c-0.2-2.2,1.4-4.1,3.6-4.3c2.2-0.2,4.1,1.4,4.3,3.6l2.3,26
						c0.2,2.2-1.4,4.1-3.6,4.3C121.2,440,121.1,440,121,440z"/>
				</g>
			</g>
			<g>
				<g>
					<path class="st8" d="M104,440c-2,0-3.7-1.5-4-3.5l-3.3-25c-0.3-2.2,1.2-4.2,3.4-4.5c2.2-0.3,4.2,1.2,4.5,3.4l3.3,25
						c0.3,2.2-1.2,4.2-3.4,4.5C104.3,440,104.2,440,104,440z"/>
				</g>
			</g>
		</g>
		<g>
			<path class="st8" d="M308,376c-0.1,0-0.2,0-0.3,0c-2.5-0.2-4.5-2.1-4.7-4.6l-7.3-85.3l-3.7,56.2c-0.2,2.5-2.1,4.5-4.6,4.7
				c-2.5,0.2-4.7-1.4-5.3-3.8l-12.2-52.1l-3.9,37.5c-0.3,2.5-2.4,4.4-5,4.4c0,0,0,0,0,0c-2.6,0-4.7-1.8-5-4.3l-3.6-33l-8.9-1.7H176
				c-2.8,0-5-2.2-5-5s2.2-5,5-5h68c0.3,0,0.6,0,0.9,0.1l13,2.5c0.9,0.2,1.6,0.5,2.3,1.1l2.8-27.1c0.3-2.4,2.2-4.3,4.7-4.5
				c2.4-0.1,4.6,1.5,5.2,3.8l11.3,48.3l5.8-88.6c0.2-2.6,2.3-4.7,4.9-4.7c0,0,0,0,0.1,0c2.6,0,4.8,2,5,4.6l10.1,117.3l12-57
				c0.5-2.3,2.5-3.9,4.8-4c2.3,0,4.4,1.5,4.9,3.8l7.4,30.5l12.1-28.2c0.6-1.5,2-2.6,3.5-2.9c1.6-0.3,3.2,0.1,4.4,1.2l10.5,9.7
				l53-0.5c2.7,0,5,2.2,5,5c0,2.8-2.2,5-5,5l-55,0.5c-1.3,0-2.5-0.5-3.4-1.3l-6.8-6.2L342.6,328c-0.8,2-2.9,3.2-5,3
				c-2.1-0.2-3.9-1.7-4.4-3.8l-5.8-23.7l-14.5,68.5C312.4,374.4,310.4,376,308,376z"/>
		</g>
	</g>
</g>
</svg>
