<?xml version="1.0" encoding="utf-8"?>
<!-- Generator: Adobe Illustrator 17.0.0, SVG Export Plug-In . SVG Version: 6.00 Build 0)  -->
<!DOCTYPE svg PUBLIC "-//W3C//DTD SVG 1.1//EN" "http://www.w3.org/Graphics/SVG/1.1/DTD/svg11.dtd" [
	<!ENTITY ns_flows "http://ns.adobe.com/Flows/1.0/">
	<!ENTITY ns_extend "http://ns.adobe.com/Extensibility/1.0/">
	<!ENTITY ns_ai "http://ns.adobe.com/AdobeIllustrator/10.0/">
	<!ENTITY ns_graphs "http://ns.adobe.com/Graphs/1.0/">
]>
<svg version="1.1" xmlns:x="&ns_extend;" xmlns:i="&ns_ai;" xmlns:graph="&ns_graphs;"
	 xmlns="http://www.w3.org/2000/svg" xmlns:xlink="http://www.w3.org/1999/xlink" xmlns:a="http://ns.adobe.com/AdobeSVGViewerExtensions/3.0/"
	 x="0px" y="0px" width="600px" height="600px" viewBox="0 0 600 600" style="enable-background:new 0 0 600 600;"
	 xml:space="preserve">
<style type="text/css">
	.st0{fill:#4EC928;}
	.st1{fill:#12B3FF;}
	.st2{fill:#687CFF;}
	.st3{fill:#6536FF;}
	.st4{fill:#C06AFF;}
	.st5{fill:#C90FAA;}
	.st6{fill:#FF5A79;}
	.st7{fill:#FF6A14;}
	.st8{fill:#FFFFFF;}
	.st9{fill:none;}
	.st10{adobe-knockout:true;}
	.st11{fill:#C90FAA;stroke:#FFFFFF;stroke-width:10;stroke-linecap:round;stroke-miterlimit:10;adobe-knockout:false;}
</style>
<g id="Layer_2">
	<rect class="st4" width="600" height="600"/>
</g>
<g id="Layer_1">
	<g>
		<g>
			<g>
				<path class="st8" d="M247.3,403.7c-22-10.9-39.6-28.2-50.8-50.1c-28.7-55.9-6.6-124.8,49.4-153.5c32-16.4,70.4-16.7,102.7-0.7
					c22,10.9,39.6,28.2,50.8,50.1c13.9,27.1,16.4,58,7.1,87c-9.3,29-29.4,52.6-56.5,66.5C317.9,419.4,279.5,419.6,247.3,403.7z
					 M340.9,214.6c-27.4-13.6-60.1-13.3-87.3,0.6c-47.5,24.4-66.3,82.9-41.9,130.5c9.6,18.6,24.5,33.3,43.2,42.6
					c27.4,13.6,60.1,13.3,87.3-0.6c23-11.8,40.1-31.9,48-56.5c7.9-24.6,5.8-50.9-6-73.9C374.5,238.6,359.6,223.9,340.9,214.6z"/>
			</g>
		</g>
		<g>
			<g>
				<polygon class="st8" points="319.5,198.6 284.2,228.1 240.9,212.1 				"/>
			</g>
		</g>
		<g>
			<g>
				<polygon class="st8" points="288.9,406.4 263.7,367.9 217.6,370.5 				"/>
			</g>
		</g>
		<g>
			<g>
				<polygon class="st8" points="403.4,293.8 364.7,268.8 367.1,222.7 				"/>
			</g>
		</g>
		<g>
			<g>
				<polygon class="st8" points="195.3,328.8 223.7,292.6 206.4,249.8 				"/>
			</g>
		</g>
		<g>
			<g>
				<polygon class="st8" points="395.4,341.6 351,353.8 339.4,398.4 				"/>
			</g>
		</g>
		<g>
			<g>
				<polygon class="st8" points="250.4,295.4 288.4,257.1 336.6,281.6 328.4,335 275.1,343.6 				"/>
			</g>
		</g>
		<g>
			<g>
				
					<rect x="345.7" y="242" transform="matrix(0.4375 0.8992 -0.8992 0.4375 444.6754 -159.6996)" class="st8" width="8.6" height="67.3"/>
			</g>
		</g>
		<g>
			<g>
				
					<rect x="253.2" y="240.3" transform="matrix(0.18 0.9837 -0.9837 0.18 475.7481 -81.5842)" class="st8" width="67.3" height="8.6"/>
			</g>
		</g>
		<g>
			<g>
				
					<rect x="235.5" y="260" transform="matrix(-0.1298 0.9915 -0.9915 -0.1298 562.0829 93.9967)" class="st8" width="8.6" height="67.3"/>
			</g>
		</g>
		<g>
			<g>
				
					<rect x="236.3" y="349" transform="matrix(-0.4319 0.9019 -0.9019 -0.4319 705.1594 262.4384)" class="st8" width="67.3" height="8.6"/>
			</g>
		</g>
		<g>
			<g>
				
					<rect x="304.8" y="338.7" transform="matrix(0.7496 0.6619 -0.6619 0.7496 311.8029 -138.1462)" class="st8" width="67.4" height="8.6"/>
			</g>
		</g>
	</g>
	<g>
		<g>
			<path class="st8" d="M417.2,476c-1.1,0-2.1-0.4-3-1.2c-1.9-1.7-2-4.5-0.3-6.4c37.9-42.3,59.6-103.1,59.6-166.9
				c0-47.8-11.8-93.3-34.1-131.7c-1.2-2.1-0.5-4.9,1.6-6.2c2.1-1.3,4.9-0.5,6.2,1.6c23.1,39.8,35.4,86.9,35.4,136.3
				c0,66-22.6,129.1-62,173C419.6,475.5,418.4,476,417.2,476z"/>
		</g>
		<g>
			<g>
				<g>
					
						<rect x="406.5" y="164" transform="matrix(-0.9033 0.429 -0.429 -0.9033 939.4725 159.8685)" class="st9" width="90.4" height="43.6"/>
				</g>
				<g>
					<path class="st8" d="M483.2,146.8c0,0-19.1,7.7-25.3,23.9c-4.4,11.5-1,24.1,1.3,30.4c-3.6-5.8-11.4-16.2-23-19.9
						c-16.5-5.3-34.4,4.9-34.4,4.9s8.7,18.7,25.1,24c16.5,5.3,34.3-4.8,34.3-4.8s0,0,0-0.1c3.5-1.5,19.3-9.1,24.9-23.7
						C492.3,165.3,483.2,146.8,483.2,146.8z"/>
				</g>
			</g>
			<g>
				<g>
					
						<rect x="422.4" y="206.2" transform="matrix(-0.9657 0.2597 -0.2597 -0.9657 978.4033 326.6236)" class="st9" width="90.4" height="43.6"/>
				</g>
				<g>
					<path class="st8" d="M505.6,195.2c0,0-20.2,4.2-29.2,19c-6.3,10.5-5.3,23.5-4.2,30.2c-2.5-6.4-8.3-17.9-19-23.7
						c-15.3-8.1-34.8-1.4-34.8-1.4s5.1,20,20.4,28.1c15.3,8.1,34.6,1.4,34.6,1.4s0,0,0-0.1c3.7-0.9,20.6-5.5,28.7-18.9
						C511.2,215.1,505.6,195.2,505.6,195.2z"/>
				</g>
			</g>
			<g>
				<g>
					
						<rect x="431" y="250.4" transform="matrix(-0.9962 8.661220e-02 -8.661220e-02 -0.9962 974.1254 502.0818)" class="st9" width="90.4" height="43.6"/>
				</g>
				<g>
					<path class="st8" d="M519.3,246.6c0,0-20.6,0.6-32,13.6c-8.1,9.2-9.4,22.2-9.4,29c-1.3-6.7-5-19.1-14.6-26.6
						c-13.6-10.7-34-7.4-34-7.4s1.6,20.6,15.2,31.3c13.6,10.7,33.9,7.5,33.9,7.5s0,0,0-0.1c3.8-0.2,21.3-1.8,31.6-13.6
						C521.3,267.1,519.3,246.6,519.3,246.6z"/>
				</g>
			</g>
			<g>
				<g>
					
						<rect x="432.4" y="295.4" transform="matrix(-0.9958 -9.144000e-02 9.144000e-02 -0.9958 924.1906 676.7756)" class="st9" width="90.4" height="43.6"/>
				</g>
				<g>
					<path class="st8" d="M524.6,299.7c0,0-20.4-3.1-33.9,7.7c-9.6,7.6-13.2,20.2-14.4,26.8c-0.1-6.8-1.5-19.7-9.6-28.8
						c-11.5-12.9-32.1-13.4-32.1-13.4s-2.1,20.5,9.4,33.4c11.5,12.9,32,13.3,32,13.3s0,0,0-0.1c3.8,0.4,21.3,2,33.5-7.7
						C522.9,320.3,524.6,299.7,524.6,299.7z"/>
				</g>
			</g>
			<g>
				<g>
					
						<rect x="427" y="340.2" transform="matrix(-0.983 -0.1836 0.1836 -0.983 869.9874 804.5655)" class="st9" width="90.4" height="43.6"/>
				</g>
				<g>
					<path class="st8" d="M520.7,348.9c0,0-20-5-34.5,4.5c-10.3,6.7-15,18.9-16.9,25.4c0.5-6.8,0.3-19.7-6.9-29.6
						c-10.2-13.9-30.7-16.3-30.7-16.3s-4,20.2,6.2,34.2c10.2,13.9,30.6,16.3,30.6,16.3s0,0,0-0.1c3.7,0.8,21,4,34.1-4.6
						C517.1,369.3,520.7,348.9,520.7,348.9z"/>
				</g>
			</g>
			<g>
				<g>
					
						<rect x="414.2" y="383.6" transform="matrix(-0.931 -0.3649 0.3649 -0.931 739.2974 950.425)" class="st9" width="90.4" height="43.6"/>
				</g>
				<g>
					<path class="st8" d="M509.5,401.6c0,0-18.7-8.6-34.7-2.1c-11.3,4.7-18.3,15.7-21.3,21.8c1.8-6.6,4-19.3-1.2-30.3
						c-7.4-15.6-27.1-21.8-27.1-21.8s-7.7,19.1-0.3,34.7c7.4,15.6,27,21.7,27,21.7s0,0,0-0.1c3.5,1.5,19.9,7.8,34.3,1.9
						C502.2,420.9,509.5,401.6,509.5,401.6z"/>
				</g>
			</g>
			<g>
				<g>
					
						<rect x="393.8" y="423.9" transform="matrix(-0.8918 -0.4524 0.4524 -0.8918 628.8647 1041.7529)" class="st9" width="90.4" height="43.6"/>
				</g>
				<g>
					<path class="st8" d="M489.2,446.7c0,0-17.8-10.4-34.4-5.4c-11.7,3.6-19.7,13.9-23.3,19.6c2.4-6.4,5.8-18.9,1.7-30.3
						c-5.9-16.3-24.9-24.3-24.9-24.3s-9.5,18.3-3.6,34.6c5.9,16.3,24.8,24.2,24.8,24.2s0,0,0-0.1c3.3,1.8,19,9.7,34,5.2
						C480,465.2,489.2,446.7,489.2,446.7z"/>
				</g>
			</g>
		</g>
		<g>
			<path class="st8" d="M177.4,476c-1.2,0-2.5-0.5-3.4-1.5c-39.4-43.9-62-106.9-62-173c0-49.4,12.2-96.5,35.4-136.3
				c1.3-2.1,4-2.9,6.2-1.6c2.1,1.3,2.9,4,1.6,6.2c-22.3,38.4-34.1,83.9-34.1,131.7c0,63.8,21.7,124.7,59.6,166.9
				c1.7,1.9,1.5,4.7-0.3,6.4C179.5,475.6,178.4,476,177.4,476z"/>
		</g>
		<g>
			<g>
				<g>
					
						<rect x="97.6" y="164" transform="matrix(-0.9033 -0.429 0.429 -0.9033 192.1471 414.9229)" class="st9" width="90.4" height="43.6"/>
				</g>
				<g>
					<path class="st8" d="M193,185.6c0,0-18.1-9.9-34.5-4.5c-11.6,3.9-19.3,14.4-22.8,20.2c2.2-6.4,5.3-19,0.9-30.3
						c-6.3-16.1-25.6-23.6-25.6-23.6s-9,18.5-2.7,34.6c6.3,16.1,25.4,23.6,25.4,23.6s0,0,0-0.1c3.4,1.7,19.3,9.2,34.1,4.3
						C184.3,204.3,193,185.6,193,185.6z"/>
				</g>
			</g>
			<g>
				<g>
					
						<rect x="81.7" y="206.2" transform="matrix(-0.9657 -0.2597 0.2597 -0.9657 190.3044 481.0239)" class="st9" width="90.4" height="43.6"/>
				</g>
				<g>
					<path class="st8" d="M176.2,218.7c0,0-19.6-6.5-34.7,1.8c-10.7,5.9-16.4,17.6-18.8,24c1-6.7,1.8-19.7-4.6-30
						c-9.1-14.7-29.4-18.6-29.4-18.6s-5.6,19.9,3.6,34.6s29.3,18.6,29.3,18.6s0,0,0-0.1c3.6,1.1,20.6,5.6,34.3-1.9
						C171.1,238.7,176.2,218.7,176.2,218.7z"/>
				</g>
			</g>
			<g>
				<g>
					
						<rect x="73.2" y="250.4" transform="matrix(-0.9962 -8.661244e-02 8.661244e-02 -0.9962 212.7462 553.5775)" class="st9" width="90.4" height="43.6"/>
				</g>
				<g>
					<path class="st8" d="M165.3,254.4c0,0-20.4-3-33.9,7.8c-9.5,7.7-13.1,20.2-14.3,26.9c-0.2-6.8-1.6-19.7-9.8-28.7
						c-11.6-12.9-32.2-13.2-32.2-13.2s-2,20.5,9.6,33.4s32.1,13.2,32.1,13.2s0,0,0-0.1c3.8,0.4,21.3,1.9,33.5-7.9
						C163.7,275,165.3,254.4,165.3,254.4z"/>
				</g>
			</g>
			<g>
				<g>
					
						<rect x="71.7" y="295.4" transform="matrix(-0.9958 9.144024e-02 -9.144024e-02 -0.9958 262.4246 622.4097)" class="st9" width="90.4" height="43.6"/>
				</g>
				<g>
					<path class="st8" d="M160,291.4c0,0-20.6,0.7-32,13.7c-8,9.3-9.3,22.2-9.3,29c-1.4-6.7-5.1-19.1-14.7-26.6
						c-13.7-10.6-34-7.3-34-7.3s1.7,20.6,15.3,31.2s33.9,7.3,33.9,7.3s0,0,0-0.1c3.8-0.3,21.3-1.9,31.5-13.7
						C162.1,311.9,160,291.4,160,291.4z"/>
				</g>
			</g>
			<g>
				<g>
					
						<rect x="77.1" y="340.2" transform="matrix(-0.983 0.1836 -0.1836 -0.983 309.0159 695.4269)" class="st9" width="90.4" height="43.6"/>
				</g>
				<g>
					<path class="st8" d="M162.8,332.3c0,0-20.5,2.6-30.5,16.6c-7.1,10-7.2,23-6.6,29.8c-2-6.5-6.9-18.5-17.1-25.1
						C94,344.4,74,349.6,74,349.6s3.6,20.3,18.2,29.6c14.6,9.3,34.4,4.1,34.4,4.1s0,0,0-0.1c3.7-0.6,21-3.9,30.1-16.6
						C166.8,352.6,162.8,332.3,162.8,332.3z"/>
				</g>
			</g>
			<g>
				<g>
					
						<rect x="89.9" y="383.6" transform="matrix(-0.931 0.3649 -0.3649 -0.931 408.8038 733.4498)" class="st9" width="90.4" height="43.6"/>
				</g>
				<g>
					<path class="st8" d="M169.3,368.6c0,0-19.6,6.4-26.9,22.1c-5.1,11.1-2.7,23.9-0.9,30.5c-3.2-6-10.2-16.9-21.5-21.4
						c-16.1-6.4-34.7,2.5-34.7,2.5s7.3,19.3,23.4,25.7c16.1,6.4,34.6-2.4,34.6-2.4s0,0,0-0.1c3.6-1.3,19.9-7.8,26.5-22
						C177,387.7,169.3,368.6,169.3,368.6z"/>
				</g>
			</g>
			<g>
				<g>
					
						<rect x="110.3" y="423.9" transform="matrix(-0.8918 0.4524 -0.4524 -0.8918 495.9131 772.7642)" class="st9" width="90.4" height="43.6"/>
				</g>
				<g>
					<path class="st8" d="M186,405.8c0,0-18.9,8.2-24.6,24.6c-4.1,11.6-0.4,24.1,2.1,30.4c-3.7-5.7-11.8-15.8-23.5-19.2
						c-16.6-4.8-34.3,5.8-34.3,5.8s9.1,18.5,25.8,23.3s34.2-5.7,34.2-5.7s0,0,0-0.1c3.4-1.6,19.1-9.6,24.2-24.4
						C195.6,424.1,186,405.8,186,405.8z"/>
				</g>
			</g>
		</g>
	</g>
</g>
</svg>
