<?xml version="1.0" encoding="utf-8"?>
<!-- Generator: Adobe Illustrator 17.0.0, SVG Export Plug-In . SVG Version: 6.00 Build 0)  -->
<!DOCTYPE svg PUBLIC "-//W3C//DTD SVG 1.1//EN" "http://www.w3.org/Graphics/SVG/1.1/DTD/svg11.dtd" [
	<!ENTITY ns_flows "http://ns.adobe.com/Flows/1.0/">
	<!ENTITY ns_extend "http://ns.adobe.com/Extensibility/1.0/">
	<!ENTITY ns_ai "http://ns.adobe.com/AdobeIllustrator/10.0/">
	<!ENTITY ns_graphs "http://ns.adobe.com/Graphs/1.0/">
]>
<svg version="1.1" xmlns:x="&ns_extend;" xmlns:i="&ns_ai;" xmlns:graph="&ns_graphs;"
	 xmlns="http://www.w3.org/2000/svg" xmlns:xlink="http://www.w3.org/1999/xlink" xmlns:a="http://ns.adobe.com/AdobeSVGViewerExtensions/3.0/"
	 x="0px" y="0px" width="600px" height="600px" viewBox="0 0 600 600" style="enable-background:new 0 0 600 600;"
	 xml:space="preserve">
<style type="text/css">
	.st0{fill:#4EC928;}
	.st1{fill:#12B3FF;}
	.st2{fill:#687CFF;}
	.st3{fill:#6536FF;}
	.st4{fill:#C06AFF;}
	.st5{fill:#C90FAA;}
	.st6{fill:#FF5A79;}
	.st7{fill:#FF6A14;}
	.st8{fill:#FFFFFF;}
	.st9{fill:none;}
	.st10{adobe-knockout:true;}
	.st11{fill:#C90FAA;stroke:#FFFFFF;stroke-width:10;stroke-linecap:round;stroke-miterlimit:10;adobe-knockout:false;}
</style>
<g id="Layer_2">
	<rect class="st7" width="600" height="600"/>
</g>
<g id="Layer_1">
	<g>
		<g>
			<g>
				<path class="st8" d="M279.3,545.8c-39.7,0-74.2-7.3-89.5-11.1c-18.1-4.5-31.7-14.4-39.4-28.7c-9.3-17.3-8-36.8-3.6-49.2
					c4.7-13.3,9-59.7,10.2-76.5c0.2-3.3,2.2-6.1,5.2-7.5c3-1.4,6.5-1,9.1,0.9c0.2,0.1,20.3,14.6,55.3,23
					c32.2,7.7,83.9,11.7,147.8-13c1.3-0.6,2.6-1.3,3.7-1.9c-0.3-18.3,1.9-22.4,2.9-24.2c2.4-4.3,7.9-5.9,12.2-3.5
					c4.2,2.4,5.8,7.7,3.6,11.9c-2.8,8.5,1.5,65.9,9.7,97.7c9.5,36.7-7.9,49.2-15.3,54.5l-0.2,0.1c-0.2,0.1-0.3,0.2-0.5,0.3
					C356.8,539.6,315.9,545.8,279.3,545.8z M173.8,396.2c-1.8,19.8-5.4,53.5-10,66.6c-3,8.4-4.1,22.5,2.5,34.7
					c5.3,9.9,14.7,16.5,27.9,19.8c17,4.2,51.2,11.2,89.9,10.5c39.1-0.7,71.7-8.8,96.9-24.3c6.2-4.4,14.6-10.6,8.3-35.2
					c-3.9-15-7.6-38.7-9.6-61.7c-0.2-1.9-0.3-3.7-0.5-5.4C311.4,427,256.1,422.4,221.5,414C200.3,408.8,184.1,401.6,173.8,396.2z"/>
			</g>
			<g>
				<path class="st8" d="M192,390C192,390,192,390,192,390c-53,0-82.3-9.9-92.1-31.4c-6.5-14.2-6-28.3,1.5-40.9
					c8-13.4,23.6-24.2,46.3-32.3c22.9-8.2,52.4-13.4,87.9-15.4c8.4-0.5,16.9-0.7,25.1-0.7c99.2,0,156.7,34.6,176.8,49.5
					c13.7,10.2,14.4,19.9,12.6,26.3c-4.5,15.7-28.2,23.2-47.2,24.9c-29.2,2.5-55,5.8-87.7,9.9c-10.3,1.3-21.2,2.5-33,3.9
					C245.5,388.1,216.1,390,192,390z M260.6,287.3c-7.9,0-16,0.2-24.1,0.7c-90,5.2-113.7,29.1-119.8,39.1
					c-4.5,7.4-4.7,15.3-0.6,24.2c8,17.4,45.6,21.1,75.8,21.1c23.4,0,52.1-2,88-6.3c11.8-1.4,22.6-2.8,32.9-4.1
					c32.9-4.1,58.8-7.4,88.4-9.9c18.9-1.6,30.5-8.6,31.4-11.8c0.1-0.4-0.5-2.9-6-7c-8.9-6.6-28.3-19.1-58.9-29.5
					C335.4,292.8,299.3,287.3,260.6,287.3z"/>
			</g>
			<g>
				<path class="st8" d="M275,362c-29.4,0-57-2.8-77.7-7.8c-23.4-5.7-35.3-13.5-35.3-23.2c0-9.8,12-17.6,35.8-23.2
					c21-5,48.7-7.8,78.2-7.8s57.3,2.8,78.2,7.8C378,313.4,390,321.2,390,331c0,9.8-12.2,17.6-36.3,23.3
					C332.5,359.2,304.6,362,275,362z M276,310c-28.7,0-55.7,2.7-75.9,7.5c-23,5.5-28.1,11.6-28.1,13.5c0,1.9,5,8.1,27.6,13.5
					c20,4.8,46.7,7.5,75.4,7.5c28.8,0,55.9-2.7,76.4-7.5C374.9,339,380,332.9,380,331c0-1.9-5-8-28.1-13.5
					C331.7,312.7,304.8,310,276,310z"/>
			</g>
			<g>
				<g>
					<g>
						<g>
							<path class="st8" d="M407.5,73.1c9.9-6.9,21.5-10.4,33.6-10.1c30.9,0.8,55.4,26.7,54.6,57.6c-0.5,17.7-9.4,34.3-24,44.5
								c-9.9,6.9-21.5,10.4-33.6,10.1c-15-0.4-28.9-6.6-39.2-17.5c-10.3-10.9-15.8-25.1-15.4-40.1C384,99.9,393,83.3,407.5,73.1z
								 M466.9,158.3c12.3-8.6,20-22.8,20.4-37.8c0.7-26.3-20.1-48.2-46.4-49c-10.3-0.3-20.2,2.7-28.6,8.6
								c-12.3,8.6-20,22.8-20.4,37.8c-0.3,12.7,4.3,24.8,13,34.1c8.8,9.2,20.6,14.5,33.3,14.9C448.6,167.1,458.5,164.1,466.9,158.3z
								"/>
						</g>
					</g>
					<g>
						<g>
							<polygon class="st8" points="478.9,152.8 474.5,130.6 491.7,115.7 							"/>
						</g>
					</g>
					<g>
						<g>
							<polygon class="st8" points="396.5,90.5 419,88.7 428.8,68.2 							"/>
						</g>
					</g>
					<g>
						<g>
							<polygon class="st8" points="418,166.5 437.9,155.7 457.2,167.6 							"/>
						</g>
					</g>
					<g>
						<g>
							<polygon class="st8" points="452.1,68.4 461,89.2 483.5,91.9 							"/>
						</g>
					</g>
					<g>
						<g>
							<polygon class="st8" points="399.2,151.7 404.5,129.7 387.9,114.1 							"/>
						</g>
					</g>
					<g>
						<g>
							<polygon class="st8" points="453.4,100.1 461,125.6 439,140.6 417.9,124.4 426.8,99.4 							"/>
						</g>
					</g>
					<g>
						<g>
							
								<rect x="436.3" y="131.2" transform="matrix(-0.9988 -4.858717e-02 4.858717e-02 -0.9988 869.2027 316.6744)" class="st8" width="4.2" height="33.1"/>
						</g>
					</g>
					<g>
						<g>
							
								<rect x="450.2" y="125.7" transform="matrix(-0.9491 -0.315 0.315 -0.9491 869.5318 396.2314)" class="st8" width="33.1" height="4.2"/>
						</g>
					</g>
					<g>
						<g>
							
								<rect x="454.6" y="79.4" transform="matrix(-0.8071 -0.5904 0.5904 -0.8071 768.6832 443.0563)" class="st8" width="4.2" height="33.1"/>
						</g>
					</g>
					<g>
						<g>
							
								<rect x="407.3" y="92.7" transform="matrix(-0.5832 -0.8123 0.8123 -0.5832 594.0256 494.4682)" class="st8" width="33.1" height="4.2"/>
						</g>
					</g>
					<g>
						<g>
							
								<rect x="395.5" y="124.7" transform="matrix(-0.9407 0.3392 -0.3392 -0.9407 842.7446 106.4402)" class="st8" width="33.2" height="4.2"/>
						</g>
					</g>
				</g>
			</g>
			<g>
				<g>
					<g>
						<g>
							<path class="st8" d="M282.6,206.7c-1.4-9.7,0.3-19.4,4.9-28c11.8-22.1,39.4-30.4,61.5-18.6c12.6,6.8,21.4,19.3,23.5,33.5
								c1.4,9.7-0.3,19.4-4.9,28c-5.7,10.7-15.3,18.5-26.9,22c-11.6,3.5-23.9,2.3-34.6-3.5C293.5,233.4,284.7,220.9,282.6,206.7z
								 M365.8,194.6c-1.8-12.1-9.2-22.7-20-28.5c-18.8-10.1-42.2-3-52.3,15.8c-3.9,7.3-5.4,15.6-4.2,23.8
								c1.8,12.1,9.2,22.7,20,28.5c9.1,4.9,19.5,5.9,29.4,2.9c9.9-3,18-9.6,22.9-18.7C365.6,211.1,367,202.8,365.8,194.6z"/>
						</g>
					</g>
					<g>
						<g>
							<polygon class="st8" points="366.2,183.9 348.6,179 344,161.2 							"/>
						</g>
					</g>
					<g>
						<g>
							<polygon class="st8" points="291.1,221 298.1,204 286.8,189.5 							"/>
						</g>
					</g>
					<g>
						<g>
							<polygon class="st8" points="354,233 353.4,214.7 369.1,205 							"/>
						</g>
					</g>
					<g>
						<g>
							<polygon class="st8" points="295.4,172.7 313.7,173.8 323.8,158.5 							"/>
						</g>
					</g>
					<g>
						<g>
							<polygon class="st8" points="336.5,241.2 322.5,229.4 305.2,235.7 							"/>
						</g>
					</g>
					<g>
						<g>
							<polygon class="st8" points="318.8,183.2 340,187 342.9,208.4 323.5,217.8 308.6,202.2 							"/>
						</g>
					</g>
					<g>
						<g>
							
								<rect x="346.2" y="198" transform="matrix(-0.4914 0.871 -0.871 -0.4914 702.9391 12.2699)" class="st8" width="3.4" height="26.8"/>
						</g>
					</g>
					<g>
						<g>
							
								<rect x="330.3" y="181.9" transform="matrix(-0.7072 0.707 -0.707 -0.7072 716.6954 70.4668)" class="st8" width="26.8" height="3.4"/>
						</g>
					</g>
					<g>
						<g>
							
								<rect x="315.3" y="165.9" transform="matrix(-0.8897 0.4566 -0.4566 -0.8897 680.9255 194.1544)" class="st8" width="3.4" height="26.8"/>
						</g>
					</g>
					<g>
						<g>
							
								<rect x="290.9" y="201" transform="matrix(-0.9876 0.157 -0.157 -0.9876 636.599 355.1738)" class="st8" width="26.8" height="3.4"/>
						</g>
					</g>
					<g>
						<g>
							
								<rect x="309.7" y="221.2" transform="matrix(-0.1187 0.9929 -0.9929 -0.1187 582.8533 -71.5152)" class="st8" width="26.9" height="3.4"/>
						</g>
					</g>
				</g>
			</g>
		</g>
		<g>
			<g>
				<circle class="st6" cx="279.1" cy="300.4" r="31.4"/>
			</g>
			<g>
				<g>
					<g>
						<g>
							<path class="st8" d="M248.4,289c2.4-6.7,6.8-12.4,12.7-16.4c15.2-10.2,35.8-6.1,46,9.1c5.8,8.7,7.2,19.8,3.7,29.6
								c-2.4,6.7-6.8,12.4-12.7,16.4c-7.3,4.9-16.2,6.7-24.9,5c-8.7-1.7-16.2-6.7-21.1-14C246.3,309.9,244.9,298.9,248.4,289z
								 M306.1,309.6c3-8.4,1.8-17.8-3.1-25.2c-8.7-12.9-26.2-16.3-39.1-7.7c-5,3.4-8.8,8.2-10.8,13.9c-3,8.4-1.8,17.8,3.1,25.2
								c4.2,6.2,10.6,10.5,17.9,11.9c7.4,1.5,14.9-0.1,21.1-4.2C300.3,320.2,304.1,315.3,306.1,309.6z"/>
						</g>
					</g>
					<g>
						<g>
							<polygon class="st8" points="310,302.9 300.3,293.7 303.5,280.7 							"/>
						</g>
					</g>
					<g>
						<g>
							<polygon class="st8" points="249,301.1 259.3,292.6 257,279.3 							"/>
						</g>
					</g>
					<g>
						<g>
							<polygon class="st8" points="285.4,330.3 291.3,318.3 304.7,317.5 							"/>
						</g>
					</g>
					<g>
						<g>
							<polygon class="st8" points="268.3,271.5 279.7,278.5 291.4,272 							"/>
						</g>
					</g>
					<g>
						<g>
							<polygon class="st8" points="271.3,329.7 266.3,317.3 253,315.4 							"/>
						</g>
					</g>
					<g>
						<g>
							<polygon class="st8" points="279.7,286.3 292.1,295.9 286.6,310.7 271,310.1 266.7,295 							"/>
						</g>
					</g>
					<g>
						<g>
							
								<rect x="287.6" y="304.6" transform="matrix(-0.8422 0.5392 -0.5392 -0.8422 701.5717 423.2924)" class="st8" width="2.5" height="19.5"/>
						</g>
					</g>
					<g>
						<g>
							
								<rect x="285.9" y="293.8" transform="matrix(-0.956 0.2933 -0.2933 -0.956 664.8347 490.401)" class="st8" width="19.5" height="2.5"/>
						</g>
					</g>
					<g>
						<g>
							
								<rect x="278.6" y="273.4" transform="matrix(-0.9999 -1.345561e-02 1.345561e-02 -0.9999 555.949 570.0176)" class="st8" width="2.5" height="19.5"/>
						</g>
					</g>
					<g>
						<g>
							
								<rect x="253.9" y="292.6" transform="matrix(-0.9461 -0.324 0.324 -0.9461 417.9715 657.293)" class="st8" width="19.5" height="2.5"/>
						</g>
					</g>
					<g>
						<g>
							
								<rect x="259.2" y="312" transform="matrix(-0.5701 0.8216 -0.8216 -0.5701 679.7198 270.914)" class="st8" width="19.6" height="2.5"/>
						</g>
					</g>
				</g>
			</g>
		</g>
	</g>
</g>
</svg>
