<?xml version="1.0" encoding="utf-8"?>
<!-- Generator: Adobe Illustrator 17.0.0, SVG Export Plug-In . SVG Version: 6.00 Build 0)  -->
<!DOCTYPE svg PUBLIC "-//W3C//DTD SVG 1.1//EN" "http://www.w3.org/Graphics/SVG/1.1/DTD/svg11.dtd" [
	<!ENTITY ns_flows "http://ns.adobe.com/Flows/1.0/">
	<!ENTITY ns_extend "http://ns.adobe.com/Extensibility/1.0/">
	<!ENTITY ns_ai "http://ns.adobe.com/AdobeIllustrator/10.0/">
	<!ENTITY ns_graphs "http://ns.adobe.com/Graphs/1.0/">
]>
<svg version="1.1" xmlns:x="&ns_extend;" xmlns:i="&ns_ai;" xmlns:graph="&ns_graphs;"
	 xmlns="http://www.w3.org/2000/svg" xmlns:xlink="http://www.w3.org/1999/xlink" xmlns:a="http://ns.adobe.com/AdobeSVGViewerExtensions/3.0/"
	 x="0px" y="0px" width="600px" height="600px" viewBox="0 0 600 600" style="enable-background:new 0 0 600 600;"
	 xml:space="preserve">
<style type="text/css">
	.st0{fill:#4EC928;}
	.st1{fill:#12B3FF;}
	.st2{fill:#687CFF;}
	.st3{fill:#6536FF;}
	.st4{fill:#C06AFF;}
	.st5{fill:#C90FAA;}
	.st6{fill:#FF5A79;}
	.st7{fill:#FF6A14;}
	.st8{fill:#FFFFFF;}
	.st9{fill:none;}
	.st10{adobe-knockout:true;}
	.st11{fill:#C90FAA;stroke:#FFFFFF;stroke-width:10;stroke-linecap:round;stroke-miterlimit:10;adobe-knockout:false;}
</style>
<g id="Layer_2">
	<rect class="st3" width="600" height="600"/>
</g>
<g id="Layer_1">
	<g>
		<g>
			<g>
				<g>
					<path class="st8" d="M157.3,390.7c5-14.1,14.2-25.9,26.6-34.2c31.7-21.3,74.8-12.8,96.1,18.9c12.2,18.2,15.1,41.3,7.7,61.9
						c-5,14.1-14.2,25.9-26.6,34.2c-15.4,10.3-33.8,14-52,10.4c-18.2-3.6-33.8-14-44.1-29.4C152.9,434.5,150,411.4,157.3,390.7z
						 M278,433.9c6.2-17.5,3.8-37.2-6.6-52.6c-18.1-27-54.7-34.2-81.7-16.1c-10.6,7.1-18.4,17.1-22.6,29.1
						c-6.2,17.5-3.8,37.2,6.6,52.6c8.8,13.1,22.1,21.9,37.5,25c15.4,3,31.1-0.1,44.2-8.9C265.9,455.8,273.7,445.8,278,433.9z"/>
				</g>
			</g>
			<g>
				<g>
					<polygon class="st8" points="286.2,419.8 265.9,400.6 272.5,373.3 					"/>
				</g>
			</g>
			<g>
				<g>
					<polygon class="st8" points="158.6,416 180.1,398.1 175.2,370.5 					"/>
				</g>
			</g>
			<g>
				<g>
					<polygon class="st8" points="234.7,477.2 247,452.1 275,450.2 					"/>
				</g>
			</g>
			<g>
				<g>
					<polygon class="st8" points="198.8,354.1 222.7,368.6 247.3,355.2 					"/>
				</g>
			</g>
			<g>
				<g>
					<polygon class="st8" points="205.3,475.7 194.8,449.8 167,446 					"/>
				</g>
			</g>
			<g>
				<g>
					<polygon class="st8" points="222.9,385 248.6,405.2 237.3,436 204.5,434.8 195.6,403.3 					"/>
				</g>
			</g>
			<g>
				<g>
					
						<rect x="239.3" y="423.2" transform="matrix(-0.8422 0.5392 -0.5392 -0.8422 684.8049 686.8666)" class="st8" width="5.2" height="40.9"/>
				</g>
			</g>
			<g>
				<g>
					
						<rect x="235.7" y="400.7" transform="matrix(-0.956 0.2933 -0.2933 -0.956 619.2892 713.8303)" class="st8" width="40.9" height="5.2"/>
				</g>
			</g>
			<g>
				<g>
					
						<rect x="220.6" y="358" transform="matrix(-0.9999 -1.345561e-02 1.345561e-02 -0.9999 441.2469 759.8708)" class="st8" width="5.2" height="40.9"/>
				</g>
			</g>
			<g>
				<g>
					
						<rect x="168.9" y="398.2" transform="matrix(-0.9461 -0.324 0.324 -0.9461 238.5688 841.4252)" class="st8" width="40.9" height="5.2"/>
				</g>
			</g>
			<g>
				<g>
					
						<rect x="179.9" y="438.9" transform="matrix(-0.5701 0.8216 -0.8216 -0.5701 677.3148 528.5735)" class="st8" width="40.9" height="5.2"/>
				</g>
			</g>
		</g>
		<g>
			<path class="st8" d="M315.4,320.1c-9.6,12.4-27,16.4-38.8,8.9c-11.7-7.5-15.5-25-8.4-38.9L367,97.7c7.1-13.9,23.8-18.5,37-10.1
				l37.4,23.8c13.2,8.4,16.2,25.4,6.6,37.8L315.4,320.1z"/>
		</g>
	</g>
</g>
</svg>
