<?xml version="1.0" encoding="utf-8"?>
<!-- Generator: Adobe Illustrator 17.0.0, SVG Export Plug-In . SVG Version: 6.00 Build 0)  -->
<!DOCTYPE svg PUBLIC "-//W3C//DTD SVG 1.1//EN" "http://www.w3.org/Graphics/SVG/1.1/DTD/svg11.dtd" [
	<!ENTITY ns_flows "http://ns.adobe.com/Flows/1.0/">
	<!ENTITY ns_extend "http://ns.adobe.com/Extensibility/1.0/">
	<!ENTITY ns_ai "http://ns.adobe.com/AdobeIllustrator/10.0/">
	<!ENTITY ns_graphs "http://ns.adobe.com/Graphs/1.0/">
]>
<svg version="1.1" xmlns:x="&ns_extend;" xmlns:i="&ns_ai;" xmlns:graph="&ns_graphs;"
	 xmlns="http://www.w3.org/2000/svg" xmlns:xlink="http://www.w3.org/1999/xlink" xmlns:a="http://ns.adobe.com/AdobeSVGViewerExtensions/3.0/"
	 x="0px" y="0px" width="600px" height="600px" viewBox="0 0 600 600" style="enable-background:new 0 0 600 600;"
	 xml:space="preserve">
<style type="text/css">
	.st0{fill:#4EC928;}
	.st1{fill:#12B3FF;}
	.st2{fill:#687CFF;}
	.st3{fill:#6536FF;}
	.st4{fill:#C06AFF;}
	.st5{fill:#C90FAA;}
	.st6{fill:#FF5A79;}
	.st7{fill:#FF6A14;}
	.st8{fill:#FFFFFF;}
	.st9{fill:none;}
	.st10{adobe-knockout:true;}
	.st11{fill:#C90FAA;stroke:#FFFFFF;stroke-width:10;stroke-linecap:round;stroke-miterlimit:10;adobe-knockout:false;}
</style>
<g id="Layer_2">
	<rect class="st5" width="600" height="600"/>
</g>
<g id="Layer_1">
	<g>
		<g>
			<g>
				<path class="st8" d="M314.7,516L314.7,516c-17.1,0-33.3-6.9-45.4-19.5c-12-12.4-18.6-28.7-18.6-45.8l0.1-158.2l-7.6,7.8
					c-12.1,12.6-28.5,19.6-46.1,19.6c-16.6,0-32.4-6.3-44.5-17.9c-12.4-11.8-19.4-27.8-19.7-44.9s6-33.4,17.8-45.7l118-123.1
					c12-12.6,28.9-19.8,46.3-19.8c8.2,0,16.2,1.6,23.9,4.6c24.4,9.8,40.2,33.2,40.2,59.5l-0.2,318.2c0,17.1-6.6,33.4-18.7,45.7
					C347.9,509.1,331.7,516,314.7,516z M270.7,243.1l-0.1,207.7c0,11.9,4.6,23.2,13,31.9c8.4,8.6,19.4,13.4,31,13.4h0
					c23.9,0,44-20.7,44.1-45.2l0.2-318.2c0-18.1-10.8-34.1-27.6-40.9c-5.2-2.1-10.8-3.2-16.4-3.2c-12,0-23.6,5-31.8,13.6l-118,123.1
					c-8.1,8.5-12.5,19.7-12.2,31.5c0.3,11.8,5.1,22.8,13.6,30.9c8.3,7.9,19.2,12.3,30.6,12.3c12.1,0,23.3-4.8,31.7-13.5L270.7,243.1
					z"/>
			</g>
		</g>
		<g>
			<path class="st5" d="M321.1,238.2l-47.2,131l40.7-12.1l19.6,34.2c0,0,9.3-31,43-130.5"/>
			<path class="st8" d="M334.2,398.2c-2.5,0-4.8-1.3-6.1-3.5l-16.9-29.4l-35.3,10.6c-2.5,0.8-5.3,0-7.1-1.9
				c-1.8-1.9-2.4-4.7-1.5-7.2l47.2-131c1.3-3.6,5.3-5.5,9-4.2c3.6,1.3,5.5,5.3,4.2,9l-42.5,117.9l27.4-8.2c3.1-0.9,6.5,0.4,8.1,3.2
				l11.7,20.3c5.8-18,17.3-53.6,38.3-115.4c1.2-3.7,5.2-5.6,8.9-4.4c3.7,1.2,5.6,5.2,4.4,8.9c-33.2,98.2-42.8,130-42.9,130.3
				c-0.8,2.7-3.1,4.6-5.9,4.9C334.7,398.2,334.5,398.2,334.2,398.2z"/>
		</g>
		<g>
			<path class="st5" d="M410.8,236.2l47.2,131L416.5,357l-18.8,32.2c0,0-9.3-31-43-130.5"/>
			<path class="st8" d="M397.7,396.2c-0.3,0-0.6,0-0.8,0c-2.8-0.3-5.1-2.3-5.9-4.9c-0.1-0.3-9.7-32.1-42.9-130.3
				c-1.2-3.7,0.7-7.6,4.4-8.9c3.7-1.2,7.6,0.7,8.9,4.4c21,62,32.6,97.6,38.3,115.6l10.8-18.6c1.6-2.7,4.7-4,7.7-3.3l28.8,7
				l-42.8-118.7c-1.3-3.6,0.6-7.6,4.2-9c3.6-1.3,7.6,0.6,9,4.2l47.2,131c0.9,2.4,0.3,5.1-1.4,7.1c-1.7,1.9-4.4,2.7-6.9,2.1
				l-36.4-8.9l-16.2,27.7C402.5,394.9,400.2,396.2,397.7,396.2z"/>
		</g>
		<g>
			<circle class="st5" cx="365.9" cy="240.9" r="60"/>
			<path class="st8" d="M365.9,309c-37.5,0-68-30.5-68-68s30.5-68,68-68s68,30.5,68,68S403.4,309,365.9,309z M365.9,188.9
				c-28.7,0-52,23.3-52,52s23.3,52,52,52s52-23.3,52-52S394.6,188.9,365.9,188.9z"/>
		</g>
	</g>
</g>
</svg>
