<?xml version="1.0" encoding="utf-8"?>
<!-- Generator: Adobe Illustrator 17.0.0, SVG Export Plug-In . SVG Version: 6.00 Build 0)  -->
<!DOCTYPE svg PUBLIC "-//W3C//DTD SVG 1.1//EN" "http://www.w3.org/Graphics/SVG/1.1/DTD/svg11.dtd" [
	<!ENTITY ns_flows "http://ns.adobe.com/Flows/1.0/">
	<!ENTITY ns_extend "http://ns.adobe.com/Extensibility/1.0/">
	<!ENTITY ns_ai "http://ns.adobe.com/AdobeIllustrator/10.0/">
	<!ENTITY ns_graphs "http://ns.adobe.com/Graphs/1.0/">
]>
<svg version="1.1" xmlns:x="&ns_extend;" xmlns:i="&ns_ai;" xmlns:graph="&ns_graphs;"
	 xmlns="http://www.w3.org/2000/svg" xmlns:xlink="http://www.w3.org/1999/xlink" xmlns:a="http://ns.adobe.com/AdobeSVGViewerExtensions/3.0/"
	 x="0px" y="0px" width="600px" height="600px" viewBox="0 0 600 600" style="enable-background:new 0 0 600 600;"
	 xml:space="preserve">
<style type="text/css">
	.st0{fill:#4EC928;}
	.st1{fill:#12B3FF;}
	.st2{fill:#687CFF;}
	.st3{fill:#6536FF;}
	.st4{fill:#C06AFF;}
	.st5{fill:#C90FAA;}
	.st6{fill:#FF5A79;}
	.st7{fill:#FF6A14;}
	.st8{fill:#FFFFFF;}
	.st9{fill:none;}
	.st10{adobe-knockout:true;}
	.st11{fill:#C90FAA;stroke:#FFFFFF;stroke-width:10;stroke-linecap:round;stroke-miterlimit:10;adobe-knockout:false;}
</style>
<g id="Layer_2">
	<rect class="st5" width="600" height="600"/>
</g>
<g id="Layer_1">
	<g>
		<g>
			<path class="st8" d="M319,505h-38c-52.9,0-96-43.1-96-96V170c0-8.8,7.2-16,16-16s16,7.2,16,16v239c0,35.3,28.7,64,64,64h38
				c35.3,0,64-28.7,64-64V170c0-8.8,7.2-16,16-16s16,7.2,16,16v239C415,461.9,371.9,505,319,505z"/>
		</g>
		<g>
			<path class="st8" d="M203,181c-2.6,0-5.1-1-7.1-2.9c-3.9-3.9-3.9-10.2,0-14.1l37.5-37.5c3.9-3.9,10.2-3.9,14.1,0
				c3.9,3.9,3.9,10.2,0,14.1l-37.5,37.5C208.1,180,205.6,181,203,181z"/>
		</g>
		<g>
			<path class="st8" d="M203,226c-2.6,0-5.1-1-7.1-2.9c-3.9-3.9-3.9-10.2,0-14.1l37.5-37.5c3.9-3.9,10.2-3.9,14.1,0
				c3.9,3.9,3.9,10.2,0,14.1l-37.5,37.5C208.1,225,205.6,226,203,226z"/>
		</g>
		<g>
			<path class="st8" d="M203,271c-2.6,0-5.1-1-7.1-2.9c-3.9-3.9-3.9-10.2,0-14.1l37.5-37.5c3.9-3.9,10.2-3.9,14.1,0
				c3.9,3.9,3.9,10.2,0,14.1l-37.5,37.5C208.1,270,205.6,271,203,271z"/>
		</g>
		<g>
			<path class="st8" d="M199,181c-2.6,0-5.1-1-7.1-2.9l-37.5-37.5c-3.9-3.9-3.9-10.2,0-14.1c3.9-3.9,10.2-3.9,14.1,0l37.5,37.5
				c3.9,3.9,3.9,10.2,0,14.1C204.1,180,201.6,181,199,181z"/>
		</g>
		<g>
			<polyline class="st8" points="397,163 359.5,200.5 397,111 438.5,200.5 401,163 			"/>
			<path class="st8" d="M359.5,210.5c-1.9,0-3.9-0.6-5.6-1.7c-4-2.7-5.5-7.8-3.7-12.2l37.5-89.5c1.5-3.7,5.1-6.1,9-6.1
				c4-0.1,7.6,2.2,9.3,5.8l41.5,89.5c2,4.4,0.6,9.6-3.3,12.4c-4,2.8-9.4,2.3-12.8-1.1L399,175.1l-32.4,32.4
				C364.6,209.5,362.1,210.5,359.5,210.5z M397.5,135.8l-9.1,21.7l1.6-1.6c2.5-2.5,5.9-3.4,9.1-2.7c2.4-0.5,4.9-0.1,7.1,1.2
				L397.5,135.8z"/>
		</g>
		<g>
			<path class="st8" d="M199,226c-2.6,0-5.1-1-7.1-2.9l-37.5-37.5c-3.9-3.9-3.9-10.2,0-14.1c3.9-3.9,10.2-3.9,14.1,0l37.5,37.5
				c3.9,3.9,3.9,10.2,0,14.1C204.1,225,201.6,226,199,226z"/>
		</g>
		<g>
			<path class="st8" d="M199,271c-2.6,0-5.1-1-7.1-2.9l-37.5-37.5c-3.9-3.9-3.9-10.2,0-14.1c3.9-3.9,10.2-3.9,14.1,0l37.5,37.5
				c3.9,3.9,3.9,10.2,0,14.1C204.1,270,201.6,271,199,271z"/>
		</g>
	</g>
</g>
</svg>
