<?xml version="1.0" encoding="utf-8"?>
<!-- Generator: Adobe Illustrator 17.0.0, SVG Export Plug-In . SVG Version: 6.00 Build 0)  -->
<!DOCTYPE svg PUBLIC "-//W3C//DTD SVG 1.1//EN" "http://www.w3.org/Graphics/SVG/1.1/DTD/svg11.dtd" [
	<!ENTITY ns_flows "http://ns.adobe.com/Flows/1.0/">
	<!ENTITY ns_extend "http://ns.adobe.com/Extensibility/1.0/">
	<!ENTITY ns_ai "http://ns.adobe.com/AdobeIllustrator/10.0/">
	<!ENTITY ns_graphs "http://ns.adobe.com/Graphs/1.0/">
]>
<svg version="1.1" xmlns:x="&ns_extend;" xmlns:i="&ns_ai;" xmlns:graph="&ns_graphs;"
	 xmlns="http://www.w3.org/2000/svg" xmlns:xlink="http://www.w3.org/1999/xlink" xmlns:a="http://ns.adobe.com/AdobeSVGViewerExtensions/3.0/"
	 x="0px" y="0px" width="600px" height="600px" viewBox="0 0 600 600" style="enable-background:new 0 0 600 600;"
	 xml:space="preserve">
<style type="text/css">
	.st0{fill:#4EC928;}
	.st1{fill:#12B3FF;}
	.st2{fill:#687CFF;}
	.st3{fill:#6536FF;}
	.st4{fill:#C06AFF;}
	.st5{fill:#C90FAA;}
	.st6{fill:#FF5A79;}
	.st7{fill:#FF6A14;}
	.st8{fill:#FFFFFF;}
	.st9{fill:none;}
	.st10{adobe-knockout:true;}
	.st11{fill:#C90FAA;stroke:#FFFFFF;stroke-width:10;stroke-linecap:round;stroke-miterlimit:10;adobe-knockout:false;}
</style>
<g id="Layer_2">
	<rect class="st6" width="600" height="600"/>
</g>
<g id="Layer_1">
	<g>
		<g>
			<g>
				<g>
					<g>
						<path class="st8" d="M394.3,145.8c5-14.1,14.2-25.9,26.6-34.2c31.7-21.3,74.8-12.8,96.1,18.9c12.2,18.2,15.1,41.3,7.7,61.9
							c-5,14.1-14.2,25.9-26.6,34.2c-15.4,10.3-33.8,14-52,10.4c-18.2-3.6-33.8-14-44.1-29.4C389.9,189.6,387,166.5,394.3,145.8z
							 M515,189c6.2-17.5,3.8-37.2-6.6-52.6c-18.1-27-54.7-34.2-81.7-16.1c-10.6,7.1-18.4,17.1-22.6,29.1
							c-6.2,17.5-3.8,37.2,6.6,52.6c8.8,13.1,22.1,21.9,37.5,25c15.4,3,31.1-0.1,44.2-8.9C502.9,210.9,510.7,200.9,515,189z"/>
					</g>
				</g>
				<g>
					<g>
						<polygon class="st8" points="523.2,174.9 502.9,155.7 509.5,128.4 						"/>
					</g>
				</g>
				<g>
					<g>
						<polygon class="st8" points="395.6,171.1 417.1,153.2 412.2,125.6 						"/>
					</g>
				</g>
				<g>
					<g>
						<polygon class="st8" points="471.7,232.3 484,207.2 512,205.3 						"/>
					</g>
				</g>
				<g>
					<g>
						<polygon class="st8" points="435.8,109.2 459.7,123.8 484.3,110.3 						"/>
					</g>
				</g>
				<g>
					<g>
						<polygon class="st8" points="442.3,230.8 431.8,204.9 404,201.1 						"/>
					</g>
				</g>
				<g>
					<g>
						<polygon class="st8" points="459.9,140.1 485.6,160.3 474.3,191.1 441.5,190 432.6,158.4 						"/>
					</g>
				</g>
				<g>
					<g>
						
							<rect x="476.3" y="178.3" transform="matrix(-0.8422 0.5392 -0.5392 -0.8422 989.3406 107.9373)" class="st8" width="5.2" height="40.9"/>
					</g>
				</g>
				<g>
					<g>
						
							<rect x="472.7" y="155.8" transform="matrix(-0.956 0.2933 -0.2933 -0.956 1011.0396 165.3033)" class="st8" width="40.9" height="5.2"/>
					</g>
				</g>
				<g>
					<g>
						
							<rect x="457.6" y="113.1" transform="matrix(-0.9999 -1.345561e-02 1.345561e-02 -0.9999 918.5206 273.2966)" class="st8" width="5.2" height="40.9"/>
					</g>
				</g>
				<g>
					<g>
						
							<rect x="405.9" y="153.4" transform="matrix(-0.9461 -0.324 0.324 -0.9461 779.1281 441.6344)" class="st8" width="40.9" height="5.2"/>
					</g>
				</g>
				<g>
					<g>
						
							<rect x="416.9" y="194" transform="matrix(-0.5701 0.8216 -0.8216 -0.5701 848.2352 -50.6467)" class="st8" width="40.9" height="5.2"/>
					</g>
				</g>
			</g>
		</g>
		<g>
			<path class="st8" d="M356,497H148V359h208V497z M166,479h172V377H166V479z"/>
		</g>
		<g>
			<path class="st8" d="M148.9,390.1l-58.3-38.7l131.6-198.3l58.3,38.7L148.9,390.1z M115.6,346.3l28.3,18.8l111.7-168.3L227.3,178
				L115.6,346.3z"/>
		</g>
		<g>
			
				<rect x="159.3" y="245" transform="matrix(0.5531 -0.8331 0.8331 0.5531 -145.9684 273.8459)" class="st8" width="46" height="56"/>
		</g>
		<g>
			<rect x="228" y="367" class="st8" width="46" height="120"/>
		</g>
		<g>
			<path class="st8" d="M91.3,326.1c-7.2,0-17.4-2.8-24.5-16.2c-4.8-9.1-5.7-17.3-2.5-24.4c6.1-13.9,24.7-18.8,48.2-25
				c14.7-3.9,31.4-8.3,46.3-15.4l29.8-14.3l-18.4,27.4c-0.5,0.7-11.2,16.7-25.8,32.9C123.4,314.7,106,326.1,91.3,326.1z
				 M136.8,272.6c-6.8,2-13.4,3.8-19.7,5.4c-15.8,4.2-33.7,8.9-36.3,14.8c-1,2.3,0.5,6,2,8.7c3.5,6.6,7,6.6,8.5,6.6
				C102.7,308.1,121.1,291.2,136.8,272.6z"/>
		</g>
		<g>
			<path class="st8" d="M146,286.9l4.6-32.7c2.3-16.3,1.4-33.6,0.6-48.8c-1.2-23.3-2.1-41.7,7.7-52.1c4.4-4.7,10.5-7.1,17.9-7.1
				c2.3,0,4.9,0.2,7.5,0.7c14.2,2.5,20,10.6,22.4,17c5.3,13.9-0.1,34.1-16.3,61.9c-11.2,19.1-23.4,34.6-23.9,35.2L146,286.9z
				 M176.8,164.2c-3.4,0-4.4,1.1-4.8,1.5c-4.6,4.8-3.7,22.1-2.8,38.8c0.3,6.5,0.7,13.3,0.8,20.3c1.7-2.7,3.4-5.4,5-8.3
				c17.7-30.4,16.3-42.5,14.9-46.3c-0.5-1.3-1.7-4.4-8.8-5.6C179.5,164.3,178.1,164.2,176.8,164.2z"/>
		</g>
		<g>
			<path class="st8" d="M148.8,264.2c-27.6,0-59.2-16.9-70.3-37.7c-5.4-10.1-5.4-20.3,0.2-28.7c3.7-5.5,10-8.6,17.9-8.6
				c24.7,0,69,30.9,72.6,63.8l0.9,8l-7.9,1.7C157.8,263.8,153.4,264.2,148.8,264.2z M96.5,207.2c-1.9,0-2.8,0.4-2.9,0.6
				c-0.7,1-2.7,4,0.7,10.2c8.6,16.1,35.8,28.2,54.4,28.2C139.8,226.7,111.1,207.2,96.5,207.2z"/>
		</g>
		<g>
			<path class="st8" d="M250,396c-2.7,0-5-2.1-5-4.9c-0.7-54.3,21.6-102.7,66.1-143.7c2-1.9,5.2-1.7,7.1,0.3c1.9,2,1.7,5.2-0.3,7.1
				c-42.4,39-63.5,84.8-62.9,136.2C255,393.7,252.8,396,250,396C250,396,250,396,250,396z"/>
		</g>
		<g>
			<path class="st8" d="M327.2,245.1c-1.5,0-2.9-0.6-3.9-1.8c-1.7-2.1-1.4-5.3,0.7-7c5.4-4.4,11.2-8.8,17.1-12.9
				c2.3-1.6,5.4-1,7,1.2c1.6,2.3,1,5.4-1.2,7c-5.7,4-11.3,8.2-16.5,12.5C329.4,244.7,328.3,245.1,327.2,245.1z"/>
		</g>
		<g>
			<path class="st8" d="M359.6,222.1c-1.7,0-3.3-0.8-4.2-2.4c-1.5-2.3-0.7-5.4,1.6-6.9c4.6-2.9,9.5-5.8,14.3-8.5
				c2.4-1.4,5.5-0.5,6.8,1.9c1.4,2.4,0.5,5.5-1.9,6.8c-4.7,2.7-9.4,5.5-13.9,8.3C361.4,221.8,360.5,222.1,359.6,222.1z"/>
		</g>
	</g>
</g>
</svg>
