<?xml version="1.0" encoding="utf-8"?>
<!-- Generator: Adobe Illustrator 17.0.0, SVG Export Plug-In . SVG Version: 6.00 Build 0)  -->
<!DOCTYPE svg PUBLIC "-//W3C//DTD SVG 1.1//EN" "http://www.w3.org/Graphics/SVG/1.1/DTD/svg11.dtd" [
	<!ENTITY ns_flows "http://ns.adobe.com/Flows/1.0/">
	<!ENTITY ns_extend "http://ns.adobe.com/Extensibility/1.0/">
	<!ENTITY ns_ai "http://ns.adobe.com/AdobeIllustrator/10.0/">
	<!ENTITY ns_graphs "http://ns.adobe.com/Graphs/1.0/">
]>
<svg version="1.1" xmlns:x="&ns_extend;" xmlns:i="&ns_ai;" xmlns:graph="&ns_graphs;"
	 xmlns="http://www.w3.org/2000/svg" xmlns:xlink="http://www.w3.org/1999/xlink" xmlns:a="http://ns.adobe.com/AdobeSVGViewerExtensions/3.0/"
	 x="0px" y="0px" width="600px" height="600px" viewBox="0 0 600 600" style="enable-background:new 0 0 600 600;"
	 xml:space="preserve">
<style type="text/css">
	.st0{fill:#4EC928;}
	.st1{fill:#12B3FF;}
	.st2{fill:#687CFF;}
	.st3{fill:#6536FF;}
	.st4{fill:#C06AFF;}
	.st5{fill:#C90FAA;}
	.st6{fill:#FF5A79;}
	.st7{fill:#FF6A14;}
	.st8{fill:#FFFFFF;}
	.st9{fill:none;}
	.st10{adobe-knockout:true;}
	.st11{fill:#C90FAA;stroke:#FFFFFF;stroke-width:10;stroke-linecap:round;stroke-miterlimit:10;adobe-knockout:false;}
</style>
<g id="Layer_2">
	<rect class="st7" width="600" height="600"/>
</g>
<g id="Layer_1">
	<g>
		<g>
			<g>
				<path class="st8" d="M101,430c-5.5,0-10-4.5-10-10V174c0-5.5,4.5-10,10-10h399c5.5,0,10,4.5,10,10v244c0,5.5-4.5,10-10,10
					s-10-4.5-10-10V184H111v236C111,425.5,106.5,430,101,430z"/>
			</g>
			<g>
				<polygon class="st8" points="417.5,375 367,375 367,365 409.5,365 437.9,236.2 491.6,174.9 499.1,181.5 447.1,240.9 				"/>
			</g>
			<g>
				<polygon class="st8" points="230,375 186.2,375 150.8,235.4 104.1,188.9 111.2,181.8 159.8,230.3 160.1,231.6 194,365 230,365 
									"/>
			</g>
			<g>
				
					<rect x="408.4" y="386.5" transform="matrix(0.8923 0.4514 -0.4514 0.8923 225.8293 -163.6844)" class="st8" width="95.3" height="10"/>
			</g>
			<g>
				
					<rect x="139.8" y="341.1" transform="matrix(0.4205 0.9073 -0.9073 0.4205 438.6523 95.1989)" class="st8" width="10" height="99.9"/>
			</g>
		</g>
	</g>
	<g>
		<g>
			<path class="st8" d="M237.4,424.9c-0.3,0-0.6,0-0.9-0.1c-4.1-0.5-6.9-4.2-6.4-8.3l8.3-65.4l47.5-18.3c3.8-1.5,8.1,0.4,9.6,4.3
				c1.5,3.8-0.4,8.1-4.3,9.6l-39.2,15.1l-7.2,56.6C244.2,422.2,241,424.9,237.4,424.9z"/>
		</g>
		<g>
			<path class="st8" d="M368.5,424.9c-3.7,0-6.9-2.7-7.3-6.5l-7.2-56.6l-39.2-15.1c-3.8-1.5-5.7-5.8-4.3-9.6
				c1.5-3.8,5.8-5.7,9.6-4.3l47.5,18.3l8.3,65.4c0.5,4.1-2.4,7.8-6.4,8.3C369.1,424.9,368.8,424.9,368.5,424.9z"/>
		</g>
		<g>
			<path class="st8" d="M242.5,304.7l-36.3-21.3c-3.5-2.1-4.7-6.6-2.6-10.1c2.1-3.5,6.6-4.7,10.1-2.6l31.1,18.3l34.1-8.2
				c4-1,8,1.5,8.9,5.5s-1.5,8-5.5,8.9L242.5,304.7z"/>
		</g>
		<g>
			<path class="st8" d="M357.3,304.7l-39.8-9.5c-4-1-6.4-5-5.5-8.9s5-6.4,8.9-5.5l34.3,8.2l35.2-18.5c3.6-1.9,8.1-0.5,10,3.1
				c1.9,3.6,0.5,8.1-3.1,10L357.3,304.7z"/>
		</g>
		<g>
			<g>
				<path class="st8" d="M302.5,346.8c-12.4,0-22.5,4.7-22.5-7.8v-75c0-12.4,10.1-22.5,22.5-22.5S325,251.6,325,264v75
					C325,351.4,314.9,346.8,302.5,346.8z"/>
			</g>
		</g>
		<g>
			<path class="st7" d="M302.9,293.2c-14.6,0-26.5-11.9-26.5-26.5s11.9-26.5,26.5-26.5s26.5,11.9,26.5,26.5S317.5,293.2,302.9,293.2
				z M302.9,247.6c-10.5,0-19.1,8.6-19.1,19.1s8.6,19.1,19.1,19.1s19.1-8.6,19.1-19.1S313.4,247.6,302.9,247.6z"/>
		</g>
	</g>
</g>
</svg>
