<?xml version="1.0" encoding="utf-8"?>
<!-- Generator: Adobe Illustrator 17.0.0, SVG Export Plug-In . SVG Version: 6.00 Build 0)  -->
<!DOCTYPE svg PUBLIC "-//W3C//DTD SVG 1.1//EN" "http://www.w3.org/Graphics/SVG/1.1/DTD/svg11.dtd" [
	<!ENTITY ns_flows "http://ns.adobe.com/Flows/1.0/">
	<!ENTITY ns_extend "http://ns.adobe.com/Extensibility/1.0/">
	<!ENTITY ns_ai "http://ns.adobe.com/AdobeIllustrator/10.0/">
	<!ENTITY ns_graphs "http://ns.adobe.com/Graphs/1.0/">
]>
<svg version="1.1" xmlns:x="&ns_extend;" xmlns:i="&ns_ai;" xmlns:graph="&ns_graphs;"
	 xmlns="http://www.w3.org/2000/svg" xmlns:xlink="http://www.w3.org/1999/xlink" xmlns:a="http://ns.adobe.com/AdobeSVGViewerExtensions/3.0/"
	 x="0px" y="0px" width="600px" height="600px" viewBox="0 0 600 600" style="enable-background:new 0 0 600 600;"
	 xml:space="preserve">
<style type="text/css">
	.st0{fill:#4EC928;}
	.st1{fill:#12B3FF;}
	.st2{fill:#687CFF;}
	.st3{fill:#6536FF;}
	.st4{fill:#C06AFF;}
	.st5{fill:#C90FAA;}
	.st6{fill:#FF5A79;}
	.st7{fill:#FF6A14;}
	.st8{fill:#FFFFFF;}
	.st9{fill:none;}
	.st10{adobe-knockout:true;}
	.st11{fill:#C90FAA;stroke:#FFFFFF;stroke-width:10;stroke-linecap:round;stroke-miterlimit:10;adobe-knockout:false;}
</style>
<g id="Layer_2">
	<rect class="st7" width="600" height="600"/>
</g>
<g id="Layer_1">
	<g>
		<path class="st8" d="M235.2,529.7c-23.8,0-43.1-19.3-43.1-43.1s19.3-43.1,43.1-43.1c23.8,0,43.1,19.3,43.1,43.1
			S258.9,529.7,235.2,529.7z M235.2,461.6c-13.8,0-25.1,11.2-25.1,25.1s11.2,25.1,25.1,25.1s25.1-11.2,25.1-25.1
			S249,461.6,235.2,461.6z"/>
	</g>
	<g>
		<path class="st8" d="M448.8,476.7c-23.8,0-43.1-19.3-43.1-43.1s19.3-43.1,43.1-43.1c23.8,0,43.1,19.3,43.1,43.1
			S472.5,476.7,448.8,476.7z M448.8,408.5c-13.8,0-25.1,11.2-25.1,25.1s11.2,25.1,25.1,25.1s25.1-11.2,25.1-25.1
			S462.6,408.5,448.8,408.5z"/>
	</g>
	<g>
		<path class="st8" d="M299.4,337.8c-23.8,0-43.1-19.3-43.1-43.1s19.3-43.1,43.1-43.1c23.8,0,43.1,19.3,43.1,43.1
			S323.1,337.8,299.4,337.8z M299.4,269.6c-13.8,0-25.1,11.2-25.1,25.1s11.2,25.1,25.1,25.1s25.1-11.2,25.1-25.1
			S313.2,269.6,299.4,269.6z"/>
	</g>
	<g>
		<path class="st8" d="M170.1,234.9c-23.8,0-43.1-19.3-43.1-43.1s19.3-43.1,43.1-43.1c23.8,0,43.1,19.3,43.1,43.1
			S193.9,234.9,170.1,234.9z M170.1,166.7c-13.8,0-25.1,11.2-25.1,25.1s11.2,25.1,25.1,25.1s25.1-11.2,25.1-25.1
			S184,166.7,170.1,166.7z"/>
	</g>
	<g>
		<path class="st8" d="M428.7,172.5c-23.8,0-43.1-19.3-43.1-43.1s19.3-43.1,43.1-43.1c23.8,0,43.1,19.3,43.1,43.1
			S452.4,172.5,428.7,172.5z M428.7,104.3c-13.8,0-25.1,11.2-25.1,25.1s11.2,25.1,25.1,25.1s25.1-11.2,25.1-25.1
			S442.5,104.3,428.7,104.3z"/>
	</g>
	<g>
		<path class="st8" d="M286.3,229.6c-2.8,0-5.5-1.3-7.2-3.7l-44.6-60.3c-3-4-2.1-9.6,1.9-12.6c4-3,9.6-2.1,12.6,1.9l44.6,60.3
			c3,4,2.1,9.6-1.9,12.6C290,229.1,288.2,229.6,286.3,229.6z"/>
	</g>
	<g>
		<path class="st8" d="M235.2,228.3c-2.3,0-4.6-0.9-6.4-2.6c-3.5-3.5-3.5-9.2,0-12.7l56.4-56.4c3.5-3.5,9.2-3.5,12.7,0
			c3.5,3.5,3.5,9.2,0,12.7l-56.4,56.4C239.8,227.5,237.5,228.3,235.2,228.3z"/>
	</g>
	<g>
		<path class="st8" d="M536.9,381c-2.8,0-5.5-1.3-7.2-3.7L485.1,317c-3-4-2.1-9.6,1.9-12.6c4-3,9.6-2.1,12.6,1.9l44.6,60.3
			c3,4,2.1,9.6-1.9,12.6C540.6,380.4,538.7,381,536.9,381z"/>
	</g>
	<g>
		<path class="st8" d="M485.8,379.7c-2.3,0-4.6-0.9-6.4-2.6c-3.5-3.5-3.5-9.2,0-12.7l56.4-56.4c3.5-3.5,9.2-3.5,12.7,0
			c3.5,3.5,3.5,9.2,0,12.7L492.1,377C490.4,378.8,488.1,379.7,485.8,379.7z"/>
	</g>
	<g>
		<path class="st8" d="M263.7,432.1c-2.8,0-5.5-1.3-7.2-3.7l-44.6-60.3c-3-4-2.1-9.6,1.9-12.6c4-3,9.6-2.1,12.6,1.9l44.6,60.3
			c3,4,2.1,9.6-1.9,12.6C267.4,431.5,265.5,432.1,263.7,432.1z"/>
	</g>
	<g>
		<path class="st8" d="M212.6,430.8c-2.3,0-4.6-0.9-6.4-2.6c-3.5-3.5-3.5-9.2,0-12.7l56.4-56.4c3.5-3.5,9.2-3.5,12.7,0
			c3.5,3.5,3.5,9.2,0,12.7l-56.4,56.4C217.2,429.9,214.9,430.8,212.6,430.8z"/>
	</g>
	<g>
		<path class="st8" d="M354.5,259.1c-2.9,0-5.8-1.4-7.5-4l-41.7-62.5l54.7-36.4c4.1-2.8,9.7-1.6,12.5,2.5c2.8,4.1,1.6,9.7-2.5,12.5
			l-39.7,26.5l31.7,47.6c2.8,4.1,1.6,9.7-2.5,12.5C357.9,258.6,356.2,259.1,354.5,259.1z"/>
	</g>
	<g>
		<path class="st8" d="M540.6,293.2c-2.7,0-5.3-1.2-7.1-3.5c-68.7-88.4-210.2-86.1-211.6-86.1c-5,0.1-9.1-3.8-9.2-8.8
			c-0.1-5,3.8-9.1,8.8-9.2c1.5,0,38.3-0.8,84.6,10.2c61.8,14.6,110.8,43.2,141.6,82.9c3.1,3.9,2.3,9.6-1.6,12.6
			C544.4,292.6,542.5,293.2,540.6,293.2z"/>
	</g>
	<g>
		<path class="st8" d="M175.4,483.9c-1.8,0-3.7-0.6-5.3-1.7c-1.2-0.9-30-21.9-53.9-62.4C102.1,396,92.6,370.4,88,343.7
			c-5.8-33.3-4-68.5,5.3-104.4c1.2-4.8,6.2-7.7,11-6.5c4.8,1.2,7.7,6.2,6.5,11c-8.6,33.4-10.3,66-5,96.8c4.3,24.6,13,48.1,26,70
			c22.1,37.3,48.7,56.7,49,56.9c4,2.9,4.9,8.5,2,12.6C180.9,482.6,178.2,483.9,175.4,483.9z"/>
	</g>
	<g>
		<path class="st8" d="M136.1,318.7c-3.4,0-6.7-2-8.2-5.3l-28.3-63.2l-45.8,52.3c-3.3,3.7-9,4.1-12.7,0.8c-3.7-3.3-4.1-9-0.8-12.7
			l64.3-73.5l39.8,88.8c2,4.5,0,9.9-4.5,11.9C138.5,318.5,137.3,318.7,136.1,318.7z"/>
	</g>
</g>
</svg>
