<?xml version="1.0" encoding="utf-8"?>
<!-- Generator: Adobe Illustrator 17.0.0, SVG Export Plug-In . SVG Version: 6.00 Build 0)  -->
<!DOCTYPE svg PUBLIC "-//W3C//DTD SVG 1.1//EN" "http://www.w3.org/Graphics/SVG/1.1/DTD/svg11.dtd" [
	<!ENTITY ns_flows "http://ns.adobe.com/Flows/1.0/">
	<!ENTITY ns_extend "http://ns.adobe.com/Extensibility/1.0/">
	<!ENTITY ns_ai "http://ns.adobe.com/AdobeIllustrator/10.0/">
	<!ENTITY ns_graphs "http://ns.adobe.com/Graphs/1.0/">
]>
<svg version="1.1" xmlns:x="&ns_extend;" xmlns:i="&ns_ai;" xmlns:graph="&ns_graphs;"
	 xmlns="http://www.w3.org/2000/svg" xmlns:xlink="http://www.w3.org/1999/xlink" xmlns:a="http://ns.adobe.com/AdobeSVGViewerExtensions/3.0/"
	 x="0px" y="0px" width="600px" height="600px" viewBox="0 0 600 600" style="enable-background:new 0 0 600 600;"
	 xml:space="preserve">
<style type="text/css">
	.st0{fill:#4EC928;}
	.st1{fill:#12B3FF;}
	.st2{fill:#687CFF;}
	.st3{fill:#6536FF;}
	.st4{fill:#C06AFF;}
	.st5{fill:#C90FAA;}
	.st6{fill:#FF5A79;}
	.st7{fill:#FF6A14;}
	.st8{fill:#FFFFFF;}
	.st9{fill:none;}
	.st10{adobe-knockout:true;}
	.st11{fill:#C90FAA;stroke:#FFFFFF;stroke-width:10;stroke-linecap:round;stroke-miterlimit:10;adobe-knockout:false;}
</style>
<g id="Layer_2">
	<rect class="st0" width="600" height="600"/>
</g>
<g id="Layer_1">
	<g>
		<g>
			<path class="st8" d="M505.5,441h-414c-5.8,0-10.5-4.7-10.5-10.5v-258c0-5.8,4.7-10.5,10.5-10.5h414c5.8,0,10.5,4.7,10.5,10.5v258
				C516,436.3,511.3,441,505.5,441z M102,420h393V183H102V420z"/>
		</g>
		<g>
			<path class="st8" d="M300,255c-2.8,0-5-2.2-5-5v-75c0-2.8,2.2-5,5-5s5,2.2,5,5v75C305,252.8,302.8,255,300,255z"/>
		</g>
		<g>
			<path class="st8" d="M300,431c-2.8,0-5-2.2-5-5v-74c0-2.8,2.2-5,5-5s5,2.2,5,5v74C305,428.8,302.8,431,300,431z"/>
		</g>
		<g>
			<path class="st8" d="M500,367h-55c-2.8,0-5-2.2-5-5V240c0-2.8,2.2-5,5-5h54c2.8,0,5,2.2,5,5s-2.2,5-5,5h-49v112h50
				c2.8,0,5,2.2,5,5S502.8,367,500,367z"/>
		</g>
		<g>
			<path class="st8" d="M153,367H96c-2.8,0-5-2.2-5-5s2.2-5,5-5h52V245H95c-2.8,0-5-2.2-5-5s2.2-5,5-5h58c2.8,0,5,2.2,5,5v122
				C158,364.8,155.8,367,153,367z"/>
		</g>
		<g>
			<path class="st8" d="M300,352.9c-29.7,0-53.9-24.2-53.9-53.9s24.2-53.9,53.9-53.9s53.9,24.2,53.9,53.9S329.7,352.9,300,352.9z
				 M300,255.1c-24.2,0-43.9,19.7-43.9,43.9s19.7,43.9,43.9,43.9s43.9-19.7,43.9-43.9S324.2,255.1,300,255.1z"/>
		</g>
	</g>
	<g>
		<g>
			<g>
				<path class="st8" d="M289.3,302.1c-6.6,1-4.2-4.9-5.8-7.7c-1.6-2.9,0.2-4,2.7-5c4.9-2.1,5.6-5.2,1.6-8.9c-2.5-2.3-2-3.9-0.2-6.2
					c2.6-3.3,4.3-7.6,9.8-3.5c2.5,1.9,6.2-0.8,6.2-4.5c0-6.4,4.7-4,7.8-4.7c3.6-0.8,5,0.6,5.5,4.2c0.6,4.1,4.3,5.8,7.5,3.2
					c4.3-3.5,5.9-0.1,8.2,2.3c2.3,2.4,4.1,4.4,0.8,7.7c-3.1,3-1.7,7.9,2.4,9.4c2.9,1.1,4.8,2.2,3.1,5.6c-1.4,2.9,0.6,8.2-6,7.2
					c-4.5-0.7-6.9,2.5-5.2,6.7c1.6,3.9-0.2,5.5-3.3,6.6c-2.9,1-5.6,4.7-8.6-0.4c-2.6-4.4-6-4.3-8.6,0.2c-2.7,4.8-5.4,1.8-8.3,0.7
					c-2.6-1-5.3-1.8-3.9-5.9C296.7,304,294.8,302,289.3,302.1z M311.3,280.8c-4.8,0-8.9,4-9,8.8c-0.1,4.9,4.3,9.3,9.3,9.1
					c4.7-0.1,8.8-4.4,8.8-9.1C320.2,284.9,316.1,280.8,311.3,280.8z"/>
			</g>
			<g>
				<path class="st8" d="M270.3,327.5c0.5-2.4-0.8-3.7-3.2-3.5c-2.6,0.2-3-1.3-3.4-3.2c-0.4-1.7-0.8-3.1,1.4-4c2.3-1,2.9-3,1.1-4.7
					c-1.8-1.9-1-3.1,0.2-4.7c1.2-1.6,2-2.9,4.4-1.5c1.9,1.1,3.8,0.5,4.1-1.9c0.3-2.4,1.3-3,3.6-3c2.2-0.1,3.7,0.2,4.3,2.8
					c0.5,2,2.4,2.8,4.3,1.4c1.8-1.3,2.9-0.8,4.1,0.8c1.2,1.6,2.9,2.7,0.8,5c-1.8,2.1-0.9,4.3,1.4,5.2c2.4,1,1.9,2.5,1.7,4.4
					c-0.3,2.3-1.1,3.2-3.5,3c-2.2-0.1-3.5,1.3-2.9,3.5c0.7,2.3-0.1,3.2-2.1,4.2c-2.1,1-3.5,1.3-5-0.9c-1.4-2-3.4-1.6-4.4,0.4
					c-1.3,2.4-2.7,1.8-4.5,0.9C270.9,330.7,269,330.2,270.3,327.5z M284.4,316.7c-0.6-2.9-2.1-4.8-5.3-4.8c-3.2,0.1-5,2-5,5
					c0.1,3.2,2.1,5.2,5.4,5C282.7,321.8,284.1,319.7,284.4,316.7z"/>
			</g>
		</g>
	</g>
</g>
</svg>
