<?xml version="1.0" encoding="utf-8"?>
<!-- Generator: Adobe Illustrator 17.0.0, SVG Export Plug-In . SVG Version: 6.00 Build 0)  -->
<!DOCTYPE svg PUBLIC "-//W3C//DTD SVG 1.1//EN" "http://www.w3.org/Graphics/SVG/1.1/DTD/svg11.dtd" [
	<!ENTITY ns_flows "http://ns.adobe.com/Flows/1.0/">
	<!ENTITY ns_extend "http://ns.adobe.com/Extensibility/1.0/">
	<!ENTITY ns_ai "http://ns.adobe.com/AdobeIllustrator/10.0/">
	<!ENTITY ns_graphs "http://ns.adobe.com/Graphs/1.0/">
]>
<svg version="1.1" xmlns:x="&ns_extend;" xmlns:i="&ns_ai;" xmlns:graph="&ns_graphs;"
	 xmlns="http://www.w3.org/2000/svg" xmlns:xlink="http://www.w3.org/1999/xlink" xmlns:a="http://ns.adobe.com/AdobeSVGViewerExtensions/3.0/"
	 x="0px" y="0px" width="600px" height="600px" viewBox="0 0 600 600" style="enable-background:new 0 0 600 600;"
	 xml:space="preserve">
<style type="text/css">
	.st0{fill:#4EC928;}
	.st1{fill:#12B3FF;}
	.st2{fill:#687CFF;}
	.st3{fill:#6536FF;}
	.st4{fill:#C06AFF;}
	.st5{fill:#C90FAA;}
	.st6{fill:#FF5A79;}
	.st7{fill:#FF6A14;}
	.st8{fill:#FFFFFF;}
	.st9{fill:none;}
	.st10{adobe-knockout:true;}
	.st11{fill:#C90FAA;stroke:#FFFFFF;stroke-width:10;stroke-linecap:round;stroke-miterlimit:10;adobe-knockout:false;}
</style>
<g id="Layer_2">
	<rect class="st0" width="600" height="600"/>
</g>
<g id="Layer_1">
	<g>
		<g>
			<g>
				<g>
					<path class="st8" d="M285.8,483H166.1c-13.5,0-19.5-11-20.4-18.4l0-0.4l0.2-69.5l21-0.9c0.1-5.3,0.4-12,1.2-16l0.4-2.1l1.4-1.6
						c18.4-21.2,29.1-43.8,31-65.5c1.2-13.1-1.2-22.3-2.2-25.4c-6.3-6.9-37.7-41.5-59.9-68.2c-26.6-31.9-23.1-87.2-22.9-89.5
						l0.5-7.5h219.1l0.5,7.5c0.2,2.3,3.6,57.6-22.9,89.5c-22.2,26.7-53.7,61.2-59.9,68.1c-1,3.1-3.4,12.3-2.2,25.5
						c1.9,21.7,12.7,44.4,31,65.5l1.4,1.6l0.4,2.1c0.8,3.9,1,10.6,1,15.9l21,0.6l0.5,70l-0.1,0.5C305.4,472,299.3,483,285.8,483z
						 M161.7,463.1c0.5,2.6,2,3.9,4.4,3.9h119.8c2.4,0,3.9-1.3,4.4-3.9l-0.4-53.4l-21.4-0.6l0.2-8c0.1-5,0.2-13.7-0.3-18.4
						c-49.1-58.1-30.4-105-29.6-107l0.5-1.3l0.9-1c0.4-0.4,36.1-39.5,60.5-68.7c17.3-20.7,19.4-55.5,19.4-70.7H131.7
						c0,15.2,2.2,50,19.4,70.7c24.4,29.3,60.2,68.4,60.5,68.8l0.9,1l0.5,1.3c0.8,2,19.6,48.9-29.6,106.9c-0.6,4.8-0.7,13.5-0.7,18.5
						l0,7.7l-21,0.9L161.7,463.1z"/>
				</g>
				<g>
					<path class="st8" d="M290.1,239.6c-4,0-7.4-2.9-8-6.9c-0.7-4.4,2.4-8.6,6.9-9.2c34.6-5.1,56.4-31.8,61-43.3
						c5.2-12.9,5.7-31.1,1-38.2c-1.3-2-2.5-2.2-3.5-2.3c-2.9-0.1-4.9,0.5-6,1.6c-1.6,1.7-1.7,5-1.6,5.5c0.4,4.5-2.9,8.4-7.3,8.8
						c-4.5,0.4-8.4-2.9-8.8-7.3c-0.1-1.1-0.8-10.9,6-18.1c3-3.2,8.7-7,18.4-6.7c6.8,0.2,12.7,3.6,16.6,9.6c8.5,13,6.9,37.3,0.4,53.2
						c-7.6,18.7-35.4,47.6-73.7,53.2C290.8,239.6,290.4,239.6,290.1,239.6z"/>
				</g>
				<g>
					<path class="st8" d="M159.7,239.6c-0.4,0-0.8,0-1.2-0.1c-38.1-5.7-65.9-34.6-73.5-53.2c-6.4-15.9-8.1-40.2,0.4-53.2
						c3.9-6,9.8-9.4,16.6-9.6c9.7-0.3,15.3,3.5,18.4,6.7c6.8,7.2,6.1,17,6,18.1l-16.2-1.5l0,0.1c0.1-1-0.1-4-1.7-5.6
						c-1.4-1.4-4-1.6-6-1.6c-1,0-2.2,0.2-3.5,2.3c-4.7,7.2-4.2,25.4,1,38.2c4.6,11.4,26.3,38.1,60.8,43.2c4.4,0.7,7.5,4.8,6.8,9.2
						C167.1,236.7,163.7,239.6,159.7,239.6z"/>
				</g>
				<g>
					<path class="st8" d="M298,411H152c-4.4,0-8-3.6-8-8s3.6-8,8-8h146c4.4,0,8,3.6,8,8S302.4,411,298,411z"/>
				</g>
			</g>
		</g>
		<g>
			<g>
				<g>
					<path class="st8" d="M462.6,483h-77.9c-10.6,0-15.4-8.7-16-14.6l0-0.4l0.2-48.1l13.7-0.6c0.1-3,0.4-6.1,0.8-8.2l0.4-2.1
						l1.4-1.6c24.6-28.3,19.9-50.7,18.4-55.8c-4.9-5.3-24.6-27.1-38.7-44c-18-21.6-15.7-58.5-15.5-60.1l0.5-7.4h147.7l0.5,7.4
						c0.1,1.6,2.4,38.5-15.5,60.1c-14.1,16.9-33.8,38.5-38.7,43.9c-1.5,5.2-6.1,27.6,18.4,55.9l1.4,1.6l0.4,2.1
						c0.4,2.1,0.6,5.2,0.7,8.2l13.7,0.4l0.3,48.4l0,0.5C477.9,474.3,473.2,483,462.6,483z M384.7,467h77.8c0-0.1,0.1-0.1,0.1-0.2
						l-0.2-31.7l-14-0.4l0.2-8c0.1-3.5,0.1-8-0.1-10.8c-32.3-38.7-19.7-70.4-19.1-71.8l0.5-1.3l1-1c0.2-0.3,23.5-25.5,39.3-44.5
						c9.2-11,11.6-29.6,12-41.3H365.2c0.3,10.5,2.2,29.7,11.9,41.3c15.8,19,39,44.4,39.3,44.6l0.9,1l0.5,1.3
						c0.6,1.3,13.2,33-19.1,71.8c-0.3,3-0.4,7.8-0.4,10.9l0,7.7l-13.7,0.6l-0.1,31.6C384.6,466.9,384.7,466.9,384.7,467z"/>
				</g>
				<g>
					<path class="st8" d="M465.3,324.5c-3.9,0-7.3-2.9-7.9-6.8c-0.6-4.4,2.4-8.4,6.7-9.1c20.2-3,34.4-18.7,37.6-26.5
						c3.7-9.2,2.8-20.6,0.7-22.6c-1.4,0-1.8,0.2-1.8,0.2c-0.1,0.2-0.3,1-0.3,1.6l0-0.2l-15.9,1.5c-0.1-1.4-0.5-8.5,4.6-13.9
						c2.4-2.5,6.7-5.5,14-5.2c5.3,0.2,10,2.8,13,7.5c6.2,9.6,4.9,26.2,0.5,37.1c-5.2,12.8-24.1,32.5-50.1,36.3
						C466.1,324.4,465.7,324.5,465.3,324.5z"/>
				</g>
				<g>
					<path class="st8" d="M380.5,324.4c-0.4,0-0.8,0-1.2-0.1c-25.9-3.9-44.7-23.5-49.9-36.3c-4.4-10.9-5.7-27.6,0.5-37.1
						c3-4.7,7.7-7.3,13-7.5c7.3-0.3,11.6,2.7,14,5.2c5.1,5.4,4.7,12.5,4.6,13.9l-15.9-1.5l0,0.2c0-0.6-0.1-1.4-0.3-1.6
						c0,0-0.4-0.2-1.5-0.2c-0.1,0-0.2,0-0.2,0c-2,2-3,13.4,0.7,22.6c3.1,7.7,17.3,23.4,37.4,26.5c4.4,0.7,7.4,4.7,6.7,9.1
						C387.9,321.6,384.4,324.4,380.5,324.4z"/>
				</g>
				<g>
					<path class="st8" d="M470,436h-94c-4.4,0-8-3.6-8-8s3.6-8,8-8h94c4.4,0,8,3.6,8,8S474.4,436,470,436z"/>
				</g>
			</g>
		</g>
	</g>
</g>
</svg>
