<?xml version="1.0" encoding="utf-8"?>
<!-- Generator: Adobe Illustrator 17.0.0, SVG Export Plug-In . SVG Version: 6.00 Build 0)  -->
<!DOCTYPE svg PUBLIC "-//W3C//DTD SVG 1.1//EN" "http://www.w3.org/Graphics/SVG/1.1/DTD/svg11.dtd" [
	<!ENTITY ns_flows "http://ns.adobe.com/Flows/1.0/">
	<!ENTITY ns_extend "http://ns.adobe.com/Extensibility/1.0/">
	<!ENTITY ns_ai "http://ns.adobe.com/AdobeIllustrator/10.0/">
	<!ENTITY ns_graphs "http://ns.adobe.com/Graphs/1.0/">
]>
<svg version="1.1" xmlns:x="&ns_extend;" xmlns:i="&ns_ai;" xmlns:graph="&ns_graphs;"
	 xmlns="http://www.w3.org/2000/svg" xmlns:xlink="http://www.w3.org/1999/xlink" xmlns:a="http://ns.adobe.com/AdobeSVGViewerExtensions/3.0/"
	 x="0px" y="0px" width="600px" height="600px" viewBox="0 0 600 600" style="enable-background:new 0 0 600 600;"
	 xml:space="preserve">
<style type="text/css">
	.st0{fill:#4EC928;}
	.st1{fill:#12B3FF;}
	.st2{fill:#687CFF;}
	.st3{fill:#6536FF;}
	.st4{fill:#C06AFF;}
	.st5{fill:#C90FAA;}
	.st6{fill:#FF5A79;}
	.st7{fill:#FF6A14;}
	.st8{fill:#FFFFFF;}
	.st9{fill:none;}
	.st10{adobe-knockout:true;}
	.st11{fill:#C90FAA;stroke:#FFFFFF;stroke-width:10;stroke-linecap:round;stroke-miterlimit:10;adobe-knockout:false;}
</style>
<g id="Layer_2">
	<rect class="st5" width="600" height="600"/>
</g>
<g id="Layer_1">
	<g>
		<g>
			<path class="st8" d="M312.7,344.1c-0.4,0-0.8,0-1.2-0.2c-2.7-0.7-4.3-3.4-3.6-6.1c0-0.1,2.8-11.3,4.2-24.7
				c1.8-17.2,0.7-30.2-3.2-37.8c-1.8-3.5-3.9-7-6.1-10.7c-7.4-12.4-15-25.2-11.7-37.5c1.8-6.8,6.9-12.6,15.1-17.1
				c39.2-21.9,101.9-91.3,103.5-103c0.1-0.5,0.2-1,0.4-1.5c4.4-9.2,9.3-8.9,11.8-7.8c3.6,1.5,5.5,5.8,5.5,12.6
				c0,5.4-1.2,11.7-3.4,17.7c-0.8,2.2-1.7,5.3-2.6,8.5l8.1-6.7c1.4-1.2,3.4-1.5,5.2-0.8c1.7,0.7,2.9,2.4,3,4.3
				c0.1,0.8,0.9,14.3-2.8,28.4c2.5-2.5,3.7-4.2,3.8-4.3c1.3-1.9,3.8-2.6,5.9-1.7c2.1,0.8,3.4,3,3.1,5.3c-0.1,1-2.8,20.5-13.2,36.2
				c2.3-0.8,4.6-1.7,6.9-2.7c1.9-0.8,4.2-0.4,5.6,1.1c1.5,1.5,1.8,3.8,0.9,5.7c-0.2,0.3-4,8.1-9.8,16.6c-3.6,5.4-7.2,9.9-10.6,13.5
				c1,0.3,2,0.7,3,1.1c4,1.9,6.8,5,7.6,8.4c0.9,3.6-0.9,6.3-3.2,7.3c-0.4,0.3-1.6,1.1-2.6,1.8c-9.4,6.5-34.4,23.6-58.3,26
				c-0.1,0-0.1,0-0.2,0c-22.1,1.2-37.6,23.7-38.6,35.5c-0.2,2.8-2.7,4.8-5.4,4.5c-2.8-0.2-4.8-2.7-4.5-5.4
				c1.5-16.7,21.4-43,47.9-44.5c21.3-2.1,44.7-18.2,53.5-24.3c0,0,0,0,0,0c-2-1.1-5.8-2.1-12.4-1.1c-2.5,0.4-4.9-1.2-5.6-3.6
				s0.6-5,2.9-6c7-2.9,15-13.5,20.8-22.6c-4.6,1.3-9.4,2.2-12.6,1.5c-1.9-0.4-3.4-1.9-3.8-3.8c-0.4-1.9,0.3-3.9,1.8-5
				c8-6.2,13-16.3,16-25c-2.8,2.1-6,4.4-9.7,6.6c-2.1,1.2-4.8,0.8-6.4-1.1c-1.6-1.9-1.6-4.6,0-6.4c7.2-8.6,9.4-21.6,10-30.7
				l-11.7,9.7c-1.7,1.4-4,1.5-5.8,0.4c-1.8-1.1-2.7-3.3-2.2-5.4c0.2-0.7,4.1-17,6.8-24.5c1.3-3.5,2-6.8,2.4-9.5
				c-13,24.5-71.1,84.1-105.9,103.6c-5.8,3.2-9.2,6.8-10.3,11c-2.2,8.2,4.3,19.2,10.6,29.8c2.2,3.7,4.4,7.5,6.3,11.2
				c11.4,22.1,0.2,67.6-0.3,69.5C317,342.6,314.9,344.1,312.7,344.1z M434.6,248.4c-0.1,0.1-0.3,0.1-0.4,0.1
				C434.3,248.5,434.5,248.4,434.6,248.4z"/>
		</g>
		<g>
			<path class="st8" d="M282.7,321.3c-0.1,0-0.2,0-0.3,0c-2.8-0.2-4.8-2.6-4.7-5.3c0-0.1,0.7-11.6-0.2-25.1
				c-1.3-17.2-4.7-29.9-9.8-36.6c-2.4-3.1-5-6.2-7.9-9.4c-9.5-10.9-19.2-22.2-18.2-34.9c0.6-7,4.5-13.6,11.8-19.5
				c34.7-28.6,84-108,83.5-119.8c0-0.5,0-1,0.2-1.5c2.7-9.9,7.6-10.4,10.2-9.8c8.3,1.8,9.4,18.3,7.5,29.5c-0.4,2.3-0.8,5.5-1.1,8.8
				l6.7-8c1.2-1.4,3.1-2.1,4.9-1.7c1.8,0.4,3.3,1.8,3.7,3.6c0.2,0.8,3.5,13.9,2.3,28.4c2-2.9,2.9-4.8,3-4.9c1-2.1,3.2-3.2,5.5-2.7
				c2.2,0.5,3.9,2.4,4,4.6c0.1,1.3,1.4,33.2-15,51.5c-1.8,2.1-5,2.2-7.1,0.4c-2.1-1.8-2.2-5-0.4-7.1c6.7-7.5,9.9-18.4,11.3-27.4
				c-2.3,2.6-5.1,5.4-8.4,8.2c-1.8,1.6-4.6,1.6-6.4,0.1c-1.9-1.5-2.4-4.2-1.2-6.3c5.5-9.7,5.4-22.9,4.4-32l-9.7,11.6
				c-1.4,1.7-3.7,2.2-5.7,1.4c-2-0.8-3.3-2.8-3.2-4.9c0-0.7,1-17.5,2.3-25.4c0.6-3.7,0.8-7,0.7-9.8c-8.4,26.4-55,95.5-85.8,120.8
				c-5.1,4.2-7.8,8.4-8.1,12.7c-0.7,8.5,7.7,18.1,15.8,27.5c2.8,3.2,5.7,6.5,8.2,9.9c6.5,8.4,10.5,22.6,11.9,42.1
				c1,14.1,0.3,25.8,0.2,26.3C287.5,319.3,285.3,321.3,282.7,321.3z"/>
		</g>
		<g>
			<path class="st8" d="M183.9,489.5c-9.2,0-17.5-2.5-24.9-7.6c-7.1-4.8-11.1-11.8-11.7-20.2c-0.8-11.7,5.6-24.1,12-29.9
				c5.5-4.9,22.4-29.4,28.8-41c5.4-9.7,23.4-42.7,27.9-58.7c3.2-11.5,7.6-27.2,22.7-27.2c1.4,0,2.8,0.3,4,1
				c14.2,7.1,55.8,14.3,70.6,16.5c4.9,0.7,8.3,5.3,7.6,10.2c-0.7,4.9-5.3,8.3-10.2,7.6c-2.2-0.3-50.5-7.5-72.5-16.6
				c-0.9,1.5-2.5,5-4.9,13.4c-4.7,16.8-20.5,46.4-29.5,62.6c-6.2,11.2-24.3,38.2-32.5,45.7c-2.4,2.1-6.5,9.2-6.1,15.3
				c0.2,2.9,1.4,4.9,3.8,6.6c10.2,7,23.1,6,41.6-3.3c18.9-9.5,65.8-41.4,71.6-48.8c6.3-8,28.9-31.4,46.6-36.4
				c4.8-1.4,15.3-8.1,24.5-16.9c10.5-10.1,13.4-17.2,13.1-18.9c-1-5.8-6.3-16.4-12.8-25.7c-7.9-11.5-14.3-16.5-16.6-17.2
				c-4.8-1.3-7.7-6.2-6.4-11c1.3-4.8,6.2-7.7,11-6.4c10.1,2.7,20.2,14.7,26.9,24.3c6.4,9.3,13.9,22.7,15.7,32.8
				c4,21.7-34.6,51.8-50.4,56.3c-10.6,3-29.5,20.2-37.4,30.2c-9,11.5-60.8,45.4-77.7,53.8C205.8,486.3,194.2,489.5,183.9,489.5z"/>
		</g>
		<g>
			<path class="st8" d="M180.4,433.4c-0.3,0-0.6,0-0.7,0c-2.8-0.1-4.9-2.5-4.7-5.3c0.1-2.7,2.4-4.7,5-4.7c0.1,0,0.2,0,0.2,0
				c0.3,0,11.8,0.2,28.4-11.1c28.5-19.3,49.5-56.3,62.2-84c1.1-2.5,4.1-3.6,6.6-2.5c2.5,1.1,3.6,4.1,2.5,6.6
				C235.3,430,186.9,433.4,180.4,433.4z"/>
		</g>
		<g>
			<path class="st8" d="M351.3,396.8c-1.4,0-2.8-0.6-3.8-1.8l-7.3-8.7c-1.8-2.1-1.5-5.3,0.6-7c2.1-1.8,5.3-1.5,7,0.6l7.3,8.7
				c1.8,2.1,1.5,5.3-0.6,7C353.6,396.4,352.5,396.8,351.3,396.8z"/>
		</g>
		<g>
			<path class="st8" d="M370.3,378.8c-1.4,0-2.8-0.6-3.8-1.8l-7.3-8.7c-1.8-2.1-1.5-5.3,0.6-7c2.1-1.8,5.3-1.5,7,0.6l7.3,8.7
				c1.8,2.1,1.5,5.3-0.6,7C372.6,378.4,371.5,378.8,370.3,378.8z"/>
		</g>
		<g>
			<path class="st8" d="M275.3,453.8c-1.4,0-2.8-0.6-3.8-1.8l-7.3-8.7c-1.8-2.1-1.5-5.3,0.6-7c2.1-1.8,5.3-1.5,7,0.6l7.3,8.7
				c1.8,2.1,1.5,5.3-0.6,7C277.6,453.4,276.5,453.8,275.3,453.8z"/>
		</g>
		<g>
			<path class="st8" d="M252.3,468.8c-1.4,0-2.8-0.6-3.8-1.8l-7.3-8.7c-1.8-2.1-1.5-5.3,0.6-7c2.1-1.8,5.3-1.5,7,0.6l7.3,8.7
				c1.8,2.1,1.5,5.3-0.6,7C254.6,468.4,253.5,468.8,252.3,468.8z"/>
		</g>
		<g>
			<path class="st8" d="M226.3,486.8c-1.4,0-2.8-0.6-3.8-1.8l-7.3-8.7c-1.8-2.1-1.5-5.3,0.6-7c2.1-1.8,5.3-1.5,7,0.6l7.3,8.7
				c1.8,2.1,1.5,5.3-0.6,7C228.6,486.4,227.5,486.8,226.3,486.8z"/>
		</g>
		<g>
			<path class="st8" d="M200.3,496.8c-1.4,0-2.8-0.6-3.8-1.8l-7.3-8.7c-1.8-2.1-1.5-5.3,0.6-7c2.1-1.8,5.3-1.5,7,0.6l7.3,8.7
				c1.8,2.1,1.5,5.3-0.6,7C202.6,496.4,201.5,496.8,200.3,496.8z"/>
		</g>
		<g>
			<path class="st8" d="M260.4,325.3c-3.1,0-6.2-0.4-9.5-1.1c-2.7-0.6-4.4-3.3-3.7-6c0.6-2.7,3.3-4.4,6-3.7
				c18.3,4.3,35.6-7.9,54.6-38.3c1.5-2.3,4.5-3.1,6.9-1.6c2.3,1.5,3.1,4.5,1.6,6.9C304.2,300.9,285.7,325.3,260.4,325.3z"/>
		</g>
		<g>
			<path class="st8" d="M255,344h-28c-2.8,0-5-2.2-5-5s2.2-5,5-5h28c2.8,0,5,2.2,5,5S257.8,344,255,344z"/>
		</g>
		<g>
			<path class="st8" d="M248,362h-28c-2.8,0-5-2.2-5-5s2.2-5,5-5h28c2.8,0,5,2.2,5,5S250.8,362,248,362z"/>
		</g>
		<g>
			<path class="st8" d="M241,380h-28c-2.8,0-5-2.2-5-5s2.2-5,5-5h28c2.8,0,5,2.2,5,5S243.8,380,241,380z"/>
		</g>
		<g>
			<path class="st8" d="M234,398h-28c-2.8,0-5-2.2-5-5s2.2-5,5-5h28c2.8,0,5,2.2,5,5S236.8,398,234,398z"/>
		</g>
		<g>
			<path class="st8" d="M297.3,367.9c-1.2,0-2.3,0-3.5,0c-14.7-0.4-27.2-3-27.7-3.1c-2.7-0.6-4.4-3.2-3.9-5.9
				c0.6-2.7,3.2-4.4,5.9-3.9c13,2.7,49.3,7,61.3-6c15.1-16.5,16.7-46.1,16.7-46.4c0.1-2.8,2.5-4.9,5.2-4.8c2.8,0.1,4.9,2.5,4.8,5.2
				c-0.1,1.4-1.8,33.5-19.3,52.6C329.3,363.8,316.1,367.9,297.3,367.9z"/>
		</g>
	</g>
</g>
</svg>
