<?xml version="1.0" encoding="utf-8"?>
<!-- Generator: Adobe Illustrator 17.0.0, SVG Export Plug-In . SVG Version: 6.00 Build 0)  -->
<!DOCTYPE svg PUBLIC "-//W3C//DTD SVG 1.1//EN" "http://www.w3.org/Graphics/SVG/1.1/DTD/svg11.dtd" [
	<!ENTITY ns_flows "http://ns.adobe.com/Flows/1.0/">
	<!ENTITY ns_extend "http://ns.adobe.com/Extensibility/1.0/">
	<!ENTITY ns_ai "http://ns.adobe.com/AdobeIllustrator/10.0/">
	<!ENTITY ns_graphs "http://ns.adobe.com/Graphs/1.0/">
]>
<svg version="1.1" xmlns:x="&ns_extend;" xmlns:i="&ns_ai;" xmlns:graph="&ns_graphs;"
	 xmlns="http://www.w3.org/2000/svg" xmlns:xlink="http://www.w3.org/1999/xlink" xmlns:a="http://ns.adobe.com/AdobeSVGViewerExtensions/3.0/"
	 x="0px" y="0px" width="600px" height="600px" viewBox="0 0 600 600" style="enable-background:new 0 0 600 600;"
	 xml:space="preserve">
<style type="text/css">
	.st0{fill:#4EC928;}
	.st1{fill:#12B3FF;}
	.st2{fill:#687CFF;}
	.st3{fill:#6536FF;}
	.st4{fill:#C06AFF;}
	.st5{fill:#C90FAA;}
	.st6{fill:#FF5A79;}
	.st7{fill:#FF6A14;}
	.st8{fill:#FFFFFF;}
	.st9{fill:none;}
	.st10{adobe-knockout:true;}
	.st11{fill:#C90FAA;stroke:#FFFFFF;stroke-width:10;stroke-linecap:round;stroke-miterlimit:10;adobe-knockout:false;}
</style>
<g id="Layer_2">
	<rect class="st4" width="600" height="600"/>
</g>
<g id="Layer_1">
	<g>
		<g>
			<path class="st8" d="M463.4,429.6c-25.1,0-53.5-6-84.3-17.8c-1.5-0.6-2.7-1.9-3.1-3.5c-0.3-1.3-0.1-2.6,0.6-3.8
				c0.9-3.9-0.6-21.8-2.5-36.6c-0.4-2.7,1.5-5.1,4.1-5.6l36.1-6.3l-15.9-40.6c-0.9-2.2,0-4.8,2-6.1l41.7-25.9l1.6-42.8
				c0.1-2.1,1.4-3.9,3.4-4.6l27.8-9.2c1.5-0.5,3.2-0.2,4.5,0.7c1.2,0.8,29,21,52.2,50.2c31.5,39.7,38.7,76.8,20.7,107.2
				C535.3,413.8,503.8,429.6,463.4,429.6z M386.7,404c28.2,10.4,54,15.6,76.8,15.6c36.7,0,65.2-14,80.2-39.5
				c35.5-60-53.4-131.5-68.1-142.7l-22,7.3l-1.6,42c-0.1,1.7-0.9,3.2-2.4,4.1l-40.4,25.1l16.6,42.5c0.5,1.4,0.4,3-0.3,4.3
				s-2,2.2-3.5,2.5l-37.4,6.5C386.8,389.5,387.1,398.9,386.7,404z"/>
		</g>
		<g>
			<g>
				<path class="st8" d="M148.9,418.5C148.9,418.5,148.9,418.5,148.9,418.5c-23,0-45.7-9.3-67.6-27.5
					c-23.7-19.7-36.5-42.9-38.1-68.8c-3.1-48.6,34.1-89.1,35.7-90.8c0.8-0.8,1.8-1.4,2.9-1.5l42.8-6.4c2.6-0.4,5.1,1.3,5.6,3.9
					l6.6,31.2l35.9-2.9c2.7-0.2,5.1,1.7,5.4,4.4l4.5,38.5l37.1,1c2.3,0.1,4.2,1.6,4.7,3.9c0.1,0.4,10.4,44,14.2,57.8
					c0.4,1.4,0.2,2.9-0.6,4.1c-3.9,6-14.8,21.2-33.3,34.3C187,412.1,168.2,418.5,148.9,418.5z M85.1,239.4c-6,7-34.5,42.4-31.9,82.2
					c1.5,23,13.1,43.8,34.6,61.7c20.1,16.7,40.7,25.2,61.2,25.2c37.5,0,67-28.6,79.5-46.9c-3.5-13.1-10.4-41.9-12.8-52.2l-37.6-1
					c-2.5-0.1-4.5-1.9-4.8-4.4l-4.5-38.1l-35.4,2.9c-2.5,0.2-4.8-1.5-5.3-3.9l-6.6-30.9L85.1,239.4z"/>
			</g>
			<g>
				<polygon class="st8" points="174.2,370.8 167.7,331.8 119.3,332.1 118.9,283.9 84,281.1 77.6,235.5 87.5,234.1 92.8,271.7 
					128.9,274.7 129.2,322 176.2,321.7 182.6,360.3 233.6,357.5 234.2,367.5 				"/>
			</g>
		</g>
		<g>
			<g>
				<g>
					<path class="st8" d="M310.8,339.5c-22.5,0-44-7.1-62.1-20.5c-46.3-34.3-56.1-99.9-21.8-146.2c19.6-26.5,51.1-42.3,84.1-42.3
						c22.5,0,44,7.1,62.1,20.5c22.4,16.6,37.1,41,41.2,68.6c4.1,27.6-2.8,55.2-19.4,77.6C375.2,323.7,343.8,339.5,310.8,339.5z
						 M310.9,146.2c-28.1,0-54.8,13.4-71.4,36c-29.1,39.4-20.8,95.1,18.5,124.2c15.4,11.4,33.7,17.4,52.8,17.4
						c28.1,0,54.8-13.4,71.4-36c14.1-19.1,20-42.5,16.5-65.9c-3.5-23.5-15.9-44.2-35-58.3C348.3,152.2,330.1,146.2,310.9,146.2z"/>
				</g>
			</g>
			<g>
				<g>
					<polygon class="st8" points="286.8,141.7 269.8,180.3 227.7,184.7 					"/>
				</g>
			</g>
			<g>
				<g>
					<polygon class="st8" points="346.1,324.9 309.8,303.4 273,324.3 					"/>
				</g>
			</g>
			<g>
				<g>
					<polygon class="st8" points="394.4,185.8 352.5,181 335.7,142.2 					"/>
				</g>
			</g>
			<g>
				<g>
					<polygon class="st8" points="237.7,299.1 246.3,257.8 214.7,229.7 					"/>
				</g>
			</g>
			<g>
				<g>
					<polygon class="st8" points="407.2,228.4 375.8,256.4 384.4,297.8 					"/>
				</g>
			</g>
			<g>
				<g>
					<polygon class="st8" points="269.4,249.3 285.1,202.4 334.6,202.9 349.6,250.1 309.3,278.8 					"/>
				</g>
			</g>
			<g>
				<g>
					
						<rect x="339.3" y="161.7" transform="matrix(0.7907 0.6122 -0.6122 0.7907 189.7213 -169.7951)" class="st8" width="7.9" height="61.6"/>
				</g>
			</g>
			<g>
				<g>
					
						<rect x="247.8" y="188.8" transform="matrix(0.5973 0.802 -0.802 0.5973 266.8087 -145.8866)" class="st8" width="61.6" height="7.9"/>
				</g>
			</g>
			<g>
				<g>
					
						<rect x="256.1" y="221.3" transform="matrix(0.323 0.9464 -0.9464 0.323 414.6302 -75.3452)" class="st8" width="7.9" height="61.7"/>
				</g>
			</g>
			<g>
				<g>
					
						<rect x="278.1" y="285" transform="matrix(1.245915e-02 0.9999 -0.9999 1.245915e-02 594.0045 -23.6251)" class="st8" width="61.6" height="7.9"/>
				</g>
			</g>
			<g>
				<g>
					
						<rect x="330.2" y="248.7" transform="matrix(0.9653 0.2612 -0.2612 0.9653 78.517 -85.5458)" class="st8" width="61.7" height="7.9"/>
				</g>
			</g>
		</g>
	</g>
</g>
</svg>
