<?xml version="1.0" encoding="utf-8"?>
<!-- Generator: Adobe Illustrator 17.0.0, SVG Export Plug-In . SVG Version: 6.00 Build 0)  -->
<!DOCTYPE svg PUBLIC "-//W3C//DTD SVG 1.1//EN" "http://www.w3.org/Graphics/SVG/1.1/DTD/svg11.dtd" [
	<!ENTITY ns_flows "http://ns.adobe.com/Flows/1.0/">
	<!ENTITY ns_extend "http://ns.adobe.com/Extensibility/1.0/">
	<!ENTITY ns_ai "http://ns.adobe.com/AdobeIllustrator/10.0/">
	<!ENTITY ns_graphs "http://ns.adobe.com/Graphs/1.0/">
]>
<svg version="1.1" xmlns:x="&ns_extend;" xmlns:i="&ns_ai;" xmlns:graph="&ns_graphs;"
	 xmlns="http://www.w3.org/2000/svg" xmlns:xlink="http://www.w3.org/1999/xlink" xmlns:a="http://ns.adobe.com/AdobeSVGViewerExtensions/3.0/"
	 x="0px" y="0px" width="600px" height="600px" viewBox="0 0 600 600" style="enable-background:new 0 0 600 600;"
	 xml:space="preserve">
<style type="text/css">
	.st0{fill:#4EC928;}
	.st1{fill:#12B3FF;}
	.st2{fill:#687CFF;}
	.st3{fill:#6536FF;}
	.st4{fill:#C06AFF;}
	.st5{fill:#C90FAA;}
	.st6{fill:#FF5A79;}
	.st7{fill:#FF6A14;}
	.st8{fill:#FFFFFF;}
	.st9{fill:none;}
	.st10{adobe-knockout:true;}
	.st11{fill:#C90FAA;stroke:#FFFFFF;stroke-width:10;stroke-linecap:round;stroke-miterlimit:10;adobe-knockout:false;}
</style>
<g id="Layer_2">
	<rect class="st1" width="600" height="600"/>
</g>
<g id="Layer_1">
	<g>
		<g>
			<path class="st8" d="M193,341.4c-4,0-7.7-2.2-9.5-6.1L105.9,169c-2-4.3-0.9-9.5,2.8-12.5l74.9-62.3c2.5-2.1,5.8-2.9,9-2.2
				c3.2,0.7,5.8,2.9,7.2,5.8l77.7,166.7c2.5,5.3,0.2,11.5-5.1,14c-5.3,2.5-11.5,0.2-14-5.1l-72-154.3l-58.2,48.4l74.1,159
				c2.5,5.3,0.2,11.5-5.1,14C195.9,341.1,194.4,341.4,193,341.4z"/>
		</g>
		<g>
			<path class="st8" d="M407,343.6c-1.5,0-3-0.3-4.4-1c-5.3-2.5-7.5-8.7-5.1-14l75.1-161.2l-58.2-48.4l-72.1,154.7
				c-2.4,5.3-8.7,7.5-14,5.1c-5.3-2.5-7.5-8.7-5.1-14l77.9-167c1.4-3,4-5.1,7.2-5.8c3.2-0.7,6.5,0.1,9,2.2l74.9,62.3
				c3.7,3,4.8,8.2,2.8,12.5l-78.6,168.5C414.8,341.4,411,343.6,407,343.6z"/>
		</g>
		<g>
			<path class="st8" d="M410.5,113C410.5,113,410.5,113,410.5,113l-220.2-0.4c-5.8,0-10.5-4.5-10.5-10.3c0-5.8,4.7-10.3,10.5-10.3
				c0,0,0,0,0,0l220.2,0.4c5.8,0,10.5,4.5,10.5,10.3C421,108.5,416.3,113,410.5,113z"/>
		</g>
		<g>
			<path class="st8" d="M378.1,182C378.1,182,378.1,182,378.1,182l-155.3-0.4c-5.8,0-10.5-5-10.5-10.8c0-5.8,4.7-10.8,10.5-10.8
				c0,0,0,0,0,0l155.2,0.6c5.8,0,10.5,4.9,10.5,10.7C388.6,177.1,383.9,182,378.1,182z"/>
		</g>
	</g>
	<g>
		<g>
			<g>
				<path class="st8" d="M298.6,519.5c-27.5,0-53.8-8.7-75.9-25.1c-56.6-41.9-68.6-122.1-26.6-178.7c24-32.4,62.4-51.7,102.8-51.7
					c27.5,0,53.8,8.7,75.9,25.1c27.4,20.3,45.3,50.1,50.3,83.8c5,33.8-3.4,67.4-23.7,94.9C377.4,500.2,339,519.5,298.6,519.5z
					 M298.8,283.2c-34.3,0-66.9,16.4-87.3,44C175.9,375.2,186,443.4,234.1,479c18.8,13.9,41.1,21.3,64.5,21.3
					c34.3,0,66.9-16.4,87.3-44c17.3-23.3,24.4-51.9,20.1-80.6c-4.3-28.7-19.5-54-42.8-71.2C344.5,290.6,322.2,283.2,298.8,283.2z"/>
			</g>
		</g>
		<g>
			<g>
				<polygon class="st8" points="269.3,277.7 248.5,324.8 197.1,330.3 				"/>
			</g>
		</g>
		<g>
			<g>
				<polygon class="st8" points="341.8,501.6 297.4,475.4 252.4,500.9 				"/>
			</g>
		</g>
		<g>
			<g>
				<polygon class="st8" points="400.8,331.6 349.6,325.8 329.1,278.3 				"/>
			</g>
		</g>
		<g>
			<g>
				<polygon class="st8" points="209.2,470.1 219.8,419.7 181.2,385.2 				"/>
			</g>
		</g>
		<g>
			<g>
				<polygon class="st8" points="416.5,383.6 378,417.9 388.5,468.5 				"/>
			</g>
		</g>
		<g>
			<g>
				<polygon class="st8" points="248.1,409.2 267.2,351.9 327.7,352.5 346,410.2 296.8,445.3 				"/>
			</g>
		</g>
		<g>
			<g>
				
					<rect x="333.4" y="302.2" transform="matrix(0.7907 0.6122 -0.6122 0.7907 278.8601 -135.9104)" class="st8" width="9.6" height="75.4"/>
			</g>
		</g>
		<g>
			<g>
				
					<rect x="221.7" y="335.3" transform="matrix(0.5973 0.802 -0.802 0.5973 377.1993 -71.044)" class="st8" width="75.4" height="9.6"/>
			</g>
		</g>
		<g>
			<g>
				
					<rect x="231.7" y="375" transform="matrix(0.323 0.9464 -0.9464 0.323 550.6783 55.5657)" class="st8" width="9.6" height="75.4"/>
			</g>
		</g>
		<g>
			<g>
				
					<rect x="258.7" y="452.8" transform="matrix(1.245915e-02 0.9999 -0.9999 1.245915e-02 750.2811 155.5903)" class="st8" width="75.4" height="9.6"/>
			</g>
		</g>
		<g>
			<g>
				
					<rect x="322.4" y="408.5" transform="matrix(0.9653 0.2612 -0.2612 0.9653 120.443 -79.7089)" class="st8" width="75.5" height="9.6"/>
			</g>
		</g>
	</g>
</g>
</svg>
