<?xml version="1.0" encoding="utf-8"?>
<!-- Generator: Adobe Illustrator 17.0.0, SVG Export Plug-In . SVG Version: 6.00 Build 0)  -->
<!DOCTYPE svg PUBLIC "-//W3C//DTD SVG 1.1//EN" "http://www.w3.org/Graphics/SVG/1.1/DTD/svg11.dtd" [
	<!ENTITY ns_flows "http://ns.adobe.com/Flows/1.0/">
	<!ENTITY ns_extend "http://ns.adobe.com/Extensibility/1.0/">
	<!ENTITY ns_ai "http://ns.adobe.com/AdobeIllustrator/10.0/">
	<!ENTITY ns_graphs "http://ns.adobe.com/Graphs/1.0/">
]>
<svg version="1.1" xmlns:x="&ns_extend;" xmlns:i="&ns_ai;" xmlns:graph="&ns_graphs;"
	 xmlns="http://www.w3.org/2000/svg" xmlns:xlink="http://www.w3.org/1999/xlink" xmlns:a="http://ns.adobe.com/AdobeSVGViewerExtensions/3.0/"
	 x="0px" y="0px" width="600px" height="600px" viewBox="0 0 600 600" style="enable-background:new 0 0 600 600;"
	 xml:space="preserve">
<style type="text/css">
	.st0{fill:#4EC928;}
	.st1{fill:#12B3FF;}
	.st2{fill:#687CFF;}
	.st3{fill:#6536FF;}
	.st4{fill:#C06AFF;}
	.st5{fill:#C90FAA;}
	.st6{fill:#FF5A79;}
	.st7{fill:#FF6A14;}
	.st8{fill:#FFFFFF;}
	.st9{fill:none;}
	.st10{adobe-knockout:true;}
	.st11{fill:#C90FAA;stroke:#FFFFFF;stroke-width:10;stroke-linecap:round;stroke-miterlimit:10;adobe-knockout:false;}
</style>
<g id="Layer_2">
	<rect class="st0" width="600" height="600"/>
</g>
<g id="Layer_1">
	<g>
		<g>
			<circle class="st8" cx="299.9" cy="192.7" r="51.4"/>
		</g>
		<g>
			<path class="st8" d="M263.9,308.3c-16,0-28.6-3.4-38-7.5c-22.1-9.5-32.2-25-33.3-26.7l33.6-21c0,0-0.1-0.1-0.2-0.3
				c0.2,0.3,5.5,7.9,17.6,12.5c16.9,6.4,39.5,3.9,65.3-7.4c43-18.8,65.6-27.4,87.1-25.3c24,2.4,39.7,17.5,62.8,42
				c7.5,8,7.1,20.5-0.9,28s-20.5,7.1-28-0.9c-19.8-21.1-28.5-28.8-37.8-29.7c-12.6-1.2-35.9,8.4-67.4,22.2
				C300.8,304.6,280.6,308.3,263.9,308.3z"/>
		</g>
		<g>
			
				<rect x="282" y="290.5" transform="matrix(0.3791 0.9254 -0.9254 0.3791 511.9001 -121.34)" class="st8" width="128.8" height="60.5"/>
		</g>
		<g>
			<path class="st8" d="M246.1,530.6c-2.5,0-5-0.5-7.4-1.5c-10.1-4.1-15-15.6-10.9-25.8l34.7-85.8c1.9-4.7,5.5-8.4,10-10.5
				l100.3-46.5c9.9-4.6,21.6-0.3,26.3,9.6l28.5,60.9l74.7-16.4c10.7-2.3,21.2,4.4,23.6,15.1c2.3,10.7-4.4,21.2-15.1,23.6l-90.2,19.8
				c-9,2-18.3-2.6-22.2-10.9l-26.9-57.4l-75.3,34.9l-31.8,78.5C261.3,525.9,253.9,530.6,246.1,530.6z"/>
		</g>
		<g>
			<path class="st8" d="M323.5,101.5c-12,0-21.8-11.3-22.5-27.6c-0.8,16.3-10.5,27.5-22.5,27.5c-12.2,0-24.7-10.4-29.2-28.4h-0.1
				l12.1,52h79.1l11.6-49.5C347.1,90.9,335.2,101.5,323.5,101.5z"/>
		</g>
	</g>
	<g>
		<circle class="st8" cx="143.8" cy="488.1" r="43"/>
	</g>
</g>
</svg>
