<?xml version="1.0" encoding="utf-8"?>
<!-- Generator: Adobe Illustrator 17.0.0, SVG Export Plug-In . SVG Version: 6.00 Build 0)  -->
<!DOCTYPE svg PUBLIC "-//W3C//DTD SVG 1.1//EN" "http://www.w3.org/Graphics/SVG/1.1/DTD/svg11.dtd" [
	<!ENTITY ns_flows "http://ns.adobe.com/Flows/1.0/">
	<!ENTITY ns_extend "http://ns.adobe.com/Extensibility/1.0/">
	<!ENTITY ns_ai "http://ns.adobe.com/AdobeIllustrator/10.0/">
	<!ENTITY ns_graphs "http://ns.adobe.com/Graphs/1.0/">
]>
<svg version="1.1" xmlns:x="&ns_extend;" xmlns:i="&ns_ai;" xmlns:graph="&ns_graphs;"
	 xmlns="http://www.w3.org/2000/svg" xmlns:xlink="http://www.w3.org/1999/xlink" xmlns:a="http://ns.adobe.com/AdobeSVGViewerExtensions/3.0/"
	 x="0px" y="0px" width="600px" height="600px" viewBox="0 0 600 600" style="enable-background:new 0 0 600 600;"
	 xml:space="preserve">
<style type="text/css">
	.st0{fill:#4EC928;}
	.st1{fill:#12B3FF;}
	.st2{fill:#687CFF;}
	.st3{fill:#6536FF;}
	.st4{fill:#C06AFF;}
	.st5{fill:#C90FAA;}
	.st6{fill:#FF5A79;}
	.st7{fill:#FF6A14;}
	.st8{fill:#FFFFFF;}
	.st9{fill:none;}
	.st10{adobe-knockout:true;}
	.st11{fill:#C90FAA;stroke:#FFFFFF;stroke-width:10;stroke-linecap:round;stroke-miterlimit:10;adobe-knockout:false;}
</style>
<g id="Layer_2">
	<rect class="st7" width="600" height="600"/>
</g>
<g id="Layer_1">
	<g>
		<g>
			<path class="st8" d="M178.6,302.4c-22.2,0-43.2-8.5-59.2-24c-16.3-15.8-25.4-37-25.7-59.7c-0.3-22.7,8.2-44.1,24-60.4
				c16.1-16.6,37.7-25.7,60.9-25.7c22.2,0,43.2,8.5,59.2,24c16.3,15.8,25.4,37,25.7,59.7c0.3,22.7-8.2,44.1-24,60.4
				C223.3,293.3,201.7,302.4,178.6,302.4z M178.6,152.6c-17.7,0-34.2,7-46.5,19.7c-12.1,12.4-18.6,28.8-18.4,46.1
				c0.2,17.3,7.2,33.5,19.7,45.6c12.2,11.8,28.2,18.4,45.2,18.4c17.7,0,34.2-7,46.5-19.7c12.1-12.4,18.6-28.8,18.4-46.1
				c-0.2-17.3-7.2-33.5-19.7-45.6C211.6,159.2,195.6,152.6,178.6,152.6z"/>
		</g>
		<g>
			<path class="st8" d="M326.2,318c-5.8,0-11-2.2-15.3-6.4c-10.1-10-65.3-63.5-65.9-64c-4-3.8-4.1-10.2-0.2-14.1
				c3.8-4,10.2-4.1,14.1-0.2c2.3,2.2,55.9,54.1,66.1,64.2c0.5,0.5,0.8,0.7,1.9,0.6c3.3-0.5,16.3-5.2,44.8-46
				c11.5-16.5,21.2-32.8,25.9-40.9c-6.3-10-17.5-31.3-12.4-48.9c1.9-6.5,6.9-15.3,19.7-20.2l6.8-2.6l24.3,30.1
				c3.5,4.3,2.8,10.6-1.5,14.1c-4.3,3.5-10.6,2.8-14.1-1.5l-14.2-17.6c-1,1.2-1.5,2.4-1.8,3.4c-1.5,5.1,0.1,13,4.5,22.4
				c3.8,8.2,8.4,14.5,8.5,14.5l3.8,5.2l-3.1,5.6c-0.5,1-13.3,24-30,47.9c-31.9,45.9-48.6,53-58.3,54.4
				C328.5,317.9,327.3,318,326.2,318z"/>
		</g>
		<g>
			<path class="st8" d="M325.6,457.8l-5-2.4c-4.2-2-42-20.6-87.4-54.9c-49.4-37.4-86.3-77-109.7-117.8c-2.7-4.8-1.1-10.9,3.7-13.6
				c4.8-2.7,10.9-1.1,13.6,3.7c51.1,89.5,159.1,149.4,183.4,162.1c53.1-35.3,90.5-93.8,112.7-137.3c25.6-50,39.6-96.6,41-109.3
				c2.4-20.8-19.2-48.2-31.5-54.7c-3.9,0-15.5,11.4-23.7,24.9c-2.9,4.7-9,6.2-13.7,3.4c-4.7-2.9-6.2-9-3.4-13.7
				c0.2-0.4,6.1-10,14-18.8c9.1-10,22.7-20.5,36-13.6c16.3,8.5,46,42.6,42.3,74.9c-1.7,14.4-16,63.2-43.1,116.1
				c-24,47-65.2,110.8-124.6,148.2L325.6,457.8z"/>
		</g>
		<g>
			<path class="st8" d="M218.4,380.3l-3.6-19.7c31.3-5.7,59.6-20.8,81.8-43.7c7.9-8.1,13-14.7,18.9-24.2l17,10.5
				c-6.6,10.8-12.7,18.5-21.6,27.7C285.8,356.7,253.8,373.8,218.4,380.3z"/>
		</g>
		<g>
			<path class="st8" d="M243.1,338.8c-5.8,0-11.3-2.2-15.4-6.3l-2.6-2.5c-4.2-4.1-6.6-9.7-6.7-15.6c-0.1-5.9,2.1-11.5,6.3-15.8
				l2.5-2.6c8.5-8.8,22.6-9,31.4-0.4l2.6,2.5c2.4,2.3,2.4,6.1,0.1,8.5c-2.3,2.4-6.1,2.4-8.5,0.1l-2.6-2.5c-4-3.9-10.5-3.8-14.4,0.2
				l-2.5,2.6c-1.9,1.9-2.9,4.5-2.9,7.2c0,2.7,1.1,5.3,3.1,7.2l2.6,2.5c1.9,1.9,4.5,2.9,7.2,2.9c2.7,0,5.3-1.1,7.2-3.1
				c2.3-2.4,6.1-2.4,8.5-0.1c2.4,2.3,2.4,6.1,0.1,8.5c-4.1,4.2-9.7,6.6-15.6,6.7C243.3,338.8,243.2,338.8,243.1,338.8z"/>
		</g>
	</g>
</g>
</svg>
