<?xml version="1.0" encoding="utf-8"?>
<!-- Generator: Adobe Illustrator 17.0.0, SVG Export Plug-In . SVG Version: 6.00 Build 0)  -->
<!DOCTYPE svg PUBLIC "-//W3C//DTD SVG 1.1//EN" "http://www.w3.org/Graphics/SVG/1.1/DTD/svg11.dtd" [
	<!ENTITY ns_flows "http://ns.adobe.com/Flows/1.0/">
	<!ENTITY ns_extend "http://ns.adobe.com/Extensibility/1.0/">
	<!ENTITY ns_ai "http://ns.adobe.com/AdobeIllustrator/10.0/">
	<!ENTITY ns_graphs "http://ns.adobe.com/Graphs/1.0/">
]>
<svg version="1.1" id="Layer_2" xmlns:x="&ns_extend;" xmlns:i="&ns_ai;" xmlns:graph="&ns_graphs;"
	 xmlns="http://www.w3.org/2000/svg" xmlns:xlink="http://www.w3.org/1999/xlink" xmlns:a="http://ns.adobe.com/AdobeSVGViewerExtensions/3.0/"
	 x="0px" y="0px" width="256px" height="256px" viewBox="0 0 256 256" style="enable-background:new 0 0 256 256;"
	 xml:space="preserve">
<style type="text/css">
	.st0{fill:#FFFFFF;}
	.st1{fill:#004993;}
	.st2{fill:#007BB0;}
</style>
<g>
	<g>
		<g>
			<path class="st0" d="M128,249.4C61,249.4,6.6,195,6.6,128S61,6.6,128,6.6S249.4,61,249.4,128S195,249.4,128,249.4z"/>
			<path class="st1" d="M128,11.1c31.2,0,60.6,12.2,82.6,34.2s34.2,51.4,34.2,82.6s-12.2,60.6-34.2,82.6s-51.4,34.2-82.6,34.2
				s-60.6-12.2-82.6-34.2S11.1,159.2,11.1,128s12.2-60.6,34.2-82.6S96.8,11.1,128,11.1 M128,2C58.4,2,2,58.4,2,128s56.4,126,126,126
				s126-56.4,126-126S197.6,2,128,2L128,2z"/>
		</g>
		<g>
			<circle class="st0" cx="128" cy="128" r="107.1"/>
			<path class="st2" d="M128,237.6c-60.5,0-109.6-49.2-109.6-109.6S67.5,18.4,128,18.4S237.6,67.5,237.6,128S188.5,237.6,128,237.6z
				 M128,23.4C70.3,23.4,23.4,70.3,23.4,128S70.3,232.6,128,232.6S232.6,185.7,232.6,128S185.7,23.4,128,23.4z"/>
		</g>
		<g>
			<path class="st1" d="M57,70.9c0.8,0.4,2,0.8,3.3,0.8s1.9-0.5,1.9-1.2s-0.6-1.1-2.1-1.7c-2.3-1-3.5-2.4-3.5-4.1
				c0-2.4,1.9-4.4,5.4-4.4c1.5,0,2.6,0.3,3.3,0.6l-0.7,2.9c-0.6-0.2-1.5-0.6-2.7-0.6c-1.1,0-1.7,0.5-1.7,1.1c0,0.7,0.6,1,2.3,1.7
				c2.3,1,3.3,2.3,3.3,4.2c0,2.5-1.9,4.4-5.7,4.4c-1.6,0-3-0.4-3.7-0.7L57,70.9z"/>
			<path class="st1" d="M67.7,60.6c1-0.2,2.3-0.3,4.2-0.3c1.9,0,3.3,0.3,4.3,1.1c0.9,0.7,1.5,2,1.5,3.3c0,1.5-0.5,2.7-1.4,3.5
				c-1.1,1-2.7,1.4-4.3,1.4c-0.3,0-0.6,0-0.8,0v4.8h-3.6V60.6H67.7z M71.2,66.8c0.2,0,0.4,0,0.7,0c1.4,0,2.2-0.8,2.2-2
				c0-1.1-0.6-1.8-1.9-1.8c-0.5,0-0.8,0-1,0.1C71.2,63.1,71.2,66.8,71.2,66.8z"/>
			<path class="st1" d="M84.9,74.6c-4.1,0-6.1-3.4-6.1-7.2c0-3.9,2.3-7.3,6.3-7.3c4.3,0,6.1,3.6,6.1,7C91.2,72,88.7,74.6,84.9,74.6
				L84.9,74.6z M85,71.7c1.6,0,2.4-1.7,2.4-4.4c0-2.4-0.9-4.2-2.4-4.2s-2.5,1.8-2.5,4.3C82.5,70,83.5,71.7,85,71.7L85,71.7z"/>
			<path class="st1" d="M93.1,60.6c1-0.2,2.5-0.3,4.1-0.3c2,0,3.5,0.3,4.5,1.1c0.9,0.7,1.3,1.7,1.3,3c0,1.6-1.1,2.9-2.3,3.4v0.1
				c0.9,0.4,1.4,1.3,1.7,2.5c0.4,1.4,0.8,3.4,1.1,4h-3.7c-0.2-0.4-0.5-1.6-0.9-3.3c-0.3-1.7-0.8-2-1.8-2h-0.5v5.3H93V60.6H93.1z
				 M96.7,66.5h0.8c1.3,0,2-0.7,2-1.8c0-1-0.6-1.7-1.8-1.7c-0.6,0-0.9,0-1.1,0.1L96.7,66.5L96.7,66.5z"/>
			<path class="st1" d="M107.5,63.5h-3.2v-3.1h10.1v3.1h-3.3v10.9h-3.6V63.5z"/>
			<path class="st1" d="M116.1,60.4h8.2v3h-4.6v2.7h4.3V69h-4.3v5.4h-3.6V60.4z"/>
			<path class="st1" d="M126.5,60.6c1-0.2,2.5-0.3,4.1-0.3c2,0,3.5,0.3,4.5,1.1c0.9,0.7,1.3,1.7,1.3,3c0,1.6-1.1,2.9-2.3,3.4v0.1
				c0.9,0.4,1.4,1.3,1.7,2.5c0.4,1.4,0.8,3.4,1.1,4h-3.7c-0.2-0.4-0.5-1.6-0.9-3.3c-0.3-1.7-0.8-2-1.8-2H130v5.3h-3.6L126.5,60.6
				L126.5,60.6z M130.1,66.5h0.8c1.3,0,2-0.7,2-1.8c0-1-0.6-1.7-1.8-1.7c-0.6,0-0.9,0-1.1,0.1v3.4H130.1z"/>
			<path class="st1" d="M146.7,68.7h-4.4v2.8h5v3h-8.6v-14h8.3v3h-4.7v2.4h4.4V68.7z"/>
			<path class="st1" d="M152.8,60.4v8.2c0,2,0.7,3,1.9,3s1.9-0.9,1.9-3v-8.2h3.6v7.9c0,4.1-1.9,6.3-5.5,6.3c-3.7,0-5.4-2.2-5.4-6.4
				v-7.9h3.5V60.4z"/>
			<path class="st1" d="M162.6,74.4v-14h4l2.2,4.5c0.6,1.2,1.4,3.1,1.9,4.6h0.1c-0.2-1.6-0.3-3.8-0.3-6.1v-3h3.2v14H170l-2.2-4.7
				c-0.7-1.4-1.5-3.2-2-4.7h-0.1c0.1,1.7,0.1,3.9,0.1,6.3v3.1C165.8,74.4,162.6,74.4,162.6,74.4z"/>
			<path class="st1" d="M176.2,60.6c1-0.2,2.5-0.3,4-0.3c2.5,0,4,0.4,5.3,1.4c1.5,1.1,2.3,2.9,2.3,5.5c0,2.8-1,4.7-2.3,5.8
				c-1.4,1.1-3.4,1.6-5.9,1.6c-1.5,0-2.7-0.1-3.3-0.2V60.6H176.2z M179.8,71.7c0.2,0,0.5,0,0.7,0c2,0,3.6-1.3,3.6-4.6
				c0-2.7-1.3-4.1-3.3-4.1c-0.5,0-0.7,0-0.9,0.1v8.6H179.8z"/>
			<path class="st1" d="M197.7,68.7h-4.4v2.8h5v3h-8.6v-14h8.3v3h-4.7v2.4h4.4V68.7z"/>
		</g>
		<g>
			<path class="st1" d="M60.1,130.8c3.6,1.8,9.5,3.6,15.3,3.6c5.9,0,8.8-2.2,8.8-5.5c0-3.4-2.8-5.3-9.8-8.1
				c-10.9-4.7-16.5-11.1-16.5-19.4C57.9,90,66.9,81,83,81c6.8,0,12.1,1.4,15.7,3l-3.2,13.7c-2.6-1.2-6.8-2.8-12.6-2.8
				c-5.3,0-8.1,2.1-8.1,5.1c0,3.2,2.8,4.7,10.9,8.2c11,4.5,15.6,11,15.6,19.5c0,11.6-9,20.7-26.5,20.7c-7.3,0-14.2-1.8-17.5-3.5
				L60.1,130.8z"/>
			<path class="st1" d="M109.9,81.9h38.5v13.9h-21.7v12.8H147v13.7h-20.3v25.2h-16.8C109.9,147.5,109.9,81.9,109.9,81.9z"/>
			<path class="st1" d="M159,81.9h16.8v51.5h22.5v14.1H159V81.9z"/>
		</g>
		<g>
			<path class="st1" d="M57,156.1h9.6v29.3h12.8v8H57V156.1z"/>
			<path class="st1" d="M96.8,194c-10.9,0-16.3-9-16.3-19.1c0-10.4,6.2-19.4,16.9-19.4c11.5,0,16.4,9.6,16.4,18.7
				C113.7,186.9,107.1,194,96.8,194L96.8,194z M97.2,186.2c4.2,0,6.4-4.6,6.4-11.6c0-6.4-2.3-11.3-6.5-11.3c-4.1,0-6.6,4.9-6.5,11.4
				C90.6,181.6,93.1,186.2,97.2,186.2L97.2,186.2z"/>
			<path class="st1" d="M124,164.3h-8.6V156h27v8.3h-8.8v29.1H124V164.3z"/>
			<path class="st1" d="M153.7,164.3h-8.6V156h27v8.3h-8.8v29.1h-9.6L153.7,164.3L153.7,164.3z"/>
			<path class="st1" d="M198,178.1h-11.9v7.4h13.3v7.9h-22.9V156h22.1v7.9h-12.5v6.3H198V178.1z"/>
		</g>
	</g>
	<g>
		<path class="st1" d="M107.5,209.1L107.5,209.1l-3.1,1.4l-0.7-3.3l4.4-2h3.6v16.2h-4.2V209.1z"/>
		<path class="st1" d="M117.5,218.3c0.6,0,0.9,0,1.6,0c0.9,0,1.9-0.3,2.7-0.8c0.9-0.6,1.5-1.5,1.8-2.5l0,0c-0.6,0.6-1.5,0.9-2.8,0.9
			c-2.5,0-4.8-1.8-4.8-5c0-3.1,2.4-5.8,6-5.8c4.1,0,6,3.2,6,6.9c0,3.5-1.1,6-2.9,7.6c-1.5,1.3-3.5,2.1-6,2.2c-0.5,0-1.1,0-1.6,0
			V218.3z M121.9,208.1c-0.9,0-1.6,1-1.6,2.4c0,1.2,0.5,2.3,1.7,2.3c0.7,0,1.2-0.4,1.4-0.7c0.1-0.3,0.2-0.6,0.2-1.3
			C123.6,209.5,123.1,208.1,121.9,208.1L121.9,208.1z"/>
		<path class="st1" d="M129.6,221.5v-2.7l2.1-2c3-2.8,4.6-4.6,4.6-6.3c0-1.1-0.8-2-2.3-2c-1.2,0-2.3,0.6-3.2,1.1l-1-3.1
			c1.1-0.8,3-1.5,5.1-1.5c3.8,0,5.7,2.2,5.7,5.1c0,2.7-1.8,4.9-3.7,6.5l-1.4,1.2v0h5.4v3.6H129.6z"/>
		<path class="st1" d="M144.2,218.3c0.6,0,0.9,0,1.6,0c0.9,0,1.9-0.3,2.7-0.8c0.9-0.6,1.5-1.5,1.8-2.5l-0.1,0
			c-0.6,0.6-1.5,0.9-2.8,0.9c-2.5,0-4.8-1.8-4.8-5c0-3.1,2.4-5.8,6-5.8c4.1,0,6,3.2,6,6.9c0,3.5-1.1,6-2.9,7.6
			c-1.5,1.3-3.5,2.1-6,2.2c-0.5,0-1.1,0-1.6,0V218.3z M148.5,208.1c-0.9,0-1.6,1-1.6,2.4c0,1.2,0.5,2.3,1.7,2.3
			c0.7,0,1.2-0.4,1.4-0.7c0.1-0.3,0.2-0.6,0.2-1.3C150.3,209.5,149.8,208.1,148.5,208.1L148.5,208.1z"/>
	</g>
</g>
</svg>
