<?xml version="1.0" encoding="utf-8"?>
<!-- Generator: Adobe Illustrator 17.0.0, SVG Export Plug-In . SVG Version: 6.00 Build 0)  -->
<!DOCTYPE svg PUBLIC "-//W3C//DTD SVG 1.1//EN" "http://www.w3.org/Graphics/SVG/1.1/DTD/svg11.dtd" [
	<!ENTITY ns_flows "http://ns.adobe.com/Flows/1.0/">
	<!ENTITY ns_extend "http://ns.adobe.com/Extensibility/1.0/">
	<!ENTITY ns_ai "http://ns.adobe.com/AdobeIllustrator/10.0/">
	<!ENTITY ns_graphs "http://ns.adobe.com/Graphs/1.0/">
]>
<svg version="1.1" id="Layer_2" xmlns:x="&ns_extend;" xmlns:i="&ns_ai;" xmlns:graph="&ns_graphs;"
	 xmlns="http://www.w3.org/2000/svg" xmlns:xlink="http://www.w3.org/1999/xlink" xmlns:a="http://ns.adobe.com/AdobeSVGViewerExtensions/3.0/"
	 x="0px" y="0px" width="256px" height="256px" viewBox="0 0 256 256" style="enable-background:new 0 0 256 256;"
	 xml:space="preserve">
<style type="text/css">
	.st0{fill:#FFFFFF;}
	.st1{fill:#54B948;}
	.st2{fill:#1D8C8E;}
	.st3{fill:#14DEAC;}
	.st4{fill:#1466AC;}
	.st5{fill:#757575;}
	.st6{fill:#B69442;}
	.st7{fill:#1A234D;}
	.st8{fill:#AA0629;}
	.st9{fill:#FF4A49;}
	.st10{fill:#3C6643;}
	.st11{fill:none;stroke:#FF4A49;stroke-miterlimit:10;}
	.st12{fill:#E70084;}
	.st13{fill:#508A72;}
	.st14{fill:#01A663;}
	.st15{fill:#015297;}
	.st16{fill:#B0B0B0;}
	.st17{fill:#E1062F;}
	.st18{fill:#D80000;stroke:#FFFFFF;stroke-width:2;stroke-miterlimit:10;}
	.st19{fill:#D80000;}
	.st20{fill:#8ABE23;}
	.st21{fill:#1D1D1B;}
	.st22{fill:#FEFEFE;}
	.st23{fill:#FF0000;}
	.st24{fill:#FF1D1B;}
	.st25{fill:#6DB2DE;}
	.st26{fill:#FF1D25;}
	.st27{fill:#FFDA00;}
	.st28{fill:#024D9E;}
	.st29{fill:#6B97C6;}
	.st30{fill:#000078;}
	.st31{fill:none;stroke:#FFFFFF;stroke-width:6;stroke-linecap:round;stroke-miterlimit:10;}
	.st32{fill:#FFEE34;}
	.st33{fill:none;stroke:#000000;stroke-width:4;stroke-miterlimit:10;}
	.st34{fill:#D11E24;}
	.st35{fill:#D71F26;}
	.st36{fill:#020000;}
	.st37{fill:none;stroke:#000000;stroke-width:2;stroke-miterlimit:10;}
	.st38{clip-path:url(#SVGID_2_);}
	.st39{fill:#00317D;}
	.st40{fill:#00737D;}
	.st41{fill:#ED1C24;}
	.st42{fill:#2678C7;}
	.st43{fill:#1853A6;}
	.st44{fill:#CB0000;}
	.st45{fill:#E61C21;}
	.st46{clip-path:url(#SVGID_4_);}
	.st47{fill:#6BDEF1;}
	.st48{clip-path:url(#SVGID_6_);}
	.st49{fill:#0165B2;}
	.st50{fill:#DE1134;}
	.st51{fill:#00A668;}
	.st52{fill:#FFE60B;}
	.st53{fill:#843D00;stroke:#000000;stroke-miterlimit:10;}
	.st54{fill:#EC1F27;}
	.st55{fill:#162984;}
	.st56{fill:#1853A6;stroke:#1853A6;stroke-miterlimit:10;}
	.st57{fill:none;}
	.st58{fill:none;stroke:#1853A6;stroke-width:0.9;stroke-miterlimit:10;}
	.st59{fill:#1853A6;stroke:#1853A6;stroke-width:0.9;stroke-miterlimit:10;}
	.st60{fill:#B5985A;}
	.st61{fill:#FFE60B;stroke:#000000;stroke-width:6;stroke-miterlimit:10;}
	.st62{fill:#008DCD;}
	.st63{fill:#009939;}
	.st64{fill:#2E3092;}
	.st65{fill:#EE3224;}
	.st66{fill:#005BAB;}
	.st67{fill:#D30027;}
	.st68{fill:#FFFFFF;stroke:#D30027;stroke-width:10;stroke-miterlimit:10;}
	.st69{fill:#E81C2F;}
	.st70{fill:#DC032B;}
	.st71{fill:#F25448;}
	.st72{fill:#FFFFFF;stroke:#F25448;stroke-width:6;stroke-miterlimit:10;}
	.st73{fill:#05A08D;}
	.st74{fill:#1875CE;}
	.st75{fill:#D72427;}
	.st76{fill:#004993;}
	.st77{fill:#007BB0;}
	.st78{fill:#FFEB00;}
	.st79{fill:#664A9E;}
	.st80{fill:#F4C701;}
	.st81{fill:#EBBE12;}
	.st82{fill:#44B3DB;}
	.st83{fill:#F6FF82;}
	.st84{fill:#FFC918;}
	.st85{fill:#0361A4;}
	.st86{fill:#009FE3;}
	.st87{fill:#E30217;}
	.st88{fill:#FDEA00;}
	.st89{fill:#E91B00;}
	.st90{fill:#2B2763;}
	.st91{fill:#EE1A22;}
	.st92{fill:#F1AA25;}
	.st93{fill:#93000C;}
	.st94{fill:none;stroke:#1D1D1B;stroke-width:4;}
	.st95{fill:#3E4E70;}
	.st96{fill:#096CB6;}
	.st97{fill:#0559A8;}
	.st98{fill:#F9ED1A;}
	.st99{fill:#949494;}
	.st100{fill:#FFD033;}
	.st101{fill:#243D89;}
	.st102{fill:#F8C936;}
	.st103{fill:#D44128;}
	.st104{fill:#ED1B23;}
	.st105{fill:#0C529C;}
	.st106{fill:#E31E24;}
	.st107{fill:#0263B0;}
	.st108{fill:#007AC2;}
	.st109{fill:#EF3D1F;}
	.st110{fill:#EE1C24;}
	.st111{fill:#FDEA00;stroke:#000000;stroke-width:0.6509;}
	.st112{fill:#FDEA00;stroke:#000000;stroke-width:0.6979;}
	.st113{fill:#46A0BE;}
	.st114{fill:#005FA5;}
	.st115{fill:#00904C;}
	.st116{fill:#E21F26;}
	.st117{fill:#FD0001;}
	.st118{fill:#0066B3;}
	.st119{fill:#E20019;}
	.st120{fill:#0171BC;}
	.st121{fill:#01305D;}
	.st122{fill:#1B7EE9;}
	.st123{fill:#BA0D0B;}
	.st124{fill:none;stroke:#000000;stroke-width:3;stroke-miterlimit:10;}
	.st125{fill:#FFFFFF;stroke:#000000;stroke-width:0.8836;stroke-miterlimit:10;}
	.st126{fill:#FFFFFF;stroke:#000000;stroke-width:0.9759;stroke-miterlimit:10;}
	.st127{fill:#0053A1;}
	.st128{fill:#FFE100;}
	.st129{fill:#FFE500;}
	.st130{fill:none;stroke:#FFE500;stroke-width:2;stroke-miterlimit:10;}
	.st131{fill:#01AFF3;}
	.st132{fill:#ED1B28;}
	.st133{fill:#E2000A;}
</style>
<g>
	<circle class="st15" cx="127.1" cy="127.7" r="125"/>
	<g>
		<path class="st0" d="M50.7,220.6l9.8-24.8l5.7,4.4l-4.4,9.5c-1.2,2.6-2.4,5.3-3.9,8.1l0.1,0c2.3-2.1,4.6-4.1,6.8-5.8l8.2-6.7
			l5.6,4.3l-21.7,15.6L50.7,220.6z"/>
		<path class="st0" d="M77,237.5c-6.8-3.1-7.6-10.3-4.7-16.6c3-6.5,9.4-10.3,16-7.3c7.2,3.3,7.5,10.6,4.9,16.3
			C89.5,237.9,83.4,240.4,77,237.5L77,237.5z M79.4,232.8c2.6,1.2,5.3-1,7.3-5.4c1.8-4,1.8-7.7-0.8-8.9c-2.6-1.2-5.5,1.2-7.3,5.3
			C76.6,228,76.8,231.6,79.4,232.8L79.4,232.8z"/>
		<path class="st0" d="M94.9,244.1l4.8-25.2l7.1,1.3l2.3,8.9c0.7,2.4,1.5,6,1.9,8.8l0.1,0c0.3-3,0.8-7,1.5-11l1-5.4l5.8,1.1
			l-4.8,25.2l-6.6-1.2l-2.4-9.2c-0.7-2.7-1.6-6.3-2.1-9.2l-0.1,0c-0.4,3.1-1,7-1.9,11.3l-1.1,5.6L94.9,244.1z"/>
		<path class="st0" d="M135.3,229L135.3,229l-4.5,2.6l-1.5-4.9l6.4-3.7l5.4-0.5l2.4,24.6l-6.4,0.6L135.3,229z"/>
		<path class="st0" d="M154,240.4c0.9-0.2,1.4-0.4,2.4-0.7c1.3-0.5,2.7-1.3,3.6-2.3c1.1-1.2,1.6-2.9,1.6-4.5l-0.1,0
			c-0.6,1.1-1.8,2-3.6,2.5c-3.7,1.1-7.8-0.5-9.2-5.2c-1.3-4.5,0.9-9.6,6.2-11.1c6-1.8,10.1,2,11.8,7.5c1.5,5.1,1,9.2-0.9,12.3
			c-1.6,2.6-4.3,4.6-7.9,5.8c-0.8,0.3-1.7,0.5-2.3,0.7L154,240.4z M155.9,223.6c-1.3,0.4-1.9,2.1-1.2,4.3c0.5,1.7,1.8,3.2,3.5,2.7
			c1.1-0.3,1.6-1.1,1.8-1.7c0.1-0.5,0-0.9-0.3-2C159,224.9,157.7,223,155.9,223.6L155.9,223.6z"/>
		<path class="st0" d="M183.9,234.4c-6,3.2-11-1.4-14-6.9c-3.1-5.9-3.7-12.5,2.1-15.6c6.2-3.3,11.1,1.7,13.9,6.9
			C189.5,225.7,189.1,231.6,183.9,234.4L183.9,234.4z M181.6,229.9c1.4-0.7,1.1-3.1-1.4-7.9c-2.4-4.6-4.3-6.3-5.7-5.6
			c-1.4,0.8-1.3,3.2,1.3,7.9C178.2,229.2,180.1,230.7,181.6,229.9L181.6,229.9z"/>
		<path class="st0" d="M203.5,221.4c-5.2,4.3-11.1,0.8-15-4.1c-4.2-5.2-6.1-11.6-1-15.7c5.4-4.4,11.3-0.4,15,4.1
			C207.3,211.8,208.1,217.7,203.5,221.4L203.5,221.4z M200.3,217.4c1.2-1,0.5-3.3-2.9-7.5c-3.3-4-5.4-5.4-6.7-4.3
			c-1.3,1-0.7,3.4,2.8,7.5C196.9,217.4,199,218.5,200.3,217.4L200.3,217.4z"/>
	</g>
	<g>
		<path class="st0" d="M51.9,87.7l8.3,4.9l3.6-6.1l-8.3-4.9l3.3-5.7l22.1,13l-3.3,5.7l-8.8-5.1l-3.6,6.1l8.8,5.1l-3.3,5.7l-22.1-13
			L51.9,87.7z"/>
		<path class="st0" d="M90.6,81.1c-5.9,4.6-12.6,2-16.9-3.4c-4.4-5.6-4.8-13,0.9-17.6c6.2-4.8,12.9-1.7,16.7,3.2
			C96.8,70.1,96.2,76.8,90.6,81.1L90.6,81.1z M87.6,76.8c2.2-1.8,1.5-5.2-1.4-9c-2.7-3.5-6-5.1-8.3-3.4c-2.2,1.7-1.5,5.4,1.3,8.9
			C82,77.1,85.3,78.5,87.6,76.8L87.6,76.8z"/>
		<path class="st0" d="M92.9,49.4l6.2-2.1l6.6,19l8.3-2.9l1.8,5.2l-14.5,5L92.9,49.4z"/>
		<path class="st0" d="M117,61.9c1.4,0.7,3.8,1.2,6,1.1c2.3-0.1,3.4-1,3.3-2.3c-0.1-1.3-1.2-2-4-3c-4.3-1.6-6.6-4-6.8-7.3
			c-0.2-4.4,3.1-8.1,9.4-8.4c2.7-0.1,4.7,0.3,6.2,0.9l-1,5.4c-1-0.4-2.7-1-4.9-0.9c-2,0.1-3.1,1-3.1,2.1c0.1,1.3,1.2,1.8,4.4,3
			c4.4,1.6,6.3,4,6.4,7.3c0.2,4.5-3.1,8.2-10,8.5c-2.8,0.1-5.6-0.5-6.9-1.1L117,61.9z"/>
		<path class="st0" d="M144,49.8l-5.7-1.5l1.4-5.5l17.9,4.6l-1.4,5.5l-5.8-1.5l-5,19.3l-6.4-1.6L144,49.8z"/>
		<path class="st0" d="M170.3,71.7l-6.9-4.3l-2.6,4.3l7.7,4.8l-2.8,4.6L152.2,73l13.4-21.8l12.9,7.9l-2.8,4.6l-7.3-4.5l-2.3,3.7
			l6.9,4.3L170.3,71.7z"/>
		<path class="st0" d="M189.7,69.4l-18,18.2L167,83l18-18.2L189.7,69.4z"/>
		<path class="st0" d="M174.2,89.4l22.2-12.7l3.6,6.3l-5.2,7.5c-1.4,2.1-3.6,5-5.5,7.2l0.1,0.1c2.5-1.8,5.8-3.9,9.4-6l4.8-2.7
			l2.9,5.1L184.3,107l-3.3-5.8l5.4-7.8c1.6-2.3,3.8-5.3,5.7-7.5l-0.1-0.1c-2.6,1.7-6,3.7-9.8,5.9l-5,2.8L174.2,89.4z"/>
	</g>
	<circle class="st0" cx="127" cy="128" r="47.7"/>
	<g>
		<path class="st16" d="M81.4,130.7c0-1.5,0-3,0-4.4c0.3-0.8,0.1-1.6,0.2-2.4c0.5-4.7,1.6-9.4,3.4-13.8c2.8-6.7,6.8-12.6,12.3-17.5
			c6.5-5.8,14.1-9.1,22.7-10.3c1.3-0.2,2.6-0.3,3.9-0.5c1.7,0,3.5,0,5.2,0c1.4,0.2,2.7,0.3,4.1,0.5c4.7,0.6,9.2,1.8,13.4,3.9
			c6.6,3.3,12.1,8.1,16.4,14.1c7.2,10,10.5,21.1,9.2,33.4c-0.9,8.5-4,16.1-9.4,22.8c-4.7,5.7-10.3,10.1-17,13.1
			c-8,3.5-16.3,4.5-25,3.4c-7.7-1-14.6-4.1-20.7-8.7c-5.6-4.2-10.1-9.5-13.5-15.6c-2.1-3.9-3.7-8-4.5-12.3
			C81.8,134.6,81.7,132.6,81.4,130.7z M103.2,141.1c0,3,0.8,5.4,2.7,7.1c2.5,2.3,5.3,4.4,8.3,6c1.8,1,3.7,1.7,5.8,1.1
			c2.9-0.8,5.7-1.7,8.3-3.3c1.5-1,2.7-2.2,3.1-4.1c1-4.6,1.6-9.2,2.3-13.8c0.2-1.3,0-2.3-1.1-3.1c-0.4-0.3-0.8-0.7-1.2-1.1
			c-2.4-2.2-4.9-4.1-7.7-5.7c-1.4-0.7-2.8-1-4.3-0.6c-1.3,0.4-2.6,0.9-3.8,1.5c-2.1,1.1-4.1,2.3-6.4,3.1c-1.8,0.7-3.1,2.1-4,3.8
			C103.6,135.2,103.8,138.4,103.2,141.1z M162.9,132.5c0.2-0.4-0.2-0.7-0.5-0.9c-3.9-3.3-8.4-5.5-12.9-7.7c-0.2-0.1-0.5-0.1-0.7-0.1
			c-1.8,0.2-3.4,1-4.9,1.9c-2.6,1.6-4.8,3.7-7.2,5.5c-0.7,0.5-1.1,1.2-1.3,1.9c-0.1,0.5-0.2,1-0.2,1.5c-0.7,4.5-1.6,9.1-2.2,13.6
			c-0.2,1.2,0,1.9,1.1,2.6c2.9,2,6,3.7,9.3,4.9c1.7,0.6,3.3,0.5,4.8-0.5c2.9-2,5.8-4,8.7-6c0.8-0.6,1.5-1.2,2.2-1.9
			c1.2-1.3,2.2-2.7,2.6-4.5C162.4,139.5,162.5,136,162.9,132.5z M114.2,94.2c-1.2,0-2.5,0.7-3.8,1.2c-5.6,2.2-9.3,6.3-11.4,11.8
			c-1,2.7-1.9,5.6-2.9,8.3c-0.5,1.4-0.3,2.6,0.4,3.8c1.1,1.9,2.6,3.4,4.1,5c1.1,1.1,2.2,2.3,3.6,3.1c1.5,0.9,3,0.9,4.4-0.1
			c0.6-0.4,1.2-0.7,1.8-1.1c3.2-1.7,6.4-3.5,9.5-5.2c0.4-0.2,0.6-0.4,0.7-0.8c1.1-4,2.6-8,3.9-11.9c0.2-0.5,0.2-1,0.2-1.5
			c-0.2-2.1-1.1-3.9-2.4-5.5c-1.6-2-3.3-3.9-5-5.8C116.6,94.6,115.6,94.2,114.2,94.2z M169.3,119c0-0.2,0-0.4,0-0.5
			c0-0.2,0-0.3-0.1-0.5c-1.1-6.5-3.7-12.4-7.9-17.6c-2.1-2.6-4.5-5-7.8-6.3c-0.5-0.2-1-0.4-1.5-0.5c-0.7-0.1-1.4,0.1-1.8,0.8
			c-1.2,2.1-2.8,4-4.2,6.1c-1.1,1.7-1.9,3.4-1.6,5.5c0.2,0.9,0.5,1.8,0.8,2.7c1.3,4.1,2.3,8.2,4.2,12.1c0.2,0.4,0.4,0.7,0.8,1
			c4,3,8.3,5.3,12.8,7.3c0.6,0.3,1,0.1,1.4-0.4c0.9-1.2,1.8-2.3,2.6-3.5C168.3,123.3,169.3,121.3,169.3,119z M128.2,83.6
			c-0.6,0-1.2,0-1.8,0c-0.7,0-1.3,0-1.9,0.3c-2.1,1.2-3.9,2.6-5.4,4.5c-1.9,2.4-2.2,4.6,0.1,7c2.4,2.6,4.7,5.2,7.1,7.7
			c0.3,0.4,0.7,0.5,1.2,0.5c4.5-0.1,9-0.5,13.5-0.8c0.6,0,1.4,0,1.9-0.5c2.6-2.8,4.8-5.9,6-9.6c0.1-0.4,0.1-0.7-0.1-1
			c-0.9-1.9-2.3-3.2-4.1-4.1C139.5,84.8,134,83.7,128.2,83.6z M92.9,151.6c0,0.7,0,1.6,0.2,2.4c0.2,1.4,0.6,2.8,1.7,3.8
			c3.6,3.7,7.6,6.9,12.2,9.2c2.9,1.4,5.8,2.4,9.1,1.7c1.9-0.4,2.6-1,2.7-2.9c0-0.5,0-1,0-1.5c-0.2-1.7-0.8-3.2-1.6-4.7
			c-0.7-1.4-1.6-2.6-3.1-3.3c-0.9-0.4-1.6-1-2.4-1.6c-2.9-2.1-5.6-4.6-8.5-6.7c-0.3-0.2-0.6-0.4-1-0.5c-1.2-0.3-2.4-0.2-3.6,0.1
			c-1.4,0.4-2.7,0.9-4,1.4C92.9,149.7,92.9,149.7,92.9,151.6z M83.2,126.3c0.1,0.5,0.1,1,0.3,1.4c0.2,0.7,0.6,1.3,1.4,1.4
			c0.8,0.1,1.3-0.4,1.7-1c0.3-0.4,0.5-0.9,0.8-1.2c1.4-1.6,2.7-3.2,4.1-4.9c1-1.2,1.9-2.4,2.2-4c1.2-5.6,3.2-11,5.9-16
			c0.8-1.4,0.5-2.5-0.3-3.7c-1.4-2-3.7-1.9-5,0.1c-0.3,0.5-0.6,1-1,1.5c-2.6,3.4-4.8,7.1-6.5,11C84.6,115.7,83.4,120.9,83.2,126.3z
			 M141.6,168.8c0.7,0,1.2-0.1,1.7-0.2c2.2-0.6,4.2-1.8,6.2-2.9c6.3-3.6,11.5-8.4,15.2-14.7c0.5-0.8,0.9-1.7,0.9-2.6
			c0.1-0.9-0.4-1.4-1.3-1.5c-0.8,0-1.5,0.1-2.2,0.6c-4.3,2.8-8.4,6-12.7,8.9c-0.9,0.6-1.9,1.1-2.8,1.8c-3,2.5-5.1,5.8-7.3,8.9
			c-0.2,0.3-0.1,0.6,0.1,0.8C140,168.6,140.9,168.8,141.6,168.8z M117.6,170.4c1.4,0.8,3.7,1.3,5.7,1.5c3.6,0.3,7.1-0.1,10.7-0.5
			c0.9-0.1,1.8-0.2,2.6-0.5c0.2-0.1,0.4-0.1,0.4-0.4c0-0.2-0.2-0.3-0.4-0.4c-0.6-0.3-1.2-0.3-1.8-0.4c-3.9-0.7-7.9-1.1-11.9-0.5
			C121.2,169.3,119.4,169.7,117.6,170.4z M91,152.9c0.4-1.3,0.6-2.5-0.1-3.7c-3.1-5.4-5-11.2-6-17.3c0-0.2,0.1-0.5-0.2-0.6
			c-0.3-0.1-0.5,0.1-0.6,0.3c-0.2,0.2-0.3,0.5-0.4,0.8c-0.2,0.8-0.2,1.5-0.1,2.3C84.6,141.3,87.4,147.2,91,152.9z"/>
	</g>
	<g>
		<g>
			<path class="st17" d="M63.5,128.4c3,3.2,6.1,6.4,9,9.7c5.8,6.6,11.6,13.3,17.4,20c3.8,4.4,4.3,8,1.3,13.1
				c-0.6,1.1-2.3,2.2-0.8,3.3c1.6,1.1,2.7-0.6,3.6-1.7c1.5-2,1.3-4.4,1.3-6.7c-0.2-11.3-0.4-22.6-0.4-34c0-1.9-0.4-3.9,1-6.7
				c1.6,3.1,3.1,5.6,4.1,8.2c3.6,9.1,7.1,18.3,10.7,27.4c1.1,2.8,2.3,5.6,5.7,6.4c1.3,0.3,2.5,0.1,3-1.1c0.6-1.1-0.5-1.8-1.4-2.3
				c-2.4-1.4-3.9-3.5-5.2-5.9c-1.6-3-1.7-5.6,0.3-8.8c6.6-10.5,10.7-22.1,13.7-34.1c0.5-1.9,0.9-3.8,1.4-5.7c2.5,0.6,2,2.5,2.3,3.8
				c3.2,13.2,7.6,25.8,14.8,37.4c2.1,3.5,0.2,8.7-4.1,12.6c-1,0.9-4,1.3-2.3,3.4c1.5,1.8,3.8,0.7,5.4-0.7c1.8-1.6,2.6-3.8,3.4-6
				c3.4-8.7,6.7-17.4,10.1-26c1.1-2.7,2.1-5.5,4.1-7.8c1.7,1,1.1,2.5,1.1,3.7c0.4,11.8,0.1,23.6-0.4,35.5c-0.1,3-0.4,6.1,2,8.4
				c0.8,0.7,1.8,1.9,3,0.8c0.9-0.9,0.1-1.8-0.4-2.6c-3.9-7-3.6-8.9,1.8-15c7.2-8.1,14.3-16.3,21.4-24.4c1.3-1.4,2.4-3.2,4.3-3.8
				c0.9,0.6,0.5,1.2,0.2,1.8c-8,14.9-13.6,30.7-17.6,47.1c-0.9,3.5-2.3,4.8-6,4.8c-28.3-0.1-56.6-0.1-84.9-0.1
				c-2.3,0-4.8,0.3-5.5-2.8c-4-17.5-10.1-34.3-18.6-50.2C62.7,128.9,63.1,128.6,63.5,128.4z"/>
			<path class="st0" d="M129,193.3c-14.6,0-29.3,0-43.9,0c-3.3,0-6.9-0.1-6.8-4.5c0.1-4.2,3.4-4.6,6.9-4.6c29.3,0,58.6,0,87.9,0
				c0.5,0,1,0,1.5,0c3,0.1,5.4,1.2,5.4,4.6c0,3.3-2.4,4.5-5.4,4.5c-11.5,0-23,0-34.5,0C136.3,193.3,132.6,193.3,129,193.3z"/>
			<path class="st0" d="M81.5,195.6c31.7,0,63.4,0,95.1,0c0,0.3,0,0.6,0,0.9c-31.7,0-63.4,0-95.1,0
				C81.5,196.2,81.5,195.9,81.5,195.6z"/>
		</g>
	</g>
</g>
<g>
	<path class="st0" d="M33.2,57l4.6-5l8,7.3l0.1-0.1c-0.3-1-0.7-2.1-1-3.1l-2.6-9.1l5.7-6.2l2.6,13.4l16.5,3.7l-5.4,5.9l-11.3-3
		L51,64l5.7,5.2l-4.6,5L33.2,57z"/>
	<path class="st0" d="M58.5,33.1L74,53.4l-5.5,4.2L53,37.2L58.5,33.1z"/>
	<path class="st0" d="M86.2,34.4l-8.1,4.3l2.2,4.2l9.1-4.8l2.6,5l-15.2,8.1l-12-22.6l14.7-7.8l2.6,5l-8.6,4.6l1.9,3.6l8.1-4.3
		L86.2,34.4z"/>
	<path class="st0" d="M87.3,17.6l6.6-1.9l5.6,19.1l9.4-2.8l1.6,5.5l-16.1,4.7L87.3,17.6z"/>
	<path class="st0" d="M127.8,25.7l-9.2,0.7l0.4,4.7l10.3-0.8l0.4,5.6l-17.1,1.3l-2-25.5l16.6-1.3l0.4,5.6l-9.7,0.8l0.3,4.1l9.2-0.7
		L127.8,25.7z"/>
	<path class="st0" d="M135.7,10.9c2,0,4.9,0.1,8.3,0.6c3.9,0.6,6.6,1.5,8.3,3.2c1.4,1.5,2.1,3.4,1.7,5.8c-0.4,3.2-3.1,5-5.2,5.5
		l0,0.1c1.5,1,2.3,2.7,2.6,5c0.4,2.7,0.7,6.5,1,7.6l-6.9-1c-0.3-0.8-0.7-2.9-0.9-6.1c-0.2-3.1-1.1-3.9-3.2-4.2l-1.1-0.2l-1.4,9.5
		l-6.7-1L135.7,10.9z M140.9,22.5l1.8,0.3c2.6,0.4,4.2-0.7,4.5-2.6c0.3-1.9-0.8-3.1-3.1-3.5c-1.3-0.2-2-0.2-2.3-0.2L140.9,22.5z"/>
	<path class="st0" d="M164,35.7c1.1,1.4,3,3.2,5.3,4.3c2.1,1,3.5,0.8,4.1-0.4c0.5-1.1-0.2-2.2-2.4-4.4c-3.3-3.3-4.9-6.6-3.2-10.1
		c1.9-4.1,6.9-5.6,12.7-2.9c2.7,1.3,4.5,2.8,5.7,4.1l-3.7,4.4c-0.8-0.9-2.2-2.4-4.5-3.5c-1.9-0.9-3.2-0.7-3.7,0.3
		c-0.6,1.2,0.5,2.2,2.9,4.7c3.4,3.5,4.2,6.6,2.7,9.8c-1.9,4-6.6,5.9-13.3,2.7c-2.8-1.3-5.2-3.3-6.1-4.6L164,35.7z"/>
	<path class="st0" d="M181.2,53.3c-1.9-1.3-2.3-3.5-0.9-5.5s3.6-2.4,5.5-1.1c1.9,1.3,2.3,3.5,1,5.5
		C185.4,54.2,183.2,54.6,181.2,53.3L181.2,53.3z"/>
	<path class="st0" d="M191.2,60.6l12.3-23.9l5.3,5.3l-5.1,9.1c-1.5,2.6-3,5.1-4.8,7.9L199,59c2.6-1.8,5.2-3.4,7.7-4.8l9.1-5.3
		L221,54l-24,12.3L191.2,60.6z"/>
	<path class="st0" d="M203.4,74.9c-1.4-1.8-1-4.1,0.9-5.5c1.9-1.4,4.2-1.1,5.5,0.8c1.4,1.9,1,4.1-0.9,5.5
		C207.1,77.1,204.9,76.8,203.4,74.9L203.4,74.9z"/>
</g>
</svg>
