<?xml version="1.0" encoding="utf-8"?>
<!-- Generator: Adobe Illustrator 17.0.0, SVG Export Plug-In . SVG Version: 6.00 Build 0)  -->
<!DOCTYPE svg PUBLIC "-//W3C//DTD SVG 1.1//EN" "http://www.w3.org/Graphics/SVG/1.1/DTD/svg11.dtd" [
	<!ENTITY ns_flows "http://ns.adobe.com/Flows/1.0/">
	<!ENTITY ns_extend "http://ns.adobe.com/Extensibility/1.0/">
	<!ENTITY ns_ai "http://ns.adobe.com/AdobeIllustrator/10.0/">
	<!ENTITY ns_graphs "http://ns.adobe.com/Graphs/1.0/">
]>
<svg version="1.1" id="Layer_2" xmlns:x="&ns_extend;" xmlns:i="&ns_ai;" xmlns:graph="&ns_graphs;"
	 xmlns="http://www.w3.org/2000/svg" xmlns:xlink="http://www.w3.org/1999/xlink" xmlns:a="http://ns.adobe.com/AdobeSVGViewerExtensions/3.0/"
	 x="0px" y="0px" width="256px" height="256px" viewBox="0 0 256 256" style="enable-background:new 0 0 256 256;"
	 xml:space="preserve">
<style type="text/css">
	.st0{fill:#664A9E;}
	.st1{fill:#F4C701;}
	.st2{fill:#EBBE12;}
	.st3{fill:#44B3DB;}
	.st4{fill:#F6FF82;}
</style>
<g>
	<g>
		<g>
			<g>
				<path class="st0" d="M127,245.3c-4.5-7.1-14.9-10.9-27.1-15.5c-18.7-7-42.1-15.8-61.3-39.3c-22.7-27.8-33.8-69-34.1-126
					c9-0.3,29-2.5,38-15.7C47.1,42,48,34.1,45,24.2c8.6,1.5,17,2.8,24.9,2.8l0,0c33.9,0,50.9-14.1,56.6-20c5.2,6.5,21.3,22,57.1,22
					l0,0c9.3,0,19.5-1.6,30.1-3.7c-3.1,10.3-2.3,18.8,2.5,25.8c7.4,10.7,22.6,14.9,35.2,15.4c-0.3,56.1-11.6,96.7-34.5,124.1
					c-19.5,23.3-43.1,32-62.2,39C142.3,234.3,131.7,238.1,127,245.3z"/>
				<path class="st1" d="M126.4,9.6c7,7.6,23.9,20.9,57.3,20.9c8.4,0,17.3-0.8,26.7-2.5c-2.1,9.4-0.8,17.5,3.9,24.3
					c7.4,10.8,22,15.5,34.7,16.4c-0.3,28.3-3.6,53.1-9.9,73.6c-5.6,18.5-13.7,34.1-24.1,46.6c-19.1,22.8-42.4,31.4-61.1,38.3
					c-11.1,4.1-21.2,7.8-26.9,14c-5.6-6.1-15.5-9.8-26.3-13.8c-18.5-6.9-41.4-15.5-60.2-38.6c-10.3-12.6-18.3-28.5-23.8-47.2
					c-6.1-20.9-9.4-46-9.7-74.8c10.2-0.6,28.7-3.7,37.6-16.6c4.5-6.5,5.7-14.3,3.8-23.3c7.5,1.2,14.7,1.7,21.6,1.7
					C101.4,28.5,118.9,16.5,126.4,9.6 M126.7,2c0,0-15.5,21.6-56.8,21.6c-8.5,0-18-0.9-28.7-3.1C54.2,53.3,22.7,62,2,62
					c0,192.7,124.9,154.5,125,192c0.1-37.5,127,0,127-190c-19.5,0-49.4-9.6-36.4-42.5c-12.9,2.9-24.2,4.1-33.9,4.1
					C140.2,25.6,126.7,2,126.7,2L126.7,2z"/>
			</g>
		</g>
		<g>
			<g>
				<path class="st2" d="M102.6,206.9l-1.1,6.2h-6.1l6.2-27.9h7.8l6.2,27.9h-6.3l-1.3-6.2H102.6z M107.2,201.6l-0.9-5.1
					c-0.3-1.6-0.7-4.1-1-5.8h-0.1c-0.3,1.7-0.7,4.2-1,5.8l-0.9,5.1H107.2z"/>
				<path class="st2" d="M123.1,185.2v16.4c0,4.1,1.1,6,3.1,6c2,0,3.1-1.7,3.1-6v-16.4h6V201c0,8.2-3.1,12.5-9.2,12.5s-9-4.3-9-12.7
					v-15.6H123.1z"/>
				<path class="st2" d="M152.9,201.7h-7.4v5.5h8.3v5.9h-14.3v-27.9h13.8v5.9h-7.8v4.7h7.4V201.7z"/>
			</g>
		</g>
		<circle class="st2" cx="125" cy="133.7" r="41.4"/>
		<circle class="st3" cx="125" cy="133.7" r="36.1"/>
		<g>
			<g>
				<path class="st3" d="M106.1,126c0.2-1-0.2-1.6-1.1-2.2c-1.3-1-1.3-2.4-0.4-3.7c0.9-1.2,2.2-1.4,3.5-0.7c1.4,0.8,1.9,2.2,1.1,3.5
					c-0.8,1.2-0.2,2,0.4,2.8c1.7,2.3,3.4,4.8,6.8,4.4c3.4-0.4,4.6-3.3,5.7-6c0.6-1.4,0.9-2.9,1.3-4.4c0.2-0.9,0.2-1.6-0.7-2.4
					c-1.5-1.3-1.5-3.3-0.3-4.5s3.2-1.1,4.4,0.1c1.2,1.3,1.1,3-0.4,4.5c-0.4,0.4-0.9,0.7-0.8,1.5c0.7,3.3,1.5,6.6,3.8,9.3
					c2.2,2.6,5.2,2.8,7.7,0.5c1.1-1,1.9-2.2,2.8-3.3c0.6-0.7,0.8-1.3,0.2-2.2c-0.9-1.5-0.5-2.9,1-3.7c1.3-0.7,2.6-0.5,3.5,0.8
					c1,1.4,0.8,2.9-0.6,3.8c-1,0.7-1,1.4-0.9,2.3c0.1,0.8,0.2,1.7,0.4,2.5c0.5,2.1,1.1,4.2,3.4,4.8c2.1,0.6,3.6-0.8,5.1-2
					c0.8-0.6,1.1-1.2,0.8-2.3c-0.4-1.3,0.2-2.5,1.6-2.8c1.3-0.3,2.5,0.1,2.9,1.6c0.4,1.5-0.1,2.7-1.7,3c-1.2,0.2-1.4,1-1.8,1.9
					c-1.3,3-2.6,5.9-3.8,8.9c-0.5,1.2-1,1.4-2.3,1.1c-15.4-4.3-30.8-4.3-46.2,0c-1.2,0.3-1.8,0.1-2.3-1.1c-1.1-2.6-2.2-5.2-3.3-7.9
					c-0.6-1.4-1-2.7-2.8-3.2c-1.2-0.3-1.6-1.6-1-2.9c0.5-1.3,1.5-1.7,2.8-1.4c1.3,0.3,1.9,1.3,1.8,2.6c-0.1,2.1,1.3,3.8,3.7,4.5
					c2.2,0.7,3.6-0.4,4.5-2.2C105.8,129.8,106.1,128,106.1,126z"/>
				<path class="st4" d="M100.7,144.1c-1.6,0-2.2-1.4-2.4-1.8c-0.6-1.5-1.3-3.1-1.9-4.6c-0.5-1.1-0.9-2.2-1.4-3.2l-0.1-0.3
					c-0.5-1.3-0.9-2-2-2.3c-0.8-0.2-1.4-0.7-1.7-1.4c-0.4-0.8-0.4-1.9,0-2.9c0.7-1.7,2.2-2.4,4-2c1.7,0.4,2.7,1.8,2.6,3.6
					c-0.1,1.6,1,2.9,3,3.5c0.3,0.1,0.7,0.2,1,0.2l0,0c0.6,0,1.5-0.2,2.4-1.8c0.7-1.3,1.1-2.9,1.1-5v-0.2c0.1-0.4,0.1-0.6-0.7-1.2
					c-1.7-1.3-1.9-3.3-0.6-5.1c1.1-1.6,3-2,4.8-1c1,0.5,1.6,1.4,1.9,2.3c0.2,0.9,0.1,1.8-0.5,2.7c-0.4,0.6-0.3,0.8,0.4,1.7l0.3,0.4
					c1.5,2,3,3.9,5.5,3.6c2.8-0.4,3.8-2.8,4.9-5.3l0.1-0.2c0.4-1,0.7-2.1,1-3.2c0.1-0.4,0.2-0.7,0.3-1.1c0.2-0.7,0.2-0.9-0.4-1.4
					c-0.9-0.8-1.5-1.9-1.5-3s0.4-2.2,1.2-2.9c0.7-0.7,1.7-1.1,2.8-1.1c1.1,0,2.2,0.5,3,1.2c1.6,1.7,1.5,4-0.4,5.9
					c-0.1,0.1-0.2,0.2-0.3,0.2c-0.1,0.1-0.2,0.2-0.3,0.3c0.6,3.1,1.4,6.4,3.6,8.9c1.8,2.1,4.2,2.3,6.2,0.4c0.7-0.6,1.2-1.3,1.8-2.1
					c0.3-0.4,0.6-0.8,0.9-1.1c0.4-0.5,0.4-0.6,0.1-1.1c-0.6-0.9-0.8-1.9-0.5-2.8c0.2-0.9,0.9-1.7,1.9-2.3c1.7-1,3.6-0.5,4.8,1.1
					c0.7,1,0.9,2,0.8,2.9c-0.2,0.9-0.8,1.7-1.7,2.3c-0.5,0.3-0.6,0.6-0.5,1.4c0.1,1,0.2,1.7,0.4,2.4c0.5,2.2,1.1,3.6,2.7,4.1
					c1.4,0.4,2.6-0.5,4-1.6l0.3-0.2c0.6-0.5,0.6-0.6,0.4-1.2c-0.3-0.9-0.2-1.8,0.2-2.6c0.4-0.8,1.2-1.3,2.2-1.6
					c2-0.5,3.6,0.4,4.1,2.3c0.3,1.1,0.2,2.1-0.3,2.8c-0.3,0.5-0.9,1.1-2.2,1.4c-0.5,0.1-0.7,0.4-1,1.1l-1,2.2c-1,2.2-2,4.5-2.9,6.8
					c-0.3,0.8-0.9,1.8-2.3,1.8c-0.3,0-0.7-0.1-1.2-0.2c-7.6-2.1-15.3-3.2-22.9-3.2c-7.6,0-15.3,1.1-22.8,3.2
					C101.4,144,101,144.1,100.7,144.1z M94.1,127.4c-0.4,0-0.8,0.1-1.2,0.9c-0.2,0.4-0.2,0.9-0.1,1.2c0.1,0.2,0.2,0.3,0.4,0.3
					c2.2,0.5,2.9,2.2,3.4,3.5l0.1,0.3c0.4,1.1,0.9,2.1,1.4,3.2c0.7,1.5,1.3,3.1,2,4.7c0.2,0.6,0.4,0.6,0.5,0.6s0.3,0,0.6-0.1
					c7.7-2.2,15.6-3.3,23.4-3.3s15.6,1.1,23.4,3.3c0.3,0.1,0.5,0.1,0.6,0.1s0.2,0,0.4-0.6c0.9-2.3,1.9-4.6,2.9-6.9l1-2.2
					c0.1-0.1,0.1-0.3,0.2-0.5c-0.2,0.2-0.3,0.3-0.5,0.5l-0.3,0.2c-1.2,1-2.6,2.2-4.5,2.2c-0.4,0-0.9-0.1-1.3-0.2
					c-2.8-0.8-3.6-3.3-4.1-5.6c-0.2-0.8-0.3-1.6-0.4-2.6c-0.1-1.2,0-2.4,1.4-3.3c0.5-0.3,0.7-0.6,0.8-1c0.1-0.5-0.2-1-0.4-1.4
					c-0.6-0.8-1.3-1-2.2-0.5c-0.4,0.2-0.8,0.5-1,1c-0.1,0.4,0,0.8,0.3,1.3c1,1.6,0.3,2.7-0.3,3.4c-0.3,0.4-0.6,0.7-0.9,1.1
					c-0.6,0.8-1.3,1.6-2,2.3c-1.3,1.2-2.8,1.9-4.3,1.9c-1.8,0-3.5-0.9-4.8-2.5c-2.5-2.9-3.3-6.6-4-9.8c-0.2-1.2,0.5-1.8,0.9-2.2
					c0.1-0.1,0.1-0.1,0.2-0.2c0.8-0.8,1.4-1.9,0.3-3.1c-0.7-0.8-2.2-0.8-2.9-0.1c-0.4,0.4-0.6,0.9-0.6,1.4c0,0.6,0.3,1.1,0.8,1.6
					c1.4,1.2,1.3,2.5,1,3.4c-0.1,0.4-0.2,0.7-0.3,1.1c-0.3,1.1-0.6,2.3-1.1,3.5l-0.1,0.2c-1.1,2.7-2.5,6-6.4,6.5
					c-3.7,0.5-5.7-2.1-7.4-4.4l-0.3-0.4c-0.7-0.9-1.6-2.1-0.5-4c0.2-0.4,0.3-0.8,0.2-1.1c-0.1-0.4-0.4-0.8-0.9-1
					c-0.9-0.5-1.6-0.4-2.2,0.4c-0.7,0.9-0.6,1.7,0.2,2.3c0.8,0.6,1.7,1.6,1.4,3.1c0,2.3-0.5,4.2-1.3,5.8c-1,1.9-2.4,2.9-4.2,2.9l0,0
					c-0.5,0-1-0.1-1.5-0.2c-2.8-0.9-4.5-3-4.4-5.5c0.1-1.1-0.5-1.4-1.1-1.6C94.4,127.4,94.3,127.4,94.1,127.4z M155.2,127.4
					c-0.2,0-0.4,0-0.6,0.1c-0.4,0.1-0.7,0.3-0.9,0.6s-0.1,0.7,0,1c0.3,0.8,0.2,1.5,0,2c0.4-0.4,0.9-0.8,1.7-0.9
					c0.4-0.1,0.7-0.2,0.9-0.5s0.2-0.7,0.1-1.3C156.1,127.7,155.8,127.4,155.2,127.4z"/>
			</g>
			<g>
				<path class="st3" d="M123.8,142.2c8.1,0,15.3,0.8,22.4,2.8c0.8,0.2,2.5,0.1,1.6,1.7c-0.7,1.3-0.2,3.9-3.1,3.2
					c-13.4-3.2-26.8-3.2-40.2,0c-2.9,0.7-2.4-2-3.1-3.3c-0.8-1.6,1-1.4,1.7-1.6c2.8-0.7,5.7-1.4,8.6-1.9
					C115.9,142.4,120.2,142.1,123.8,142.2z"/>
				<path class="st4" d="M145.6,151c-0.3,0-0.7,0-1.1-0.1c-13.1-3.1-26.5-3.1-39.8,0c-0.4,0.1-0.8,0.1-1.1,0.1c-2.2,0-2.6-1.9-2.8-3
					c-0.1-0.4-0.2-0.8-0.3-1c-0.4-0.7-0.4-1.4-0.1-1.9c0.5-0.8,1.4-0.9,2.1-1c0.1,0,0.3,0,0.4,0c3.2-0.8,6-1.5,8.6-1.9
					c3.8-0.6,8-1,11.8-1h0.8c8.4,0,15.5,0.9,22.4,2.9c0.1,0,0.3,0.1,0.4,0.1c0.7,0.1,1.7,0.3,2.1,1.1c0.3,0.6,0.2,1.2-0.2,1.9
					c-0.1,0.2-0.2,0.6-0.3,1C148.2,149.1,147.8,151,145.6,151z M124.7,146.5c6.8,0,13.6,0.8,20.3,2.4c0.3,0.1,0.5,0.1,0.7,0.1
					c0.4,0,0.6-0.1,0.9-1.3c0.1-0.5,0.2-1.1,0.5-1.5l0,0c-0.1,0-0.3-0.1-0.4-0.1c-0.2,0-0.4-0.1-0.6-0.1c-6.7-1.9-13.7-2.8-21.9-2.8
					h-0.8c-3.6,0-7.7,0.3-11.4,1c-2.6,0.4-5.4,1-8.5,1.9c-0.2,0-0.4,0.1-0.7,0.1c-0.1,0-0.2,0-0.4,0c0.2,0.5,0.3,1,0.5,1.5
					c0.3,1.3,0.4,1.4,0.9,1.4c0.2,0,0.4,0,0.6-0.1C111,147.3,117.9,146.5,124.7,146.5z"/>
			</g>
		</g>
	</g>
	<g>
		<path class="st2" d="M13.9,81.1l12.3-5.7l2.3,4.9l-6.9,3.2l2.1,4.5l6.5-3l2.3,4.9l-6.5,3l4.2,8.9l-5.4,2.5L13.9,81.1z"/>
		<path class="st2" d="M54.3,91.4c-0.6,0.7-2.2,1.8-4.5,2.6c-7.5,2.8-12.8-1.6-15.2-7.9c-3.2-8.6,0.5-14.7,6.4-16.9
			c2.2-0.8,4.1-1,5-0.8l0.8,5.3c-0.9-0.1-2.2,0-3.6,0.5c-3.1,1.2-4.8,4.3-2.9,9.3c1.7,4.6,4.8,6.3,8.4,5c1.2-0.4,2.4-1.2,3.1-1.8
			L54.3,91.4z"/>
		<path class="st2" d="M73,75.7l-7.1,1.9l1.3,4.9l7.9-2.1l1.4,5.2l-13.6,3.6l-6.6-24.7L69.5,61l1.4,5.2l-7.5,2l1.1,4.2l7.1-1.9
			L73,75.7z"/>
		<path class="st2" d="M74.6,60.2c1.6-0.6,3.9-1.3,6.6-1.8c3.2-0.6,5.7-0.6,7.7,0.5c1.7,1,2.7,2.6,3.2,5c0.6,2.9-0.8,5.6-2.6,6.8
			l0,0.1c1.6,0.4,2.7,1.8,3.7,4c1.1,2.5,2.5,5.9,3.2,6.8l-6,1.1c-0.4-0.7-1.4-2.7-2.6-5.6c-1.1-2.9-2-3.4-3.7-3.1l-0.8,0.2l1.8,9.5
			L79.3,85L74.6,60.2z M82.3,69.7l1.3-0.3c2.1-0.4,3-2,2.7-3.9c-0.4-1.9-1.6-2.8-3.5-2.5c-0.9,0.2-1.4,0.3-1.7,0.5L82.3,69.7z"/>
		<path class="st2" d="M96.4,78.1l7.3-17.4l0-0.1l-8.3,1l-0.6-5.5l15.7-1.8l0.5,4l-7.1,16.8l0,0.1l9-1l0.6,5.5l-16.7,1.9L96.4,78.1z
			"/>
		<path class="st2" d="M133.4,77.9c-1.5,0.6-4.4,1.5-7,1.6c-4.1,0.2-6.9-0.9-8.9-2.8c-2.2-2.2-3.5-5.7-3.6-9.5
			c-0.3-9,5.2-13.5,12-13.8c2.7-0.1,4.8,0.4,5.9,0.9l-0.9,5.4c-1.1-0.5-2.5-0.9-4.6-0.8c-3.6,0.1-6.4,2.5-6.2,7.9
			c0.2,5,2.8,7.5,6,7.3c0.6,0,1.3-0.1,1.5-0.2l-0.2-4.7l-2.7,0.1l-0.2-5.2l8.3-0.3L133.4,77.9z"/>
		<path class="st2" d="M150.3,69.4l-7.3-0.5l-0.3,5l8.2,0.5l-0.3,5.4L136.5,79l1.6-25.6l13.6,0.9l-0.3,5.4l-7.7-0.5l-0.3,4.3
			l7.3,0.5L150.3,69.4z"/>
		<path class="st2" d="M157.1,55.2c1.4-0.1,4.2,0.1,6.8,0.5c2.9,0.4,4.9,1,6.5,2.4c1.5,1.2,2.3,3.2,1.9,5.5
			c-0.3,2.1-1.7,4.1-4.4,4.8l0,0.1c2.6,1.2,3.8,3.8,3.4,6.7c-0.3,2.3-1.5,4-3.1,5c-1.8,1.3-4.7,1.8-9.4,1.1
			c-2.4-0.4-4.3-0.8-5.5-1.2L157.1,55.2z M159.8,76.5c0.4,0.1,0.8,0.2,1.5,0.3c1.8,0.3,3.6-0.4,3.9-2.6c0.3-2.1-1.2-3.3-3.2-3.6
			l-1.3-0.2L159.8,76.5z M161.4,65.7l1.1,0.2c2.2,0.3,3.6-0.6,3.8-2.3c0.2-1.5-0.5-2.7-2.4-3c-0.8-0.1-1.4-0.2-1.7-0.1L161.4,65.7z"
			/>
		<path class="st2" d="M184.1,59.6l-5.2,25.1l-5.8-1.2l5.2-25.1L184.1,59.6z"/>
		<path class="st2" d="M189,61c1.7,0.1,4.1,0.5,6.7,1.2c3.1,0.8,5.4,2,6.7,3.8c1.1,1.7,1.3,3.5,0.7,5.9c-0.8,2.9-3.2,4.7-5.3,5
			l0,0.1c1.3,1.1,1.6,2.8,1.5,5.2c-0.1,2.7-0.3,6.4-0.1,7.5l-5.9-1.6c-0.1-0.8-0.1-3.1,0.1-6.1c0.3-3.1-0.3-3.9-1.9-4.4l-0.8-0.2
			l-2.5,9.4l-5.7-1.5L189,61z M191.9,72.9l1.3,0.3c2.1,0.6,3.6-0.5,4.1-2.3c0.5-1.8-0.2-3.2-2-3.8c-0.9-0.2-1.4-0.3-1.7-0.3
			L191.9,72.9z"/>
		<path class="st2" d="M218.3,95.5c-1.6,0-4.6-0.3-7.1-1.2c-3.8-1.4-6.1-3.4-7.2-5.9c-1.3-2.9-1.1-6.5,0.2-10.2
			c3.1-8.4,9.8-10.6,16.3-8.3c2.6,0.9,4.3,2.2,5.2,3l-2.9,4.7c-0.9-0.9-2-1.7-4-2.5c-3.4-1.2-6.8-0.1-8.7,5.1c-1.7,4.7-0.2,8,2.8,9
			c0.6,0.2,1.2,0.4,1.5,0.3l1.6-4.4l-2.5-0.9l1.7-4.9l7.8,2.8L218.3,95.5z"/>
		<path class="st2" d="M237.2,94.1l-6.6-3.2l-2.2,4.5l7.3,3.6l-2.4,4.9l-12.7-6.2l11.2-23l12.3,6l-2.4,4.9l-6.9-3.4l-1.9,3.9
			l6.6,3.2L237.2,94.1z"/>
	</g>
</g>
</svg>
