<?xml version="1.0" encoding="utf-8"?>
<!-- Generator: Adobe Illustrator 17.0.0, SVG Export Plug-In . SVG Version: 6.00 Build 0)  -->
<!DOCTYPE svg PUBLIC "-//W3C//DTD SVG 1.1//EN" "http://www.w3.org/Graphics/SVG/1.1/DTD/svg11.dtd" [
	<!ENTITY ns_flows "http://ns.adobe.com/Flows/1.0/">
	<!ENTITY ns_extend "http://ns.adobe.com/Extensibility/1.0/">
	<!ENTITY ns_ai "http://ns.adobe.com/AdobeIllustrator/10.0/">
	<!ENTITY ns_graphs "http://ns.adobe.com/Graphs/1.0/">
]>
<svg version="1.1" id="Layer_2" xmlns:x="&ns_extend;" xmlns:i="&ns_ai;" xmlns:graph="&ns_graphs;"
	 xmlns="http://www.w3.org/2000/svg" xmlns:xlink="http://www.w3.org/1999/xlink" xmlns:a="http://ns.adobe.com/AdobeSVGViewerExtensions/3.0/"
	 x="0px" y="0px" width="256px" height="256px" viewBox="0 0 256 256" style="enable-background:new 0 0 256 256;"
	 xml:space="preserve">
<style type="text/css">
	.st0{fill:#2B2763;}
	.st1{fill:#FFFFFF;}
</style>
<g>
	<g>
		
			<rect x="38.9" y="38.9" transform="matrix(-0.7071 -0.7071 0.7071 -0.7071 128.0012 309.0164)" class="st0" width="178.2" height="178.2"/>
		
			<rect x="47.8" y="47.8" transform="matrix(-0.7071 -0.7071 0.7071 -0.7071 128.0012 309.0164)" class="st1" width="160.4" height="160.4"/>
		
			<rect x="59.9" y="59.8" transform="matrix(-0.7071 -0.7071 0.7071 -0.7071 128.0512 308.8957)" class="st0" width="136.3" height="136.3"/>
	</g>
	<g>
		<path class="st1" d="M117.9,181.6c-9.1-2.4-11.2-8.2-11-17c0.6-26.7,0.3-53.5,0.2-80.3c0-2.7,0.6-4.5,2.9-6.1
			c5.5-3.9,10.8-8,16-12.2c1.7-1.3,2.9-1.8,4.8-0.2c5.6,4.5,11.3,8.8,17,13.1c1.6,1.2,2,2.5,2,4.4c-0.1,6.7-0.2,13.5,0,20.2
			c0.1,3-1,3.6-3.7,3.6c-9-0.2-7.2,1-7.4-7.1c0-1.6-0.3-3.2,0-4.7c1.5-7.5-2.1-12.1-8.2-15.5c-0.6-0.3-1.2-1-1.8-1.1
			c-2.1-0.3-10.5,7.8-10.5,10.1c0,9.7,0.1,19.5-0.1,29.2c0,2.5,0.8,3.2,3.2,3.2c4.6-0.1,9.2,0.1,13.7-0.1c2.7-0.1,3.8,0.6,3.7,3.5
			c-0.1,7.5,0.1,7.5-7.5,7.5c-3.1,0-6.3,0.2-9.4-0.1c-3.2-0.3-3.8,1-3.8,3.9c0.1,13.9,0.1,27.8,0,41.6
			C118.2,178.9,118.6,180.3,117.9,181.6z"/>
		<path class="st1" d="M157,86c4.9,3.7,8.9,6.7,13,9.8c4.4,3.4,8.8,6.8,13.3,10.2c4.2,3.2,6.3,9.6,4.6,14.5c-0.7,2.1-2.7,2.9-4.3,4
			c-2.5,1.8-3,3.7-0.2,5.3c4.3,2.4,5.1,6,4.7,10.4c-0.4,4.7,1.6,10.2-0.8,13.9c-2.2,3.4-7.4,5-11.4,7.3c-5.4,3.2-10.9,6.3-16.3,9.5
			c-2,1.2-2.7,0.9-2.7-1.6C157,141.9,157,114.5,157,86z M168,151.4c2.7-1.6,4.7-2.9,6.8-3.9c4.4-2.1,2.8-6.2,2.1-9
			c-0.7-2.6-3.6-4.6-6.9-4.8c-1.4-0.1-2,0.7-2,2.1C168,140.7,168,145.6,168,151.4z M167.6,108.8c0,3.5-0.1,6.1,0,8.8
			c0.1,1.4-0.8,3.3,1.7,3.7c3.2,0.5,5.7-0.8,7.4-3.2c1.5-2.1-1-2.8-2.1-3.8C172.6,112.5,170.4,111,167.6,108.8z"/>
		<path class="st1" d="M83.9,143.6c3.3-5,6-9.4,5.7-15.6c-0.5-9.7,0.1-19.5-0.2-29.2c-0.1-4,0.9-6.8,4.6-8.7
			c1.9-0.9,3.5-2.4,5.2-3.6c1.3,1.3,0.8,2.7,0.8,3.9c0,13.4,0,26.9,0.1,40.3c0,2.5-0.5,4.7-1.6,7c-3.6,7.3-7.2,14.6-10.7,22
			c-1.1,2.4-1.9,3.3-4.6,1.7c-3.1-1.8-4.8-4.4-6.6-7.4c-7.8-12.9-9.8-26.9-8.6-41.6c0.2-3.2,5.6-9.6,8.7-9.9
			c2.1-0.2,1.2,1.6,1.2,2.4c0.1,7.3,0.5,14.6-0.1,21.9C77.1,133.6,80.6,138.2,83.9,143.6z"/>
	</g>
</g>
<g>
	<path class="st1" d="M111.5,190.6L111.5,190.6l-2.5,1.1l-0.6-2.6l3.5-1.6h2.9v13h-3.4V190.6z"/>
	<path class="st1" d="M123.3,187.3c2.9,0,4.3,1.6,4.3,3.4c0,1-0.5,2.1-1.8,2.8v0c1.1,0.5,2.2,1.6,2.2,3.2c0,2.5-2,4-4.9,4
		c-3.2,0-4.7-1.7-4.7-3.6c0-1.5,0.8-2.6,2.1-3.2v0c-1.2-0.7-1.7-1.7-1.7-2.8C118.7,188.7,120.7,187.3,123.3,187.3L123.3,187.3z
		 M123.2,198.4c0.8,0,1.3-0.7,1.3-1.5c0-1-0.7-1.7-1.6-1.9c-0.7,0.3-1.1,0.9-1.1,1.7C121.8,197.6,122.3,198.4,123.2,198.4
		L123.2,198.4z M123.1,189.6c-0.8,0-1.2,0.6-1.2,1.3c0,0.7,0.6,1.3,1.4,1.6c0.5-0.1,0.9-0.8,0.9-1.4
		C124.3,190.3,124,189.6,123.1,189.6L123.1,189.6z"/>
	<path class="st1" d="M130.2,198c0.5,0,0.7,0,1.3,0c0.7,0,1.6-0.2,2.2-0.6c0.7-0.5,1.2-1.2,1.5-2l0,0c-0.5,0.5-1.2,0.7-2.2,0.7
		c-2,0-3.8-1.4-3.8-4c0-2.5,1.9-4.7,4.8-4.7c3.3,0,4.8,2.6,4.8,5.6c0,2.8-0.9,4.8-2.3,6.1c-1.2,1.1-2.8,1.7-4.8,1.7
		c-0.4,0-0.9,0-1.3,0V198z M133.7,189.8c-0.7,0-1.3,0.8-1.3,2c0,0.9,0.4,1.9,1.4,1.9c0.6,0,1-0.3,1.1-0.6c0.1-0.2,0.1-0.5,0.1-1.1
		C135.1,190.9,134.7,189.8,133.7,189.8L133.7,189.8z"/>
	<path class="st1" d="M149,187.5v2.2l-4.9,10.8h-3.6l4.8-10.1v0h-5.3v-2.9H149z"/>
</g>
</svg>
