<?xml version="1.0" encoding="utf-8"?>
<!-- Generator: Adobe Illustrator 17.0.0, SVG Export Plug-In . SVG Version: 6.00 Build 0)  -->
<!DOCTYPE svg PUBLIC "-//W3C//DTD SVG 1.1//EN" "http://www.w3.org/Graphics/SVG/1.1/DTD/svg11.dtd" [
	<!ENTITY ns_flows "http://ns.adobe.com/Flows/1.0/">
	<!ENTITY ns_extend "http://ns.adobe.com/Extensibility/1.0/">
	<!ENTITY ns_ai "http://ns.adobe.com/AdobeIllustrator/10.0/">
	<!ENTITY ns_graphs "http://ns.adobe.com/Graphs/1.0/">
]>
<svg version="1.1" id="Layer_2" xmlns:x="&ns_extend;" xmlns:i="&ns_ai;" xmlns:graph="&ns_graphs;"
	 xmlns="http://www.w3.org/2000/svg" xmlns:xlink="http://www.w3.org/1999/xlink" xmlns:a="http://ns.adobe.com/AdobeSVGViewerExtensions/3.0/"
	 x="0px" y="0px" width="256px" height="256px" viewBox="0 0 256 256" style="enable-background:new 0 0 256 256;"
	 xml:space="preserve">
<style type="text/css">
	.st0{fill:#FFFFFF;}
	.st1{fill:#3E4E70;}
	.st2{fill:#D11E24;}
</style>
<g>
	<g>
		<g>
			<path class="st0" d="M127.6,246.9c-49.2,0-84.1-14.5-103.8-43.1c-14.6-21.3-15-43.1-15-43.3V9.1H247v151.5c0,0.2-0.3,22-15,43.3
				C212.5,232.4,177.3,246.9,127.6,246.9z"/>
			<path class="st1" d="M240.2,16.2v144.3c0,0.8-0.6,20.6-14.1,39.8c-7.9,11.3-18.8,20.3-32.3,26.8c-17.6,8.5-39.9,12.8-66.2,12.8
				c-26.1,0-48.1-4.3-65.6-12.8c-13.4-6.5-24.2-15.5-32.1-26.8c-13.4-19.1-14.1-38.9-14.1-39.9V16.2H240.2 M254,2H2v158.6
				c0,0,0.3,93.4,125.6,93.4C254,254,254,160.6,254,160.6V2L254,2z"/>
		</g>
	</g>
	<g>
		<path class="st0" d="M128,64.2c-28.6,0-51.8,23.8-51.8,53.2s23.2,53.2,51.8,53.2s51.8-23.8,51.8-53.2S156.6,64.2,128,64.2z"/>
		<path class="st1" d="M128.2,68c-26.5,0-48.1,22.2-48.1,49.4s21.6,49.4,48.1,49.4s48.1-22.2,48.1-49.4S154.7,68,128.2,68z
			 M172.5,105.7l-6.4-6.6c-1.2-6.8-4.1-12.3-7.1-16.4C165.6,88.8,170.3,96.7,172.5,105.7z M143.1,146.6c-3.6-0.7-15.6-3.2-19.1-4.7
			c-2-6.6-3.7-15.9-4.8-22.2c0.1,0,0.1,0.1,0.2,0.1c2.3-4.8,15.2-19.1,15.2-19.1s0-0.1-0.1-0.1c5.9,1.2,15.5,3.6,21.9,7.5
			c1.9,9.3,2.6,16.6,2.9,20.4C157.3,131.2,150.3,141,143.1,146.6z M110.9,151.9c-9.3-2.9-16.6-9.1-19.8-12.2
			c-1.4-4.6-3.5-15.2-3.7-20c2.4-2.7,6.9-7.3,12-11.3c1.7,1,12.7,7.7,18.2,10.4c1,6.2,2.6,15.6,4.7,22.7
			C121.2,142.6,113.8,150,110.9,151.9z M156.5,106.3c-7-4.1-16.9-6.4-22.6-7.5c-1.5-3.8-4.9-12.5-7.4-16.6c3.6-3.3,7.2-6,9.6-7.6
			c2.1,0,8,0.1,12.6,0.9c1.2,0.6,2.4,1.3,3.5,2c3.7,3.3,9.7,10,12.1,20.1L156.5,106.3z M135.9,71l-0.3,2c-2.6,1.8-7,5.1-11.2,9
			c-5.1,0.7-15.4,3.1-18.9,3.9c-2.7-2.3-5.1-4-6.4-4.9c7.9-6.7,18.1-10.8,29.1-10.8C130.8,70.3,133.4,70.6,135.9,71z M97.9,82.1
			c1,0.6,3.3,2.2,6,4.5c-1.9,3.2-3.8,15.2-4.5,19.8c-5.2,3.9-9.8,8.5-12.5,11.4c-1.7-1.5-3.2-4.8-4.1-7
			C84.3,99.5,89.9,89.4,97.9,82.1z M90.6,144.3c0.2-0.6,0.4-1.4,0.8-2.3c4,3.6,11.1,9.1,20.1,11.6c2.4,3,5.9,7.5,8.8,10.1
			C108,161.6,97.4,154.4,90.6,144.3z M143.3,161.9c0.2-3.7,0.5-10.9,0.6-14c6.5-5,12.7-13.1,15.5-17.1c0,0.4,0,0.6,0,0.6
			s8.2,0.9,12.1,1C167,146.2,156.6,157.1,143.3,161.9z"/>
	</g>
	<g>
		<path class="st1" d="M57.8,192.8l-1.8-0.1v17.6h-5.7v-37.2h9.4c1.9,0,3.4,0.4,4.4,1.2s1.6,1.9,1.9,3.3c0.3,1.4,0.5,3.2,0.5,5.5
			s-0.2,4-0.7,5.2s-1.4,2-2.7,2.4c1.3,0.2,2.2,1.1,2.7,2.6s0.8,4.6,0.8,9.4s0.1,7.3,0.2,7.7H61c-0.1-0.3-0.2-4.7-0.2-13.3
			c0-1.6-0.2-2.7-0.6-3.3C59.8,193.1,59,192.9,57.8,192.8z M56,188.4h2.3c0.7,0,1.2-0.2,1.6-0.5c0.3-0.3,0.6-0.9,0.7-1.7
			c0.1-0.8,0.2-2,0.2-3.6v-0.2c0-2-0.2-3.3-0.5-3.9c-0.3-0.6-1.1-0.9-2.3-0.9h-2V188.4z"/>
		<path class="st1" d="M87.6,182.7c0,4-1.1,6.5-3.3,7.4c2.6,0.9,4,3.8,4,8.8v1c0,3.7-0.7,6.4-2,8.1s-3.4,2.5-6.2,2.5h-8.2v-37.2h8
			c2.8,0,4.7,0.6,5.9,1.9c1.2,1.3,1.7,3.4,1.8,6.5C87.6,181.7,87.6,182.7,87.6,182.7z M77.5,188.2h2.1c1,0,1.6-0.3,1.9-0.9
			c0.3-0.6,0.5-1.9,0.5-3.8v-2.2c0-1.4-0.2-2.4-0.6-2.9s-1-0.7-2-0.7h-1.9V188.2z M77.5,205.9h2c1.1,0,1.9-0.4,2.4-1.2
			s0.7-2.2,0.7-4.2v-3c0-1.9-0.2-3.2-0.5-4s-1.1-1.2-2.1-1.2h-2.4L77.5,205.9L77.5,205.9z"/>
		<path class="st1" d="M100.4,210.3v-37.2h5.7v32.4h7.2v4.8H100.4z"/>
		<path class="st1" d="M134.1,210.3v-37.2h5.7v37.2H134.1z"/>
		<path class="st1" d="M116.9,210.3v-37.2h12.5v4.9h-6.8v10.8h6.5v4.8h-6.5v11.8h7.1v4.9H116.9z"/>
		<path class="st1" d="M145.4,210.3v-37.2h8.5c2.9,0,4.9,0.9,5.9,2.6c1.1,1.8,1.6,4.4,1.7,7.8v0.8c0,3.7-0.5,6.5-1.6,8.4
			c-1,1.9-3,2.9-5.8,2.9H151v14.7H145.4z M151.1,191h1.9c1.2,0,2-0.5,2.3-1.4c0.4-0.9,0.5-2.7,0.5-5.3v-0.7c0-2.2-0.2-3.8-0.6-4.7
			s-1.1-1.4-2.2-1.4h-2V191H151.1z"/>
		<path class="st1" d="M164.6,210.3v-5l7.7-27.3h-7v-4.9h12.9v4.6l-7.7,27.7h7.5v4.9H164.6z"/>
		<path class="st1" d="M182.7,210.3v-37.2h5.7v37.2H182.7z"/>
		<path class="st1" d="M201.1,210.7c-2.3,0-4.2-0.9-5.5-2.8c-1.3-1.8-2-4.7-2-8.5v-16.2c0-3.4,0.7-6.1,2-7.9
			c1.3-1.8,3.5-2.7,6.4-2.7c3.6,0,6,1.4,6.9,4.1c0.6,1.6,0.9,3.9,0.9,6.7v2.6h-5.3v-3.9c0-1.7-0.2-2.9-0.5-3.6c-0.4-0.7-1-1-2-1
			s-1.7,0.4-2.1,1.2c-0.4,0.8-0.6,2.3-0.6,4.4v16.1c0,2.4,0.2,4.1,0.5,5.1c0.4,1,1.1,1.4,2.1,1.4c1.1,0,1.8-0.5,2.3-1.5
			c0.4-1,0.7-2.8,0.7-5.2v-5H202v-4h7.8v20.3h-2.5l-0.9-3.7c-0.3,1.3-0.9,2.2-1.9,3C203.6,210.3,202.4,210.7,201.1,210.7z"/>
	</g>
	<g>
		<path class="st2" d="M32.2,71.1c2.7-3.4,5-7.1,10.1-6.1c2.1,0.4,4.1,0.9,4.8,3.2c0.7,2.4-0.3,4.4-2.2,5.8c-1.3,1-2.8,1.8-4.1,2.9
			c-5,4.4-8.5,10.6-2.6,17.4c2.2,2.5,3.6,2.3,5.6-0.3c6.1-8,7-17.6,7.8-27.1c1.1-12.2,6.4-21.2,17.1-27c3.9-2.1,7.4-5.1,10.9-7.9
			c1.6-1.3,3.4-1.8,5.3-1.8c3.1,0,6.1-0.5,8.9-1.7c0.8,1.5-1.6,1.4-1.3,2.6c1.2,1,2.1-0.5,3.5-0.3c-1.3,2.3-3.5,2.6-5.5,3.2
			c-2.2,0.7-2.5,1.6-0.6,3.1s3.9,3.1,6.3,3.6c2.9,0.5,3.8,2.9,3.7,4.9c-0.2,2.5-2.2,4.4-5.2,4.1c-1.4-0.2-2.8,0-4.1,0.4
			c-3.7,1.1-7.2,0.8-10.8-1.4c0.3,1.8,1.4,2.3,2.4,2.8c1.3,0.6,1.9,1.5,1.2,2.8c-2.1,4.2,0,7.6,1.9,11.1c2.4-2.3,4.4-4.8,6.4-7.4
			c3.7-4.6,5.6-4.6,9.4,0c2.2,2.7,4.5,5.3,7.2,7.6c1,0.9,2.6,1.9,1.9,3.5c-0.4,0.8-1.3,2-2.6,2c-1.8-0.1-3.1-1-3.7-2.8
			c-0.9-2.8-2.1-5.1-4.8-6.7c-2-1.1-3-0.9-3.9,1.1c-1.3,2.7-2.6,5.4-4.1,8c-3.2,5.6-6.9,5.9-11.3,1.1c-0.5-0.5-0.7-1.4-1.7-1.4
			c1.8,5.2,5.5,7.4,10.5,6.2c10.6-2.5,10.9-2.1,11.1,9c0,2.5,0.5,4.9,0.7,7.4c0.1,1.3,0.4,3-0.8,3.6c-0.9,0.4-2.5,0-3.4-0.7
			c-1.2-0.8-1.6-2.3-1-3.9c1-2.8,2-5.5,0.8-8.7c-0.9-2.4-1.9-2.7-3.9-1.8c-4.7,2.2-9.4,4-14.8,3c0.2,1.9,2.9,1,2.4,2.7
			c-0.3,1.1-1.5,2.1-2.5,2.8c-1.1,0.9-2.4,1.4-3.7,2.1c-1.2,0.7-2.5,1.3-3.8,2c5.3,5.8,4.9,13.3-0.8,18.1c-2.5,2.1-2.7,4.7-1.3,7.4
			c1.6,3.1,3.9,5.5,7.5,6c1.2,0.2,2.6,0.5,2.8,1.7c0.3,1.3-1.4,1.8-2.2,2.3c-2.2,1.3-4.2,2.9-6.1-1.3c-1.8-3.9-5.2-7.2-9.2-9.1
			c-3.2-1.6-3.4-3.8-2.2-6.6c0.9-2,2.2-3.8,1.4-7c-0.9,4.1-3.4,6.2-6.3,7.9c-5.9,3.7-6.4,12.1-1.1,17c0.9,0.8,2.6,2.3,1.6,3
			c-1.3,0.9-3.2,1.6-5.2,1c-1.2-0.4-2.5-0.2-2.4-2.2c0.3-5.4-1.7-10.2-4.5-14.7c-1.3-2.1-1.5-3.7,0.4-5.4c1.9-1.7,1.4-3.5,0.7-5.9
			c-1.1-4.3-4.3-6.5-6.8-9.5c-4.6-5.5-4.9-8.4-2-14.2c1.8-3.5,3.9-6.8,7.9-8.5c4.4-1.8,5.4-5.3,2.5-7.2c-2.3-1.6-4.1-1-5.4,1.4
			C37.8,71.3,35.8,72.7,32.2,71.1z"/>
		<path class="st2" d="M223.8,71.1c-2.7-3.4-5-7.1-10.1-6.1c-2.1,0.4-4.1,0.9-4.8,3.2c-0.7,2.4,0.3,4.4,2.2,5.8
			c1.3,1,2.8,1.8,4.1,2.9c5,4.4,8.5,10.6,2.6,17.4c-2.2,2.5-3.6,2.3-5.6-0.3c-6.1-8-7-17.6-7.8-27.1c-1.1-12.2-6.4-21.2-17.1-27
			c-3.9-2.1-7.4-5.1-10.9-7.9c-1.6-1.3-3.4-1.8-5.3-1.8c-3.1,0-6.1-0.5-8.9-1.7c-0.8,1.5,1.6,1.4,1.3,2.6c-1.2,1-2.1-0.5-3.5-0.3
			c1.3,2.3,3.5,2.6,5.5,3.2c2.2,0.7,2.5,1.6,0.6,3.1s-3.9,3.1-6.3,3.6c-2.9,0.5-3.8,2.9-3.7,4.9c0.2,2.5,2.2,4.4,5.2,4.1
			c1.4-0.2,2.8,0,4.1,0.4c3.7,1.1,7.2,0.8,10.8-1.4c-0.3,1.8-1.4,2.3-2.4,2.8c-1.3,0.6-1.9,1.5-1.2,2.8c2.1,4.2,0,7.6-1.9,11.1
			c-2.4-2.3-4.4-4.8-6.4-7.4c-3.7-4.6-5.6-4.6-9.4,0c-2.2,2.7-4.5,5.3-7.2,7.6c-1,0.9-2.6,1.9-1.9,3.5c0.4,0.8,1.3,2,2.6,2
			c1.8-0.1,3.1-1,3.7-2.8c0.9-2.8,2.1-5.1,4.8-6.7c2-1.1,3-0.9,3.9,1.1c1.3,2.7,2.6,5.4,4.1,8c3.2,5.6,6.9,5.9,11.3,1.1
			c0.5-0.5,0.7-1.4,1.7-1.4c-1.8,5.2-5.5,7.4-10.5,6.2c-10.6-2.5-10.9-2.1-11.1,9c0,2.5-0.5,4.9-0.7,7.4c-0.1,1.3-0.4,3,0.8,3.6
			c0.9,0.4,2.5,0,3.4-0.7c1.2-0.8,1.6-2.3,1-3.9c-1-2.8-2-5.5-0.8-8.7c0.9-2.4,1.9-2.7,3.9-1.8c4.7,2.2,9.4,4,14.8,3
			c-0.2,1.9-2.9,1-2.4,2.7c0.3,1.1,1.5,2.1,2.5,2.8c1.1,0.9,2.4,1.4,3.7,2.1c1.2,0.7,2.5,1.3,3.8,2c-5.3,5.8-4.9,13.3,0.8,18.1
			c2.5,2.1,2.7,4.7,1.3,7.4c-1.6,3.1-3.9,5.5-7.5,6c-1.2,0.2-2.6,0.5-2.8,1.7c-0.3,1.3,1.4,1.8,2.2,2.3c2.2,1.3,4.2,2.9,6.1-1.3
			c1.8-3.9,5.2-7.2,9.2-9.1c3.2-1.6,3.4-3.8,2.2-6.6c-0.9-2-2.2-3.8-1.4-7c0.9,4.1,3.4,6.2,6.3,7.9c5.9,3.7,6.4,12.1,1.1,17
			c-0.9,0.8-2.6,2.3-1.6,3c1.3,0.9,3.2,1.6,5.2,1c1.2-0.4,2.5-0.2,2.4-2.2c-0.3-5.4,1.7-10.2,4.5-14.7c1.3-2.1,1.5-3.7-0.4-5.4
			c-1.9-1.7-1.4-3.5-0.7-5.9c1.1-4.3,4.3-6.5,6.8-9.5c4.6-5.5,4.9-8.4,2-14.2c-1.8-3.5-3.9-6.8-7.9-8.5c-4.4-1.8-5.4-5.3-2.5-7.2
			c2.3-1.6,4.1-1,5.4,1.4C218.2,71.3,220.2,72.7,223.8,71.1z"/>
	</g>
</g>
</svg>
