<?xml version="1.0" encoding="utf-8"?>
<!-- Generator: Adobe Illustrator 17.0.0, SVG Export Plug-In . SVG Version: 6.00 Build 0)  -->
<!DOCTYPE svg PUBLIC "-//W3C//DTD SVG 1.1//EN" "http://www.w3.org/Graphics/SVG/1.1/DTD/svg11.dtd" [
	<!ENTITY ns_flows "http://ns.adobe.com/Flows/1.0/">
	<!ENTITY ns_extend "http://ns.adobe.com/Extensibility/1.0/">
	<!ENTITY ns_ai "http://ns.adobe.com/AdobeIllustrator/10.0/">
	<!ENTITY ns_graphs "http://ns.adobe.com/Graphs/1.0/">
]>
<svg version="1.1" id="Layer_2" xmlns:x="&ns_extend;" xmlns:i="&ns_ai;" xmlns:graph="&ns_graphs;"
	 xmlns="http://www.w3.org/2000/svg" xmlns:xlink="http://www.w3.org/1999/xlink" xmlns:a="http://ns.adobe.com/AdobeSVGViewerExtensions/3.0/"
	 x="0px" y="0px" width="256px" height="256px" viewBox="0 0 256 256" style="enable-background:new 0 0 256 256;"
	 xml:space="preserve">
<style type="text/css">
	.st0{fill:#FDEA00;}
</style>
<g>
	<g>
		<path class="st0" d="M128,249.4C61,249.4,6.6,195,6.6,128S61,6.6,128,6.6S249.4,61,249.4,128S195,249.4,128,249.4z"/>
		<path d="M128,11.1c31.2,0,60.6,12.2,82.6,34.2s34.2,51.4,34.2,82.6s-12.2,60.6-34.2,82.6s-51.4,34.2-82.6,34.2
			s-60.6-12.2-82.6-34.2S11.1,159.2,11.1,128s12.2-60.6,34.2-82.6S96.8,11.1,128,11.1 M128,2C58.4,2,2,58.4,2,128s56.4,126,126,126
			s126-56.4,126-126S197.6,2,128,2L128,2z"/>
	</g>
	<g>
		<circle class="st0" cx="128" cy="128" r="107.1"/>
		<path d="M128,237.6c-60.5,0-109.6-49.2-109.6-109.6S67.5,18.4,128,18.4S237.6,67.5,237.6,128S188.5,237.6,128,237.6z M128,23.4
			C70.3,23.4,23.4,70.3,23.4,128S70.3,232.6,128,232.6S232.6,185.7,232.6,128S185.7,23.4,128,23.4z"/>
	</g>
	<g>
		<path d="M191.7,111.6c4.6-2.7,8.3-5.1,12.2-7c3-1.5,3.9-3.5,3.8-6.7c-0.2-6.8-0.1-13.5-0.1-20.3c0-7.1-4.4-13.3-11.4-13.6
			c-12-0.6-24.3-0.5-37.8-0.5c3.8,3.3,3.6,6.9,3.6,10c0,18,0,36,0,54c0,5.8-2,12.6,0.3,17.3c2.4,4.9,8.8,7.9,13.6,11.7
			c10.8,8.6,21.6,17.2,32.5,25.9c-0.7-5.6-0.7-10.9-0.7-16.1c0.1-13.4-0.1-26.7,0.1-40.1c0.1-4.2-0.8-7-5.1-8.6
			C199,116,195.8,113.8,191.7,111.6z"/>
		<path d="M103.6,63.4c1.8,3.1,2.9,5.2,2.9,7.9c-0.1,37.5-0.1,47.8-0.1,85.7c0.9-0.6,1.6-1,2.3-1.6c13.9-11.1,27.8-22.3,41.8-33.3
			c2.4-1.9,2.5-4,2.5-6.5c0-22.4,0-17.7,0-40.1c0-12.2,0-12-12.4-12.1c-4.2-0.1-5,1.4-4.9,5.2c0.2,19.1,0.1,10.9,0.1,30
			c0,9.6-2,15.5-11.9,19.4c0-2.6,0-8.3,0-10.7c0-21.7-0.2-16.3,0.1-38c0.1-4.9-1.4-6.2-6-5.8C113.1,63.5,108.9,63.4,103.6,63.4z"/>
		<path class="st0" d="M178.9,101.8c0-6.3,0-11.9,0-17.5c0-1.5,0.5-2.5,2.1-2.4c3.2,0.4,7.7-1.8,9.4,1.1c1.8,3.1,1.8,8.2,0,11.3
			C188.2,97.9,183.4,99.3,178.9,101.8z"/>
		<path class="st0" d="M179.8,122.2c11.8,5.3,13.1,7.8,10.7,20.1C183.2,137.7,176.1,133,179.8,122.2z"/>
	</g>
	<g>
		<path d="M107.8,215.9c-9.4,0-17.2-7.7-17.2-17.2v-17.5c0-9.4,7.8-17.2,17.2-17.2c9.5,0,17.2,7.7,17.2,17.2v17.5
			C125,208.2,117.3,215.9,107.8,215.9z M101.6,181.3v17.5c0,3.4,2.8,6.3,6.2,6.3c3.4,0,6.2-2.9,6.2-6.3v-17.5c0-3.4-2.8-6.3-6.2-6.3
			S101.6,177.9,101.6,181.3z"/>
		<path d="M130.5,182.2c0-10.1,8.1-18.1,18.1-18.1c10.1,0,18.1,8.1,18.1,18.1c0,3-0.4,5.9-1.9,8.3l-13.3,22.3
			c-1.5,2.6-4.9,3.5-7.5,1.9c-2.6-1.5-3.4-4.9-1.9-7.5l4.1-7.1C137.4,199,130.5,191.3,130.5,182.2z M141.4,182.2
			c0,3.9,3.2,7.2,7.2,7.2c4.3,0,7.2-3.4,7.2-7.2c0-3.9-3.2-7.2-7.2-7.2C144.7,175,141.4,178.3,141.4,182.2z"/>
	</g>
</g>
<path d="M97.3,126c0.1-4.2-0.8-7-5.1-8.6c-3.7-1.6-6.9-3.8-11-6c4.6-2.7,8.3-5.1,12.2-7c3-1.5,3.9-3.5,3.8-6.7
	c-0.2-6.8-0.1-13.5-0.1-20.3c0-7.1-4.4-13.3-11.4-13.6c0,0-34.9,0.1-38.4,0.1c3.8,3.3,3.5,6.8,3.5,9.9c0,18-0.1,75.4-0.1,75.4
	c0,5.8,0,11.6,0,17.4c0,5.2,0,10.5-0.7,16.1c10.9-8.7,21.7-17.3,32.5-25.9c4.8-3.8,11.2-6.8,13.6-11.7c1.3-2.7,1.3-6,1.3-9.6
	L97.3,126z"/>
<path class="st0" d="M66.8,102.1c0-6.3,0-11.9,0-17.5c0-1.5,0.5-2.5,2.1-2.4c3.2,0.4,7.7-1.8,9.4,1.1c1.8,3.1,1.8,8.2,0,11.3
	C76.1,98.2,71.3,99.6,66.8,102.1z"/>
<path class="st0" d="M67.7,145.2c-2.4-12.3-1.1-14.8,10.7-20.1C82.1,135.9,75,140.6,67.7,145.2z"/>
</svg>
