<?xml version="1.0" encoding="utf-8"?>
<!-- Generator: Adobe Illustrator 17.0.0, SVG Export Plug-In . SVG Version: 6.00 Build 0)  -->
<!DOCTYPE svg PUBLIC "-//W3C//DTD SVG 1.1//EN" "http://www.w3.org/Graphics/SVG/1.1/DTD/svg11.dtd" [
	<!ENTITY ns_flows "http://ns.adobe.com/Flows/1.0/">
	<!ENTITY ns_extend "http://ns.adobe.com/Extensibility/1.0/">
	<!ENTITY ns_ai "http://ns.adobe.com/AdobeIllustrator/10.0/">
	<!ENTITY ns_graphs "http://ns.adobe.com/Graphs/1.0/">
]>
<svg version="1.1" id="Layer_2" xmlns:x="&ns_extend;" xmlns:i="&ns_ai;" xmlns:graph="&ns_graphs;"
	 xmlns="http://www.w3.org/2000/svg" xmlns:xlink="http://www.w3.org/1999/xlink" xmlns:a="http://ns.adobe.com/AdobeSVGViewerExtensions/3.0/"
	 x="0px" y="0px" width="256px" height="256px" viewBox="0 0 256 256" style="enable-background:new 0 0 256 256;"
	 xml:space="preserve">
<style type="text/css">
	.st0{fill:#FFFFFF;}
	.st1{fill:#ED1B28;}
</style>
<g>
	<g>
		<g>
			<g>
				<path class="st0" d="M128,249.4C61,249.4,6.6,195,6.6,128S61,6.6,128,6.6S249.4,61,249.4,128S195,249.4,128,249.4z"/>
				<path class="st1" d="M128,11.1c31.2,0,60.6,12.2,82.6,34.2s34.2,51.4,34.2,82.6s-12.2,60.6-34.2,82.6s-51.4,34.2-82.6,34.2
					s-60.6-12.2-82.6-34.2S11.1,159.2,11.1,128s12.2-60.6,34.2-82.6S96.8,11.1,128,11.1 M128,2C58.4,2,2,58.4,2,128
					s56.4,126,126,126s126-56.4,126-126S197.6,2,128,2L128,2z"/>
			</g>
			<g>
				<circle class="st0" cx="128" cy="128" r="107.1"/>
				<path class="st1" d="M128,23.4C70.3,23.4,23.4,70.3,23.4,128S70.3,232.6,128,232.6S232.6,185.7,232.6,128S185.7,23.4,128,23.4z"
					/>
			</g>
		</g>
		<g>
			<path class="st0" d="M129.3,193.5c2.3,7.4-1.2,11.5-1.2,11.5s-2.9-4.8-0.9-11.7c-0.6,1.7-3.5,2.3-3.5,2.3
				c1.3-3.3,0.1-8.5-2.5-10.3c-2.3-1.6-5.8-1-7.6,1.2c-1.6,2-1.2,4.3,1.2,6.6c0.1,0.1,0.2,0.3,0.3,0.5c-4-0.2-5.7-1.5-6.3-5.1
				c-1.5,1.6-1.6,2.8-0.3,5.6c-4.3,0.2-8.1-5.4-6.3-9.1c0.5-0.9,1.1-0.4,1.7-0.3c5.3,0.8,10-0.5,14.2-3.8c0.4-0.3,0.9-0.5,0.9-1.1
				c-6-1.1-7.9-3.8-5.4-7.4c1.6,3.7,4.7,4.5,8,2.1c2.2-1.6,3.3-3.7,3.5-6.4c0.1-2-1.1-3.3-3.1-3c-3.5,0.5-7,1-8.2,5.3
				c-0.3,1.2-1.3-0.1-2-0.5c-0.8-0.5-0.4-2.2-1.6-1.9s-2,1.4-2.7,2.4c-0.7,1.1-1.1,2.3-1,3.7c0.1,0.4,0.6,1,0,1.4
				c-0.5,0.3-1.1,0-1.6-0.3c-1-0.5-1.4-1.6-1.9-2.7c-1.9,1.8-3.7,3.4-6.4,3.6c-0.5-0.7,0.6-1,0.3-1.6c-0.1,0-0.2-0.1-0.3-0.1
				c-4.3,0.1-8.5,1.2-12.8,1.7c-2.2,0.3-3,1.2-3.4,3.1c-0.2,0.8-0.2,1.7-0.4,2.6c-0.2,1.2-0.7,2.1-1.9,2.3c-4.6,1-7.8-2.2-6.9-7.2
				c0.9,2.9,3.3,0.6,4.8,1.9c0.2,0.2,0.6-0.9,0.5-1.4c-0.4-2.8-1.8-5.1-4.1-6.7c-1.2-0.9-2.5,0.4-2.7,2.6c-2.3-1.2-3.4-4-2.3-6.3
				c0.8-1.8,2.8-2.3,5.7-1.5c0.1-0.3,0.1-0.7,0.2-1c0.8-4,2.8-4.9,6.3-2.8c0.7,0.4,1.1,0.2,1.7,0c1.8-0.8,4.1-0.1,5.2,1.5
				c0.9,1.2,0.8,2.4-0.1,3.6c-0.9,1.2-1.9,2.3-2.8,3.6c3.5-0.6,6.5-2.5,10.1-3.9c-1.7-0.6-2.9,0.2-4.3-0.1c1.5-2.3,3.7-3.3,6.3-4
				c-0.7-1-1.8-1.7-1.8-2.9c0-0.5,0-1.1,0.4-1.4c0.4-0.3,0.8,0.2,1.1,0.4c2.3,1.4,4.7,1,7.1,0.1c0.7-0.3,1.4-0.6,0.4-1.4
				c-0.8-0.7-1.2-1.5-1.4-2.7c-3.6,2.8-7.5,3.3-12,2c5-5,8-10.8,10.4-17.5c-1.2,0.5-1.3,1.3-1.6,1.9c-2.3,4.7-4.8,9.2-8.8,12.7
				c-4.7,4.1-10.2,4.4-15.5,0.8c9-5,14.7-12.8,19.9-21.4c-1.5,0-1.9,0.9-2.4,1.8c-3.1,4.8-6.6,9.3-11,12.9
				c-4.7,3.9-9.8,6.4-16.1,4.2c-2.2-0.8-4.1-2-6-3.9c4.2-1.4,8-3.2,11.5-5.6c3.3-2.3,6.4-4.9,9.3-7.7c0.3-0.3,1.1-0.6,0.7-1.1
				c-0.6-0.7-1,0.1-1.4,0.4c-4.4,3.2-8.9,6.1-14.1,7.7c-7.7,2.4-13.9,0.4-18-6.1c-0.2-0.3-0.3-0.6-0.6-1.2c9.7,0,18.2-3.2,26.5-7.6
				c-1.1-1.3-2-0.5-3-0.1c-5.1,2.5-10.3,4.5-15.9,5.1c-8,0.9-14.7-3.4-16.3-10.7c7.6,1.5,15.1,0.6,22.5-1.2c2.8-0.7,5.7-1.5,8.4-2.6
				c-0.8-1.3-1.8-1.1-2.9-0.9c-5.4,0.9-10.7,1.3-16.1,0.1c-7.2-1.6-11.8-6.1-13.7-13.5c9.1,5.8,19,6.2,29.5,5.3
				c-1.8-1.4-3.2-2.5-5.4-2.7c-5.8-0.6-11.3-2-16-5.8c-4-3.2-5.9-7.4-6.1-13.1C44.4,93.5,52.9,96,62,97.4c-4.6-2.7-8-6.4-10.1-11.7
				c9.4,8.1,20.1,8.6,31.2,7.3c5.9-0.7,11.8-1.8,17.7-2.7c0.9-0.1,1.9-0.2,2.8-0.2c1.7-0.1,3.1,0.5,3.7,2.3s0.1,3.2-1.2,4.5
				c-0.3,0.3-0.6,0.7-1,0.8c-3.3,0.7-3.3,3.3-3.5,5.8c-0.4,4,0.1,7.8,3,10.9c0.9,0.9,1.4,2.1,3.5,1.6c1.4-0.4,3.3,0.6,5,0.7
				c0.8,0,1.3,0,1.7-0.9c0.5-1.1-0.2-1.2-0.8-1.5c-0.7-0.4-1.2-1-0.9-2c2.2,0.6,7.9-2.1,7.5-3.9c-0.6-2.6,0.4-1.9,2-2.3
				c1.8-0.5,2.7-2.5,3.7-4.8c-2.8,1.7-4.8,0.7-6.6-0.9c-0.8-0.7-1.3-0.8-2.3-0.4c-1.5,0.7-3,0.4-4.1-1c-1.1-1.5-0.8-2.9,0.3-4.3
				c0.7,0.1,0.5,0.8,0.6,1.2c0.4,1.4,1.2,1.6,2.2,0.8c0.8-0.6,1.6-1.3,2.3-2c0.4-0.4,1.3-0.6,0.9-1.4c-0.3-0.5-0.8-0.8-1.5-0.8
				c-0.8,0-1.1,0.5-1.3,1.2c-0.1,0.4-0.1,0.8-0.2,1.2c-2.9-1.2-4.3-3.8-3.6-6.6c0.6-2.3,2.3-2.9,4.4-3.2c1.3-0.2,3.1,0.7,3.9-0.5
				c0.9-1.4,0.1-3.2-0.2-4.8c-0.3-1.8-1.5-3.7,1.9-2.8c0.6,0.2,0.5-0.5,0.4-0.9c-0.3-1.1-0.4-2.4,1-2.6c1.6-0.2,1.4,1.2,1.6,2.2
				c0,0.2,0.2,0.3,0.4,0.5c0.7-0.7,0.8-1.5,0.8-2.4c0-1,0.3-1.8,1.4-1.8c1,0,1.5,0.7,1.5,1.7c-0.1,0.9,0,1.7,0.7,2.4
				c1-0.7,0.1-3.3,2.3-2.6c1.9,0.5,0.5,2.2,0.9,3.5c0.8-0.1,1.7-0.8,2.5,0.1c0.7,0.8,0.1,1.6-0.1,2.4c-0.3,1.2-0.5,2.5-0.5,3.8
				c0,0.6-0.5,1.6,0.5,1.8c0.9,0.1,1.7-0.3,2-1.3c0.1-0.3,0.1-0.6,0.2-1c1.1,0.7,1.8,1.6,1.6,2.8c-0.5,2.2-2.3,2.9-4.5,3.4
				c1.2,1.3,2.4,2.1,4,1.9c1.7-0.2,2-1.5,2.3-3c2.6,2.8,2.1,4.9-1.8,7c3,1.5,3.4,2.2,2.5,5c-1.1-0.7-1.6-2.3-3.3-2.1
				c0.4,2.5-0.6,4.6-1.5,6.8c-0.7,1.8-0.9,3.6-0.3,5.5c0.4,1.4,1.3,2.2,2.7,2.5c1.3,0.3,2.1-0.5,2.7-1.5c1.6,2.9,0.4,4.1-4.4,4.5
				c0.1,0.8,0.8,0.7,1.3,0.8c3.4,0.5,6.7-0.5,10-0.8c0.4,0,0.7-0.5,1-0.7c3.7-3.3,5.2-11.4,3-15.9c-0.3-0.6-0.8-0.8-1.3-0.9
				c-1.1-0.4-2.1-1-2.9-1.8c-1.1-1.3-1.3-2.7-0.7-4.2c0.6-1.6,1.9-2.1,3.4-2.1c4.1,0,8.1,1,12.2,1.6c5.4,0.8,10.8,1.8,16.3,1.8
				c8.5,0,16.6-1.5,23.2-7.7c-0.9,3.6-2.4,5.4-10.1,11.7c9.2-1.6,17.8-4,24.7-10.7c0.5,1.1,0.2,2.1,0,3c-1.1,5.9-4.7,9.9-10,12.5
				c-3.7,1.8-7.7,2.8-11.8,3.2c-2.1,0.2-3.6,1.2-5.5,2.7c10.5,0.9,20.3,0.5,29.6-5.3c-0.9,4.3-2.9,7.6-6.1,10
				c-4.9,3.8-10.7,4.4-16.6,4.2c-2.4-0.1-4.9-0.5-7.3-0.9c-1.1-0.2-2,0-2.9,1c5,1.9,10.1,3.2,15.4,4c4.7,0.7,9.5,0.9,14.2,0
				c1.8-0.3,1.5,0.4,1.1,1.6c-2.5,6.1-8.1,9.4-15,9c-6.1-0.4-11.6-2.6-17-5.2c-0.9-0.4-1.8-1.1-2.7,0.2c8.2,4.3,16.6,7.6,26,7.5
				c-0.9,3.8-5.7,7.6-10.4,8.2c-4.3,0.5-8.3-0.7-12.1-2.4c-3.1-1.5-6.1-3.3-8.9-5.3c-0.7-0.5-1.5-1-2.4-1.3c1.6,2.4,3.8,4.2,6.1,6
				c2.2,1.8,4.6,3.4,7.1,4.9s5.3,2.4,8,3.6c-4.3,4.8-10.9,6-16.8,3c-4.9-2.5-8.6-6.4-12-10.7c-1.5-1.9-2.8-3.9-4.1-5.8
				c-0.5-0.7-0.9-1.4-2.3-1.6c5.3,8.7,11,16.5,19.9,21.4c-4.3,3.4-10.1,3.4-14.6-0.1c-4.1-3.1-6.6-7.4-8.9-11.8
				c-0.6-1.1-1.1-2.3-2-3.3c0.8,3.2,2.2,6.2,3.7,9.1c1.6,3,3.7,5.6,6.2,8.2c-3.7,1.1-7,1-10.2-0.8c-2.4-1.4-1.9,1.5-3,2.2
				c-0.8,0.5,0.7,0.9,1.2,1.1c2.6,1.1,5.2,1,7.6-0.9c1.2,2.1-0.1,3.3-1.5,4.6c2.6,0.7,4.9,1.7,6.5,4.1c-1.5-0.1-2.6-0.2-3.8-0.3
				c3,1.9,6,3.5,9.7,4.1c-0.8-1-1.7-1.9-2.5-2.9c-1-1.2-1.8-2.4-0.6-4s3.3-2.4,4.9-1.8c0.7,0.3,1.2,0.7,2.1,0.1
				c3.2-2.1,5.6-0.9,6.2,2.8c0.1,0.3,0.1,0.7,0.2,1c3.6-0.8,5.3-0.2,6,2c0.8,2.5-0.2,4.8-2.6,5.8c-0.5-0.8,0.6-2.1-1.1-2.6
				c-1.6-0.5-2,0.6-2.9,1.2c-2.2,1.8-2.6,4.2-2.8,7.4c1.7-1.9,4.2,0.6,5.2-2.2c0.7,2.3,0.3,4.2-1.2,5.6c-1.7,1.6-3.8,1.4-5.9,1.3
				c-0.9,0-1.4-0.9-1.6-1.8c-0.1-0.6-0.1-1.1-0.2-1.7c-0.6-3.5-1-3.8-4.3-4.4c-4.1-0.7-8.1-1.8-12.5-1.5c-0.3,0.4,0.7,0.7,0.5,1.3
				c-2.5-0.1-3.7-0.8-6.5-3.6c-0.6,1.1-0.9,2.5-2.2,2.9c-0.9,0.3-1.8,0.7-1.4-1c0.4-1.8-0.3-3.4-1.5-4.7c-1.8-2-1.9-2-3.4,0
				c-0.5,0.6-1,1.2-1.7,1.1c-0.7-0.1-0.5-0.9-0.7-1.4c-1.1-2.8-6.4-5.2-9.3-4.2c-1.1,0.4-1.7,1.1-1.7,2.4c0.1,3.1,1.4,5.6,4.1,7.2
				c3.1,1.9,5.8,1,7.4-2.6c1.1,1.4,1.1,2.8,0.6,4.2c-1,2.8-3.6,2.9-6.4,3.2c4.5,4.1,9.5,5.9,15.2,5c1.7-0.3,2,0.3,2.1,1.6
				c0.4,4.2-1.9,7.1-6.8,8.2c1.4-2.2,1.8-4.1,0.3-6c-1.3,4-2.6,5-6.6,5.2c0.2-0.3,0.4-0.5,0.6-0.7c2.4-2.3,2.6-4.9,0.6-6.9
				c-2.4-2.3-6.4-2.3-8.2,0.3c-2.1,3-2.7,6.3-1.1,9.8C133.3,196.2,131,195,129.3,193.5z M114.1,156.2c0.6,1.7,2.1,2.5,3.5,3.2
				C116.4,158.4,115.6,156.9,114.1,156.2c0-0.6-0.5-1-0.8-1.4c-2.1-2.7-3.6-5.7-3.7-9.2c-0.1-8.3-0.1-16.7-0.2-25
				c0-1.5,0.6-1.7,2-1.6c5.7,0.7,11.2,0,15.9-3.7c0.7-0.6,1.2-0.5,1.8,0c4.7,3.7,10.1,4.3,15.7,3.7c1.9-0.2,2.2,0.3,2.2,1.9
				c-0.1,6.6-0.2,13.2,0,19.8c0.1,5.1-0.4,9.9-3.7,14c0,0.1,0.1,0.2,0.2,0.5c2.4-2.9,3.9-6,3.9-9.6c0.1-9.3,0-18.7,0-28.1
				c-0.4,0-0.8,0.1-1.1,0.1c-6.4,0.9-12.5,0.5-17.6-4.1c-0.8-0.7-1.1-0.1-1.6,0.3c-4,3.5-8.7,4.5-13.8,4.2c-1.5-0.1-3-0.2-4.4-0.4
				c0,1.5-0.1,3-0.1,4.5c0,8-0.2,16,0.1,23.9C109.2,150.1,110.7,153.7,114.1,156.2z M179,171.8c1.4-5.9,1.4-5.9-1.3-9.3
				c0.7,2.9,0.3,5.6-1,8.3c-0.8-3.1-2.8-5.4-5.3-7.3c-1.3,1.5-0.1,2.7,0.9,3.7c1.6,1.8,2.8,3.7,2.6,6.2c-1-0.1-0.8-1.2-1.6-1.4
				c-0.7,0.4,0.1,1.4-0.7,1.8c-1.1-0.4,0-2.1-1.2-2.2c-1-0.1-0.2,1.3-0.8,1.7c-1.2-0.4-0.1-2-1.2-2.5c-1,0.2-0.2,1.4-0.8,1.8
				c-1.1-0.6-0.3-1.9-1.1-2.4c-0.9,0.4-0.1,1.5-0.9,1.7c-1-0.7-0.2-1.8-0.8-2.6c-0.5,0.1-0.5,0.5-0.6,0.9s0,0.9-0.6,1
				c-0.7-3-0.7-3-1.9-3.7c1.7,3.8,1.2,4.5-3.8,4.6c1,0.8,1.8,1.4,2.9,1.5c1.4,0.1,2.9,0,4.3,0.3c2.6,0.5,5.2,1.2,7.8,1.3
				c2,0.1,2.9,1,3.3,2.7c0.4,1.3,0.6,2.7,0.9,4c0.1,0.6,0.3,1.2,1,1.2c0.6,0,1.7,0.2,1.7-0.4c0.1-1.4,1.3-1.9,2.1-2.9
				c-0.5,0-0.8-0.1-1.1,0c-2.3,0.8-2.3,0.7-2.7-1.6c-0.3-1.9,1-3.2,1.1-5c0.1-1.6,4.1-4,5.8-3.7c-0.7-1-0.5-2,0.1-3.1
				C182.5,166.6,181.4,169.8,179,171.8z M85.2,171.5c-0.7,0.7-0.1,1.9-1.1,2.3c-0.6-0.5,0-1.5-0.8-1.8c-0.7,0.3-0.6,1.3-1.5,1.4
				c-0.3-2.5,0.9-4.4,2.5-6.1c1-1.1,2.2-2.2,0.9-3.8c-1.8,1.8-4,3.3-4.6,5.9c-0.1,0.5-0.1,1.2-1,1.4c-0.5-2.3-1.7-4.5-0.5-6.9
				c0.2-0.5,0.1-1.1-0.4-1.3c-0.9-0.4-0.5,0.6-0.8,0.8c-1.9,1.5-1,3.4-0.9,5.2c0.1,0.9,0.3,1.7,0.6,3c-2.5-2-3.5-5.1-7.3-5.3
				c1.2,1.2,0.6,2.2,0.3,3.4c1.2-0.9,1.9-0.4,2.8,0.2c2.3,1.6,3.4,3.9,4.1,6.5c0.3,1.2,0.3,2.7-0.6,3.7c-0.8,0.9-1.5-0.5-2.3-0.4
				c-0.2,0-0.6-0.2-0.6,0.3c0.4,0.3,0.8,0.6,1.2,0.9c0.5,0.4,0.6,0.9,0.7,1.5c0.2,0.8,0.9,0.5,1.4,0.6c0.6,0.1,1-0.1,1.1-0.7
				c0.1-0.6,0.3-1.1,0.4-1.7c1-4.8,1-4.8,5.6-5.6c0.9-0.2,1.8-0.4,2.7-0.5c2.1-0.3,4.1-1,6.2-0.9c2.5,0,3.1-0.2,5.2-2
				c-4.3,1.2-5.5,0.3-5.1-3.5c-2.2,0.2-0.1,2.5-1.5,3c-0.5-0.5-0.2-1.5-1.2-1.8c-0.1,0.9,0.3,2-0.6,2.7c-0.9-0.4,0.1-1.7-1.1-1.9
				c-0.7,0.7,0.3,2.1-1,2.5c-0.7-0.4,0.2-1.7-0.9-1.6c-0.9,0.1-0.3,1.1-0.6,1.6c-0.1,0.3-0.1,0.7-0.6,0.8
				C85.4,173,86.1,172,85.2,171.5z M73.9,116.4c1.1,0.3,2.3,0.2,3.4,0c4.2-0.5,8.2-1.9,12.1-3.6c1-0.4,1.7-0.7,1.8,0.8
				c0.1,1.4,0.8,2.6,2.1,3.4c1.6,1,0.7,1.4-0.3,1.9c-4.5,2.6-9.1,4.9-14.1,6.2c6.3-0.5,11.5-3.7,17-6.8c0,2.3,0.3,4.3,2.1,5.7
				c0.9,0.8-0.1,1.1-0.4,1.5c-2.2,2.1-4.8,3.9-7.5,5.5c0.8,0.4,1.2-0.1,1.7-0.3c2.4-1.3,4.6-2.8,6.4-4.7c1.7-1.7,3.9-0.2,5.7-1
				c0.4-0.2,1.2,4,0.7,4.7c-1.4,1.8-2.8,3.6-4.2,5.3c1.9-1.1,3.2-2.8,4.5-4.4c0.3-0.4,0.5-1.1,1-1c2.8,0.6,1-0.6,0.5-1.2
				c-0.8-1-1.3-2.1-1.3-3.3c0-1.5,1.8-0.1,2.1-1.4c-1.5-0.3-2.8-1-3.7-2.5c-0.4,1.1,0.5,1.8,0.5,2.6c-3.8,1.2-6.9-0.5-7-3.9
				c0-1-0.3-2.6,1.7-1.4c0.6,0.4,1.2,0.3,2.3,0c-2.6-0.4-3.7-1.8-3.4-4.5c-0.3,0.5-0.4,0.8-0.6,0.9c-0.6,0.6,0.7,2-0.9,2.2
				c-0.9,0.1-1.8-0.5-2.5-1.1c-1.4-1.2-1.8-2.8-1.5-4.5c0.2-1.2,0.3-2.8,2.3-1.5c0.5,0.3,1.2,0.4,2.1-0.1c-2.6-0.4-3.6-2-3.3-4.5
				c-1.1,0.8-0.5,1.9-0.9,2.9c-1.5-0.6-2.6-1.5-3.2-2.9c-0.5-1.3-0.2-2.7,0-4c-0.4,0.3-0.8,0.7-0.8,1.1c0,2.3-1.7,2.5-3.3,2.8
				c-5.8,1.1-11.6,1.9-17.5,1.2c0.7,0.3,1.5,0.5,2.3,0.7c4.6,0.8,9.2,0.2,13.7-0.7c2.5-0.5,5-1.6,6.4,1.7c0,0.1,0.1,0.1,0.2,0.1
				c1.7,1.4,1.5,2.3-0.5,3.3C84.7,114,79.5,115.6,73.9,116.4z M166.8,131.5c-2.9-1.7-5.6-3.7-8.1-6c-0.4-0.4-1.4-0.8-0.7-1.5
				c1.8-1.5,2.1-3.6,2.2-5.9c5.6,3.3,11,6.5,17.4,6.9c-5.8-1.4-11-4-16.1-7.3c1.9-1.2,3.1-2.6,3.4-4.7c0.2-1.2,0.8-0.8,1.5-0.6
				c2.3,0.9,4.7,1.8,7.1,2.6c3.6,1.1,6.5,1.4,8.6,1c-0.6-0.1-1.1-0.3-1.6-0.3c-5.1-0.5-9.9-2.4-14.6-4.4c-1.3-0.6-1.8-1.4-0.9-2.7
				c1.9-2.5,4-3.9,7.3-2.4c1.1,0.5,2.5,0.5,3.8,0.7c4,0.4,8.1,0.8,12-0.6c-5.5,0.7-10.9,0-16.3-1c-2.1-0.4-4.4-0.5-4.6-3.4
				c0-0.2-0.3-0.3-0.5-0.1c0.4,3.7-0.3,5-3.3,6.3c-0.1-1.7-0.1-1.7-1-2.9c0.7,2.7-0.7,4-2.9,4.8c0.6,0.1,1.1,0.1,1.6,0
				c2.1-0.6,2.5-0.3,2.6,1.9c0.1,1.8-0.5,3.2-2,4.3c-1.8,1.3-2.5,1-2.8-1.1c0-0.3-0.1-0.7-0.7-0.8c0.5,2.3-0.6,3.5-3,4.2
				c1,0.4,1.6,0.2,2.1-0.1c1.4-0.9,1.5,0,1.6,1.1c0.2,2.5-1.3,4.3-4,4.7c-2.4,0.4-2.9-0.1-2.4-2.3c0-0.2-0.1-0.4-0.2-1
				c-0.5,1.8-1.9,2.2-3.5,3.1c2.5,0.1,2.4,1.5,1.6,2.6c-1.2,1.8-0.9,2.8,0.7,4.2c1.8,1.6,3.1,3.7,5.2,5c-1.6-2.1-3.5-3.9-4.9-6.1
				c-0.5-0.7,0.2-4.8,0.6-4.7c1.8,0.6,3.8-0.7,5.5,0.8C160.3,128.2,163.2,130.4,166.8,131.5z M132.7,75c-0.2,1.2-0.8,2.2-1.4,3.2
				c-0.5,1-1.1,0.8-1.4-0.1c-0.5-1.5-1.1-3.1-1.2-4.7c-0.2,1.4-0.6,2.6-1,3.9c-0.2,0.6-0.2,1.5-0.9,1.5c-1,0.1-0.9-1-1.2-1.5
				c-0.4-0.7-0.8-1.4-0.9-2.3c-0.1,1-0.1,2-0.2,3c0,0.6,0.2,1.5-0.5,1.7c-0.8,0.3-1.2-0.5-1.6-1.1c-0.2-0.2-0.3-0.4-0.4-0.7
				c0,0.8,0.1,1.6,0.6,2.1c0.3,0.4,1.3,0.3,1.2,1c-0.4,2.3,1.2,1.6,2.2,1.6c2,0.1,4,0.1,6,0.1c0.5,0,1.4-0.1,1.4-0.3
				c-0.7-1.7,1-2,1.7-3.1c-2.1,0.7-2.3,0.6-2.4-1.4C132.7,76.9,132.7,75.9,132.7,75z M115.3,92.9c1.8-2.3,6.1-2.4,7.6-0.1
				c1.1,1.6,2.1,1.9,3.9,0.9c-1.2-0.7-2.3-1.5-3.4-2c-1.8-0.9-3.4-2-3.1-4.3c0.1-0.7-0.3-0.9-0.9-0.9c-1.6,0.1-3.5-0.4-4.5,1.2
				C113.8,89.4,114.1,91.2,115.3,92.9z M101.9,154c2.6,1.1,4.5,0.3,6.2-1.2c0.4-0.4,0.8-0.8,0.5-1.5c-0.9-2-1.1-4.1-1.6-6.6
				C105.8,148.3,104.4,151.3,101.9,154z M149.5,146.2c-0.5,1.7-0.9,3.2-1.3,4.6c-0.2,0.5-0.4,1-0.1,1.6c1.1,1.7,4.1,2.5,6.1,1.5
				C152,151.8,150.8,149.1,149.5,146.2z M80.1,101.7c-9.6-0.1-19.3,0.9-28.7-2.2C60.8,103,70.3,103.5,80.1,101.7z M176.6,101.7
				c9,1.7,17.9,1.1,26.7-1.8C194.5,102.4,185.5,101.4,176.6,101.7z M179.5,119.5c9.4,4.3,18.5,7.7,28.7,7.4c-8.9-0.4-17.1-3.2-25-7
				C182.1,119.3,181.1,118.8,179.5,119.5z M76.6,119.5c-1.7-0.7-2.8,0-3.9,0.5c-7.6,3.7-15.5,6.4-24,6.9
				C58.5,127.1,67.4,123.7,76.6,119.5z M75.5,110.8c-1.7-0.7-3.1-0.5-4.5-0.2c-5.5,1.3-11.1,2.5-16.8,2.1c-1.8-0.1-3.7-0.4-5.5-0.7
				C57.7,115,66.4,112.6,75.5,110.8z M180.8,110.5c8.7,2,17.4,4.3,26.4,1.5c-5.8,1.2-11.5,0.7-17.3-0.4
				C186.9,111,184,109.8,180.8,110.5z M152.8,156.6c-1.5,0.1-2.7,0.3-3.9,0.3s-2.4-0.2-3.6-0.3c0.3,1.5,2.3,3,0.7,4.5
				c-1.2,1.2-3,0.6-4.8,0.5c2.6,2,2.7,4.7,3,7.7c1-2.1,0.2-3.8-0.3-5.5c-0.1-0.4-0.8-1.2,0.2-1.3c1.4,0,2.8-1.3,4.4-0.3
				c-1.8-1.1-1.2-3-1.9-4.5C148.8,157.6,150.9,158.1,152.8,156.6z M113.2,162.6c-0.8,2.1-1.7,4-0.9,6.6c0.5-2.9,0.7-5.6,2.9-7.6
				c-1.8,0.3-3.8,0.7-4.8-0.7c-1-1.3,0.4-2.8,1.1-4.3c-2.6,0.4-5.1,0.6-7.9-0.2c2.1,1.9,4.4,1.2,6.5,1.4c-0.8,1.7-0.3,4-1.9,4.5
				C109.3,161.2,111.1,162.5,113.2,162.6z M149.2,166.4c1.6,2,2.5,4,2.7,6.7c0.7-2.2-0.4-3.8-0.9-5.6c2.1,0.5,3.7-1,6-0.4
				c-1.9-1.3-1.2-3.4-2.5-4.9c2,0.1,3.8,0.2,5.3-0.9c-2.1,0.7-4.3,0.3-6.6,0.1c1.1,1.5,2.5,3.2,1.3,4.6
				C153.3,167.4,151.2,166.8,149.2,166.4z M102.1,162.2c-0.7,1-1.1,2-1.1,3c0,1.2-1.2,1.4-1.6,2.4c1.9-1.8,3.7,0.3,5.6,0
				c0.9-0.1,0.4,0.6,0.3,1c-0.5,1.3-1.1,2.5-0.7,4c0.4-2,1.2-3.9,2.4-5.7c-6-0.4-6.3-1-3.5-5.6c-1.8,0.4-3.7,0.2-5.5,0.4
				c0.5,0.3,1.1,0.4,1.7,0.5C100.2,162.3,101,162.2,102.1,162.2z M175.6,128.1c6.2,4.1,12.5,7.4,19.6,9.1c-6.3-2.1-12-5.2-17.5-8.9
				C177.2,127.9,176.6,127.7,175.6,128.1z M62.5,136.8c6.5-1.7,12.3-4.8,17.6-8.9C74.2,130.9,68.7,134.6,62.5,136.8z M133.8,162.7
				c-1.1,0.5-2.2,1-3.1,1.7c-1.7,1.1-3.2,1.1-4.9,0c-1.9-1.2-3.9-2.3-5.9-3.4c2.3,2.1,5,3.5,7.8,4.8c0.3,0.1,0.7,0.2,1,0.1
				C130.6,165.1,132.4,164.2,133.8,162.7z M121.3,100c5,2.6,3.7-2.9,5.7-4.2C124.1,95.8,124.5,100.4,121.3,100z M134.2,84.4
				c0-0.1,0-0.3,0-0.4c-3.8,0-7.6,0-11.3,0c0,0.1,0,0.3,0,0.4C126.7,84.4,130.5,84.4,134.2,84.4z M170.1,135
				c2.6,3.4,5.4,6.5,9.1,8.7C176,140.9,173.3,137.7,170.1,135z M85.9,135c-2.8,2.4-5.3,5.1-7.9,7.8C81.2,140.8,83.7,138.1,85.9,135z
				 M128.8,88.2c-2.6-0.1-4.7,0-6.8-0.7C124,90.4,124,90.4,128.8,88.2z M167.3,147.4c-1.7-2.3-3.4-4.7-5.1-7
				c-0.1,0.1-0.3,0.2-0.4,0.3C163.3,143.2,165,145.6,167.3,147.4z M182.3,166.2c0.2-1.7-0.1-2.9-1.1-3.9c-0.3-0.3-0.7-0.4-1.1-0.1
				c-0.4,0.4-0.4,0.8,0.1,1C181.1,163.9,181.4,164.9,182.3,166.2z M79.8,165.6c1.1-0.6,1.7-1.5,2.8-1.6c0.5-0.1,1.1-0.2,0.8-0.9
				c-0.3-0.6-0.8-0.7-1.4-0.3C80.8,163.3,80.2,164.2,79.8,165.6z M175.1,120.5c-1.6-1.6-3.4-3.1-5.9-3.1
				C171.1,118.5,173.1,119.5,175.1,120.5z M89.5,146.6c2-1.6,3.5-3.6,4.7-5.8c-0.1-0.1-0.3-0.2-0.4-0.3
				C92.4,142.5,91,144.5,89.5,146.6z M176.8,165.6c-0.4-1.6-1.1-2.5-2.3-2.9c-0.6-0.2-1-0.1-1.2,0.5c-0.2,0.5,0.2,0.8,0.7,0.8
				C175.1,164.1,175.7,165,176.8,165.6z M187.9,171.7c0.9-1.4,0.9-2.6,0.4-3.8c-0.2-0.5-0.6-0.8-1.2-0.5c-0.5,0.3-0.4,0.7-0.1,1.1
				C187.7,169.3,187.5,170.4,187.9,171.7z M74.5,166.2c0.6-1.3,1-2.3,1.9-2.8c0.4-0.2,0.7-0.5,0.3-1c-0.4-0.5-0.9-0.4-1.3,0
				C74.5,163.3,74.1,164.4,74.5,166.2z M68.7,171.5c0.3-1.3,0.3-2.3,1-3.1c0.3-0.4,0.4-0.8-0.1-1.1c-0.6-0.3-1,0-1.2,0.5
				C67.8,169,67.8,170.2,68.7,171.5z M87.5,117.1c-2.6,0.5-4.4,1.4-5.9,2.9C83.6,119.4,85.3,118.4,87.5,117.1z M184.9,179.8
				c-0.9,0.7-1.7,1.2-2.4,1.8c-0.3,0.2-0.5,0.6-0.3,0.9c0.2,0.3,0.6,0.2,1,0C184,181.9,184.7,181.2,184.9,179.8z"/>
			<path class="st1" d="M129.8,80.8c-0.1,0.8-0.4,1.4-1.3,1.3s-1.1-0.8-1-1.6c0-0.7,0.4-1.3,1.2-1.3C129.4,79.3,129.8,80,129.8,80.8
				z"/>
			<path class="st1" d="M132.8,80.8c0,0.7-0.3,1.3-1,1.3c-0.7,0.1-1.1-0.4-1.1-1s0.2-1.3,1-1.3C132.4,79.7,132.8,80.1,132.8,80.8z"
				/>
			<path class="st1" d="M125.4,79.7c0.8,0.2,1.1,0.7,1,1.4c0,0.6-0.4,1.1-1.1,1s-0.8-0.7-0.8-1.3C124.4,80.2,124.7,79.7,125.4,79.7z
				"/>
		</g>
	</g>
	<g>
		<path class="st1" d="M140.2,145.1c0,0.8,0,1.6,0,2.4c0,0.2-0.1,0.4-0.2,0.5c-1.3,1.7-2.7,3.4-4,5.1c-0.3,0.3-0.5,0.4-0.9,0.4
			c-3.7,0-7.4,0-11.1,0c-1.9,0-3.8-0.1-5.6,0.8c0.7-1,1.5-1.7,2.6-2.3c0.5-0.3,1.1-0.5,1.6-0.5c0.4,0,0.5-0.2,0.5-0.6
			c0-2,0-3.9,0-5.9c0-4.2,0-8.3,0-12.5c0-0.4-0.1-0.5-0.5-0.6c-1.5-0.3-2.7-1.2-3.8-2.2c0.1-0.2,0.2-0.1,0.3-0.1
			c2.4,0.4,4.4-0.3,6.3-1.7c0.4-0.3,0.8-0.6,1.2-1c0.1-0.1,0.2-0.3,0.4-0.2c0.1,0.1,0.1,0.3,0.1,0.4c0,2.4,0,4.8,0,7.1
			c0,4.7,0,9.5,0,14.2c0,0.5,0.1,0.6,0.6,0.6c3,0,6,0,8.9,0c0.4,0,0.6-0.1,0.8-0.4c0.8-1.1,1.6-2.2,2.4-3.3
			C139.8,145.4,139.9,145.2,140.2,145.1z M125.1,140.9C125.1,140.9,125.1,140.9,125.1,140.9c0.1-0.4,0.1-0.8,0.1-1.2
			c0.2-2.3,0.1-4.6,0.8-6.8c0-0.1,0-0.3-0.1-0.4c-0.4-0.5-0.6-1-0.7-1.6c0-0.1,0-0.2-0.2-0.2c-0.1,0-0.1,0.1-0.2,0.2
			c-0.1,0.6-0.3,1.1-0.7,1.5c-0.1,0.1-0.1,0.3,0,0.4c0.3,0.9,0.5,1.9,0.5,2.8C124.8,137.4,124.9,139.1,125.1,140.9z"/>
		<path class="st1" d="M128.4,127.5c0.5,0.4,1.1,0.9,1.6,1.3c0.2,0.2,0.1,0.4,0.1,0.6c0,2.1,0,4.1,0,6.2c0,0.2,0,0.4,0,0.6
			c0,0.1-0.1,0.3,0.1,0.3c0.1,0,0.2-0.1,0.3-0.2c0.4-0.4,0.8-0.8,1.1-1.1c0.8-0.8,1.6-1.6,2.4-2.5c0.3-0.3,0.4-0.2,0.5,0.1
			c0.1,0.5,0.3,0.9,0.5,1.3c0.6,1.1,1.5,1.5,2.7,1.1c0.5-0.2,0.9-0.4,1.4-0.6c0.1,0,0.2-0.1,0.2,0c0.1,0.1,0,0.2,0,0.3
			c-0.5,1.1-1.1,2.1-1.9,3c-1.1,1.2-2.2,1.4-3.7,0.8c-0.7-0.3-1.4-0.8-1.9-1.3c-0.2-0.2-0.4-0.3-0.7-0.1c-0.1,0-0.2,0.1-0.2,0.1
			c-0.5,0.1-0.7,0.4-0.7,1c0,2.6,0,5.1,0,7.7c0,0.4-0.1,0.8-0.4,1.1c-0.4,0.3-0.7,0.6-1,1c-0.1,0.1-0.1,0.2-0.3,0.1
			c-0.1-0.1-0.1-0.2-0.1-0.3c0-0.6,0-1.2,0-1.8c0-5.9,0-11.8,0-17.7C128.3,127.9,128.2,127.7,128.4,127.5z"/>
		<path class="st1" d="M116.4,137.8c0.8-1.3,1.8-2.3,3.4-2.6c1.2-0.2,1.2-0.2,1.2-1.4c0-0.5,0.4-1.1,0.9-1.3
			c0.2-0.1,0.2,0.1,0.2,0.2c0,0.4,0,0.9,0,1.3c0,4.9-0.1,9.7,0,14.6c0,1-0.5,1.7-1.1,2.4c-0.9,1.1-2,1.9-3.5,2
			c-0.1,0-0.3,0.1-0.4-0.1c-0.1-0.2,0.2-0.2,0.3-0.2c1.4-0.7,2.3-1.9,3-3.2c0.3-0.6,0.5-1.1,0.5-1.8c0-1.1,0-2.1,0-3.2
			c0-0.4-0.1-0.5-0.5-0.6c-1.3-0.3-2.6-0.2-3.9,0c-0.2,0-0.3,0.2-0.4,0c-0.1-0.2,0.1-0.3,0.2-0.4c1.1-1.2,2.4-1.9,4.1-1.8
			c0.4,0,0.5-0.1,0.5-0.5c0-1,0-2,0-2.9c0-0.5-0.2-0.7-0.7-0.8c-1.1-0.2-2.2-0.1-3.3,0.2C116.8,137.8,116.6,137.9,116.4,137.8z"/>
		<path class="st1" d="M132.7,121c0.2,0.5,0.3,0.9,0.6,1.3c0.8,1.2,1.9,1.6,3.2,1.6c1,0.1,2-0.2,2.9-0.7c0.1,0,0.2-0.1,0.3-0.1
			c0.1,0.1,0,0.2,0,0.3c-0.7,1.3-1.5,2.6-2.8,3.6c-1.7,1.3-4,1.2-5.8-0.2c-0.4-0.3-0.7-0.6-1-0.9c-0.3-0.3-0.5-0.4-0.9-0.2
			c-0.6,0.3-1.1,0.5-1.7,0.8c0,0-0.1-0.1-0.1-0.1C129.1,124.6,130.9,122.8,132.7,121z"/>
	</g>
</g>
</svg>
